<svg width="150" height="173" viewBox="0 0 150 173" fill="none" xmlns="http://www.w3.org/2000/svg">
<g filter="url(#filter0_ii_180_3527)">
<path d="M135.926 4.93347H13.6425C9.77646 4.93347 6.64246 8.06747 6.64246 11.9335V155.997C6.64246 159.863 9.77647 162.997 13.6425 162.997H135.926C139.792 162.997 142.926 159.863 142.926 155.997V11.9335C142.926 8.06748 139.792 4.93347 135.926 4.93347Z" fill="#C479EF"/>
</g>
<path d="M135.861 4.30865H13.5778C9.71177 4.30865 6.57776 7.44266 6.57776 11.3086V155.372C6.57776 159.238 9.71178 162.372 13.5778 162.372H135.861C139.727 162.372 142.861 159.238 142.861 155.372V11.3087C142.861 7.44266 139.727 4.30865 135.861 4.30865Z" fill="url(#paint0_linear_180_3527)"/>
<path d="M139.479 0H10.4556C4.74657 0 0.114746 4.63182 0.114746 10.3408V161.769C0.114746 167.478 4.74657 172.11 10.4556 172.11H139.479C145.188 172.11 149.82 167.478 149.82 161.769V10.3408C149.82 4.63182 145.188 0 139.479 0ZM12.9115 149.877V20.2723C12.9115 15.4681 16.8109 11.5688 21.615 11.5688H128.125C132.93 11.5688 136.829 15.4681 136.829 20.2723V149.877C136.829 154.681 132.93 158.559 128.125 158.559H21.615C16.8109 158.559 12.9115 154.681 12.9115 149.877Z" fill="url(#paint1_linear_180_3527)"/>
<g filter="url(#filter1_f_180_3527)">
<path d="M139.048 44.444V149.877C138.897 150.825 138.122 155.435 134.373 158.128C132.671 159.335 130.861 159.83 130.56 159.916C128.772 160.39 127.242 160.326 126.316 160.218L35.1012 160.649V158.559H128.147C132.951 158.559 136.851 154.681 136.851 149.877V44.444H139.07H139.048Z" fill="#B0B0B0"/>
</g>
<defs>
<filter id="filter0_ii_180_3527" x="2.64246" y="0.933472" width="144.283" height="166.064" filterUnits="userSpaceOnUse" color-interpolation-filters="sRGB">
<feFlood flood-opacity="0" result="BackgroundImageFix"/>
<feBlend mode="normal" in="SourceGraphic" in2="BackgroundImageFix" result="shape"/>
<feColorMatrix in="SourceAlpha" type="matrix" values="0 0 0 0 0 0 0 0 0 0 0 0 0 0 0 0 0 0 127 0" result="hardAlpha"/>
<feOffset dx="10" dy="15"/>
<feGaussianBlur stdDeviation="2"/>
<feComposite in2="hardAlpha" operator="arithmetic" k2="-1" k3="1"/>
<feColorMatrix type="matrix" values="0 0 0 0 0.595888 0 0 0 0 0.308919 0 0 0 0 0.760417 0 0 0 1 0"/>
<feBlend mode="normal" in2="shape" result="effect1_innerShadow_180_3527"/>
<feColorMatrix in="SourceAlpha" type="matrix" values="0 0 0 0 0 0 0 0 0 0 0 0 0 0 0 0 0 0 127 0" result="hardAlpha"/>
<feOffset dx="-7" dy="-5"/>
<feGaussianBlur stdDeviation="2"/>
<feComposite in2="hardAlpha" operator="arithmetic" k2="-1" k3="1"/>
<feColorMatrix type="matrix" values="0 0 0 0 0.596078 0 0 0 0 0.309804 0 0 0 0 0.760784 0 0 0 1 0"/>
<feBlend mode="normal" in2="effect1_innerShadow_180_3527" result="effect2_innerShadow_180_3527"/>
</filter>
<filter id="filter1_f_180_3527" x="33.1012" y="42.444" width="107.968" height="120.205" filterUnits="userSpaceOnUse" color-interpolation-filters="sRGB">
<feFlood flood-opacity="0" result="BackgroundImageFix"/>
<feBlend mode="normal" in="SourceGraphic" in2="BackgroundImageFix" result="shape"/>
<feGaussianBlur stdDeviation="1" result="effect1_foregroundBlur_180_3527"/>
</filter>
<linearGradient id="paint0_linear_180_3527" x1="135.838" y1="4.30866" x2="10.8864" y2="158.344" gradientUnits="userSpaceOnUse">
<stop stop-color="white" stop-opacity="0.2"/>
<stop offset="0.465" stop-color="white" stop-opacity="0.05"/>
<stop offset="1" stop-color="white" stop-opacity="0.2"/>
</linearGradient>
<linearGradient id="paint1_linear_180_3527" x1="74.9672" y1="0" x2="74.9672" y2="172.11" gradientUnits="userSpaceOnUse">
<stop/>
<stop offset="0.2" stop-color="#343434"/>
<stop offset="0.49" stop-color="#020202"/>
<stop offset="0.735" stop-color="#262626"/>
<stop offset="1"/>
</linearGradient>
</defs>
</svg>
