<svg width="260" height="54" viewBox="0 0 260 54" fill="none" xmlns="http://www.w3.org/2000/svg">
<path d="M221.408 20.78C221.408 20.78 236.078 23.27 239.808 9.21997C239.808 9.21997 239.808 17.98 231.358 22.73C231.358 22.73 235.538 22.22 236.468 20.24C236.468 20.24 235.738 23.2 232.418 23.53C232.418 23.53 235.058 23.77 238.108 21.89C238.108 21.89 234.888 24.4 232.998 24.33C232.998 24.33 236.598 24.98 238.958 24.33C238.958 24.33 234.998 25.84 233.308 25.08C233.308 25.08 237.978 26.86 242.818 23.04C242.818 23.04 239.168 26.84 235.838 26.15C235.838 26.15 247.148 28.62 252.818 17.26C252.818 17.26 248.528 27.15 242.018 27.26C242.018 27.26 249.268 27.39 254.558 19.57C254.558 19.57 248.758 30.17 239.488 29.17C239.488 29.17 234.668 29.9 227.708 26.1C227.708 26.1 219.708 22.81 221.398 20.77L221.408 20.78Z" fill="white"/>
<path d="M218.598 18.1399C218.918 17.9599 219.318 18.1699 219.368 18.1999C219.368 18.1999 224.678 18.1999 227.898 14.0699C227.898 14.0699 225.208 18.0899 223.538 18.5599C223.538 18.5599 230.738 17.4699 232.698 14.7799C231.308 16.0699 230.008 16.9399 229.058 17.4999C229.058 17.4999 225.008 19.8999 220.508 19.9099C219.348 19.9099 218.578 19.7499 218.338 19.2599C218.178 18.9299 218.218 18.3399 218.588 18.1299L218.598 18.1399Z" fill="white"/>
<path d="M214.788 18.96C214.788 18.96 220.698 19.05 223.188 11.05C222.868 12.06 221.678 15.28 218.388 17.18C217.038 17.96 215.738 18.28 214.788 18.42V18.95V18.96Z" fill="white"/>
<path d="M211.008 17.98C212.558 17.47 214.458 16.6 216.298 15.09C222.248 10.21 222.688 2.65 222.748 1C222.898 2.72 223.238 8.82 219.108 14.31C216.938 17.19 214.378 18.79 212.748 19.63C211.878 19.86 211.098 19.5 211.018 17.99L211.008 17.98Z" fill="white"/>
<path d="M208.878 16.16C208.878 16.16 209.098 17.18 210.168 17.18C210.168 17.18 216.568 15.4 216.388 10.78C216.388 10.78 216.298 15.6 208.878 16.16Z" fill="white"/>
<path d="M204.878 17.18C204.878 17.18 204.878 19.78 206.968 18.51C206.968 18.51 212.498 13.62 210.128 3.62C210.128 3.62 209.728 16.44 204.878 17.18Z" fill="white"/>
<path d="M202.328 18.4401C202.328 18.4401 196.118 13.4201 196.848 9.43005C196.848 9.43005 198.808 15.4001 202.478 16.6001C202.478 16.6001 207.098 14.7201 207.008 11.0401C207.008 11.0401 207.798 15.3701 202.328 18.4301V18.4401Z" fill="white"/>
<path d="M197.588 19.98C197.588 19.98 198.788 20.05 198.748 18.86C198.748 18.86 196.288 14.01 196.438 3.77002C196.438 3.77002 193.908 6.76002 196.048 17.58C196.048 17.58 191.228 12.73 191.548 9.43002C191.448 10.25 191.438 11.17 191.608 12.16C192.408 16.83 196.578 19.4 197.598 19.98H197.588Z" fill="white"/>
<path d="M186.528 11.88C186.528 11.88 188.918 18.41 195.268 19.51C195.268 19.51 195.058 21.26 193.518 20.31C193.518 20.31 186.848 17.76 186.528 11.88Z" fill="white"/>
<path d="M184.458 7.03003C184.458 7.03003 184.588 19.42 192.278 20.59C192.278 20.59 192.118 23.27 190.528 22.09C189.698 21.57 184.388 18.11 183.828 11.98C183.648 9.97003 184.028 8.26003 184.448 7.03003H184.458Z" fill="white"/>
<path d="M182.558 17.34C182.558 17.34 185.878 21.49 189.078 21.04C189.078 21.04 190.398 22.75 188.898 22.39C188.898 22.39 183.548 21.21 182.558 17.35V17.34Z" fill="white"/>
<path d="M179.718 19.98C179.718 19.98 182.208 22.68 188.038 22.56C188.038 22.56 188.238 24.22 185.588 23.54C185.588 23.54 181.248 22.9 179.718 19.98Z" fill="white"/>
<path d="M172.338 19.33C172.798 20.24 173.628 21.59 175.068 22.8C175.508 23.17 179.438 26.41 181.948 24.93C182.358 24.69 182.998 24.16 183.408 22.93C183.888 22.85 184.378 23.03 184.618 23.41C184.808 23.72 184.828 24.21 184.398 25.02C182.708 26.73 181.108 26.96 180.518 27.01C177.238 27.27 173.638 24.23 172.338 19.33Z" fill="white"/>
<path d="M176.128 22C176.128 22 179.288 25.1 182.948 24.4L183.188 24.07C183.188 24.07 179.458 24.38 176.138 22H176.128Z" fill="white"/>
<path d="M176.988 20.25C176.988 20.25 180.078 24.35 183.788 23.76L183.878 23.45C183.878 23.45 179.908 23.52 176.988 20.25Z" fill="white"/>
<path d="M170.438 27.02C171.208 27.33 172.038 27.62 172.938 27.88C175.518 28.62 177.868 28.87 179.808 28.91C179.238 29.31 178.668 29.71 178.098 30.11C177.178 30.18 175.148 30.22 173.008 29.08C171.788 28.43 170.948 27.62 170.438 27.02Z" fill="white"/>
<path d="M235.728 28.81C235.408 29.37 227.238 23.25 212.928 21.14C211.678 20.95 206.778 20.23 202.838 20.45C181.168 21.68 165.748 52.95 164.108 51.85C163.278 51.29 167.398 43.42 171.408 37.59C173.548 34.47 176.098 30.83 180.508 27C185.968 22.27 191.078 20.04 192.098 19.61C194.248 18.69 201.248 15.8 210.008 16.33C225.388 17.26 236.108 28.14 235.718 28.81H235.728Z" fill="white"/>
<path d="M222.408 20.78C222.408 20.78 237.078 23.27 240.808 9.21997C240.808 9.21997 240.808 17.98 232.358 22.73C232.358 22.73 236.538 22.22 237.468 20.24C237.468 20.24 236.738 23.2 233.418 23.53C233.418 23.53 236.058 23.77 239.108 21.89C239.108 21.89 235.888 24.4 233.998 24.33C233.998 24.33 237.598 24.98 239.958 24.33C239.958 24.33 235.998 25.84 234.308 25.08C234.308 25.08 238.978 26.86 243.818 23.04C243.818 23.04 240.168 26.84 236.838 26.15C236.838 26.15 248.148 28.62 253.818 17.26C253.818 17.26 249.528 27.15 243.018 27.26C243.018 27.26 250.268 27.39 255.558 19.57C255.558 19.57 249.758 30.17 240.488 29.17C240.488 29.17 235.668 29.9 228.708 26.1C228.708 26.1 220.708 22.81 222.398 20.77L222.408 20.78Z" fill="white"/>
<path d="M219.598 18.1399C219.918 17.9599 220.318 18.1699 220.368 18.1999C220.368 18.1999 225.678 18.1999 228.898 14.0699C228.898 14.0699 226.208 18.0899 224.538 18.5599C224.538 18.5599 231.738 17.4699 233.698 14.7799C232.308 16.0699 231.008 16.9399 230.058 17.4999C230.058 17.4999 226.008 19.8999 221.508 19.9099C220.348 19.9099 219.578 19.7499 219.338 19.2599C219.178 18.9299 219.218 18.3399 219.588 18.1299L219.598 18.1399Z" fill="white"/>
<path d="M215.788 18.96C215.788 18.96 221.698 19.05 224.188 11.05C223.868 12.06 222.678 15.28 219.388 17.18C218.038 17.96 216.738 18.28 215.788 18.42V18.95V18.96Z" fill="white"/>
<path d="M212.008 17.98C213.558 17.47 215.458 16.6 217.298 15.09C223.248 10.21 223.688 2.65 223.748 1C223.898 2.72 224.238 8.82 220.108 14.31C217.938 17.19 215.378 18.79 213.748 19.63C212.878 19.86 212.098 19.5 212.018 17.99L212.008 17.98Z" fill="white"/>
<path d="M209.878 16.16C209.878 16.16 210.098 17.18 211.168 17.18C211.168 17.18 217.568 15.4 217.388 10.78C217.388 10.78 217.298 15.6 209.878 16.16Z" fill="white"/>
<path d="M205.878 17.18C205.878 17.18 205.878 19.78 207.968 18.51C207.968 18.51 213.498 13.62 211.128 3.62C211.128 3.62 210.728 16.44 205.878 17.18Z" fill="white"/>
<path d="M203.328 18.4401C203.328 18.4401 197.118 13.4201 197.848 9.43005C197.848 9.43005 199.808 15.4001 203.478 16.6001C203.478 16.6001 208.098 14.7201 208.008 11.0401C208.008 11.0401 208.798 15.3701 203.328 18.4301V18.4401Z" fill="white"/>
<path d="M198.588 19.98C198.588 19.98 199.788 20.05 199.748 18.86C199.748 18.86 197.288 14.01 197.438 3.77002C197.438 3.77002 194.908 6.76002 197.048 17.58C197.048 17.58 192.228 12.73 192.548 9.43002C192.448 10.25 192.438 11.17 192.608 12.16C193.408 16.83 197.578 19.4 198.598 19.98H198.588Z" fill="white"/>
<path d="M187.528 11.88C187.528 11.88 189.918 18.41 196.268 19.51C196.268 19.51 196.058 21.26 194.518 20.31C194.518 20.31 187.848 17.76 187.528 11.88Z" fill="white"/>
<path d="M185.458 7.03003C185.458 7.03003 185.588 19.42 193.278 20.59C193.278 20.59 193.118 23.27 191.528 22.09C190.698 21.57 185.388 18.11 184.828 11.98C184.648 9.97003 185.028 8.26003 185.448 7.03003H185.458Z" fill="white"/>
<path d="M183.558 17.34C183.558 17.34 186.878 21.49 190.078 21.04C190.078 21.04 191.398 22.75 189.898 22.39C189.898 22.39 184.548 21.21 183.558 17.35V17.34Z" fill="white"/>
<path d="M180.718 19.98C180.718 19.98 183.208 22.68 189.038 22.56C189.038 22.56 189.238 24.22 186.588 23.54C186.588 23.54 182.248 22.9 180.718 19.98Z" fill="white"/>
<path d="M173.338 19.33C173.798 20.24 174.628 21.59 176.068 22.8C176.508 23.17 180.438 26.41 182.948 24.93C183.358 24.69 183.998 24.16 184.408 22.93C184.888 22.85 185.378 23.03 185.618 23.41C185.808 23.72 185.828 24.21 185.398 25.02C183.708 26.73 182.108 26.96 181.518 27.01C178.238 27.27 174.638 24.23 173.338 19.33Z" fill="white"/>
<path d="M177.128 22C177.128 22 180.288 25.1 183.948 24.4L184.188 24.07C184.188 24.07 180.458 24.38 177.138 22H177.128Z" fill="white"/>
<path d="M177.988 20.25C177.988 20.25 181.078 24.35 184.788 23.76L184.878 23.45C184.878 23.45 180.908 23.52 177.988 20.25Z" fill="white"/>
<path d="M171.438 27.02C172.208 27.33 173.038 27.62 173.938 27.88C176.518 28.62 178.868 28.87 180.808 28.91C180.238 29.31 179.668 29.71 179.098 30.11C178.178 30.18 176.148 30.22 174.008 29.08C172.788 28.43 171.948 27.62 171.438 27.02Z" fill="white"/>
<path d="M236.728 28.81C236.408 29.37 228.238 23.25 213.928 21.14C212.678 20.95 207.778 20.23 203.838 20.45C182.168 21.68 166.748 52.95 165.108 51.85C164.278 51.29 168.398 43.42 172.408 37.59C174.548 34.47 177.098 30.83 181.508 27C186.968 22.27 192.078 20.04 193.098 19.61C195.248 18.69 202.248 15.8 211.008 16.33C226.388 17.26 237.108 28.14 236.718 28.81H236.728Z" fill="white"/>
<path d="M37.15 21.78C37.15 21.78 22.48 24.27 18.75 10.22C18.75 10.22 18.75 18.98 27.2 23.73C27.2 23.73 23.02 23.22 22.09 21.24C22.09 21.24 22.82 24.2 26.14 24.53C26.14 24.53 23.5 24.77 20.45 22.89C20.45 22.89 23.67 25.4 25.56 25.33C25.56 25.33 21.96 25.98 19.6 25.33C19.6 25.33 23.56 26.84 25.25 26.08C25.25 26.08 20.58 27.86 15.74 24.04C15.74 24.04 19.39 27.84 22.72 27.15C22.72 27.15 11.41 29.62 5.74 18.26C5.74 18.26 10.03 28.15 16.54 28.26C16.54 28.26 9.29 28.39 4 20.57C4 20.57 9.8 31.17 19.07 30.17C19.07 30.17 23.89 30.9 30.85 27.1C30.85 27.1 38.85 23.81 37.16 21.77L37.15 21.78Z" fill="white"/>
<path d="M39.97 19.1399C39.65 18.9599 39.25 19.1699 39.2 19.1999C39.2 19.1999 33.89 19.1999 30.67 15.0699C30.67 15.0699 33.36 19.0899 35.03 19.5599C35.03 19.5599 27.83 18.4699 25.87 15.7799C27.26 17.0699 28.56 17.9399 29.51 18.4999C29.51 18.4999 33.56 20.8999 38.06 20.9099C39.22 20.9099 39.99 20.7499 40.23 20.2599C40.39 19.9299 40.35 19.3399 39.98 19.1299L39.97 19.1399Z" fill="white"/>
<path d="M43.78 19.96C43.78 19.96 37.87 20.05 35.38 12.05C35.7 13.06 36.89 16.28 40.18 18.18C41.53 18.96 42.83 19.28 43.78 19.42V19.95V19.96Z" fill="white"/>
<path d="M47.5501 18.98C46.0001 18.47 44.1001 17.6 42.2601 16.09C36.3101 11.21 35.8701 3.65 35.8101 2C35.6601 3.72 35.3201 9.82 39.4501 15.31C41.6201 18.19 44.1801 19.79 45.8101 20.63C46.6801 20.86 47.4601 20.5 47.5401 18.99L47.5501 18.98Z" fill="white"/>
<path d="M49.69 17.16C49.69 17.16 49.47 18.18 48.4 18.18C48.4 18.18 42 16.4 42.18 11.78C42.18 11.78 42.27 16.6 49.69 17.16Z" fill="white"/>
<path d="M53.6901 18.18C53.6901 18.18 53.6901 20.78 51.6001 19.51C51.6001 19.51 46.0701 14.62 48.4401 4.62C48.4401 4.62 48.8401 17.44 53.6901 18.18Z" fill="white"/>
<path d="M56.2399 19.4401C56.2399 19.4401 62.4499 14.4201 61.7199 10.4301C61.7199 10.4301 59.7599 16.4001 56.0899 17.6001C56.0899 17.6001 51.4699 15.7201 51.5599 12.0401C51.5599 12.0401 50.7699 16.3701 56.2399 19.4301V19.4401Z" fill="white"/>
<path d="M60.9799 20.98C60.9799 20.98 59.7799 21.05 59.8199 19.86C59.8199 19.86 62.2799 15.01 62.1299 4.77002C62.1299 4.77002 64.6599 7.76002 62.5199 18.58C62.5199 18.58 67.3399 13.73 67.0199 10.43C67.1199 11.25 67.1299 12.17 66.9599 13.16C66.1599 17.83 61.9899 20.4 60.9699 20.98H60.9799Z" fill="white"/>
<path d="M72.03 12.88C72.03 12.88 69.64 19.41 63.29 20.51C63.29 20.51 63.5 22.26 65.04 21.31C65.04 21.31 71.71 18.76 72.03 12.88Z" fill="white"/>
<path d="M74.11 8.03003C74.11 8.03003 73.98 20.42 66.29 21.59C66.29 21.59 66.45 24.27 68.04 23.09C68.87 22.57 74.18 19.11 74.74 12.98C74.92 10.97 74.54 9.26003 74.12 8.03003H74.11Z" fill="white"/>
<path d="M76 18.34C76 18.34 72.68 22.49 69.48 22.04C69.48 22.04 68.16 23.75 69.66 23.39C69.66 23.39 75.01 22.21 76 18.35V18.34Z" fill="white"/>
<path d="M78.8501 20.98C78.8501 20.98 76.3601 23.68 70.5301 23.56C70.5301 23.56 70.33 25.22 72.98 24.54C72.98 24.54 77.3201 23.9 78.8501 20.98Z" fill="white"/>
<path d="M86.23 20.33C85.77 21.24 84.94 22.59 83.5 23.8C83.06 24.17 79.13 27.41 76.62 25.93C76.21 25.69 75.57 25.16 75.16 23.93C74.68 23.85 74.19 24.03 73.95 24.41C73.76 24.72 73.74 25.21 74.17 26.02C75.86 27.73 77.46 27.96 78.05 28.01C81.33 28.27 84.93 25.23 86.23 20.33Z" fill="white"/>
<path d="M82.43 23C82.43 23 79.27 26.1 75.61 25.4L75.37 25.07C75.37 25.07 79.1 25.38 82.42 23H82.43Z" fill="white"/>
<path d="M81.5799 21.25C81.5799 21.25 78.4899 25.35 74.7799 24.76L74.6899 24.45C74.6899 24.45 78.6599 24.52 81.5799 21.25Z" fill="white"/>
<path d="M88.12 28.02C87.35 28.33 86.52 28.62 85.62 28.88C83.04 29.62 80.69 29.87 78.75 29.91C79.32 30.31 79.89 30.71 80.46 31.11C81.38 31.18 83.41 31.22 85.55 30.08C86.77 29.43 87.61 28.62 88.12 28.02Z" fill="white"/>
<path d="M22.84 29.81C23.16 30.37 31.33 24.25 45.64 22.14C46.89 21.95 51.79 21.23 55.73 21.45C77.4 22.68 92.82 53.95 94.46 52.85C95.29 52.29 91.17 44.42 87.16 38.59C85.02 35.47 82.47 31.83 78.06 28C72.6 23.27 67.49 21.04 66.47 20.61C64.32 19.69 57.32 16.8 48.56 17.33C33.18 18.26 22.46 29.14 22.85 29.81H22.84Z" fill="white"/>
</svg>
