<svg width="245" height="39" viewBox="0 0 245 39" fill="none" xmlns="http://www.w3.org/2000/svg">
<path d="M158.903 38.5C158.903 34.1006 158.954 21.3003 169.212 11.6038C183.867 -2.13306 206.269 -0.157834 213.282 0.470648C228.67 1.8174 239.661 7.83286 245 11.1548C240.604 13.4892 236.312 15.8236 231.915 18.0681C230.764 16.9907 217.507 4.12694 197.618 7C195.106 7.35913 184.562 8.99692 176.816 16C176.083 16.6285 172.964 18.6254 168.149 25C163.752 30.9257 161.206 35.0882 158.903 38.5Z" fill="#C479EF"/>
<path d="M86.0968 38.5C86.0968 34.1006 86.0465 22.3003 75.7879 12.6038C61.1328 -1.13306 38.7314 0.842166 31.7179 1.47065C16.3301 2.8174 5.33873 8.83286 8.53899e-05 12.1548C4.39662 14.4892 8.68847 16.8236 13.085 19.0681C14.2365 17.9907 27.4931 5.12694 47.3821 8C49.8944 8.35913 60.4377 9.99692 68.184 17C68.9168 17.6285 72.0362 19.6254 76.8514 26C81.248 31.9257 83.7939 35.0882 86.0968 38.5Z" fill="#C479EF"/>
</svg>
