<svg width="95" height="283" viewBox="0 0 95 283" fill="none" xmlns="http://www.w3.org/2000/svg">
<path d="M38.4213 279.061C34.0289 280.676 26.7906 282.706 17.7241 282.413C10.4456 282.177 4.55267 280.527 0.574219 279.061V187.993C4.7079 188.563 9.18654 188.988 13.9756 189.178C23.1284 189.54 31.3612 188.959 38.4155 187.993V279.061H38.4213Z" fill="url(#paint0_linear_180_3611)"/>
<path d="M19.4949 189.77C29.9445 189.77 38.4155 189.108 38.4155 188.292C38.4155 187.476 29.9445 186.815 19.4949 186.815C9.04529 186.815 0.574219 187.476 0.574219 188.292C0.574219 189.108 9.04529 189.77 19.4949 189.77Z" fill="#181818"/>
<path d="M13.9755 186.809V73.0782C13.9755 73.0782 14.8609 69.5309 14.9587 64.4026H23.2778C23.2778 64.4026 21.5473 69.6286 23.2778 72.6815V186.861L13.9698 186.815L13.9755 186.809Z" fill="url(#paint1_linear_180_3611)"/>
<path d="M21.6336 66.4379H15.6602C15.6429 66.3919 15.6257 66.3459 15.6084 66.2999C13.8607 66.1217 12.1187 65.9435 10.1927 65.7422C10.5779 65.6503 10.7963 65.5928 11.1585 65.5065C10.6929 65.3915 10.3479 65.2996 10.0029 65.2133C10.0144 65.1213 10.0202 65.0293 10.0317 64.9374C11.676 65.1041 13.3202 65.2708 14.9588 65.4375C14.9703 65.38 14.9818 65.3283 14.9875 65.2708C13.7572 64.9316 12.5269 64.5867 11.2908 64.2475C12.9868 63.937 14.6656 64.7994 16.3673 64.0692C14.6943 63.7588 13.027 63.4483 11.354 63.1321C11.469 63.0459 11.5897 62.9539 11.8197 62.7871C11.1298 62.7412 10.5549 62.7009 9.96845 62.6607C9.9972 62.3042 9.91671 61.9248 10.0662 61.6833C10.2559 61.3671 10.5951 60.9876 10.9228 60.9302C11.7565 60.7692 12.6188 60.7692 13.6307 60.6944C13.1765 60.522 12.8718 60.4012 12.5613 60.2805C12.5728 60.2173 12.5901 60.154 12.6073 60.0908C13.8434 60.3035 15.0853 60.5105 16.3271 60.7174C16.3443 60.6197 16.3558 60.5277 16.3731 60.43C15.8786 60.3495 15.3842 60.2747 14.6713 60.1598C15.0278 59.97 15.1887 59.8838 15.3497 59.7976C15.3612 59.6998 15.367 59.6021 15.3785 59.5043C13.6479 59.3434 11.9174 59.1881 10.1812 59.0272C10.4686 58.9869 10.7733 58.9409 11.2793 58.8662C10.7676 58.412 10.3536 58.0498 9.87646 57.6301C10.5491 56.6297 11.5782 57.2507 12.4119 57.1472C13.2915 57.0437 14.1999 57.1242 15.1485 56.9345C14.0791 56.6125 13.0098 56.2963 11.9404 55.9743C11.9462 55.9398 11.9519 55.8996 11.9577 55.8651H15.2807C15.2807 55.8019 15.2865 55.7444 15.2922 55.6811C14.0216 55.6064 12.7511 55.5719 11.4862 55.4282C11.0263 55.3764 10.5549 55.1062 10.1812 54.813C10.0087 54.675 10.0432 54.2553 10.0144 53.9564C9.99145 53.7206 10.0087 53.4849 10.0087 53.1917C10.9343 53.094 11.9059 52.9847 13.1133 52.8583C12.6476 52.6743 12.4061 52.5765 11.9174 52.3811C12.7913 52.2661 13.3892 52.1799 14.2114 52.0706C13.0213 51.7774 12.0439 51.4784 11.0436 51.3232C10.3479 51.214 9.81897 50.8633 9.93971 50.2596C10.0029 49.9377 10.7618 49.5927 11.2333 49.541C12.2566 49.4317 13.303 49.5065 14.3723 49.426C13.7342 49.311 13.1018 49.196 12.3601 49.0638C13.4812 48.1554 14.5678 49.3857 15.6429 49.0005C14.6196 48.1497 12.4521 47.5345 9.93971 47.3793C10.1639 46.9193 9.53726 46.1259 10.5951 46.0742C11.2045 46.0454 11.8139 46.0684 12.6418 46.0684C12.0209 45.7925 11.6127 45.6085 11.1988 45.4303C11.216 45.3613 11.2333 45.2923 11.2505 45.2233C11.8772 45.1601 12.4981 45.0566 13.1248 45.0393C13.7227 45.0221 14.3264 45.0968 15.183 45.1371C14.2171 43.6595 12.9235 44.1655 11.6472 43.9872C11.9749 43.8722 12.1532 43.809 12.3314 43.7458C12.3314 43.6998 12.3314 43.6538 12.3314 43.6078C11.6185 43.556 10.9056 43.51 10.2042 43.4583C10.1639 42.6304 10.8251 41.8715 11.7565 41.6933C13.0845 41.4403 14.4241 41.2276 15.7579 40.8999C15.137 40.8539 14.5161 40.8137 13.8952 40.7677C13.8952 40.7044 13.8952 40.6354 13.8952 40.5722C14.4241 40.5377 14.9473 40.5032 15.4762 40.4687C13.8952 39.7673 12.2336 39.6408 10.5549 39.7558C10.4706 39.1081 10.781 38.7459 11.4862 38.6692C11.1873 38.583 10.9056 38.5082 10.6296 38.4277C10.6296 38.3587 10.6239 38.2898 10.6181 38.2208C12.4176 37.7896 14.2114 37.3584 16.0109 36.9272C16.0281 36.8467 16.0511 36.7662 16.0741 36.6915C14.3723 36.3465 12.6763 35.9958 10.9228 35.6336C10.9228 35.6451 11.0378 35.4439 10.9861 35.3404C10.6239 34.6678 11.0551 34.5068 11.5552 34.3055C11.8254 34.1963 12.0382 33.9548 12.4061 33.6674H14.2229C14.2344 33.6386 14.2459 33.6041 14.2574 33.5754C14.0389 33.5007 13.8204 33.4317 13.3317 33.2649C14.2516 33.0407 14.9185 32.8855 15.5797 32.7245C15.5854 32.6958 15.5969 32.667 15.6027 32.644H10.9746C11.4862 32.506 11.8197 32.4141 12.1532 32.3278C12.1532 32.2818 12.1474 32.2358 12.1474 32.1898H11.2103C11.1988 32.1323 11.1873 32.0806 11.1758 32.0231C11.308 31.9714 11.4345 31.9196 11.4805 31.9024C11.3425 31.4367 11.0378 30.9768 11.1298 30.6203C11.5092 29.2002 12.7798 29.8672 13.6882 29.6257C13.6882 29.6257 13.6997 29.5969 13.6882 29.5912C13.6652 29.5739 13.625 29.5797 13.602 29.5567C13.5387 29.4935 13.4812 29.4302 13.4237 29.367C13.579 29.298 13.7399 29.229 13.8952 29.16C14.2689 28.999 14.6426 28.8323 15.0163 28.6713C14.976 28.6023 14.9358 28.5276 14.8955 28.4586C13.6767 28.2401 12.4579 28.0274 11.4288 27.8434C11.4288 27.303 11.3425 26.9178 11.4517 26.5959C11.5667 26.2509 11.7967 25.7737 12.0842 25.6817C13.0788 25.3713 14.1136 25.2045 15.091 24.9861C14.4528 23.7672 13.1708 24.4629 11.9807 24.3307C12.2796 24.1697 12.4924 24.0547 12.9408 23.8132C12.3716 23.7098 12.0497 23.6465 11.6415 23.5718C11.6702 23.1118 11.7047 22.6404 11.7392 22.1287C12.6418 21.6803 13.5617 21.2261 14.7058 20.6627C14.0791 20.381 13.5042 19.9383 12.8948 19.8923C11.8139 19.8118 11.9117 19.2196 12.0382 18.501C12.1072 18.1158 12.1819 17.7248 12.2164 17.5179C12.6591 17.2304 12.9868 17.0234 13.3145 16.8107C12.8891 16.437 13.5215 15.5229 12.5786 15.3791C12.4809 15.3676 12.3831 14.9939 12.3774 14.7812C12.3716 14.5513 12.5786 14.2868 12.5154 14.0971C12.2911 13.3669 12.5556 13.022 13.2628 12.8725C14.0446 12.7058 14.0964 12.0963 14.0791 11.3604C13.6422 11.3202 13.2283 11.2857 12.6246 11.234C12.8718 11.1247 13.0213 11.0615 13.0385 11.0557C12.958 10.5038 12.7223 9.96913 12.8431 9.53219C13.1018 8.58357 14.0216 8.87103 14.7575 8.7733C14.861 8.49734 14.976 8.21562 15.1197 7.83618C14.5046 7.54872 13.7169 7.39924 13.3317 6.92205C13.027 6.54835 13.211 5.76646 13.1938 5.42151C13.7629 4.99607 14.1941 4.67986 14.6311 4.3579C14.1769 4.09344 13.7227 3.83472 13.0788 3.46103C13.1133 2.76537 13.142 1.76501 13.257 0.776144C13.2742 0.632413 13.7342 0.425442 13.9699 0.448439C14.3838 0.482934 14.7805 0.684156 15.183 0.80489C15.6947 0.954369 16.1029 1.00611 16.5685 0.500181C17.178 -0.166727 17.8736 0.00574921 18.5808 0.73015C18.713 0.862382 19.0465 0.896877 19.2477 0.839385C20.1216 0.58642 20.9782 0.281711 21.8348 0C22.151 0.712902 22.496 1.44305 22.8007 2.17895C23.0192 2.70788 22.4442 3.50702 21.7371 3.57601C20.9552 3.6565 20.7022 3.98995 20.9265 4.63387C21.5071 4.7776 22.0245 4.90408 22.7145 5.07655C22.3982 5.32952 22.2545 5.45025 22.1165 5.56524C22.7892 6.08267 22.7604 6.51386 21.9613 7.16352C22.0935 7.24401 22.2143 7.31875 22.3638 7.40499C21.6049 7.59471 20.9379 7.76144 20.271 7.92241C20.294 8.05465 20.317 8.18113 20.34 8.31336C20.823 8.29036 21.3116 8.31336 21.7831 8.23862C22.5017 8.12939 22.8467 8.71006 22.9214 9.124C23.0307 9.73917 23.3871 10.6993 22.151 10.8373C22.4327 10.8718 22.7202 10.9063 23.0019 10.9465C23.0249 11.0097 23.0537 11.073 23.0767 11.1362C22.2085 11.5157 21.3461 11.8951 20.1963 12.4011H22.6742C22.6742 12.6138 22.5995 12.884 22.6857 12.9587C23.8815 13.9648 23.7321 15.0457 22.3178 15.6321C22.036 15.7471 21.8291 16.0518 21.6968 16.4715H22.8639C22.8754 16.5347 22.8812 16.598 22.8927 16.6612C22.6455 16.7245 22.404 16.7934 22.082 16.8739C22.68 16.9544 23.2204 17.0234 23.5596 17.0694C24.537 19.0299 23.5941 19.9613 22.0303 20.6109L23.6228 20.4959C23.6286 20.5477 23.6343 20.6052 23.6458 20.6569C23.0422 20.8064 22.4385 20.9616 21.6451 21.1571C22.7145 21.3468 23.5653 21.4963 24.3932 21.6458C24.2974 23.2019 23.7742 24.0279 22.8237 24.1237C23.2089 24.3134 23.5021 24.4571 23.8988 24.6584C23.6113 24.7561 23.4101 24.8193 23.2204 24.8998C23.0307 24.9803 22.8409 25.0838 22.6972 25.3885C23.1169 25.3483 23.5596 25.216 23.962 25.2908C24.2725 25.3483 24.5427 25.6472 24.8359 25.8427C24.7842 25.9232 24.7382 25.9979 24.6922 26.0784C24.1 26.2049 23.5078 26.3371 22.9157 26.4636C22.9157 26.4981 22.9272 26.5269 22.9272 26.5614H24.5485C24.8934 27.6595 24.7439 27.8894 23.6803 27.9354C23.2376 27.9527 22.7892 27.9354 22.335 28.1079C22.8122 28.1366 23.2951 28.1711 23.7723 28.2056C23.7838 28.3034 23.7953 28.3954 23.8011 28.4988C22.542 28.6196 21.2829 28.7403 20.0238 28.861C20.0353 29.0105 20.0526 29.1658 20.0698 29.3152C21.5244 29.1715 22.9789 29.0335 24.7324 28.8668C24.192 29.1428 23.9218 29.2865 23.4331 29.5337C23.9505 29.6372 24.261 29.6257 24.4852 29.7637C24.7324 29.9074 25.1004 30.3501 25.0716 30.3846C24.6922 30.856 24.9451 31.2872 25.2154 31.8161C24.2667 31.9139 23.4389 31.9944 22.3867 32.1036C22.7777 32.2991 22.9962 32.4141 23.3296 32.575C22.8927 32.6555 22.5477 32.7188 22.2028 32.782C22.2028 32.851 22.197 32.92 22.197 32.9832C22.6397 33.0177 23.0997 33.1557 23.5193 33.0752C24.2552 32.9315 24.7094 33.3454 25.1924 33.7306C25.6868 34.1216 25.6063 34.984 25.0659 35.3404C25.2096 35.4094 25.3591 35.4784 25.5316 35.5589C24.0598 36.0763 22.657 36.5707 21.2542 37.0652C21.2714 37.1457 21.2944 37.2319 21.3116 37.3124C21.9901 37.2089 22.6857 37.1572 23.3411 36.9847C24.2035 36.7547 25.0256 36.4673 25.5948 37.5596C25.4626 37.6631 25.2671 37.8183 24.9394 38.077C25.3188 38.0483 25.5373 38.031 25.7558 38.0138C26.095 39.0372 25.934 39.3361 24.7957 39.5661C23.8183 39.7616 22.8237 39.8823 21.8348 40.0375C21.8348 40.1238 21.8348 40.21 21.8348 40.2905H23.6113C23.4734 40.5434 23.3354 40.7964 23.1571 41.1241C23.9333 41.0666 24.6634 41.0091 25.3878 40.9516C25.4051 41.0551 25.4166 41.1644 25.4338 41.2736C24.7267 41.4173 24.0195 41.5668 23.3181 41.7105C23.3239 41.7853 23.3354 41.8658 23.3411 41.9405C24.2725 41.86 25.2039 41.7795 26.141 41.699C26.5434 43.1363 26.0375 43.7745 24.514 43.9067C23.962 43.9527 23.0364 43.5848 23.0709 44.8669C23.5653 44.7806 23.9965 44.7001 24.4335 44.6311C24.8589 44.5621 25.2901 44.5047 25.7615 44.6081C25.6293 44.6714 25.4856 44.7231 25.3648 44.8036C25.2269 44.8956 25.1176 45.0221 24.9969 45.1313C25.1636 45.2233 25.3361 45.39 25.5086 45.39C25.9455 45.4015 26.3882 45.3383 26.9056 45.298C26.7332 45.7982 26.6124 46.1374 26.4399 46.6491C26.3135 46.6779 25.9398 46.7698 25.3993 46.8963C25.911 46.9941 26.2502 47.0573 26.5837 47.1205C26.5837 47.1838 26.5837 47.2528 26.5894 47.316C26.0432 47.3448 25.5028 47.3793 24.9624 47.4138V47.523C25.3763 47.5575 25.7903 47.592 26.1985 47.6265C26.21 47.7185 26.2157 47.8105 26.2272 47.9024C24.8187 48.0289 23.4101 48.1497 22.0016 48.2704C22.0073 48.3854 22.0188 48.4946 22.0246 48.6096H26.6757C26.1525 48.8338 25.7903 49.0293 25.4051 49.1443C25.0199 49.2535 24.6059 49.2822 24.2035 49.3512C24.2092 49.449 24.2207 49.5467 24.2265 49.6444C25.1119 49.5755 25.9973 49.5065 27.0896 49.426C26.7619 49.6847 26.5894 49.8227 26.4399 49.9434C26.5607 50.2079 26.6757 50.4723 26.8481 50.846C25.7443 50.9438 24.7899 51.03 23.8298 51.1162C23.8298 51.1565 23.8298 51.1967 23.8241 51.2312C24.6002 51.2657 25.3763 51.306 26.1525 51.3462C26.141 51.4037 26.1352 51.4612 26.1237 51.5187C24.8187 52.0189 23.5193 52.5248 22.2143 53.0307C22.2143 53.0652 22.2258 53.1055 22.2258 53.14C23.5078 53.048 24.7957 52.956 26.0777 52.8583C26.095 52.9043 26.1122 52.956 26.1352 53.002C25.9283 53.1285 25.727 53.2492 25.2441 53.5424C26.0662 53.6976 26.6412 53.8069 27.3138 53.9391C26.371 55.6581 24.5082 54.5945 23.3469 55.4224C23.6516 55.5029 23.962 55.5834 24.445 55.7099C23.7263 56.1008 23.1629 56.4055 22.5995 56.7102C22.6282 56.8367 22.657 56.9574 22.6857 57.0839C24.0023 56.9747 25.3188 56.8655 26.6412 56.7562C26.7274 56.8425 26.8136 56.923 26.8999 57.0092C26.6412 57.1702 26.3882 57.3254 26.118 57.4921H26.9919C27.0264 57.5956 27.1356 57.7911 27.1011 57.8198C26.6814 58.1705 26.2847 58.688 25.8018 58.8029C24.6692 59.0674 23.4963 59.1306 22.22 59.2916C23.2836 59.4584 24.2093 59.6021 25.1866 59.7573C25.0486 60.0678 24.9681 60.2345 24.8589 60.4817C25.2269 60.5105 25.5316 60.5335 25.9455 60.5622C25.7788 60.7634 25.6581 60.9129 25.5488 61.0509C26.026 61.1141 26.5319 61.1774 27.0379 61.2406C27.0379 61.3383 27.0379 61.4418 27.0436 61.5453C26.1755 61.712 25.3074 61.8788 24.3357 62.0627C25.0429 62.9366 26.1352 61.8098 26.7447 62.9021C25.4741 63.0114 24.307 63.1091 23.1456 63.2241C20.9322 63.4426 20.2825 63.7185 20.2595 64.6096C20.9667 64.3739 21.6106 64.1612 22.266 63.9485C23.5596 64.7936 25.0774 64.6096 26.6124 64.5867C25.727 64.7591 24.8359 64.9316 23.9505 65.1041C23.962 65.1788 23.9735 65.2593 23.9793 65.3341C24.8992 65.1961 25.819 65.0638 26.6814 64.9374C26.164 66.3172 24.8934 66.0412 23.8068 66.1849C23.0767 66.2827 22.3408 66.3402 21.5646 66.4724L21.6336 66.4379Z" fill="#C2507E"/>
<path d="M94.7978 117.808C94.7978 117.808 95.9145 115.272 88.7782 115.027C88.7782 115.027 58.2383 111.468 56.9184 118.134L84.5224 129.256L94.7978 117.808Z" fill="#752F4B"/>
<path d="M57.096 278.084C61.5668 279.885 68.559 281.979 77.2086 281.683C84.6271 281.428 90.6664 279.504 94.7958 277.758V117.808C89.382 118.335 83.6307 118.688 77.5697 118.788C70.2361 118.91 63.3326 118.647 56.9164 118.134C56.9756 171.45 57.0348 224.769 57.096 278.084Z" fill="url(#paint2_linear_180_3611)"/>
<path d="M89.0445 92.4517C89.0445 92.4517 73.5328 91.4071 62.9774 92.4517V112.794H89.2714L89.0445 92.4517Z" fill="url(#paint3_linear_180_3611)"/>
<path d="M91.0728 104.165L88.7446 100.895L62.6025 98.8964C62.6025 98.8964 61.401 99.3495 60.6493 101.076L91.0728 104.165Z" fill="url(#paint4_linear_180_3611)"/>
<path d="M91.0728 104.165L88.7446 100.895L62.6025 98.8964C62.6025 98.8964 61.401 99.3495 60.6493 101.076L91.0728 104.165Z" fill="url(#paint5_linear_180_3611)"/>
<path d="M90.5481 109.705L88.9697 107.072L62.4528 104.802C62.4528 104.802 60.4995 106.027 60.6494 107.253L90.5461 109.705H90.5481Z" fill="url(#paint6_linear_180_3611)"/>
<path d="M91.0728 98.0806L89.2694 95.7194C89.2694 95.7194 83.2597 95.9913 84.7631 96.9C84.7631 96.9 87.0163 98.808 91.0728 98.0806Z" fill="url(#paint7_linear_180_3611)"/>
<path d="M61.182 112.792H90.54C90.8343 112.792 91.0728 113.08 91.0728 113.436V115.418C91.0728 115.773 90.8343 116.062 90.54 116.062H61.182C60.8878 116.062 60.6493 115.773 60.6493 115.418V113.436C60.6493 113.08 60.8878 112.792 61.182 112.792Z" fill="url(#paint8_linear_180_3611)"/>
<defs>
<linearGradient id="paint0_linear_180_3611" x1="3.44882" y1="235.143" x2="38.519" y2="235.143" gradientUnits="userSpaceOnUse">
<stop stop-color="#8B4360"/>
<stop offset="0.25" stop-color="#CF7C9D"/>
<stop offset="0.535" stop-color="#8B4360"/>
<stop offset="0.88" stop-color="#CF7C9D"/>
<stop offset="1" stop-color="#8B4360"/>
</linearGradient>
<linearGradient id="paint1_linear_180_3611" x1="14.9471" y1="125.908" x2="22.996" y2="125.908" gradientUnits="userSpaceOnUse">
<stop stop-color="#0E0E0E"/>
<stop offset="0.325" stop-color="#1F1F1F"/>
<stop offset="1" stop-color="#161616"/>
</linearGradient>
<linearGradient id="paint2_linear_180_3611" x1="91.9188" y1="199.63" x2="56.8186" y2="199.63" gradientUnits="userSpaceOnUse">
<stop stop-color="#8B4360"/>
<stop offset="0.25" stop-color="#CF7C9D"/>
<stop offset="0.535" stop-color="#8B4360"/>
<stop offset="0.88" stop-color="#CF7C9D"/>
<stop offset="1" stop-color="#8B4360"/>
</linearGradient>
<linearGradient id="paint3_linear_180_3611" x1="87.2742" y1="102.374" x2="62.9095" y2="102.374" gradientUnits="userSpaceOnUse">
<stop stop-color="#8B4360"/>
<stop offset="0.25" stop-color="#CF7C9D"/>
<stop offset="0.535" stop-color="#8B4360"/>
<stop offset="0.88" stop-color="#CF7C9D"/>
<stop offset="1" stop-color="#8B4360"/>
</linearGradient>
<linearGradient id="paint4_linear_180_3611" x1="82.7879" y1="100.611" x2="82.5004" y2="103.199" gradientUnits="userSpaceOnUse">
<stop stop-color="#131313"/>
<stop offset="0.44" stop-color="#535353"/>
<stop offset="0.9" stop-color="#D2D2D2"/>
<stop offset="1" stop-color="#4A4A4A"/>
</linearGradient>
<linearGradient id="paint5_linear_180_3611" x1="74.3032" y1="103.191" x2="75.3743" y2="96.0924" gradientUnits="userSpaceOnUse">
<stop stop-color="#8B4360"/>
<stop offset="0.25" stop-color="#CF7C9D"/>
<stop offset="0.535" stop-color="#8B4360"/>
<stop offset="0.88" stop-color="#CF7C9D"/>
<stop offset="1" stop-color="#8B4360"/>
</linearGradient>
<linearGradient id="paint6_linear_180_3611" x1="74.0633" y1="108.799" x2="75.0094" y2="102.176" gradientUnits="userSpaceOnUse">
<stop stop-color="#8B4360"/>
<stop offset="0.25" stop-color="#CF7C9D"/>
<stop offset="0.535" stop-color="#8B4360"/>
<stop offset="0.88" stop-color="#CF7C9D"/>
<stop offset="1" stop-color="#8B4360"/>
</linearGradient>
<linearGradient id="paint7_linear_180_3611" x1="89.2005" y1="100.284" x2="87.669" y2="94.3668" gradientUnits="userSpaceOnUse">
<stop stop-color="#8B4360"/>
<stop offset="0.25" stop-color="#CF7C9D"/>
<stop offset="0.535" stop-color="#8B4360"/>
<stop offset="0.88" stop-color="#CF7C9D"/>
<stop offset="1" stop-color="#8B4360"/>
</linearGradient>
<linearGradient id="paint8_linear_180_3611" x1="74.0632" y1="117.314" x2="74.4952" y2="110.989" gradientUnits="userSpaceOnUse">
<stop stop-color="#8B4360"/>
<stop offset="0.25" stop-color="#CF7C9D"/>
<stop offset="0.535" stop-color="#8B4360"/>
<stop offset="0.88" stop-color="#CF7C9D"/>
<stop offset="1" stop-color="#8B4360"/>
</linearGradient>
</defs>
</svg>
