<svg width="65" height="58" viewBox="0 0 65 58" fill="none" xmlns="http://www.w3.org/2000/svg">
<g clip-path="url(#clip0_140_37)">
<path d="M5.55 14.6899C7.17 17.0199 10.15 20.6299 14.97 23.4899C17.86 25.2099 20.59 26.1699 22.71 26.7299C22.74 28.6399 22.77 30.5299 22.8 32.4399C19.94 30.8399 16.98 29.0699 13.93 27.0999C9.86 24.4699 6.16 21.8199 2.81 19.2299C3.12 18.2199 3.66 16.9199 4.68 15.6499C4.97 15.2899 5.26 14.9699 5.55 14.6899Z" fill="#222221"/>
<path d="M5.55 14.6899C7.17 17.0199 10.15 20.6299 14.97 23.4899C17.86 25.2099 20.59 26.1699 22.71 26.7299C22.74 28.6399 22.77 30.5299 22.8 32.4399C19.94 30.8399 16.98 29.0699 13.93 27.0999C9.86 24.4699 6.16 21.8199 2.81 19.2299C3.12 18.2199 3.66 16.9199 4.68 15.6499C4.97 15.2899 5.26 14.9699 5.55 14.6899Z" fill="url(#paint0_linear_140_37)"/>
<path d="M20.07 17.03C16.53 19.35 12.93 21.66 9.28999 23.98C6.62999 25.67 3.98999 27.33 1.35999 28.98C1.44999 30.27 1.52999 31.57 1.61999 32.86C4.46999 31.2 7.37999 29.45 10.33 27.59C14.38 25.04 18.21 22.49 21.84 19.95C21.82 19.62 21.74 18.98 21.33 18.29C20.91 17.58 20.35 17.2 20.07 17.03Z" fill="#222221"/>
<path d="M20.07 17.03C16.53 19.35 12.93 21.66 9.28999 23.98C6.62999 25.67 3.98999 27.33 1.35999 28.98C1.44999 30.27 1.52999 31.57 1.61999 32.86C4.46999 31.2 7.37999 29.45 10.33 27.59C14.38 25.04 18.21 22.49 21.84 19.95C21.82 19.62 21.74 18.98 21.33 18.29C20.91 17.58 20.35 17.2 20.07 17.03Z" fill="url(#paint1_linear_140_37)"/>
<path d="M22.75 28.33C17.94 30.02 13.01 31.88 7.97001 33.91C5.33001 34.98 2.75001 36.06 0.230015 37.15C0.200015 39.06 0.170015 40.95 0.140015 42.86C2.57001 41.11 5.53001 39.24 9.01001 37.52C14.15 34.98 18.92 33.51 22.78 32.62C22.78 32.24 22.77 30.29 22.77 29.91C22.77 29.78 22.77 28.46 22.77 28.33H22.75Z" fill="#222221"/>
<path d="M22.75 28.33C17.94 30.02 13.01 31.88 7.97001 33.91C5.33001 34.98 2.75001 36.06 0.230015 37.15C0.200015 39.06 0.170015 40.95 0.140015 42.86C2.57001 41.11 5.53001 39.24 9.01001 37.52C14.15 34.98 18.92 33.51 22.78 32.62C22.78 32.24 22.77 30.29 22.77 29.91C22.77 29.78 22.77 28.46 22.77 28.33H22.75Z" fill="url(#paint2_linear_140_37)"/>
<path d="M1.01 29C5.46 30.86 9.92 32.72 14.4 34.58C17.11 35.7 19.82 36.82 22.52 37.93C22.5 40.03 22.48 42.14 22.45 44.24C21.16 43.26 19.77 42.26 18.27 41.25C16.27 39.9 14.49 38.83 13.45 38.23C8.88 35.6 3.9 33.78 1.26 32.89C1.17 31.6 1.09 30.3 1 29.01L1.01 29Z" fill="#222221"/>
<path d="M1.01 29C5.46 30.86 9.92 32.72 14.4 34.58C17.11 35.7 19.82 36.82 22.52 37.93C22.5 40.03 22.48 42.14 22.45 44.24C21.16 43.26 19.77 42.26 18.27 41.25C16.27 39.9 14.49 38.83 13.45 38.23C8.88 35.6 3.9 33.78 1.26 32.89C1.17 31.6 1.09 30.3 1 29.01L1.01 29Z" fill="url(#paint3_linear_140_37)"/>
<path d="M11.07 14.78C8.88998 16.4 9.31998 17.58 7.25998 19.33C5.25998 21.04 3.40998 21.14 2.91998 20.89C2.53998 20.7 2.45998 20.43 2.45998 20.43C2.36998 20.14 2.50998 19.89 2.54998 19.83C2.75998 19.67 3.08998 19.44 3.50998 19.21C4.18998 18.85 4.72998 18.72 5.13998 18.61C6.58998 18.23 8.03998 17.71 8.02998 17.63C8.00998 17.57 7.00998 17.79 5.24998 17.99C5.24998 17.99 3.54998 18.19 1.85998 17.75C1.62998 17.69 1.25998 17.58 1.14998 17.29C1.06998 17.08 1.12998 16.77 1.29998 16.58C1.34998 16.52 1.39998 16.49 1.50998 16.42C2.00998 16.1 2.05998 16.04 2.14998 15.99C3.32998 15.3 5.36998 14.94 5.36998 14.94C7.31998 14.6 8.50998 14.65 8.52998 14.44C8.52998 14.31 8.08998 14.2 7.89998 14.15C6.52998 13.77 4.44998 13.21 3.19998 12.49C2.76998 12.24 1.19998 11.34 0.899981 9.77004C0.769981 9.14004 0.989981 8.53004 1.39998 7.32004C2.21998 4.97004 3.04998 3.92004 3.85998 2.24004C3.89998 2.16004 4.38998 1.12004 4.66998 0.850042C4.74998 0.770042 4.87998 0.680042 4.92998 0.490042C4.95998 0.400042 4.95998 0.310042 5.01998 0.270042C5.07998 0.230042 5.17998 0.250042 5.20998 0.270042C5.61998 0.400042 6.03998 0.270042 6.95998 0.650042C7.76998 0.990042 8.35998 1.47004 8.71998 1.82004C9.58998 2.87004 9.95998 3.84004 10.13 4.61004C10.51 6.38004 9.96998 7.84004 10.72 8.30004C11.17 8.58004 11.51 8.16004 12.2 8.51004C12.78 8.80004 13.11 9.36004 13.38 9.82004C13.85 10.63 13.79 11.01 14.02 11.05C14.55 11.16 15.41 9.23004 15.83 8.09004C16.34 6.69004 16.21 6.39004 16.67 5.64004C16.8 5.44004 17.26 4.70004 18.84 3.73004C19.99 3.02004 22.99 1.15004 24.33 2.24004C24.54 2.41004 24.81 2.73004 24.93 3.42004C24.83 4.31004 24.61 5.67004 24.09 7.25004C23.27 9.76004 22.2 11.24 22.55 11.54C23.06 11.96 25.85 9.39004 26.11 9.70004C26.14 9.74004 26.13 9.79004 26.09 9.96004C25.99 10.42 26.11 10.1 25.93 11.24C25.8 12.12 25.6 13.14 25.56 13.3C25.32 14.57 25.19 15.21 25.07 15.79C24.63 17.95 24.48 18.44 24.4 18.7C23.79 20.72 23.36 21.12 23.05 22.13C23.05 22.13 22.96 22.42 22.65 22.89C22.46 23.16 22.35 23.27 22.22 23.27C22.06 23.27 21.93 23.16 21.89 23.12C20.96 22.24 21.2 22.87 20.23 21.67C19.5 20.77 19.61 20.72 18.7 19.53C18.29 18.99 17.93 18.57 17.65 18.24C17.09 17.57 16.81 17.23 16.66 17.11C16.06 16.66 15.56 16.58 15.13 15.96C15.05 15.84 15.09 15.87 14.84 15.46C14.46 14.84 14.37 14.75 14.23 14.47C14.01 13.98 14.1 13.85 13.96 13.73C13.58 13.35 12.24 13.9 11.05 14.78H11.03H11.07Z" fill="url(#paint4_linear_140_37)"/>
<path d="M15.48 11.26C15.53 12.91 14.65 14.11 14.33 14.51C14.15 14.32 13.96 14.11 13.74 13.87C12.76 14.39 11.61 14.45 10.73 15.47C9.17001 17.27 8.13001 19.62 5.70001 20.55C4.90001 20.86 4.00001 21.02 3.13001 21.03C2.35001 21.03 2.12001 20.42 2.65001 19.81C2.96001 19.46 3.39001 19.13 3.83001 18.97C4.81001 18.62 5.84001 18.38 6.91001 18.24C5.90001 18.52 5.07001 18.8 4.41001 19.02C3.42001 19.36 2.81001 19.62 2.71001 20.1C2.69001 20.18 2.65001 20.37 2.75001 20.52C3.18001 21.13 5.71001 20.56 7.21001 19.02C7.68001 18.53 7.96001 18.06 8.10001 17.77C7.29001 17.96 6.20001 18.02 4.94001 18.12C3.92001 18.21 2.93001 18.17 1.94001 17.76C3.15001 17.98 5.01001 18.15 6.98001 17.63C8.44001 17.25 9.10001 16.72 9.42001 16.42C9.95001 15.93 10.26 15.4 10.44 15.04C9.33001 14.88 7.69001 14.77 5.76001 15.12C3.85001 15.46 2.36001 16.09 1.38001 16.61C3.20001 14.76 5.67001 14.89 8.12001 14.47C6.65001 13.99 5.29001 13.56 3.94001 13.12C2.33001 12.58 1.45001 11.93 1.07001 11.01C0.980006 10.79 0.710006 10.16 1.00001 9.88002C1.18001 9.70002 1.49001 9.73002 1.63001 9.76002C1.70001 10.16 1.86001 10.72 2.23001 11.29C2.93001 12.38 3.94001 12.77 5.82001 13.49C7.85001 14.28 9.37001 14.39 10.02 14.42C10.35 14.44 10.63 14.42 10.81 14.42C11.82 14.1 12.7 13.8 13.6 13.54C13.97 13.43 14.21 13.25 14.31 13.01C14.43 12.72 14.33 12.42 14.27 12.27C13.37 9.87002 12.89 8.58002 11.86 8.49002C11.32 8.45002 10.92 8.76002 10.85 8.80002C10.32 9.19002 10.28 9.89002 10.19 10.83C10.12 11.56 10 12.61 9.80001 13.93C9.85001 12.13 9.96001 10.66 10.04 9.65002C10.22 7.47002 10.36 6.69002 10.11 5.33002C9.95001 4.48002 9.73001 3.36002 8.84001 2.31002C8.35001 1.74002 7.72001 1.27002 6.94001 0.900022C6.43001 0.670022 5.83001 0.630022 5.11001 0.460022C6.18001 0.010022 6.98001 0.410022 7.77001 0.830022C10.86 2.51002 11.09 5.36002 10.79 8.40002C11.25 8.18002 11.63 8.18002 11.85 8.21002C12.91 8.34002 13.85 9.51002 14.1 11.13C14.3 10.86 14.59 10.36 14.61 9.73002C14.65 8.47002 13.6 7.45002 13.64 7.41002C13.67 7.39002 14.13 7.83002 14.58 8.61002C14.91 9.18002 15.43 10.07 15.47 11.27L15.48 11.26Z" fill="black"/>
<path d="M22.09 18.06C21.97 17.54 21.63 16.27 20.53 15.32C19.14 14.11 17.13 13.9 15.3 14.71C15.5 14.66 18.46 13.95 20.34 15.99C21.08 16.78 21.37 17.7 21.5 18.26C19.46 16.65 17.3 15.82 14.92 15.27C14.96 15.52 14.94 15.61 14.97 15.64C15.09 15.8 15.23 15.97 15.39 16.08C17.26 17.37 18.64 19.1 19.74 21.13C19.98 21.58 20.3 22 20.66 22.35C21.04 22.71 21.52 22.97 21.97 23.27C21.99 23.27 22.15 23.31 22.27 23.2C22.36 23.12 22.4 22.98 22.37 22.85C22.17 22.14 21.78 21.12 21.06 20.05C20.28 18.89 19.41 18.14 18.8 17.7C19.43 17.93 19.95 18.15 20.47 18.32C21.63 18.7 22.58 18.38 23.32 17.36C23.54 17.06 23.75 16.75 23.95 16.43C25.37 14.26 25.96 11.81 26.15 9.22998C26.05 10.33 25.79 12.01 24.97 13.85C23.25 17.73 19.75 17.88 22.11 18.06H22.09ZM20.24 19.57C20.56 19.89 20.94 20.33 21.31 20.91C21.7 21.53 21.94 22.11 22.09 22.57C22.12 22.73 22.05 22.87 21.93 22.91C21.85 22.94 21.77 22.91 21.73 22.87C20.82 22.34 20.49 21.83 20.49 21.83C19.38 20.1 16.77 17.21 17.09 16.92C17.39 16.64 19.89 19.22 20.25 19.58L20.24 19.57Z" fill="black"/>
<path d="M25 4.18999C25.15 5.43999 24.71 6.55999 24.23 7.79999C23.69 9.20999 22.87 10.54 22.16 11.9C21.58 13.02 20.56 13.43 19.3 13.53C18.49 13.59 17.69 13.74 16.86 13.72C17.88 13.43 18.92 13.19 19.91 12.82C20.45 12.62 21.02 12.31 21.41 11.91C21.56 11.75 21.83 11.37 21.8 10.87C21.76 10.25 21.28 9.84999 21.12 9.71999C20.38 9.09999 19.42 9.15999 18.87 9.18999C18.36 9.21999 17.75 9.25999 17.35 9.67999C17.08 9.96999 17.1 10.25 16.98 10.62C16.83 11.09 16.45 11.72 15.48 12.34C15.73 12 16.1 11.49 16.44 10.81C16.91 9.87999 16.88 9.59999 17.27 9.26999C17.93 8.73999 18.89 8.79999 19.46 8.83999C19.77 8.85999 20.21 8.88999 20.72 9.10999C21.38 9.38999 21.94 9.90999 22.4 10.66C23.05 8.26999 24.62 6.28999 24.47 3.82999C24.43 3.32999 24.34 2.82999 24.28 2.32999C23.68 2.26999 21.12 2.08999 18.7 3.76999C16.3 5.43999 15.71 7.80999 15.59 8.36999C15.74 7.37999 16.2 5.41999 17.87 3.76999C19.37 2.30999 22.23 0.689987 23.82 1.66999C24.78 2.25999 24.94 3.61999 25.01 4.18999V4.20999L25 4.18999Z" fill="black"/>
<path d="M9.29 13.72C9.02 13.34 6.94001 10.49 4.76 9.55003C4.26 9.34003 3.45 8.99003 2.48 9.24003C2.04 9.35003 1.7 9.55003 1.5 9.69003C1.29 9.74003 1.08 9.78003 0.880005 9.82003C1.38 9.21003 1.87 8.94003 2.27 8.80003C4.31 8.11003 7.18001 10.06 9.31001 13.71L9.29 13.72Z" fill="black"/>
<path d="M5.36 0.24999C5.08 1.85999 4.53 2.94999 4.07 3.64999C3.66 4.27999 3.36 4.55999 2.57 5.73999C1.82 6.86999 1.48 7.55999 1.44 7.53999C1.38 7.50999 2.18 5.77999 3.12 4.02999C3.97 2.43999 4.77 1.14999 5.37 0.23999L5.36 0.24999Z" fill="black"/>
<path d="M23.98 20.17C23.25 22.03 22.26 23.29 22.22 23.27C22.18 23.25 23.07 22.04 23.8 20.07C23.95 19.66 24.07 19.28 24.73 16.63C25.36 14.1 25.56 13.16 25.59 13.16C25.63 13.16 25.28 15.02 24.86 16.91C24.5 18.53 24.31 19.35 23.99 20.17H23.98Z" fill="black"/>
<path d="M54.47 14.4C53.16 16.89 50.63 20.85 46.15 24.25C43.6 26.18 41.13 27.39 39.15 28.17C39.42 30.21 39.69 32.25 39.96 34.29C42.4 32.39 44.97 30.2 47.6 27.71C51.07 24.41 54.01 21.16 56.47 18.14C56.47 17.64 56.37 16.36 55.44 15.26C55.11 14.87 54.76 14.6 54.47 14.41V14.4Z" fill="url(#paint5_linear_140_37)"/>
<g filter="url(#filter0_d_140_37)">
<path d="M40.34 18.42C44.13 20.3 47.97 22.18 51.86 24.06C54.7 25.43 57.52 26.77 60.32 28.09C60.39 29.38 60.45 30.68 60.52 31.97C57.5 30.66 54.4 29.26 51.26 27.76C46.94 25.71 42.83 23.62 38.93 21.52C38.91 21.19 38.92 20.54 39.25 19.81C39.59 19.06 40.09 18.61 40.35 18.41L40.34 18.42Z" fill="url(#paint6_linear_140_37)"/>
</g>
<path d="M39.15 28.16C43.76 30.13 48.83 32.05 54.34 33.78C57.11 34.65 59.8 35.41 62.41 36.09C62.66 37.98 62.92 39.86 63.17 41.75C60.55 40.3 57.4 38.79 53.73 37.49C48.52 35.64 43.79 34.74 39.96 34.3C39.86 33.54 39.76 32.78 39.66 32.01C39.49 30.72 39.32 29.44 39.14 28.17L39.15 28.16Z" fill="#222221"/>
<path d="M39.15 28.16C43.76 30.13 48.83 32.05 54.34 33.78C57.11 34.65 59.8 35.41 62.41 36.09C62.66 37.98 62.92 39.86 63.17 41.75C60.55 40.3 57.4 38.79 53.73 37.49C48.52 35.64 43.79 34.74 39.96 34.3C39.86 33.54 39.76 32.78 39.66 32.01C39.49 30.72 39.32 29.44 39.14 28.17L39.15 28.16Z" fill="url(#paint7_linear_140_37)"/>
<g filter="url(#filter1_d_140_37)">
<path d="M60.74 28.16C56.42 30.44 52.07 32.78 47.68 35.2C45.32 36.5 42.98 37.8 40.67 39.1C40.5 40.04 40.36 41.23 40.41 42.6C40.45 43.82 40.62 44.87 40.82 45.73C41.98 44.61 43.25 43.45 44.62 42.27C46.51 40.64 48.36 39.22 49.05 38.7C53.41 35.45 60.95 31.81 61.32 31.64C61.13 30.48 60.94 29.32 60.75 28.15L60.74 28.16Z" fill="url(#paint8_linear_140_37)"/>
</g>
<path d="M49.32 13.62C51.44 14.83 51.18 15.93 53.2 17.28C55.17 18.59 56.83 18.49 57.24 18.22C57.56 18.01 57.6 17.76 57.6 17.76C57.65 17.5 57.49 17.28 57.46 17.23C57.26 17.11 56.94 16.94 56.54 16.78C55.9 16.53 55.39 16.47 55.02 16.42C53.69 16.23 52.33 15.92 52.34 15.85C52.34 15.79 53.27 15.89 54.86 15.88C54.86 15.88 56.4 15.88 57.86 15.31C58.06 15.23 58.38 15.1 58.45 14.82C58.5 14.62 58.41 14.36 58.24 14.2C58.19 14.15 58.14 14.13 58.03 14.08C57.55 13.85 57.5 13.8 57.41 13.76C56.28 13.27 54.43 13.17 54.43 13.17C52.65 13.07 51.59 13.24 51.55 13.06C51.54 12.95 51.92 12.8 52.08 12.73C53.26 12.25 55.06 11.53 56.1 10.75C56.46 10.48 57.77 9.51003 57.87 8.08003C57.91 7.50003 57.66 6.98003 57.16 5.95003C56.18 3.94003 55.32 3.08003 54.43 1.67003C54.39 1.60003 53.84 0.730026 53.56 0.510026C53.48 0.450026 53.35 0.380026 53.29 0.220026C53.26 0.140026 53.25 0.0600257 53.19 0.0300257C53.13 2.57194e-05 53.04 0.0300257 53.02 0.0500257C52.67 0.210026 52.28 0.140026 51.5 0.580026C50.81 0.970026 50.33 1.46003 50.05 1.81003C49.39 2.84003 49.15 3.75003 49.08 4.45003C48.92 6.07003 49.56 7.31003 48.94 7.81003C48.57 8.10003 48.22 7.77003 47.64 8.15003C47.15 8.47003 46.92 9.00003 46.73 9.45003C46.39 10.23 46.49 10.56 46.29 10.62C45.83 10.77 44.85 9.14003 44.36 8.17003C43.76 6.97003 43.84 6.69003 43.35 6.07003C43.22 5.91003 42.72 5.29003 41.21 4.59003C40.1 4.07003 37.23 2.72003 36.14 3.84003C35.97 4.01003 35.76 4.33003 35.73 4.96003C35.91 5.75003 36.26 6.94003 36.88 8.30003C37.88 10.46 38.99 11.67 38.71 11.97C38.3 12.4 35.54 10.39 35.33 10.7C35.31 10.73 35.33 10.78 35.37 10.93C35.51 11.33 35.37 11.06 35.65 12.05C35.86 12.83 36.15 13.72 36.2 13.86C36.55 14.97 36.73 15.53 36.9 16.04C37.52 17.93 37.71 18.35 37.81 18.57C38.57 20.31 38.99 20.62 39.38 21.49C39.38 21.49 39.49 21.74 39.82 22.13C40.02 22.35 40.13 22.43 40.24 22.42C40.38 22.4 40.48 22.29 40.52 22.25C41.26 21.37 41.11 21.95 41.85 20.78C42.41 19.9 42.3 19.87 42.99 18.71C43.3 18.19 43.57 17.77 43.79 17.45C44.22 16.79 44.43 16.46 44.56 16.34C45.05 15.88 45.49 15.75 45.8 15.15C45.86 15.04 45.83 15.07 46.01 14.67C46.29 14.08 46.36 13.99 46.45 13.72C46.6 13.26 46.5 13.15 46.61 13.03C46.91 12.66 48.16 13 49.32 13.66H49.34L49.32 13.62Z" fill="url(#paint9_linear_140_37)"/>
<path d="M45.01 10.94C45.14 12.42 46.05 13.4 46.38 13.72C46.52 13.53 46.66 13.33 46.84 13.09C47.77 13.45 48.8 13.39 49.7 14.2C51.28 15.64 52.46 17.63 54.73 18.21C55.48 18.4 56.3 18.45 57.07 18.37C57.77 18.3 57.91 17.72 57.37 17.23C57.05 16.95 56.64 16.7 56.23 16.6C55.32 16.39 54.38 16.28 53.4 16.27C54.33 16.42 55.11 16.57 55.71 16.7C56.63 16.9 57.2 17.07 57.34 17.48C57.36 17.55 57.42 17.72 57.34 17.86C57.02 18.45 54.7 18.2 53.2 16.99C52.73 16.61 52.43 16.21 52.27 15.97C53.02 16.06 53.99 15.99 55.13 15.95C56.05 15.92 56.94 15.78 57.78 15.31C56.72 15.64 55.08 15.98 53.26 15.72C51.91 15.53 51.27 15.13 50.95 14.89C50.43 14.51 50.09 14.07 49.9 13.76C50.87 13.5 52.32 13.23 54.09 13.34C55.83 13.44 57.23 13.85 58.16 14.21C56.34 12.75 54.15 13.12 51.91 13.01C53.17 12.43 54.34 11.9 55.5 11.36C56.88 10.71 57.6 10.03 57.84 9.17999C57.9 8.96999 58.07 8.37999 57.78 8.15999C57.6 8.01999 57.33 8.07999 57.2 8.11999C57.18 8.47999 57.09 9.00999 56.83 9.54999C56.32 10.6 55.46 11.05 53.85 11.9C52.12 12.82 50.78 13.08 50.2 13.17C49.91 13.22 49.66 13.24 49.49 13.25C48.56 13.07 47.74 12.9 46.9 12.75C46.55 12.69 46.32 12.55 46.21 12.35C46.07 12.1 46.13 11.82 46.16 11.68C46.71 9.43999 47 8.23999 47.91 8.04999C48.39 7.94999 48.78 8.18999 48.84 8.21999C49.35 8.50999 49.46 9.12999 49.64 9.95999C49.78 10.6 49.99 11.53 50.32 12.69C50.08 11.08 49.83 9.77999 49.65 8.88999C49.26 6.95999 49.05 6.27999 49.13 5.03999C49.18 4.25999 49.26 3.23999 49.95 2.20999C50.33 1.63999 50.84 1.15999 51.5 0.749994C51.93 0.489994 52.47 0.389994 53.09 0.159994C52.09 -0.130006 51.41 0.309994 50.76 0.769994C48.17 2.59999 48.28 5.16999 48.86 7.84999C48.42 7.69999 48.09 7.73999 47.89 7.78999C46.96 8.01999 46.24 9.15999 46.19 10.64C45.99 10.42 45.67 9.99999 45.59 9.43999C45.42 8.30999 46.25 7.28999 46.21 7.26999C46.18 7.25999 45.82 7.69999 45.5 8.43999C45.27 8.97999 44.9 9.82999 44.98 10.91L45.01 10.94Z" fill="black"/>
<path d="M39.81 17.71C39.86 17.23 40.03 16.07 40.91 15.1C42.02 13.88 43.8 13.47 45.52 14C45.34 13.98 42.62 13.66 41.15 15.68C40.57 16.47 40.41 17.32 40.36 17.83C42.01 16.18 43.86 15.21 45.92 14.46C45.92 14.69 45.94 14.76 45.92 14.8C45.83 14.96 45.72 15.12 45.59 15.24C44.06 16.59 43 18.28 42.24 20.21C42.07 20.64 41.83 21.05 41.55 21.39C41.25 21.76 40.84 22.03 40.48 22.35C40.46 22.35 40.33 22.4 40.2 22.32C40.11 22.25 40.06 22.14 40.08 22.02C40.19 21.36 40.42 20.41 40.95 19.38C41.53 18.26 42.23 17.5 42.72 17.04C42.18 17.32 41.74 17.56 41.29 17.77C40.29 18.24 39.41 18.04 38.64 17.21C38.41 16.97 38.19 16.71 37.98 16.45C36.48 14.66 35.7 12.53 35.25 10.25C35.45 11.23 35.87 12.69 36.79 14.25C38.73 17.54 41.88 17.3 39.79 17.71H39.81ZM41.63 18.87C41.38 19.19 41.08 19.62 40.82 20.18C40.54 20.77 40.38 21.32 40.3 21.74C40.3 21.88 40.37 22 40.48 22.02C40.55 22.04 40.62 21.99 40.66 21.97C41.41 21.4 41.65 20.91 41.65 20.91C42.46 19.25 44.49 16.39 44.17 16.16C43.87 15.94 41.91 18.51 41.63 18.87Z" fill="black"/>
<path d="M35.75 5.62997C35.75 6.75997 36.26 7.71997 36.82 8.76997C37.46 9.96997 38.32 11.07 39.1 12.22C39.74 13.16 40.7 13.42 41.82 13.37C42.55 13.34 43.28 13.38 44.02 13.28C43.07 13.13 42.12 13.02 41.2 12.8C40.69 12.68 40.16 12.46 39.77 12.14C39.62 12.02 39.34 11.7 39.31 11.25C39.28 10.69 39.66 10.29 39.8 10.15C40.4 9.51996 41.26 9.46996 41.75 9.43996C42.21 9.41996 42.76 9.37997 43.16 9.71997C43.43 9.94997 43.45 10.2 43.59 10.52C43.78 10.93 44.18 11.45 45.11 11.9C44.85 11.63 44.47 11.2 44.09 10.63C43.57 9.84997 43.57 9.58997 43.18 9.33997C42.53 8.92997 41.68 9.09996 41.18 9.18996C40.91 9.23996 40.51 9.31997 40.08 9.55997C39.52 9.87997 39.07 10.41 38.74 11.12C37.9 9.04996 36.29 7.44997 36.17 5.22997C36.15 4.77997 36.17 4.31997 36.18 3.86997C36.71 3.74997 38.98 3.31997 41.31 4.56997C43.63 5.80997 44.41 7.85997 44.57 8.34997C44.34 7.47997 43.72 5.76997 42.04 4.47997C40.55 3.32997 37.82 2.18997 36.5 3.22997C35.7 3.85997 35.7 5.08997 35.7 5.59997L35.75 5.62997Z" fill="black"/>
<path d="M50.79 12.49C50.99 12.13 52.55 9.36004 54.4 8.29004C54.82 8.05004 55.51 7.65004 56.41 7.77004C56.82 7.82004 57.14 7.97004 57.33 8.07004C57.52 8.09004 57.71 8.11004 57.89 8.12004C57.38 7.63004 56.91 7.44004 56.54 7.36004C54.64 6.96004 52.29 9.00004 50.77 12.49H50.79Z" fill="black"/>
<path d="M52.88 0.0400293C53.3 1.45003 53.91 2.36003 54.39 2.94003C54.82 3.46003 55.12 3.67003 55.95 4.65003C56.73 5.58003 57.12 6.16003 57.15 6.14003C57.2 6.11003 56.31 4.65003 55.27 3.18003C54.34 1.85003 53.49 0.780029 52.86 0.0300293L52.88 0.0400293Z" fill="black"/>
<path d="M38.35 19.8001C39.2 21.3901 40.22 22.4101 40.25 22.3901C40.28 22.3701 39.36 21.3801 38.5 19.6901C38.32 19.3401 38.17 19.0101 37.31 16.7101C36.48 14.5201 36.2 13.7001 36.18 13.7001C36.15 13.7001 36.65 15.3301 37.23 16.9701C37.73 18.3801 37.98 19.1001 38.35 19.7901V19.8001Z" fill="black"/>
<path d="M40.67 43.89C43.02 42.53 46.85 40.69 51.9 39.85C56.41 39.1 60.22 39.42 62.77 39.83C62.77 39.83 63.25 42.51 63.27 42.62C63.35 43.17 63.66 45.47 63.05 48.04C62.75 49.29 62.07 51.39 60.35 53.29C56.58 57.46 49.04 59.32 44.77 55.75C43.14 54.39 42.54 52.21 41.67 49.3C41.02 47.14 40.77 45.25 40.66 43.89H40.67ZM43.99 51.27C45.59 54.79 52.24 55.57 56.6 53.53C57.55 53.09 59.33 52.22 60.18 50.26C60.75 48.96 61.08 46.79 59.98 45.62C59.21 44.81 58.1 44.86 54.04 45.42C45.52 46.58 44.34 47.19 43.84 48.32C43.28 49.6 43.84 50.96 43.99 51.26V51.27Z" fill="url(#paint10_linear_140_37)"/>
<path d="M22.73 42.36C20.23 41.28 16.21 39.91 11.1 39.66C6.52998 39.44 2.77998 40.2 0.299979 40.92C0.299979 40.92 0.139979 43.64 0.129979 43.75C0.109979 44.3 0.0699791 46.63 0.979979 49.11C1.41998 50.32 2.34998 52.33 4.27998 54.01C8.50998 57.71 16.22 58.68 20.04 54.62C21.5 53.08 21.84 50.84 22.36 47.85C22.75 45.62 22.78 43.72 22.72 42.36H22.73ZM20.3 50.07C19.13 53.75 12.61 55.31 8.03998 53.8C7.04998 53.47 5.17998 52.82 4.09998 50.97C3.37998 49.74 2.79998 47.63 3.75998 46.34C4.42998 45.44 5.53998 45.37 9.62998 45.44C18.22 45.6 19.47 46.06 20.1 47.13C20.81 48.33 20.4 49.75 20.3 50.07Z" fill="url(#paint11_linear_140_37)"/>
</g>
<defs>
<filter id="filter0_d_140_37" x="37.9238" y="17.81" width="23.5962" height="15.5601" filterUnits="userSpaceOnUse" color-interpolation-filters="sRGB">
<feFlood flood-opacity="0" result="BackgroundImageFix"/>
<feColorMatrix in="SourceAlpha" type="matrix" values="0 0 0 0 0 0 0 0 0 0 0 0 0 0 0 0 0 0 127 0" result="hardAlpha"/>
<feOffset dy="0.4"/>
<feGaussianBlur stdDeviation="0.5"/>
<feComposite in2="hardAlpha" operator="out"/>
<feColorMatrix type="matrix" values="0 0 0 0 0 0 0 0 0 0 0 0 0 0 0 0 0 0 0.5 0"/>
<feBlend mode="normal" in2="BackgroundImageFix" result="effect1_dropShadow_140_37"/>
<feBlend mode="normal" in="SourceGraphic" in2="effect1_dropShadow_140_37" result="shape"/>
</filter>
<filter id="filter1_d_140_37" x="39.3997" y="27.55" width="22.9203" height="19.58" filterUnits="userSpaceOnUse" color-interpolation-filters="sRGB">
<feFlood flood-opacity="0" result="BackgroundImageFix"/>
<feColorMatrix in="SourceAlpha" type="matrix" values="0 0 0 0 0 0 0 0 0 0 0 0 0 0 0 0 0 0 127 0" result="hardAlpha"/>
<feOffset dy="0.4"/>
<feGaussianBlur stdDeviation="0.5"/>
<feComposite in2="hardAlpha" operator="out"/>
<feColorMatrix type="matrix" values="0 0 0 0 0 0 0 0 0 0 0 0 0 0 0 0 0 0 0.5 0"/>
<feBlend mode="normal" in2="BackgroundImageFix" result="effect1_dropShadow_140_37"/>
<feBlend mode="normal" in="SourceGraphic" in2="effect1_dropShadow_140_37" result="shape"/>
</filter>
<linearGradient id="paint0_linear_140_37" x1="21.8558" y1="27.8977" x2="3.26766" y2="22.2137" gradientUnits="userSpaceOnUse">
<stop stop-color="#222221"/>
<stop offset="1" stop-color="#50504D"/>
</linearGradient>
<linearGradient id="paint1_linear_140_37" x1="4.13871" y1="28.6498" x2="16.2529" y2="15.6166" gradientUnits="userSpaceOnUse">
<stop stop-color="#222221"/>
<stop offset="1" stop-color="#50504D"/>
</linearGradient>
<linearGradient id="paint2_linear_140_37" x1="-0.833665" y1="38.9506" x2="16.9086" y2="26.3135" gradientUnits="userSpaceOnUse">
<stop stop-color="#222221"/>
<stop offset="1" stop-color="#50504D"/>
</linearGradient>
<linearGradient id="paint3_linear_140_37" x1="21.0244" y1="40.0347" x2="-0.411229" y2="34.0805" gradientUnits="userSpaceOnUse">
<stop stop-color="#222221"/>
<stop offset="1" stop-color="#50504D"/>
</linearGradient>
<linearGradient id="paint4_linear_140_37" x1="13.495" y1="0.246948" x2="13.495" y2="23.27" gradientUnits="userSpaceOnUse">
<stop stop-color="#222221"/>
<stop offset="1" stop-color="#464642"/>
</linearGradient>
<linearGradient id="paint5_linear_140_37" x1="41.5" y1="29" x2="56" y2="18.5" gradientUnits="userSpaceOnUse">
<stop stop-color="#222221"/>
<stop offset="1" stop-color="#50504D"/>
</linearGradient>
<linearGradient id="paint6_linear_140_37" x1="59.5" y1="28.5" x2="41" y2="20.5" gradientUnits="userSpaceOnUse">
<stop stop-color="#222221"/>
<stop offset="1" stop-color="#50504D"/>
</linearGradient>
<linearGradient id="paint7_linear_140_37" x1="61.5" y1="38" x2="38.5" y2="30" gradientUnits="userSpaceOnUse">
<stop stop-color="#222221"/>
<stop offset="1" stop-color="#50504D"/>
</linearGradient>
<linearGradient id="paint8_linear_140_37" x1="39.5" y1="41" x2="58.5691" y2="30.627" gradientUnits="userSpaceOnUse">
<stop stop-color="#222221"/>
<stop offset="1" stop-color="#50504D"/>
</linearGradient>
<linearGradient id="paint9_linear_140_37" x1="46.8929" y1="0.017334" x2="46.8929" y2="22.4209" gradientUnits="userSpaceOnUse">
<stop stop-color="#222221"/>
<stop offset="1" stop-color="#464642"/>
</linearGradient>
<linearGradient id="paint10_linear_140_37" x1="52.0399" y1="39.3979" x2="52.1615" y2="55.9999" gradientUnits="userSpaceOnUse">
<stop stop-color="#222221"/>
<stop offset="1" stop-color="#50504D"/>
</linearGradient>
<linearGradient id="paint11_linear_140_37" x1="11.4334" y1="39.6213" x2="11.5477" y2="55.6688" gradientUnits="userSpaceOnUse">
<stop stop-color="#222221"/>
<stop offset="1" stop-color="#50504D"/>
</linearGradient>
<clipPath id="clip0_140_37">
<rect width="64.21" height="57.12" fill="white"/>
</clipPath>
</defs>
</svg>
