<svg width="91" height="51" viewBox="0 0 91 51" fill="none" xmlns="http://www.w3.org/2000/svg">
<path d="M33.15 19.78C33.15 19.78 18.48 22.27 14.75 8.21997C14.75 8.21997 14.75 16.98 23.2 21.73C23.2 21.73 19.02 21.22 18.09 19.24C18.09 19.24 18.82 22.2 22.14 22.53C22.14 22.53 19.5 22.77 16.45 20.89C16.45 20.89 19.67 23.4 21.56 23.33C21.56 23.33 17.96 23.98 15.6 23.33C15.6 23.33 19.56 24.84 21.25 24.08C21.25 24.08 16.58 25.86 11.74 22.04C11.74 22.04 15.39 25.84 18.72 25.15C18.72 25.15 7.41 27.62 1.74 16.26C1.74 16.26 6.03 26.15 12.54 26.26C12.54 26.26 5.29 26.39 0 18.57C0 18.57 5.8 29.17 15.07 28.17C15.07 28.17 19.89 28.9 26.85 25.1C26.85 25.1 34.85 21.81 33.16 19.77L33.15 19.78Z" fill="#10103C"/>
<path d="M35.9701 17.1399C35.6501 16.9599 35.2501 17.1699 35.2001 17.1999C35.2001 17.1999 29.8901 17.1999 26.6701 13.0699C26.6701 13.0699 29.3601 17.0899 31.0301 17.5599C31.0301 17.5599 23.8301 16.4699 21.8701 13.7799C23.2601 15.0699 24.5601 15.9399 25.5101 16.4999C25.5101 16.4999 29.5601 18.8999 34.0601 18.9099C35.2201 18.9099 35.9901 18.7499 36.2301 18.2599C36.3901 17.9299 36.3501 17.3399 35.9801 17.1299L35.9701 17.1399Z" fill="#10103C"/>
<path d="M39.7799 17.96C39.7799 17.96 33.8699 18.05 31.3799 10.05C31.6999 11.06 32.8899 14.28 36.1799 16.18C37.5299 16.96 38.8299 17.28 39.7799 17.42V17.95V17.96Z" fill="#10103C"/>
<path d="M43.5499 16.98C41.9999 16.47 40.0999 15.6 38.2599 14.09C32.3099 9.21 31.8699 1.65 31.8099 0C31.6599 1.72 31.3199 7.82 35.4499 13.31C37.6199 16.19 40.1799 17.79 41.8099 18.63C42.6799 18.86 43.4599 18.5 43.5399 16.99L43.5499 16.98Z" fill="#10103C"/>
<path d="M45.69 15.16C45.69 15.16 45.47 16.18 44.4 16.18C44.4 16.18 38 14.4 38.18 9.78003C38.18 9.78003 38.27 14.6 45.69 15.16Z" fill="#10103C"/>
<path d="M49.6901 16.18C49.6901 16.18 49.6901 18.78 47.6001 17.51C47.6001 17.51 42.0701 12.62 44.4401 2.62C44.4401 2.62 44.8401 15.44 49.6901 16.18Z" fill="#10103C"/>
<path d="M52.2399 17.4401C52.2399 17.4401 58.4499 12.4201 57.7199 8.43005C57.7199 8.43005 55.7599 14.4001 52.0899 15.6001C52.0899 15.6001 47.4699 13.7201 47.5599 10.0401C47.5599 10.0401 46.7699 14.3701 52.2399 17.4301V17.4401Z" fill="#10103C"/>
<path d="M56.9801 18.98C56.9801 18.98 55.7801 19.05 55.8201 17.86C55.8201 17.86 58.2801 13.01 58.1301 2.77002C58.1301 2.77002 60.6601 5.76002 58.5201 16.58C58.5201 16.58 63.3401 11.73 63.0201 8.43002C63.1201 9.25002 63.1301 10.17 62.9601 11.16C62.1601 15.83 57.9901 18.4 56.9701 18.98H56.9801Z" fill="#10103C"/>
<path d="M68.03 10.88C68.03 10.88 65.64 17.41 59.29 18.51C59.29 18.51 59.5 20.26 61.04 19.31C61.04 19.31 67.71 16.76 68.03 10.88Z" fill="#10103C"/>
<path d="M70.11 6.03003C70.11 6.03003 69.98 18.42 62.29 19.59C62.29 19.59 62.45 22.27 64.04 21.09C64.87 20.57 70.18 17.11 70.74 10.98C70.92 8.97003 70.54 7.26003 70.12 6.03003H70.11Z" fill="#10103C"/>
<path d="M72.0001 16.34C72.0001 16.34 68.6801 20.49 65.4801 20.04C65.4801 20.04 64.1601 21.75 65.6601 21.39C65.6601 21.39 71.0101 20.21 72.0001 16.35V16.34Z" fill="#10103C"/>
<path d="M74.8501 18.98C74.8501 18.98 72.3601 21.68 66.5301 21.56C66.5301 21.56 66.33 23.22 68.98 22.54C68.98 22.54 73.3201 21.9 74.8501 18.98Z" fill="#10103C"/>
<path d="M82.23 18.33C81.77 19.24 80.94 20.59 79.5 21.8C79.06 22.17 75.13 25.41 72.62 23.93C72.21 23.69 71.57 23.16 71.16 21.93C70.68 21.85 70.19 22.03 69.95 22.41C69.76 22.72 69.74 23.21 70.17 24.02C71.86 25.73 73.46 25.96 74.05 26.01C77.33 26.27 80.93 23.23 82.23 18.33Z" fill="#10103C"/>
<path d="M78.4301 21C78.4301 21 75.2701 24.1 71.6101 23.4L71.3701 23.07C71.3701 23.07 75.1001 23.38 78.4201 21H78.4301Z" fill="#10103C"/>
<path d="M77.5799 19.25C77.5799 19.25 74.4899 23.35 70.7799 22.76L70.6899 22.45C70.6899 22.45 74.6599 22.52 77.5799 19.25Z" fill="#10103C"/>
<path d="M84.12 26.02C83.35 26.33 82.52 26.62 81.62 26.88C79.04 27.62 76.69 27.87 74.75 27.91C75.32 28.31 75.89 28.71 76.46 29.11C77.38 29.18 79.41 29.22 81.55 28.08C82.77 27.43 83.61 26.62 84.12 26.02Z" fill="#10103C"/>
<path d="M18.8399 27.81C19.1599 28.37 27.3299 22.25 41.6399 20.14C42.8899 19.95 47.7899 19.23 51.7299 19.45C73.3999 20.68 88.8199 51.95 90.4599 50.85C91.2899 50.29 87.1699 42.42 83.1599 36.59C81.0199 33.47 78.4699 29.83 74.0599 26C68.5999 21.27 63.4899 19.04 62.4699 18.61C60.3199 17.69 53.3199 14.8 44.5599 15.33C29.1799 16.26 18.4599 27.14 18.8499 27.81H18.8399Z" fill="#10103C"/>
</svg>
