<svg width="196" height="111" viewBox="0 0 196 111" fill="none" xmlns="http://www.w3.org/2000/svg">
<path d="M162.7 37.2943C162.7 37.2943 160.405 20.717 166.381 15.0007C166.061 15.7629 165.636 16.8109 165.212 18.0841C164.917 18.9588 163.939 22.0162 163.384 26.6065C162.813 31.2748 162.908 35.6487 163.263 39.3556C163.073 38.6714 162.882 37.9872 162.7 37.3029V37.2943Z" fill="url(#paint0_linear_204_3946)"/>
<path d="M141.498 16.1867C141.42 16.4725 141.334 16.7757 141.247 17.0961C144.174 24.2328 146.946 33.8206 147.136 45.2359C147.474 65.8232 139.229 82.591 131.07 94.1189H129.347C130.949 91.7717 132.551 89.3726 134.076 86.8262L134.136 86.7223C137.401 80.8328 136.864 73.8 132.898 69.201C130.221 66.083 126.705 64.9398 124.245 64.524C122.288 70.6561 115.809 74.3457 106.447 85.8129C103.918 88.9136 101.848 91.7717 100.237 94.1189H99.7259V50.2939C100.999 49.2027 102.879 47.8515 105.234 46.9161C105.555 46.3878 105.875 45.9288 106.152 45.5477C107.096 44.2832 107.807 43.3218 109.123 42.5596C110.344 41.8667 111.158 41.8927 113.237 41.477C113.237 41.477 114.38 41.2431 118.46 40.0393C120.019 39.5716 126.246 37.7268 131.2 32.4695C132.82 30.746 133.721 29.2736 134.907 27.3422C137.566 23.003 139.004 19.0276 139.809 16.256C139.809 16.256 137.393 11.1114 142 4.75415H142.919C141.264 7.50836 140.121 10.9901 142.113 13.9608C142.113 13.9608 145.422 11.3192 150.8 9.00672V10.5484C146.669 12.3152 143.551 14.5065 141.498 16.1867Z" fill="#7C0938"/>
<path d="M141.498 16.1867C141.42 16.4725 141.334 16.7757 141.247 17.0961C144.174 24.2328 146.946 33.8206 147.136 45.2359C147.474 65.8232 139.229 82.591 131.07 94.1189H129.347C130.949 91.7717 132.551 89.3726 134.076 86.8262L134.136 86.7223C137.401 80.8328 136.864 73.8 132.898 69.201C130.221 66.083 126.705 64.9398 124.245 64.524C122.288 70.6561 115.809 74.3457 106.447 85.8129C103.918 88.9136 101.848 91.7717 100.237 94.1189H99.7259V50.2939C100.999 49.2027 102.879 47.8515 105.234 46.9161C105.555 46.3878 105.875 45.9288 106.152 45.5477C107.096 44.2832 107.807 43.3218 109.123 42.5596C110.344 41.8667 111.158 41.8927 113.237 41.477C113.237 41.477 114.38 41.2431 118.46 40.0393C120.019 39.5716 126.246 37.7268 131.2 32.4695C132.82 30.746 133.721 29.2736 134.907 27.3422C137.566 23.003 139.004 19.0276 139.809 16.256C139.809 16.256 137.393 11.1114 142 4.75415H142.919C141.264 7.50836 140.121 10.9901 142.113 13.9608C142.113 13.9608 145.422 11.3192 150.8 9.00672V10.5484C146.669 12.3152 143.551 14.5065 141.498 16.1867Z" fill="url(#paint1_linear_204_3946)"/>
<path d="M193.672 19.5995C192.607 18.4735 191.16 17.0618 189.316 15.624C189.307 15.624 189.307 15.6154 189.298 15.6154C179.07 10.9211 172.773 20.2923 172.773 20.2923C166.702 27.1346 165.853 35.8303 166.052 41.2781H162.362C157.997 31.673 151.285 25.3591 148.375 22.6222C145.69 20.0845 143.187 18.2137 141.299 16.9232C141.281 16.9752 141.264 17.0358 141.247 17.0964C141.126 17.5035 140.987 17.9452 140.84 18.4042C139.601 22.1458 137.202 27.4291 132.473 32.1407V30.9801C133.383 29.8282 134.075 28.7022 134.907 27.3424C137.566 23.0033 139.004 19.0278 139.809 16.2563C139.809 16.2563 137.393 11.1116 142 4.75443C143.118 3.22142 144.633 1.61913 146.712 -0.000488281C146.314 0.389259 144.408 2.27737 142.918 4.75443C141.264 7.50864 140.121 10.9904 142.113 13.9611C142.113 13.9611 145.421 11.3195 150.8 9.007C160.933 4.64183 178.403 1.45457 194.893 19.305C194.893 19.305 196.123 21.5309 193.672 19.5995Z" fill="url(#paint2_linear_204_3946)"/>
<path d="M168.234 27.7062C166.242 32.669 165.922 37.6837 166.052 41.2781C166.147 44.0236 166.52 45.9377 166.606 46.3881C166.615 46.4141 166.624 46.4401 166.624 46.4574C166.624 46.4834 166.624 46.492 166.624 46.492C166.883 47.3668 167.109 48.2675 167.316 49.1943C167.568 50.3029 168.07 52.8146 168.226 56.2703V60.0985C168.139 62.5929 167.819 65.3904 167.143 68.3871C166.338 71.9468 165.168 75.1081 163.843 77.8797H162.57C164.536 73.2373 166.147 67.5557 166.364 61.1205V61.1725C166.372 60.5922 166.364 57.7427 164.146 55.3869C163.878 55.1011 161.565 52.728 158.508 52.8579C155.304 52.9965 153.164 55.794 151.207 58.4356C146.651 64.5763 147.327 68.6383 142.477 75.8357C141.966 76.5978 141.463 77.282 141.004 77.8797H140.103V74.6664C140.701 73.1421 141.264 71.5484 141.784 69.8855C147.405 51.8532 144.78 36.194 143.628 29.7329C142.788 25.0559 141.723 21.1931 140.831 18.4042C140.796 18.2916 140.762 18.1791 140.727 18.0751C140.857 17.6507 140.987 17.2263 141.117 16.8019C141.238 16.5941 141.359 16.3949 141.489 16.187C143.724 17.5555 146.859 19.6774 150.237 22.7001C153.857 25.9394 160.569 31.9241 164.718 41.2781C164.848 41.5639 164.969 41.841 165.091 42.1355C165.065 41.8584 165.056 41.5725 165.047 41.2781C164.943 37.9436 165.316 33.6304 167.074 28.9534C167.429 28.0093 167.819 27.1173 168.226 26.2685V27.7062H168.234Z" fill="#7C0938"/>
<path d="M168.234 27.7062C166.242 32.669 165.922 37.6837 166.052 41.2781C166.147 44.0236 166.52 45.9377 166.606 46.3881C166.615 46.4141 166.624 46.4401 166.624 46.4574C166.624 46.4834 166.624 46.492 166.624 46.492C166.883 47.3668 167.109 48.2675 167.316 49.1943C167.568 50.3029 168.07 52.8146 168.226 56.2703V60.0985C168.139 62.5929 167.819 65.3904 167.143 68.3871C166.338 71.9468 165.168 75.1081 163.843 77.8797H162.57C164.536 73.2373 166.147 67.5557 166.364 61.1205V61.1725C166.372 60.5922 166.364 57.7427 164.146 55.3869C163.878 55.1011 161.565 52.728 158.508 52.8579C155.304 52.9965 153.164 55.794 151.207 58.4356C146.651 64.5763 147.327 68.6383 142.477 75.8357C141.966 76.5978 141.463 77.282 141.004 77.8797H140.103V74.6664C140.701 73.1421 141.264 71.5484 141.784 69.8855C147.405 51.8532 144.78 36.194 143.628 29.7329C142.788 25.0559 141.723 21.1931 140.831 18.4042C140.796 18.2916 140.762 18.1791 140.727 18.0751C140.857 17.6507 140.987 17.2263 141.117 16.8019C141.238 16.5941 141.359 16.3949 141.489 16.187C143.724 17.5555 146.859 19.6774 150.237 22.7001C153.857 25.9394 160.569 31.9241 164.718 41.2781C164.848 41.5639 164.969 41.841 165.091 42.1355C165.065 41.8584 165.056 41.5725 165.047 41.2781C164.943 37.9436 165.316 33.6304 167.074 28.9534C167.429 28.0093 167.819 27.1173 168.226 26.2685V27.7062H168.234Z" fill="url(#paint3_linear_204_3946)"/>
<path d="M189.316 15.6244C189.316 15.6244 189.307 15.6157 189.299 15.6157C179.07 10.9215 172.773 20.2927 172.773 20.2927C170.712 22.6139 169.248 25.1516 168.235 27.7066C166.243 32.6693 165.922 37.6841 166.052 41.2784C166.148 44.024 166.52 45.9381 166.607 46.3885C166.615 46.4144 166.624 46.4404 166.624 46.4577C166.624 46.4837 166.624 46.4924 166.624 46.4924H165.637C165.437 45.4877 165.195 43.9893 165.091 42.1445C165.065 41.8587 165.056 41.5729 165.048 41.2784C164.944 37.9439 165.316 33.6307 167.074 28.9538C167.429 28.0097 167.819 27.1176 168.226 26.2688C170.868 20.8124 174.445 17.3826 176.376 15.737C181.452 12.3938 186.406 13.9875 188.077 14.6977C188.086 14.6977 188.095 14.7063 188.103 14.715C188.467 14.8622 188.666 14.9748 188.666 14.9748L189.307 15.6244H189.316Z" fill="url(#paint4_linear_204_3946)"/>
<path d="M193.672 19.5995C192.607 18.4735 191.16 17.0618 189.316 15.624C189.307 15.624 189.307 15.6154 189.298 15.6154C188.917 15.3036 188.527 15.0178 188.112 14.7146C188.103 14.706 188.094 14.6973 188.086 14.6973C186.198 13.3375 183.954 11.9864 181.347 10.8172C178.688 9.63926 168.806 5.59455 156.586 8.60859C154.481 9.12826 152.549 9.80382 150.8 10.5487C146.669 12.3155 143.551 14.5068 141.498 16.187C141.437 16.4209 141.368 16.6634 141.299 16.9232C141.281 16.9752 141.264 17.0358 141.247 17.0964C141.126 17.5035 140.987 17.9452 140.84 18.4042C139.601 22.1458 137.202 27.4291 132.473 32.1407C132.369 32.2533 132.257 32.3572 132.144 32.4698C132.144 32.4698 127.025 37.4239 119.49 40.4033C116.329 41.6505 114.753 42.2741 112.457 42.6119C111.254 42.7938 110.682 42.7764 109.773 43.2095C109.036 43.5559 108.222 44.1016 106.325 46.5267C106.118 46.7952 105.901 47.0896 105.659 47.4101C105.07 48.2069 104.281 49.3069 103.389 50.658C103.961 49.151 104.619 47.9038 105.234 46.9164C105.555 46.3881 105.875 45.9291 106.152 45.548C107.096 44.2835 107.806 43.3221 109.123 42.5599C110.344 41.867 111.158 41.893 113.237 41.4773C113.237 41.4773 114.38 41.2434 118.46 40.0395C120.019 39.5718 126.246 37.727 131.2 32.4698C131.685 31.9588 132.101 31.4651 132.473 30.9801C133.383 29.8282 134.075 28.7022 134.907 27.3424C137.566 23.0033 139.004 19.0278 139.809 16.2563C139.809 16.2563 137.393 11.1116 142 4.75443C143.118 3.22142 144.633 1.61913 146.712 -0.000488281C146.314 0.389259 144.408 2.27737 142.918 4.75443C141.264 7.50864 140.121 10.9904 142.113 13.9611C142.113 13.9611 145.421 11.3195 150.8 9.007C160.933 4.64183 178.403 1.45457 194.893 19.305C194.893 19.305 196.123 21.5309 193.672 19.5995Z" fill="url(#paint5_linear_204_3946)"/>
<path d="M168.235 60.0985C168.148 62.5929 167.828 65.3904 167.152 68.3871C166.347 71.9468 165.177 75.1081 163.852 77.8797C160.907 84.0723 157.209 88.2729 155.104 90.4209C156.291 88.9571 159.79 84.4794 162.579 77.8797C164.545 73.2373 166.156 67.5557 166.373 61.1205C166.416 59.7434 166.398 58.3403 166.312 56.9026C166.251 55.9932 166.165 55.0751 166.043 54.1484C165.428 49.3588 164.077 45.0716 162.362 41.2781C157.997 31.673 151.285 25.3591 148.375 22.6222C145.69 20.0845 143.187 18.2137 141.299 16.9232C141.238 16.8799 141.186 16.8366 141.126 16.8019C141.247 16.5941 141.368 16.3949 141.498 16.187C143.733 17.5555 146.868 19.6774 150.246 22.7001C153.866 25.9394 160.578 31.9241 164.727 41.2781C164.857 41.5639 164.978 41.841 165.099 42.1355C165.662 43.4953 166.165 44.9071 166.606 46.3881C166.615 46.4141 166.624 46.4401 166.624 46.4574C166.624 46.4834 166.624 46.492 166.624 46.492C166.883 47.3668 167.109 48.2675 167.317 49.1943C167.568 50.3029 168.07 52.8146 168.226 56.2703C168.278 57.4396 168.287 58.7214 168.226 60.0985H168.235Z" fill="url(#paint6_linear_204_3946)"/>
<path d="M54.654 16.6201C54.732 16.9059 54.8186 17.209 54.9052 17.5295C51.9778 24.6662 49.2062 34.254 49.0157 45.6692C48.6779 66.2565 56.9232 83.0243 65.0819 94.5522H66.8055C65.2032 92.2051 63.6009 89.8059 62.0765 87.2596L62.0159 87.1557C58.7507 81.2662 59.2877 74.2334 63.2544 69.6344C65.9307 66.5164 69.4471 65.3731 71.9068 64.9574C73.8642 71.0894 80.3427 74.779 89.7053 86.2463C92.2343 89.3469 94.3043 92.2051 95.9153 94.5522H96.4263V50.7273C95.1531 49.636 93.2736 48.2849 90.9178 47.3495C90.5974 46.8212 90.2769 46.3621 89.9998 45.981C89.0557 44.7165 88.3455 43.7551 87.029 42.993C85.8078 42.3001 84.9937 42.3261 82.915 41.9103C82.915 41.9103 81.7718 41.6765 77.6924 40.4726C76.1334 40.0049 69.9061 38.1601 64.952 32.9029C63.3324 31.1793 62.4316 29.7069 61.2451 27.7755C58.5861 23.4363 57.1484 19.4609 56.3429 16.6894C56.3429 16.6894 58.7594 11.5447 54.1517 5.1875H53.2336C54.8879 7.94171 56.0311 11.4235 54.0391 14.3942C54.0391 14.3942 50.7306 11.7526 45.3521 9.44007V10.9817C49.4834 12.7486 52.6013 14.9398 54.654 16.6201Z" fill="#7C0938"/>
<path d="M54.654 16.6201C54.732 16.9059 54.8186 17.209 54.9052 17.5295C51.9778 24.6662 49.2062 34.254 49.0157 45.6692C48.6779 66.2565 56.9232 83.0243 65.0819 94.5522H66.8055C65.2032 92.2051 63.6009 89.8059 62.0765 87.2596L62.0159 87.1557C58.7507 81.2662 59.2877 74.2334 63.2544 69.6344C65.9307 66.5164 69.4471 65.3731 71.9068 64.9574C73.8642 71.0894 80.3427 74.779 89.7053 86.2463C92.2343 89.3469 94.3043 92.2051 95.9153 94.5522H96.4263V50.7273C95.1531 49.636 93.2736 48.2849 90.9178 47.3495C90.5974 46.8212 90.2769 46.3621 89.9998 45.981C89.0557 44.7165 88.3455 43.7551 87.029 42.993C85.8078 42.3001 84.9937 42.3261 82.915 41.9103C82.915 41.9103 81.7718 41.6765 77.6924 40.4726C76.1334 40.0049 69.9061 38.1601 64.952 32.9029C63.3324 31.1793 62.4316 29.7069 61.2451 27.7755C58.5861 23.4363 57.1484 19.4609 56.3429 16.6894C56.3429 16.6894 58.7594 11.5447 54.1517 5.1875H53.2336C54.8879 7.94171 56.0311 11.4235 54.0391 14.3942C54.0391 14.3942 50.7306 11.7526 45.3521 9.44007V10.9817C49.4834 12.7486 52.6013 14.9398 54.654 16.6201Z" fill="url(#paint7_linear_204_3946)"/>
<path d="M2.47947 20.0335C3.54478 18.9076 4.99117 17.4959 6.83598 16.0581C6.84464 16.0581 6.84464 16.0495 6.8533 16.0495C17.082 11.3552 23.3786 20.7264 23.3786 20.7264C29.45 27.5687 30.2988 36.2644 30.0996 41.7122H33.7892C38.1543 32.107 44.8666 25.7931 47.7768 23.0563C50.4617 20.5186 52.9647 18.6478 54.8528 17.3573C54.8702 17.4093 54.8875 17.4699 54.9048 17.5305C55.0261 17.9376 55.1646 18.3793 55.3119 18.8383C56.5504 22.5799 58.9495 27.8631 63.6784 32.5747V31.4142C62.769 30.2622 62.0762 29.1363 61.2447 27.7765C58.5858 23.4373 57.148 19.4619 56.3425 16.6904C56.3425 16.6904 58.759 11.5457 54.1513 5.18851C53.034 3.6555 51.5183 2.05321 49.4397 0.433594C49.8381 0.823341 51.7435 2.71145 53.2332 5.18851C54.8875 7.94272 56.0307 11.4245 54.0387 14.3952C54.0387 14.3952 50.7302 11.7536 45.3517 9.44108C35.2182 5.07592 17.7489 1.88865 1.25826 19.7391C1.25826 19.7391 0.0283908 21.965 2.47947 20.0335Z" fill="#7C0938"/>
<path d="M2.47947 20.0335C3.54478 18.9076 4.99117 17.4959 6.83598 16.0581C6.84464 16.0581 6.84464 16.0495 6.8533 16.0495C17.082 11.3552 23.3786 20.7264 23.3786 20.7264C29.45 27.5687 30.2988 36.2644 30.0996 41.7122H33.7892C38.1543 32.107 44.8666 25.7931 47.7768 23.0563C50.4617 20.5186 52.9647 18.6478 54.8528 17.3573C54.8702 17.4093 54.8875 17.4699 54.9048 17.5305C55.0261 17.9376 55.1646 18.3793 55.3119 18.8383C56.5504 22.5799 58.9495 27.8631 63.6784 32.5747V31.4142C62.769 30.2622 62.0762 29.1363 61.2447 27.7765C58.5858 23.4373 57.148 19.4619 56.3425 16.6904C56.3425 16.6904 58.759 11.5457 54.1513 5.18851C53.034 3.6555 51.5183 2.05321 49.4397 0.433594C49.8381 0.823341 51.7435 2.71145 53.2332 5.18851C54.8875 7.94272 56.0307 11.4245 54.0387 14.3952C54.0387 14.3952 50.7302 11.7536 45.3517 9.44108C35.2182 5.07592 17.7489 1.88865 1.25826 19.7391C1.25826 19.7391 0.0283908 21.965 2.47947 20.0335Z" fill="url(#paint8_linear_204_3946)"/>
<path d="M27.917 28.1396C29.909 33.1023 30.2295 38.1171 30.0996 41.7114C30.0043 44.457 29.6319 46.3711 29.5453 46.8214C29.5366 46.8474 29.5279 46.8734 29.5279 46.8907C29.5279 46.9167 29.5279 46.9254 29.5279 46.9254C29.2681 47.8001 29.0429 48.7009 28.8351 49.6276C28.5839 50.7362 28.0816 53.2479 27.9257 56.7037V60.5319C28.0123 63.0263 28.3327 65.8238 29.0083 68.8205C29.8138 72.3802 30.983 75.5415 32.3081 78.313H33.5813C31.6153 73.6707 30.0043 67.989 29.7878 61.5539V61.6058C29.7791 61.0256 29.7878 58.1761 32.005 55.8203C32.2735 55.5345 34.586 53.1613 37.6433 53.2912C40.8479 53.4298 42.9872 56.2273 44.9446 58.869C49.5003 65.0096 48.8248 69.0717 53.675 76.269C54.186 77.0312 54.6883 77.7154 55.1473 78.313H56.0481V75.0998C55.4505 73.5754 54.8875 71.9818 54.3678 70.3189C48.7468 52.2866 51.3711 36.6274 52.523 30.1662C53.3632 25.4893 54.4285 21.6264 55.3206 18.8376C55.3552 18.725 55.3898 18.6124 55.4245 18.5085C55.2946 18.0841 55.1647 17.6597 55.0347 17.2353C54.9135 17.0274 54.7922 16.8282 54.6623 16.6204C52.4278 17.9888 49.2925 20.1108 45.9147 23.1335C42.2943 26.3727 35.582 32.3575 31.4334 41.7114C31.3035 41.9972 31.1822 42.2744 31.061 42.5689C31.0869 42.2917 31.0956 42.0059 31.1043 41.7114C31.2082 38.3769 30.8358 34.0637 29.0776 29.3867C28.7225 28.4427 28.3327 27.5506 27.9257 26.7018V28.1396H27.917Z" fill="#7C0938"/>
<path d="M27.917 28.1396C29.909 33.1023 30.2295 38.1171 30.0996 41.7114C30.0043 44.457 29.6319 46.3711 29.5453 46.8214C29.5366 46.8474 29.5279 46.8734 29.5279 46.8907C29.5279 46.9167 29.5279 46.9254 29.5279 46.9254C29.2681 47.8001 29.0429 48.7009 28.8351 49.6276C28.5839 50.7362 28.0816 53.2479 27.9257 56.7037V60.5319C28.0123 63.0263 28.3327 65.8238 29.0083 68.8205C29.8138 72.3802 30.983 75.5415 32.3081 78.313H33.5813C31.6153 73.6707 30.0043 67.989 29.7878 61.5539V61.6058C29.7791 61.0256 29.7878 58.1761 32.005 55.8203C32.2735 55.5345 34.586 53.1613 37.6433 53.2912C40.8479 53.4298 42.9872 56.2273 44.9446 58.869C49.5003 65.0096 48.8248 69.0717 53.675 76.269C54.186 77.0312 54.6883 77.7154 55.1473 78.313H56.0481V75.0998C55.4505 73.5754 54.8875 71.9818 54.3678 70.3189C48.7468 52.2866 51.3711 36.6274 52.523 30.1662C53.3632 25.4893 54.4285 21.6264 55.3206 18.8376C55.3552 18.725 55.3898 18.6124 55.4245 18.5085C55.2946 18.0841 55.1647 17.6597 55.0347 17.2353C54.9135 17.0274 54.7922 16.8282 54.6623 16.6204C52.4278 17.9888 49.2925 20.1108 45.9147 23.1335C42.2943 26.3727 35.582 32.3575 31.4334 41.7114C31.3035 41.9972 31.1822 42.2744 31.061 42.5689C31.0869 42.2917 31.0956 42.0059 31.1043 41.7114C31.2082 38.3769 30.8358 34.0637 29.0776 29.3867C28.7225 28.4427 28.3327 27.5506 27.9257 26.7018V28.1396H27.917Z" fill="url(#paint9_linear_204_3946)"/>
<path d="M33.443 37.7276C33.443 37.7276 35.7381 21.1504 29.762 15.4341C30.0825 16.1963 30.5069 17.2442 30.9313 18.5174C31.2257 19.3922 32.2044 22.4495 32.7587 27.0399C33.3304 31.7082 33.2351 36.082 32.88 39.789C33.0705 39.1047 33.2611 38.4205 33.443 37.7363V37.7276Z" fill="url(#paint10_linear_204_3946)"/>
<path d="M6.83588 16.0578C6.83588 16.0578 6.84454 16.0491 6.8532 16.0491C17.0819 11.3548 23.3785 20.7261 23.3785 20.7261C25.4398 23.0472 26.9035 25.5849 27.9169 28.1399C29.9089 33.1027 30.2294 38.1174 30.0995 41.7118C30.0042 44.4573 29.6318 46.3714 29.5451 46.8218C29.5365 46.8478 29.5278 46.8738 29.5278 46.8911C29.5278 46.9171 29.5278 46.9257 29.5278 46.9257H30.5152C30.7144 45.921 30.9569 44.4227 31.0608 42.5779C31.0868 42.2921 31.0955 42.0063 31.1041 41.7118C31.2081 38.3773 30.8356 34.0641 29.0774 29.3871C28.7223 28.4431 28.3326 27.551 27.9255 26.7022C25.2839 21.2457 21.7069 17.8159 19.7755 16.1703C14.7001 12.8272 9.74599 14.4208 8.07441 15.131C8.06574 15.131 8.05708 15.1397 8.04842 15.1483C7.68466 15.2956 7.48546 15.4082 7.48546 15.4082L6.84454 16.0578H6.83588Z" fill="url(#paint11_linear_204_3946)"/>
<path d="M2.47947 20.0335C3.54478 18.9076 4.99117 17.4959 6.83598 16.0581C6.84464 16.0581 6.84464 16.0495 6.8533 16.0495C7.23438 15.7377 7.62413 15.4519 8.03986 15.1487C8.04852 15.1401 8.05718 15.1314 8.06584 15.1314C9.95395 13.7716 12.1972 12.4205 14.8041 11.2512C17.4631 10.0733 27.3453 6.02863 39.5661 9.04268C41.6707 9.56234 43.6021 10.2379 45.3517 10.9828C49.483 12.7496 52.601 14.9409 54.6536 16.6211C54.7143 16.8549 54.7835 17.0975 54.8528 17.3573C54.8702 17.4093 54.8875 17.4699 54.9048 17.5305C55.0261 17.9376 55.1646 18.3793 55.3119 18.8383C56.5504 22.5799 58.9495 27.8631 63.6784 32.5747C63.7824 32.6873 63.895 32.7913 64.0076 32.9039C64.0076 32.9039 69.1262 37.858 76.6614 40.8374C79.8226 42.0846 81.3989 42.7082 83.6941 43.046C84.898 43.2278 85.4696 43.2105 86.3791 43.6436C87.1152 43.99 87.9294 44.5357 89.8261 46.9608C90.034 47.2292 90.2505 47.5237 90.493 47.8442C91.082 48.641 91.8702 49.7409 92.7622 51.0921C92.1906 49.585 91.5324 48.3379 90.9174 47.3505C90.597 46.8222 90.2765 46.3631 89.9994 45.9821C89.0553 44.7175 88.3451 43.7562 87.0286 42.994C85.8074 42.3011 84.9933 42.3271 82.9146 41.9114C82.9146 41.9114 81.7714 41.6775 77.692 40.4736C76.133 40.0059 69.9057 38.1611 64.9516 32.9039C64.4666 32.3929 64.0509 31.8992 63.6784 31.4142C62.769 30.2622 62.0761 29.1363 61.2447 27.7765C58.5857 23.4373 57.148 19.4619 56.3425 16.6904C56.3425 16.6904 58.759 11.5457 54.1513 5.18851C53.034 3.6555 51.5183 2.05321 49.4397 0.433594C49.8381 0.823341 51.7435 2.71145 53.2332 5.18851C54.8875 7.94272 56.0307 11.4245 54.0387 14.3952C54.0387 14.3952 50.7302 11.7536 45.3517 9.44108C35.2182 5.07592 17.7489 1.88865 1.25826 19.7391C1.25826 19.7391 0.0283908 21.965 2.47947 20.0335Z" fill="url(#paint12_linear_204_3946)"/>
<path d="M27.9172 60.5319C28.0038 63.0263 28.3242 65.8238 28.9998 68.8205C29.8053 72.3802 30.9745 75.5415 32.2997 78.313C35.2444 84.5057 38.9427 88.7063 41.0473 90.8542C39.8608 89.3905 36.3617 84.9127 33.5728 78.313C31.6068 73.6707 29.9958 67.989 29.7793 61.5539C29.736 60.1768 29.7533 58.7737 29.8399 57.3359C29.9005 56.4265 29.9872 55.5085 30.1084 54.5817C30.7233 49.7922 32.0745 45.505 33.7894 41.7114C38.1545 32.1063 44.8668 25.7924 47.777 23.0555C50.4619 20.5178 52.9649 18.647 54.853 17.3566C54.9137 17.3132 54.9656 17.2699 55.0263 17.2353C54.905 17.0274 54.7837 16.8282 54.6538 16.6204C52.4193 17.9888 49.284 20.1108 45.9062 23.1335C42.2858 26.3727 35.5735 32.3575 31.4249 41.7114C31.295 41.9972 31.1737 42.2744 31.0525 42.5689C30.4895 43.9286 29.9872 45.3404 29.5454 46.8214C29.5368 46.8474 29.5281 46.8734 29.5281 46.8907C29.5281 46.9167 29.5281 46.9254 29.5281 46.9254C29.2683 47.8001 29.0431 48.7009 28.8352 49.6276C28.5841 50.7362 28.0817 53.2479 27.9258 56.7037C27.8739 57.8729 27.8652 59.1548 27.9258 60.5319H27.9172Z" fill="url(#paint13_linear_204_3946)"/>
<path d="M55.6063 77.8459C55.6756 78.0018 55.7448 78.1577 55.8141 78.3136C56.0913 78.9458 56.3771 79.5694 56.6716 80.1843C59.2179 85.6062 62.154 90.413 65.0815 94.553C71.1702 103.162 77.2156 108.844 79.5974 111C76.6007 107.709 72.6426 103.032 68.5112 97.0387C67.9396 96.2159 67.3766 95.3845 66.805 94.553C65.2027 92.2059 63.6004 89.8068 62.0761 87.2604L62.0155 87.1565C61.3572 86.0652 60.7163 84.9479 60.084 83.796C58.629 81.1111 57.2605 78.2443 56.0393 75.1003C55.4417 73.576 54.8787 71.9823 54.3591 70.3194C48.7381 52.2871 51.3624 36.6279 52.5143 30.1668C53.3544 25.4898 54.4197 21.627 55.3118 18.8381C55.3464 18.7255 55.3811 18.6129 55.4157 18.509C55.2858 18.0846 55.1559 17.6602 55.026 17.2358C54.9827 17.3311 54.948 17.435 54.9047 17.5303C51.9773 24.667 49.2058 34.2548 49.0152 45.6701C48.816 57.8215 51.6049 68.6478 55.6063 77.8459Z" fill="url(#paint14_linear_204_3946)"/>
<path d="M11.2098 13.0867C11.2098 13.0867 17.0646 11.6143 22.7809 16.9582C22.7809 16.9582 20.7802 12.6104 13.0459 12.082C12.8294 12.0994 12.483 12.16 12.1019 12.3505C11.6428 12.5844 11.357 12.8962 11.2098 13.0867Z" fill="url(#paint15_linear_204_3946)"/>
<path d="M36.5259 33.0332C36.5259 33.0332 38.4054 20.5872 36.881 19.2881C36.881 19.2881 36.6125 30.3656 34.9843 35.2244L36.5259 33.0332Z" fill="url(#paint16_linear_204_3946)"/>
<path d="M27.8737 18.7681C27.8737 18.7681 35.0363 30.9888 31.8231 40.8451L30.6539 43.3395C32.1695 39.0956 32.2215 35.6658 32.0656 33.5438C31.8577 30.8242 31.1822 28.607 30.0995 25.0647C29.2941 22.423 28.4799 20.2751 27.8737 18.7681Z" fill="url(#paint17_linear_204_3946)"/>
<path d="M29.3895 59.0074L29.7793 61.5451L29.7879 61.6057C29.7706 61.0254 29.7793 58.176 31.9965 55.8201C32.265 55.5343 34.5775 53.1612 37.6348 53.2911C40.8394 53.4297 42.9787 56.2272 44.9361 58.8688C49.4918 65.0095 48.8163 69.0716 53.6664 76.2689C54.1774 77.0311 54.6798 77.7153 55.1388 78.3129C55.7364 79.0837 56.2648 79.716 56.6718 80.1837V79.5687C56.4033 79.1444 56.1435 78.7286 55.8923 78.3129C55.7971 78.157 55.7018 78.0011 55.6065 77.8452C55.6065 77.8452 55.5979 77.8279 55.5979 77.8192C52.8869 73.3241 50.9815 69.444 49.6564 66.5079C47.4392 61.5538 45.681 56.5996 41.2725 53.8714C40.2158 53.2132 38.8907 52.6156 37.2624 52.5463C36.89 52.5376 33.3909 52.451 31.0611 55.2485C30.4808 55.9501 30.0911 56.6776 29.8399 57.3272C29.5714 58.0114 29.4502 58.609 29.3895 59.0074Z" fill="url(#paint18_linear_204_3946)"/>
<path d="M60.0844 83.7959L62.0158 87.1564C58.7506 81.2669 59.2876 74.2341 63.2543 69.6351C65.9306 66.5171 69.447 65.3738 71.9067 64.9581C73.3271 64.7156 74.3924 64.7156 74.7475 64.7243C74.7042 64.3345 74.6523 63.9448 74.6003 63.5637C74.2625 63.555 73.1366 63.555 71.6122 63.8322C69.1005 64.2912 65.5235 65.5297 62.726 68.8296C57.2609 75.2648 59.9545 83.4235 60.0844 83.7959Z" fill="url(#paint19_linear_204_3946)"/>
<path d="M72.5736 45.4706C72.5736 45.4706 59.1749 34.1766 56.6719 22.3283L55.416 18.5088C55.416 18.5088 52.2374 33.3971 60.1017 43.34C58.4907 40.6551 56.2821 36.0907 55.8491 30.1233C55.6845 27.8541 55.8058 25.8187 56.0483 24.0865C56.7758 26.7195 58.0403 30.1492 60.3355 33.7436C64.3802 40.0921 69.5422 43.6865 72.5822 45.4706H72.5736Z" fill="url(#paint20_linear_204_3946)"/>
<path d="M140.545 77.4125C140.476 77.5684 140.407 77.7243 140.338 77.8802C140.06 78.5125 139.775 79.1361 139.48 79.751C136.934 85.1728 133.998 89.9797 131.07 94.1197C124.982 102.729 118.936 108.41 116.554 110.567C119.551 107.276 123.509 102.599 127.64 96.6054C128.212 95.7826 128.775 94.9511 129.347 94.1197C130.949 91.7725 132.551 89.3734 134.076 86.8271L134.136 86.7231C134.794 85.6318 135.435 84.5146 136.068 83.3626C137.523 80.6777 138.891 77.8109 140.112 74.667C140.71 73.1426 141.273 71.549 141.793 69.8861C147.414 51.8538 144.789 36.1946 143.637 29.7334C142.797 25.0565 141.732 21.1936 140.84 18.4048C140.805 18.2922 140.771 18.1796 140.736 18.0757C140.866 17.6513 140.996 17.2269 141.126 16.8025C141.169 16.8978 141.204 17.0017 141.247 17.097C144.174 24.2337 146.946 33.8215 147.136 45.2367C147.336 57.3882 144.547 68.2145 140.545 77.4125Z" fill="url(#paint21_linear_204_3946)"/>
<path d="M184.942 12.6622C184.942 12.6622 179.087 11.1898 173.371 16.5336C173.371 16.5336 175.371 12.1858 183.106 11.6575C183.322 11.6748 183.669 11.7354 184.05 11.926C184.509 12.1598 184.795 12.4716 184.942 12.6622Z" fill="url(#paint22_linear_204_3946)"/>
<path d="M159.617 32.6006C159.617 32.6006 157.738 20.1546 159.262 18.8555C159.262 18.8555 159.53 29.9329 161.159 34.7918L159.617 32.6006Z" fill="url(#paint23_linear_204_3946)"/>
<path d="M168.278 18.3354C168.278 18.3354 161.115 30.5562 164.329 40.4125L165.498 42.9068C163.982 38.6629 163.93 35.2332 164.086 33.1112C164.294 30.3916 164.969 28.1744 166.052 24.632C166.858 21.9904 167.672 19.8425 168.278 18.3354Z" fill="url(#paint24_linear_204_3946)"/>
<path d="M166.762 58.5741L166.373 61.1117L166.364 61.1724C166.381 60.5921 166.373 57.7426 164.155 55.3868C163.887 55.101 161.574 52.7279 158.517 52.8578C155.312 52.9963 153.173 55.7939 151.216 58.4355C146.66 64.5762 147.336 68.6382 142.485 75.8355C141.974 76.5977 141.472 77.2819 141.013 77.8795C140.415 78.6504 139.887 79.2826 139.48 79.7503V79.1354C139.749 78.711 140.008 78.2953 140.26 77.8795C140.355 77.7236 140.45 77.5677 140.545 77.4118C140.545 77.4118 140.554 77.3945 140.554 77.3859C143.265 72.8908 145.17 69.0106 146.495 66.0745C148.713 61.1204 150.471 56.1663 154.879 53.4381C155.936 52.7798 157.261 52.1822 158.889 52.1129C159.262 52.1043 162.761 52.0177 165.091 54.8152C165.671 55.5167 166.061 56.2442 166.312 56.8938C166.58 57.578 166.702 58.1757 166.762 58.5741Z" fill="url(#paint25_linear_204_3946)"/>
<path d="M136.068 83.3625L134.136 86.723C137.401 80.8335 136.864 73.8008 132.898 69.2017C130.221 66.0838 126.705 64.9405 124.245 64.5248C122.825 64.2823 121.76 64.2823 121.404 64.2909C121.448 63.9012 121.5 63.5114 121.552 63.1303C121.889 63.1217 123.015 63.1217 124.54 63.3988C127.051 63.8579 130.629 65.0964 133.426 68.3963C138.891 74.8314 136.198 82.9901 136.068 83.3625Z" fill="url(#paint26_linear_204_3946)"/>
<path d="M124.808 61.571C124.756 62.2119 124.67 62.8181 124.54 63.3984C124.462 63.7882 124.358 64.1606 124.245 64.5244C122.288 70.6564 115.809 74.346 106.447 85.8132C103.918 88.9139 101.848 91.772 100.237 94.1192C99.3361 95.4357 98.5826 96.5876 97.9764 97.549C97.9764 97.5576 97.9677 97.5749 97.959 97.5836C97.9504 97.5749 97.9417 97.5576 97.9417 97.549C96.2528 94.89 93.4206 90.6461 89.4712 85.8132C78.7055 72.6225 71.7594 69.721 71.1098 61.571C71.0838 61.1812 70.5901 53.6201 75.7001 49.0471C78.8614 46.2063 82.629 45.9118 84.0407 45.8252C84.3612 45.8079 84.673 45.7905 84.9848 45.7905C92.1648 45.7905 97.0929 51.0478 97.959 52.0092C98.2102 51.7233 98.8165 51.0738 99.7259 50.2943C100.999 49.203 102.879 47.8519 105.234 46.9165C105.581 46.7692 105.953 46.6393 106.326 46.5267C107.729 46.0763 109.27 45.7905 110.942 45.7905C111.245 45.7905 111.566 45.8079 111.877 45.8252C113.298 45.9118 117.065 46.2063 120.227 49.0471C125.328 53.6201 124.843 61.1812 124.808 61.571Z" fill="#7C0938"/>
<path d="M124.808 61.571C124.756 62.2119 124.67 62.8181 124.54 63.3984C124.462 63.7882 124.358 64.1606 124.245 64.5244C122.288 70.6564 115.809 74.346 106.447 85.8132C103.918 88.9139 101.848 91.772 100.237 94.1192C99.3361 95.4357 98.5826 96.5876 97.9764 97.549C97.9764 97.5576 97.9677 97.5749 97.959 97.5836C97.9504 97.5749 97.9417 97.5576 97.9417 97.549C96.2528 94.89 93.4206 90.6461 89.4712 85.8132C78.7055 72.6225 71.7594 69.721 71.1098 61.571C71.0838 61.1812 70.5901 53.6201 75.7001 49.0471C78.8614 46.2063 82.629 45.9118 84.0407 45.8252C84.3612 45.8079 84.673 45.7905 84.9848 45.7905C92.1648 45.7905 97.0929 51.0478 97.959 52.0092C98.2102 51.7233 98.8165 51.0738 99.7259 50.2943C100.999 49.203 102.879 47.8519 105.234 46.9165C105.581 46.7692 105.953 46.6393 106.326 46.5267C107.729 46.0763 109.27 45.7905 110.942 45.7905C111.245 45.7905 111.566 45.8079 111.877 45.8252C113.298 45.9118 117.065 46.2063 120.227 49.0471C125.328 53.6201 124.843 61.1812 124.808 61.571Z" fill="url(#paint27_linear_204_3946)"/>
<path d="M108.006 41.8501L112.492 44.3531L115.264 47.9561L116.303 49.7317L116.987 50.9529L117.031 51.7064L112.406 51.2214L108.543 50.182L109.357 48.164L109.045 45.3059L108.491 43.3571L108.006 41.8501Z" fill="url(#paint28_linear_204_3946)"/>
<path d="M79.4156 50.892L80.1778 49.2031L81.8321 46.3103L85.5996 42.5601L87.8082 41.0184L88.9255 40.7932L88.146 42.8545L87.7303 45.4702L88.4578 50.892L85.5217 50.2164L79.4156 50.892Z" fill="url(#paint29_linear_204_3946)"/>
<path d="M123.578 45.0373C123.578 45.0373 136.977 33.7433 139.48 21.895L140.736 18.0754C140.736 18.0754 143.914 32.9638 136.05 42.9067C137.661 40.2217 139.87 35.6574 140.303 29.6899C140.467 27.4207 140.346 25.3854 140.104 23.6532C139.376 26.2861 138.111 29.7159 135.816 33.3102C131.772 39.6588 126.61 43.2531 123.57 45.0373H123.578Z" fill="url(#paint30_linear_204_3946)"/>
<path d="M117.671 51.7406C117.671 51.7406 113.713 42.2741 107.477 41.5725C107.477 41.5725 109.868 45.8944 108.439 50.0084L109.036 50.0777C109.036 50.0777 110.301 45.1668 108.37 42.3953C109.331 42.837 110.405 43.4433 111.487 44.2748C114.735 46.7605 116.303 49.8871 117.031 51.7146L117.663 51.7492L117.671 51.7406Z" fill="url(#paint31_linear_204_3946)"/>
<path d="M122.045 62.5322C121.465 69.6776 115.203 72.224 105.503 83.7951C101.943 88.039 99.3966 91.7546 97.8722 94.0931C97.8722 94.1018 97.8636 94.1104 97.8549 94.1191C97.8462 94.1104 97.8376 94.1018 97.8376 94.0931C96.3132 91.7546 93.7669 88.039 90.2072 83.7951C80.5068 72.224 74.2449 69.6776 73.6646 62.5322C73.6386 62.1858 73.1969 55.5601 77.7959 51.5414C80.6454 49.0557 84.0405 48.7958 85.3137 48.7179C85.5995 48.7006 85.8853 48.6919 86.1625 48.6919C92.6323 48.6919 97.0754 53.2996 97.8549 54.1397C98.6344 53.2996 103.078 48.6919 109.547 48.6919C109.824 48.6919 110.11 48.7006 110.396 48.7179C111.669 48.7958 115.064 49.0557 117.914 51.5414C122.513 55.5601 122.071 62.1858 122.045 62.5322Z" fill="#0B0B0B"/>
<path d="M79.2423 50.5543C79.2423 50.5543 83.2004 41.0878 89.4364 40.3862C89.4364 40.3862 87.0459 44.7081 88.475 48.8221L87.8774 48.8914C87.8774 48.8914 86.6129 43.9806 88.5443 41.209C87.5829 41.6507 86.5089 42.257 85.4263 43.0885C82.1784 45.5742 80.6108 48.7008 79.8832 50.5283L79.251 50.563L79.2423 50.5543Z" fill="url(#paint32_linear_204_3946)"/>
<g filter="url(#filter0_f_204_3946)">
<path d="M91.1526 71.3181C91.1526 71.3181 91.9234 65.9395 86.7701 62.0161C86.7701 62.0161 85.2718 59.3831 87.0473 59.0627C87.0473 59.0627 87.0213 54.8188 84.0679 56.8454C84.0679 56.8454 80.5601 60.7862 87.8701 65.8096C87.8701 65.8096 91.1699 68.3733 91.1526 71.3267V71.3181Z" fill="white"/>
</g>
<g filter="url(#filter1_f_204_3946)">
<path d="M83.261 73.2721C83.261 73.2721 74.6346 62.5065 78.3242 56.7988C78.0731 57.076 77.7266 57.509 77.4235 58.098C75.9684 60.9475 77.3196 64.23 78.1683 66.2827C79.5281 69.5825 81.6328 71.8604 83.261 73.2808V73.2721Z" fill="white" fill-opacity="0.4"/>
</g>
<g filter="url(#filter2_f_204_3946)">
<path d="M75.3884 63.5197C75.3884 63.5197 74.7389 55.1012 82.811 51.8706C82.0488 51.9052 79.2859 52.1131 77.1466 54.287C74.8774 56.5909 74.2019 60.1939 75.3884 63.5197Z" fill="white" fill-opacity="0.4"/>
</g>
<g filter="url(#filter3_f_204_3946)">
<path d="M106.854 63.9444C106.854 63.9444 108.196 64.4987 108.43 65.3302L111.211 61.6665C111.211 61.6665 110.691 59.0856 109.253 61.0083L106.854 63.9444Z" fill="white" fill-opacity="0.3"/>
</g>
<g filter="url(#filter4_f_204_3946)">
<path d="M113.142 64.8623C113.142 64.8623 113.488 60.6443 112.683 60.2892C112.683 60.2892 108.292 57.6563 111.774 57.8295C112.432 58.0633 112.848 58.4011 113.107 58.6869C114.363 60.0294 114.355 62.4805 113.151 64.8623H113.142Z" fill="white" fill-opacity="0.3"/>
</g>
<defs>
<filter id="filter0_f_204_3946" x="73.2266" y="46.2971" width="27.9669" height="35.0295" filterUnits="userSpaceOnUse" color-interpolation-filters="sRGB">
<feFlood flood-opacity="0" result="BackgroundImageFix"/>
<feBlend mode="normal" in="SourceGraphic" in2="BackgroundImageFix" result="shape"/>
<feGaussianBlur stdDeviation="5" result="effect1_foregroundBlur_204_3946"/>
</filter>
<filter id="filter1_f_204_3946" x="75.7803" y="55.7988" width="8.48077" height="18.4819" filterUnits="userSpaceOnUse" color-interpolation-filters="sRGB">
<feFlood flood-opacity="0" result="BackgroundImageFix"/>
<feBlend mode="normal" in="SourceGraphic" in2="BackgroundImageFix" result="shape"/>
<feGaussianBlur stdDeviation="0.5" result="effect1_foregroundBlur_204_3946"/>
</filter>
<filter id="filter2_f_204_3946" x="73.8124" y="50.8706" width="9.9986" height="13.6492" filterUnits="userSpaceOnUse" color-interpolation-filters="sRGB">
<feFlood flood-opacity="0" result="BackgroundImageFix"/>
<feBlend mode="normal" in="SourceGraphic" in2="BackgroundImageFix" result="shape"/>
<feGaussianBlur stdDeviation="0.5" result="effect1_foregroundBlur_204_3946"/>
</filter>
<filter id="filter3_f_204_3946" x="105.854" y="59.2964" width="6.35651" height="7.03369" filterUnits="userSpaceOnUse" color-interpolation-filters="sRGB">
<feFlood flood-opacity="0" result="BackgroundImageFix"/>
<feBlend mode="normal" in="SourceGraphic" in2="BackgroundImageFix" result="shape"/>
<feGaussianBlur stdDeviation="0.5" result="effect1_foregroundBlur_204_3946"/>
</filter>
<filter id="filter4_f_204_3946" x="109.431" y="56.8213" width="5.6203" height="9.04102" filterUnits="userSpaceOnUse" color-interpolation-filters="sRGB">
<feFlood flood-opacity="0" result="BackgroundImageFix"/>
<feBlend mode="normal" in="SourceGraphic" in2="BackgroundImageFix" result="shape"/>
<feGaussianBlur stdDeviation="0.5" result="effect1_foregroundBlur_204_3946"/>
</filter>
<linearGradient id="paint0_linear_204_3946" x1="164.324" y1="15.0007" x2="164.324" y2="39.3556" gradientUnits="userSpaceOnUse">
<stop stop-color="#6C6C6C"/>
<stop offset="0.26" stop-color="#D7D7D7"/>
<stop offset="0.315" stop-color="white"/>
<stop offset="0.445" stop-color="#D7D7D7"/>
<stop offset="0.74" stop-color="#6C6C6C"/>
<stop offset="1" stop-color="#2A2A2A"/>
</linearGradient>
<linearGradient id="paint1_linear_204_3946" x1="125.263" y1="4.75415" x2="125.263" y2="94.1189" gradientUnits="userSpaceOnUse">
<stop stop-color="#6C6C6C"/>
<stop offset="0.26" stop-color="#D7D7D7"/>
<stop offset="0.315" stop-color="white"/>
<stop offset="0.445" stop-color="#D7D7D7"/>
<stop offset="0.74" stop-color="#6C6C6C"/>
<stop offset="1" stop-color="#2A2A2A"/>
</linearGradient>
<linearGradient id="paint2_linear_204_3946" x1="163.838" y1="-0.000488281" x2="163.838" y2="41.2781" gradientUnits="userSpaceOnUse">
<stop stop-color="#6C6C6C"/>
<stop offset="0.26" stop-color="#D7D7D7"/>
<stop offset="0.315" stop-color="white"/>
<stop offset="0.445" stop-color="#D7D7D7"/>
<stop offset="0.74" stop-color="#6C6C6C"/>
<stop offset="1" stop-color="#2A2A2A"/>
</linearGradient>
<linearGradient id="paint3_linear_204_3946" x1="154.169" y1="16.187" x2="154.169" y2="77.8797" gradientUnits="userSpaceOnUse">
<stop stop-color="#6C6C6C"/>
<stop offset="0.26" stop-color="#D7D7D7"/>
<stop offset="0.315" stop-color="white"/>
<stop offset="0.445" stop-color="#D7D7D7"/>
<stop offset="0.74" stop-color="#6C6C6C"/>
<stop offset="1" stop-color="#2A2A2A"/>
</linearGradient>
<linearGradient id="paint4_linear_204_3946" x1="177.174" y1="13.6904" x2="177.174" y2="46.4924" gradientUnits="userSpaceOnUse">
<stop stop-color="#6C6C6C"/>
<stop offset="0.26" stop-color="#D7D7D7"/>
<stop offset="0.315" stop-color="white"/>
<stop offset="0.445" stop-color="#D7D7D7"/>
<stop offset="0.74" stop-color="#6C6C6C"/>
<stop offset="1" stop-color="#2A2A2A"/>
</linearGradient>
<linearGradient id="paint5_linear_204_3946" x1="149.296" y1="-0.000488281" x2="149.296" y2="50.658" gradientUnits="userSpaceOnUse">
<stop stop-color="#6C6C6C"/>
<stop offset="0.26" stop-color="#D7D7D7"/>
<stop offset="0.315" stop-color="white"/>
<stop offset="0.445" stop-color="#D7D7D7"/>
<stop offset="0.74" stop-color="#6C6C6C"/>
<stop offset="1" stop-color="#2A2A2A"/>
</linearGradient>
<linearGradient id="paint6_linear_204_3946" x1="154.697" y1="16.187" x2="154.697" y2="90.4209" gradientUnits="userSpaceOnUse">
<stop stop-color="#6C6C6C"/>
<stop offset="0.26" stop-color="#D7D7D7"/>
<stop offset="0.315" stop-color="white"/>
<stop offset="0.445" stop-color="#D7D7D7"/>
<stop offset="0.74" stop-color="#6C6C6C"/>
<stop offset="1" stop-color="#2A2A2A"/>
</linearGradient>
<linearGradient id="paint7_linear_204_3946" x1="70.8892" y1="5.1875" x2="70.8892" y2="94.5522" gradientUnits="userSpaceOnUse">
<stop stop-color="#6C6C6C"/>
<stop offset="0.26" stop-color="#D7D7D7"/>
<stop offset="0.315" stop-color="white"/>
<stop offset="0.445" stop-color="#D7D7D7"/>
<stop offset="0.74" stop-color="#6C6C6C"/>
<stop offset="1" stop-color="#2A2A2A"/>
</linearGradient>
<linearGradient id="paint8_linear_204_3946" x1="32.3141" y1="0.433594" x2="32.3141" y2="41.7122" gradientUnits="userSpaceOnUse">
<stop stop-color="#6C6C6C"/>
<stop offset="0.26" stop-color="#D7D7D7"/>
<stop offset="0.315" stop-color="white"/>
<stop offset="0.445" stop-color="#D7D7D7"/>
<stop offset="0.74" stop-color="#6C6C6C"/>
<stop offset="1" stop-color="#2A2A2A"/>
</linearGradient>
<linearGradient id="paint9_linear_204_3946" x1="41.9825" y1="16.6204" x2="41.9825" y2="78.313" gradientUnits="userSpaceOnUse">
<stop stop-color="#6C6C6C"/>
<stop offset="0.26" stop-color="#D7D7D7"/>
<stop offset="0.315" stop-color="white"/>
<stop offset="0.445" stop-color="#D7D7D7"/>
<stop offset="0.74" stop-color="#6C6C6C"/>
<stop offset="1" stop-color="#2A2A2A"/>
</linearGradient>
<linearGradient id="paint10_linear_204_3946" x1="31.8191" y1="15.4341" x2="31.8191" y2="39.789" gradientUnits="userSpaceOnUse">
<stop stop-color="#6C6C6C"/>
<stop offset="0.26" stop-color="#D7D7D7"/>
<stop offset="0.315" stop-color="white"/>
<stop offset="0.445" stop-color="#D7D7D7"/>
<stop offset="0.74" stop-color="#6C6C6C"/>
<stop offset="1" stop-color="#2A2A2A"/>
</linearGradient>
<linearGradient id="paint11_linear_204_3946" x1="18.978" y1="14.1238" x2="18.978" y2="46.9257" gradientUnits="userSpaceOnUse">
<stop stop-color="#6C6C6C"/>
<stop offset="0.26" stop-color="#D7D7D7"/>
<stop offset="0.315" stop-color="white"/>
<stop offset="0.445" stop-color="#D7D7D7"/>
<stop offset="0.74" stop-color="#6C6C6C"/>
<stop offset="1" stop-color="#2A2A2A"/>
</linearGradient>
<linearGradient id="paint12_linear_204_3946" x1="46.856" y1="0.433594" x2="46.856" y2="51.0921" gradientUnits="userSpaceOnUse">
<stop stop-color="#6C6C6C"/>
<stop offset="0.26" stop-color="#D7D7D7"/>
<stop offset="0.315" stop-color="white"/>
<stop offset="0.445" stop-color="#D7D7D7"/>
<stop offset="0.74" stop-color="#6C6C6C"/>
<stop offset="1" stop-color="#2A2A2A"/>
</linearGradient>
<linearGradient id="paint13_linear_204_3946" x1="41.4549" y1="16.6204" x2="41.4549" y2="90.8542" gradientUnits="userSpaceOnUse">
<stop stop-color="#6C6C6C"/>
<stop offset="0.26" stop-color="#D7D7D7"/>
<stop offset="0.315" stop-color="white"/>
<stop offset="0.445" stop-color="#D7D7D7"/>
<stop offset="0.74" stop-color="#6C6C6C"/>
<stop offset="1" stop-color="#2A2A2A"/>
</linearGradient>
<linearGradient id="paint14_linear_204_3946" x1="64.3013" y1="17.2358" x2="64.3013" y2="111" gradientUnits="userSpaceOnUse">
<stop stop-color="#6C6C6C"/>
<stop offset="0.26" stop-color="#D7D7D7"/>
<stop offset="0.315" stop-color="white"/>
<stop offset="0.445" stop-color="#D7D7D7"/>
<stop offset="0.74" stop-color="#6C6C6C"/>
<stop offset="1" stop-color="#2A2A2A"/>
</linearGradient>
<linearGradient id="paint15_linear_204_3946" x1="16.9954" y1="12.082" x2="16.9954" y2="16.9582" gradientUnits="userSpaceOnUse">
<stop stop-color="#6C6C6C"/>
<stop offset="0.26" stop-color="#D7D7D7"/>
<stop offset="0.315" stop-color="white"/>
<stop offset="0.445" stop-color="#D7D7D7"/>
<stop offset="0.74" stop-color="#6C6C6C"/>
<stop offset="1" stop-color="#2A2A2A"/>
</linearGradient>
<linearGradient id="paint16_linear_204_3946" x1="36.2308" y1="19.2881" x2="36.2308" y2="35.2244" gradientUnits="userSpaceOnUse">
<stop stop-color="#6C6C6C"/>
<stop offset="0.26" stop-color="#D7D7D7"/>
<stop offset="0.315" stop-color="white"/>
<stop offset="0.445" stop-color="#D7D7D7"/>
<stop offset="0.74" stop-color="#6C6C6C"/>
<stop offset="1" stop-color="#2A2A2A"/>
</linearGradient>
<linearGradient id="paint17_linear_204_3946" x1="30.2629" y1="18.7681" x2="30.2629" y2="43.3395" gradientUnits="userSpaceOnUse">
<stop stop-color="#6C6C6C"/>
<stop offset="0.26" stop-color="#D7D7D7"/>
<stop offset="0.315" stop-color="white"/>
<stop offset="0.445" stop-color="#D7D7D7"/>
<stop offset="0.74" stop-color="#6C6C6C"/>
<stop offset="1" stop-color="#2A2A2A"/>
</linearGradient>
<linearGradient id="paint18_linear_204_3946" x1="43.0307" y1="52.5442" x2="43.0307" y2="80.1837" gradientUnits="userSpaceOnUse">
<stop stop-color="#6C6C6C"/>
<stop offset="0.26" stop-color="#D7D7D7"/>
<stop offset="0.315" stop-color="white"/>
<stop offset="0.445" stop-color="#D7D7D7"/>
<stop offset="0.74" stop-color="#6C6C6C"/>
<stop offset="1" stop-color="#2A2A2A"/>
</linearGradient>
<linearGradient id="paint19_linear_204_3946" x1="67.0273" y1="63.5613" x2="67.0273" y2="87.1564" gradientUnits="userSpaceOnUse">
<stop stop-color="#6C6C6C"/>
<stop offset="0.26" stop-color="#D7D7D7"/>
<stop offset="0.315" stop-color="white"/>
<stop offset="0.445" stop-color="#D7D7D7"/>
<stop offset="0.74" stop-color="#6C6C6C"/>
<stop offset="1" stop-color="#2A2A2A"/>
</linearGradient>
<linearGradient id="paint20_linear_204_3946" x1="63.6816" y1="18.5088" x2="63.6816" y2="45.4706" gradientUnits="userSpaceOnUse">
<stop stop-color="#6C6C6C"/>
<stop offset="0.26" stop-color="#D7D7D7"/>
<stop offset="0.315" stop-color="white"/>
<stop offset="0.445" stop-color="#D7D7D7"/>
<stop offset="0.74" stop-color="#6C6C6C"/>
<stop offset="1" stop-color="#2A2A2A"/>
</linearGradient>
<linearGradient id="paint21_linear_204_3946" x1="131.728" y1="71.4537" x2="147.318" y2="85.3114" gradientUnits="userSpaceOnUse">
<stop stop-color="#6C6C6C"/>
<stop offset="0.26" stop-color="#D7D7D7"/>
<stop offset="0.315" stop-color="white"/>
<stop offset="0.445" stop-color="#D7D7D7"/>
<stop offset="0.74" stop-color="#6C6C6C"/>
<stop offset="1" stop-color="#2A2A2A"/>
</linearGradient>
<linearGradient id="paint22_linear_204_3946" x1="179.156" y1="11.6575" x2="179.156" y2="16.5336" gradientUnits="userSpaceOnUse">
<stop stop-color="#6C6C6C"/>
<stop offset="0.26" stop-color="#D7D7D7"/>
<stop offset="0.315" stop-color="white"/>
<stop offset="0.445" stop-color="#D7D7D7"/>
<stop offset="0.74" stop-color="#6C6C6C"/>
<stop offset="1" stop-color="#2A2A2A"/>
</linearGradient>
<linearGradient id="paint23_linear_204_3946" x1="159.912" y1="18.8555" x2="159.912" y2="34.7918" gradientUnits="userSpaceOnUse">
<stop stop-color="#6C6C6C"/>
<stop offset="0.26" stop-color="#D7D7D7"/>
<stop offset="0.315" stop-color="white"/>
<stop offset="0.445" stop-color="#D7D7D7"/>
<stop offset="0.74" stop-color="#6C6C6C"/>
<stop offset="1" stop-color="#2A2A2A"/>
</linearGradient>
<linearGradient id="paint24_linear_204_3946" x1="165.889" y1="18.3354" x2="165.889" y2="42.9068" gradientUnits="userSpaceOnUse">
<stop stop-color="#6C6C6C"/>
<stop offset="0.26" stop-color="#D7D7D7"/>
<stop offset="0.315" stop-color="white"/>
<stop offset="0.445" stop-color="#D7D7D7"/>
<stop offset="0.74" stop-color="#6C6C6C"/>
<stop offset="1" stop-color="#2A2A2A"/>
</linearGradient>
<linearGradient id="paint25_linear_204_3946" x1="153.121" y1="52.1108" x2="153.121" y2="79.7503" gradientUnits="userSpaceOnUse">
<stop stop-color="#6C6C6C"/>
<stop offset="0.26" stop-color="#D7D7D7"/>
<stop offset="0.315" stop-color="white"/>
<stop offset="0.445" stop-color="#D7D7D7"/>
<stop offset="0.74" stop-color="#6C6C6C"/>
<stop offset="1" stop-color="#2A2A2A"/>
</linearGradient>
<linearGradient id="paint26_linear_204_3946" x1="129.125" y1="63.1279" x2="129.125" y2="86.723" gradientUnits="userSpaceOnUse">
<stop stop-color="#6C6C6C"/>
<stop offset="0.26" stop-color="#D7D7D7"/>
<stop offset="0.315" stop-color="white"/>
<stop offset="0.445" stop-color="#D7D7D7"/>
<stop offset="0.74" stop-color="#6C6C6C"/>
<stop offset="1" stop-color="#2A2A2A"/>
</linearGradient>
<linearGradient id="paint27_linear_204_3946" x1="97.9606" y1="45.7905" x2="97.9606" y2="97.5836" gradientUnits="userSpaceOnUse">
<stop stop-color="#6C6C6C"/>
<stop offset="0.26" stop-color="#D7D7D7"/>
<stop offset="0.315" stop-color="white"/>
<stop offset="0.445" stop-color="#D7D7D7"/>
<stop offset="0.74" stop-color="#6C6C6C"/>
<stop offset="1" stop-color="#2A2A2A"/>
</linearGradient>
<linearGradient id="paint28_linear_204_3946" x1="109.21" y1="47.2026" x2="116.554" y2="46.8374" gradientUnits="userSpaceOnUse">
<stop stop-color="#531111"/>
<stop offset="0.365" stop-color="#B92525"/>
<stop offset="1" stop-color="#531111"/>
</linearGradient>
<linearGradient id="paint29_linear_204_3946" x1="83.2264" y1="44.171" x2="88.4231" y2="45.9033" gradientUnits="userSpaceOnUse">
<stop stop-color="#531111"/>
<stop offset="0.365" stop-color="#B92525"/>
<stop offset="1" stop-color="#531111"/>
</linearGradient>
<linearGradient id="paint30_linear_204_3946" x1="132.47" y1="18.0754" x2="132.47" y2="45.0373" gradientUnits="userSpaceOnUse">
<stop stop-color="#6C6C6C"/>
<stop offset="0.26" stop-color="#D7D7D7"/>
<stop offset="0.315" stop-color="white"/>
<stop offset="0.445" stop-color="#D7D7D7"/>
<stop offset="0.74" stop-color="#6C6C6C"/>
<stop offset="1" stop-color="#2A2A2A"/>
</linearGradient>
<linearGradient id="paint31_linear_204_3946" x1="112.574" y1="41.5725" x2="112.574" y2="51.7492" gradientUnits="userSpaceOnUse">
<stop stop-color="#6C6C6C"/>
<stop offset="0.26" stop-color="#D7D7D7"/>
<stop offset="0.315" stop-color="white"/>
<stop offset="0.445" stop-color="#D7D7D7"/>
<stop offset="0.74" stop-color="#6C6C6C"/>
<stop offset="1" stop-color="#2A2A2A"/>
</linearGradient>
<linearGradient id="paint32_linear_204_3946" x1="84.3393" y1="40.3862" x2="84.3393" y2="50.563" gradientUnits="userSpaceOnUse">
<stop stop-color="#6C6C6C"/>
<stop offset="0.26" stop-color="#D7D7D7"/>
<stop offset="0.315" stop-color="white"/>
<stop offset="0.445" stop-color="#D7D7D7"/>
<stop offset="0.74" stop-color="#6C6C6C"/>
<stop offset="1" stop-color="#2A2A2A"/>
</linearGradient>
</defs>
</svg>
