<svg width="93" height="51" viewBox="0 0 93 51" fill="none" xmlns="http://www.w3.org/2000/svg">
<path d="M7.01904 29.5359C7.01904 29.5359 19.679 52.9959 36.049 50.3359C36.049 50.3359 57.739 51.1059 67.419 48.2759C67.419 48.2759 81.989 39.0959 87.129 23.0659L75.399 21.6559L55.419 20.5359L29.249 24.4459L7.01904 29.5259V29.5359Z" fill="url(#paint0_linear_149_1136)"/>
<path d="M1.42896 24.466L24.019 7.66601C24.019 7.66601 35.099 -3.42399 44.269 3.91601C44.269 3.91601 48.8689 5.41602 53.9789 2.20602C53.9789 2.20602 60.2889 -4.854 74.0889 6.286L91.209 19.586L87.1189 23.076L82.7189 23.256L72.1489 20.966L63.6389 20.796L54.8389 22.686L38.8389 23.086L29.239 24.466L15.8089 27.666L6.66895 27.956L1.42896 24.476V24.466Z" fill="url(#paint1_linear_149_1136)"/>
<path d="M8.4291 29.5359C5.7591 29.5459 0.919099 29.5759 0.159099 27.4859C-0.220901 26.4459 0.429098 24.9359 1.4391 24.4659C2.7491 23.8459 4.0491 25.3059 6.7891 26.2359C8.6391 26.8659 10.0291 26.8759 12.6991 26.8959C18.9991 26.9459 29.2591 22.9859 35.4291 21.2859C36.1591 21.0859 48.8591 17.7059 61.7891 19.7159C66.8791 20.5059 72.1391 20.4459 77.0791 21.8959C77.9891 22.1659 80.3191 22.8959 83.3091 22.5259C85.5391 22.2559 87.2791 21.4759 88.3991 20.8659C88.3991 20.8659 92.1091 17.3659 92.3991 21.8259C91.6891 22.3959 90.5091 23.2459 88.8791 23.8559C84.0391 25.6759 81.0191 23.2459 72.7591 22.3259C68.1391 21.8159 64.8791 21.4559 60.8591 22.6859C57.9991 23.5659 57.0591 24.5459 53.6591 25.3159C51.1691 25.8759 49.0991 25.8459 45.0491 25.7459C37.0591 25.5659 34.9291 24.6459 29.5891 25.5059C29.2991 25.5559 28.1191 25.8159 25.7791 26.3359C14.3991 28.8759 12.2391 29.5059 8.44909 29.5259L8.4291 29.5359Z" fill="#3A0601"/>
<defs>
<linearGradient id="paint0_linear_149_1136" x1="46.9848" y1="16.1626" x2="46.9848" y2="45.6833" gradientUnits="userSpaceOnUse">
<stop stop-color="#750B32"/>
<stop offset="1" stop-color="#99264A"/>
</linearGradient>
<linearGradient id="paint1_linear_149_1136" x1="46.219" y1="-4.07397" x2="46.219" y2="23.426" gradientUnits="userSpaceOnUse">
<stop stop-color="#99264A"/>
<stop offset="0.96" stop-color="#750B32"/>
</linearGradient>
</defs>
</svg>
