<?xml version="1.0" encoding="UTF-8"?>
<svg id="_Слой_1" data-name="Слой 1" xmlns="http://www.w3.org/2000/svg" xmlns:xlink="http://www.w3.org/1999/xlink" viewBox="0 0 595 958">
  <defs>
    <style>
      .cls-1 {
        fill: url(#_Безымянный_градиент_26-6);
      }

      .cls-1, .cls-2, .cls-3, .cls-4, .cls-5, .cls-6, .cls-7, .cls-8, .cls-9, .cls-10, .cls-11, .cls-12, .cls-13, .cls-14, .cls-15, .cls-16, .cls-17, .cls-18, .cls-19, .cls-20, .cls-21, .cls-22, .cls-23, .cls-24, .cls-25, .cls-26, .cls-27, .cls-28 {
        stroke-width: 0px;
      }

      .cls-2 {
        fill: url(#_Безымянный_градиент_23-6);
      }

      .cls-3 {
        fill: url(#_Безымянный_градиент_26-14);
      }

      .cls-4 {
        fill: url(#_Безымянный_градиент_25);
      }

      .cls-5 {
        fill: #351617;
      }

      .cls-6 {
        fill: url(#_Безымянный_градиент_23);
      }

      .cls-7 {
        fill: url(#_Безымянный_градиент_26-13);
      }

      .cls-8 {
        fill: url(#_Безымянный_градиент_26-2);
      }

      .cls-9 {
        fill: url(#_Безымянный_градиент_26-4);
      }

      .cls-10 {
        fill: url(#_Безымянный_градиент_25-2);
      }

      .cls-11 {
        fill: url(#_Безымянный_градиент_26-9);
      }

      .cls-12 {
        fill: url(#_Безымянный_градиент_26-10);
      }

      .cls-13 {
        fill: url(#_Безымянный_градиент_26-3);
      }

      .cls-14 {
        fill: #763620;
      }

      .cls-15 {
        fill: url(#_Безымянный_градиент_6);
      }

      .cls-16 {
        fill: url(#_Безымянный_градиент_23-4);
      }

      .cls-17 {
        fill: url(#_Безымянный_градиент_25-3);
      }

      .cls-18 {
        fill: url(#_Безымянный_градиент_26-11);
      }

      .cls-19 {
        fill: url(#_Безымянный_градиент_26-15);
      }

      .cls-20 {
        fill: url(#_Безымянный_градиент_26-16);
      }

      .cls-21 {
        fill: url(#_Безымянный_градиент_23-3);
      }

      .cls-22 {
        fill: url(#_Безымянный_градиент_23-5);
      }

      .cls-23 {
        fill: url(#_Безымянный_градиент_26-5);
      }

      .cls-24 {
        fill: url(#_Безымянный_градиент_26-8);
      }

      .cls-25 {
        fill: url(#_Безымянный_градиент_26);
      }

      .cls-26 {
        fill: url(#_Безымянный_градиент_23-2);
      }

      .cls-27 {
        fill: url(#_Безымянный_градиент_26-7);
      }

      .cls-28 {
        fill: url(#_Безымянный_градиент_26-12);
      }
    </style>
    <linearGradient id="_Безымянный_градиент_25" data-name="Безымянный градиент 25" x1="70.25" y1="178.88" x2="70.25" y2="36.92" gradientTransform="translate(0 960) scale(1 -1)" gradientUnits="userSpaceOnUse">
      <stop offset="0" stop-color="#d8aecb"/>
      <stop offset="1" stop-color="#88638a"/>
    </linearGradient>
    <linearGradient id="_Безымянный_градиент_26" data-name="Безымянный градиент 26" x1="70.25" y1="196.22" x2="70.25" y2="36.92" gradientTransform="translate(0 960) scale(1 -1)" gradientUnits="userSpaceOnUse">
      <stop offset="0" stop-color="#b0d5dd"/>
      <stop offset="1" stop-color="#315958"/>
    </linearGradient>
    <linearGradient id="_Безымянный_градиент_26-2" data-name="Безымянный градиент 26" x1="359.02" y1="711.27" x2="359.02" y2="545.73" xlink:href="#_Безымянный_градиент_26"/>
    <linearGradient id="_Безымянный_градиент_25-2" data-name="Безымянный градиент 25" x1="144.4" y1="579.51" x2="144.4" y2="514.71" xlink:href="#_Безымянный_градиент_25"/>
    <linearGradient id="_Безымянный_градиент_26-3" data-name="Безымянный градиент 26" x1="144.4" y1="579.51" x2="144.4" y2="514.71" xlink:href="#_Безымянный_градиент_26"/>
    <linearGradient id="_Безымянный_градиент_23" data-name="Безымянный градиент 23" x1="146.22" y1="451.33" x2="146.22" y2="177.73" gradientTransform="translate(0 960) scale(1 -1)" gradientUnits="userSpaceOnUse">
      <stop offset="0" stop-color="#315958"/>
      <stop offset="1" stop-color="#b0d5dd"/>
    </linearGradient>
    <linearGradient id="_Безымянный_градиент_23-2" data-name="Безымянный градиент 23" x1="49.06" y1="427.73" x2="49.06" y2="198.82" xlink:href="#_Безымянный_градиент_23"/>
    <linearGradient id="_Безымянный_градиент_26-4" data-name="Безымянный градиент 26" x1="146.36" y1="640.07" x2="146.36" y2="430.6" xlink:href="#_Безымянный_градиент_26"/>
    <linearGradient id="_Безымянный_градиент_23-3" data-name="Безымянный градиент 23" x1="104.31" y1="416.49" x2="104.31" y2="180.16" xlink:href="#_Безымянный_градиент_23"/>
    <linearGradient id="_Безымянный_градиент_26-5" data-name="Безымянный градиент 26" x1="377.81" y1="777.87" x2="377.81" y2="444.1" xlink:href="#_Безымянный_градиент_26"/>
    <linearGradient id="_Безымянный_градиент_26-6" data-name="Безымянный градиент 26" x1="296.05" y1="762.72" x2="296.05" y2="655" xlink:href="#_Безымянный_градиент_26"/>
    <linearGradient id="_Безымянный_градиент_6" data-name="Безымянный градиент 6" x1="315.7" y1="732.21" x2="315.7" y2="648.63" gradientTransform="translate(0 960) scale(1 -1)" gradientUnits="userSpaceOnUse">
      <stop offset="0" stop-color="#172f30"/>
      <stop offset="1" stop-color="#4f8685"/>
    </linearGradient>
    <linearGradient id="_Безымянный_градиент_26-7" data-name="Безымянный градиент 26" x1="527.22" y1="226.36" x2="527.22" y2="68.37" xlink:href="#_Безымянный_градиент_26"/>
    <linearGradient id="_Безымянный_градиент_26-8" data-name="Безымянный градиент 26" x1="137.11" y1="659.7" x2="137.11" y2="290.19" xlink:href="#_Безымянный_градиент_26"/>
    <linearGradient id="_Безымянный_градиент_26-9" data-name="Безымянный градиент 26" x1="433.09" y1="754.28" x2="433.09" y2="490.41" xlink:href="#_Безымянный_градиент_26"/>
    <linearGradient id="_Безымянный_градиент_26-10" data-name="Безымянный градиент 26" x1="137.28" y1="670.7" x2="137.28" y2="546.47" xlink:href="#_Безымянный_градиент_26"/>
    <linearGradient id="_Безымянный_градиент_26-11" data-name="Безымянный градиент 26" x1="219.87" y1="779.64" x2="219.87" y2="654.58" xlink:href="#_Безымянный_градиент_26"/>
    <linearGradient id="_Безымянный_градиент_26-12" data-name="Безымянный градиент 26" x1="219.87" y1="779.64" x2="219.87" y2="654.58" xlink:href="#_Безымянный_градиент_26"/>
    <linearGradient id="_Безымянный_градиент_26-13" data-name="Безымянный градиент 26" x1="237.84" y1="758.32" x2="237.84" y2="655" xlink:href="#_Безымянный_градиент_26"/>
    <linearGradient id="_Безымянный_градиент_23-4" data-name="Безымянный градиент 23" x1="409.94" y1="440.26" x2="409.94" y2="17.02" xlink:href="#_Безымянный_градиент_23"/>
    <linearGradient id="_Безымянный_градиент_23-5" data-name="Безымянный градиент 23" x1="462.37" y1="491.54" x2="462.37" y2="26.34" xlink:href="#_Безымянный_градиент_23"/>
    <linearGradient id="_Безымянный_градиент_26-14" data-name="Безымянный градиент 26" x1="107.03" y1="676.45" x2="107.03" y2="434.2" xlink:href="#_Безымянный_градиент_26"/>
    <linearGradient id="_Безымянный_градиент_23-6" data-name="Безымянный градиент 23" x1="515.27" y1="527.32" x2="515.27" y2="251.64" xlink:href="#_Безымянный_градиент_23"/>
    <linearGradient id="_Безымянный_градиент_26-15" data-name="Безымянный градиент 26" x1="370.31" y1="249.59" x2="370.31" y2="2.84" xlink:href="#_Безымянный_градиент_26"/>
    <linearGradient id="_Безымянный_градиент_25-3" data-name="Безымянный градиент 25" x1="49.77" y1="204.05" x2="49.77" y2="33.66" xlink:href="#_Безымянный_градиент_25"/>
    <linearGradient id="_Безымянный_градиент_26-16" data-name="Безымянный градиент 26" x1="49.77" y1="204.05" x2="49.77" y2="33.66" xlink:href="#_Безымянный_градиент_26"/>
  </defs>
  <g id="Group_147" data-name="Group 147">
    <g id="Vector">
      <path class="cls-4" d="M113.24,781.77l-28.85,132.23-.05,1.16-8.28,5.65-6.08,2.27-7.47-1.25-3.96-3.06-.57-.44v-.15l-.03-.78-.03-.57-.74-20.79-29.93-65.34,56.78-46.76,8.22-17.67c-1.15,3.54,5.95-5.37,2-1.5-.09.24,3.56,3.27,3.5,3.5-.26.81,9.09,5.2,9,6-.76,6.07-.32,2.74,6.5,7.5Z"/>
      <path class="cls-25" d="M113.24,781.77l-28.85,132.23-.05,1.16-8.28,5.65-6.08,2.27-7.47-1.25-3.96-3.06-.57-.44v-.15l-.03-.78-.03-.57-.74-20.79-29.93-65.34,56.78-46.76,8.22-17.67c-1.15,3.54,5.95-5.37,2-1.5-.09.24,3.56,3.27,3.5,3.5-.26.81,9.09,5.2,9,6-.76,6.07-.32,2.74,6.5,7.5Z"/>
    </g>
    <path id="Vector_2" data-name="Vector 2" class="cls-8" d="M380.6,414.27l-1.35-.17-4.99-.59s-.15-.04-.26-.07l-10.46-2.89-7.33-4.2-5.28-3.03-.86-.5-.21-.3-1.21-1.73-.57-.84-.92-1.31-.77-1.11-1.09-1.54-.38-.54-.48-.71-4.04-5.79-2.96-13.56,1.13-9.93,3.52-7.37,8.42-16.56,9.36-19.27,4.47-14.15-.14-3.25-.74-17.55-.15-3.57-1.71-4.02-2.58-6.07v-.03l-1.98-3.99-3.54-7.19-5.88-8.69-1.22-1.81-1.07-1.46-.85-1.16-.24-.33-.18-.26,4.16,2.41,3.37,1.94.24.14.45.27,10.07,5.82,4.87,16.29.88,2.89,2.39,8,2.15,7.19-.35,14.15-.35,13.66-.48,19.68-2.86,36.56,3.48,10.59,3.78,11.52,4.04,12.26.71,2.17Z"/>
    <g id="Vector_3" data-name="Vector 3">
      <path class="cls-10" d="M167.35,380.49l-.09,2.18c-10.73,15.97-22.22,30.96-32.17,39.24l.1,13.95c.38,3.13.77,6.27,1.15,9.42-1.68-2.53-5.88-8.15-11.26-10.52-.24-.12-.5-.23-.74-.32-.3-.1-.6-.21-.91-.3-.65-.2-1.32-.35-2-.41l7.24-8.41,6.38-7.4,4.07-4.71.03-.03,23.76-27.57,4.43-5.14Z"/>
      <path class="cls-13" d="M167.35,380.49l-.09,2.18c-10.73,15.97-22.22,30.96-32.17,39.24l.1,13.95c.38,3.13.77,6.27,1.15,9.42-1.68-2.53-5.88-8.15-11.26-10.52-.24-.12-.5-.23-.74-.32-.3-.1-.6-.21-.91-.3-.65-.2-1.32-.35-2-.41l7.24-8.41,6.38-7.4,4.07-4.71.03-.03,23.76-27.57,4.43-5.14Z"/>
    </g>
    <path id="Vector_4" data-name="Vector 4" class="cls-6" d="M225.9,635.05v85.1c-48.15,24.12-91.16,49.24-114.65,62.12l-18.43-15.6-8.99-11.3s-.03-.03-.05-.06l-17.23-21.68,62.89-82-34.12-91.73-.33-.92-.15-.39-2.45-6.6-4.31-11.57,5.06-16.99.57-1.94.35-1.18.29-.95,15-10.7c1.77,3.18,5.03,8.75,9.18,14.75.04.06.09.14.12.2.2.27.38.54.57.81,10.05,14.33,24.91,30.42,36.66,21.98.12.38.23.74.35,1.1.45,1.51,1.06,2.86,1.51,4.37.73,2.03,1.47,4.11,2.3,6.28l-.08,1.69c.71,1.22,1.42,2.38,2.15,3.51,1.51,3.62,3.36,7.52,5.76,11.87,7.41,13.56,15.12,22.3,17.69,25.01,3.17,3.77,6.95,6.93,7.56,7.68.47.44.94.86,1.39,1.25,1.15,1.02,2.21,1.94,3.19,2.79h.02c3.02,2.59,5.31,4.37,6.44,5.3,10.63,8.32,16.84,13.68,21.77,17.79Z"/>
    <path id="Vector_5" data-name="Vector 5" class="cls-26" d="M53.43,578.65c46.79,59.06,49.2,83.66,41.72,94.99-4.31,6.52-12.14,12.53-26.77,24.95-14.59,12.37-23.25,20.29-28.95,28.96,8.62,6.78,17.7,16.47,23.11,29.87.51,1.27.97,2.53,1.39,3.77-.89-4.16-2.78-5.5-3.67-5.99-1.15-.63-1.8-.51-6.53-1.28,0,0-3.84-.63-12.05-2.55-5.5-1.28-14.6-5.62-19.98-12.9-8.07-10.85-7.04-26.82-11.91-33.19-1.03-1.4-4.1-5.11-4.87-10.73,0,0-.63-4.59.77-9.45,6.67-22.91,42.1-25.78,43.17-38.81.38-4.57-3.43-11.15-21.62-20.16-18.32-8.42-32.98-34.35-25.52-51.72,3.02-7.02,8.81-10.76,15.25-14.81,12.56-7.91,19.98-5.36,34.07-13.79,9.36-5.62,13.97-8.42,15.12-13.41,0-.05.03-.09.03-.14-4.25,15.47-8.5,30.93-12.74,46.4l-.03-.03Z"/>
    <path id="Vector_6" data-name="Vector 6" class="cls-9" d="M202.21,319.93l-.21.48-.67,1.52-4.47,10.11-7.69,13.71-9.22,14.45-12.59,20.29-16.99,24.18-15.28,14.78-3.31,3.21-7.42,11.8c-.3-.11-.6-.21-.91-.3-.65-.2-1.32-.35-2-.41-4.13-.5-8.71,1.31-13.27,7.68-.11.15-.23.3-.33.47,0,0-.41.53-1.03,1.54-.29.47-.6,1.02-.97,1.69-2.45,4.49-6.26,13.59-6.18,26.64,0,.74.02,1.49.06,2.26,0,.29.02.54.03.83.45,8.8,2.68,19.22,8.1,31.08,0,0,.53,1.02,1.5,2.74,1.77,3.18,5.03,8.75,9.18,14.75.04.06.09.14.12.2l-2.16,2.17-8.06,3.61h-7.97l-4.58-.95-.32-.06-.24-.06-.45-.09-1.44-.3-.29-4.51-2.65-41.54,12.3-36.77,14.69-58.06,24.9-30.09,13.01-15.74,41.18-18.74,5.64-2.56h-.01Z"/>
    <path id="Vector_7" data-name="Vector 7" class="cls-21" d="M169.8,640.8l-2.37,7.44-8.9,12.37-9.33,7.98-19.54,13.57-25.03,16.96-12.2,12.58-10.97,20.25v17.29l7.51,11.51,3.85,5.91c.76.87,1.13,1.7,1.33,2.38.62,2.11.06,4.5-1.41,6.78-.91,1.42-2.18,2.79-3.73,4.01-.12-.18-.24-.38-.36-.56v-.03c-.24-.38-.48-.77-.73-1.14-2.27-3.55-4.54-7.1-6.83-10.67-.35-.56-.7-1.11-1.06-1.67l-14.95-8.17s-.11-.06-.14-.09l-2.63-1.54h-.05l-.02-.03-.41-.24-.91-.54c-.11-.06-.2-.11-.29-.15l-4.17-2.47h-.03l-6.71-3.95-7.03-6.4-3.9-8.75c.21-1.97.44-3.95.65-5.91l1.56-2.47,1.71-2.31,4.1-5.51.6-.83.12-.12,8.83-8.84,23.88-19.6,1.22-2.02,1.32-2.18,13.8-22.92.83-1.37-20.79-40.45-9.45-22.21-3.79-8.9,28.99-35.81,6.67-8.24.17-.2.03-.05,3.67,7.83,2.48,5.29.68,1.4c.23.44.44.87.67,1.31l5.02,10.21,7.47,11.93,11.64,15.53,17.23,20.25,17.61,17.63,3.55,5.11.55.8h-.02Z"/>
    <path id="Vector_8" data-name="Vector 8" class="cls-23" d="M260.24,209.5l7.54-10.36,8.35-7.97,9.58-6.42,9.22-2.62,10.84.51,10.88,3.65,15.68,14.01,12.23,13.65,12,14.16,14.65,21.66,8.03,15.7,9.31,17.13,5.65,8.3,7.13,9.42,6.02,10.74,3.22,11.6,1.16,10.14v10.65l-1.1,9.11-1.98,9.12-1.71,8.56.11,6.04.86,6.1,2.66,8.93,6.74,11.96,14.57,14.09,23.05,13.05,29.98,9.07,10.51,2.77-.29,4.16-1.98,11.52-3.07,9.34-4.4,9.85-4.46,7.98-6.55,9.42-3.51,3.98-5.05,6.25-2.93,2.86-4.44,4.71-3.93,3.57.05-2.23,1.26-4.19,1.98-4.88,2.1-6.84-.88-4.93-2.48-4.14-9.27-5.05-10.05-3.83-11.47-5.57-9.01-5.69-9.45-7.71-7.97-10.12-5.88-11.87-1.35-10.47-.41-5.62-11.46-8.42-9.3-11.45-7.03-17.51-1.92-13.78v-15.55l3.23-14.66,5.85-24.74-.77-22-8.06-22.9-9.1-14.94-93.27-47.24.06-.06Z"/>
    <path id="Vector_9" data-name="Vector 9" class="cls-1" d="M353.51,256.73l-6.27-4.81-1.27-.96-.63-.48-.86-.68-2.75-2.09-.23-.12-22.6-11.71h-24.75l-19.49,12.55-.24,1.39-4.43,24.89,12.2,26.26.88,1.88.44.95h-.02l-1.31.35-.11.03-.97.24-2.28.59-9.28-4.62-8.71-5.32-10.02-10-8.28-12.91-3.45-13.32-.14-.54-.35-11.83,6.58-18.67,10.69-13.29,4.35-3.5,1.18-.93,4.93-3.96,13.18-6.99,12.23-1.84,13.98,1.25,13.18,6.57,8.48,6.55,8.78,11.16,9.16,16.81,6.52,13.59,1.59,3.33.09.18Z"/>
    <path id="Vector_10" data-name="Vector 10" class="cls-15" d="M365.08,302.2l-.86,2.67-2.12,6.51c-39.67-23.22-77.12-8.17-77.12-8.17l-1.9-.36-1.15-.21-7.76-9.19-5.79-12.19-2.06-9.91.95-11.68,3.01-9.22.8-2.46,8.07-12.53,13.97-7.16,3.95-.17,8.57-.35,12.52,3.72,12.23,6.57,3.81,3,2.49,1.96,6.52,5.14.21.17.03.05,1.03,1.42,2.63,3.68,2.16,3.03c.26.33.5.68.73,1.02l5.8,9.94,1.26,2.15,1.51,2.59.45,1.4v.03l1.8,5.51h.01l2.65,8.15,1.6,14.88Z"/>
    <path id="Vector_11" data-name="Vector 11" class="cls-27" d="M531.99,733.64s32.06,33.69,25.7,46.81c0,0,47.44,36.34-17.13,63.03,0,0-23.16,47.06-35.19,48.15l-25.43-10.94,9.95-38.52v-60.41l42.1-48.12Z"/>
    <path id="Vector_12" data-name="Vector 12" class="cls-24" d="M226.05,306.25l-.33.21-9.54,6.03-13.45,7.52-.72.41-.08.03-1.22.69-10.32,5.74-10.26,6.24-12.68,8.6-10.93,8.42-7.68,7.22-8.68,9.64-1.09,1.42-8.03,10.46-8.9,14.93-6.7,13.9-4.75,12.69-.06.17-.03.12v.03l-1.75,9.49-2.03,13.24c-.29.47-.61,1.02-.97,1.69-2.45,4.49-6.26,13.59-6.18,26.64,0,.74.02,1.49.06,2.26l-2.28,5.26-2.31,11.77-1.69,11.65.33,14.84.3,2.77.45,4.11.76,3.66v.11l.05.15.47,2.24,3.43,12.99.65,2.49-.61,2.06s-.05.17-.08.24l-1.56,5.27-2.45,5.06-.2.29-3.49,5.09c-.08.11-.15.23-.24.33l-1.39,1.9c-.48.63-.97,1.25-1.44,1.85l-1.59,2.06-3.57,4.25c-.09.1-.17.21-.24.32l-3.7,7.04-1.89,6.9-.41,4.67v7.22l.54,3.13,1.21,6.95,2.06,6.25,1.06,3.22,3.64,7.59,4.88,8.03c1.01,1.72,2.01,3.43,3.02,5.15h.02c.33.59.67,1.15,1,1.72.74,1.78,1.45,3.81,2.03,6.07.24.98.45,1.94.62,2.85.02.2.05.39.06.59l.54,5.39-.05,1.6v.56l-1.07,1.04v.03l-.44.42-6.94,4.07-8.07,4.16-1.57.39,2.25-5.09,2.63-9.25-.21-12.37-2.42-6.28-4.76-9.08-3.92-5.2-9.28-10.62-7.57-11.22-4.61-10.12-2.96-10.5-.56-9.79,1.87-11.66,5.05-11.37.71-1.43.86-1.73,1.41-1.18h0s6.82-5.79,6.82-5.79l1.1-.93,1.42-8.65-.94-3.18-.36-1.24-2.87-11.16c-.08-.11-.18-.24-.32-.42l-4.53-5.98s-.02-.02-.03-.03l-5.46-7.2-2.72-29.12,37.91-30.19-3.05-31.08,1.16-2.02.5-.86.36-.59v-.03l.2-.36.41-.71.47-.81,22.65-39.27,44.64-43.34,8.33-4.4,7-3.71h.02l11.79-6.24.12-.06.11-.06,1.16-.62h.01l.09-.05h.03l8.19-4.35.27-.15.35.06,2.19.39,2.09.38h.03l22.72,4.02h.04l6.11,1.1h-.02Z"/>
    <path id="Vector_13" data-name="Vector 13" class="cls-5" d="M374.27,413.51c-1.75-.09-11.16-.65-20.24-6.36-1.38-.87-2.75-1.85-4.08-3-.33-.26-.66-.54-.98-.84-.53-.45-1.04-.95-1.54-1.46-.24-.24-.47-.48-.71-.74-.36-.39-.73-.8-1.07-1.22-.3-.35-.59-.69-.86-1.05-.21-.26-.41-.51-.6-.77-.09-.11-.24-.32-.44-.6-.15-.21-.33-.48-.54-.78-.15-.24-.32-.5-.48-.78-.07-.12-.15-.24-.21-.36-.06-.07-.12-.17-.17-.26-2.48-4.2-6.35-12.64-5.59-23.14.51-7.28,3.07-10.85,8.84-22.46,10.11-20.05,14.98-30.27,16.52-38.31,2.81-14.67-.38-26.8-1.54-31.14-.12-.42-.26-.95-.44-1.55-.74-2.55-2.07-6.55-4.32-11.21-1.5-3.1-3.39-6.51-5.8-9.94-.23-.35-.47-.69-.73-1.02-.76-1.05-1.56-2.09-2.42-3.15-1.6-1.94-3.37-3.89-5.35-5.77-2.96-2.83-6.36-5.53-10.26-7.95-6.42-4.04-18.88-11.72-32.41-10.61-3.2.26-6.48,1.01-9.75,2.43-8.36,3.62-14.44,10.65-18.04,18.88-3.04,6.9-4.32,14.63-3.73,21.86,1.21,14.6,10.02,24.44,14.89,28.78,1.27,1.13,2.25,1.88,2.78,2.24-.45.21-.94.39-1.47.59h-.02c-.38.14-.79.27-1.21.44-.03-.03-.06-.06-.11-.09-3.58-3.32-15.28-14.63-16.55-32.21-.48-7.1.79-14.54,3.52-21.29,2.33-5.79,5.74-11.07,10.01-15.19,3.66-3.56,7.95-6.27,12.74-7.71,1-.3,1.98-.54,2.95-.74,7.51-1.39,14.21.72,20.1,2.53,10.36,3.24,18.65,8.9,25.2,15.19,1.47,1.4,2.83,2.82,4.1,4.26.18.2.36.39.53.59.41.47.82.92,1.2,1.39.92,1.08,1.78,2.18,2.61,3.27,6.59,8.68,10.26,16.86,11.71,20.13.94,2.09,1.86,4.17,2.69,6.37,1.57,4.1,2.84,8.56,3.34,14.06,1.27,15.32-4.49,28.34-8.21,36.38-2.69,6-6.02,11.75-7.82,14.95-6.53,11.36-9.73,14.42-11.14,21.32-1.54,7.28.12,13.27.77,15.83,1.13,4.23,3.08,7.95,5.49,11.19.11.15.23.3.35.45.09.12.18.24.29.38.39.51.82,1.02,1.26,1.51.29.35.59.68.89,1.01.36.39.72.77,1.09,1.13.23.23.47.47.71.69.51.5,1.03.96,1.56,1.43.33.29.68.59,1.03.87,1.69,1.4,3.45,2.68,5.19,3.81,7.39,4.81,14.51,7.16,16.23,7.7.11.03.2.06.26.08Z"/>
    <path id="Vector_14" data-name="Vector 14" class="cls-11" d="M337.43,205.72l8.31,6.24,9.89,8.03,9.45,6.34,12.95,8.47,12.15,6.06,14.71,6.27,13.18,4.46,19.85,3.72,13.61.87,10.91,2.98,6.88,5.62,3.73,8.47-.29,15.03-3.01,17.79-4.16,17.7-1.48,12.37v11.69l.83,12.05,2.69,11.54,6.26,8.98,7.24,4.65,10.32,4.43,9.78,5.41,10.37,7.88,9.28,10.46,4.94,8.84,2.57,10.76.33,5.57-2.13,10.62-3.63,9.13-4.44,8.04-2.96,3.39.03-1.82-.32-7.05-.74-4.55-4.64-9.51-24.96-7.22-22.3-5.26-25.91-12.84-16.49-14.88-9.49-13.75-2.36-8.32-1.16-5.33-.24-8.84.71-3.72,2.12-9.7,1.74-11.46.02-11.16-.79-10.73-2.83-10.29-6.59-12.85-7.13-9.42-9.09-14.28-8.77-16.59-12.68-21.5-18.71-23.59-7.56-9.2Z"/>
    <path id="Vector_15" data-name="Vector 15" class="cls-5" d="M407.96,429.35c-3.29-.84-9.15-2.58-15.63-6-.08-.03-.17-.07-.24-.12-.53-.27-1.06-.57-1.59-.87t-.03-.03c-3.72-2.11-7.57-4.8-11.22-8.23-2.83-2.62-5.53-5.69-7.94-9.26-.76-1.1-1.45-2.21-2.1-3.33-1.77-3.06-3.13-6.12-4.17-9.17-.15-.38-.27-.77-.39-1.16-.18-.54-.35-1.07-.5-1.61-2.71-9.34-2.74-18.32-2.83-25.7-.26-26.82,9.87-30.52,8.96-55.8-.17-4.85-.56-14.09-4.05-24.92-1.74-5.41-4.23-11.21-7.86-17.08-2.57-4.19-5.37-7.85-8.21-11.03-.98-1.1-1.96-2.12-2.93-3.1-.83-.83-1.65-1.61-2.46-2.35-.11-.09-.2-.18-.29-.26-.36-.33-.71-.65-1.04-.93-.09-.09-.17-.15-.24-.21-2.28-2-4.47-3.69-6.52-5.14-1.92-1.36-3.69-2.49-5.21-3.4.85.44,1.75.92,2.72,1.45,1.83,1.01,3.84,2.2,5.96,3.65,2.58,1.75,5.31,3.86,8.07,6.42.44.41.88.81,1.32,1.25,1.38,1.36,2.68,2.74,3.87,4.14h.02s.03.05.04.06c3.7,4.29,6.62,8.78,8.95,13.23.68,1.29,1.32,2.61,1.89,3.89,1.75,3.86,3.08,7.62,4.08,11.1h.01c1.04,3.61,1.77,6.93,2.27,9.76.42,2.35.7,4.35.91,5.95.35,2.55.57,4.97.71,7.29.29,4.99.12,9.51-.35,13.67-2.57,23.49-14.45,35.94-7.03,62.81.45,1.64.94,3.21,1.45,4.71.12.33.23.66.35.99.12.33.24.66.36.98,1.42,3.77,3.01,7.05,4.58,9.82,3.36,5.95,6.68,9.67,8.24,11.3h.01c10.13,10.74,21.78,15.34,28.06,17.25Z"/>
    <path id="Vector_16" data-name="Vector 16" class="cls-12" d="M87.64,413.53v-38.21l15.21-31.74,24.16-24.51,44.81-27.58,18.88-2.18c.77,3.66,1.54,7.31,2.31,10.97l-2.09,1.54-7.36,3.21-11.41,6.48-12.61,8.26-11.34,8.62-9.92,9.15-10.4,10.83-11.04,13.62-7.53,11.16-8.45,12.81-7.68,14.22-5.12,10.3-6.52-50.26,6.09,53.32h0Z"/>
    <path id="Vector_17" data-name="Vector 17" class="cls-5" d="M362.36,269.76s27.42,28.47,19.73,58.86c0,0-24.85,71.76,25.88,100.74-4.87-2.17-12.68-6.64-19.21-14.95-3.72-4.73-5.5-8.81-7.04-12.26-7.3-16.35-6.92-31.67-6.67-38.81.26-8.56,1.66-16.09,2.55-20.31,1.66-8.81,2.31-8.56,3.33-14.18.89-5.48,2.81-17.87-2.06-31.41-2.69-7.41-6.67-13.15-9.36-16.98-2.55-3.71-5.12-6.64-6.92-8.81-.26-.63-.26-1.28-.26-1.91h.03Z"/>
    <path id="Vector_18" data-name="Vector 18" class="cls-5" d="M491.36,535.57c-2.95,4.25-6.7,7.43-10.7,9.28-.36.18-.74.35-1.12.48-.03.03-.06.05-.09.05-.32.14-.65.26-.97.35-3.18,1.1-6.44,1.37-9.54.71-11.4-2.56-14.86-16.98-15.37-18.91-4.1-16.98,9.74-24.38,4.87-34.98-.09-.21-.2-.41-.3-.6-1.9-3.66-5.21-5.32-10.28-7.31-4.48-1.75-10.3-3.77-17.73-7.65-.08-.03-.17-.08-.26-.14-.15-.08-.32-.15-.47-.24-2.04-1.08-4.2-2.3-6.48-3.71-1.33-.83-2.71-1.7-4.13-2.65-.11-.06-.21-.14-.33-.23-.14-.07-.29-.18-.44-.29-.24-.17-.5-.33-.76-.51-.03-.01-.05-.03-.08-.04-4.22-2.94-6.91-4.97-9.34-7.4-3.22-3.19-10.1-9.97-13.6-20.31-.21-.57-.39-1.16-.56-1.76-.02-.01-.02-.03-.02-.04-.09-.29-.17-.57-.26-.86-.02-.12-.05-.24-.09-.38-.18-.71-.35-1.43-.48-2.18v-.07c-.09-.39-.17-.8-.23-1.21-.26-1.51-.47-3.27-.51-5.26-.05-1.52,0-3.18.14-4.94.02-.33.05-.68.09-1.02-.01.51-.04,1.48.03,2.82,0,.17.02.35.03.51.01.27.04.57.06.87.03.26.05.53.09.8v.05c.03.39.09.8.14,1.22.05.23.08.45.11.68,0,.03,0,.06.01.08.32,2.12.85,4.6,1.72,7.32,0,.01,0,.03.01.04.12.39.24.78.39,1.19.01.05.03.11.06.17.17.51.36,1.04.57,1.58,3.31,8.57,9.93,18.95,23.11,28.07.02,0,.03.01.05.03,1.38.93,2.81,1.87,4.32,2.79,2.22,1.34,4.6,2.64,7.15,3.89.12.06.24.12.36.18.14.06.27.14.42.2,3.96,1.91,8.31,3.71,13.14,5.33l.77.27c.79.29,1.6.59,2.42.92,3.1,1.25,6.29,2.92,8.78,5.15.27.24.54.5.8.75.61.6,1.15,1.25,1.65,1.93.82,1.14,1.45,2.4,1.84,3.77,2.04,6.98-3.88,10.94-5.21,21.27-.01,0-.01.01-.01.03,0,0-.02.11-.02.15-1.29,10.59,2.55,26.43,12.94,29.62,3.33,1.04,7.04.69,10.75-.75.36-.12.73-.27,1.09-.44h.02c.35-.15.69-.32,1.03-.48,3.72-1.82,7.33-4.66,10.43-8.17h-.01Z"/>
    <g id="Vector_19" data-name="Vector 19">
      <path class="cls-18" d="M282.95,185.47l-11.94-2.7-12.88-1.42-15.69-.99-14.48.99-16.9,3.47-17.35,6.78-14.78,9.43-12.32,14.46-6.79,13.53-3.01,12.93v10.65l2.42,14.73,7.24,13.06,8.86,9.34,10.69,6.85,14.13,5.76,13.7,2.65,15.66.42,11.5-1.57,2.55-5.88-11.93-67.63,32.59-27.24,18.73-17.64Z"/>
      <path class="cls-28" d="M282.95,185.47l-11.94-2.7-12.88-1.42-15.69-.99-14.48.99-16.9,3.47-17.35,6.78-14.78,9.43-12.32,14.46-6.79,13.53-3.01,12.93v10.65l2.42,14.73,7.24,13.06,8.86,9.34,10.69,6.85,14.13,5.76,13.7,2.65,15.66.42,11.5-1.57,2.55-5.88-11.93-67.63,32.59-27.24,18.73-17.64Z"/>
    </g>
    <path id="Vector_20" data-name="Vector 20" class="cls-7" d="M278.82,305l-18.96-3.71h-15.75s-.03-.01-.05-.03h-.01l-.11-.06-1.45-.81-10.28-5.74-20.45-22.58-1.35-1.48-10.72-20.97-2.84-10.35.92-13.62,7.36-12.04,10.6-6.4,14.18-4.53,12.29-.99,14.44.66,7.06,1.19.15.03.18.03-.44.89-.5,1.02-.11.2-1.41,2.85-.63,1.3-.03.05-.71,1.11-.23.36-.5,1.1-8.16,18.17v45.3l24.64,26.03,2.86,3.03Z"/>
    <path id="Vector_21" data-name="Vector 21" class="cls-5" d="M353.51,256.73l-.09-.18h-.02l-1.81-3.47-13.97-26.61c-1.78-3.07-15.89-26.18-39.97-28.35-12.64-1.1-25.4,3.81-35.71,12.23-.83.68-1.66,1.39-2.46,2.11-12.8,11.62-21.15,28.76-19.38,45.96.07.75.17,1.51.29,2.26,2.77,18.08,16.69,33.57,35.57,41.28,1.98.83,4.02,1.55,6.11,2.2.08.01.14.04.21.06-.39.04-.79.11-1.18.18-.76.14-1.51.33-2.28.59-4.61-1.54-26.14-9.21-36.25-31.29-1.15-2.29-3.46-7.44-4.54-14.49-.59-3.96-.82-8.51-.21-13.47,2.39-18.95,15.33-30.85,22.45-36.25.47-.33.91-.66,1.32-.95,1.06-.77,1.92-1.34,2.51-1.75,5.5-3.69,16.9-11.36,32.53-10.33,19.86,1.28,32.29,15.7,35.1,18.89,3.2,3.71,5.12,7.16,9.1,14.06,5.21,9.3,8.95,17.69,11.46,24.07.42,1.1.82,2.14,1.18,3.1.02.05.03.09.05.14Z"/>
    <path id="Vector_22" data-name="Vector 22" class="cls-16" d="M489.05,815.76l-2.37,38.87v.05l-21.96,36.35s-.09.08-.27.24c-.08.05-.17.14-.29.23-5.52,4.7-49.66,43.52-10.02,50.92,0,0-82.02,7.49-80.77-32.06.03-1.09.12-2.2.29-3.36l.5-2.86,5.24-30.6-38.82-25.67v-19.86l32.24-32.35-4.35-11.96-5.47-15.02-2.53-6.95-22.25-35.28,5.08-12.44,1.19-2.91,1.38-3.36s.05-.12.08-.18l.29-.72s-.01-.02,0-.02c.03-.09.08-.2.12-.29l.68-3s0-.03.02-.05l2.31-10.14.39-1.72.18-.8-1.66-4.96-2.04-6.12-1.16-3.46s-.01-.05-.03-.08l-1.92-3.87-4.9-9.88-5.53-6.67-1.86-10.73.77-5.71c.17-.14.33-.27.5-.39,3.87-3.06,7.86-6.61,14.13-11.8,3.36-2.77,7.38-6.03,12.4-9.91,1.66-1.36,5.9-4.52,11.04-9.34.61-.6,4.08-3.92,7.56-7.68,2.42-2.56,10.28-11.45,17.69-25.01,4.99-9.34,7.71-16.72,9.98-23.35.6-1.51,1.06-2.86,1.51-4.37,0-.05.03-.11.04-.15.85-2.62,1.65-5.32,2.49-8.45-1.78-1.19-3.4-2.41-4.87-3.65-1.71-1.43-3.2-2.88-4.52-4.32-3.07-3.36-5.17-6.79-6.49-10.21l.47-.83.09-.15,7.42,3.68,5.08,2.5,5.38,2.67,19.08,9.41,17.75,8.78-21.09,62.17,48.39,54.3-7.05,19.95-.41,1.16-20.44,57.85.83,7.56,1.09,9.97.05.33,1.54,14.13,35.15,38.61,2.66,2.94Z"/>
    <path id="Vector_23" data-name="Vector 23" class="cls-5" d="M262.93,301.29s-56.49-22.34-45.09-50.69c0,0,11.14-29.75,36.9-36.52l2.43-2.17c-5,1.28-11.79,3.71-18.58,8.56-8.84,6.25-13.32,13.41-16.92,19.15-4.75,7.65-7.56,12.26-7.44,18.77.26,6.39,3.33,11.1,6.02,15.2,5,7.53,11.02,11.61,18.18,16.47,5,3.31,12.17,7.53,21.39,11.24h3.1Z"/>
    <path id="Vector_24" data-name="Vector 24" class="cls-22" d="M470.5,499.99c1.66,2.06,3.01,4.11,4.11,6.04l3.9,9.46,1.88,5.3,1.21,7.07.23,7.82-2.03,9.02-3.36,8.86-5.59,10.18-6.7,8.59-4.94,7.07-3.13,6.03-.77,5.91.77,6.03,4.23,6.61,8.57,6.03,7.91,3.22,7.63,2.45,7.91,1.81,7.14,3.66,10.05,7.94,4.78,6.9.94,4.87v5.36l-1.32,5.8-5.28,9.96-4.67,6.49-4.16,6.21-2.75,6.67.06,7.34,2.46,6.34,5.27,5.74,7.68,4.35,7.35,3.22,1.5,2.56,4.31,9.96,5.82,8.81,1.15,1.75-.62,2.18-2.15,8.62-3.51,8.04-5.46,8.45-3.05,3.72-5.79,6.18-5.65,6.21-2.83,4.9-1.38,4.73.67,5.86,3.16,6.48,4.17,5.23,6.86,6.7,5.18,4.1,3.29,6.16,2.06,6.91.33,3.04.03,3.69-1.1,5.57-2.52,5.17-3.73,5.17-3.1,3.19c-1.34.78-2.69,1.57-4.04,2.35-.97.74-1.92,1.48-2.89,2.21-.09.08-.18.15-.27.23-1.42,1.11-2.9,1.99-4.4,2.68-.23.2-.45.38-.68.57-1.72,1.4-3.46,2.59-5.15,3.6-.62.41-1.23.8-1.84,1.21l-6.14,6.31-2.43,3.72-.03,2.02,1.38,2.38,3.2,2.05,6.42,3.39,3.9,1.97,5.41,4.96,2.22,4.23.82,3.96-.47,5.6-1.45,4.53-2.03,5.06-3.81,5.42-5.18,4.96-6.47,4.35c-3.28,1.64-10.42,4.65-19.74,4.07-6.52-.42-11.56-2.44-14.59-3.93,2.8-.86,5.61-1.72,8.4-2.58l3.02-.93,5.41-2.95,6.29-5.8,6.67-9.58v-5.03l-1.89-2.62-3.84-2.58-7.74-2.58-7.97-1.91-5.77-3.49-2.3-4.59-.38-4.67,1.07-1.13,2.72-2.11,2.89-2.65,4.81-6.51,4.5-8.68,3.6-9.93,1.53-10.5-.8-13.93-5.35-13.27-11.05-14.73-9.96-7.44-7.36-6.48-4.82-5.8-2.61-4.82-2.46-7.68-1.48-9.46-.17-8.68,1.59-11.06,2.93-9.16,4.88-8.59,13.97-22.08,2.42-8.15,3.04-11.96v-10.98l-4.17-8.32-8.53-12.99-8.09-9.09-10.17-8.93-6.41-6.24-11.79-11.19-4.46-5.91-1.83-7.04,2.78-7.37,3.14-3.18,14.13-13.39,10.17-13.27.08-4.13-2.24-2.8-5.68-1.93-9.67-3.95-10.16-5.62-10.22-8.54-4.94-6.73-2.31-6.61-.59-7.38,1.57-9.63,5.38-10.56,7.91-10.12,10.05-9.02,2.52-2.14c11.29,6,22.58,12.01,33.88,18,4.79,2.32,11.46,6.4,17.13,13.5l-.03.03Z"/>
    <path id="Vector_25" data-name="Vector 25" class="cls-5" d="M260.24,209.5c4.61-8.56,9.99-14.18,13.58-17.37,4.1-3.57,8.33-7.41,15.25-9.45,1.54-.51,9.1-2.55,18.32-.26,10.13,2.55,16.52,9.07,20.88,13.53,21.13,22.09,31.78,33.19,42.92,52.73,7.18,12.64,8.07,17.23,17.55,32.44,2.56,3.96,4.61,7.16,6.41,9.84,4.75,6.76,7.68,10.85,8.84,12.38,10.13,14.3,9.73,39.46,5.9,56.04-1.41,5.88-2.43,7.41-2.69,12.38-.64,13.92,6.67,24.77,9.1,28.34,18.7,27.71,70.85,39.46,68.67,39.32-10.63-.51-31.26-3.19-50.1-17.12-12.3-9.07-18.32-18.77-19.47-20.8-3.07-5.11-9.22-15.7-8.71-29.5.12-4.08.77-3.45,2.18-12.26,2.06-12.64,3.84-23.62,1.15-36.38-1.54-7.65-4.23-13.79-6.27-17.75-3.46-6.76-7.04-11.1-8.84-13.15-15.12-18.64-14.86-30.39-34.98-57.84-2.69-3.71-5.24-6.9-10.51-13.41-14.86-18.52-20.5-23.74-24.99-27.45-8.59-7.02-13.32-8.81-15.75-9.45-2.69-.77-9.48-2.8-17.55-.77-1.8.38-5.76,1.66-12.43,6.51-4.49,3.19-11.65,9.33-18.44,19.4l-.02.03Z"/>
    <path id="Vector_26" data-name="Vector 26" class="cls-5" d="M379.26,239.63c10.37,12.9,18.7,24.51,24.99,33.96,3.98,5.88,18.19,27.19,21.13,45.59.89,5.36.64,9.32.38,11.36-1.03,8.68-4.61,14.55-6.02,17.11-8.33,16.09,2.95,40.22,3.58,41.37,11.53,24,40.11,33.44,47.27,35.75,10.13,3.31,16.78,3.45,26,9.96,9.36,6.64,14.86,15.2,17.93,21.32-.38-1.66-1.15-3.96-2.43-6.51-4.1-8.3-10.63-13.41-16.26-16.98-13.97-8.68-20.36-6.25-35.87-13.15-7.81-3.45-24.85-10.98-34.47-28.22-6.41-11.36-7.04-22.6-7.3-26.43-.26-3.83-.51-8.17,1.29-13.15,1.03-2.8,1.8-3.71,3.46-7.65,0,0,2.18-5.11,3.58-11.49,2.69-11.87-6.41-32.18-9.87-39.58-8.07-17.63-16.92-29.62-21.13-35.12-6.27-7.79-11.91-13.78-16.27-18.12h.01Z"/>
    <path id="Vector_27" data-name="Vector 27" class="cls-5" d="M424.23,340.24s-7.04,47.37,39.85,57.58c0,0,41.63,7.91,50.35,58.35-1.28-7.16-5-21.96-16.26-35.12-6.79-7.91-13.97-12.64-15.75-13.78-2.43-1.54-6.92-4.34-13.32-6.64-6.15-2.17-8.19-1.79-13.32-3.45-8.19-2.68-13.71-7.28-15.75-8.93-12.05-10.33-15.37-24.26-16.27-29.88-1.15-6.9-.63-12.64-.12-16.21.12-.63.38-1.28.64-1.91h-.05Z"/>
    <path id="Vector_28" data-name="Vector 28" class="cls-5" d="M328.4,195.84s50.99,53.5,113.25,58.98c0,0,42.66-4.08,31.77,37.41-5.9,18-7.44,33.44-7.82,44.05-.63,18-.89,32.69,8.71,43.03,5.76,6.13,9.1,4.47,20.5,11.1,7.18,4.08,30.37,17.49,34.47,39.2,3.84,20.68-11.4,38.43-15,42.39,2.55-3.83,18.7-28.22,9.61-50.56-6.41-15.96-23.7-26.05-27.94-28.59-12.43-7.28-17.69-5.62-24.34-13.41-7.68-8.93-8.59-20.55-9.22-29.24-.64-8.42.38-14.55,2.18-26.3,2.06-13.02,3.2-13.27,5-24.51,2.55-16.98,3.98-27.45-2.31-34.61-4.1-4.73-10.51-6.64-11.53-7.02-4.35-1.28-6.92-.77-14.09-1.28,0,0-4.35-.26-14.35-1.91-9.22-1.54-39.85-9.33-72.26-33.84-6.02-4.59-14.48-11.49-23.57-20.94-1.03-1.4-2.06-2.68-3.07-3.96v.02Z"/>
    <path id="Vector_29" data-name="Vector 29" class="cls-5" d="M474.32,288.79s-17.04,66.51,15.25,73.16c0,0,72,24.65,37.53,60.14-.38-.77-.77-1.54-1.15-2.31,7.94-8.56,8.59-15.2,8.33-18.51-1.15-19.28-34.72-33.84-38.82-35.61-9.61-4.08-15.75-4.85-21.13-11.62-1.03-1.28-5-6.64-6.53-21.32-.77-8.04-1.03-20.8,3.46-36.52,1.15-2.43,2.06-4.99,3.07-7.41h-.02Z"/>
    <path id="Vector_30" data-name="Vector 30" class="cls-5" d="M283.95,184.6l-.32.29-.68.59-1.18,1.04c-.21-.06-.42-.12-.63-.18-14.86-4.31-41.42-9.52-70.46-.45-8.47,2.68-20.5,6.51-31.91,17.23-4.47,4.2-21.51,20.17-21.51,44.68,0,4.08.51,17.75,9.48,30.76,3.4,4.93,7.42,8.92,11.76,12.14,1.48,1.1,2.99,2.11,4.54,3.01,3.11,1.88,6.33,3.42,9.58,4.67,19.03,7.38,38.73,5.2,40.6,4.94,2.24-.24,4.28-.6,6.06-.99.95-.21,1.83-.42,2.65-.62.74-.18,1.42-.36,2.03-.51h0s.11-.01.15-.04c-.01.03-.03.08-.04.11h-.01c-.3.6-.61,1.21-.91,1.79-.32.62-.63,1.24-.97,1.81-5.07.9-10.05,1.43-14.9,1.55h-.06c-.5.03-.98.04-1.48.04h-.08c-11.43.15-22.15-1.75-31.62-5.32-.5-.18-.98-.36-1.45-.57-.11-.03-.21-.08-.32-.12-.01,0-.03-.01-.03-.01-3.61-1.46-7.03-3.16-10.22-5.11-.15-.07-.29-.17-.42-.26-.24-.14-.47-.29-.71-.45-1.78-1.12-3.49-2.32-5.11-3.6-2.13-1.66-4.13-3.45-5.97-5.33-.68-.69-1.33-1.42-1.96-2.14-.09-.09-.17-.18-.24-.29-3.24-3.72-5.9-7.82-7.89-12.23-11.41-25.28,3.33-51.19,4.99-54.01,0,0,0-.02.01-.03.88-1.48,1.81-2.91,2.81-4.31,14.1-19.74,40.47-31.65,71.88-32.93.97-.06,1.95-.09,2.93-.09,11.28-.26,23.16.87,35.33,3.47.85.18,1.69.38,2.54.57,1.26.29,2.51.59,3.76.9Z"/>
    <path id="Vector_31" data-name="Vector 31" class="cls-14" d="M124.71,474.11s-.04,0-.06.01c-.08-.14-.15-.26-.21-.38l.27.36Z"/>
    <path id="Vector_32" data-name="Vector 32" class="cls-14" d="M133.28,485.32v.1s-.03-.04-.04-.07c.01-.02.01-.05.01-.08l.03.05Z"/>
    <path id="Vector_33" data-name="Vector 33" class="cls-5" d="M277.54,183.2s64.96-50.3,89.42,17.63l10.25,32.18-2.69-1.54c-3.72-14.43-7.82-25.91-11.02-34.21-3.46-8.81-5.76-13.27-9.99-17.75-7.56-7.91-16.14-10.73-17.81-11.24-13.32-3.96-25.11.51-35.62,4.59-9.22,3.57-16.14,8.04-20.62,11.36-.77-.38-1.29-.63-1.92-1.02Z"/>
    <path id="Vector_34" data-name="Vector 34" class="cls-3" d="M169.5,283.55l5.82,6.19,6.77,4.34-1.27.59-10.66,3.83-11.47,4.32-15.65,8.53-14.33,10.62-13.51,11.71-9.22,11.39-7.47,12.08-4.07,9.36-4.72,16.53-2.84,19.51,1.18,17.21,2.27,8.98,2.36,9.19-2.21,3.72-4.6,3.33-12.99,9.14-12.15,9.7-4.75,8.33-2.49,9.84v6.13l.88,6.28,1.83,7.16,7,10.42,4.5,13.83-8.3-9.31-11.81-12.97-11.75-18.71-3.9-10.67v-10.89l2.75-3.39,10.91-7.11,9.28-6.9,13.35-12.81,9.33-18.27,1-11.54-2.22-5.83-5.85-9.09-6.45-12.1-3.49-11.63.6-5.41,7.91-1.37,12.64-5.26,12.46-11.27,11.53-15.1,7.97-10.95,12.62-14.93,13.39-11.06,11.91-5.15,11.76-.54h6.14Z"/>
    <path id="Vector_35" data-name="Vector 35" class="cls-5" d="M164.68,217.03s18.7-66.02,77.76-37.41l-2.18.63c-3.58-2.17-18.18-10.09-35.49-5.62-13.45,3.45-21.39,12.64-25.49,17.49-7.56,8.81-11.02,17.87-12.68,23.37-.63.63-1.28,1.15-1.92,1.54Z"/>
    <path id="Vector_36" data-name="Vector 36" class="cls-5" d="M180.82,294.66c-6.15,1.4-14.86,3.96-24.6,8.56-9.1,4.34-46.24,22.48-62.64,63.97-11.4,28.85-6.53,53.5-5.38,56.69.89,2.3,1.15,3.57,1.92,6,1.03,3.83,1.66,5.74,1.54,7.28-.26,4.22-4.75,7.16-7.94,9.33-13.06,8.56-19.73,12.9-20.5,13.66-11.53,10.47-10.37,27.96-10.25,28.85.89,12.13,7.68,20.31,10.25,22.98-1.54-2.05-13.57-19.03-7.82-36.01,2.95-8.68,9.87-15.32,10.51-15.95,1.8-1.66,2.55-2.05,13.32-9.33,11.53-7.79,13.2-8.93,13.97-11.61,1.03-3.71-1.03-5.36-3.07-13.79,0,0-1.15-4.99-1.92-14.95-.63-8.81-.26-43.91,24.47-72.9,7.68-9.07,15.25-14.55,23.19-20.31,15-10.85,26.65-15.07,32.15-17.23,6.02-2.31,11.14-3.83,14.09-4.6,0-.38-.23-.69-.56-.78-.38-.12-.7.14-.73.15h-.01Z"/>
    <path id="Vector_37" data-name="Vector 37" class="cls-2" d="M495.71,432.68l4.97,3.98,7.42,7.55,2.3,3.89,4.14,8.08,1.41,8.83-.38,9.75-1.33,3.66-1.92,4.79-2.57,6.21-1.9,5.8-1.09,4.29-1.19,5.03.67,4.49,2.01,3.86,4.49,6.66,6.21,7.14,7.88,7.71,8.9,9.27,8.25,7.97,5.85,7.35,7.08,8.75,8.19,13.03,2.39,4.57,3.84,7.52,1.98,5.26,1.65,5.32.3,4.23-1.13,4.85-4.07,3.19-7.91,2.21-8.75,2.49-8.13,5.18-7.79,6.75-5.77,7.11-6.8,9.82-6.76,14.58-1.69,8.87-.5,9.57.27,10.68,2.31,9.67,1.3,5.72-10.17-4.17-7.88-6.25-3.57-5.7-1.32-6.57.11-4.32,3.19-7.28,3.73-5.08,5.86-8.27,3.69-7.49,2.19-9.75-1.75-8.48-5.44-7.17-12.35-8.36-11.76-3.78-11.25-3.78-12.3-7.59-4.01-6.13-1.54-6.84,2.25-9.58,8.03-11.24,8.89-12.23,6.21-16.03,1.04-11.06-1.38-11.16-3.69-9.08-5.49-11.87,6.05-8.21,11.14-18.17,3.67-10.56,3.86-21.12-.15-8.35Z"/>
    <path id="Vector_38" data-name="Vector 38" class="cls-5" d="M195.42,300.62c-1.32.48-2.63.98-3.96,1.49-1.22.47-2.43.93-3.63,1.4,0,0-4.7,1.94-9.69,4.76-4.76,2.7-20.76,12.65-31.16,21.63-28.6,24.72-59.18,80.43-58.92,80.57.23.14,18.32-52.89,70.46-90.53,12.83-9.27,24.82-15.5,33.98-19.63.42-.08,1.03-.14,1.75,0,.47.07.85.2,1.15.33v-.03Z"/>
    <path id="Vector_39" data-name="Vector 39" class="cls-5" d="M165.7,634.9c-.12.14-.77-.5-.89-.63-36.78-33.08-55.89-62.99-64.96-88.22-.29-.77-.54-1.54-.82-2.29-1.83-5.41-3.2-10.58-4.19-15.52-.03-.11-.05-.2-.06-.29-.44-2.21-.8-4.37-1.09-6.46-3.14-22.7,1.69-39.83,5.94-49.73,0,.74.02,1.49.06,2.26,0,.29.02.54.03.83-1.68,5.18-7.01,23.67-5.4,44.52.23,2.94.62,5.86,1.16,8.77.02.05.02.11.03.17,0,.01.02.05.02.08,1.53,7.95,4.16,15.68,7.36,22.97.04.09.08.2.14.29.12.27.24.54.36.8.57,1.3,1.19,2.59,1.81,3.86.05.11.11.2.15.3.05.09.08.18.12.27.18.39.38.78.57,1.18.23.44.44.87.67,1.31,8.03,15.55,17.97,28.38,23.73,35.85,15.12,19.48,35.24,38.96,35.24,39.7Z"/>
    <path id="Vector_40" data-name="Vector 40" class="cls-5" d="M227.61,306.16c-.14.09-.21.17-.33.26h-.06c-2.74,1.81-6.74,4.41-11.65,7.38-4.17,2.53-7.33,4.35-10.1,5.89-.41.23-.82.45-1.19.66-1.06.57-2.03,1.1-2.92,1.58-.11.06-.2.11-.3.17-6.8,3.66-9.58,4.91-14.32,7.53-11.9,6.63-20.3,13.71-28.74,20.84-5.59,4.71-8.37,7.07-11.85,10.73,0,0-3.13,3.3-7.47,8.86-3.37,4.34-7.48,10.05-11.38,16.66-.3.5-1.18,1.99-2.45,4.11-.82,1.36-1.19,1.97-1.62,2.71,0,0-.5.84-1.06,1.85-6.12,10.82-9.86,23.91-9.86,23.91-1.44,5.03-2.51,11.34-4.13,22.13-.11.15-.23.3-.33.47,0,0-.41.53-1.03,1.54-.29.47-.61,1.02-.97,1.69.82-7.34,2.27-15.61,4.76-24.42v-.03l.09-.27c2.56-8.99,6.18-18.53,11.31-28.23,3.73-7.07,9.45-16.44,17.7-26.21,2.84-3.36,5.96-6.75,9.4-10.12,11.91-11.68,22.92-18.4,42.78-30.51,1.6-.96,3.16-1.91,4.7-2.83,11.55-6.87,21.54-12.2,29.07-16.03.14-.07.27-.15.41-.21.51-.03,1.04-.06,1.56-.09h-.03Z"/>
    <path id="Vector_41" data-name="Vector 41" class="cls-5" d="M467.66,714.84c1.32-7.11,2.49-17.94.51-30.46-.73-4.57-1.87-9.33-3.58-14.22-.15-.45-.38-1.1-.7-1.94-.24-.66-.53-1.42-.89-2.28-.17-.41-.35-.83-.56-1.28-2.54-5.85-7.38-15.02-15.54-24.38-12.43-14.3-35.1-29.75-38.94-40.86-.38-.9-1.15-3.33-.77-6.27.77-5.35,5-8.93,6.67-10.33,8.84-7.53,26-24.51,23.31-30.01-.26-.5-.89-1.27-2.81-1.78-4.87-1.69-9.24-3.45-13.15-5.27-4.75-2.2-8.81-4.51-12.27-6.85-1.78-1.19-3.4-2.41-4.87-3.65-1.71-1.43-3.2-2.88-4.52-4.32-3.07-3.36-5.17-6.79-6.49-10.21-4.73-12.37.71-24.77,7.65-34.3,7.1-9.81,15.77-16.59,16.55-17.19.05-.03.06-.05.06-.05.2.21.44.38.71.54.14.09.27.17.42.26.12.07.26.15.39.23-.01.02-.04.03-.06.05-.15.11-.3.21-.45.33-7.53,5.38-12.37,11.07-15.37,14.95-.14.18-.27.36-.41.56-3.48,4.7-7.35,9.97-9.07,17.96-.76,3.57-1.92,9.19.14,15.7,1.3,4.11,3.54,7.34,6.15,10.09,1.44,1.52,2.98,2.89,4.57,4.2.91.74,1.83,1.48,2.74,2.18.73.57,1.44,1.11,2.15,1.63,3.64,2.64,7.01,4.4,10.02,5.9,1.03.53,1.98,1.01,2.86,1.45,1.86.93,3.4,1.72,4.72,2.32.03.02.08.03.11.05,1.13.53,2.07.92,2.89,1.19.2.06.38.12.54.18.53.15,1.01.26,1.44.3,1.16.14,3.2.26,4.87,1.79,1.68,1.52,2.06,3.83,2.06,4.2.51,3.07-1.29,5.88-5.12,10.47-3.33,3.96-6.53,7.41-10.37,11.12-3.34,3.19-5.38,5.11-9.1,8.93-4.1,4.34-5,5.62-5.52,7.4-.26.65-.89,3.45.91,7.92,1.66,4.34,4.22,6.13,10.11,11.61,8.46,7.79,15.12,15.07,18.71,17.88.38.26,2.3,1.78,4.73,3.95.26.13.39.26.65.51,11.01,10.09,16.13,21.33,18.56,26.56,3.36,7.38,5.29,14.73,6.3,21.6,1.95,13.33.44,24.9-.92,31.64Z"/>
    <path id="Vector_42" data-name="Vector 42" class="cls-5" d="M514.55,456.16c.48,2.56.95,6.04.97,10.2,0,1.49,0,4.41-.5,7.61-1.01,6.46-3.3,9.08-5.82,15.49,0,0-2.09,5.29-3.63,13.32-3.11,16.27,28.04,32.63,52.91,68.82,20.88,30.39,16.27,38.55,14.86,40.48-2.43,3.31-6.79,3.83-9.73,4.34-21.9,4.22-39.45,29.75-45.09,43.92-15.12,38.55,18.06,94.87,55.48,100.86,8.71,1.4,16.15-.12,20.76-1.54-8.19.12-27.54-.51-45.61-13.15-26.91-18.89-39.85-56.43-28.57-86.05,5.5-14.3,21.01-38.3,41.63-42,3.72-.63,8.96-.89,11.66-4.85,4.75-6.64-1.15-18.38-7.3-30.52-7.68-15.07-16.27-25.54-20.12-29.87-4.5-5.17-8.66-9.9-14-14.94-2.34-2.21-2.49-2.15-5.85-5.23-7.35-6.72-11.03-10.08-14.09-14.3-3.7-5.11-7.01-9.66-6.41-15.19.17-1.49.73-3.46,1.84-7.41.51-1.81,1.32-4.61,2.55-7.77,1.63-4.22,3.25-7.1,3.67-7.93,2.43-4.73,3.84-12.38.38-24.26h.02Z"/>
    <path id="Vector_43" data-name="Vector 43" class="cls-5" d="M495.71,432.68s8.45,39.06-40.74,83.11c6.02-5.62,19.86-19.28,29.09-36.52,5.12-9.58,7.56-17.75,7.94-19.4,2.43-8.42,2.81-14.3,2.95-15.7.26-4.85,0-9.07-.38-12.13.51.26.89.51,1.15.63Z"/>
    <path id="Vector_44" data-name="Vector 44" class="cls-5" d="M420.25,426.8c9.87,9.96,23.31,25.28,36.13,45.96,17.55,28.47,28.18,45.71,25.36,66.39-3.84,28.73-30.23,39.46-25.36,56.43,3.46,12.01,19.86,17.75,31.9,20.68,0,0,48.55,11.36,17.04,51.7,0,0-21.9,21.45,7.18,37.15-1.54-.38-9.48-2.68-13.71-10.47-3.21-5.88-2.69-11.5-2.31-13.41,1.03-6.9,4.75-7.91,10.51-17.37,3.84-6.25,10.37-16.98,7.04-26.3-1.03-2.68-2.55-4.59-4.49-7.02-3.33-3.96-7.3-7.16-12.43-9.96-9.73-5.36-12.05-2.94-22.67-7.53-7.05-3.06-16.27-7.02-18.96-15.58-1.15-3.71-.77-6.77-.38-9.19,1.66-10.59,8.84-16.6,13.57-22.48,0,0,9.87-12.01,12.43-32.56,1.15-9.58-1.8-19.66-23.19-55.03-14.09-22.6-27.8-39.97-37.67-51.45l.02.02Z"/>
    <path id="Vector_45" data-name="Vector 45" class="cls-5" d="M524.66,651.64s41.77,15.2,42.02,26.68c.26,2.55.38,6.64-1.28,11.1-5.12,14.04-21.39,14.95-25.49,28.99-1.41,4.99-.77,9.33-.51,11.24,1.54,9.07,7.3,14.95,9.73,16.98-1.66-1.28-10.51-8.42-11.4-20.05-.12-1.79-.51-7.28,2.43-12.9,2.95-5.88,6.53-6.25,13.32-12.52,5.5-5.11,13.97-12.9,12.68-20.68-.77-4.34-4.23-7.28-9.61-11.62-2.55-2.05-5.5-4.08-13.32-7.79-4.75-2.3-11.28-5.11-19.35-8.04.38-.51.51-1.02.77-1.4h0Z"/>
    <path id="Vector_46" data-name="Vector 46" class="cls-5" d="M428.07,622.27s27.54,22.22-7.82,58.09c0,0-33.7,40.86,10.13,86.45-2.95-2.68-22.81-21.57-23.82-46.99-.12-2.94-.77-18.38,6.53-30.27.77-1.28,2.31-3.71,3.98-6,5.89-8.68,8.33-10.59,11.65-15.58,3.72-5.48,6.92-10.33,7.94-17.23,1.41-9.84-2.55-18-4.1-21.06-1.92-3.83-4.1-6.64-5.76-8.56.38.38.77.77,1.29,1.14h-.01Z"/>
    <path id="Vector_47" data-name="Vector 47" class="cls-19" d="M345.21,710.41l.39,6.13,1.09,10.44,1.63,4.34,4.49,9.52,6.5,9.88,8.98,9.82,7.89,5.38,5,3.19,4.81,4.76,1.09,4.32-.24,4.22-2.28,8.01-4.6,7.68-8,9.17-10.42,11.33-2.66,3.5-4.22,7.85-1.95,5.97v6.07l1.35,4.52,1.66,3.39,3.25,3.41,1.81,1.99,6.52,4.08,5.18,2.23,7.26,2.03,8.63,2.2,3.37.6,3.04.93,2.36,1.52,3.31,3.25,1.88,2.8.47,4.38-1.01,3.42-3.37,2.56-6.38,3.86-7.57,4.23-6.77,6.28-4.05,7.29-2.16,8.39.03,7.62,2.34,7.85,3.55,4.37,6.26,6.1,4.35,2.22,5.23,2,5.77,1.36,3.93.53,3.36.08h4.38l3.93-.38-2.48,1.78-7.98,4.57-9.99,2.79-11.91.9-12.47-3.56-8.53-5.14-8.68-11.49-3.13-8.51-.17-8.48,2.12-4.79,4.55-8.95,9.18-8.26,6.09-6.51,1.69-6.57-1.81-5.7-11.04-6.51-9.27-4.76-9.39-8.1-9.95-11.43-5.49-14.61,2.15-6.51,9.1-9.57,10.72-7.94,9.39-11.71,3.18-12.2-.92-5.59-3.36-6.67-6.26-8.36-10.87-10.12-9.12-10.95-3.02-7.94.71-5.08,2.98-6.57,7.85-7.88,6.71-6.3Z"/>
    <path id="Vector_48" data-name="Vector 48" class="cls-5" d="M414.87,623.3s-65.21,83.12-18.84,123.2c-5.25-6.51-13.45-18.52-15.37-34.98-2.06-17.11,3.84-30.51,12.17-49.67,4.23-9.7,11.14-23.49,22.04-38.55Z"/>
    <path id="Vector_49" data-name="Vector 49" class="cls-5" d="M391.17,635.56c-30.87,66.26-28.83,90.39-19.09,99.08,5.89,5.36,15.63,5.88,37.67,18.64,8.84,5.11,15.89,10.09,20.5,13.41-3.33-2.8-8.45-6.9-15.12-11.24-4.1-2.68-11.91-7.91-23.19-12.9-13.06-5.88-16.4-5.11-20.24-9.96-3.98-4.99-4.23-10.73-4.49-17.37-.38-9.19,1.41-15.83,5.25-28.73,2.18-7.16,4.49-15.32,8.84-25.28,1.54-3.71,4.49-9.96,7.56-19.15,1.15-2.55,1.92-4.99,2.31-6.51Z"/>
    <path id="Vector_50" data-name="Vector 50" class="cls-5" d="M531.96,731.83c-.51,2.8-1.54,7.65-3.72,13.27-8.72,22.49-26.05,24.66-26.26,38.69-.12,7.97,5.43,16.42,9.87,20.96,3.66,3.74,5.2,3.4,8.71,7.8,1.87,2.35,7.14,9.16,6.91,18.77,0,.39-.03,1.06-.12,1.87-.23,2.12-1.5,10.41-15.57,21.45-8.21,6.43-12.15,7.05-18.38,14.3-3.04,3.54-4.54,5.35-4.35,7.41.63,7.28,17.81,7.28,22.3,18.77,1.28,3.19,1.03,6,.77,8.81-1.41,14.81-15.63,23.88-18.58,25.66,2.69-1.14,10.88-5.36,15.75-14.94,1.66-3.19,6.15-12.13,2.81-20.17-4.87-11.62-23.05-12.64-22.3-19.03.26-1.79,1.8-3.57,4.61-6.77,1.27-1.45,2.71-2.77,5.38-4.85,4.79-3.72,7.08-4.72,11.2-7.55,3.94-2.71,6.83-4.68,9.55-7.68,1.92-2.11,6.52-7.17,7.69-15.02,0,0,1.53-11.24-6.02-21.2-4.35-5.74-6.92-4.47-12.8-12.01-3.21-4.08-7.68-9.96-6.67-16.6.51-3.19,2.31-6.39,2.69-6.9,1.54-2.68,3.07-4.34,4.35-5.62,3.2-3.31,7.56-7.91,9.61-10.21,1.1-1.24,5.94-6.73,9.22-14.95,1.28-3.22,2.83-8.07,3.33-14.3v.03Z"/>
    <g id="Vector_51" data-name="Vector 51">
      <path class="cls-17" d="M89.09,778.29l-.42.93-.03.06-.62,1.36h-.02l-.56.48c-1.15,3.54-4.34,6.97-8.28,10.85-.09.24-.17.48-.23.71l-3.58,3.03-6.91,8.69c-.51.54-1.03,1.08-1.54,1.64l-7.21,7.67h-.02l-4.97,7.71c-.06.08-.11.15-.15.23l-3.9,6.34s-.02.02-.02.03l-2.83,4.59s-.02.02-.02.03l-.03.05v.06s-.03.05-.05.06l-4.9,13.41v.04l-.8,9.58,2.09,6.75s0,.06.02.09l1.07,3.47v.04c.03.11.08.21.11.32l2.36,6.76,5.61,6.7,10.01,7.9s.03.02.05.03c.03.03.08.06.11.06h.03l4.69,1.73,1.24,2.41s.02.03.03.05l.45.9.57,2.02.41,1.43-.32.83-3.43,8.9s-.02.01-.02.03l-1.54,4.02-7.06,7.35-.51.53-.5.53-2.45,2.55s0,.01-.03.01,0,.02-.03.02l-6.67,2.52s-.03.02-.05.02c-.02.02-.05.02-.06.03l-3.87,1.46-2.75,1.04h-10.69l-7.69-3.49-6.06-5.54-5.37-9.58s-.02-.02-.02-.03c-.02-.02-.02-.03-.02-.04v-.03l-1.27-9.79.21.27.06.09,3.23,4.23,6.23,1.46,8.34-1.61,7.39-4.08,3.82-3.34,2.06-4.7.67-1.51.12-.3,2.27-5.67-.59-7.25-2.48-5.91-4.61-4.88h-.02l-8.96-3.99-.09-.05-.08-.08-6.74-7.71-5.76-10.06s-.03-.08-.03-.09l-1.24-9.33,1.53-12.84,6.23-12.62,9.43-10.48,10.01-5.72c.09-.05.17-.09.26-.15l4.61-2.64c.18-.09.38-.21.57-.33l9.77-6.36h.02l5.05-4.4.05-.05,2.74-3.21,1-9.08-1.89-5.45-.42-1.21-.97-2.83h.06l.41.18s.03,0,.05.03l8.07,3.18,10.72,7.32,5.28,5.78,2.27,5.83h.02Z"/>
      <path class="cls-20" d="M89.09,778.29l-.42.93-.03.06-.62,1.36h-.02l-.56.48c-1.15,3.54-4.34,6.97-8.28,10.85-.09.24-.17.48-.23.71l-3.58,3.03-6.91,8.69c-.51.54-1.03,1.08-1.54,1.64l-7.21,7.67h-.02l-4.97,7.71c-.06.08-.11.15-.15.23l-3.9,6.34s-.02.02-.02.03l-2.83,4.59s-.02.02-.02.03l-.03.05v.06s-.03.05-.05.06l-4.9,13.41v.04l-.8,9.58,2.09,6.75s0,.06.02.09l1.07,3.47v.04c.03.11.08.21.11.32l2.36,6.76,5.61,6.7,10.01,7.9s.03.02.05.03c.03.03.08.06.11.06h.03l4.69,1.73,1.24,2.41s.02.03.03.05l.45.9.57,2.02.41,1.43-.32.83-3.43,8.9s-.02.01-.02.03l-1.54,4.02-7.06,7.35-.51.53-.5.53-2.45,2.55s0,.01-.03.01,0,.02-.03.02l-6.67,2.52s-.03.02-.05.02c-.02.02-.05.02-.06.03l-3.87,1.46-2.75,1.04h-10.69l-7.69-3.49-6.06-5.54-5.37-9.58s-.02-.02-.02-.03c-.02-.02-.02-.03-.02-.04v-.03l-1.27-9.79.21.27.06.09,3.23,4.23,6.23,1.46,8.34-1.61,7.39-4.08,3.82-3.34,2.06-4.7.67-1.51.12-.3,2.27-5.67-.59-7.25-2.48-5.91-4.61-4.88h-.02l-8.96-3.99-.09-.05-.08-.08-6.74-7.71-5.76-10.06s-.03-.08-.03-.09l-1.24-9.33,1.53-12.84,6.23-12.62,9.43-10.48,10.01-5.72c.09-.05.17-.09.26-.15l4.61-2.64c.18-.09.38-.21.57-.33l9.77-6.36h.02l5.05-4.4.05-.05,2.74-3.21,1-9.08-1.89-5.45-.42-1.21-.97-2.83h.06l.41.18s.03,0,.05.03l8.07,3.18,10.72,7.32,5.28,5.78,2.27,5.83h.02Z"/>
    </g>
    <path id="Vector_52" data-name="Vector 52" class="cls-5" d="M414.89,946.95s-.12.11-.18.15h-.01c-14.47,12.64-34.47,14.63-49.01,5.6-9.86-6.13-18.84-18.52-17.55-31.16,1.92-19.28,26.39-25.67,23.96-37.66-1.54-7.53-11.28-5.88-27.42-19.8-2.83-2.5-16.92-14.69-19.52-26.33-.59-2.56-.61-5.11.18-7.5.64-1.78,2.04-3.43,5.12-6.88,10.63-11.87,16.01-11.62,22.16-19.66,1.31-1.73,6.68-8.81,6.92-17.41.05-1.52-.06-3.09-.39-4.68-.64-3.13-1.98-5.83-3.82-8.47-1.51-2.18-3.36-4.34-5.4-6.72-4.75-5.48-5.76-4.99-11.4-10.85-6.41-6.78-12.17-12.78-12.17-20.82,0-4.22,1.66-7.53,2.43-9.19,3.07-6.13,6.79-7.02,11.26-12.01.7-.68,3.84-4.29,6.17-9.7.53-1.19,1-2.5,1.39-3.87,0,0,0-.02.02-.03.38-1.3.68-2.67.89-4.08v-.04c.05-.3.09-.6.12-.9.36-3.27.15-6.31-.38-9.04-.48-2.58-1.25-4.9-2.04-6.88-.39-.98-.79-1.88-1.16-2.7,0-.03-.02-.05-.03-.08-.3-.68-.6-1.3-.86-1.85-.36-.74-.71-1.4-1.06-2.02-4.25-7.61-7.66-7.41-10.73-14.98-2.46-6.1-2.68-12.13-2.21-16.92.47-.36.95-.72,1.42-1.1.17-.14.33-.27.5-.39-1.19,6.22-.45,10.95.92,14.58,2.83,7.53,7.95,9.07,12.82,20.56.12.27.24.57.39.9,1.87,4.47,5.74,14.82,3.82,25.52-.7,3.9-2.01,6.98-3.66,9.54-.06.09-.12.18-.17.26-.3.45-.61.89-.92,1.29-.08.11-.14.2-.21.29-.58.74-1.18,1.43-1.8,2.09-5.94,6.33-13.57,9.46-15.01,18.06-2.58,15.41,18.4,25.78,28.01,40.51,2.65,4.04,4.43,8.41,4.63,13.3.03.32.03.65.03.96,0,7.79-3.98,19.15-23.84,32.93-6.79,4.61-8.57,8.95-9.22,11.63-.41,1.96-.36,4.05.05,6.22,2.18,11.48,14.92,25.01,28.4,32.21,7.3,3.83,15.63,6.37,17.04,13.02.77,3.57-.77,6.9-1.54,8.68-2.81,6.52-7.3,7.53-12.8,13.66-1.16,1.28-6.03,6.76-7.82,13.03-2.95,10.59,3.7,22.46,9.86,28.46,12.24,11.83,34.6,12.76,53.51.44h.05c.09-.08.17-.12.26-.18Z"/>
    <path id="Vector_53" data-name="Vector 53" class="cls-5" d="M349.28,692.63c.12,1.02.26,2.55.12,4.34-.38,4.6-2.18,7.65-3.07,9.58-1.8,3.96-1.4,7.53-.63,14.69,1.15,11.61,8.71,28.22,23.57,40.6,9.87,8.3,15.12,8.04,16.92,14.43,2.66,9.49-5.05,19.46-9.48,25.02-2,2.52-4.6,5.35-9.1,10.24-2.54,2.77-3.89,4.17-4.49,4.82-3.84,4.17-14.41,18.33-9.48,30.27,4.49,10.85,18.96,15.58,20.5,15.95,3.98,1.14,8.59,2.3,8.59,2.3,8.07,1.91,9.74,1.54,12.43,3.06,3.46,2.05,7.3,6.64,7.04,10.98-.38,9.45-18.44,9.32-27.29,23.88-4.61,7.65-5.9,18.26-2.31,26.56,5.5,12.9,22.81,20.68,42.28,17.75-16.27,2.05-31.26-3.06-37.93-13.53-4.23-6.64-4.61-14.3-4.61-14.3-.38-8.68,3.33-15.2,4.87-17.63,9.22-14.18,25.49-12.52,26.51-21.32.77-5.62-5.5-10.85-6.15-11.36-2.95-2.43-5.12-2.3-13.32-4.47-7.94-2.17-12.17-3.31-16.92-5.74-4.93-2.53-10.02-5.39-12.68-11.49-2.36-5.39-2.04-11.75-.23-16.14.32-.77.73-1.6,1.06-2.26.32-.65,2.43-4.84,5.7-9.05,6.2-8.02,14.36-14.09,21.78-25.42,1.12-1.7,4.05-6.81,4.49-13.53.27-4.07-.56-6.24-1.15-7.41-1.56-3.09-4.16-4.61-5.79-5.62-7.27-4.46-14.01-10.03-17.93-14.09-3.9-4.01-6.29-7.83-8.31-11.07-3.49-5.59-4.93-9.41-5.34-10.54-.48-1.33-.94-2.73-1.33-4.26-1.92-7.41-1.54-13.53-1.15-18.77.26-4.59,1.15-10.85,3.46-18.26,0,.38-.26,1.14-.63,1.79v-.02Z"/>
    <path id="Vector_54" data-name="Vector 54" class="cls-5" d="M462.16,661.59c.38,3.06.77,8.3,0,14.69-2.81,25.16-18.83,29.87-25.88,55.29-5.25,19.15-1.41,35.61,2.81,42.91,3.46,5.74,8.19,10.59,8.19,10.59,4.23,4.34,8.07,6.76,9.1,7.41,2.72,1.69,23.25,17.84,23.31,44.56,0,0,.05,17.25-11.4,33.7-2.51,3.6-4.13,5.11-4.13,5.11-2.9,2.68-4.51,2.74-5.28,4.73-1.09,2.77.76,5.89,1.39,6.96,1.8,3.04,4.52,4.44,6.26,5.3,4.04,2,5.32,1.07,10.36,2.58,3.63,1.09,9.54,2.85,11.01,6.99.29.83.63,3.18-1.8,8.17-6.41,13.15-21.78,17.87-26.91,19.15,4.75-.38,16.01-2.17,23.96-11.1,1.41-1.54,8.84-10.09,6.15-16.35-1.4-3.32-5.24-4.85-10.13-6.76-7.68-2.94-10.25-1.28-14.48-4.47-2.95-2.17-6.15-6.51-5.25-9.96.77-2.55,3.33-2.68,7.44-7.41,1.66-2.55,3.07-4.47,3.2-4.59,7.44-9.96,10.13-23.37,10.13-23.37,1.03-4.99,3.84-19.54-3.98-31.02-4.23-9.07-12.56-19.15-18.96-22.97-1.03-.63-5.64-3.32-10.63-8.17-.89-.77-2.43-2.3-3.84-4.08-5.76-7.02-6.79-15.2-7.68-21.57-1.03-8.04-.38-14.3-.12-16.09.38-2.8,1.15-8.42,4.1-14.95,2.31-5.11,3.46-5.23,10.13-16.09,2.81-4.59,4.23-6.9,5.9-10.09,2.06-3.96,5-9.96,6.92-18,1.03-4.08,1.92-9.84,1.92-16.86-.64-1.4-1.29-2.8-1.8-4.22h-.03Z"/>
    <path id="Vector_55" data-name="Vector 55" class="cls-5" d="M264.22,203.11l-.18.48-.33.92s-.08-.01-.11-.03c-.11,0-.21-.05-.32-.06-.17-.05-.33-.08-.5-.11-9.96-2.23-18.2-2.21-23.79-1.85-5,.39-11.16.9-18.32,3.71-5.9,2.31-12.94,5.11-18.07,12.38-7.18,10.35-5,22.09-4.23,25.28.89,3.96,2.95,7.53,6.92,14.3,2.66,4.59,5.08,8.77,8.01,13.03,1.87,2.71,3.96,5.48,6.46,8.42,4.78,5.72,12.21,13.3,22.81,20.65.45.32.92.63,1.39.95.03.03.06.04.09.08h.01s.03,0,.04.03c-.32.57-.63,1.18-.97,1.76-.32.62-.63,1.24-.97,1.81,0,0-.42-.35-1.18-1.01-.45-.39-1.03-.9-1.72-1.52-5.44-4.88-17.61-16.36-27.71-30.15-.39-.53-.77-1.06-1.15-1.6-13.71-19.24-22.86-42.54-4.49-58.68,0,0,18.94-16.57,58.24-8.81.02.01.03.01.05.01Z"/>
    <path id="Vector_56" data-name="Vector 56" class="cls-5" d="M146.99,559.84c-.89,3.19-2.18,8.81-2.06,15.7.12,29.87,23.96,42.51,24.47,60.91.38,11.1-7.68,27.45-48.67,48.39,0,0-69.57,42.26-27.94,81.84-10.76-14.95-11.02-25.66-10.25-31.79,3.72-26.42,41.25-48.51,55.08-56.69,3.98-2.3,16.78-9.7,26.39-22.97,0,0,8.71-12.13,6.79-20.43-.12-.51-.89-3.57-2.43-7.53-.38-1.03-1.28-3.19-2.55-5.74-3.07-5.88-6.41-10.09-7.18-11.24-8.07-12.26-9.99-25.28-10.88-32.3-1.29-7.65-1.03-14.04-.77-18.12v-.02Z"/>
    <path id="Vector_57" data-name="Vector 57" class="cls-5" d="M376.82,852.47s-27.68-29.24,62.27-78.26l1.29,2.05c-22.67,11.36-38.05,24-47.66,33.07-13.06,12.38-18.32,20.94-18.44,30.64-.14,5.23,1.41,9.7,2.55,12.52v-.02Z"/>
    <path id="Vector_58" data-name="Vector 58" class="cls-5" d="M379.39,738.85s35.24,25.79,22.04,52.61c-.12.77-.12,2.05.12,3.57.64,5.36,3.84,9.07,5.5,10.98,8.96,9.84,27.54,22.08,39.71,38.55,5.25,7.28,7.04,12.01,7.3,16.86.51,7.91-2.95,14.18-5,17.37,3.58-6.9,4.1-12.38,3.98-15.7-1.03-31.67-56.49-49.41-52.39-71.76.77-4.22,3.58-8.56,2.81-16.47-.77-7.53-4.35-13.41-5.76-15.58-.89-1.4-1.92-2.8-9.48-11.1-3.58-3.71-6.67-7.02-8.84-9.33l.02-.02Z"/>
    <path id="Vector_59" data-name="Vector 59" class="cls-5" d="M159.93,660.19s14.23,52.86-17.93,78.66c4.1-2.68,10.51-7.79,15.25-15.95,1.8-3.19,4.75-9.33,6.15-22.73.89-9.07,1.29-23.23-2.81-40.72-.26.26-.38.51-.64.77l-.03-.02Z"/>
    <path id="Vector_60" data-name="Vector 60" class="cls-5" d="M207.73,672.19c1.15-14.81-2.18-26.68-6.53-42.64-2.07-7.49-4.37-14.31-6.71-20.38,1.15,1.02,2.21,1.94,3.19,2.79h.01c11.37,27.07,23.87,75.21-10.34,109.9,16.78-21.45,19.73-40.86,20.38-49.67Z"/>
    <path id="Vector_61" data-name="Vector 61" class="cls-5" d="M159.93,559.84c-.26,4.6-.12,11.49,1.15,19.54,5.38,32.69,25.11,43.8,29.46,65.25,2.55,12.38.63,30.64-19.73,56.43,20.12-28.22,21.01-47.24,17.55-59.63-4.87-17.23-19.09-24.77-26.91-50.82-3.72-12.38-4.35-23.37-4.23-30.76h2.69v-.02Z"/>
    <path id="Vector_62" data-name="Vector 62" class="cls-5" d="M59.61,540.44s-34.72,33.84,13.57,82.86c2.69,3.06,6.41,8.17,8.59,15.32,4.75,15.83-2.18,29.36-3.98,32.69.89-.77,1.8-1.54,2.55-2.31,2.06-3.45,4.35-8.56,5-15.06.89-9.96-2.69-17.63-4.23-20.55-1.92-3.83-4.1-6.64-8.33-12.01-3.84-4.85-5.12-5.74-7.94-9.19-2.06-2.55-8.33-10.09-12.31-20.81-1.8-4.73-4.23-11.36-3.98-20.31.38-12.38,5.64-21.71,7.94-25.66,1.15-2.17,2.31-3.83,3.07-4.99h.03Z"/>
    <path id="Vector_63" data-name="Vector 63" class="cls-5" d="M169.8,285.72c-5.76-1.4-10.25-1.28-13.06-.89-23.96,3.06-43.81,32.3-58.17,53.62-1.28,1.79-6.27,9.32-15,15.07-3.2,2.17-6.53,4.34-11.4,5.48-5.64,1.4-8.19,0-9.87,1.79-1.03,1.02-2.55,3.96,4.35,18.63,7.44,15.83,12.43,18.89,12.94,27.59.38,5.88-1.41,10.21-3.46,15.06-5.5,12.9-15.37,20.68-25.24,28.22-12.56,9.58-15.49,8.56-17.55,13.53-4.23,10.34,4.87,23.74,13.2,35.75,13.45,19.54,23.45,23.23,22.04,31.92-.05.26-.09.5-.15.75-2.06,8.77-14.01,14.52-21.12,17.88-6.91,3.25-8.54,2.32-23.19,8.16-9.33,3.72-13.06,5.86-16.27,9.61-4.5,5.29-5.68,11.09-6.02,12.84-3.85,20.2,16.1,40.18,24.5,44.19.53.24,3.82,1.79,8.09,4.26,3.31,1.93,5.67,3.52,7.65,5.03,3.9,2.94,5.87,4.46,7.03,7.07.42.95,1.33,3.31,1.03,5.88-.6,5-6.74,8.78-18.96,16.12-2.25,1.34-6.03,3.56-11.28,6.99-2.96,1.94-4.43,2.91-5.26,3.64-1.39,1.21-6.47,5.89-8.31,13.71-.57,2.45-1.1,5.57-.12,9.19.51,1.91,1.28,2.68,2.81,4.99.89,1.28,3.84,5.62,5.64,9.96.63,1.28,1.66,5.62,3.84,14.04,1.28,4.73,1.28,4.59,1.28,4.73.08.24.2.59.35,1.01,3.27,8.81,10.85,13.51,13.39,15.04,5.06,3.06,9.67,4.14,11.75,4.64,5.41,1.27,8.53.87,11.17,1.33,1.3.23,2.49.66,3.82,1.61.74.54,1.39,1.13,1.97,1.79,1.47,1.67,2.31,3.61,2.84,5.23.38,1.16.57,2.16.71,2.8.26,1.15,1.54,7.53-2.06,13.53-1.28,2.3-3.07,4.08-11.14,8.93-7.94,4.85-11.14,6-14.6,8.04-3.58,2.17-11.02,7.79-16.66,17.23-4.35,7.16-5.5,13.02-5.76,14.3-.38,2.05-1.03,5.48-.63,9.84.26,2.17,1.03,8.04,5.64,15.07,9.22,13.92,19.47,11.1,23.45,21.32,2.95,7.65,0,16.86-4.23,22.6-1.03,1.4-3.72,4.59-8.19,6.9-5,2.55-14.6,5.11-18.96.38-3.72-4.08-1.66-11.62-1.41-11.62s-1.15,7.41,2.69,10.85c4.49,3.96,12.56.77,12.56.77,1.41-.38,10.25-2.55,14.86-10.98,3.98-7.16,3.46-16.21-.63-22.09-3.2-4.47-6.41-4.22-11.79-7.91-8.84-6.25-13.57-16.72-14.86-24.13-2.78-16.05,7.44-33.75,19.86-41.23,3.82-2.3,9.78-4.82,19.86-11.54,6.21-4.14,8.12-6,9.48-8.75,2.33-4.74,2.01-10.2.73-14.3-.92-3.01-2.39-5.29-3.67-6-1.15-.63-1.8-.51-6.53-1.28,0,0-3.84-.63-12.05-2.55-5.5-1.28-14.6-5.62-19.98-12.9-8.07-10.85-7.04-26.82-11.91-33.19-1.03-1.4-4.1-5.11-4.87-10.73,0,0-.63-4.59.77-9.45,6.67-22.91,42.1-25.78,43.17-38.81.38-4.57-3.43-11.15-21.62-20.16-18.32-8.42-32.98-34.35-25.52-51.72,3.02-7.02,8.81-10.76,15.25-14.81,12.56-7.91,19.98-5.36,34.07-13.79,9.36-5.62,13.97-8.42,15.12-13.41,0-.05.03-.09.03-.14,2.39-11.42-16.75-18.74-31.16-47.74-5.38-10.73-6.02-16.47-4.23-21.2,2.31-5.88,6.92-6.13,18.06-14.55,6.27-4.73,15.75-12.01,22.16-23.49,4.23-7.41,7.56-13.27,6.79-20.8-1.28-13.66-14.48-17.87-17.43-35.24-.89-4.6-.63-8.56-.38-10.98,5.9-1.02,14.22-3.06,22.55-8.42,8.71-5.48,12.3-11.24,21.13-22.97,18.11-24.07,27.5-36.17,40.36-41.11,9.39-3.6,18.26-3.16,23.75-2.43.3.14.83.47,1.3,1.04.44.54.62,1.07.71,1.39l-.08-.05Z"/>
    <path id="Vector_64" data-name="Vector 64" class="cls-5" d="M75.35,795.71c1.32-1.31,2.6-2.55,3.81-3.74-.09.24-.17.48-.23.71-.26.81-.42,1.61-.51,2.41-.08.08-.15.12-.21.18-2.78,2.26-6.18,5.38-9.77,9.13-.51.54-1.03,1.08-1.54,1.64-4.13,4.48-8.42,9.72-12.2,15.38-.06.08-.11.15-.15.23-1.39,2.06-2.69,4.19-3.9,6.34,0,.02-.02.02-.02.03-4.9,8.75-8.19,18.14-7.74,26.95.11,2.06.47,4.7,1.21,7.62,0,.03,0,.06.02.09.3,1.13.63,2.29,1.07,3.47v.04c.03.11.08.21.11.32,1.27,3.43,3.14,7.02,5.85,10.3,6.09,7.37,12.95,9.07,16.99,12.9,1.32,1.25,2.33,2.73,2.9,4.68,2.39,8.1-4.9,16.69-6.95,19.1-1.42,1.66-3.1,3.3-5,4.84-.18.15-.36.3-.54.44-.2.17-.39.32-.6.47-.92.71-1.9,1.39-2.92,2.02,0,0,0,0-.03.02,0,0,0,.01-.03.01-9.07,5.73-21.06,8.65-31.09,2.68-6.39-3.8-10.2-10.14-12.11-16.24,0,0,0-.01-.02-.03,0,0-.02-.03-.02-.04v-.03c-1.44-4.57-1.8-8.99-1.41-12.16,0-.17.05-.38.09-.63.2-1.4.6-3.92.74-4.28.02-.03.02-.05.03-.05.14.02-.41,3.68-.47,6.48,0,.12,0,.54.02,1.21v.24c.21,4.07,1.63,15.37,10.61,22.37,4.79,3.74,9.9,4.85,10.84,5.05,1.56.32,2.96.45,4.05.5.74.02,1.35.02,1.74,0,0,0,2.86-.08,6.33-1.04.8-.23,1.65-.5,2.48-.83.44-.18.89-.38,1.39-.63.02,0,.05,0,.06-.03.02,0,.03-.02.05-.02,2.72-1.39,6.21-3.89,9.61-6.98,3.45-3.09,6.8-6.79,9.18-10.55,0-.01.02-.01.02-.03,1.93-3.01,3.22-6.07,3.43-8.89.06-.8.03-1.54-.09-2.27-.11-.69-.3-1.37-.57-2.02-.14-.33-.3-.63-.45-.9-.02-.02-.02-.03-.03-.05-1.21-1.85-3.04-2.48-5.93-4.14h-.03s-.08-.03-.11-.06c-.02-.02-.03-.02-.05-.03-2.22-1.25-5.06-3.15-8.68-6.6-.42-.41-.88-.84-1.33-1.3-1.83-1.78-3.79-3.9-5.61-6.7-.44-.65-.85-1.34-1.25-2.08,0,0-3.76-6.8-4.4-15.35-.23-3.1.08-6.3.8-9.57v-.06c1-4.46,2.72-8.98,4.9-13.41.02-.02.02-.05.03-.06,0-.04.03-.08.05-.1,0-.02.02-.02.02-.03,3.33-6.78,7.66-13.32,11.87-18.89h.02c6.35-8.45,12.37-14.75,14.15-16.54.51-.51,1.01-1.01,1.51-1.48l.03-.02Z"/>
    <path id="Vector_65" data-name="Vector 65" class="cls-5" d="M116.57,652.16v.6c-.03.84-.15,2.29-.68,4.1-1.06,3.52-3.08,5.85-4.46,7.35-5.49,6-10.54,9.85-10.54,9.85-7.3,5.56-9.9,6.79-17.14,12.04-2.18,1.6-5.03,3.83-10.75,8.32-6.5,5.11-5.44,4.78-20.88,18.39-1.77,1.57-4.16,3.66-6.8,7.01-2.8,3.53-4.52,5.7-5.26,8.21-.21.66-.35,1.37-.41,2.12,0,0-.51,6.04,4.22,12.4.05.05.08.11.11.14.33.44.6.78.8.99,1.71,2.05,2.86,2.65,15.54,9.73.21.12.42.24.62.35,7.33,4.1,9.78,5.48,10.37,5.83h.02s.08.08.11.08c5.32,2.94,8.27,4.47,11.78,7.53,2.15,1.87,3.72,3.62,4.75,4.84,0,0,1.15,2.94,1.15,6.25,0,.2,0,.39-.02.59-.02.32-.03.65-.08.96l-.98.8h-.02l-.56.48c.11-.35.2-.68.27-1.02.14-.65.2-1.31.18-1.99-.02-.32-.05-.63-.09-.96-.54-3.74-3.36-6.99-6.74-9.7-2.98-2.43-6.42-4.44-9.15-6.01-.73-.42-2-.92-3.87-1.97-1.22-.69-2.13-1.3-2.99-1.85-.06-.03-.11-.06-.14-.09-.7-.45-1.38-.89-2.16-1.34-.02-.01-.03-.01-.05-.03-.2-.12-.41-.24-.63-.36-.09-.06-.2-.11-.3-.17-.27-.15-.56-.3-.86-.45-.11-.06-.2-.1-.29-.15-.6-.29-.8-.36-2.3-1.05-1.24-.59-2.36-1.1-3.37-1.6h-.02c-4.07-1.94-6.52-3.3-8.75-5.3-1.78-1.6-3.25-3.45-3.25-3.45-.57-.72-1.07-1.42-1.51-2.09-.95-1.18-2.62-3.48-3.2-6.64-.92-4.96.85-11.52,14.45-24.78.02-.02.03-.03.05-.03,6.53-6.36,15.77-14.25,28.74-24.23,1.71-1.33,3.48-2.68,5.32-4.07,21.27-16.06,27.01-19.1,28.21-26.97,1.54-10.02-7.54-19.62-23.08-36.74-5.47-6.04-10.46-10.8-14.24-14.24-.05-.03-.08-.06-.11-.09-.17-.15-.33-.3-.48-.44-.03-.89-.05-1.79-.06-2.7.09.09.2.18.29.27,9.19,8.6,16.39,16.3,21.53,22.13,15.03,18.73,17.75,24.13,17.75,29.17h-.01Z"/>
    <path id="Vector_66" data-name="Vector 66" class="cls-5" d="M11.27,896.06c-.24-2.73.06-4.82.18-5.53-.12,1.11-.29,3.13-.18,5.53Z"/>
    <path id="Vector_67" data-name="Vector 67" class="cls-5" d="M99.84,546.06c-.63,2.43-1.92,6.25-4.1,10.73-6.41,13.02-13.71,16.09-17.43,26.56-2.06,5.74-1.8,10.47-1.54,16.47.76,17.66,11.08,32.74,12.68,35.12,1.72,2.55,3.99,5.56,5.76,10.56,1.97,5.56,2.24,10.56,2.16,13.91.14-.12.27-.24.41-.36.03-2.23-.12-4.13-.29-5.62-.17-1.46-.44-3.69-1.25-6.48-1.8-6.13-3.84-7.91-8.45-16.35-3.72-6.76-6.92-12.9-8.96-21.2-.65-2.56-1.36-5.6-1.6-9.33-.02-.23-.17-2.55-.06-4.72.3-6.27,2.69-11.71,4.26-14.82,4.46-8.89,7.54-9.63,11.97-17.07,2.13-3.6,4.88-9.26,6.44-17.38v-.02Z"/>
    <path id="Vector_68" data-name="Vector 68" class="cls-5" d="M57.17,918.34c1.3,1.63,3.87,4.28,7.83,5.36,6.62,1.81,14.39-1.55,19.35-8.53l.63-1.91c-1.54,2.05-5.12,5.74-10.88,7.79-2.62.92-5.37,1.81-8.71,1.02-3.93-.92-6.32-3.63-7.27-4.85-.32.38-.63.75-.95,1.13v-.02Z"/>
    <path id="Vector_69" data-name="Vector 69" class="cls-5" d="M119.2,524.42c-3.11,3.01-6.76,5.21-11.02,5.92-2.28.35-6.61.6-12.32-1.9-.11-.04-.21-.09-.33-.15-.08-.03-.17-.07-.26-.12-.15-.08-.32-.15-.48-.23-.02-.01-.05-.01-.06-.03.02,0,.05.02.06.02.15.05.3.09.47.14.08.01.15.03.24.06,4.82,1.27,11.49,1.91,17.93-1.11,1.94-.9,3.57-2.08,5.08-3.6.04.06.09.14.12.2.2.27.38.54.57.81Z"/>
    <path id="Vector_70" data-name="Vector 70" class="cls-5" d="M124.71,474.11s-.04,0-.06.01c-.08-.14-.15-.26-.21-.38l.27.36Z"/>
    <path id="Vector_71" data-name="Vector 71" class="cls-5" d="M133.28,485.32v.1s-.03-.04-.04-.07c.01-.02.01-.05.01-.08l.03.05Z"/>
    <path id="Vector_72" data-name="Vector 72" class="cls-5" d="M204.39,320.06s-.04.09-.14.29c-1.75,3.28-18.2,34.32-36.99,62.32-10.73,15.97-22.22,30.96-32.17,39.24-.6.5-1.21.98-1.8,1.43-2.16,2.38-5.44,6.34-8.21,11.42-.24-.12-.5-.23-.74-.32-.3-.11-.6-.21-.91-.3,1.53-2.82,3.11-5.38,4.47-7.61.26-.42.51-.81.77-1.21,2.25-3.46,4.28-5.93,6.36-8.13,1.3-1.37,2.65-2.64,4.08-3.98.01,0,.03-.03.03-.03,3.02-2.82,6.51-5.97,11.17-11.04,4.19-4.57,8.06-9.69,12.59-16.53,4.6-6.91,9.9-15.56,17.01-27.13,5.62-9.15,12.88-21.42,21.1-36.4.29-.54.59-1.08.89-1.64.09-.18.2-.35.29-.53.18.03.35.06.51.07.56.06,1.07.06,1.66.06Z"/>
    <path id="Vector_73" data-name="Vector 73" class="cls-5" d="M527.23,422.21c3.07,3.06,8.07,8.81,11.02,17.37,1.29,3.57,6.53,18.89-.63,30.9-6.92,11.75-20.62,12.01-20.24,18.77.26,5.23,8.59,10.34,11.53,12.26,2.55,1.54,4.61,2.43,5.5,2.8,14.86,6.25,24.85,10.47,33.18,17.63,5.25,4.6,9.1,7.91,9.22,12.76.12,5.36-4.61,8.3-11.4,17.87-4.1,5.74-6.92,10.85-8.45,14.18-.12-.26-.38-.51-.51-.77,1.54-3.31,4.1-8.42,7.94-14.04,6.79-9.7,11.79-12.9,11.4-18.38-.12-1.54-.77-4.73-8.45-11.1-8.07-6.64-14.35-8.81-30.11-16.35-13.71-6.51-19.86-9.96-20.76-15.83,0-.38-.26-2.3.38-4.47,2.55-8.05,13.2-6.64,19.21-15.58,2.18-3.31,2.95-6.76,3.46-9.96.26-1.4,1.29-7.16-.12-14.43-1.41-7.02-4.35-11.75-6.41-14.94-2.31-3.57-4.49-6.25-6.27-8.05.26-.12.38-.38.51-.63Z"/>
    <path id="Vector_74" data-name="Vector 74" class="cls-5" d="M517.36,489.23s44.58,3.06,48.04,13.15c0,0,5.12,7.65-3.84,15.95l-.63-.77c.51-.38,5.38-3.83,5.38-9.7,0-.77-.12-3.96-2.31-6.76-1.8-2.3-4.23-3.19-6.67-4.08-9.73-3.32-14.74-3.83-14.74-3.83-6.92-.77-14.86-1.91-25.24-3.57v-.39Z"/>
    <path id="Vector_75" data-name="Vector 75" class="cls-5" d="M521.59,496.13s34.84,1.54,38.82,12.9c0,0,.38,3.96-2.43,6.13-.12,0-.26-.12-.38-.12,2.18-2.68,2.43-4.6,2.18-5.62-1.15-7.65-21.65-10.98-25.62-11.62-2.31-.38-4.87-.63-4.87-.63-3.07-.38-5.64-.51-7.56-.63,0-.12,0-.26-.12-.38l-.02-.03Z"/>
  </g>
</svg>