<svg width="151" height="173" viewBox="0 0 151 173" fill="none" xmlns="http://www.w3.org/2000/svg">
<g filter="url(#filter0_ii_180_3515)">
<path d="M136.516 4.93347H14.2326C10.3666 4.93347 7.2326 8.06747 7.2326 11.9335V155.997C7.2326 159.863 10.3666 162.997 14.2326 162.997H136.516C140.382 162.997 143.516 159.863 143.516 155.997V11.9335C143.516 8.06748 140.382 4.93347 136.516 4.93347Z" fill="#C12765"/>
</g>
<path d="M136.451 4.30865H14.1679C10.3019 4.30865 7.16791 7.44266 7.16791 11.3086V155.372C7.16791 159.238 10.3019 162.372 14.1679 162.372H136.451C140.317 162.372 143.451 159.238 143.451 155.372V11.3087C143.451 7.44266 140.317 4.30865 136.451 4.30865Z" fill="url(#paint0_linear_180_3515)"/>
<path d="M140.069 0H11.0457C5.33672 0 0.704895 4.63182 0.704895 10.3408V161.769C0.704895 167.478 5.33672 172.11 11.0457 172.11H140.069C145.778 172.11 150.41 167.478 150.41 161.769V10.3408C150.41 4.63182 145.778 0 140.069 0ZM13.5017 149.877V20.2723C13.5017 15.4681 17.401 11.5688 22.2052 11.5688H128.716C133.52 11.5688 137.419 15.4681 137.419 20.2723V149.877C137.419 154.681 133.52 158.559 128.716 158.559H22.2052C17.401 158.559 13.5017 154.681 13.5017 149.877Z" fill="url(#paint1_linear_180_3515)"/>
<g filter="url(#filter1_f_180_3515)">
<path d="M139.638 44.444V149.877C139.487 150.825 138.712 155.435 134.963 158.128C133.261 159.335 131.452 159.83 131.15 159.916C129.362 160.39 127.832 160.326 126.906 160.218L35.6913 160.649V158.559H128.737C133.541 158.559 137.441 154.681 137.441 149.877V44.444H139.66H139.638Z" fill="#B0B0B0"/>
</g>
<defs>
<filter id="filter0_ii_180_3515" x="3.2326" y="0.933472" width="144.283" height="166.064" filterUnits="userSpaceOnUse" color-interpolation-filters="sRGB">
<feFlood flood-opacity="0" result="BackgroundImageFix"/>
<feBlend mode="normal" in="SourceGraphic" in2="BackgroundImageFix" result="shape"/>
<feColorMatrix in="SourceAlpha" type="matrix" values="0 0 0 0 0 0 0 0 0 0 0 0 0 0 0 0 0 0 127 0" result="hardAlpha"/>
<feOffset dx="10" dy="15"/>
<feGaussianBlur stdDeviation="2"/>
<feComposite in2="hardAlpha" operator="arithmetic" k2="-1" k3="1"/>
<feColorMatrix type="matrix" values="0 0 0 0 0.443137 0 0 0 0 0.00784314 0 0 0 0 0.184314 0 0 0 1 0"/>
<feBlend mode="normal" in2="shape" result="effect1_innerShadow_180_3515"/>
<feColorMatrix in="SourceAlpha" type="matrix" values="0 0 0 0 0 0 0 0 0 0 0 0 0 0 0 0 0 0 127 0" result="hardAlpha"/>
<feOffset dx="-7" dy="-5"/>
<feGaussianBlur stdDeviation="2"/>
<feComposite in2="hardAlpha" operator="arithmetic" k2="-1" k3="1"/>
<feColorMatrix type="matrix" values="0 0 0 0 0.44375 0 0 0 0 0.00739583 0 0 0 0 0.183071 0 0 0 1 0"/>
<feBlend mode="normal" in2="effect1_innerShadow_180_3515" result="effect2_innerShadow_180_3515"/>
</filter>
<filter id="filter1_f_180_3515" x="33.6913" y="42.444" width="107.968" height="120.205" filterUnits="userSpaceOnUse" color-interpolation-filters="sRGB">
<feFlood flood-opacity="0" result="BackgroundImageFix"/>
<feBlend mode="normal" in="SourceGraphic" in2="BackgroundImageFix" result="shape"/>
<feGaussianBlur stdDeviation="1" result="effect1_foregroundBlur_180_3515"/>
</filter>
<linearGradient id="paint0_linear_180_3515" x1="136.428" y1="4.30866" x2="11.4766" y2="158.344" gradientUnits="userSpaceOnUse">
<stop stop-color="white" stop-opacity="0.2"/>
<stop offset="0.465" stop-color="white" stop-opacity="0.05"/>
<stop offset="1" stop-color="white" stop-opacity="0.2"/>
</linearGradient>
<linearGradient id="paint1_linear_180_3515" x1="75.5573" y1="0" x2="75.5573" y2="172.11" gradientUnits="userSpaceOnUse">
<stop/>
<stop offset="0.2" stop-color="#343434"/>
<stop offset="0.49" stop-color="#020202"/>
<stop offset="0.735" stop-color="#262626"/>
<stop offset="1"/>
</linearGradient>
</defs>
</svg>
