<?xml version="1.0" encoding="utf-8"?>
<!-- Generator: Adobe Illustrator 25.0.1, SVG Export Plug-In . SVG Version: 6.00 Build 0)  -->
<svg version="1.1" id="Слой_1" xmlns="http://www.w3.org/2000/svg" xmlns:xlink="http://www.w3.org/1999/xlink" x="0px" y="0px"
	 viewBox="0 0 65 58" style="enable-background:new 0 0 65 58;" xml:space="preserve">
<style type="text/css">
	.st0{fill:#976766;}
	.st1{fill:none;stroke:#060606;stroke-width:1.0499;stroke-miterlimit:10;}
	.st2{fill:#976766;stroke:#060606;stroke-width:1.0499;stroke-miterlimit:10;}
	.st3{fill:#976766;stroke:#060606;stroke-width:0.525;stroke-miterlimit:10;}
	.st4{fill:none;stroke:#060606;stroke-width:0.525;stroke-miterlimit:10;}
	.st5{fill:#030402;}
	.st6{fill:#030402;stroke:#060606;stroke-width:0.525;stroke-miterlimit:10;}
	.st7{fill:#976766;stroke:#060606;stroke-width:0.2625;stroke-miterlimit:10;}
	.st8{fill:none;stroke:#060606;stroke-width:1.1075;stroke-miterlimit:10;}
	.st9{fill:#976766;stroke:#060606;stroke-width:1.1075;stroke-miterlimit:10;}
	.st10{fill:#976766;stroke:#060606;stroke-width:0.5537;stroke-miterlimit:10;}
	.st11{fill:none;stroke:#060606;stroke-width:0.5537;stroke-miterlimit:10;}
	.st12{fill:#030402;stroke:#060606;stroke-width:0.5537;stroke-miterlimit:10;}
	.st13{fill:#976766;stroke:#060606;stroke-width:0.2769;stroke-miterlimit:10;}
</style>
<path class="st0" d="M23.1,13.6c-1,0.2-1.7,1.5-1.8,2.7c-0.1,2,1.7,3.7,2.7,3.4c1.2-0.4,1.8-4.5,0.5-5.7
	C23.9,13.5,23.2,13.6,23.1,13.6L23.1,13.6z"/>
<path class="st0" d="M23,19.1c0,0.5-0.2,0.9-0.5,0.9c-0.3,0-0.5-0.4-0.5-0.9c0-0.5,0.2-0.9,0.5-0.9C22.7,18.2,23,18.6,23,19.1z"/>
<path class="st0" d="M23.5,25.7c0.8,0,1.5-1.4,1.5-3.1c0-1.7-0.7-3.1-1.5-3.1c-0.8,0-1.5,1.4-1.5,3.1C22,24.3,22.6,25.7,23.5,25.7z"
	/>
<path class="st0" d="M23.1,27.9c0.6,0,1.1-0.7,1.1-1.5c0-0.8-0.5-1.5-1.1-1.5c-0.6,0-1.1,0.7-1.1,1.5C22,27.2,22.5,27.9,23.1,27.9z"
	/>
<path class="st0" d="M2.2,44.3c-0.1,0.4-0.2,1-0.1,1.7c0.2,1.3,1.2,2,2.5,2.9c2.7,1.8,4.2,2.8,6.8,3.3c2.3,0.4,4,0.1,5.7-0.2
	c2.2-0.4,3.7-0.6,5.1-1.8c1.8-1.5,2.6-3.5,2.9-4.6"/>
<path class="st1" d="M2.2,44.3c-0.1,0.4-0.2,1-0.1,1.7c0.2,1.3,1.2,2,2.5,2.9c2.7,1.8,4.2,2.8,6.8,3.3c2.3,0.4,4,0.1,5.7-0.2
	c2.2-0.4,3.7-0.6,5.1-1.8c1.8-1.5,2.6-3.5,2.9-4.6"/>
<path class="st0" d="M2.2,46c-0.1,0.6-0.2,1.5-0.1,2.6c0,0,0.1,1.2,0.3,2.3c0.8,3,5.2,4.8,5.7,4.9c2.5,1,4.5,0.8,8.6,0.6
	c1.5-0.1,2.8-0.3,4.3-0.9c1.4-0.6,2.9-1.2,3.6-2.7C24.9,52,25,51,25,49.1c0-1.4,0-2.5,0-3.3"/>
<path class="st1" d="M2.2,46c-0.1,0.6-0.2,1.5-0.1,2.6c0,0,0.1,1.2,0.3,2.3c0.8,3,5.2,4.8,5.7,4.9c2.5,1,4.5,0.8,8.6,0.6
	c1.5-0.1,2.8-0.3,4.3-0.9c1.4-0.6,2.9-1.2,3.6-2.7C24.9,52,25,51,25,49.1c0-1.4,0-2.5,0-3.3"/>
<path class="st0" d="M23.7,12.5c0-0.1-0.4-1-1.1-1.2c-0.8-0.2-1.9,0.5-2.2,1.9c-0.1-0.6-0.3-1.4-0.8-2c-0.7-0.7-1.5-0.5-4.2-0.6
	c-1.8,0-3.4-0.1-5.3,0.4c-0.5,0.1-1,0.3-1.4,0.8c-0.5,0.7-0.5,1.8-0.5,2c0,0.6,0.1,1.1-0.1,1.2c-0.1,0.1-0.4,0.1-0.5,0
	c-0.2-0.2,0-0.5,0-0.8c0-0.7-0.3-1.3-0.6-1.7C6.5,12.2,6,12,5.5,12.1c-1.6,0.3-2.3,3.6-2.4,4.4c-0.2,1-0.2,1.8-0.3,3.2
	c0,0.8,0,1.6,0,2.8c0.1,3.1,0.3,3.4,0.3,5.9c0,0.9,0.1,2.3-0.1,4.2c-0.1,1.4-0.2,1.7-0.2,3c0,2,0.1,2,0,3.3
	c-0.1,1.4-0.4,1.6-0.5,3.2c0,0.2-0.1,1.6-0.1,2.3c0.3,2.9,4.8,5.2,7.9,6c2.6,0.7,4.7,0.4,7.5,0c2.4-0.3,3.6-0.8,4.5-1.5
	c0.8-0.5,2.2-1.5,2.9-3.3c0.4-1.2,0.4-2.3,0.3-3.4c-0.1-1.9-0.6-2-0.8-3.9c-0.1-0.9,0-0.9,0-5.8c0-1.9,0-2.5-0.3-3.2
	c-0.7-1.2-1.8-2.2-1.8-2.2c-0.4-0.3-0.5-0.4-0.5-0.6c-0.3-0.7,0.4-1.8,0.5-2.8c0-0.2,0-0.4,0-0.5c0-0.3-0.2-0.5-0.3-0.8
	c-0.1-0.2-0.1-0.5-0.2-1c-0.1-0.9-0.1-1.7-0.1-2.6c0-2-0.2-2-0.1-2.6c0.3-0.8,0.6-0.8,1.2-1.9C23.5,13.3,23.4,12.5,23.7,12.5
	c0.4-0.1,1,2,1.2,4c0.3,2.2,0.1,4.1,0,5.2c-0.3,2-0.6,2.5-0.8,4.4c-0.1,1.4,0,2.5,0.1,3.3"/>
<path class="st1" d="M23.7,12.5c0-0.1-0.4-1-1.1-1.2c-0.8-0.2-1.9,0.5-2.2,1.9c-0.1-0.6-0.3-1.4-0.8-2c-0.7-0.7-1.5-0.5-4.2-0.6
	c-1.8,0-3.4-0.1-5.3,0.4c-0.5,0.1-1,0.3-1.4,0.8c-0.5,0.7-0.5,1.8-0.5,2c0,0.6,0.1,1.1-0.1,1.2c-0.1,0.1-0.4,0.1-0.5,0
	c-0.2-0.2,0-0.5,0-0.8c0-0.7-0.3-1.3-0.6-1.7C6.5,12.2,6,12,5.5,12.1c-1.6,0.3-2.3,3.6-2.4,4.4c-0.2,1-0.2,1.8-0.3,3.2
	c0,0.8,0,1.6,0,2.8c0.1,3.1,0.3,3.4,0.3,5.9c0,0.9,0.1,2.3-0.1,4.2c-0.1,1.4-0.2,1.7-0.2,3c0,2,0.1,2,0,3.3
	c-0.1,1.4-0.4,1.6-0.5,3.2c0,0.2-0.1,1.6-0.1,2.3c0.3,2.9,4.8,5.2,7.9,6c2.6,0.7,4.7,0.4,7.5,0c2.4-0.3,3.6-0.8,4.5-1.5
	c0.8-0.5,2.2-1.5,2.9-3.3c0.4-1.2,0.4-2.3,0.3-3.4c-0.1-1.9-0.6-2-0.8-3.9c-0.1-0.9,0-0.9,0-5.8c0-1.9,0-2.5-0.3-3.2
	c-0.7-1.2-1.8-2.2-1.8-2.2c-0.4-0.3-0.5-0.4-0.5-0.6c-0.3-0.7,0.4-1.8,0.5-2.8c0-0.2,0-0.4,0-0.5c0-0.3-0.2-0.5-0.3-0.8
	c-0.1-0.2-0.1-0.5-0.2-1c-0.1-0.9-0.1-1.7-0.1-2.6c0-2-0.2-2-0.1-2.6c0.3-0.8,0.6-0.8,1.2-1.9C23.5,13.3,23.4,12.5,23.7,12.5
	c0.4-0.1,1,2,1.2,4c0.3,2.2,0.1,4.1,0,5.2c-0.3,2-0.6,2.5-0.8,4.4c-0.1,1.4,0,2.5,0.1,3.3"/>
<path class="st2" d="M6.4,32.4c-0.2-0.2-0.6,0-0.7,0c-0.8,0.4-1.9,3.2-1.3,6c0.8,4.4,5,6.3,5.1,6.4c0.6,0.3,2.1,0.4,5.1,0.8
	c3,0.3,3.9,0.2,4.9-0.4c0.8-0.5,1.4-1.2,2-2.1c0.4-0.6,1.2-1.6,1.7-3.2c0.1-0.3,0.8-2.6,0.3-5.3c-0.1-0.7-0.5-2.1-1.4-2.7
	c-0.2-0.2-0.4-0.2-0.5-0.1c-0.5,0.2-0.1,1.6-0.8,2.5c-0.1,0.2-0.4,0.4-1.9,0.6c-1.1,0.1-2.1,0.1-3.4,0c-2.5-0.1-2.4-0.2-3-0.1
	c-1.5,0.2-1.6,0.8-2.9,0.8c-0.2,0-2.2,0-2.7-1.1c-0.4-0.8-0.3-1.5-0.3-1.5C6.4,32.9,6.5,32.6,6.4,32.4L6.4,32.4z"/>
<path class="st0" d="M4.2,13.1c-0.7,2.3-0.3,3.6,0.1,4.4c0.6,1,1.5,1.3,1.6,2.5c0.1,0.8-0.4,1-0.3,2c0.1,1.2,0.6,1.4,0.7,2.5
	c0.1,1.2-0.5,1.3-0.5,2.6c0,1.2,0.4,1.4,0.6,2.8c0.1,1.1,0,2-0.1,2.6"/>
<path class="st1" d="M4.2,13.1c-0.7,2.3-0.3,3.6,0.1,4.4c0.6,1,1.5,1.3,1.6,2.5c0.1,0.8-0.4,1-0.3,2c0.1,1.2,0.6,1.4,0.7,2.5
	c0.1,1.2-0.5,1.3-0.5,2.6c0,1.2,0.4,1.4,0.6,2.8c0.1,1.1,0,2-0.1,2.6"/>
<path class="st0" d="M21.4,31.8c0.2-0.7,0.4-1.6,0.5-2.6c0.1-1.2,0-2.2-0.1-2.9"/>
<path class="st1" d="M21.4,31.8c0.2-0.7,0.4-1.6,0.5-2.6c0.1-1.2,0-2.2-0.1-2.9"/>
<path class="st0" d="M4.9,18.2c-0.3,0.6-0.6,1.2-1,1.9c-0.5,0.9-0.9,1.9-1.2,2.7"/>
<path class="st1" d="M4.9,18.2c-0.3,0.6-0.6,1.2-1,1.9c-0.5,0.9-0.9,1.9-1.2,2.7"/>
<path class="st0" d="M4.3,19.7c0.3,0.7,0.9,2.2,0.8,4.2c-0.2,2.7-1.5,4.4-2,4.9"/>
<path class="st1" d="M4.3,19.7c0.3,0.7,0.9,2.2,0.8,4.2c-0.2,2.7-1.5,4.4-2,4.9"/>
<path class="st0" d="M5.9,27.8c-0.4,0.2-1.4,0.6-2.1,1.8c-0.6,0.9-0.7,1.8-0.7,2.3"/>
<path class="st1" d="M5.9,27.8c-0.4,0.2-1.4,0.6-2.1,1.8c-0.6,0.9-0.7,1.8-0.7,2.3"/>
<path class="st0" d="M21.7,17.4c0.3,0.2,0.6,0.5,1.1,0.9c0.3,0.2,0.5,0.5,0.6,0.5c0.3,0.3,0.9,0.9,1.5,2.7"/>
<path class="st1" d="M21.7,17.4c0.3,0.2,0.6,0.5,1.1,0.9c0.3,0.2,0.5,0.5,0.6,0.5c0.3,0.3,0.9,0.9,1.5,2.7"/>
<path class="st0" d="M23.3,18.8c-0.3,0.4-0.6,1.1-0.8,1.9c-0.2,0.9-0.3,1.7-0.2,2.2"/>
<path class="st1" d="M23.3,18.8c-0.3,0.4-0.6,1.1-0.8,1.9c-0.2,0.9-0.3,1.7-0.2,2.2"/>
<path class="st0" d="M22.4,23.7c0,0.4,0.2,1.1,0.6,1.8c0.4,0.7,0.8,1.1,1.1,1.3"/>
<path class="st1" d="M22.4,23.7c0,0.4,0.2,1.1,0.6,1.8c0.4,0.7,0.8,1.1,1.1,1.3"/>
<path class="st3" d="M6.8,15.9c0.2-0.5,1-0.7,2.5-0.8C12,15,14,15.3,14,15.3c3.5,0.6,6,1,6.3,2.4c0.1,0.3,0.1,0.7-0.2,1
	c-0.4,0.5-1.5-0.2-3-0.7c-0.2-0.1-1.8-0.6-3.4-0.8c-0.9-0.1-3.6-0.5-5.6-0.1c-0.2,0-0.8,0.2-1.2-0.2C6.8,16.6,6.7,16.2,6.8,15.9
	L6.8,15.9z"/>
<path class="st0" d="M11.7,17c-1.3,0.2-2.2,0.6-2.8,1C8.5,18.2,7,19,7.2,19.6c0,0.2,0.3,0.3,0.4,0.4c0.7,0.3,1.4-0.2,2.7-0.8
	c0.3-0.1,0.8-0.3,1.7-0.7c0.8-0.3,2-0.7,3.6-0.9"/>
<path class="st4" d="M11.7,17c-1.3,0.2-2.2,0.6-2.8,1C8.5,18.2,7,19,7.2,19.6c0,0.2,0.3,0.3,0.4,0.4c0.7,0.3,1.4-0.2,2.7-0.8
	c0.3-0.1,0.8-0.3,1.7-0.7c0.8-0.3,2-0.7,3.6-0.9"/>
<path class="st0" d="M18.3,16.2c0.8-0.2,1.6-0.3,2.4-0.5L18.3,16.2z"/>
<path class="st4" d="M18.3,16.2c0.8-0.2,1.6-0.3,2.4-0.5"/>
<path class="st0" d="M20.5,13.8c-0.9,0.1-1.9,0.3-3.1,0.7c-1,0.3-1.8,0.6-2.5,1"/>
<path class="st4" d="M20.5,13.8c-0.9,0.1-1.9,0.3-3.1,0.7c-1,0.3-1.8,0.6-2.5,1"/>
<path class="st5" d="M7.6,15.3c-0.5-0.3-1.2-0.1-1.4,0.4c-0.2,0.5,0,1.1,0.3,1.3c0.2,0.2,0.6,0.2,1.2,0.2c0.8,0,0.8-0.1,1.7-0.1
	c0.4,0,0.6,0,1,0c0.3-0.1,0.6-0.1,0.8-0.2c-0.2,0-1.2-0.1-2.1,0c-0.4,0-0.6,0-0.8,0.1c-0.4,0.1-0.4,0.1-0.6,0.1
	c-0.1,0-0.5,0-0.8-0.4c-0.3-0.4-0.2-0.9-0.2-1"/>
<path class="st5" d="M19.7,13.8c0.1,0.1,0.2,0.2,0.3,0.3c0,0.1,0.2,0.3,0.3,0.5c0.2,0.5-0.3,1.1-0.3,1.1c0.1,0,0.5,0.1,0.8-0.2
	c0,0,0.5-0.4,0.4-0.9c-0.1-0.5-0.5-0.7-0.6-0.8C20.2,13.7,19.9,13.7,19.7,13.8L19.7,13.8z"/>
<path class="st0" d="M10.1,19.3c0.7,0.1,1.6,0.3,2.6,0.5c1.2,0.3,1.9,0.4,2.5,0.6c2.4,0.7,4.1,1.8,4.6,1.3c0.2-0.2,0.3-0.5,0.3-0.5
	s0.1-0.4-0.1-0.8c-0.1-0.3-1-1.5-3.8-2c-0.6-0.1-1.5-0.2-2.6-0.2"/>
<path class="st4" d="M10.1,19.3c0.7,0.1,1.6,0.3,2.6,0.5c1.2,0.3,1.9,0.4,2.5,0.6c2.4,0.7,4.1,1.8,4.6,1.3c0.2-0.2,0.3-0.5,0.3-0.5
	s0.1-0.4-0.1-0.8c-0.1-0.3-1-1.5-3.8-2c-0.6-0.1-1.5-0.2-2.6-0.2"/>
<path class="st5" d="M19.6,19.8c0,0,0.8,0.5,0.9,1.1c0,0.4-0.2,0.9-0.7,1.1c-0.6,0.3-1.2-0.3-1.1-0.3c0,0,0.6,0.4,1,0.1
	c0.3-0.1,0.4-0.5,0.4-0.5C20,21.1,20,21,20,20.8c0-0.2,0-0.5-0.1-0.7C19.8,19.9,19.6,19.8,19.6,19.8z"/>
<path class="st0" d="M15.5,20.4c-2.9,0.6-4.1,1.1-4.7,1.4c-0.5,0.3-1.1,0.4-1.7,0.7c-0.2,0.1-0.4,0.2-0.6,0.1
	c-0.4-0.2-0.7-0.8-0.5-1.2c0-0.2,0.2-0.6,2.5-1.2c0.9-0.2,1.7-0.4,2.3-0.5"/>
<path class="st4" d="M15.5,20.4c-2.9,0.6-4.1,1.1-4.7,1.4c-0.5,0.3-1.1,0.4-1.7,0.7c-0.2,0.1-0.4,0.2-0.6,0.1
	c-0.4-0.2-0.7-0.8-0.5-1.2c0-0.2,0.2-0.6,2.5-1.2c0.9-0.2,1.7-0.4,2.3-0.5"/>
<path class="st5" d="M7.8,21.9c0-0.1,0-0.3,0-0.5C8,21,8.3,20.8,8.3,20.8c0,0-0.6,0-0.8,0.5c-0.2,0.4-0.1,0.9,0.2,1.2
	c0.4,0.3,0.9,0.2,0.9,0.1c0-0.1-0.4-0.1-0.7-0.4C7.8,22.1,7.8,21.9,7.8,21.9L7.8,21.9z"/>
<path class="st0" d="M13.3,20.9c1.1,0.1,1.9,0.2,2.6,0.3c0,0,2,0.4,3.4,1.3c0.1,0.1,0.4,0.3,0.5,0.6c0.1,0.3,0,0.7-0.1,0.9
	c-0.4,0.5-1.8-0.6-4.3-1.2c-0.8-0.2-1.7-0.3-3.3-0.5c-0.8-0.1-1.5-0.2-2-0.2"/>
<path class="st4" d="M13.3,20.9c1.1,0.1,1.9,0.2,2.6,0.3c0,0,2,0.4,3.4,1.3c0.1,0.1,0.4,0.3,0.5,0.6c0.1,0.3,0,0.7-0.1,0.9
	c-0.4,0.5-1.8-0.6-4.3-1.2c-0.8-0.2-1.7-0.3-3.3-0.5c-0.8-0.1-1.5-0.2-2-0.2"/>
<path class="st5" d="M19.6,22.8c0.3,0.1,0.6,0.3,0.7,0.6c0.1,0.4-0.2,0.8-0.4,0.9c-0.5,0.4-1.2,0-2.2-0.5c-2-0.9-3.3-1.1-3.3-1.2
	c0-0.1,1.3,0.1,2.7,0.7c1.1,0.5,2.2,1.1,2.6,0.7c0,0,0.1-0.1,0.2-0.3C20,23.4,19.6,22.9,19.6,22.8L19.6,22.8z"/>
<path class="st0" d="M11.6,22.3c-1.2,0.4-2.2,0.7-3,1c-0.2,0.1-0.5,0.2-0.7,0.5c-0.1,0.3-0.1,0.7,0.1,0.9c0.4,0.4,1.2,0,1.7-0.2
	c1.1-0.5,2.6-1.1,4.9-1.8"/>
<path class="st4" d="M11.6,22.3c-1.2,0.4-2.2,0.7-3,1c-0.2,0.1-0.5,0.2-0.7,0.5c-0.1,0.3-0.1,0.7,0.1,0.9c0.4,0.4,1.2,0,1.7-0.2
	c1.1-0.5,2.6-1.1,4.9-1.8"/>
<path class="st5" d="M8.5,23.3c-0.4,0-0.8,0.3-0.9,0.7c-0.1,0.5,0.2,0.8,0.3,0.8c0.3,0.3,0.9,0.3,1.4,0C8.7,25,8.2,24.9,8,24.6
	C7.8,24.3,7.8,24,7.8,24C7.9,23.6,8.1,23.4,8.5,23.3z"/>
<path class="st0" d="M12.8,23.4c1.5,0.2,2.7,0.4,3.5,0.6c2.5,0.6,3,1,3.3,1.5c0.2,0.5,0.2,1.1-0.1,1.3c-0.3,0.3-0.9-0.1-1.2-0.2
	C17,26,15.4,25.8,14,25.4c-1-0.3-2.5-0.7-4.6-0.7"/>
<path class="st4" d="M12.8,23.4c1.5,0.2,2.7,0.4,3.5,0.6c2.5,0.6,3,1,3.3,1.5c0.2,0.5,0.2,1.1-0.1,1.3c-0.3,0.3-0.9-0.1-1.2-0.2
	C17,26,15.4,25.8,14,25.4c-1-0.3-2.5-0.7-4.6-0.7"/>
<path class="st5" d="M19.3,25.1c0.1,0,0.5,0.3,0.6,0.7c0.1,0.4,0.1,0.9-0.2,1.2c-0.3,0.3-0.8,0.1-0.8,0.1c0-0.1,0.5,0,0.7-0.4
	c0.1-0.2,0.1-0.3,0.1-0.5C19.6,26,19.6,25.5,19.3,25.1L19.3,25.1z"/>
<path class="st0" d="M12.4,24.9c-1.1,0.1-1.9,0.2-2.4,0.2c-0.6,0.1-1.1,0.1-1.5,0.5c-0.1,0.1-0.6,0.6-0.5,1.1
	c0.1,0.4,0.4,0.6,0.5,0.6c0.8,0.4,1.7-0.7,3.2-1.3c0.6-0.3,1.6-0.6,3-0.5"/>
<path class="st4" d="M12.4,24.9c-1.1,0.1-1.9,0.2-2.4,0.2c-0.6,0.1-1.1,0.1-1.5,0.5c-0.1,0.1-0.6,0.6-0.5,1.1
	c0.1,0.4,0.4,0.6,0.5,0.6c0.8,0.4,1.7-0.7,3.2-1.3c0.6-0.3,1.6-0.6,3-0.5"/>
<path class="st5" d="M9,25.3c-0.6-0.1-1.2,0.2-1.4,0.6c0,0.1-0.2,0.5-0.1,0.9c0.2,0.5,0.7,0.7,1.3,0.6c-0.4-0.1-0.7-0.3-0.8-0.7
	C7.9,26.2,8.3,25.5,9,25.3L9,25.3z"/>
<path class="st0" d="M11.5,26.1c0.4,0.1,5.6,0.8,7.1,1.5c0.3,0.1,0.9,0.4,1,0.9c0,0.2,0,0.4-0.1,0.5c-0.4,0.7-3-0.5-5.7-1.1
	c-1.1-0.2-2.7-0.5-4.7-0.5"/>
<path class="st4" d="M11.5,26.1c0.4,0.1,5.6,0.8,7.1,1.5c0.3,0.1,0.9,0.4,1,0.9c0,0.2,0,0.4-0.1,0.5c-0.4,0.7-3-0.5-5.7-1.1
	c-1.1-0.2-2.7-0.5-4.7-0.5"/>
<path class="st5" d="M19.1,27.7c0.6,0,1.1,0.5,1.1,0.9c0,0.4-0.4,0.7-0.8,0.8c-0.3,0-0.6-0.2-0.6-0.2c0.3,0.1,0.7-0.1,0.8-0.3
	c0.1-0.2,0-0.5-0.1-0.7C19.3,27.9,19.2,27.8,19.1,27.7z"/>
<path class="st0" d="M11.5,27.5c-0.4,0.2-0.9,0.5-1.7,0.7c-0.8,0.2-1.2,0.1-1.3,0.4c-0.2,0.4,0.2,1.3,0.7,1.6c0.3,0.1,0.5,0,1.6-0.3
	c1.9-0.7,1.6-0.5,2.1-0.7c0.5-0.2,1.2-0.5,2.1-0.9"/>
<path class="st4" d="M11.5,27.5c-0.4,0.2-0.9,0.5-1.7,0.7c-0.8,0.2-1.2,0.1-1.3,0.4c-0.2,0.4,0.2,1.3,0.7,1.6c0.3,0.1,0.5,0,1.6-0.3
	c1.9-0.7,1.6-0.5,2.1-0.7c0.5-0.2,1.2-0.5,2.1-0.9"/>
<path class="st5" d="M8.7,28.4c-0.1,0-0.3,0-0.5,0.2c-0.2,0.2-0.4,0.5-0.3,0.8c0.1,0.6,0.8,0.9,0.9,0.9c0.4,0.1,0.8,0,0.9-0.1
	c-0.6,0-1.1-0.5-1.2-1C8.4,28.8,8.6,28.5,8.7,28.4L8.7,28.4z"/>
<path class="st0" d="M19.1,30.5c0.1-0.1,0.7,0.3,0.7,0.8c0,0.4-0.5,0.7-0.6,0.6c-0.1-0.1,0.1-0.3,0.1-0.7
	C19.3,30.8,19.1,30.6,19.1,30.5L19.1,30.5z"/>
<path class="st6" d="M11,30.6c2.1-0.1,4.2-0.2,6.3-0.4v0.3c-0.3,0.1-0.6,0.3-0.6,0.6c0,0.4,0.3,0.8,0.8,0.7c0,0.2,0,0.3,0,0.5
	c-0.9,0.1-1.8,0.2-2.7,0.2c-1.4,0.1-2.7,0.2-3.9,0.2c0-0.1,0-0.2,0-0.3c0.3,0.1,0.6-0.1,0.8-0.3c0.2-0.3,0.2-0.7,0-1
	c-0.2-0.2-0.5-0.2-0.6-0.2C11,30.8,11,30.7,11,30.6L11,30.6z"/>
<path class="st0" d="M8.7,31c-0.1-0.1-0.9,0.2-0.9,0.7c0,0.6,0.8,0.8,0.9,0.8c0-0.1-0.3-0.3-0.3-0.7C8.3,31.3,8.8,31,8.7,31L8.7,31z
	"/>
<path class="st5" d="M12.2,31c-0.4,0-0.8-0.1-1.4-0.1c-0.9,0-1.1,0.1-1.2,0.2c-0.3,0.3-0.3,0.9-0.1,1.2c0.2,0.2,0.4,0.2,0.9,0.2
	c0.4,0,1.1,0,1.9,0"/>
<path class="st4" d="M12.2,31c-0.4,0-0.8-0.1-1.4-0.1c-0.9,0-1.1,0.1-1.2,0.2c-0.3,0.3-0.3,0.9-0.1,1.2c0.2,0.2,0.4,0.2,0.9,0.2
	c0.4,0,1.1,0,1.9,0"/>
<path class="st5" d="M16.7,30.5c0.2,0,0.5,0,0.9,0c1,0,1.2,0,1.3,0.2c0.2,0.3,0.2,0.8,0,1.1c-0.1,0.1-0.3,0.2-0.8,0.2
	c-0.4,0-0.8,0-1.4-0.1"/>
<path class="st4" d="M16.7,30.5c0.2,0,0.5,0,0.9,0c1,0,1.2,0,1.3,0.2c0.2,0.3,0.2,0.8,0,1.1c-0.1,0.1-0.3,0.2-0.8,0.2
	c-0.4,0-0.8,0-1.4-0.1"/>
<path class="st7" d="M6,34c0.1,0,0.1,0.2,0,0.3c0,0.1-0.1,0.1-0.1,0.1c0,0-0.1-0.1,0-0.2C5.8,34.1,5.9,34,6,34L6,34z"/>
<path class="st7" d="M5.6,36.6c0.1,0,0.1,0.2,0.1,0.3c0,0.1-0.1,0.2-0.1,0.2c0,0-0.1-0.1-0.1-0.2C5.5,36.7,5.5,36.6,5.6,36.6z"/>
<path class="st7" d="M7.3,36.4c0.1,0,0.1,0.2,0.1,0.3c0,0.1-0.1,0.2-0.1,0.2c0,0-0.1-0.1-0.1-0.2C7.2,36.5,7.3,36.4,7.3,36.4z"/>
<path class="st7" d="M6.7,38.9c0.1,0,0.1,0.2,0.1,0.3c0,0.1-0.1,0.2-0.1,0.2c0,0-0.1-0.1-0.1-0.2C6.6,39,6.7,38.9,6.7,38.9z"/>
<path class="st7" d="M8.9,39.1c0.1,0,0.1,0.2,0.1,0.3c0,0.1-0.1,0.2-0.1,0.2c0,0-0.1-0.1-0.1-0.2C8.8,39.3,8.8,39.1,8.9,39.1z"/>
<path class="st7" d="M9.2,36.6c0.1,0,0.1,0.2,0.1,0.3c0,0.1-0.1,0.2-0.1,0.2c0,0-0.1-0.1-0.1-0.2C9.1,36.7,9.1,36.6,9.2,36.6z"/>
<path class="st7" d="M11.1,38.2c0.1,0,0.1,0.2,0.1,0.3c0,0.1-0.1,0.2-0.1,0.2c0,0-0.1-0.1-0.1-0.2C11,38.4,11,38.2,11.1,38.2z"/>
<path class="st7" d="M11.5,36.3c0.1,0,0.1,0.2,0.1,0.3c0,0.1-0.1,0.2-0.1,0.2c0,0-0.1-0.1-0.1-0.2C11.4,36.4,11.5,36.3,11.5,36.3z"
	/>
<path class="st7" d="M13.9,36.1c0.1,0,0.1,0.2,0.1,0.3c0,0.1-0.1,0.2-0.1,0.2c0,0-0.1-0.1-0.1-0.2C13.8,36.3,13.8,36.1,13.9,36.1z"
	/>
<path class="st7" d="M15.9,36.1c0.1,0,0.1,0.2,0.1,0.3c0,0.1-0.1,0.2-0.1,0.2c0,0-0.1-0.1-0.1-0.2C15.8,36.2,15.8,36.1,15.9,36.1z"
	/>
<path class="st7" d="M18.2,35.9c0.1,0,0.1,0.2,0.1,0.3c0,0.1-0.1,0.2-0.1,0.2c0,0-0.1-0.1-0.1-0.2C18.1,36,18.1,35.9,18.2,35.9z"/>
<path class="st7" d="M20.1,35.6c0.1,0,0.1,0.2,0.1,0.3c0,0.1-0.1,0.2-0.1,0.2c0,0-0.1-0.1-0.1-0.2C20,35.7,20,35.6,20.1,35.6z"/>
<path class="st7" d="M22.4,36.1c0.1,0,0.1,0.2,0.1,0.3c0,0.1-0.1,0.2-0.1,0.2c0,0-0.1-0.1-0.1-0.2C22.3,36.3,22.4,36.1,22.4,36.1z"
	/>
<path class="st7" d="M20.9,38.1c0.1,0,0.1,0.2,0.1,0.3c0,0.1-0.1,0.2-0.1,0.2c0,0-0.1-0.1-0.1-0.2C20.8,38.2,20.8,38.1,20.9,38.1z"
	/>
<path class="st7" d="M18.7,38.2c0.1,0,0.1,0.2,0.1,0.3c0,0.1-0.1,0.2-0.1,0.2c0,0-0.1-0.1-0.1-0.2C18.6,38.4,18.6,38.2,18.7,38.2z"
	/>
<path class="st7" d="M16.5,40c0.1,0,0.1,0.2,0.1,0.3c0,0.1-0.1,0.2-0.1,0.2c0,0-0.1-0.1-0.1-0.2C16.4,40.2,16.5,40,16.5,40z"/>
<path class="st7" d="M19.1,41.2c0.1,0,0.1,0.2,0.1,0.3c0,0.1-0.1,0.2-0.1,0.2c0,0-0.1-0.1-0.1-0.2C19,41.3,19.1,41.2,19.1,41.2z"/>
<path class="st7" d="M16.9,42.7c0.1,0,0.1,0.2,0.1,0.3c0,0.1-0.1,0.2-0.1,0.2c0,0-0.1-0.1-0.1-0.2C16.8,42.8,16.8,42.7,16.9,42.7z"
	/>
<path class="st7" d="M14.1,42.3c0.1,0,0.1,0.2,0.1,0.3c0,0.1-0.1,0.2-0.1,0.2c0,0-0.1-0.1-0.1-0.2C14,42.4,14.1,42.3,14.1,42.3z"/>
<path class="st7" d="M14.1,40c0.1,0,0.1,0.2,0.1,0.3c0,0.1-0.1,0.2-0.1,0.2c0,0-0.1-0.1-0.1-0.2C14,40.2,14.1,40,14.1,40z"/>
<path class="st7" d="M14.2,44.4c0.1,0,0.1,0.2,0.1,0.3c0,0.1-0.1,0.2-0.1,0.2c0,0-0.1-0.1-0.1-0.2C14.1,44.5,14.2,44.4,14.2,44.4z"
	/>
<path class="st7" d="M10.6,42.9c0.1,0,0.1,0.2,0.1,0.3c0,0.1-0.1,0.2-0.1,0.2c0,0-0.1-0.1-0.1-0.2C10.5,43.1,10.6,42.9,10.6,42.9z"
	/>
<path class="st7" d="M11,40.6c0.1,0,0.1,0.2,0.1,0.3c0,0.1-0.1,0.2-0.1,0.2c0,0-0.1-0.1-0.1-0.2C10.9,40.7,10.9,40.6,11,40.6z"/>
<path class="st7" d="M8.4,41.6c0.1,0,0.1,0.2,0.1,0.3c0,0.1-0.1,0.2-0.1,0.2c0,0-0.1-0.1-0.1-0.2C8.3,41.8,8.3,41.6,8.4,41.6z"/>
<path class="st7" d="M14,38.2c0.1,0,0.1,0.2,0.1,0.3c0,0.1-0.1,0.2-0.1,0.2c0,0-0.1-0.1-0.1-0.2C13.9,38.3,14,38.2,14,38.2z"/>
<path class="st7" d="M16.3,38.1c0.1,0,0.1,0.2,0.1,0.3c0,0.1-0.1,0.2-0.1,0.2c0,0-0.1-0.1-0.1-0.2C16.2,38.3,16.3,38.1,16.3,38.1z"
	/>
<path class="st0" d="M36,13.3c1.1,0,2.1,1.2,2.3,2.4c0.5,2-1,4.3-2,4.2c-1.3-0.1-2.7-4.3-1.6-5.9C35.1,13.3,35.9,13.3,36,13.3z"/>
<path class="st0" d="M37.2,19c0.1,0.6,0.4,0.9,0.7,0.9c0.3-0.1,0.4-0.6,0.3-1.1c-0.1-0.5-0.4-0.9-0.7-0.9C37.2,18,37.1,18.4,37.2,19
	z"/>
<path class="st0" d="M38,26.1c0.8-0.2,1.2-1.8,0.9-3.6c-0.3-1.8-1.3-3.1-2.1-2.9c-0.8,0.2-1.2,1.8-0.9,3.6
	C36.2,25,37.1,26.3,38,26.1z"/>
<path class="st0" d="M38.7,28.2c0.6-0.1,1-1,0.8-1.8c-0.2-0.9-0.8-1.4-1.4-1.3s-1,1-0.8,1.8C37.5,27.8,38.1,28.4,38.7,28.2z"/>
<path class="st0" d="M63.1,40.5c0.2,0.4,0.4,1,0.4,1.7c0,1.4-0.8,2.4-2,3.6c-2.4,2.5-3.7,4-6.2,5.1c-2.3,1-4.1,1.1-5.8,1.2
	c-2.3,0.1-3.8,0.2-5.5-0.7c-2.1-1.1-3.3-3.1-3.8-4.1"/>
<path class="st8" d="M63.1,40.5c0.2,0.4,0.4,1,0.4,1.7c0,1.4-0.8,2.4-2,3.6c-2.4,2.5-3.7,4-6.2,5.1c-2.3,1-4.1,1.1-5.8,1.2
	c-2.3,0.1-3.8,0.2-5.5-0.7c-2.1-1.1-3.3-3.1-3.8-4.1"/>
<path class="st0" d="M63.5,42.2c0.2,0.6,0.5,1.6,0.6,2.7c0,0,0.2,1.3,0.1,2.4c-0.2,3.3-4.4,6.3-4.8,6.5c-2.3,1.6-4.4,2-8.6,2.7
	c-1.6,0.3-2.9,0.4-4.5,0.1c-1.5-0.3-3.2-0.6-4.2-2C41.6,54,41.4,53,40.9,51c-0.3-1.4-0.5-2.6-0.6-3.5"/>
<path class="st8" d="M63.5,42.2c0.2,0.6,0.5,1.6,0.6,2.7c0,0,0.2,1.3,0.1,2.4c-0.2,3.3-4.4,6.3-4.8,6.5c-2.3,1.6-4.4,2-8.6,2.7
	c-1.6,0.3-2.9,0.4-4.5,0.1c-1.5-0.3-3.2-0.6-4.2-2C41.6,54,41.4,53,40.9,51c-0.3-1.4-0.5-2.6-0.6-3.5"/>
<path class="st0" d="M35.2,12.3c0-0.1,0.2-1.1,0.9-1.5c0.8-0.4,2,0.1,2.6,1.4c-0.1-0.7,0-1.6,0.4-2.3C39.7,9,40.5,9,43.2,8.3
	c1.8-0.4,3.5-1,5.5-0.9c0.5,0,1.1,0.1,1.6,0.5c0.6,0.6,0.8,1.8,0.9,2c0.1,0.7,0.1,1.1,0.4,1.3c0.2,0.1,0.4,0,0.5-0.1
	c0.1-0.2,0-0.5-0.1-0.9c-0.2-0.7,0-1.5,0.3-1.9c0.3-0.5,0.8-0.8,1.3-0.8c1.7-0.1,3,3.3,3.3,4c0.4,1,0.6,1.8,0.9,3.3
	c0.2,0.8,0.3,1.7,0.5,3c0.5,3.3,0.4,3.6,0.8,6.2c0.2,0.9,0.4,2.5,0.9,4.4c0.4,1.4,0.5,1.7,0.8,3.1c0.4,2.1,0.3,2.2,0.6,3.5
	c0.4,1.4,0.7,1.6,1.2,3.3c0.1,0.2,0.5,1.6,0.5,2.4c0.3,3.1-3.8,6.6-6.9,8.1c-2.6,1.3-4.7,1.5-7.6,1.8c-2.5,0.2-3.8,0-4.9-0.4
	c-0.9-0.3-2.5-1-3.6-2.8c-0.7-1.2-0.8-2.3-1-3.5c-0.2-2.1,0.2-2.2,0.1-4.3c-0.1-0.9-0.1-0.9-1.2-6.1c-0.4-2-0.5-2.6-0.3-3.4
	c0.4-1.4,1.4-2.7,1.4-2.7c0.3-0.4,0.4-0.5,0.4-0.7c0.1-0.9-0.8-1.8-1.1-2.9c-0.1-0.2-0.1-0.4-0.1-0.5c0-0.4,0.1-0.6,0.1-0.9
	c0.1-0.3,0-0.6,0-1.1c0-0.9-0.2-1.8-0.4-2.7c-0.4-2.1-0.1-2.1-0.4-2.7c-0.4-0.8-0.8-0.7-1.6-1.7C35.5,13,35.4,12.2,35.2,12.3
	c-0.4,0-0.6,2.4-0.5,4.5c0.2,2.4,0.7,4.3,1,5.4c0.7,2,1.1,2.4,1.6,4.4c0.4,1.4,0.5,2.7,0.5,3.5"/>
<path class="st8" d="M35.2,12.3c0-0.1,0.2-1.1,0.9-1.5c0.8-0.4,2,0.1,2.6,1.4c-0.1-0.7,0-1.6,0.4-2.3C39.7,9,40.5,9,43.2,8.3
	c1.8-0.4,3.5-1,5.5-0.9c0.5,0,1.1,0.1,1.6,0.5c0.6,0.6,0.8,1.8,0.9,2c0.1,0.7,0.1,1.1,0.4,1.3c0.2,0.1,0.4,0,0.5-0.1
	c0.1-0.2,0-0.5-0.1-0.9c-0.2-0.7,0-1.5,0.3-1.9c0.3-0.5,0.8-0.8,1.3-0.8c1.7-0.1,3,3.3,3.3,4c0.4,1,0.6,1.8,0.9,3.3
	c0.2,0.8,0.3,1.7,0.5,3c0.5,3.3,0.4,3.6,0.8,6.2c0.2,0.9,0.4,2.5,0.9,4.4c0.4,1.4,0.5,1.7,0.8,3.1c0.4,2.1,0.3,2.2,0.6,3.5
	c0.4,1.4,0.7,1.6,1.2,3.3c0.1,0.2,0.5,1.6,0.5,2.4c0.3,3.1-3.8,6.6-6.9,8.1c-2.6,1.3-4.7,1.5-7.6,1.8c-2.5,0.2-3.8,0-4.9-0.4
	c-0.9-0.3-2.5-1-3.6-2.8c-0.7-1.2-0.8-2.3-1-3.5c-0.2-2.1,0.2-2.2,0.1-4.3c-0.1-0.9-0.1-0.9-1.2-6.1c-0.4-2-0.5-2.6-0.3-3.4
	c0.4-1.4,1.4-2.7,1.4-2.7c0.3-0.4,0.4-0.5,0.4-0.7c0.1-0.9-0.8-1.8-1.1-2.9c-0.1-0.2-0.1-0.4-0.1-0.5c0-0.4,0.1-0.6,0.1-0.9
	c0.1-0.3,0-0.6,0-1.1c0-0.9-0.2-1.8-0.4-2.7c-0.4-2.1-0.1-2.1-0.4-2.7c-0.4-0.8-0.8-0.7-1.6-1.7C35.5,13,35.4,12.2,35.2,12.3
	c-0.4,0-0.6,2.4-0.5,4.5c0.2,2.4,0.7,4.3,1,5.4c0.7,2,1.1,2.4,1.6,4.4c0.4,1.4,0.5,2.7,0.5,3.5"/>
<path class="st9" d="M56.6,29c0.2-0.2,0.6-0.1,0.7-0.1c0.9,0.2,2.5,2.9,2.5,6c0,4.8-3.8,7.8-4,8c-0.6,0.4-2.1,1-5,2
	c-2.9,1-4,1.2-5,0.8c-0.9-0.3-1.6-1-2.4-1.7c-0.6-0.5-1.5-1.4-2.3-2.9c-0.2-0.3-1.3-2.5-1.3-5.5c0-0.7,0.1-2.3,0.9-3.1
	c0.2-0.2,0.3-0.3,0.4-0.2c0.6,0.1,0.4,1.7,1.3,2.4c0.2,0.1,0.5,0.3,2,0.2c1.2-0.1,2.1-0.4,3.5-0.8c2.5-0.7,2.4-0.8,3-0.9
	c1.6-0.1,1.8,0.5,3.1,0.2c0.2,0,2.3-0.5,2.6-1.8c0.2-0.9,0.1-1.6,0.1-1.6C56.6,29.5,56.5,29.2,56.6,29L56.6,29z"/>
<path class="st0" d="M55,8.2c1.1,2.2,1,3.7,0.8,4.6c-0.4,1.2-1.2,1.7-1.1,3c0.1,0.9,0.5,0.9,0.7,2c0.1,1.3-0.3,1.6-0.2,2.8
	c0.2,1.3,0.8,1.2,1,2.6c0.2,1.2-0.2,1.6-0.1,3.1c0.1,1.1,0.4,2.1,0.7,2.6"/>
<path class="st8" d="M55,8.2c1.1,2.2,1,3.7,0.8,4.6c-0.4,1.2-1.2,1.7-1.1,3c0.1,0.9,0.5,0.9,0.7,2c0.1,1.3-0.3,1.6-0.2,2.8
	c0.2,1.3,0.8,1.2,1,2.6c0.2,1.2-0.2,1.6-0.1,3.1c0.1,1.1,0.4,2.1,0.7,2.6"/>
<path class="st0" d="M41.2,32c-0.3-0.7-0.7-1.5-1-2.6c-0.3-1.2-0.4-2.3-0.5-3.1"/>
<path class="st8" d="M41.2,32c-0.3-0.7-0.7-1.5-1-2.6c-0.3-1.2-0.4-2.3-0.5-3.1"/>
<path class="st0" d="M55.3,13.7c0.4,0.5,0.9,1.1,1.3,1.7c0.7,0.9,1.2,1.7,1.7,2.6"/>
<path class="st8" d="M55.3,13.7c0.4,0.5,0.9,1.1,1.3,1.7c0.7,0.9,1.2,1.7,1.7,2.6"/>
<path class="st0" d="M56.3,15.2c-0.2,0.8-0.5,2.5,0,4.6c0.7,2.8,2.4,4.3,2.9,4.7"/>
<path class="st8" d="M56.3,15.2c-0.2,0.8-0.5,2.5,0,4.6c0.7,2.8,2.4,4.3,2.9,4.7"/>
<path class="st0" d="M56.2,24c0.4,0.1,1.5,0.3,2.5,1.4c0.8,0.8,1,1.7,1.2,2.2"/>
<path class="st8" d="M56.2,24c0.4,0.1,1.5,0.3,2.5,1.4c0.8,0.8,1,1.7,1.2,2.2"/>
<path class="st0" d="M38.1,16.9c-0.2,0.3-0.5,0.7-0.9,1.2c-0.2,0.3-0.4,0.6-0.5,0.7c-0.2,0.3-0.7,1.2-1,3.2"/>
<path class="st8" d="M38.1,16.9c-0.2,0.3-0.5,0.7-0.9,1.2c-0.2,0.3-0.4,0.6-0.5,0.7c-0.2,0.3-0.7,1.2-1,3.2"/>
<path class="st0" d="M36.7,18.7c0.3,0.4,0.8,1,1.2,1.8c0.4,0.9,0.6,1.7,0.7,2.2"/>
<path class="st8" d="M36.7,18.7c0.3,0.4,0.8,1,1.2,1.8c0.4,0.9,0.6,1.7,0.7,2.2"/>
<path class="st0" d="M38.6,23.7c0,0.4,0,1.2-0.2,2c-0.2,0.8-0.6,1.3-0.9,1.6"/>
<path class="st8" d="M38.6,23.7c0,0.4,0,1.2-0.2,2c-0.2,0.8-0.6,1.3-0.9,1.6"/>
<path class="st10" d="M53,11.7c-0.3-0.5-1.2-0.5-2.6-0.2c-2.8,0.5-4.8,1.4-4.8,1.4c-3.5,1.5-5.9,2.5-5.9,4.1c0,0.3,0.1,0.8,0.3,1
	c0.5,0.4,1.5-0.5,2.9-1.5c0.2-0.1,1.7-1.1,3.3-1.7c0.9-0.3,3.6-1.3,5.6-1.5c0.2,0,0.9,0,1.2-0.5C53.1,12.5,53.1,12,53,11.7L53,11.7z
	"/>
<path class="st0" d="M48.2,14c1.3-0.1,2.3,0.1,3,0.3c0.4,0.1,2.1,0.7,2.1,1.4c0,0.3-0.2,0.4-0.3,0.5c-0.6,0.5-1.4,0.1-2.9-0.2
	c-0.3-0.1-0.9-0.1-1.9-0.3c-0.9-0.1-2.2-0.2-3.9-0.1"/>
<path class="st11" d="M48.2,14c1.3-0.1,2.3,0.1,3,0.3c0.4,0.1,2.1,0.7,2.1,1.4c0,0.3-0.2,0.4-0.3,0.5c-0.6,0.5-1.4,0.1-2.9-0.2
	c-0.3-0.1-0.9-0.1-1.9-0.3c-0.9-0.1-2.2-0.2-3.9-0.1"/>
<path class="st0" d="M41.4,14.9c-0.9,0-1.7,0-2.6,0.1L41.4,14.9z"/>
<path class="st11" d="M41.4,14.9c-0.9,0-1.7,0-2.6,0.1"/>
<path class="st0" d="M38.7,12.9c0.9-0.1,2-0.1,3.2,0c1,0.1,2,0.2,2.8,0.4"/>
<path class="st11" d="M38.7,12.9c0.9-0.1,2-0.1,3.2,0c1,0.1,2,0.2,2.8,0.4"/>
<path class="st5" d="M52,11.3c0.5-0.4,1.2-0.3,1.5,0.1c0.3,0.4,0.2,1.1-0.1,1.5c-0.2,0.3-0.5,0.4-1.2,0.6c-0.8,0.2-0.8,0.1-1.7,0.3
	c-0.4,0.1-0.6,0.2-1,0.2c-0.4,0-0.7,0-0.9,0c0.2-0.1,1.2-0.4,2.1-0.5c0.4-0.1,0.6-0.1,0.8-0.1c0.4,0,0.4,0,0.7,0
	c0.1,0,0.5-0.2,0.7-0.6c0.2-0.5,0-1,0-1.1"/>
<path class="st5" d="M39.4,12.6c-0.1,0.1-0.2,0.2-0.2,0.4c0,0.1-0.2,0.4-0.2,0.6c-0.1,0.6,0.5,1.1,0.6,1.1c-0.1,0-0.5,0.2-0.9,0
	c0,0-0.5-0.3-0.6-0.8c0-0.5,0.4-0.9,0.5-1C38.9,12.7,39.3,12.6,39.4,12.6z"/>
<path class="st0" d="M50.3,16.1c-0.7,0.3-1.6,0.7-2.6,1.2c-1.2,0.6-1.8,0.9-2.4,1.2c-2.3,1.3-3.8,2.9-4.4,2.4
	c-0.2-0.2-0.4-0.5-0.4-0.5s-0.2-0.4-0.1-0.8c0-0.3,0.7-1.8,3.5-3c0.6-0.3,1.5-0.6,2.6-0.8"/>
<path class="st11" d="M50.3,16.1c-0.7,0.3-1.6,0.7-2.6,1.2c-1.2,0.6-1.8,0.9-2.4,1.2c-2.3,1.3-3.8,2.9-4.4,2.4
	c-0.2-0.2-0.4-0.5-0.4-0.5s-0.2-0.4-0.1-0.8c0-0.3,0.7-1.8,3.5-3c0.6-0.3,1.5-0.6,2.6-0.8"/>
<path class="st5" d="M40.8,18.9c0,0-0.7,0.7-0.7,1.4c0,0.4,0.4,0.9,0.9,0.9c0.7,0.1,1.1-0.6,1.1-0.6c0,0-0.5,0.5-1,0.4
	c-0.3-0.1-0.5-0.4-0.5-0.4c-0.1-0.2-0.1-0.3-0.2-0.4c0-0.2-0.1-0.5,0-0.8C40.6,19,40.8,18.9,40.8,18.9L40.8,18.9z"/>
<path class="st0" d="M45.1,18.6c3.1-0.1,4.4,0.1,5.1,0.3c0.6,0.2,1.3,0.2,1.9,0.3c0.2,0,0.5,0.1,0.7,0c0.4-0.3,0.5-1,0.3-1.4
	c-0.1-0.2-0.3-0.6-2.7-0.7c-1,0-1.8,0-2.4,0.1"/>
<path class="st11" d="M45.1,18.6c3.1-0.1,4.4,0.1,5.1,0.3c0.6,0.2,1.3,0.2,1.9,0.3c0.2,0,0.5,0.1,0.7,0c0.4-0.3,0.5-1,0.3-1.4
	c-0.1-0.2-0.3-0.6-2.7-0.7c-1,0-1.8,0-2.4,0.1"/>
<path class="st5" d="M53.1,18.3c0-0.1,0-0.3-0.1-0.6c-0.2-0.4-0.6-0.4-0.6-0.4c0,0,0.6-0.1,0.9,0.3c0.3,0.4,0.3,1,0,1.3
	c-0.3,0.4-0.9,0.4-0.9,0.4c0-0.1,0.4-0.1,0.6-0.6C53.1,18.5,53.1,18.3,53.1,18.3L53.1,18.3z"/>
<path class="st0" d="M47.4,18.6c-1.1,0.3-1.9,0.7-2.6,1c0,0-1.9,0.8-3.2,2.2c-0.1,0.1-0.3,0.4-0.4,0.7c0,0.3,0.1,0.8,0.3,0.9
	c0.6,0.5,1.7-1,4.1-2.3c0.8-0.4,1.6-0.7,3.3-1.3c0.8-0.3,1.5-0.5,2-0.7"/>
<path class="st11" d="M47.4,18.6c-1.1,0.3-1.9,0.7-2.6,1c0,0-1.9,0.8-3.2,2.2c-0.1,0.1-0.3,0.4-0.4,0.7c0,0.3,0.1,0.8,0.3,0.9
	c0.6,0.5,1.7-1,4.1-2.3c0.8-0.4,1.6-0.7,3.3-1.3c0.8-0.3,1.5-0.5,2-0.7"/>
<path class="st5" d="M41.3,22c-0.3,0.2-0.6,0.5-0.6,0.8c0,0.4,0.3,0.7,0.6,0.9c0.6,0.3,1.2-0.3,2.2-1.1c1.8-1.4,3.2-2,3.2-2
	c0,0-1.3,0.4-2.6,1.4c-1,0.7-2,1.7-2.5,1.4c0,0-0.1-0.1-0.2-0.2C41.1,22.8,41.3,22.2,41.3,22L41.3,22z"/>
<path class="st0" d="M49.3,19.7c1.3,0.1,2.4,0.2,3.2,0.3c0.2,0,0.6,0,0.8,0.4c0.2,0.3,0.2,0.7,0,1c-0.3,0.5-1.3,0.3-1.7,0.2
	c-1.2-0.2-2.9-0.5-5.3-0.7"/>
<path class="st11" d="M49.3,19.7c1.3,0.1,2.4,0.2,3.2,0.3c0.2,0,0.6,0,0.8,0.4c0.2,0.3,0.2,0.7,0,1c-0.3,0.5-1.3,0.3-1.7,0.2
	c-1.2-0.2-2.9-0.5-5.3-0.7"/>
<path class="st5" d="M52.7,19.9c0.4-0.1,0.9,0.1,1,0.5c0.2,0.4-0.1,0.9-0.1,0.9c-0.3,0.4-0.8,0.6-1.4,0.3c0.6,0.1,1.1-0.1,1.3-0.5
	c0.1-0.3,0-0.6,0-0.7C53.4,20.1,53.1,19.9,52.7,19.9L52.7,19.9z"/>
<path class="st0" d="M48.4,21.1c-1.4,0.6-2.6,1.1-3.4,1.5c-2.4,1.2-2.9,1.7-3,2.4c-0.1,0.5,0,1.2,0.4,1.4c0.4,0.2,0.9-0.3,1.1-0.5
	c1.2-1.1,2.7-1.6,4-2.4c1-0.6,2.4-1.4,4.5-1.8"/>
<path class="st11" d="M48.4,21.1c-1.4,0.6-2.6,1.1-3.4,1.5c-2.4,1.2-2.9,1.7-3,2.4c-0.1,0.5,0,1.2,0.4,1.4c0.4,0.2,0.9-0.3,1.1-0.5
	c1.2-1.1,2.7-1.6,4-2.4c1-0.6,2.4-1.4,4.5-1.8"/>
<path class="st5" d="M42.1,24.4c-0.1,0.1-0.4,0.4-0.5,0.9c-0.1,0.4,0.1,1,0.5,1.2c0.4,0.2,0.9-0.1,0.9-0.1c0-0.1-0.5,0.1-0.8-0.2
	c-0.1-0.1-0.1-0.3-0.2-0.5C41.9,25.4,41.9,24.9,42.1,24.4L42.1,24.4z"/>
<path class="st0" d="M49,22.6c1.1-0.1,2-0.3,2.5-0.3c0.6-0.1,1.1-0.2,1.6,0.1c0.1,0.1,0.7,0.4,0.7,1c0,0.4-0.3,0.7-0.3,0.7
	c-0.7,0.6-1.9-0.3-3.5-0.6c-0.7-0.1-1.8-0.2-3.2,0.3"/>
<path class="st11" d="M49,22.6c1.1-0.1,2-0.3,2.5-0.3c0.6-0.1,1.1-0.2,1.6,0.1c0.1,0.1,0.7,0.4,0.7,1c0,0.4-0.3,0.7-0.3,0.7
	c-0.7,0.6-1.9-0.3-3.5-0.6c-0.7-0.1-1.8-0.2-3.2,0.3"/>
<path class="st5" d="M52.6,22.2c0.6-0.3,1.2-0.1,1.6,0.3c0,0,0.3,0.4,0.2,0.9c-0.1,0.5-0.6,0.9-1.3,0.9c0.4-0.2,0.7-0.5,0.7-0.9
	C53.9,22.9,53.3,22.2,52.6,22.2L52.6,22.2z"/>
<path class="st0" d="M50.2,23.6c-0.3,0.1-5.6,2.2-6.9,3.2C43,27,42.5,27.4,42.5,28c0,0.2,0.1,0.4,0.2,0.5c0.6,0.7,2.9-1.2,5.6-2.5
	c1-0.5,2.6-1.2,4.7-1.6"/>
<path class="st11" d="M50.2,23.6c-0.3,0.1-5.6,2.2-6.9,3.2C43,27,42.5,27.4,42.5,28c0,0.2,0.1,0.4,0.2,0.5c0.6,0.7,2.9-1.2,5.6-2.5
	c1-0.5,2.6-1.2,4.7-1.6"/>
<path class="st5" d="M42.8,27.1c-0.7,0.1-1,0.8-0.9,1.2c0.1,0.4,0.5,0.7,1,0.6c0.3-0.1,0.5-0.3,0.6-0.4c-0.3,0.1-0.7,0.1-0.8-0.1
	c-0.2-0.2-0.1-0.6-0.1-0.7C42.6,27.4,42.7,27.2,42.8,27.1L42.8,27.1z"/>
<path class="st0" d="M50.4,25.1c0.4,0.1,1.1,0.3,1.8,0.3c0.8,0,1.2-0.2,1.4,0.1c0.3,0.4,0.1,1.4-0.4,1.8c-0.3,0.2-0.5,0.2-1.7,0
	c-2-0.2-1.7-0.2-2.2-0.3c-0.6-0.1-1.4-0.2-2.3-0.5"/>
<path class="st11" d="M50.4,25.1c0.4,0.1,1.1,0.3,1.8,0.3c0.8,0,1.2-0.2,1.4,0.1c0.3,0.4,0.1,1.4-0.4,1.8c-0.3,0.2-0.5,0.2-1.7,0
	c-2-0.2-1.7-0.2-2.2-0.3c-0.6-0.1-1.4-0.2-2.3-0.5"/>
<path class="st5" d="M53.4,25.3c0.1,0,0.3,0,0.5,0.1c0.3,0.1,0.5,0.5,0.5,0.8c0.1,0.7-0.7,1.1-0.7,1.1c-0.4,0.2-0.8,0.1-1,0.1
	c0.6-0.2,1.1-0.8,1-1.3C53.8,25.7,53.5,25.4,53.4,25.3L53.4,25.3z"/>
<path class="st0" d="M43.3,30.1c-0.1-0.1-0.7,0.5-0.5,1c0.1,0.4,0.7,0.6,0.8,0.4c0.1-0.1-0.2-0.3-0.2-0.7
	C43.2,30.4,43.3,30.1,43.3,30.1L43.3,30.1z"/>
<path class="st12" d="M51.6,28.2c-2.1,0.4-4.3,0.7-6.5,1.1l0.1,0.3c0.3,0,0.6,0.2,0.7,0.5c0.1,0.4-0.2,0.9-0.6,1
	c0,0.2,0.1,0.3,0.1,0.5c0.9-0.1,1.8-0.2,2.8-0.4c1.4-0.2,2.7-0.5,4-0.8c0-0.1,0-0.2,0-0.4c-0.3,0.1-0.6,0.1-0.9-0.2
	c-0.2-0.2-0.3-0.7-0.2-1c0.2-0.3,0.5-0.4,0.5-0.4C51.6,28.4,51.6,28.3,51.6,28.2L51.6,28.2z"/>
<path class="st0" d="M53.9,28c0-0.1,1-0.1,1.1,0.5c0.1,0.6-0.7,1.1-0.7,1c-0.1,0,0.3-0.4,0.2-0.8C54.4,28.3,53.9,28.1,53.9,28
	L53.9,28z"/>
<path class="st5" d="M50.4,28.8c0.4-0.1,0.8-0.3,1.4-0.4c0.9-0.2,1.1-0.2,1.3,0c0.3,0.3,0.5,0.9,0.3,1.2c-0.1,0.3-0.4,0.3-0.9,0.4
	c-0.5,0.1-1.1,0.2-1.9,0.5"/>
<path class="st11" d="M50.4,28.8c0.4-0.1,0.8-0.3,1.4-0.4c0.9-0.2,1.1-0.2,1.3,0c0.3,0.3,0.5,0.9,0.3,1.2c-0.1,0.3-0.4,0.3-0.9,0.4
	c-0.5,0.1-1.1,0.2-1.9,0.5"/>
<path class="st5" d="M45.7,29.5c-0.2,0-0.5,0.1-0.9,0.2c-1,0.2-1.2,0.3-1.3,0.5c-0.2,0.3-0.1,0.9,0.2,1.1c0.2,0.1,0.3,0.1,0.9,0
	c0.4-0.1,0.8-0.2,1.4-0.4"/>
<path class="st11" d="M45.7,29.5c-0.2,0-0.5,0.1-0.9,0.2c-1,0.2-1.2,0.3-1.3,0.5c-0.2,0.3-0.1,0.9,0.2,1.1c0.2,0.1,0.3,0.1,0.9,0
	c0.4-0.1,0.8-0.2,1.4-0.4"/>
<path class="st13" d="M57.3,30.6c-0.1,0-0.1,0.2,0,0.3c0,0.1,0.1,0.1,0.2,0.1c0,0,0-0.1,0-0.2C57.5,30.7,57.4,30.5,57.3,30.6
	L57.3,30.6z"/>
<path class="st13" d="M58.2,33.1c-0.1,0-0.1,0.2-0.1,0.3c0,0.1,0.1,0.1,0.1,0.1c0.1,0,0.1-0.1,0.1-0.2
	C58.4,33.3,58.3,33.1,58.2,33.1z"/>
<path class="st13" d="M56.4,33.4c-0.1,0-0.1,0.2-0.1,0.3c0,0.1,0.1,0.1,0.1,0.1c0.1,0,0.1-0.1,0.1-0.2
	C56.5,33.5,56.5,33.4,56.4,33.4z"/>
<path class="st13" d="M57.5,35.9c-0.1,0-0.1,0.2-0.1,0.3c0,0.1,0.1,0.1,0.1,0.1c0.1,0,0.1-0.1,0.1-0.2C57.6,36,57.5,35.8,57.5,35.9z
	"/>
<path class="st13" d="M55.4,36.6c-0.1,0-0.1,0.2-0.1,0.3c0,0.1,0.1,0.1,0.1,0.1c0.1,0,0.1-0.1,0.1-0.2
	C55.5,36.8,55.4,36.6,55.4,36.6z"/>
<path class="st13" d="M54.6,34c-0.1,0-0.1,0.2-0.1,0.3c0,0.1,0.1,0.1,0.1,0.1c0.1,0,0.1-0.1,0.1-0.2C54.7,34.2,54.6,34,54.6,34z"/>
<path class="st13" d="M53,36.2c-0.1,0-0.1,0.2-0.1,0.3c0,0.1,0.1,0.1,0.1,0.1c0.1,0,0.1-0.1,0.1-0.2C53.1,36.3,53,36.2,53,36.2z"/>
<path class="st13" d="M52.1,34.3c-0.1,0-0.1,0.2-0.1,0.3c0,0.1,0.1,0.1,0.1,0.1c0.1,0,0.1-0.1,0.1-0.2
	C52.3,34.4,52.2,34.3,52.1,34.3z"/>
<path class="st13" d="M49.7,34.7c-0.1,0-0.1,0.2-0.1,0.3c0,0.1,0.1,0.1,0.1,0.1c0.1,0,0.1-0.1,0.1-0.2
	C49.8,34.8,49.8,34.7,49.7,34.7z"/>
<path class="st13" d="M47.7,35.1c-0.1,0-0.1,0.2-0.1,0.3c0,0.1,0.1,0.1,0.1,0.1c0.1,0,0.1-0.1,0.1-0.2
	C47.8,35.2,47.7,35.1,47.7,35.1z"/>
<path class="st13" d="M45.3,35.5c-0.1,0-0.1,0.2-0.1,0.3c0,0.1,0.1,0.1,0.1,0.1c0.1,0,0.1-0.1,0.1-0.2
	C45.4,35.6,45.3,35.5,45.3,35.5z"/>
<path class="st13" d="M43.3,35.6c-0.1,0-0.1,0.2-0.1,0.3c0,0.1,0.1,0.1,0.1,0.1c0.1,0,0.1-0.1,0.1-0.2
	C43.4,35.7,43.3,35.6,43.3,35.6z"/>
<path class="st13" d="M41,36.7c-0.1,0-0.1,0.2-0.1,0.3c0,0.1,0.1,0.1,0.1,0.1c0.1,0,0.1-0.1,0.1-0.2C41.1,36.9,41.1,36.7,41,36.7z"
	/>
<path class="st13" d="M43,38.4c-0.1,0-0.1,0.2-0.1,0.3c0,0.1,0.1,0.1,0.1,0.1c0.1,0,0.1-0.1,0.1-0.2C43.1,38.5,43,38.4,43,38.4z"/>
<path class="st13" d="M45.2,38.1c-0.1,0-0.1,0.2-0.1,0.3c0,0.1,0.1,0.1,0.1,0.1c0.1,0,0.1-0.1,0.1-0.2C45.4,38.2,45.3,38,45.2,38.1z
	"/>
<path class="st13" d="M47.8,39.4c-0.1,0-0.1,0.2-0.1,0.3c0,0.1,0.1,0.1,0.1,0.1c0.1,0,0.1-0.1,0.1-0.2
	C47.9,39.5,47.8,39.4,47.8,39.4z"/>
<path class="st13" d="M45.4,41.2c-0.1,0-0.1,0.2-0.1,0.3c0,0.1,0.1,0.1,0.1,0.1c0.1,0,0.1-0.1,0.1-0.2
	C45.5,41.4,45.4,41.2,45.4,41.2z"/>
<path class="st13" d="M47.9,42.3c-0.1,0-0.1,0.2-0.1,0.3c0,0.1,0.1,0.1,0.1,0.1c0.1,0,0.1-0.1,0.1-0.2C48.1,42.4,48,42.3,47.9,42.3z
	"/>
<path class="st13" d="M50.6,41.2c-0.1,0-0.1,0.2-0.1,0.3c0,0.1,0.1,0.1,0.1,0.1c0.1,0,0.1-0.1,0.1-0.2
	C50.8,41.3,50.7,41.2,50.6,41.2z"/>
<path class="st13" d="M50.2,38.9c-0.1,0-0.1,0.2-0.1,0.3c0,0.1,0.1,0.1,0.1,0.1c0.1,0,0.1-0.1,0.1-0.2C50.3,39,50.3,38.8,50.2,38.9z
	"/>
<path class="st13" d="M50.9,43.4c-0.1,0-0.1,0.2-0.1,0.3c0,0.1,0.1,0.1,0.1,0.1c0.1,0,0.1-0.1,0.1-0.2C51.1,43.6,51,43.4,50.9,43.4z
	"/>
<path class="st13" d="M54.3,41c-0.1,0-0.1,0.2-0.1,0.3c0,0.1,0.1,0.1,0.1,0.1c0.1,0,0.1-0.1,0.1-0.2C54.5,41.2,54.4,41,54.3,41z"/>
<path class="st13" d="M53.5,38.6c-0.1,0-0.1,0.2-0.1,0.3c0,0.1,0.1,0.1,0.1,0.1c0.1,0,0.1-0.1,0.1-0.2
	C53.6,38.7,53.6,38.6,53.5,38.6z"/>
<path class="st13" d="M56.4,39.1c-0.1,0-0.1,0.2-0.1,0.3c0,0.1,0.1,0.1,0.1,0.1c0.1,0,0.1-0.1,0.1-0.2
	C56.5,39.3,56.4,39.1,56.4,39.1z"/>
<path class="st13" d="M49.9,36.9c-0.1,0-0.1,0.2-0.1,0.3c0,0.1,0.1,0.1,0.1,0.1c0.1,0,0.1-0.1,0.1-0.2C50.1,37,50,36.9,49.9,36.9z"
	/>
<path class="st13" d="M47.6,37.4c-0.1,0-0.1,0.2-0.1,0.3c0,0.1,0.1,0.1,0.1,0.1c0.1,0,0.1-0.1,0.1-0.2
	C47.7,37.5,47.6,37.4,47.6,37.4z"/>
</svg>
