<?xml version="1.0" encoding="UTF-8"?>
<svg id="_Слой_1" data-name="Слой 1" xmlns="http://www.w3.org/2000/svg" xmlns:xlink="http://www.w3.org/1999/xlink" viewBox="0 0 595 958">
  <defs>
    <style>
      .cls-1 {
        fill: url(#_Безымянный_градиент_20-9);
      }

      .cls-1, .cls-2, .cls-3, .cls-4, .cls-5, .cls-6, .cls-7, .cls-8, .cls-9, .cls-10, .cls-11, .cls-12, .cls-13, .cls-14, .cls-15, .cls-16, .cls-17, .cls-18, .cls-19, .cls-20, .cls-21, .cls-22 {
        stroke-width: 0px;
      }

      .cls-2 {
        fill: url(#_Безымянный_градиент_20-13);
      }

      .cls-3 {
        fill: url(#_Безымянный_градиент_20-7);
      }

      .cls-4 {
        fill: url(#_Безымянный_градиент_20-15);
      }

      .cls-5 {
        fill: url(#_Безымянный_градиент_21);
      }

      .cls-6 {
        fill: url(#_Безымянный_градиент_20-6);
      }

      .cls-7 {
        fill: url(#_Безымянный_градиент_20-5);
      }

      .cls-8 {
        fill: url(#_Безымянный_градиент_20-2);
      }

      .cls-9 {
        fill: url(#_Безымянный_градиент_20-17);
      }

      .cls-10 {
        fill: url(#_Безымянный_градиент_16);
      }

      .cls-11 {
        fill: url(#_Безымянный_градиент_20-14);
      }

      .cls-12 {
        fill: url(#_Безымянный_градиент_20-16);
      }

      .cls-13 {
        fill: #030102;
      }

      .cls-14 {
        fill: url(#_Безымянный_градиент_20-19);
      }

      .cls-15 {
        fill: url(#_Безымянный_градиент_20-18);
      }

      .cls-16 {
        fill: url(#_Безымянный_градиент_20-4);
      }

      .cls-17 {
        fill: url(#_Безымянный_градиент_20);
      }

      .cls-18 {
        fill: url(#_Безымянный_градиент_20-11);
      }

      .cls-19 {
        fill: url(#_Безымянный_градиент_20-12);
      }

      .cls-20 {
        fill: url(#_Безымянный_градиент_20-3);
      }

      .cls-21 {
        fill: url(#_Безымянный_градиент_20-10);
      }

      .cls-22 {
        fill: url(#_Безымянный_градиент_20-8);
      }
    </style>
    <linearGradient id="_Безымянный_градиент_20" data-name="Безымянный градиент 20" x1="122.22" y1="607.94" x2="122.22" y2="514.06" gradientTransform="translate(0 959) scale(1 -1)" gradientUnits="userSpaceOnUse">
      <stop offset="0" stop-color="#6a2d22"/>
      <stop offset="1" stop-color="#9d5246"/>
    </linearGradient>
    <linearGradient id="_Безымянный_градиент_20-2" data-name="Безымянный градиент 20" x1="450.62" y1="596.52" x2="450.62" y2="501.36" xlink:href="#_Безымянный_градиент_20"/>
    <linearGradient id="_Безымянный_градиент_20-3" data-name="Безымянный градиент 20" x1="281.74" y1="802.18" x2="281.74" y2="421.44" xlink:href="#_Безымянный_градиент_20"/>
    <linearGradient id="_Безымянный_градиент_20-4" data-name="Безымянный градиент 20" x1="308.61" y1="708.4" x2="308.61" y2="548.91" xlink:href="#_Безымянный_градиент_20"/>
    <linearGradient id="_Безымянный_градиент_20-5" data-name="Безымянный градиент 20" x1="247.51" y1="719.82" x2="247.51" y2="525.92" xlink:href="#_Безымянный_градиент_20"/>
    <linearGradient id="_Безымянный_градиент_20-6" data-name="Безымянный градиент 20" x1="440.12" y1="598.65" x2="440.12" y2="296.59" gradientTransform="matrix(1,0,0,1,0,0)" xlink:href="#_Безымянный_градиент_20"/>
    <linearGradient id="_Безымянный_градиент_20-7" data-name="Безымянный градиент 20" x1="351.94" y1="721.02" x2="351.94" y2="531.69" xlink:href="#_Безымянный_градиент_20"/>
    <linearGradient id="_Безымянный_градиент_20-8" data-name="Безымянный градиент 20" x1="95.44" y1="536.84" x2="95.44" y2="393.75" xlink:href="#_Безымянный_градиент_20"/>
    <linearGradient id="_Безымянный_градиент_20-9" data-name="Безымянный градиент 20" x1="124.94" y1="454.19" x2="124.94" y2="278.84" xlink:href="#_Безымянный_градиент_20"/>
    <linearGradient id="_Безымянный_градиент_20-10" data-name="Безымянный градиент 20" x1="172.83" y1="719.8" x2="172.83" y2="255.62" xlink:href="#_Безымянный_градиент_20"/>
    <linearGradient id="_Безымянный_градиент_20-11" data-name="Безымянный градиент 20" x1="342.63" y1="939.3" x2="342.63" y2="871.64" xlink:href="#_Безымянный_градиент_20"/>
    <linearGradient id="_Безымянный_градиент_16" data-name="Безымянный градиент 16" x1="222.23" y1="862.19" x2="222.23" y2="774.59" gradientTransform="translate(0 959) scale(1 -1)" gradientUnits="userSpaceOnUse">
      <stop offset="0" stop-color="#59251c"/>
      <stop offset="1" stop-color="#7d3b30"/>
    </linearGradient>
    <linearGradient id="_Безымянный_градиент_20-12" data-name="Безымянный градиент 20" x1="207.34" y1="896.02" x2="207.34" y2="765.94" xlink:href="#_Безымянный_градиент_20"/>
    <linearGradient id="_Безымянный_градиент_20-13" data-name="Безымянный градиент 20" x1="237.42" y1="897.59" x2="237.42" y2="803.7" xlink:href="#_Безымянный_градиент_20"/>
    <linearGradient id="_Безымянный_градиент_20-14" data-name="Безымянный градиент 20" x1="374.86" y1="883.13" x2="374.86" y2="759.7" xlink:href="#_Безымянный_градиент_20"/>
    <linearGradient id="_Безымянный_градиент_20-15" data-name="Безымянный градиент 20" x1="141.03" y1="886.03" x2="141.03" y2="743.42" xlink:href="#_Безымянный_градиент_20"/>
    <linearGradient id="_Безымянный_градиент_20-16" data-name="Безымянный градиент 20" x1="336.19" y1="906.05" x2="336.19" y2="789.08" xlink:href="#_Безымянный_градиент_20"/>
    <linearGradient id="_Безымянный_градиент_20-17" data-name="Безымянный градиент 20" x1="280.21" y1="917.48" x2="280.21" y2="793.06" xlink:href="#_Безымянный_градиент_20"/>
    <linearGradient id="_Безымянный_градиент_20-18" data-name="Безымянный градиент 20" x1="200.1" y1="926.69" x2="200.1" y2="895.4" xlink:href="#_Безымянный_градиент_20"/>
    <linearGradient id="_Безымянный_градиент_20-19" data-name="Безымянный градиент 20" x1="245.18" y1="936.06" x2="245.18" y2="895.8" xlink:href="#_Безымянный_градиент_20"/>
    <linearGradient id="_Безымянный_градиент_21" data-name="Безымянный градиент 21" x1="325.63" y1="903.83" x2="325.63" y2="814.82" gradientTransform="translate(0 959) scale(1 -1)" gradientUnits="userSpaceOnUse">
      <stop offset="0" stop-color="#50211a"/>
      <stop offset="1" stop-color="#7a382d"/>
    </linearGradient>
  </defs>
  <path class="cls-17" d="M100.24,436.73l7.89,8.21,36.07-49.31-12.68-44.58-23.01,40.32-8.27,45.36Z"/>
  <path class="cls-8" d="M434.67,457.64c17.18-9.11,23.38-17.45,25.75-23.59.66-1.71,2.28-6.48,5.89-12.25,3.04-4.84,6.22-8.37,8.45-10.62-15.04-16.24-30.07-32.46-45.11-48.7l-3.17,55.31c2.73,13.29,5.46,26.57,8.18,39.86Z"/>
  <path class="cls-20" d="M149.45,211.63l10.36-9.23,18.59-10.53,10.35-4.15,10.84-3.72,9.54-1.28,5.29.27,5.34-2.69,7.72-2.66,14.19-4.09,18.4-4.1s9.79-2.46,21.4-3.5l7.28-1.48,5.71,4.03,3.69-.97,8.15.57,6.97.29,10.6,2.81,9.42,5.28,9.11,6.99,12.54-.17,16.06,3.45,15.91,8.01,6.5,3.71,6.63,2.12,10.48,5.39,8.66,6.7,7.43,4.48,3.38,3.61,7.25.76h10.27l10.52-3.62,11.17-8.46,6.84-11.16,3.91-9.3,2.53-11.08.74-13.42v-7.66l2.78,7.22,1.87,6.31.9,9.23-.82,13.46-4.24,12.54-8.48,12.08-11.17,6.31-9.87,2.76-7.75.93-9.1-.69,5.79,6.42,6.44,8.42,7.3,11.49,12.43,23.15,3.18,8.88,3.18,10.62,2.53,9.45,2.28,11.11.94,10.37-.25,4.9.74,5.54,3.37,11.59,5.02,16.26,5.02,17.65,6.73,22.21,4.77,19.14,4.46,21.86,2.02,16.44.85,13.78-.25,19.73-1.28,8.89-1.55,7.53-2.44,6.63-3.95,6.69-5.97,6.41-4.83,2.66-4.34,2.14-1.96.63,5.99-4.76,6.39-7.44,5.08-11.89,2.42-17.51.91-15.11-.62-17.16-1.32-12.4-2.97-16.56-4.8-20.62-3.61-11.74-5.69-18.92-6.82-21.17-1.26,9.75-1.84,17.25-1.59,11.71-3.12,10.21-4.46,7.44-3.97,3.17-3.43,1.47-37.95-76.1-55.85-70.73-52.99-38.46-23.3,10.96-7.18,5.54-12.88-8.05-30.24-6.06-50.66,23.66-64.25,84.59-19.1,42.77-11.11,26.5-4.14-4.14-5.08-7.89-4.48-6.7-5.59-12.27-3.8-14.11-1.3-13.04.45-9.61,1.39-9.69,2.16-8.73,2.89-7.38,1.42-3.88-3.7,4.22-5.39,7.15-5.22,7.65-5.79,10-4.32,9.81-2.04,7.08-1.19,8-.2,11.27.97,7.22,1.71,3.96,3.19,4.53,4.8,3.36,6.04,2.76,5.39,1.34,6.36.65,4.97-.04,2.89-.38,1.92,3-.85.65-4.2.77-3.42.56-6.68-.5-3.64-.29-7.83-2.61-5.79-3.88-5.05-6-2.57-5.23-1.84-6.06-.45-6.44.17-11.3,1.51-10.88,2.61-8.27,4.82-10.96,8.48-14.31,10.24-14.46,9.75-13.81,3.95-4.84,2.69-11.39,8.88-20.92,11.41-15.38,16.71-18.23,13.78-12.38,15.41-13.46"/>
  <path class="cls-16" d="M280.05,250.6l10.27,1.47.14,2.79,2.21,11.07,1.83,10.95,1.45,13.29,1.39,14.42.82,15.27.65,12.5.9,15.1,2.56,10.62,7.96,18.15,8.84,13.29,7.82,7.13,5.45,4.55,7.18,4.41,5.63,3.2-7.16-2.19-8.55-4.07-6.19-4.22-4.71-4.72-6.75-10.07-2.08-3.9-.45,1.71,3.01,10.43,6.32,10.11,7.01,5.97,3.54,2.27-4.76-.83-12.6-4.22-10.1-6.54-6.48-5.26-4.88-5.42-5.28-10.38-4.03-10.88-2.09-10.41-2.47-13.58-1.57-9.43-2.14-16.12-.68-10.82v-14.33l1.04-17.69,1.89-11.99,1.61-8.5,3.43-3.1Z"/>
  <path class="cls-7" d="M276.62,253.7l3.43-3.1-4.18-4.43-3.91-3.24-6.05-2.82-6.69-.94-6.69,1.41-7.43,4.21-5.75,4.84-5.69,6.97-4.09,6.69-4.03,9.51-2.14,5.45-2.98,10.13-2.55,12.82-2.89,32.94,1.59,18.46-1.51-2.95,1.41,11.16,1.42,12.34,3.67,14.62,4.53,13.62,3.91,8.54,5.53,8.94,5.54,6.06,4.83,3.87,4.77,2.88,3.8,1.39-3.91-4.09-7.21-8.6-5.56-8.71-4.54-8.79-1.45-4.5-1.78-6.16-.63-3.69,4.28,6.19,6.56,7.46,6.32,6.07,3.95,3.35,5.59,4.15,4,2.55s7.51,5.87,18.78,3.79l-5.66-3.67-1.91-.72-2.02-.75-3.97-2.21-6.79-5.4-6.24-9.25-5.04-13.13-2.35-12.45-.89-13.52-.33-5.02.56-21.81,1.53-14.08,2.82-14.96,1.09-8.04,1.47-8.46,1.62-8.46,3.95-14.73,3.18-9.23,3.43-6.04,4.6-3.04,2.12-.15,3.46,1.77,3.14,3.15-.04,1.79"/>
  <path class="cls-6" d="M483.2,504.47l-1.55,13.16-5.14,13.07-4.48,8.54-3.23,5.46-2.7,3.46-3.26,3.76c.89-2.25,1.78-4.51,2.67-6.76l1.44-3.77,2.84-10.65,3.12-17.77.4-8.02-.54-19.59-.89-10.5-4.82-22.85-4.16-16-6.28-18.3-5.87-14.26-12.23-23.93-3.15-6.9.73,7.13.49,9.09.27,7.47-1.01,9.49-1.12,10.27-1.55,6.17,2.72,16.4,2.27,14.08.91,7.15,1.79,16.39,2.16,20.04.53,12.35v8.14l-1.71,10.38-4.23,13.77-4.83,10c-1.03,1.53-2.16,3.52-3.05,5.96-.42,1.16-.73,2.27-.96,3.28-.52,2.04-1.03,4.09-1.55,6.13l-.86,4.46-1.23,4.8c-.75,2.54-1.97,6.11-3.91,10.21-2.12,4.46-3.22,6.73-5.57,8.79-4.48,3.92-10.61,4.6-10.97,3.77-.33-.75,5.33-2.56,10.46-8.74,2.15-2.6,3.21-4.76,3.69-5.83.97-2.19,1.17-3.55,1.8-5.83.61-2.21,1.64-5.33,3.47-9.04.58-3.23,1.08-6.77,1.41-10.59.29-3.24.42-6.3.44-9.15.67-3.03,1.25-6.49,1.59-10.3.31-3.36.38-6.46.33-9.25-1.2-5.39-2.39-10.78-3.58-16.17-.46-.93-.96-2.14-1.31-3.6-.53-2.2-.5-4.11-.38-5.44.11-2.95.22-5.91.32-8.87l-.03-8.98.05-10.76-.42-11.04-1.49-10.44-1.12-10.19-1.32-11.09-.74-5.67-.95-7.71-1.34-9.61-1.92-9.01c-.34-1.05-.67-2.1-1-3.14-5.2-33.77-10.39-67.54-15.59-101.3,1.27,1.62,2.53,3.25,3.8,4.87l6.63,10.92,5.02,7.78,7.58,12.12,6.6,10.95,9.24,15.75,6.46,11.79,6.14,11.65,5.56,11.8,2.87,7.78,3.66,8.11,3.35,8.5,3.55,9.57,4.32,12.3,2.87,9.6,3.26,11.79,2.63,13.07,1.96,13.03.65,16.5Z"/>
  <path class="cls-13" d="M276.62,253.7s-10.98-22.35-20.98,17.09c0,0-34.67,129.61,17.56,147.64-3.71-1.21-9.28-3.5-14.27-8.08-7.85-7-10.7-15.75-12.85-25.43-1.99-9.42-5.42-29.35-1.85-60.03,1.85-16.56,3.43-16.01,7.14-39.84,1.14-7.53,3.85-14.8,5.56-22.35,0,0,.85-3.77,3.71-9.02,1.99-3.63,3.85-5.79,6.42-6.73.43-.13,1.28-.53,2.43-.53,4.57,0,7.71,4.98,7.99,5.66-.43.53-.57,1.08-.85,1.61h-.01Z"/>
  <path class="cls-3" d="M290.73,255.34l3.55-4.02,3.91-1.62,3.63,1.35,3.26,2.73,5.72,8.89,4.48,9.16,4.4,11.57,3.67,10.58,4.61,14.27,5.05,16.57,5.3,22.57,11.83,47.6,1.46,8.3,2.47-6.86,2.75-11.1,1.67-11.48.4-8.34-.25-8.28-.82-8.53-1.51-9.14,3.18,6.97,1.62,3.44,5.33,11.04,5.87,12.29,4.79,9.05,5.33,10.33,5.44,9.25,2.2,3.8,2.03,3.1,2.31,3.21,3.44,4.02,3.08,2.95,2.28,1.52,1.08.18,2.61,6.61,1.7-7.27,2.12-8.51,1.77-10.44,1.28-10.73.5-10.62.3-17.25-1.46-16.32-2.81-13.83-5.94-17.95-6.67-15.05-6.96-11.61-9.3-12.1-10.15-11.3-13.15-11.24-14.79-8.94-15.82-5.01-11.4-1.16-11.43,1.33-4.76,1.6-3.44-.23-3.91,2.24-2.24,2.55-1.01,1.53,1.41,8.34Z"/>
  <path class="cls-13" d="M280.05,250.6c-1.42-2.16-6.56-9.42-15.69-11.17-8.14-1.48-14.7,2.29-17.7,3.9-23.97,13.46-29.68,60.03-30.4,66.89-2.28,21-5.85,51.95,13.7,80.21,12.7,18.3,29.82,28.12,30.1,27.86.14-.13-19.26-11.3-31.82-32.7-13.27-22.61-12.28-45.62-11.27-69.58.43-11.58,2.14-26.91,8.99-43.88,7-17.09,14.27-23.69,20.12-27.32,3.71-2.29,9.28-5.66,16.42-4.84,10.7,1.21,16.56,10.5,17.55,11.98v-1.34h0Z"/>
  <path class="cls-13" d="M280.05,404.56s-24.26,9.29-35.82-49.8v2.97c3.14,26.38,13.99,45.62,27.54,47.65,2.43.27,5.14.13,8.28-.81h0Z"/>
  <path class="cls-22" d="M120.07,422.19c-1.42-.49-5.42,5.71-11.98,18.59l-13.36,22.26-10.83,22.04-7,18.41-4.65,14.13-2.08,17.88,1.47,10.5,5.53,10.64,9.49,7.47,2.16,1.15-.28-5.25-4.63-3.88-6.14-9.35-2.44-8.39v-9.85l2.48-14.29,3.8-10.78,8.28-17.83,8.8-15.46,3.99-4.66c-.83,3.29-1.65,6.57-2.48,9.86-.38,2.41-.64,5.1-.68,8.04-.01,1.42.02,2.78.11,4.07,0,1.39.05,2.89.2,4.49.2,2.14.55,4.08.94,5.8.24,1.55.56,3.19.96,4.9.66,2.8,1.46,5.35,2.31,7.63,1.02-2.55,2.04-5.1,3.06-7.65l-1.79-4.51-1.34-7.5-.18-7.96.56-7.25,2.68-9.99,4.28-9.28,6.22-10.27c.2-2.6.39-5.21.59-7.81,2.54-10.2,3.2-15.51,1.98-15.93h-.02Z"/>
  <path class="cls-13" d="M276.62,253.7c-1.71,7.13-3.71,16.56-4.71,27.86-.71,7.94-1.57,24.09,1.99,47.38,5.56,35.39,8.85,56.66,27.12,70.39,10.13,7.68,21.55,10.23,29.39,11.3-3-1.89-6.56-4.58-10.13-8.34-5.14-5.39-10.27-12.92-10.41-22.07,0,0,6.7,24.77,42.38,30.41-4.57-1.48-10.98-3.9-17.7-8.34-3.71-2.42-19.41-13.06-29.39-37.96-8.56-21.27-4.42-31.49-7.85-67.03-1.85-19.38-4.85-35.12-7.14-45.22-.14,0-.28.13-.57.13,1.85,8.48,3.71,18.71,4.99,30.41.43,3.1,1.14,10.37,2.57,32.17,1.85,30.28,1,26.65,1.71,31.09,1.42,7.53,5.56,29.75,24.4,48.05,7,6.73,13.84,11.03,18.41,13.59-6.27-1.89-14.13-5.25-20.83-11.84-7.99-8.08-10.27-16.96-11.55-16.56-1.14.4-.29,8.88,4.14,16.69,4.14,7.13,10.13,11.58,14.13,13.87-5.56-1.21-13.98-3.9-22.83-9.69,0,0-4.99-3.23-8.99-7.13-9.56-9.16-13.7-22.48-17.55-42.52-3.14-16.69-5.71-30.56-5.85-51.01.43-12.92,1.28-28.4,4.28-45.62v-.02Z"/>
  <path class="cls-13" d="M279.56,358.68c-.76,6.23-1.16,13.49-.71,21.54.76,13.45,3.64,24.78,6.62,33.37-.85-2.89-1.67-5.99-2.43-9.26,0,0-1.21-5.3-1.99-10.38-2.01-12.96-1-31.84-.91-33.18-.02-.36-.1-.8-.25-1.27-.09-.31-.21-.58-.33-.81h.01Z"/>
  <path class="cls-13" d="M289.75,387.07s5.71,45.49,21.13,46.84c-1.28-.68-3.14-1.61-4.99-3.23-5.28-4.3-7.28-9.82-9.85-19.38-1.71-6.46-3.57-14.4-5.14-23.69-.43-.13-.71-.27-1.14-.53h-.01Z"/>
  <path class="cls-13" d="M214.98,348.85s3,76.04,41.1,85.06c0,0-21.84-19.51-26.12-43.47l-.71-1.34c1.28,7.53,4.57,19.11,12.85,30.82,3.71,5.11,7.71,9.29,11.27,12.51-1.57-.68-4-1.89-6.7-3.77-9.42-6.32-13.84-14.4-16.27-19.25-5.99-11.17-12.56-32.57-15.41-60.57h0Z"/>
  <path class="cls-13" d="M351.37,405.45c-22.58-104.24-40.55-155.84-53.89-154.79-2.34.18-4.54,1.98-6.58,5.41-.08-.33-.17-.69-.26-1.02,3.1-4.86,5.76-5.91,7.64-5.99,10.95-.44,21.28,31.94,31.97,64.6,4.14,12.66,6.84,22.61,8.14,27.46,6.7,24.62,10.84,45.36,13.42,59.89,2.57-7,5.42-17.22,6.42-29.75,1.42-18.98-2.57-32.85-7.99-50.47,0,0-8.99-29.75-34.97-66.08-4.14-5.79-10.7-14.4-17.84-13.46-3.7.4-6.4,3.33-8.13,5.76.23-.74,5.11-15.19,21.53.02,0,0,72.07,83.72,40.53,158.41h.02Z"/>
  <path class="cls-13" d="M357.26,342.25s35.25,80.08,47.52,78.87c-3.29-7.53-7.99-18.98-12.28-33.38-4.28-14.27-4.71-20.32-8.56-31.76-3-8.75-7.99-21.27-16.99-35.53,5.14,9.01,10.84,20.59,15.55,34.72,3.57,11.03,4.28,16.56,7.99,29.35,3,9.96,7.14,22.2,13.27,35.94-1.71-1.21-4.28-3.23-6.84-5.92-4.57-4.71-6.84-8.88-11.27-17.22-8.28-15.08-6.56-11.84-7.85-14.27-8.56-16.96-17.13-34.59-20.98-42.39.29.53.43,1.08.43,1.61h.01Z"/>
  <path class="cls-13" d="M299.41,241.03c3.24-1.32,7.93-2.88,13.75-3.49,36.01-3.77,66.03,34.03,72.64,42.26,34.97,43.6,30.11,95.43,28.54,111.04-1.42,15.48-4.85,27.99-7.43,36.48,2.43-9.69,4.99-22.61,6.13-37.96.85-10.77,1.85-23.69-.57-40.25-4.57-32.7-18.69-55.18-22.41-60.57-3.71-5.66-9.7-14.67-20.26-24.36-9.7-8.88-23.26-21.4-44.24-24.49-5.49-.81-11.26-.62-11.26-.62-6.05.14-11.13,1.04-14.9,1.94h0Z"/>
  <path class="cls-13" d="M302.5,240.05c-.01.11,1.72.39,6.03,1.25,0,0,2.33.46,8.66,1.79,3.59.76,9.44,2.51,19.24,6.97,0,0,17.56,8.61,32.68,26.38,33.68,39.44,41.67,124.76,41.96,128.94,0,.04-.01-.45-.01-.45-1.01-8.8-.13-7.32-1.4-17.67-.06-.51-.45-3.61-.97-7.03-.93-6.01-3.52-21.14-7.12-34.72-6.17-23.33-10.38-39.26-22.13-57.22-14.79-22.6-31.67-33.33-35.09-35.44-5.33-3.3-14.73-8.99-28.03-11.39-6.21-1.11-13.76-1.6-13.79-1.39h-.01Z"/>
  <path class="cls-1" d="M118.93,504.81l9.39,40.21-3.1.74-4.15,3.58-1.41,6.23.4,7.73,2.53,11.24,3.99,12.05,2.99,8.6,1.35,7.21-.46,4.55-.76,4.17-2.63,7.47-4.07,11.42-2.81,9.31-2.81,11.97,2.04,6.73,3.06,2.6,5.97,2.82,9.96,1.93,4.85.26-1.7,14.51-5.44-.76-7.58-.97-7.34-2.94-7.54-5.78-3.04-8.3-.74-5.24.18-5.88,1.41-8.14,3.64-8.02,7.89-14.13,1.32-10.15-3.64-15.89-4.34-14.01-6.76-25.44-2.95-13.3,12.31-36.39Z"/>
  <path class="cls-13" d="M259.21,239.15c-6.84-.68-14.84-.68-23.55.68-35.82,5.66-57.36,31.09-64.36,39.97,0,0-94.61,128.93-71.06,156.93,0,0,8.85-41.18,28.11-73.89-2.14,4.06-4.37,9.31-5.81,15.63-2.82,12.34-1.3,22.81.21,29.18.2-.81.4-1.61.62-2.42-.57-3.37-.71-6.19-.71-8.21-.43-16.16,4.71-30.82,7.43-35.67.28-.4,1.14-1.89.85-2.02-.43-.27-4.14,4.17-4.99,5.11-11.41,13.32-20.26,46.84-21.69,52.36-1,3.77-2.43,9.42-4,16.16-.85-2.02-1.85-5.11-2.14-8.89-.57-6.06.85-11.03,2.28-14.67,22.12-59.49,57.08-106.46,57.08-106.46,23.4-31.49,37.96-45.89,52.94-52.89,15.55-7.13,32.11-9.69,32.11-9.69,6.7-.94,12.42-1.21,16.7-1.21h-.01Z"/>
  <path class="cls-21" d="M258.41,239.2l-10.06.3h-6.97l-13.27,2.8-13.13,4.73-18.07,9-12.6,10.78-9.3,12.11-11.92,13.78-8.71,12.83-15.46,23.91-11.33,19.14-12.95,23.93-3.61,8.39-6.69,14.61-5.14,14.07-1.84,11.92v6.31l2.49,7.31,2.29-8.32,3.67-13.61,6.27-18.69,6.29-15.76,6.44-11.61,4.23-5.23-3.1,7.39-2.78,9.69-1.39,11.3,1.15,11.61-2.88,20.28-2.99,19.52-1.1,19.38-1.38,18.94-5.4,18.6-9.16,20.59-5.94,16.82-3.37,13.37-2.14,12.83-1.35,15.92,1.65,15.29,3.8,15.34,5.75,12.87,5.25,8.71,5.44,6.99-4.4-11.02-3.74-13.56-2.25-11.77-.56-12.69.49-14.65,2.21-13.66,5.02-17.02,8.28-18.8,2.36-7.03,2.38-5.28.84,3.46,1.51,7.65,2.65,10.84,3.43,10.27,5.14,14.65,6.04,13.96,4.09,9.88,3.37,10.58,2.78,9.15,2.76,13.77-.37,8.68-1.54,16-4.25,16.23-2.75,15.23-1.16,11.08.98,10.14,3.46,6.94,7.38,2.99h8.65l9.05-2.38,7.61-5.4,5.59-8.78,1.15-5.67-7.75,3.69-8.16,1.92-9.22-1.92-5.14-5.54-1.46-6.23v-12.54l1.71-9.76,5.39-13.07,1.86-7.77.57-2.32-.12-3.78-1.13-6.49-3.08-11.1-3.95-10.64-3.76-9.55-4.98-12.75-4.71-13.18-4.59-16.32-2.66-13.13-.68-8.07-.97-9.31.08-8.52,1.51-14.96,2.11-12.53,2.5-15.6,1.2-6.03,2.7-14.25,2.37-10.21,2.65-9.67,2.53-9.48,3.14-11.32,3.18-9.63,1.96-4.9,2.99-6.29-.81,14.52-.82,13.76-.4,10.08,3.48-5.05,5.41-10.2,2.03-3.73,3.47-6.1,5.91-12.4,5.99-13.3,7.25-14.71,9.9-21.45,8.99-21.46,7.99-18.52,38.59-52.19Z"/>
  <path class="cls-13" d="M219.38,292.51c-6.75,17.36-14.29,35.36-22.74,53.86-12.29,26.91-25.08,51.83-37.89,74.75,0,0-1-87.22,30.1-128.4-10.56,19.66-16.27,37.01-19.55,49.67-4.57,17.63-6.13,32.84-7.28,45.22-1.14,11.84-1.71,21.8-1.85,29.2,2.86-4.58,7-11.43,11.41-19.92,4.42-8.61,7.14-14.67,10.84-23.15,4.6-10.3,5.39-11.84,7.62-16.68,3.26-7.07,5.93-13.07,8.08-17.91,3.83-8.66,11.4-25.61,21.63-48.51.05.18.1.44.06.75-.06.55-.31.93-.45,1.12h.01Z"/>
  <path class="cls-13" d="M259.21,239.15s-42.52-6.06-67.36,49.94c5.28-11.71,11.99-19.92,16.84-25.03,5.42-5.79,13.56-14.13,27.26-19.79,9.28-3.77,17.7-4.84,23.26-5.11h0Z"/>
  <path class="cls-13" d="M142.62,332.42c-1,2.02-2.72,5.51-4.57,9.96-9.99,23.15-14.98,45.62-20.98,99.33-4.14,37.01-2.43,33.65-4.57,42.67-6.13,26.11-14.13,32.3-20.83,60.97-3.29,14.13-6.13,26.38-4.57,41.59,2.57,25.85,15.98,44.68,24.68,54.78-3.29-6.87-7.57-17.09-10.13-30.15-6.13-30.96,1.28-56.39,4.14-65.68,4.14-13.32,5.99-12.79,13.13-32.97,5.56-16.01,8.99-29.61,10.98-38.62-1.28,4.44-6.13,22.07-11.27,36.2-1.85,5.25-3.85,9.96-3.85,9.96-3,7.53-5.56,12.92-6.42,14.53-6.27,13.46-9.13,29.88-9.42,31.22-3.43,19.51-1,35.4.14,41.99,1.99,11.03,5.28,19.92,7.99,26.25-3-4.17-6.84-10.09-10.27-17.63-1.85-4.03-7.85-18.03-8.56-37.82-.85-22.21,5.42-39.44,12.56-58.81,6.42-17.5,9.56-19.92,12.7-34.19,2.43-10.77.28-7.53,3.57-34.86,1.71-13.46,4-29.35,6.42-44.81.43-2.96.71-4.58.71-5.11,1-6.46,3.86-23.15,10.27-44.96,2.14-6.32,4.71-14.4,8.14-23.82v-.02Z"/>
  <path class="cls-13" d="M163.32,375.49c-3.14,7.27-7.43,17.77-11.41,30.82-1.85,5.92-6.84,22.21-12.56,55.99-3.86,22.75-5.85,34.05-6.13,42.8-2.28,63.12,41.53,106.59,26.97,135-.85,1.61-5.42,10.23-6.13,21.93-.43,6.6-1,16.42,5.42,21.13,6.13,4.58,17.27,3.1,27.12-3.5-.14.94-4,18.85-19.69,23.56-.85.27-13.42,3.9-20.98-2.82-4.99-4.44-5.14-11.3-5.14-16.01.28-23.82,7-34.19,9.13-51.15,2.43-19.79-3.14-36.07-7.57-49.12-5.28-15.48-9.7-19.65-15.69-38.09-4.57-13.72-6.56-25.43-7.71-33.11.14-.53.14-.94.28-1.48,5.56,25.7,12.7,44.96,18.41,57.87,4,9.02,9.99,21.53,12.85,39.57,1.28,8.21,2.43,15.34,1.28,25.03-.28,1.89-.57,4.44-6.56,31.09-.14.81-1,4.3-1.71,9.01-.85,5.39-1.28,7.94-1.28,10.23,0,2.02.14,11.43,7,16.29,8.14,5.66,19.69.68,20.98,0,11.13-5.11,13.99-16.29,14.41-17.9-10.41,5.66-21.55,6.32-26.97,1.61-4.85-4.31-4.71-12.38-4.71-19.79,0-2.02.14-5.52,1.28-10.9,2.28-11.17,5.99-16.69,7.85-21.67,3.29-9.16-2.86-24.36-14.98-55.05-2.14-5.25-4.85-11.84-7.57-21.4-.71-2.29-2.72-9.42-4.42-19.11-.71-4.31-2.57-15.48-3-26.65-.43-13.87,2.57-23.82,4.71-40.1,4.42-32.44,11.99-49.79,17.27-73.35,3.43-9.02,7-16.16,9.28-20.72h-.02Z"/>
  <path class="cls-13" d="M117.51,437.94c-4.38,4.84-9.51,11.77-13.21,20.9-9.36,23.05-3.13,44.07-.45,51.62.12-.24.24-.46.36-.7-2.35-6.03-4.85-14.95-4.53-25.8.39-12.94,4.6-22.4,7-27.59,2.15-4.67,5.58-10.96,11.03-17.7.26-.21.3-.52.17-.65-.11-.12-.31-.1-.34-.08h-.01Z"/>
  <path class="cls-13" d="M106.67,503.61c-1.6-4.4-2.99-9.85-3.35-16.15-1.13-19.89,8.81-34.9,13.34-40.89l.13.94c-5.28,7.8-8.14,14.8-9.7,19.92-1.28,3.9-2.86,9.56-3,17.09-.14,7.8,1.57,14,3,18.17-.04.12-.08.26-.14.4-.08.2-.18.38-.27.53h-.01Z"/>
  <path class="cls-18" d="M294.19,47.26c1.22-2.11,3.06-4.76,5.78-7.41,1.92-1.87,3.82-3.32,5.48-4.4,3.1-2.12,6.19-4.26,9.29-6.38l8.72-3.59,6.17-.83,7.01.15,6.73,2.69,3.91,2.94,3.69,4.39,1.47,2.67,1.47,4.03.38,2,.25,2.08.15,2.62-1.21,7.24-1.74,3.39-3.81,5.35,28.2,14.55,18.15,8.61-5.48-10.94-5.14-5.85-6.44-4.58-6.65-3.06-3.17-1.35,5.97-3.12,4.65-5.53.66-4.69-1.67-5.95-7.22-8.18-6.77-5.11-10.64-5.73-14.74-3.57-11.99.98-10.89,3.17-13.51,9.17-7.83,9.57-2.4,3.69,3.17.96h.02Z"/>
  <path class="cls-10" d="M165.43,96.81l1.55,10.62,2.69,15.3,7.5,12.85,8.08,8.3,14.6,10.22,11.01,3.69,12.51,4.06,15.31,1.68,12.69.4,10-1.83,13,1.38,7.09,2.45-21.4,4.34-24.8,5.54-22.45,8.59-14.68-2.08-16.23-10.37-12.8-19.17-6.12-27.07.17-22.48,2.28-6.44Z"/>
  <path class="cls-13" d="M119.5,421.12c-3.57,5.25-8.42,12.66-13.98,21.8-8.42,13.87-16.84,27.72-24.68,46.3-7.57,17.9-9.28,27.59-9.7,30.41-1.85,11.58-3.57,22.21,2.57,32.3,4.28,7.13,10.84,11.17,15.12,13.32-.14-.4-.28-.68-.28-1.08-3.57-2.02-8.85-5.66-12.56-11.71-5.56-9.01-4.85-18.7-3.57-26.25,3.86-24.63,14.7-47.51,30.69-75.64,4.42-7.8,10.13-17.5,16.99-28.4-.28-.4-.43-.81-.57-1.08v.02Z"/>
  <path class="cls-13" d="M88.54,560.01c-3-2.16-7.28-5.79-10.27-11.3-4.42-7.93-4.85-17.09-1.14-31.76,2.86-11.71,9.56-31.36,26.26-54.5-.28,1.08-.57,2.02-.71,3.1-4.14,6.73-18.12,29.61-24.68,51.95,0,0-5.14,17.63-.28,27.46,1.42,3.1,3.71,6.19,3.71,6.19,2.43,4.03,5.14,7,7.14,8.88h-.02Z"/>
  <path class="cls-13" d="M94.11,539.82s-11.85-11.43-9.99-39.7l.71-1.48c-.14,6.06.28,14.27,2.86,23.56,1.85,6.46,4.14,11.84,6.42,16.01v1.61Z"/>
  <path class="cls-13" d="M106.37,539.82c1.14,6.46,3,16.42,5.99,28.53,7.85,30.96,12.99,35.4,10.41,47.65-2.86,13.72-10.98,15.34-12.7,32.17-.71,6.73-1.42,14.67,3.57,21.53,8.28,11.17,25.11,10.9,27.26,10.77v-1.48c-2.14.27-15.41,1.21-23.83-7.4-3.71-3.77-4.99-7.94-5.71-10.22-3.29-10.77.85-20.46,2.14-23.01,1.71-3.77,2.43-3.37,6.27-10.63,2.43-4.71,4.28-8.08,5.28-11.17,1.99-6.6-.14-11.43-3.71-23.01-2.86-9.01-4.85-18.17-7.43-27.19-1.99-6.06-4.57-15.21-7.57-26.51h.02Z"/>
  <path class="cls-13" d="M126.64,546.01s-14.7-.53,0,39.57c1.85,3.63,4.14,9.56,4.28,16.82.28,8.48-2.72,12.66-7.43,27.86-4.57,14.67-6.84,22.07-4.28,26.51,1,1.76,5.85,8.75,25.83,8.21l-2.57.94c-2.57,0-20.4-.4-24.83-9.69-1.85-3.9-.28-9.56,2.86-20.59,1.71-6.06,4.14-12.66,5.28-15.48,3-7.8,3.86-9.02,4.42-12.51.71-4.58,0-8.21-2.43-16.01-4.99-16.15-8.85-24.09-8.99-34.32,0-3.37.28-7.94,3.71-10.9,1.42-1.21,3-1.89,4.14-2.16v1.74h0Z"/>
  <path class="cls-13" d="M140.63,454.76c-7.85,40.07-1.39,74.11,18.32,84.96,3.16,1.74,7.09,3.12,12.03,3.61-2.44.34-6.92.6-11.83-1.31-1.14-.45-5.62-2.31-10.11-7.71-11.14-13.41-12.84-37.08-13.02-39.94-.56-8.94-.35-22.94,4.61-39.6Z"/>
  <path class="cls-13" d="M235.95,174.83s-78.06,54.24-13.42,67.97l2.28-.68c-1.14,0-17.98-.94-23.83-12.51-2.43-4.84-1.99-9.42-1.71-11.58.71-6.6,4.28-11.71,17.13-24.77,4.85-4.84,11.41-11.17,19.55-18.43Z"/>
  <path class="cls-19" d="M205.27,62.98l-8.85,1.48-6.6,2.62-5.25,3.05-4.91,4.14c-1.84,1.81-3.67,3.63-5.5,5.43l-1.09,1.8-3.87,5.04-3.97,4.76-6.26,5.88-3.5,3.86-4.34,6.57-16.35,42.51-2.65,10.69-1.22,7.22.37,7,1.84,5.38,3.3,4.7,4.4,3.69,2.79,1.12,3.74,1.58,6.87,1.15,6.93.28,12.25.12h2.38l7.26-2.85,5.73-2.51,7.34-2.73,8.97-2.04-6.05-2.1-7.79-3.44-8.62-6.82-7.34-9.25-5.05-10.9-3.81-11.16-1.55-9.83-1.82-16.13.89-12.66,2.82,15.31,5.79,12.85,9.05,11.77,11.78,9.16,9.58,5.59,9.22,2.95,11.83,3.23,13.44,2.01,13.96.45,8.15-.99h12.56l9.38,2.99,2.28-2.37-5.67-16.6-72.82-83.99Z"/>
  <path class="cls-13" d="M174.16,76.44c-4.71-1.76-12.42-3.9-21.98-3.9-3.85,0-23.69.13-37.67,13.19-11.13,10.37-11.99,23.28-13.27,43.34-1.28,18.71-2.72,41.31,12.56,52.36,6.13,4.3,12.99,5.51,18.12,5.79-3-.4-8.56-1.34-14.27-4.71-1.99-1.21-7.14-4.44-10.84-9.96-4.99-7.4-4.99-15.08-4.85-22.35.71-30.82,1.14-46.57,7.85-55.71,5.99-8.08,12.99-12.51,15.41-13.87,20.84-12.25,44.1-5.66,48.95-4.18h-.01Z"/>
  <path class="cls-13" d="M195.43,112.78c3.43,11.43,8.85,19.11,12.56,23.56,14.41,17.09,39.54,28.53,48.81,22.07,1.99-1.34,2.43-3.1,4.85-3.77,5.99-1.76,13.56,4.58,19.83,11.3-5.28-5.11-10.13-7.67-13.13-9.01-2.13-.94-4.42-1.75-6.42-.94-2.14.81-2.86,2.82-3.57,3.63-4,4.98-28.82.4-45.38-14.93-11.71-10.9-15.84-23.96-17.56-31.9h0Z"/>
  <path class="cls-2" d="M205.27,62.98l6.19.79,4.71,1.03,4.48-1.81,7.02-1.41,6.17.52,4.9.63,3.57-1.33,8.04,3.4,17.75,10.59,4.4,8.56,3.75,9.31,2.73,11.62,1.23,13.11,1.26,10.49-1.68,8.94-1.7,9.52-1.03,2.59.63,2.76-2.49,2.99-6.61-2.12-34.07-13.82-13.15-7.07-12.1-9.05-9.9-13.26-5.52-14.31-.49-8.99,3.3-11.42,8.61-12.28Z"/>
  <path class="cls-13" d="M164.46,98.64s-10.7,64.19,88.76,66.08c0,0,10.56-3.5,28.4,1.21-4.42-2.29-10.7-4.58-18.27-4.44-3.71,0-6.42.68-7.14.81-9.85,2.02-54.66,1.89-77.92-27.06-4.42-5.25-12.56-17.22-13.84-36.6h.01Z"/>
  <path class="cls-13" d="M204.71,64.46c-7.57,8.21-9.42,15.61-10.13,19.65-3.57,21.4,15.41,40.65,29.25,49.12,2.28,1.34,8.71,4.31,21.84,10.09,11.41,4.98,20.83,9.01,27.4,11.71-6.27-1.76-14.98-4.58-24.97-8.75-11.41-4.71-19.4-8.08-27.12-13.46-4.71-3.37-31.54-22.07-28.25-46.7.57-4.03,2.57-13.32,12.56-23.15-.29.4-.43.94-.57,1.48h-.01Z"/>
  <path class="cls-13" d="M203.7,72.53c0,6.19.71,15.75,4.71,26.65,2.28,5.92,8.42,22.61,24.68,33.91,18.27,12.79,40.67,12.38,40.67,19.51,0,.6-.18,1.17-.18,1.17-.15.56-.38.99-.53,1.25-.33-.1-.68-.19-1.01-.29.21-.23.49-.58.72-1.06,0,0,.47-.72.43-1.48-.28-4.44-13.7-4.71-29.54-11.98-11.13-5.25-17.7-11.3-18.98-12.66-6.7-6.46-10.27-12.79-12.42-16.96-5.85-10.77-7.43-20.19-7.85-23.15-1-6.19-.85-11.3-.71-14.93h0Z"/>
  <path class="cls-13" d="M204.71,64.46c7.14,6.87,12.7,13.19,16.84,18.03,10.56,12.79,17.27,20.72,21.84,32.03,1.14,2.69,2.57,6.73,5.71,12.11,1.39,2.37,4.45,7.22,9.42,12.66,2.99,3.26,5.81,5.81,8.07,7.68-.23-.02-.56-.07-.94-.2,0,0-.46-.08-.79-.38-.78-.69-1.74-1.55-2.82-2.57,0,0-1.74-1.66-3.37-3.31-11.13-11.3-12.28-19.79-21.84-35.53-4.99-8.08-9.42-13.72-14.13-19.51-7-8.88-13.56-15.88-18.69-20.86.43.13.57,0,.71-.13Z"/>
  <path class="cls-13" d="M237.1,91.91s44.81,43.88,34.39,57.74c.35.21.7.43,1.05.64.29-.65.62-1.55.89-2.66,0,0,.36-1.57.49-3.23.43-5.79-1.85-10.5-5.71-16.82-6.56-10.5-12.7-17.63-13.27-18.3-4.14-4.71-10.13-10.77-17.84-17.37h0Z"/>
  <path class="cls-13" d="M254.22,56.79s81.77,26.91,22.55,98.12c-.57.13-1,.27-1.57.4,3.85-4.44,9.13-11.3,13.7-20.46,4.43-9.02,8.42-16.82,8.14-27.46-.28-13.32-6.56-22.88-8.56-25.7-9.85-14.13-25.55-20.72-27.68-21.4-.28-.13-2.14-.53-4.28-1.89-1.14-.53-1.85-1.21-2.28-1.61h-.01Z"/>
  <path class="cls-13" d="M216.54,64.65c1.4-.76,11.32-5.95,22.2-1.91,6.1,2.27,9.58,6.35,11.06,8.31,0,0,32.96,46.97,26.4,68.24.29-2.29.57-5.66.14-9.96-.43-3.5-1.28-6.19-1.85-7.81-5.42-16.01-11.55-27.72-11.55-27.72-3.85-7.27-5.71-10.9-8.42-14.53-5.51-7.39-10.96-14.48-20.26-16.56-2.55-.57-8.92-1.54-17.43,2.1-.1-.06-.18-.12-.27-.18h-.02Z"/>
  <path class="cls-13" d="M242.66,233.91c-1.14-.57-17.22-8.86-18.07-23.81-.58-10.34,6.44-18.47,8.68-21.07,3-3.48,6.19-5.79,12.16-10.1,5.17-3.74,9.75-6.52,13.06-8.41.52-.08,1.06-.17,1.58-.25-6.86,4.44-12.15,8.29-15.86,11.13-2.27,1.73-3.71,2.95-5.41,4.45-6.27,5.51-8.14,8.61-8.99,10.22-.85,1.48-4.14,7.53-3.57,14.8.71,14.13,14.98,22.35,16.42,23.01h0Z"/>
  <path class="cls-13" d="M271.34,238.89s-39.38-60.03,10.13-72.95l.29.81c-3.29.94-10.27,3.5-16.12,10.09-1.71,2.02-4.71,5.79-6.42,11.3-1.56,5.11-1.42,9.82-.57,15.48,2.43,14.67,9.13,28.53,12.7,35.26h-.01Z"/>
  <path class="cls-13" d="M290.32,230.27l-8.85,12.66s-14.98-15.34-11.13-25.85c0,0-2.72,9.69,10.56,23.15.14-1.75.14-4.44-.14-7.67-.71-6.87-3-11.43-4.28-14.53-3.43-8.34-5.14-17.22-5.28-22.35-.14-5.25.85-14.53,10.56-26.25-2.14,2.97-4.57,6.6-6.42,11.17-1.28,3.1-3,7-3.43,12.25-.43,4.71.43,8.21,1.42,12.66,2.28,9.42,4.57,11.43,6.84,19.38.85,3.37,1.99,8.48,2.13,15.21,2.57-3.23,5.28-6.6,8-9.82h.01Z"/>
  <path class="cls-13" d="M288.76,164.46c3.29,2.16,8.42,6.06,11.99,12.51,4.57,7.93,4.42,15.48,4.14,22.61-.28,6.73-1.57,18.17-8.42,31.49,1.42-23.28-.57-41.05-3-48.45-2.4-7.33-6.5-11.49-8-13.06-1.52-1.6-2.94-2.81-4-3.63.1.27.19.53.29.81,1.59,1.35,3.49,3.21,5.28,5.66,1.47,1.99,2.53,3.9,3.29,5.52,0,0,2.43,5.11,3.57,9.96,1.42,6.06,2.13,25.17-.43,50.88,4.99-7.8,11.13-20.19,12.28-35.8.57-8.48,1.28-19.25-5.99-28.93-3.43-4.84-7.85-7.8-10.98-9.56h-.01Z"/>
  <path class="cls-13" d="M294.24,242.04c1.58-.93,3.7-2.31,5.93-4.33,6.36-5.74,8.77-12.17,9.89-15.32,3.8-10.57,2.22-19.95,1.82-19.97-.56-.02,2.53,17.51-8.56,30.82-3.14,3.77-6.56,6.46-9.56,8.48-.08.17,0,.34.14.4.11.05.25.01.34-.08h0Z"/>
  <path class="cls-13" d="M294.03,167.96s30.26-9.42,37.39,39.57c-.57-4.58-1.85-9.69-4.28-15.21-3.14-7.27-8.42-19.38-20.4-23.15-4.57-1.48-8.99-1.21-12.28-.68-.14-.13-.28-.4-.43-.53Z"/>
  <path class="cls-13" d="M342.26,226.24s12.42-6.47,8.56-24.62c0,0,8.99,17.5-8.56,24.62Z"/>
  <path class="cls-13" d="M325.58,239.83s24.11-.94,33.82-18.43c-2.43,3.1-7,8.21-14.41,12.25-7.71,4.18-14.84,5.26-18.84,5.66-.29.13-.43.27-.57.53h0Z"/>
  <path class="cls-13" d="M306.31,168.09s25.69-4.03,41.38,22.88c0,0,47.66,26.91,14.13,47.78,2.43-2.82,7.42-9.56,6.56-18.03-.57-5.51-3.43-9.29-7.28-14.53-2.72-3.63-7.28-9.01-14.27-14.13-2.43-4.03-8.99-13.87-22.27-19.65-7.28-3.37-13.84-4.18-18.27-4.31h.01Z"/>
  <path class="cls-13" d="M344.41,185.99c11.27,5.52,26.69,15.08,37.39,31.9,8.71,13.72,11.13,27.46,11.55,27.32.43-.14-1.14-15.48-11.71-30.69-10.56-15.34-24.83-22.75-29.68-25.17-3-1.61-5.71-2.69-7.57-3.37h.01Z"/>
  <path class="cls-13" d="M385.65,279.93c13.27,9.96,25.25,16.16,33.67,19.79,6.84,2.97,12.85,5.11,20.4,4.98,3.43,0,10.98-.27,17.27-4.71,12.42-8.75,9.7-26.65,9.56-27.59.57.53,1.28.94,1.85,1.48-.29,18.43-9.13,25.57-10.84,26.91-14.7,11.43-46.81,5.79-71.93-20.86h.01Z"/>
  <path class="cls-13" d="M393.07,290.03c4.28,4.31,12.13,10.77,23.55,15.21,5.71,2.16,13.84,5.39,23.69,4.44,19.12-1.61,30.69-17.22,32.96-20.59.14-.4.14-.94.29-1.34-2.28,3.23-13.7,18.85-32.96,20.87-15.98,1.75-29.96-7-38.67-12.25-3.71-2.29-6.7-4.58-8.85-6.32Z"/>
  <path class="cls-13" d="M395.07,198.24c4.28,1.34,11.41,4.03,18.55,9.42,22.41,17.09,23.97,44.81,24.26,51.81.28,5.79.14,14.93-3,25.85,1.14-6.06,6.42-35.26-5.99-57.74-5.28-9.69-12.56-16.15-12.56-16.15-2.91-2.51-6.75-5.39-11.62-8.03-3.56-1.92-6.92-3.32-9.86-4.34-.02-.07-.06-.21-.02-.38.05-.24.19-.38.25-.44h0Z"/>
  <path class="cls-11" d="M371.59,75.87l1.81.4,2.51,1.02,3.84,2.06,6.87,3.7,7.65,4.32,9.76,5.63,8.34,5.21,11.04,7.82,8.49,6.96,4.95,7.08,4.24,7.3,2.29,5.92.79,3.13.31,2.95.15,3.77-.89,5.16-3,7.07-4.13,4.41-3.43,3.08.19,2.37-.55,7.38-4.07,9.31-5.73,5.28-5.55,3.15-6.27,2.31-8.36,3.4-9.95,3.22-50.49-15.86-37.33-15.56,48.89-20.91,24.95-35.54-7.33-35.56Z"/>
  <path class="cls-13" d="M419.19,212.64s20.98,8.61,41.1,45.62c0,0,23.55,36.6,21.55,76.85l23.26,78.46s31.54,114.13-18.12,124.23c7.99-3.1,12.7-7.27,15.27-9.96,10.27-11.03,10.84-25.57,11.27-43.2.14-8.48-.43-15.21-1-20.46-2.28-21.67-6.42-40.25-10.41-55.45-3-11.03-14.7-53.57-19.12-65-.43-1.08-1.71-4.44-2.43-9.29-.57-4.44-.14-7.67,0-8.61,1.14-10.77-5.42-30.82-7-35.67-5.28-16.16-11.71-27.46-16.56-35.94-10.84-18.71-18.69-25.98-20.54-27.59-3.57-3.1-8.42-7-8.42-7-3.57-2.97-6.7-5.38-8.85-7h.01Z"/>
  <path class="cls-13" d="M477.7,344.53l19.12,60.97s33.96,109.83-9.84,132.43c3.71-2.69,9.28-7.4,13.27-14.67,3.57-6.32,4.57-11.98,5.14-15.75,3.71-24.77,1.71-45.49,1.71-45.49-2.14-22.21-6.7-39.03-9.56-49.67-1.28-4.58-5.42-17.63-13.56-43.88-1.99-6.46-4.99-15.88-7-22.2.43-.53.57-1.21.71-1.76h.01Z"/>
  <path class="cls-13" d="M424.94,339.98c4.02,3.54,7.19,4.09,9.23,4.02,9.67-.38,19.04-16.08,22.41-39.7.14-.13.43-.13.57-.27-.84,7.54-2.48,13.64-3.9,17.98-2.8,8.51-5.46,12.21-6.25,13.27-3.01,4.07-6.74,9.09-12.54,9.39-4.44.24-7.95-2.41-9.38-3.65l-.12-1.04h-.01Z"/>
  <path class="cls-13" d="M392.64,289.49c4,5.66,9.56,13.87,15.98,23.82,17.7,27.59,42.52,66.76,60.51,118.44,21.69,62.31,13.56,85.87,10.84,92.99-4.85,12.25-11.71,21.27-17.13,27.19,8.14-9.96,12.56-19.25,14.98-25.43,3.71-9.42,4.57-16.29,4.71-17.77.29-2.29.57-6.19,0-14.8-.85-11.71-2.57-20.72-3.29-24.62-3.14-16.01-7.43-28.12-10.27-36.2-1.85-5.26-3.86-11.17-7-18.71-1.57-3.77-2.43-5.39-4.85-11.03-3.43-7.93-5.85-13.87-6.27-15.21-7.14-17.63-29.54-52.62-52.09-88.96-2.72-3.9-6.13-9.82-6.13-9.69h.01Z"/>
  <path class="cls-13" d="M434.74,370.78s64.79,104.17,28.11,181.15c4-10.37,8.42-25.57,9.7-44.15,1.14-17.77-1.28-30.69-3.71-44.15-6.7-36.88-20.4-64.47-28.25-80.08-2.43-4.84-4.57-8.61-5.85-11.17v-1.61h0Z"/>
  <path class="cls-13" d="M482.55,359.75s1.14,55.45-17.13,63.53v-1.34c.85-.68,2.43-1.75,4.14-3.5,0,0,2.86-3.1,4.71-7.53,2.13-4.98,5.56-25.3,7.71-53.03.14.68.43,1.34.57,1.89h0Z"/>
  <path class="cls-13" d="M461.85,414.38s14.55-13.46,14.55-21.8c-1,2.82-2.57,6.19-4.99,9.69-3.43,4.98-7.14,8.61-10.13,11.03.29.27.43.68.57,1.08Z"/>
  <path class="cls-13" d="M479.84,354.9s-6.7,20.32-25.4,30.41c4.28-2.97,10.27-7.67,15.69-14.67,4.85-6.19,7.71-12.25,9.56-16.69,0,.27,0,.53.14.94h0Z"/>
  <path class="cls-13" d="M342.41,183.44c5.56-.68,14.98-1.08,25.55,1.89,40.39,11.03,67.79,62.18,53.66,81.96-2.72,3.77-9.56,9.96-28.97,10.5-.43,0,18.98-.68,26.55-11.43,12.28-17.5-7.71-60.16-41.95-75.9-13.84-6.6-27.12-7.27-34.83-7h-.01Z"/>
  <path class="cls-13" d="M421.1,456.93c.43,2.75.79,4.59,1.06,7.75.36,4.2.28,7.97.31,14.48.02,10.2.24,8.62.19,14.77-.04,5.31-.68,9.37-.49,12.95.22,4.22,1.46,5.49,2.99,10.51,1.03,3.36,1.49,7.34.63,30.11-.3,7.82-.58,10.56-1.15,14.21-.67,4.33-1.63,8.36-2.74,12.17-2.17,7.42-3.26,11.13-5.37,14.06,0,0-3.19,4.41-7.65,7.44-1.4.95-2.1,1.42-2.64,1.63-.21.08-.7.26-1.22.66-.43.34-.72.71-.9.96.71.08,1.71.14,2.89.01.63-.07,2.11-.28,4.11-1.17,0,0,3.43-1.53,6.11-4.29,4.94-5.09,7.99-17.89,7.99-17.89,2.59-9.34,4.67-18.37,4.53-18.4-.15-.04-2.89,10.55-3.44,13.06-.07.32-.41,1.89-.96,3.98-.03.12-.06.23-.09.35-.75,2.79-1.55,5.15-2.37,7.25-1.36,3.46-2.22,5.73-3.98,8.54-1.87,2.98-3.26,4.23-3.78,4.68-1.74,1.49-3.35,2.23-4.21,2.62-1.33.6-2.82,1.07-4.54,1.17-.51.03-1.6.09-1.69-.21-.11-.39,1.47-1.1,2.8-1.83,0,0,1.71-.94,5.69-4.24,5.14-4.26,9.04-16.2,9.86-18.79,2.41-7.65,3.21-13.75,3.89-18.86.38-2.89.94-7.94,1.09-14.27.1-4.26.2-7.79-.34-12.57-.67-5.89-1-8.83-2.4-12.69-1.08-2.97-2.33-5.23-2.26-8.77.02-.97.15-1.96.19-4.33.05-3.19-.18-5.1.17-19.74.15-6.29.32-11.13-.57-17.84-.36-2.73-.51-2.87-1.15-7.49-.78-5.62-.97-8.45-1.71-15.11-.14-1.28-.27-2.47-.4-3.57-.57-4.92-.86-7.42-.91-7.41-.12.01.28,12.24,2.47,26.08Z"/>
  <path class="cls-13" d="M411.96,335.81c6.21,21.85,11.02,40.78,14.65,55.88,8.34,34.76,10.88,51.3,12.24,61.73.78,5.99,1.26,10.5,2.08,18.47,2.67,25.76,4.01,38.64,2.93,47.72-1.03,8.66-4.09,21.8-14.12,37.29l-.04-1.39c3.71-6.05,7.7-14.1,10.36-24,3.06-11.38,3.18-20.79,3.06-25.27-.06-2.3-.43-6.42-1.17-14.65-.63-6.96-1.29-13.64-1.65-16.96-.97-9-3.27-26.43-7.34-48.22-5.24-28.12-10.83-49.62-14.93-65.31-2.5-9.58-4.74-17.63-6.43-23.51.12-.6.22-1.2.34-1.8h.02Z"/>
  <path class="cls-13" d="M435.38,372.66c.83,5.14,1.45,10.77,1.64,16.87.48,14.47-1.53,27.02-4.02,36.91l-.31-3.12c1.38-5.88,2.54-12.57,3.15-19.96,1.06-12.57.26-23.64-1.1-32.58.21.63.43,1.24.63,1.87h.01Z"/>
  <path class="cls-13" d="M438.85,453.42s10.63,40.12,33.03,29.4c-3.2,2.04-5.91,2.55-7.9,2.56-10.17.08-20.72-12.25-25.38-30.96.08-.33.17-.68.25-1.01Z"/>
  <path class="cls-13" d="M443.25,495.14s9.63,19.82,27.65,10.28c-1.34.88-6.32,3.94-12.85,3.08-6.77-.88-12.56-5.62-14.99-12.2l.2-1.18h-.01Z"/>
  <path class="cls-13" d="M89.43,295.47c-3.99,4.74-9.57,11.77-15.57,20.69-13.25,19.72-23.79,35.41-24.71,56.07-.42,9.36-1.2,27.12,11.99,36.45,11.61,8.22,27,4.9,30.72,4-.05-.21-.09-.44-.14-.65-2.65.83-14.06,4.08-25.44-1.49-1.7-.83-7-3.63-11.09-9.31-6.32-8.79-5.8-19-5.34-27.99.21-4.03.71-7.1.94-8.39,2.88-16.54,11.2-29.12,20.02-42.23,4.52-6.71,17.06-24.47,18.01-25.28.06-.05.42-.32.58-.8.14-.39.11-.78.04-1.08h0Z"/>
  <path class="cls-13" d="M81.32,320.43c-.17-.12-17.86,17.44-25.48,41.03-.57,1.78-2.5,7.97-2.83,16.25-.32,7.93-.6,15.1,4.34,21.4,4.01,5.1,9.67,7.38,11.59,8.14,4.32,1.68,8.26,2.03,11.16,2.28,3.87.33,7.12.18,9.43-.04-.11-.15-.21-.31-.32-.46-14.01,1.36-26.85-2.82-32.11-11.41-2.85-4.65-3.08-9.93-3.3-15.8-.07-1.9-.28-10.2,3.26-21.27,3.55-11.05,8.88-18.76,16.88-30.31,5.08-7.33,7.44-9.76,7.38-9.81Z"/>
  <path class="cls-13" d="M81.32,320.43c-3.83,7.88-8.4,20.12-8.8,35.42-.84,32.56,17.83,55.52,23.95,62.45l.91.57v-1c-5.97-6.63-21.54-25.73-23.6-54.1-1.42-19.58,4.22-34.97,7.91-43.03-.12-.11-.25-.2-.37-.31Z"/>
  <path class="cls-13" d="M260.08,169.44s-67.08,9.29-80.61,41.12c7.05-9.41,14.45-15.45,19.71-19.13,11.55-8.05,22.42-11.41,33.97-14.97,10.76-3.32,20.11-5.14,26.94-6.18v-.84h-.01Z"/>
  <path class="cls-13" d="M214.43,182.02c-9.49-.08-16.75,1.78-21.23,3.3-20.49,6.9-30.45,22.29-36.15,31.1-2.88,4.45-5.69,9.79-6.61,16.63-.4,2.96-.89,6.95.82,11.67,1.92,5.33,5.56,8.62,7.5,10.15-2.05-1.93-5.78-6.04-7.18-12.15-.37-1.61-1.07-5.5.65-12.38,1.04-4.19,3.52-11.65,10.6-20.62,4.28-5.42,15.22-19.25,35.15-24.61,6.82-1.84,12.7-2.14,16.46-2.12v-.97h-.01Z"/>
  <path class="cls-13" d="M186.19,188.17c-6.89,2.02-16.54,5.71-26.11,12.82-24.8,18.46-42.9,55.37-28.42,73.28,2.24,2.78,9.81,10.69,30.99,11.04-1.73.04-22.1.12-30.98-13.53-6.52-10.02-2.85-21.3.49-31.53,5.9-18.07,18.43-28.87,23.97-33.53,10.75-9.04,21.87-13.97,30.05-16.71v-1.83h.01Z"/>
  <path class="cls-13" d="M147.18,212.89s-68.64,47.95-57.65,107.56c-.93-22.88,5.2-39.45,9.39-48.41,6.68-14.25,15.53-24.24,23.63-33.4,9.3-10.51,18.2-18.36,24.86-23.75l-.23-2h-.01Z"/>
  <path class="cls-13" d="M157.46,302.95s-26.14,3.57-30.96-17.63c1.21,2.44,4.23,7.64,10.52,11.58,8.79,5.49,17.89,4.72,20.44,4.42v1.64h0Z"/>
  <path class="cls-4" d="M180.78,73.01l-13.77,7.32-14.61,16.87-7.58,6.32-11.03,8.88-10.41,11.93-9.22,13.69-4.8,9.67-4.92,15.17-2.1,7.21-1.07,14.33,2.44,12.3,4.27,8.15,9.13,6.79,8.86,2.44,8.64,1.47c2.46.01,4.92.02,7.38.04-1-.2-2-.4-3-.62l-3.64-.92-8.84-3.61-9.64-6.89-6.84-10.68-2.93-11.18.85-11.74,2.63-9.67,4.84-9.93,5.99-6.07,7.21-5.03,8.53-6.99,7.54-9.14,2.5-4.61,2.21-7.12,3.45-7.12,6.13-7.11,9.37-8.69,5.82-8.79,6.62-6.7"/>
  <path class="cls-13" d="M139.99,326.22s-53.65-13.06-17.2-84.81c-17.77,27.23-18.93,56.88-3.67,73.6,3.29,3.59,9.39,8.87,20.26,12.18.2-.32.4-.64.61-.97Z"/>
  <path class="cls-13" d="M109.72,254.08s-24.52,53.39,21.79,82c-4.09-1.93-10.13-5.38-15.69-11.27-11.79-12.45-13.15-27.02-13.84-34.24-1.52-16.16,3.33-28.98,6.52-35.7.4-.26.81-.52,1.21-.79h.01Z"/>
  <path class="cls-12" d="M302.63,52.95l7.21.69,10.12,1.53,10.28,3.19,8.3,5.42,8.99.93,9.67,2.48,9.05,5.02,8.74,6.41,6.92,7.5,6.06,9.74,2.25,9.76.68,6.68-.37,6.24-1.47,6.29-3.12,8.87-3.97,6.24-7.21,8.65-7.34,5.78-12.6,5.71-8.74,1.91h-3.85l-13.45,4.66-13.21,1.79-9.49,1.51-24.6-3.97,4.37-9.14,44.08-56.54-27.28-47.3Z"/>
  <path class="cls-9" d="M231.22,61.23l6.71-9.82,6.13-5.4,7.83-3.12,8.2-.57,5.2-.4,7.15-.4,7.69.74,10.9,4.04,10.02,5.11,10.11,9.8,8.44,12.09,6.55,12.11,3.06,18.02-1.22,15.38-1.86,8.08-7.46,13.22-11.49,11.61-18.35,11-7.34,3.23-4.41-15.88s.38,1.33,2.54-10.77c2.16-12.1,1.87-10.79,1.87-10.79l-3.1-25.68-5.87-18.85-5.11-6-13.18-10.69-11.9-5.87-3.58,1.33-7.52-1.51Z"/>
  <path class="cls-13" d="M109.61,380.54s-24.59-7.97-24.67-60.11c-.24,4.91-.28,12.02.77,20.51,1.29,10.46,2.19,17.71,6.99,25.41,2.29,3.68,7.03,9.96,16.38,15.34.18-.38.36-.76.53-1.14Z"/>
  <path class="cls-13" d="M101.98,290.56s-5.74,45.87,12.67,58.28c-2.15-2.24-5.08-5.75-7.45-10.59-2.35-4.79-3.25-9.05-3.88-13.46-1.86-12.88-1.3-25.81-.75-33.25-.19-.33-.39-.65-.58-.99h-.01Z"/>
  <path class="cls-13" d="M77.62,331.35s1.06,55.8,27.15,55.71c-2.08-.47-5.08-1.39-8.15-3.31-5.78-3.59-9.12-9.02-12.3-17.95-2.63-7.39-5.94-19.44-6.32-35.64-.12.39-.25.78-.37,1.17h-.01Z"/>
  <path class="cls-15" d="M199.37,63.59l-6.24-3.72-7.38-6.69-1.87-4.92.82-2.85,5.87-5.5,5.79-2.57,8.03-2.61,7.63-1.65c1.43-.25,2.88-.51,4.32-.76l-.2.74-1.54.47-8.55,3.53-7.43,3.78-3.97,2.97-2.48,3.12-.27,3.06,2.57,5.4,4.13,3.37,4.71,3.17,2.27,1.39-6.18.3h-.01Z"/>
  <path class="cls-13" d="M359.39,253.36s23.81,1.19,32.25-5.5c-.43.58-1.15,1.48-2.21,2.42-1.46,1.3-5.25,4.17-19.36,5.29-2.37.19-5.69.37-9.7.36-.33-.85-.66-1.71-1-2.56h.01Z"/>
  <path class="cls-13" d="M243.77,57.52l4.65-.72s29.48,1.49,33.35,70.41l6.16-12.23c1.01-4.32,2.19-12.15-.12-21.46-3.05-12.26-10.4-20.07-13.83-23.31,1.77,1.38,4.53,3.74,7.25,7.16,8.31,10.5,12.53,26.37,7.91,37.1-.62,1.44-2.67,5.75-5.78,13.07-1.23,2.92-1.85,4.39-2.11,5.29-1.51,5.4-.44,8.27-2.27,13.26-.66,1.83-1.45,3.2-1.92,3.96,5.31-23.68,2.05-42-.64-52.05-3.08-11.49-9.49-35.42-26.55-39.8-2.5-.64-4.67-.72-6.12-.69h.01Z"/>
  <path class="cls-13" d="M242.32,61.41c3.51,1.38,7.41,3.2,11.48,5.63,8.32,4.97,14.23,10.64,18.21,15.19.65,2.38,1.29,4.77,1.95,7.15-.87-2.09-2.34-5.1-4.76-8.34-3.84-5.12-8.01-8.05-13.36-11.74-3.23-2.23-7.76-5.08-13.53-7.9h.01Z"/>
  <path class="cls-13" d="M216.18,64.81c3.31,2.06,6.68,4.28,10.08,6.65,10.31,7.21,19.16,14.65,26.68,21.81,0,0-16.81-27.5-35.03-28.48h-1.73Z"/>
  <path class="cls-13" d="M234.77,61.94c.5.15,1,.3,1.49.45,1.26-1.61,10.26-12.87,18.84-12.4,1.15.06,2.38.3,2.38.3,1.94.52,3.85,1.98,11.64,6.64,14.12,8.45,15.99,7.96,19,11.83,1.97,2.53,5.2,7.9,4.58,17.56,1.3-11.4-2.43-16.83-4.63-19.2-.88-.95-4.7-3.25-12.31-7.84-11.91-7.19-9.55-4.84-12.4-7-1.14-.87-3.01-2.37-5.93-2.93-2.19-.42-3.97-.13-5.32.17-7.56,1.61-16.8,11.81-17.34,12.42h0Z"/>
  <path class="cls-13" d="M180.78,73.01c-1.85.78-4.54,1.97-7.71,3.57-5.2,2.62-14.19,7.63-30.31,21.21-8.65,7.28-13.69,11.53-20.08,18.36-9.62,10.28-16.23,19.93-20.54,27.03-.01.65-.04,1.29-.05,1.95,4.22-7.12,11-17.2,21.22-27.88,2.94-3.06,8.59-8.04,19.93-17.99,12.88-11.29,20.18-17.1,30.7-22.35,2.38-1.19,4.4-2.08,5.75-2.66.37-.43.74-.84,1.12-1.27l-.02.02Z"/>
  <path class="cls-13" d="M217.02,65.23c-10.49-2.83-18.26-1.03-21.6-.01-12.66,3.84-20.29,14.25-21.46,15.72-2.63,3.34-3.26,5.02-6.97,9.12-3.54,3.91-6.47,6.27-7.69,7.34-3.96,3.46-8.79,9.75-12.05,22.19-1.48,2.43-3.86,5.99-7.26,9.89-7.35,8.41-13.87,11.93-17.53,14.79-13.39,10.47-20.18,36.93-8.47,54.33,7.97,11.86,21.99,15.74,27.99,17-3.38-.41-19.13-2.67-28.8-15.5-11.79-15.65-5.01-34.34-3.5-38.49,1.08-2.97,3.72-10.27,10.53-16.88,5.53-5.36,8.46-5.1,15.62-12.08,4-3.89,7.5-7.34,10.19-12.92,2.53-5.24,1.87-7.27,5.38-13.19,2.22-3.75,4.64-6.58,5.78-7.9,3.07-3.56,4.97-4.96,7.59-7.52,5.47-5.35,4.78-6.96,9.79-12.3,10.38-11.08,20.59-14.34,20.59-14.34,9.57-2.91,18.31-1.01,22.75.33-.3.14-.59.28-.88.43h-.01Z"/>
  <path class="cls-13" d="M152.38,97.21s-35.11,23-43.79,52.85c0,0-31.46,68,33.39,65.55-2.55,0-6.29-.14-10.69-.99-6.63-1.26-15.86-3.01-22.32-10.13-6.33-6.96-6.87-15.59-7.21-21.17-.27-4.44.25-7.73.74-11.14,1.54-10.91,5.06-18.71,7.95-24.98,2.95-6.42,7.89-16.91,17.67-27.86,6.73-7.52,14.23-13.56,17.77-16.4,2.62-2.11,4.88-3.8,6.51-4.99v-.75h-.01Z"/>
  <path class="cls-13" d="M164.46,98.64s-8.56,72.13,40.82,83.91l-1.14.15c-3.9-.91-9.69-2.73-15.56-6.64-13.39-8.92-17.86-22.54-21.42-33.33-.71-2.16-3.92-12.17-4.43-25.82-.3-7.84.38-14.48,1.16-19.39.19.38.38.76.57,1.14h0Z"/>
  <path class="cls-13" d="M156.35,132.29s13.75,48.22,38.53,52.47l-1.68.53c-2.41-.7-5.84-1.92-9.49-4.13-9.56-5.78-13.76-14.13-18.66-24.18-2.86-5.87-6.29-14.2-8.69-24.71h0Z"/>
  <path class="cls-13" d="M209.78,158.47s20.53,13.4,28.91,12.41c-4.31-.38-10.53-1.38-17.45-4.2-7.39-3.01-12.67-6.9-15.97-9.74,1.51.51,3,1.02,4.51,1.53Z"/>
  <path class="cls-13" d="M137.12,132.29c-.62,8.91.59,16.12,1.77,20.92,1.27,5.19,4.13,16.33,13.55,26.9,2.43,2.73,4.7,4.74,6.27,6.05.17,0,.34.01.51.02-3.21-2.64-7.62-6.84-11.47-12.85-5.08-7.9-6.73-15.02-8.08-21.33-1.04-4.88-2.09-11.74-1.9-20.11-.21.13-.43.26-.64.38h-.01Z"/>
  <path class="cls-13" d="M137.77,141.85c-.97,2.06-2.41,5.42-3.67,9.69-2.68,9.11-6.81,23.11.77,32.54,3.78,4.71,9.23,6.74,10.89,7.36,4.08,1.52,7.76,1.72,14.95,2.04,4.92.23,8.98.13,11.72.02.58-.27,1.16-.56,1.74-.83-2.51.08-6.14.15-10.52.05-7.35-.18-11.03-.26-14.32-1.14-2.54-.68-10.51-2.81-14.97-9.69-3.3-5.1-3.11-10.38-2.95-14.53.05-1.33.21-3.65,2.55-12.42,1.46-5.49,2.83-9.99,3.82-13.07h-.01Z"/>
  <path class="cls-13" d="M139.05,154.02c-.23.82-.53,2.04-.9,3.51-1.14,4.71-1.71,7.06-1.92,9.37-.23,2.44-.31,6.87,1.47,11.58.21.56,1.25,3.2,3.14,4.92,1.72,1.55,3.71,2.18,3.71,2.18.2.07.87.27,2.38.4,1.9.17,3.36.06,3.45.06,3.07-.23,9.77.17,12.95.36,3.64.21,9.06,1.06,16.11,4.02-.19.07-.38.14-.57.23-.79-.29-1.91-.66-3.26-1.1-2.29-.75-3.75-1.23-5.26-1.6-1.1-.27-2.4-.52-6.61-.91-2.66-.25-4.44-.43-7.5-.56-8.85-.38-10.28.51-13.08-.91-3.14-1.6-4.67-4.42-5.37-5.71-1.36-2.53-1.58-4.67-1.81-7.56-.52-6.27.82-11.47,1.99-15.92.36-1.34.69-2.42.9-3.1.05.25.11.5.15.74h.01Z"/>
  <path class="cls-14" d="M231.22,61.23l5.74-8.72,6.25-6.78,1.04-6.89,2.6-5.71,4.77-4.31,5.63-2.7,4.13-.66h5.5l5.37,1.38,4.38,2.37,3.95,2.8-1.23-1.93-3.84-3.26-5.08-2.54-10.74-1.33-15.66.98-18.93,4.96-8.32,3.87-4.34,4.21-2.68,4.7.42,4.99,1.59,6.05,2.69,4.09,5.28,6.41,11.47-1.97Z"/>
  <path class="cls-5" d="M339.41,107.98c-2.62,5.53-6.94,13.19-13.94,21.52-.29.68-.6,1.33-.91,1.99-2.35,4.88-5.22,9.07-8.34,12.69h-2.2c1.62-1.71,3.19-3.56,4.64-5.54,10.62-14.61,10.17-30.65,9.99-34.75-.76-17.42-9.98-34.58-22.57-46.39v-2.32c2.8,2.4,5.4,5.04,7.75,7.86,4.59,1.49,11.79,4.39,19.05,10.03,5.49,4.27,9.96,7.73,11.67,13.52,1.91,6.41-.65,11.99-5.14,21.39Z"/>
  <path class="cls-13" d="M146.03,119.74s-13.38,57.09,40.16,68.44l-1,.3c-5.59-1.11-18.09-4.41-28.03-14.9-6.52-6.89-9.14-13.93-10.64-18.05-.89-2.46-4.84-13.95-2.57-28.59.32-2.04.69-3.71.96-4.83.38-.78.75-1.58,1.13-2.36h-.01Z"/>
  <path class="cls-13" d="M141.7,162.42s.97,19.2,8.71,23.64l.53-.04c-.63-.5-1.71-1.42-2.8-2.76-1.01-1.23-3.05-4.08-5.08-14.28-.27-1.36-.65-3.39-1.01-5.91-.12-.21-.24-.44-.36-.65Z"/>
  <path class="cls-13" d="M151.41,106.55s-.79,28.37-5.94,40.15l-.14-.93c1.93-7.02,3.62-15.1,4.58-24.1.53-4.92.78-9.58.84-13.95.23-.39.44-.77.66-1.16h0Z"/>
  <path class="cls-13" d="M195.42,65.21c-2.11,1.15-4.99,3.04-7.56,6.04-5.67,6.63-6.93,15.38-5.5,26.88,3.19,25.83,17.22,43.6,17,43.72-.24.12-16.57-20.54-18.84-47.19-1.16-13.58,2.51-19.43,4.76-22.16,3.26-4,7.37-6.14,10.14-7.29Z"/>
  <path class="cls-13" d="M198.57,64.46s-37.29-6.63-12.38-48.31c-.76,1.93-1.78,4.72-2.73,8.15-2.78,10.08-5.2,18.86-1.63,26.49,4.01,8.58,13.96,12.16,18.3,13.42-.52.08-1.04.18-1.57.26Z"/>
  <path class="cls-13" d="M231.22,61.23c3.59-7.43,9.47-16.04,19.03-18.78,16.14-4.63,35.61,9.55,35.23,9.3-3.23-2.05-8.25-4.8-14.92-6.63-3.78-1.04-12.18-3.83-20.74-1.21-11.98,3.68-16.84,15.48-17.71,17.69l-.89-.36h0Z"/>
  <path class="cls-13" d="M200.13,64.19s-48.39-22.53,19.62-32.68c-.56.33-1.1.66-1.66.98-3.33.24-8.22.85-13.83,2.56-4.67,1.42-19.56,5.95-19.82,12.86-.1,2.62,1.94,4.67,5.5,8.24,4.08,4.09,8.35,6.44,11.09,7.71-.3.09-.6.2-.9.3v.02Z"/>
  <path class="cls-13" d="M217.71,32.48c-15.98,6.92-24.39,10.56-25.43,15.31-1.25,5.69,8.28,12.28,12.99,15.19h-.7c-8.71-4-14.09-10-13.12-14.84.58-2.87,3.3-4.9,6.44-7.24,2.86-2.12,6.16-3.46,12.65-6.04,4.38-1.74,9.17-3.45,9.22-3.34.02.07-1.47.71-2.04.96h0Z"/>
  <path class="cls-13" d="M327.31,124.72c-.53,1.58-1.13,3.18-1.84,4.78-.29.68-.6,1.33-.91,1.99-2.35,4.87-5.22,9.07-8.34,12.69-11.93,13.94-27.4,19.19-30.76,20.28v-1.2c2.16-.93,5.14-2.31,8.56-4.22,3.89-2.2,12.54-7.03,20-14.86,1.62-1.71,3.19-3.56,4.64-5.54,10.62-14.61,10.17-30.65,9.99-34.75-.76-17.42-9.98-34.58-22.57-46.39-10.21-9.6-22.66-15.68-34.6-15.55-3.57.04-6.56.62-8.74,1.21-.44-.38-.9-.76-1.34-1.13,4.13-.68,10.21-1.21,17.28-.06,10.47,1.71,19.74,6.58,27.41,13.19,2.8,2.4,5.4,5.04,7.74,7.86.63.74,1.22,1.49,1.83,2.24,5.35,6.94,9.32,14.71,11.66,22.36,1.49,4.9,5.78,19.81,0,37.09h-.01Z"/>
  <path class="cls-13" d="M302.1,61.41s25.92,49.21-11.08,70.89l-.15,1.9c5.27-3.16,11.01-7.81,15.3-14.53,16.15-25.27-2.97-56.5-4.08-58.25h.01Z"/>
  <path class="cls-13" d="M339.41,107.98c-2.62,5.53-6.94,13.19-13.94,21.52l.85-3.46c.34-.44.68-.88.98-1.32,7.22-9.69,11.22-18.3,13.5-24.27,2.75-7.22,3.1-10.83,2.03-14.33-1.54-5.08-5.5-8.07-11.01-12.11-3.46-2.54-8.8-5.93-16.18-8.73-.63-.24-1.28-.49-1.96-.71v-1.58s.08.02.13.04c4.59,1.49,11.79,4.39,19.05,10.03,5.49,4.27,9.96,7.73,11.67,13.52,1.91,6.41-.65,11.99-5.14,21.39h0Z"/>
  <path class="cls-13" d="M303.18,52.97s30.16-1.33,42,17.01c0,0,23.5,32.12-22.78,65.52l.75-1.32c5.29-3.83,12.25-9.88,18.21-18.75,3.06-4.57,6.27-9.37,7.83-16.5.74-3.4,3.19-14.67-3.53-25.92,0,0-6.43-10.75-19.47-15.61-4.64-1.73-10.41-2.79-12.23-3.12-4.35-.79-8.08-1.15-10.78-1.32Z"/>
  <path class="cls-13" d="M219.75,63.2c-11.72-11.53-10.35-19.76-9.98-21.53,3.62-16.95,39.44-19.17,50.42-19.06,5.27.05,10.37.7,15.14,3.76,7.14,4.59,9.43,11.94,10.14,14.8-.34-1.1-3.46-10.57-13.76-14.22-1.78-.63-10.84-3.59-19.15,1.61-9.48,5.94-9.06,16.91-9.03,17.46l-.64.3c-.28-8.03,3.82-15.46,10.7-19.04,8.26-4.29,17.03-1.27,17.98-.93,4.46,1.61,7.58,4.54,7.72,4.37.14-.17-2.41-2.97-6.16-4.79-2-.97-6.13-2.41-16.31-2.35-6.88.04-12.51,1.09-16.63,2.08-14.43,3.48-25.42,6.12-28.66,14.02-4.12,10.01,6.83,22.04,8.2,23.5v.02Z"/>
  <path class="cls-13" d="M290.88,45.68c8.82-16,25.45-26.33,43.28-26.5,19.88-.19,32.93,12.36,35.62,14.96,4.52,4.34,10.97,10.56,9.22,17.53-1.76,6.96-10.53,10.08-12.06,10.6-.4-.13-.8-.26-1.2-.39,1.15-.38,10.97-3.72,12.41-11.09,1.15-5.93-3.87-10.87-9.01-15.94-1.73-1.72-7.84-7.46-18.23-11.14-2.93-1.04-12.43-4.29-23.12-3-22.34,2.7-34.21,23.37-35.55,25.8-.45-.28-.91-.56-1.37-.84h.01Z"/>
  <path class="cls-13" d="M294.19,47.26c2.32-3.7,6.88-9.87,14.78-14.84,5.17-3.25,19.86-12.47,32.88-6.05,8.21,4.04,13.18,13.02,13.12,21.78-.05,8.33-4.63,14.13-6.23,15.99h-1.51c1.14-1.15,8.11-8.45,7.02-19.03-.2-1.99-1.4-10.89-9.52-16.37-5.3-3.58-10.82-3.86-12.54-3.93-3.48-.13-7.3.45-12.73,2.81-12.06,5.24-20.83,14.4-25.28,19.63Z"/>
  <path class="cls-13" d="M371.59,4.22s47.81,25.63,6.43,48.73l-.46.87c.79-.27,15.53-5.56,17.76-18.22,1.53-8.65-3.7-15.57-6.27-18.99-6-7.95-14.06-11.22-17.45-12.38Z"/>
  <path class="cls-13" d="M338.74,62.95s38.95,9.95,38.47,43.09c0,0-1.03,58.48-84.23,55.45l1.91-1.42c9.61.86,26.94,1.05,45.25-7.15,5.11-2.29,12.4-5.62,19.45-12.57,2.95-2.92,21.33-21.01,15.54-43.5-4.14-16.06-18.14-24.73-22.63-27.22-5.37-2.98-10.4-4.42-13.95-5.2.06-.5.12-1,.18-1.49h.01Z"/>
  <path class="cls-13" d="M306.31,168.09c4.67.7,11.73,1.25,20.01-.12,26.64-4.41,41.4-24.71,44.86-29.49,7.45-10.26,11.04-20.78,12.72-29.48-1.99,7.32-6.27,19.2-16.1,31.16-3.74,4.56-10.23,12.3-21.33,18.55-16.52,9.3-33.17,9.6-41.39,9.15.4.07.82.14,1.22.21h0Z"/>
  <path class="cls-13" d="M351.15,58.93s36.45.08,43.43,28.59c-.69-.32-1.38-.64-2.05-.96-.85-3.48-2.43-7.52-5.37-11.43-11.28-14.96-32.77-14.84-35.66-14.78-.11-.46-.23-.94-.33-1.4h-.01Z"/>
  <path class="cls-13" d="M338.74,62.95c3.52.09,8.48.56,14.07,2.24,15.27,4.61,34.34,18.1,37.93,40.52,3.01,18.81-6.01,36.77-20.3,47.08-10.71,7.73-22.03,9.45-27.48,9.94l2.22-1.1c4.15-.63,21.92-3.78,34.26-19.06,1.02-1.26,17.21-22.04,7.91-45.85-7.4-18.95-25.69-26.39-29.74-28.04-7.59-3.08-14.48-3.97-19.05-4.23.06-.5.12-1,.18-1.49Z"/>
  <path class="cls-13" d="M366.77,73.22c-.05.09,2.03-.81,33.07,17.1,27.25,15.72,32.94,23.25,35.16,26.45,4.21,6.11,14.17,20.54,7.91,35.06-6.23,14.45-23.99,18.52-26.38,19.03-.38.08,7-2.06,13.82-6.87,4.09-2.87,7.53-5.3,10.31-9.87,3.66-6.04,3.78-11.92,3.66-14.42-.23-4.97-1.87-8.51-3.88-12.67,0,0-3.61-7.5-8.98-13.45-14.02-15.52-64.4-40.99-64.69-40.4v.04Z"/>
  <path class="cls-13" d="M408.27,101.97s58.41,42.52,8.24,68.9c4.46-2.56,16.2-10.13,18.61-22.75,3.23-16.92-12.38-32.19-18.95-38.62-3.16-3.08-6.07-5.38-8.2-6.93.1-.2.19-.42.29-.62h.01Z"/>
  <path class="cls-13" d="M408.27,101.97c16.13,12.05,25.1,28.91,21.34,43.54-2.8,10.91-12.02,18.08-18.55,23.15-11.85,9.22-24.13,12.77-31.16,14.28l-.97-.56c1.93-.37,4.53-.95,7.53-1.89,1.43-.44,10.45-3.3,19.22-9.32,5.55-3.82,17.59-12.1,21.42-24.27,4.6-14.57-3.35-32.12-18.81-44.94h-.01Z"/>
  <path class="cls-13" d="M391.32,90.9c13.08,19.58,16.39,42.04,6.14,57.23-8.52,12.62-24.84,17.95-35.82,21.53-12.18,3.97-22.95,4.97-30.22,5.16l1.87,1.64c8.13-.29,20.86-1.66,34.86-7.5,11.64-4.85,28.43-11.86,35.23-27.46,10.43-23.94-10.91-49.27-12.06-50.6Z"/>
  <path class="cls-13" d="M360.39,171.82s41.09,24.94,76.48,21.84c-4.73.77-11.8,1.51-20.27.77-11.97-1.04-20.64-4.53-33.4-9.76-6.54-2.68-15.24-6.6-25.17-12.12.78-.24,1.57-.47,2.35-.71h.01Z"/>
  <path class="cls-13" d="M430.47,165.36s-5.6,22.8-29.42,23.94l2.36.66c2.94-.1,6.42-.62,10-2.08,14.08-5.73,17.84-21.04,18.36-23.34-.44.27-.88.55-1.32.83h.01Z"/>
  <path class="cls-13" d="M433.52,163.32s3.75,22.48-20.28,28.88h-1.78c2.68-.67,9.34-2.71,14.76-8.67,7.57-8.34,7.03-18.14,6.87-20.21h.44Z"/>
  <path class="cls-13" d="M402.25,101.97c16.19,10.45,22.96,27.47,17.71,40.45-3.54,8.75-11.61,13.35-15.27,15.11h-1.49c3.7-1.65,11.64-5.87,15.35-14.31,6.78-15.42-6.2-32.16-9.9-34.49-.37-.24-2.22-1.32-4.03-3.34-1.15-1.29-1.9-2.53-2.36-3.43h0Z"/>
  <path class="cls-13" d="M402.25,101.97s16.62,18.77.96,55.56h1.49c4.04-9.68,5.38-18.03,5.87-23.64.75-8.7,1.42-18.18-4.42-27.12-1.42-2.17-2.88-3.78-3.89-4.8h-.01Z"/>
  <path class="cls-13" d="M482.81,154.58s5.27,76.83-54.78,65.06l1.07.86c13.49,3.46,22.6.79,26.62-.76,20.22-7.83,32.54-34.35,27.09-65.17Z"/>
  <path class="cls-13" d="M482.81,154.58c.07.82.24,2.19.59,3.89.84,4,2.17,6.81,2.37,7.26,1.84,4.2,7.49,36.64-14.19,52.9-13.21,9.93-29.73,8.66-35.15,8.02l.74.65c5.65.88,21.43,2.57,34.54-6.27,18.17-12.26,24.31-40.18,11.09-66.45Z"/>
  <path class="cls-13" d="M410.53,193.63l-16.02,5.67-1.08-.87,16.74-5.55.37.75Z"/>
</svg>