<svg width="96" height="283" viewBox="0 0 96 283" fill="none" xmlns="http://www.w3.org/2000/svg">
<path d="M38.7084 279.061C34.316 280.676 27.0777 282.706 18.0112 282.413C10.7327 282.177 4.83978 280.527 0.861328 279.061V187.993C4.99501 188.563 9.47365 188.988 14.2627 189.178C23.4155 189.54 31.6484 188.959 38.7026 187.993V279.061H38.7084Z" fill="url(#paint0_linear_180_3625)"/>
<path d="M19.782 189.77C30.2316 189.77 38.7026 189.108 38.7026 188.292C38.7026 187.476 30.2316 186.815 19.782 186.815C9.33239 186.815 0.861328 187.476 0.861328 188.292C0.861328 189.108 9.33239 189.77 19.782 189.77Z" fill="#181818"/>
<path d="M14.2627 186.809V73.0782C14.2627 73.0782 15.1481 69.5309 15.2458 64.4026H23.5649C23.5649 64.4026 21.8344 69.6286 23.5649 72.6815V186.861L14.257 186.815L14.2627 186.809Z" fill="url(#paint1_linear_180_3625)"/>
<path d="M21.9207 66.4379H15.9473C15.93 66.3919 15.9128 66.3459 15.8955 66.2999C14.1478 66.1217 12.4058 65.9435 10.4798 65.7422C10.865 65.6503 11.0834 65.5928 11.4456 65.5065C10.98 65.3915 10.635 65.2996 10.2901 65.2133C10.3016 65.1213 10.3073 65.0293 10.3188 64.9374C11.9631 65.1041 13.6074 65.2708 15.2459 65.4375C15.2574 65.38 15.2689 65.3283 15.2746 65.2708C14.0443 64.9316 12.814 64.5867 11.5779 64.2475C13.2739 63.937 14.9527 64.7994 16.6544 64.0692C14.9814 63.7588 13.3141 63.4483 11.6411 63.1321C11.7561 63.0459 11.8768 62.9539 12.1068 62.7871C11.4169 62.7412 10.842 62.7009 10.2556 62.6607C10.2843 62.3042 10.2038 61.9248 10.3533 61.6833C10.543 61.3671 10.8822 60.9876 11.2099 60.9302C12.0436 60.7692 12.9059 60.7692 13.9178 60.6944C13.4636 60.522 13.1589 60.4012 12.8485 60.2805C12.86 60.2173 12.8772 60.154 12.8944 60.0908C14.1305 60.3035 15.3724 60.5105 16.6142 60.7174C16.6314 60.6197 16.6429 60.5277 16.6602 60.43C16.1658 60.3495 15.6713 60.2747 14.9584 60.1598C15.3149 59.97 15.4758 59.8838 15.6368 59.7976C15.6483 59.6998 15.6541 59.6021 15.6656 59.5043C13.9351 59.3434 12.2045 59.1881 10.4683 59.0272C10.7557 58.9869 11.0605 58.9409 11.5664 58.8662C11.0547 58.412 10.6408 58.0498 10.1636 57.6301C10.8362 56.6297 11.8653 57.2507 12.699 57.1472C13.5786 57.0437 14.487 57.1242 15.4356 56.9345C14.3662 56.6125 13.2969 56.2963 12.2275 55.9743C12.2333 55.9398 12.239 55.8996 12.2448 55.8651H15.5678C15.5678 55.8019 15.5736 55.7444 15.5793 55.6811C14.3088 55.6064 13.0382 55.5719 11.7734 55.4282C11.3134 55.3764 10.842 55.1062 10.4683 54.813C10.2958 54.675 10.3303 54.2553 10.3016 53.9564C10.2786 53.7206 10.2958 53.4849 10.2958 53.1917C11.2214 53.094 12.193 52.9847 13.4004 52.8583C12.9347 52.6743 12.6932 52.5765 12.2045 52.3811C13.0784 52.2661 13.6763 52.1799 14.4985 52.0706C13.3084 51.7774 12.331 51.4784 11.3307 51.3232C10.635 51.214 10.1061 50.8633 10.2268 50.2596C10.2901 49.9377 11.049 49.5927 11.5204 49.541C12.5437 49.4317 13.5901 49.5065 14.6595 49.426C14.0213 49.311 13.3889 49.196 12.6472 49.0638C13.7683 48.1554 14.8549 49.3857 15.93 49.0005C14.9067 48.1497 12.7392 47.5345 10.2268 47.3793C10.451 46.9193 9.82437 46.1259 10.8822 46.0742C11.4916 46.0454 12.1011 46.0684 12.9289 46.0684C12.308 45.7925 11.8998 45.6085 11.4859 45.4303C11.5031 45.3613 11.5204 45.2923 11.5376 45.2233C12.1643 45.1601 12.7852 45.0566 13.4119 45.0393C14.0098 45.0221 14.6135 45.0968 15.4701 45.1371C14.5042 43.6595 13.2107 44.1655 11.9343 43.9872C12.262 43.8722 12.4403 43.809 12.6185 43.7458C12.6185 43.6998 12.6185 43.6538 12.6185 43.6078C11.9056 43.556 11.1927 43.51 10.4913 43.4583C10.451 42.6304 11.1122 41.8715 12.0436 41.6933C13.3716 41.4403 14.7112 41.2276 16.045 40.8999C15.4241 40.8539 14.8032 40.8137 14.1823 40.7677C14.1823 40.7044 14.1823 40.6354 14.1823 40.5722C14.7112 40.5377 15.2344 40.5032 15.7633 40.4687C14.1823 39.7673 12.5208 39.6408 10.842 39.7558C10.7577 39.1081 11.0681 38.7459 11.7734 38.6692C11.4744 38.583 11.1927 38.5082 10.9167 38.4277C10.9167 38.3587 10.911 38.2898 10.9052 38.2208C12.7047 37.7896 14.4985 37.3584 16.298 36.9272C16.3152 36.8467 16.3382 36.7662 16.3612 36.6915C14.6595 36.3465 12.9634 35.9958 11.2099 35.6336C11.2099 35.6451 11.3249 35.4439 11.2732 35.3404C10.911 34.6678 11.3422 34.5068 11.8423 34.3055C12.1126 34.1963 12.3253 33.9548 12.6932 33.6674H14.51C14.5215 33.6386 14.533 33.6041 14.5445 33.5754C14.326 33.5007 14.1075 33.4317 13.6189 33.2649C14.5387 33.0407 15.2056 32.8855 15.8668 32.7245C15.8725 32.6958 15.884 32.667 15.8898 32.644H11.2617C11.7734 32.506 12.1068 32.4141 12.4403 32.3278C12.4403 32.2818 12.4345 32.2358 12.4345 32.1898H11.4974C11.4859 32.1323 11.4744 32.0806 11.4629 32.0231C11.5951 31.9714 11.7216 31.9196 11.7676 31.9024C11.6296 31.4367 11.3249 30.9768 11.4169 30.6203C11.7964 29.2002 13.0669 29.8672 13.9753 29.6257C13.9753 29.6257 13.9868 29.5969 13.9753 29.5912C13.9523 29.5739 13.9121 29.5797 13.8891 29.5567C13.8258 29.4935 13.7683 29.4302 13.7108 29.367C13.8661 29.298 14.027 29.229 14.1823 29.16C14.556 28.999 14.9297 28.8323 15.3034 28.6713C15.2631 28.6023 15.2229 28.5276 15.1826 28.4586C13.9638 28.2401 12.745 28.0274 11.7159 27.8434C11.7159 27.303 11.6296 26.9178 11.7389 26.5959C11.8538 26.2509 12.0838 25.7737 12.3713 25.6817C13.3659 25.3713 14.4007 25.2045 15.3781 24.9861C14.7399 23.7672 13.4579 24.4629 12.2678 24.3307C12.5667 24.1697 12.7795 24.0547 13.2279 23.8132C12.6587 23.7098 12.3368 23.6465 11.9286 23.5718C11.9573 23.1118 11.9918 22.6404 12.0263 22.1287C12.9289 21.6803 13.8488 21.2261 14.9929 20.6627C14.3662 20.381 13.7913 19.9383 13.1819 19.8923C12.1011 19.8118 12.1988 19.2196 12.3253 18.501C12.3943 18.1158 12.469 17.7248 12.5035 17.5179C12.9462 17.2304 13.2739 17.0234 13.6016 16.8107C13.1762 16.437 13.8086 15.5229 12.8657 15.3791C12.768 15.3676 12.6702 14.9939 12.6645 14.7812C12.6587 14.5513 12.8657 14.2868 12.8025 14.0971C12.5782 13.3669 12.8427 13.022 13.5499 12.8725C14.3318 12.7058 14.3835 12.0963 14.3662 11.3604C13.9293 11.3202 13.5154 11.2857 12.9117 11.234C13.1589 11.1247 13.3084 11.0615 13.3256 11.0557C13.2452 10.5038 13.0094 9.96913 13.1302 9.53219C13.3889 8.58357 14.3088 8.87103 15.0447 8.7733C15.1481 8.49734 15.2631 8.21562 15.4069 7.83618C14.7917 7.54872 14.004 7.39924 13.6189 6.92205C13.3141 6.54835 13.4981 5.76646 13.4809 5.42151C14.05 4.99607 14.4812 4.67986 14.9182 4.3579C14.464 4.09344 14.0098 3.83472 13.3659 3.46103C13.4004 2.76537 13.4291 1.76501 13.5441 0.776144C13.5614 0.632413 14.0213 0.425442 14.257 0.448439C14.671 0.482934 15.0677 0.684156 15.4701 0.80489C15.9818 0.954369 16.39 1.00611 16.8557 0.500181C17.4651 -0.166727 18.1607 0.00574921 18.8679 0.73015C19.0001 0.862382 19.3336 0.896877 19.5348 0.839385C20.4087 0.58642 21.2653 0.281711 22.1219 0C22.4381 0.712902 22.7831 1.44305 23.0878 2.17895C23.3063 2.70788 22.7314 3.50702 22.0242 3.57601C21.2423 3.6565 20.9893 3.98995 21.2136 4.63387C21.7942 4.7776 22.3117 4.90408 23.0016 5.07655C22.6854 5.32952 22.5416 5.45025 22.4036 5.56524C23.0763 6.08267 23.0476 6.51386 22.2484 7.16352C22.3806 7.24401 22.5014 7.31875 22.6509 7.40499C21.892 7.59471 21.2251 7.76144 20.5581 7.92241C20.5811 8.05465 20.6041 8.18113 20.6271 8.31336C21.1101 8.29036 21.5988 8.31336 22.0702 8.23862C22.7888 8.12939 23.1338 8.71006 23.2085 9.124C23.3178 9.73917 23.6742 10.6993 22.4381 10.8373C22.7199 10.8718 23.0073 10.9063 23.289 10.9465C23.312 11.0097 23.3408 11.073 23.3638 11.1362C22.4956 11.5157 21.6333 11.8951 20.4834 12.4011H22.9613C22.9613 12.6138 22.8866 12.884 22.9728 12.9587C24.1687 13.9648 24.0192 15.0457 22.6049 15.6321C22.3232 15.7471 22.1162 16.0518 21.984 16.4715H23.151C23.1625 16.5347 23.1683 16.598 23.1798 16.6612C22.9326 16.7245 22.6911 16.7934 22.3692 16.8739C22.9671 16.9544 23.5075 17.0234 23.8467 17.0694C24.8241 19.0299 23.8812 19.9613 22.3174 20.6109L23.9099 20.4959C23.9157 20.5477 23.9214 20.6052 23.9329 20.6569C23.3293 20.8064 22.7256 20.9616 21.9322 21.1571C23.0016 21.3468 23.8524 21.4963 24.6803 21.6458C24.5845 23.2019 24.0613 24.0279 23.1108 24.1237C23.496 24.3134 23.7892 24.4571 24.1859 24.6584C23.8984 24.7561 23.6972 24.8193 23.5075 24.8998C23.3178 24.9803 23.128 25.0838 22.9843 25.3885C23.404 25.3483 23.8467 25.216 24.2491 25.2908C24.5596 25.3483 24.8298 25.6472 25.123 25.8427C25.0713 25.9232 25.0253 25.9979 24.9793 26.0784C24.3871 26.2049 23.795 26.3371 23.2028 26.4636C23.2028 26.4981 23.2143 26.5269 23.2143 26.5614H24.8356C25.1805 27.6595 25.031 27.8894 23.9674 27.9354C23.5247 27.9527 23.0763 27.9354 22.6221 28.1079C23.0993 28.1366 23.5822 28.1711 24.0594 28.2056C24.0709 28.3034 24.0824 28.3954 24.0882 28.4988C22.8291 28.6196 21.57 28.7403 20.3109 28.861C20.3224 29.0105 20.3397 29.1658 20.3569 29.3152C21.8115 29.1715 23.266 29.0335 25.0195 28.8668C24.4791 29.1428 24.2089 29.2865 23.7202 29.5337C24.2376 29.6372 24.5481 29.6257 24.7723 29.7637C25.0195 29.9074 25.3875 30.3501 25.3587 30.3846C24.9793 30.856 25.2323 31.2872 25.5025 31.8161C24.5539 31.9139 23.726 31.9944 22.6739 32.1036C23.0648 32.2991 23.2833 32.4141 23.6167 32.575C23.1798 32.6555 22.8348 32.7188 22.4899 32.782C22.4899 32.851 22.4841 32.92 22.4841 32.9832C22.9268 33.0177 23.3868 33.1557 23.8065 33.0752C24.5424 32.9315 24.9965 33.3454 25.4795 33.7306C25.9739 34.1216 25.8934 34.984 25.353 35.3404C25.4967 35.4094 25.6462 35.4784 25.8187 35.5589C24.3469 36.0763 22.9441 36.5707 21.5413 37.0652C21.5585 37.1457 21.5815 37.2319 21.5988 37.3124C22.2772 37.2089 22.9728 37.1572 23.6282 36.9847C24.4906 36.7547 25.3127 36.4673 25.8819 37.5596C25.7497 37.6631 25.5542 37.8183 25.2265 38.077C25.606 38.0483 25.8244 38.031 26.0429 38.0138C26.3821 39.0372 26.2211 39.3361 25.0828 39.5661C24.1054 39.7616 23.1108 39.8823 22.1219 40.0375C22.1219 40.1238 22.1219 40.21 22.1219 40.2905H23.8984C23.7605 40.5434 23.6225 40.7964 23.4443 41.1241C24.2204 41.0666 24.9505 41.0091 25.6749 40.9516C25.6922 41.0551 25.7037 41.1644 25.7209 41.2736C25.0138 41.4173 24.3066 41.5668 23.6052 41.7105C23.611 41.7853 23.6225 41.8658 23.6282 41.9405C24.5596 41.86 25.491 41.7795 26.4281 41.699C26.8305 43.1363 26.3246 43.7745 24.8011 43.9067C24.2491 43.9527 23.3235 43.5848 23.358 44.8669C23.8524 44.7806 24.2836 44.7001 24.7206 44.6311C25.146 44.5621 25.5772 44.5047 26.0486 44.6081C25.9164 44.6714 25.7727 44.7231 25.6519 44.8036C25.514 44.8956 25.4047 45.0221 25.284 45.1313C25.4507 45.2233 25.6232 45.39 25.7957 45.39C26.2326 45.4015 26.6753 45.3383 27.1927 45.298C27.0203 45.7982 26.8995 46.1374 26.7271 46.6491C26.6006 46.6779 26.2269 46.7698 25.6864 46.8963C26.1981 46.9941 26.5373 47.0573 26.8708 47.1205C26.8708 47.1838 26.8708 47.2528 26.8765 47.316C26.3304 47.3448 25.7899 47.3793 25.2495 47.4138V47.523C25.6634 47.5575 26.0774 47.592 26.4856 47.6265C26.4971 47.7185 26.5028 47.8105 26.5143 47.9024C25.1058 48.0289 23.6972 48.1497 22.2887 48.2704C22.2944 48.3854 22.3059 48.4946 22.3117 48.6096H26.9628C26.4396 48.8338 26.0774 49.0293 25.6922 49.1443C25.307 49.2535 24.8931 49.2822 24.4906 49.3512C24.4964 49.449 24.5079 49.5467 24.5136 49.6444C25.399 49.5755 26.2844 49.5065 27.3767 49.426C27.049 49.6847 26.8765 49.8227 26.7271 49.9434C26.8478 50.2079 26.9628 50.4723 27.1352 50.846C26.0314 50.9438 25.077 51.03 24.1169 51.1162C24.1169 51.1565 24.1169 51.1967 24.1112 51.2312C24.8873 51.2657 25.6635 51.306 26.4396 51.3462C26.4281 51.4037 26.4223 51.4612 26.4108 51.5187C25.1058 52.0189 23.8065 52.5248 22.5014 53.0307C22.5014 53.0652 22.5129 53.1055 22.5129 53.14C23.795 53.048 25.0828 52.956 26.3649 52.8583C26.3821 52.9043 26.3993 52.956 26.4223 53.002C26.2154 53.1285 26.0142 53.2492 25.5312 53.5424C26.3534 53.6976 26.9283 53.8069 27.6009 53.9391C26.6581 55.6581 24.7953 54.5945 23.634 55.4224C23.9387 55.5029 24.2491 55.5834 24.7321 55.7099C24.0134 56.1008 23.45 56.4055 22.8866 56.7102C22.9153 56.8367 22.9441 56.9574 22.9728 57.0839C24.2894 56.9747 25.606 56.8655 26.9283 56.7562C27.0145 56.8425 27.1008 56.923 27.187 57.0092C26.9283 57.1702 26.6753 57.3254 26.4051 57.4921H27.279C27.3135 57.5956 27.4227 57.7911 27.3882 57.8198C26.9685 58.1705 26.5718 58.688 26.0889 58.8029C24.9563 59.0674 23.7835 59.1306 22.5071 59.2916C23.5707 59.4584 24.4964 59.6021 25.4737 59.7573C25.3357 60.0678 25.2553 60.2345 25.146 60.4817C25.514 60.5105 25.8187 60.5335 26.2326 60.5622C26.0659 60.7634 25.9452 60.9129 25.8359 61.0509C26.3131 61.1141 26.819 61.1774 27.325 61.2406C27.325 61.3383 27.325 61.4418 27.3307 61.5453C26.4626 61.712 25.5945 61.8788 24.6228 62.0627C25.33 62.9366 26.4223 61.8098 27.0318 62.9021C25.7612 63.0114 24.5941 63.1091 23.4328 63.2241C21.2193 63.4426 20.5696 63.7185 20.5467 64.6096C21.2538 64.3739 21.8977 64.1612 22.5531 63.9485C23.8467 64.7936 25.3645 64.6096 26.8995 64.5867C26.0142 64.7591 25.123 64.9316 24.2376 65.1041C24.2491 65.1788 24.2606 65.2593 24.2664 65.3341C25.1863 65.1961 26.1061 65.0638 26.9685 64.9374C26.4511 66.3172 25.1805 66.0412 24.0939 66.1849C23.3638 66.2827 22.6279 66.3402 21.8517 66.4724L21.9207 66.4379Z" fill="#10103C"/>
<path d="M95.0849 117.808C95.0849 117.808 96.2016 115.272 89.0653 115.027C89.0653 115.027 58.5254 111.468 57.2055 118.134L84.8095 129.256L95.0849 117.808Z" fill="url(#paint2_radial_180_3625)"/>
<path d="M57.3832 278.084C61.854 279.885 68.8462 281.979 77.4958 281.683C84.9142 281.428 90.9535 279.504 95.083 277.758V117.808C89.6691 118.335 83.9179 118.688 77.8569 118.788C70.5233 118.91 63.6198 118.647 57.2036 118.134C57.2628 171.45 57.322 224.769 57.3832 278.084Z" fill="url(#paint3_linear_180_3625)"/>
<path d="M89.3316 92.4517C89.3316 92.4517 73.8199 91.4071 63.2645 92.4517V112.794H89.5585L89.3316 92.4517Z" fill="url(#paint4_linear_180_3625)"/>
<path d="M91.3599 104.165L89.0317 100.895L62.8897 98.8964C62.8897 98.8964 61.6881 99.3495 60.9364 101.076L91.3599 104.165Z" fill="url(#paint5_linear_180_3625)"/>
<path d="M90.8352 109.705L89.2568 107.072L62.7399 104.802C62.7399 104.802 60.7866 106.027 60.9366 107.253L90.8332 109.705H90.8352Z" fill="black"/>
<path d="M90.8352 109.705L89.2568 107.072L62.7399 104.802C62.7399 104.802 60.7866 106.027 60.9366 107.253L90.8332 109.705H90.8352Z" fill="url(#paint6_linear_180_3625)"/>
<path d="M90.8352 109.705L89.2568 107.072L62.7399 104.802C62.7399 104.802 60.7866 106.027 60.9366 107.253L90.8332 109.705H90.8352Z" fill="url(#paint7_linear_180_3625)"/>
<path d="M91.3599 98.0806L89.5566 95.7194C89.5566 95.7194 83.5468 95.9913 85.0502 96.9C85.0502 96.9 87.3034 98.808 91.3599 98.0806Z" fill="url(#paint8_linear_180_3625)"/>
<path d="M61.4691 112.792H90.8272C91.1214 112.792 91.3599 113.08 91.3599 113.436V115.418C91.3599 115.773 91.1214 116.062 90.8272 116.062H61.4691C61.1749 116.062 60.9364 115.773 60.9364 115.418V113.436C60.9364 113.08 61.1749 112.792 61.4691 112.792Z" fill="url(#paint9_linear_180_3625)"/>
<defs>
<linearGradient id="paint0_linear_180_3625" x1="3.73593" y1="235.143" x2="38.8061" y2="235.143" gradientUnits="userSpaceOnUse">
<stop stop-color="#10103C"/>
<stop offset="0.25" stop-color="#9595C4"/>
<stop offset="0.535" stop-color="#10103C"/>
<stop offset="0.88" stop-color="#60608E"/>
<stop offset="1" stop-color="#10103C"/>
</linearGradient>
<linearGradient id="paint1_linear_180_3625" x1="15.2343" y1="125.908" x2="23.2832" y2="125.908" gradientUnits="userSpaceOnUse">
<stop stop-color="#0E0E0E"/>
<stop offset="0.325" stop-color="#1F1F1F"/>
<stop offset="1" stop-color="#161616"/>
</linearGradient>
<radialGradient id="paint2_radial_180_3625" cx="0" cy="0" r="1" gradientUnits="userSpaceOnUse" gradientTransform="translate(77.5091 116.368) rotate(-119.745) scale(7.62752 5.45301)">
<stop offset="0.735" stop-color="#10103C"/>
</radialGradient>
<linearGradient id="paint3_linear_180_3625" x1="92.2059" y1="199.63" x2="57.1058" y2="199.63" gradientUnits="userSpaceOnUse">
<stop stop-color="#10103C"/>
<stop offset="0.25" stop-color="#9595C4"/>
<stop offset="0.535" stop-color="#10103C"/>
<stop offset="0.88" stop-color="#60608E"/>
<stop offset="1" stop-color="#10103C"/>
</linearGradient>
<linearGradient id="paint4_linear_180_3625" x1="87.5614" y1="102.374" x2="63.1966" y2="102.374" gradientUnits="userSpaceOnUse">
<stop stop-color="#10103C"/>
<stop offset="0.25" stop-color="#9595C4"/>
<stop offset="0.535" stop-color="#10103C"/>
<stop offset="0.88" stop-color="#60608E"/>
<stop offset="1" stop-color="#10103C"/>
</linearGradient>
<linearGradient id="paint5_linear_180_3625" x1="74.6709" y1="94.6078" x2="73.7248" y2="102.176" gradientUnits="userSpaceOnUse">
<stop stop-color="#10103C"/>
<stop offset="0.25" stop-color="#9595C4"/>
<stop offset="0.535" stop-color="#10103C"/>
<stop offset="0.88" stop-color="#60608E"/>
<stop offset="1" stop-color="#10103C"/>
</linearGradient>
<linearGradient id="paint6_linear_180_3625" x1="82.691" y1="106.398" x2="82.4374" y2="108.809" gradientUnits="userSpaceOnUse">
<stop stop-color="#131313"/>
<stop offset="0.44" stop-color="#535353"/>
<stop offset="0.9" stop-color="#D2D2D2"/>
<stop offset="1" stop-color="#4A4A4A"/>
</linearGradient>
<linearGradient id="paint7_linear_180_3625" x1="74.4296" y1="100.81" x2="73.5946" y2="107.866" gradientUnits="userSpaceOnUse">
<stop stop-color="#10103C"/>
<stop offset="0.25" stop-color="#9595C4"/>
<stop offset="0.535" stop-color="#10103C"/>
<stop offset="0.88" stop-color="#60608E"/>
<stop offset="1" stop-color="#10103C"/>
</linearGradient>
<linearGradient id="paint8_linear_180_3625" x1="87.7663" y1="93.6628" x2="87.6267" y2="99.3078" gradientUnits="userSpaceOnUse">
<stop stop-color="#10103C"/>
<stop offset="0.25" stop-color="#9595C4"/>
<stop offset="0.535" stop-color="#10103C"/>
<stop offset="0.88" stop-color="#60608E"/>
<stop offset="1" stop-color="#10103C"/>
</linearGradient>
<linearGradient id="paint9_linear_180_3625" x1="73.7248" y1="109.745" x2="73.7248" y2="115.422" gradientUnits="userSpaceOnUse">
<stop stop-color="#10103C"/>
<stop offset="0.25" stop-color="#9595C4"/>
<stop offset="0.535" stop-color="#10103C"/>
<stop offset="0.88" stop-color="#60608E"/>
<stop offset="1" stop-color="#10103C"/>
</linearGradient>
</defs>
</svg>
