<svg width="93" height="51" viewBox="0 0 93 51" fill="none" xmlns="http://www.w3.org/2000/svg">
<path d="M7.31946 29.5359C7.31946 29.5359 19.9795 52.9959 36.3495 50.3359C36.3495 50.3359 58.0395 51.1059 67.7195 48.2759C67.7195 48.2759 82.2895 39.0959 87.4295 23.0659L75.6994 21.6559L55.7195 20.5359L29.5495 24.4459L7.31946 29.5259V29.5359Z" fill="url(#paint0_linear_149_1128)"/>
<path d="M1.72937 24.466L24.3194 7.66601C24.3194 7.66601 35.3994 -3.42399 44.5694 3.91601C44.5694 3.91601 49.1694 5.41602 54.2794 2.20602C54.2794 2.20602 60.5894 -4.854 74.3894 6.286L91.5094 19.586L87.4194 23.076L83.0194 23.256L72.4494 20.966L63.9394 20.796L55.1394 22.686L39.1394 23.086L29.5394 24.466L16.1094 27.666L6.96936 27.956L1.72937 24.476V24.466Z" fill="url(#paint1_linear_149_1128)"/>
<path d="M8.72952 29.5359C6.05952 29.5459 1.21951 29.5759 0.459514 27.4859C0.0795142 26.4459 0.729513 24.9359 1.73951 24.4659C3.04951 23.8459 4.34952 25.3059 7.08952 26.2359C8.93952 26.8659 10.3295 26.8759 12.9995 26.8959C19.2995 26.9459 29.5595 22.9859 35.7295 21.2859C36.4595 21.0859 49.1595 17.7059 62.0895 19.7159C67.1795 20.5059 72.4395 20.4459 77.3795 21.8959C78.2895 22.1659 80.6195 22.8959 83.6095 22.5259C85.8395 22.2559 87.5795 21.4759 88.6995 20.8659C88.6995 20.8659 92.4095 17.3659 92.6995 21.8259C91.9895 22.3959 90.8095 23.2459 89.1795 23.8559C84.3395 25.6759 81.3195 23.2459 73.0595 22.3259C68.4395 21.8159 65.1795 21.4559 61.1595 22.6859C58.2995 23.5659 57.3595 24.5459 53.9595 25.3159C51.4695 25.8759 49.3995 25.8459 45.3495 25.7459C37.3595 25.5659 35.2295 24.6459 29.8895 25.5059C29.5995 25.5559 28.4195 25.8159 26.0795 26.3359C14.6995 28.8759 12.5395 29.5059 8.74951 29.5259L8.72952 29.5359Z" fill="#3A0601"/>
<defs>
<linearGradient id="paint0_linear_149_1128" x1="47.2853" y1="16.1626" x2="47.2853" y2="45.6833" gradientUnits="userSpaceOnUse">
<stop stop-color="#600F14"/>
<stop offset="1" stop-color="#742126"/>
</linearGradient>
<linearGradient id="paint1_linear_149_1128" x1="46.5194" y1="-4.07397" x2="46.5194" y2="23.426" gradientUnits="userSpaceOnUse">
<stop stop-color="#742126"/>
<stop offset="0.96" stop-color="#600F14"/>
</linearGradient>
</defs>
</svg>
