<?xml version="1.0" encoding="utf-8"?>
<!-- Generator: Adobe Illustrator 28.3.0, SVG Export Plug-In . SVG Version: 6.00 Build 0)  -->
<svg version="1.1" id="_Слой_1" xmlns="http://www.w3.org/2000/svg" xmlns:xlink="http://www.w3.org/1999/xlink" x="0px"
	 y="0px" viewBox="0 0 99 242" style="enable-background:new 0 0 99 242;" xml:space="preserve">
<style type="text/css">
	.st0{fill:url(#SVGID_1_);}
	
		.st1{fill:url(#SVGID_00000001641223879395863800000000924722936578774962_);stroke:#000000;stroke-width:0.5;stroke-miterlimit:10;}
	.st2{fill:url(#SVGID_00000152233458657944505660000005509385403599576711_);}
	.st3{fill:url(#SVGID_00000040538264869672014670000001086586102776468126_);}
	.st4{fill:url(#SVGID_00000080915878340646864320000002181586036097974421_);}
</style>
<g>
	<g>
		<linearGradient id="SVGID_1_" gradientUnits="userSpaceOnUse" x1="0.8486" y1="102.79" x2="98.9937" y2="102.79">
			<stop  offset="0" style="stop-color:#3F3E3F"/>
			<stop  offset="1" style="stop-color:#000000"/>
		</linearGradient>
		<path class="st0" d="M14.8,0.8c-2.2,2.7-5.2,6.9-7.7,12.4c-0.9,1.9-3,7.1-4.7,18.3c-1.7,11-1.6,19.7-1.6,21.1v0.2
			c0,48.3,8.1,71.4,10.6,116.2c0.3,5.9,0.8,15.7,0.7,28.1c-0.1,5.8,0.8,7.2,1.7,7.5c1.8,0.6,4.3-3.6,9.9-10.3
			c6.3-7.6,9.5-11.4,12.2-12.6c4.9-2.1,7.1,0.6,27.2,6.6c9.9,3,12.6,3.2,23.8,6.9c4.9,1.6,9,3,12,4.1c-1.5-6.2-3.6-15.6-4.9-27.3
			c-2.7-23.2-1-45.1,2.6-88.9c0.3-4.1,0.6-12.7,1-30c0.1-4.2,0.2-10.1-0.9-17.6c-1.1-7.3-2.8-12.5-3.5-14.4c-1.5-4.4-3.2-8-4.7-10.7
			C77.2,13,58,15.5,36,9.3C27.7,7,20.6,3.9,14.8,0.8z"/>
	</g>
	
		<linearGradient id="SVGID_00000066500124222467062450000012559277010608813717_" gradientUnits="userSpaceOnUse" x1="10.3837" y1="6.9864" x2="89.4337" y2="6.9864">
		<stop  offset="0" style="stop-color:#3F3E3F"/>
		<stop  offset="3.351955e-02" style="stop-color:#776657"/>
		<stop  offset="1" style="stop-color:#373029"/>
	</linearGradient>
	
		<path style="fill:url(#SVGID_00000066500124222467062450000012559277010608813717_);stroke:#000000;stroke-width:0.5;stroke-miterlimit:10;" d="
		M14.8,0.8c-0.8,0.7-1.6,1.7-2.4,2.9c-0.9,1.3-1.6,2.6-2,3.6C22,9.8,35.7,12,51.1,12.8c14.1,0.7,27,0.3,38.3-0.6
		c-0.3-1.2-0.9-2.8-2.1-4.5c-0.5-0.7-1-1.3-1.5-1.8c-9.1,0.4-19,0.4-29.5-0.2C40.9,5,27.1,3.1,14.8,0.8z"/>
	
		<linearGradient id="SVGID_00000162344698767806211380000013994245459286385804_" gradientUnits="userSpaceOnUse" x1="22.8537" y1="6.9805" x2="25.9537" y2="6.9805">
		<stop  offset="0" style="stop-color:#3F3E3F"/>
		<stop  offset="3.351955e-02" style="stop-color:#776657"/>
		<stop  offset="1" style="stop-color:#373029"/>
	</linearGradient>
	<path style="fill:url(#SVGID_00000162344698767806211380000013994245459286385804_);" d="M26,1.5h-3.1v10.9H26V1.5z"/>
	
		<linearGradient id="SVGID_00000052823231032900319290000014228092669100577419_" gradientUnits="userSpaceOnUse" x1="63.6437" y1="10.3705" x2="66.7437" y2="10.3705">
		<stop  offset="0" style="stop-color:#3F3E3F"/>
		<stop  offset="3.351955e-02" style="stop-color:#776657"/>
		<stop  offset="1" style="stop-color:#373029"/>
	</linearGradient>
	<path style="fill:url(#SVGID_00000052823231032900319290000014228092669100577419_);" d="M66.7,4.9h-3.1v10.9h3.1V4.9z"/>
	
		<linearGradient id="SVGID_00000170279192622001104130000008933099157454120122_" gradientUnits="userSpaceOnUse" x1="37.7936" y1="233.1383" x2="43.6436" y2="232.8583" gradientTransform="matrix(1 0 0 -1 0 241.5276)">
		<stop  offset="0" style="stop-color:#2D2C30"/>
		<stop  offset="0.47" style="stop-color:#AAAAB1"/>
		<stop  offset="0.64" style="stop-color:#EBEBEB"/>
		<stop  offset="1" style="stop-color:#2D2C30"/>
	</linearGradient>
	<path style="fill:url(#SVGID_00000170279192622001104130000008933099157454120122_);" d="M37.8,3.5h6v10h-5.6v-1.2h4.5V8.5h-2.6
		V7.7h2.7V4.6h-5V3.5z"/>
	<g>
		<image style="overflow:visible;" width="88" height="146" xlink:href="F0CB18D9.png"  transform="matrix(1 0 0 1 -28 -17)">
		</image>
	</g>
	<path d="M10.4,7.3c-0.8,1.1-1.8,2.8-2.8,5c-1.3,2.8-1.9,5-2.5,7.3C3.4,25.7,2.6,28.8,2,32.5c-0.8,4.6-1.1,8.8-1.1,17.6
		c0,5.7-0.1,9.9,0.1,14.5c0.1,2.5,0.2,4.5,0.3,5.7c0,0,0,0.6,0.1,1.1c1.2,19.1,2.6,31.8,2.6,31.8c0.5,4,0.4,3.3,2.3,16.9
		c0,0,5.6,40.8,5.5,55.8c0,0.3,0,5.8,0,5.8c0,0-0.2,9.2,0.5,18.4c0.1,1.3,0.4,4.2,1.8,4.6c0.5,0.2,1.8,0.3,8.3-8.1
		c2.3-2.9,5.7-7.1,10.2-12.2c1-1.2,2.1-1.9,2.7-2.2c3.2-1.6,6.8-0.6,10,0.3c1.2,0.3,2.1,0.7,2.7,0.9c17,5.3,34.1,10.7,51.1,16
		c-4.3-20.9-5.5-38.1-5.7-50.1c-0.4-17.8,1.1-36.5,2.2-51.3c0.3-3.5,1.2-15.7,2.1-32.1c0.9-16.6,0.8-21.7,0-27.5
		c-1.7-12.3-5.8-21.9-9-27.9c5.1,11.5,7.2,21.5,8,28.7c0.9,7.3,0.7,13.4,0.3,25.6c-0.2,6.2-0.4,8.5-1.9,29
		c-1.5,21-1.7,24.9-1.9,28.3c-0.6,11.8-0.9,17.7-0.7,25.6c0,2.4,0.3,13.8,2.2,29c1.1,8.5,2.3,15.8,3.4,21.5
		c-28.1-8.5-48.4-14.7-52.3-16.1c-0.8-0.3-3.5-1.3-7-1.1c0,0-1.7,0.1-3.3,0.6c-6.1,1.8-8.8,9.9-16.7,18.4c-1.7,1.8-3.1,3.2-4.1,4
		c-0.3-0.1-0.7-0.3-1-0.6c-1-1-0.9-2.4-0.9-3.2c0.1-2.8-0.3-5.5-0.3-8.3c0-1.6-0.1-3.2-0.1-4.8c-0.1-3.2-0.8-21.4-3.9-51.7
		C7.7,128.3,7.1,123.3,7,122c-1.8-15.7-2.5-18.3-3.5-26.8C2.3,84.2,2.1,75,1.8,56.5c-0.2-10.9,0-15.2,0.6-20.3
		c1.1-8.9,3.2-15.9,4.5-19.7C8.1,12.8,9.3,9.7,10.4,7.3z"/>
</g>
</svg>
