<svg width="99" height="242" viewBox="0 0 99 242" fill="none" xmlns="http://www.w3.org/2000/svg">
<g filter="url(#filter0_i_49_157)">
<path d="M96.64 98.1001C97.15 102.64 97.33 106.47 97.37 109.36C97.45 114.08 97.19 116.04 95.81 117.03C95.09 117.55 94.15 117.94 91.16 117.26C85.22 115.91 82.25 115.24 79.79 114.47C78.13 113.96 75.57 113.18 72.36 112.3C72.36 113.03 72.36 113.56 72.36 114.09C72.36 119.4 72.32 124.7 72.39 130C72.41 131.53 72.01 131.88 70.76 131.81C59 131.1 47.22 130.73 35.49 129.7C27.56 129.01 19.73 127.14 11.82 126.13C11.71 126.12 10.21 125.93 8.23001 125.42C4.42001 124.43 2.52001 123.94 1.46001 122.48C0.0900112 120.58 0.670011 117.93 1.89001 110.81C2.59001 106.74 2.99001 102.62 3.87001 98.5801C5.15001 92.7301 5.64001 82.9401 2.26001 65.6501C1.67001 62.4301 1.11001 58.0301 1.18001 52.7801C1.21001 50.6601 1.34001 49.1201 1.61001 46.0401C2.06001 40.7901 2.60001 38.0801 3.95001 29.2801C5.43001 19.6701 5.30001 19.7301 5.84001 17.6401C7.61001 10.6801 9.69001 7.28005 11.24 5.21005C12.61 3.38005 13.96 2.05005 14.93 1.18005C18.37 2.21005 22.87 3.50005 28.26 4.88005C29.56 5.21005 30.23 5.39005 31.07 5.58005C35.49 6.60005 40.25 7.36005 45.3 7.75005C46.28 7.83005 47.26 7.89005 48.22 7.93005C49.78 8.00005 51.39 8.03005 53.05 8.03005C54.63 8.03005 56.15 8.00005 57.63 7.93005C58.14 7.93005 58.89 7.91005 59.8 7.86005C62.81 7.69005 64.8 7.27005 67.08 6.87005C71.85 6.01005 72.92 6.04005 74.46 5.76005C75.27 5.61005 75.87 5.45005 76.24 5.35005C78.97 4.64005 82.91 3.51005 83.68 3.29005C86.51 7.77005 91.84 18.46 94.5 27C97.14 35.49 96.01 38.2301 96.53 44.5501C97.19 52.5701 96.42 51.8901 96.6 73.4101C96.6 73.4101 96.69 84.1501 96.68 89.4701C96.68 89.8401 96.68 92.1601 96.68 95.3101C96.68 96.5001 96.68 97.4601 96.68 98.0801L96.64 98.1001Z" fill="#F83E87"/>
</g>
<path d="M96.64 98.1C96.6 95.99 96.66 97.4 96.64 89.49C96.63 84.77 96.57 75.65 96.56 73.43C96.53 60.18 97.68 60.22 97.55 49.12C97.45 40.41 97.4 35.9 95.93 29.58C95.93 29.58 93.92 20.93 88.42 9.55001C87.45 7.54001 86.42 5.75001 86.42 5.75001C85.56 4.26001 84.78 3.05001 84.23 2.23001C83.9 2.39001 79.17 4.59001 76.21 5.37001C75.28 5.61001 74.43 5.78001 74.43 5.78001C72.89 6.06001 71.82 6.02001 67.05 6.89001C64.78 7.30001 62.78 7.71001 59.77 7.88001C58.86 7.93001 58.11 7.95001 57.6 7.95001C56.12 8.02001 54.59 8.05001 53.02 8.05001C51.36 8.05001 49.74 8.02001 48.19 7.95001C47.23 7.90001 46.25 7.85001 45.27 7.77001C40.22 7.39001 35.46 6.62001 31.04 5.60001C30.58 5.49001 30.05 5.37001 29.42 5.21001C29.42 5.21001 28.83 5.06001 28.23 4.90001C27.22 4.63001 21.95 2.77001 14.8 0.0100098C14.17 0.67001 13.31 1.64001 12.39 2.89001C11.07 4.69001 10.22 6.28001 9.49999 7.74001C6.37999 14.07 4.76999 19.29 4.76999 19.29C2.93999 25.23 2.32999 29.84 1.76999 34.01C0.989992 39.91 0.849992 44.64 0.779992 47.26C0.779992 47.26 0.689992 50.7 0.769992 54.19C1.01999 65.55 3.25999 79.28 3.86999 82.94C4.65999 89.6 4.32999 94.91 3.84999 98.6C3.62999 100.28 2.89999 104.87 1.86999 110.83C0.649992 117.95 0.0699917 120.61 1.43999 122.5C2.49999 123.96 4.39999 124.44 8.20999 125.44C10.19 125.95 11.69 126.14 11.8 126.15C19.71 127.15 27.54 129.03 35.47 129.72C47.2 130.75 58.98 131.12 70.74 131.83C71.99 131.91 72.39 131.56 72.37 130.02C72.3 124.73 72.34 119.42 72.34 114.11C72.34 113.58 72.34 113.05 72.34 112.32C75.55 113.2 78.11 113.98 79.77 114.49C82.23 115.26 85.2 115.92 91.14 117.28C93.58 117.84 94.88 117.56 95.79 117.05C100.71 114.31 97.01 99.63 96.62 98.12L96.64 98.1ZM31.22 6.11001C32.34 6.35001 33.7 6.64001 34.82 6.88001C34.08 15.89 33.34 24.76 32.59 33.85C29.87 33.12 27.02 32.35 24.09 31.56C26.47 23.06 28.83 14.67 31.22 6.12001V6.11001ZM7.02999 16.79C9.44999 9.55001 11.18 6.96001 11.92 5.90001C13.4 3.79001 14.92 2.25001 16.01 1.24001C19.78 2.75001 23.82 4.14001 28.14 5.33001C28.91 5.54001 29.68 5.75001 30.45 5.94001C29.08 14.89 25.96 22.99 23.58 31.4C22.65 31.13 21.71 30.87 20.76 30.62C15.02 29.09 9.45999 27.96 4.11999 27.15C5.08999 22.92 6.14999 19.41 7.02999 16.78V16.79ZM2.28999 41.65C2.83999 38.99 4.00999 31.62 3.94999 29.29C3.94999 29.1 3.91999 28.55 4.26999 28.27C4.68999 27.94 5.40999 28.21 5.58999 28.27C7.70999 29.01 27.58 32.92 31.32 34.41C31.51 34.49 31.96 34.66 32.26 35.1C32.53 35.5 32.58 35.95 32.61 36.13C33.38 42.6 33.51 46.84 33.51 46.84C33.54 47.8 33.6 49.27 33.73 51.06C32.34 50.64 31.07 50.3 29.97 50.03C28.55 49.69 27.49 49.48 27.14 49.41C21.62 48.31 18.35 46.9 13.61 46.26C6.57999 45.32 2.81999 46.97 1.77999 44.97C1.44999 44.33 1.78999 44.07 2.28999 41.63V41.65ZM89.57 115.57C87.82 115.11 85.1 114.42 81.73 113.65C79.99 113.26 78.91 113.03 78.5 112.94C67.41 110.5 58.15 102.62 58.15 102.62C55.61 100.49 53.21 98.07 50.95 95.34C50.04 94.22 49.15 93.09 48.24 91.96C47.95 91.6 47.67 91.24 47.37 90.88L47.34 90.85C47.58 91.34 47.75 91.88 48.05 92.3C54.04 100.73 61.46 106.75 70.19 110.52C71.2 110.95 71.58 111.51 71.56 112.82C71.48 116.73 71.53 120.64 71.53 124.55V130.86C50.42 129.96 29.45 129.27 8.61999 124.35C10.89 107.94 13.12 91.82 15.35 75.71C15.24 75.69 15.11 75.66 14.99 75.64C12.76 91.75 10.52 107.86 8.23999 124.31C6.03999 123.34 3.97999 122.45 1.94999 121.45C1.69999 121.33 1.47999 120.59 1.53999 120.2C2.69999 112.19 5.27999 94.92 5.27999 94.92C5.40999 93.18 5.53999 90.53 5.36999 87.32C5.09999 82.23 4.30999 79.82 3.35999 74.06C2.34999 67.93 2.00999 63.17 1.82999 60.47C1.58999 56.96 1.38999 52.04 1.59999 46.07C6.08999 45.97 11.23 46.37 16.74 47.74C17.76 47.99 18.75 48.27 19.7 48.56C18.24 57.05 16.8 65.38 15.37 73.72C15.48 73.75 15.59 73.78 15.7 73.8C17.16 65.46 18.62 57.12 20.1 48.66C24.22 49.81 28.09 50.88 31.96 51.97C34.48 52.68 34.24 52.38 34.6 55.13C34.72 56.13 34.94 57.12 35.09 58.12C36.68 68.91 39.84 78.98 45.23 87.97C45.86 89.01 46.65 89.9 47.38 90.87C47.1 90.29 46.82 89.72 46.51 89.15C44.79 85.88 42.89 82.73 41.38 79.33C36.35 67.91 34.78 55.42 33.76 42.81C33.13 35.17 33.35 27.5 34.05 19.87C34.43 15.79 34.95 11.73 35.42 7.45001C48.37 9.05001 61.13 9.17001 73.57 6.30001C75.55 13.48 77.47 20.47 79.41 27.51C79.14 27.61 78.85 27.74 78.55 27.81C71.55 29.73 64.55 31.67 57.54 33.53C56.62 33.78 56.36 34.13 56.54 35.23C57.29 39.75 57.95 44.27 58.69 48.79C59.03 50.95 59.55 51.31 61.31 50.82C65.93 49.53 70.55 48.25 75.17 46.97C78.01 46.18 80.85 45.4 83.84 44.59C86.28 53.97 88.67 65.89 89.79 79.88C90.9 93.73 90.47 105.87 89.57 115.56V115.57ZM83.94 28.18C84.64 27.99 85.13 28.1 85.41 29.02C86.57 32.84 87.82 36.62 88.93 40.46C89.45 42.2 89.22 42.56 87.64 43C78.81 45.47 69.98 47.92 61.13 50.36C59.69 50.77 59.31 50.43 59.02 48.67C58.66 46.47 58.3 44.26 57.97 42.04C57.65 39.96 57.39 37.87 57.09 35.74C66.14 33.2 75.03 30.69 83.93 28.19L83.94 28.18ZM97.37 109.37C97.26 112.33 97.17 115.21 95.34 116.2C93.64 117.12 91.47 116.09 90.76 115.71C91.34 105.64 91.41 93.5 90.17 79.87C88.93 66.14 86.65 54.23 84.25 44.5C84.97 44.29 85.53 44.1 86.09 43.95C86.71 43.77 87.33 43.65 87.94 43.44C89.44 42.93 89.87 42.2 89.35 40.48C87.98 35.95 86.53 31.47 85.05 26.99C84.94 26.65 84.3 26.3 83.95 26.36C82.67 26.6 81.41 27.01 80.05 27.38C77.66 20.47 75.54 13.59 74.28 6.24001C75.23 6.02001 76.2 5.77001 77.2 5.49001C79.53 4.83001 81.68 4.09001 83.64 3.31001C84.29 4.21001 85.24 5.62001 86.27 7.42001C87.84 10.18 88.82 12.69 90.73 17.59C91.61 19.87 92.35 21.78 93.24 24.45C94.3 27.64 95 30.16 95.18 30.85C96.47 35.69 96.6 40.47 96.41 49.93C96.19 61.39 95.9 59.38 95.91 66.12C95.91 70.91 96.07 79.13 95.98 83.4C95.98 83.77 95.93 85.54 95.91 87.96C95.9 89.09 95.9 89.68 95.9 90.85C95.88 97.55 95.8 97.31 95.89 98.23C96.12 100.7 96.47 100.42 96.96 104C97.23 105.94 97.43 107.43 97.36 109.37H97.37Z" fill="#6E0026"/>
<g filter="url(#filter1_f_49_157)">
<path d="M62.72 52.39C61.19 52.84 59.86 51.45 59.38 50.7L88.02 43.36L89.93 44.49C81.5 46.94 64.25 51.94 62.72 52.39Z" fill="#6E0026" fill-opacity="0.8"/>
</g>
<g filter="url(#filter2_d_49_157)">
<path d="M38.87 15.95C39.96 15.95 40.84 14.91 40.84 13.62C40.84 12.33 39.96 11.29 38.87 11.29C37.78 11.29 36.9 12.33 36.9 13.62C36.9 14.91 37.78 15.95 38.87 15.95Z" fill="black"/>
</g>
<g filter="url(#filter3_d_49_157)">
<path d="M37.56 33.7299C38.65 33.7299 39.53 32.6899 39.53 31.3999C39.53 30.1099 38.65 29.0699 37.56 29.0699C36.47 29.0699 35.59 30.1099 35.59 31.3999C35.59 32.6899 36.47 33.7299 37.56 33.7299Z" fill="black"/>
</g>
<g filter="url(#filter4_f_49_157)">
<path d="M46.01 55.78C50.94 68.57 65.58 95.97 84.68 103.19C74.5 105.64 52.5 99.58 46.01 55.78Z" fill="#D9D9D9"/>
</g>
<defs>
<filter id="filter0_i_49_157" x="-3.33203" y="1.18005" width="100.715" height="130.638" filterUnits="userSpaceOnUse" color-interpolation-filters="sRGB">
<feFlood flood-opacity="0" result="BackgroundImageFix"/>
<feBlend mode="normal" in="SourceGraphic" in2="BackgroundImageFix" result="shape"/>
<feColorMatrix in="SourceAlpha" type="matrix" values="0 0 0 0 0 0 0 0 0 0 0 0 0 0 0 0 0 0 127 0" result="hardAlpha"/>
<feOffset dx="-10"/>
<feGaussianBlur stdDeviation="2"/>
<feComposite in2="hardAlpha" operator="arithmetic" k2="-1" k3="1"/>
<feColorMatrix type="matrix" values="0 0 0 0 0.431373 0 0 0 0 0 0 0 0 0 0.14902 0 0 0 0.25 0"/>
<feBlend mode="normal" in2="shape" result="effect1_innerShadow_49_157"/>
</filter>
<filter id="filter1_f_49_157" x="57.38" y="41.36" width="34.55" height="13.1178" filterUnits="userSpaceOnUse" color-interpolation-filters="sRGB">
<feFlood flood-opacity="0" result="BackgroundImageFix"/>
<feBlend mode="normal" in="SourceGraphic" in2="BackgroundImageFix" result="shape"/>
<feGaussianBlur stdDeviation="1" result="effect1_foregroundBlur_49_157"/>
</filter>
<filter id="filter2_d_49_157" x="36.9" y="11.29" width="5.93994" height="6.66003" filterUnits="userSpaceOnUse" color-interpolation-filters="sRGB">
<feFlood flood-opacity="0" result="BackgroundImageFix"/>
<feColorMatrix in="SourceAlpha" type="matrix" values="0 0 0 0 0 0 0 0 0 0 0 0 0 0 0 0 0 0 127 0" result="hardAlpha"/>
<feOffset dx="1" dy="1"/>
<feGaussianBlur stdDeviation="0.5"/>
<feComposite in2="hardAlpha" operator="out"/>
<feColorMatrix type="matrix" values="0 0 0 0 0 0 0 0 0 0 0 0 0 0 0 0 0 0 0.4 0"/>
<feBlend mode="normal" in2="BackgroundImageFix" result="effect1_dropShadow_49_157"/>
<feBlend mode="normal" in="SourceGraphic" in2="effect1_dropShadow_49_157" result="shape"/>
</filter>
<filter id="filter3_d_49_157" x="35.59" y="29.0699" width="5.93994" height="6.66003" filterUnits="userSpaceOnUse" color-interpolation-filters="sRGB">
<feFlood flood-opacity="0" result="BackgroundImageFix"/>
<feColorMatrix in="SourceAlpha" type="matrix" values="0 0 0 0 0 0 0 0 0 0 0 0 0 0 0 0 0 0 127 0" result="hardAlpha"/>
<feOffset dx="1" dy="1"/>
<feGaussianBlur stdDeviation="0.5"/>
<feComposite in2="hardAlpha" operator="out"/>
<feColorMatrix type="matrix" values="0 0 0 0 0 0 0 0 0 0 0 0 0 0 0 0 0 0 0.4 0"/>
<feBlend mode="normal" in2="BackgroundImageFix" result="effect1_dropShadow_49_157"/>
<feBlend mode="normal" in="SourceGraphic" in2="effect1_dropShadow_49_157" result="shape"/>
</filter>
<filter id="filter4_f_49_157" x="36.01" y="45.78" width="58.67" height="67.8739" filterUnits="userSpaceOnUse" color-interpolation-filters="sRGB">
<feFlood flood-opacity="0" result="BackgroundImageFix"/>
<feBlend mode="normal" in="SourceGraphic" in2="BackgroundImageFix" result="shape"/>
<feGaussianBlur stdDeviation="5" result="effect1_foregroundBlur_49_157"/>
</filter>
</defs>
</svg>
