<svg width="245" height="39" viewBox="0 0 245 39" fill="none" xmlns="http://www.w3.org/2000/svg">
<path d="M158.903 38.5C158.903 34.1006 158.954 21.3003 169.212 11.6038C183.867 -2.13306 206.269 -0.157834 213.282 0.470648C228.67 1.8174 239.661 7.83286 245 11.1548C240.603 13.4892 236.312 15.8236 231.915 18.0681C230.764 16.9907 217.507 4.12694 197.618 7C195.106 7.35913 184.562 8.99692 176.816 16C176.083 16.6285 172.964 18.6254 168.149 25C163.752 30.9257 161.206 35.0882 158.903 38.5Z" fill="#834030"/>
<path d="M86.0967 38.5C86.0967 34.1006 86.0463 22.3003 75.7878 12.6038C61.1327 -1.13306 38.7313 0.842166 31.7178 1.47065C16.3299 2.8174 5.33861 8.83286 -3.66804e-05 12.1548C4.39649 14.4892 8.68835 16.8236 13.0849 19.0681C14.2364 17.9907 27.4929 5.12694 47.382 8C49.8943 8.35913 60.4376 9.99692 68.1839 17C68.9166 17.6285 72.0361 19.6254 76.8513 26C81.2479 31.9257 83.7937 35.0882 86.0967 38.5Z" fill="#834030"/>
</svg>
