<svg width="91" height="51" viewBox="0 0 91 51" fill="none" xmlns="http://www.w3.org/2000/svg">
<path d="M33.15 19.78C33.15 19.78 18.48 22.27 14.75 8.21997C14.75 8.21997 14.75 16.98 23.2 21.73C23.2 21.73 19.02 21.22 18.09 19.24C18.09 19.24 18.82 22.2 22.14 22.53C22.14 22.53 19.5 22.77 16.45 20.89C16.45 20.89 19.67 23.4 21.56 23.33C21.56 23.33 17.96 23.98 15.6 23.33C15.6 23.33 19.56 24.84 21.25 24.08C21.25 24.08 16.58 25.86 11.74 22.04C11.74 22.04 15.39 25.84 18.72 25.15C18.72 25.15 7.41 27.62 1.74 16.26C1.74 16.26 6.03 26.15 12.54 26.26C12.54 26.26 5.29 26.39 0 18.57C0 18.57 5.8 29.17 15.07 28.17C15.07 28.17 19.89 28.9 26.85 25.1C26.85 25.1 34.85 21.81 33.16 19.77L33.15 19.78Z" fill="black"/>
<path d="M35.97 17.1399C35.65 16.9599 35.25 17.1699 35.2 17.1999C35.2 17.1999 29.89 17.1999 26.67 13.0699C26.67 13.0699 29.36 17.0899 31.03 17.5599C31.03 17.5599 23.83 16.4699 21.87 13.7799C23.26 15.0699 24.56 15.9399 25.51 16.4999C25.51 16.4999 29.56 18.8999 34.06 18.9099C35.22 18.9099 35.99 18.7499 36.23 18.2599C36.39 17.9299 36.35 17.3399 35.98 17.1299L35.97 17.1399Z" fill="black"/>
<path d="M39.78 17.96C39.78 17.96 33.87 18.05 31.38 10.05C31.7 11.06 32.89 14.28 36.18 16.18C37.53 16.96 38.83 17.28 39.78 17.42V17.95V17.96Z" fill="black"/>
<path d="M43.5501 16.98C42.0001 16.47 40.1001 15.6 38.2601 14.09C32.3101 9.21 31.8701 1.65 31.8101 0C31.6601 1.72 31.3201 7.82 35.4501 13.31C37.6201 16.19 40.1801 17.79 41.8101 18.63C42.6801 18.86 43.4601 18.5 43.5401 16.99L43.5501 16.98Z" fill="black"/>
<path d="M45.69 15.16C45.69 15.16 45.47 16.18 44.4 16.18C44.4 16.18 38 14.4 38.18 9.78003C38.18 9.78003 38.27 14.6 45.69 15.16Z" fill="black"/>
<path d="M49.6901 16.18C49.6901 16.18 49.6901 18.78 47.6001 17.51C47.6001 17.51 42.0701 12.62 44.4401 2.62C44.4401 2.62 44.8401 15.44 49.6901 16.18Z" fill="black"/>
<path d="M52.2399 17.4401C52.2399 17.4401 58.4499 12.4201 57.7199 8.43005C57.7199 8.43005 55.7599 14.4001 52.0899 15.6001C52.0899 15.6001 47.4699 13.7201 47.5599 10.0401C47.5599 10.0401 46.7699 14.3701 52.2399 17.4301V17.4401Z" fill="black"/>
<path d="M56.9799 18.98C56.9799 18.98 55.7799 19.05 55.8199 17.86C55.8199 17.86 58.2799 13.01 58.1299 2.77002C58.1299 2.77002 60.6599 5.76002 58.5199 16.58C58.5199 16.58 63.3399 11.73 63.0199 8.43002C63.1199 9.25002 63.1299 10.17 62.9599 11.16C62.1599 15.83 57.9899 18.4 56.9699 18.98H56.9799Z" fill="black"/>
<path d="M68.03 10.88C68.03 10.88 65.64 17.41 59.29 18.51C59.29 18.51 59.5 20.26 61.04 19.31C61.04 19.31 67.71 16.76 68.03 10.88Z" fill="black"/>
<path d="M70.11 6.03003C70.11 6.03003 69.98 18.42 62.29 19.59C62.29 19.59 62.45 22.27 64.04 21.09C64.87 20.57 70.18 17.11 70.74 10.98C70.92 8.97003 70.54 7.26003 70.12 6.03003H70.11Z" fill="black"/>
<path d="M72 16.34C72 16.34 68.68 20.49 65.48 20.04C65.48 20.04 64.16 21.75 65.66 21.39C65.66 21.39 71.01 20.21 72 16.35V16.34Z" fill="black"/>
<path d="M74.8501 18.98C74.8501 18.98 72.3601 21.68 66.5301 21.56C66.5301 21.56 66.33 23.22 68.98 22.54C68.98 22.54 73.3201 21.9 74.8501 18.98Z" fill="black"/>
<path d="M82.23 18.33C81.77 19.24 80.94 20.59 79.5 21.8C79.06 22.17 75.13 25.41 72.62 23.93C72.21 23.69 71.57 23.16 71.16 21.93C70.68 21.85 70.19 22.03 69.95 22.41C69.76 22.72 69.74 23.21 70.17 24.02C71.86 25.73 73.46 25.96 74.05 26.01C77.33 26.27 80.93 23.23 82.23 18.33Z" fill="black"/>
<path d="M78.43 21C78.43 21 75.27 24.1 71.61 23.4L71.37 23.07C71.37 23.07 75.1 23.38 78.42 21H78.43Z" fill="black"/>
<path d="M77.5799 19.25C77.5799 19.25 74.4899 23.35 70.7799 22.76L70.6899 22.45C70.6899 22.45 74.6599 22.52 77.5799 19.25Z" fill="black"/>
<path d="M84.12 26.02C83.35 26.33 82.52 26.62 81.62 26.88C79.04 27.62 76.69 27.87 74.75 27.91C75.32 28.31 75.89 28.71 76.46 29.11C77.38 29.18 79.41 29.22 81.55 28.08C82.77 27.43 83.61 26.62 84.12 26.02Z" fill="black"/>
<path d="M18.84 27.81C19.16 28.37 27.33 22.25 41.64 20.14C42.89 19.95 47.79 19.23 51.73 19.45C73.4 20.68 88.82 51.95 90.46 50.85C91.29 50.29 87.17 42.42 83.16 36.59C81.02 33.47 78.47 29.83 74.06 26C68.6 21.27 63.49 19.04 62.47 18.61C60.32 17.69 53.32 14.8 44.56 15.33C29.18 16.26 18.46 27.14 18.85 27.81H18.84Z" fill="black"/>
</svg>
