<?xml version="1.0" encoding="utf-8"?>
<!-- Generator: Adobe Illustrator 28.3.0, SVG Export Plug-In . SVG Version: 6.00 Build 0)  -->
<svg version="1.1" id="_Слой_1" xmlns="http://www.w3.org/2000/svg" xmlns:xlink="http://www.w3.org/1999/xlink" x="0px"
	 y="0px" viewBox="0 0 145.9 190.1" style="enable-background:new 0 0 145.9 190.1;" xml:space="preserve">
<style type="text/css">
	.st0{fill:#976766;}
	.st1{fill:#C45B5B;}
	.st2{opacity:0.4;fill:url(#SVGID_1_);enable-background:new    ;}
	.st3{fill:#A67676;}
	.st4{opacity:0.6;fill:url(#SVGID_00000048477726999332855290000010888174245918896258_);enable-background:new    ;}
	.st5{opacity:0.2;fill:url(#SVGID_00000136412247849696270250000014632203588859469697_);enable-background:new    ;}
	.st6{fill:#E9DAC5;}
	.st7{fill:#E2BABA;}
	.st8{fill:url(#SVGID_00000150092755954329745150000007587558576417021612_);}
	.st9{opacity:0.1;fill:url(#SVGID_00000085933503980559175420000007838577620196630409_);enable-background:new    ;}
	.st10{opacity:0.5;}
</style>
<path d="M99.5,114.4L99.5,114.4L99.5,114.4C99.4,114.4,99.4,114.4,99.5,114.4z"/>
<path class="st0" d="M114.7,8.9c-2,2.1-5.2,5.2-9.2,9.1c-5.4,5.3-6.6,6.3-9.5,9.4c-3,3.1-6.3,6.5-10.1,11.2
	c-2.6,3.2-5.9,7.6-9.4,13.2c-0.6-0.9-1.1-2.2-1.1-3.7c0.1-1.4,0.7-2.4,1-2.9c7.8-12.3,17.7-22.8,28.4-32.6c2.4-2.2,4.9-4.4,7.5-6.7
	c0.4,0.3,0.8,0.7,1.2,1.1C114.1,7.6,114.5,8.3,114.7,8.9L114.7,8.9z"/>
<path class="st1" d="M125.5,27.3c-0.1-0.2-0.1-0.5-0.2-0.7c0.3,0.8,0.5,1.5,0.7,2.3C125.9,28.5,125.7,27.9,125.5,27.3z"/>
<path class="st0" d="M161.6,158.7c0-0.4-0.1-0.8-0.1-1.1s-0.1-0.6-0.1-1c0-0.2-0.1-0.4-0.1-0.6c-0.2-1.3-0.4-3-0.8-5
	c-0.1-0.5-0.2-1-0.4-1.4c-0.2-0.7-1.1-3.5-2.8-6.8c-0.1-0.1-0.2-0.3-0.2-0.4l0,0c-1.1-2.2-2.2-3.7-2.6-4.1c-0.7-1.1-1.6-2.6-2.7-5.4
	c-1.5-3.7-3.4-9.7-5.8-19.7c-0.2-1.1-0.9-4.1-2.6-12.3c-3.8-19-3.8-21-6.1-30.9c-1.6-7-3.1-12.3-5.1-19.6c-2-7.1-3.9-13.3-5.5-18.4
	c0-0.1,0-0.1-0.1-0.2c-0.2-0.7-0.4-1.4-0.6-2.1c-0.4-1.3-1-2.9-1.7-4.7c-0.2-0.5-0.4-1.2-0.8-2c-0.2-0.4-0.4-0.8-0.6-1.3
	c-0.3-0.6-0.6-1.3-1-1.9c-1.3-2.4-2.2-3.2-3.7-5.1l0,0c-0.3-0.6-0.7-1.2-1.1-1.8c-0.6-0.8-1.2-1.4-1.6-1.9c-0.1-0.4-0.2-0.8-0.4-1.4
	l0,0V9.5c0-0.1-0.1-0.2-0.1-0.3l0,0c-0.2-0.4-0.4-0.9-0.7-1.3c-0.6-0.9-1.5-2-3.4-3.3c-1.5-1.1-3.9-2.5-7.5-3.5c0,0-0.1,0-0.2,0
	s-0.1,0-0.2,0.1c-0.5,0.1-1,0.3-1.5,0.4c-0.1,0-0.3,0.1-0.4,0.1c-0.4,0.2-0.8,0.3-1.2,0.5c-1.4,0.6-2.9,1.5-4.5,2.4
	C94,5.2,92.9,6,91.9,6.7c-0.3,1.5-0.6,2.7-1,3.6l0,0c-0.1,0.3-0.2,0.6-0.3,0.8c0,0,0,0,0,0.1c-0.4,1-0.8,1.6-1.2,2.1
	c0,0-0.1,0.2-0.3,0.4c-0.6,0.8-0.6,1.7-0.6,2.3c-0.1,0.8-0.3,0.9-1.1,2.7c-0.7,1.7-0.8,2.2-1.4,4s-1.2,3.1-2.3,5.5
	c-1.4,3-4.4,9.7-8.4,18.5c-0.3,0.2-0.6,0.4-0.9,0.6c-7.1-17-9.7-23.6-10.7-26.2c-0.8-1.9-1.3-3.3-2.4-5.9c-0.5-1.2-1.1-2.6-1.8-4.3
	c-1.3-2.8-1.9-4.1-3.1-5.5c-1.9-2.2-4.1-3.4-6-4.1h-0.1c-0.6-0.2-1.1-0.4-1.6-0.5c-0.1,0-0.1,0-0.2,0c-0.4,0-0.8,0.1-1.2,0.2
	s-0.8,0.2-1.2,0.3H46C44,2,41.7,3,39.3,4.5c-2.4,1.3-4.3,2.8-5.8,4.2c0,0-0.1,0-0.1,0.1c0,0,0,0-0.1,0.1V9v0.1c0,0.2,0,0.4,0.1,0.7
	s0.2,0.4,0.2,0.5c0.1,0.3,0.2,0.9-0.5,2c-2,2.9-3.5,5.3-4.4,7c-2.7,4.8-4.8,9.5-6.5,14l0,0c-0.5,1.4-1,2.8-1.5,4.1
	c-1.7,5.1-2.9,9.9-4,14.3C15.8,55,15.1,58,15.1,58c-1.5,5.8-1.7,7.2-2.4,9.8c-1,3.8-1.4,4.1-3.6,10.5c-2.6,7.3-4.5,13.9-5.1,16
	c-1.4,4.8-1.9,6.8-3.3,10.6c0,0.1-0.1,0.3-0.2,0.6c0,0.1,0,0.1-0.1,0.2c0,0,0,0,0,0.1c-0.2,0.6-0.6,1.5-1,2.5c0,0.1,0,0.1-0.1,0.2
	c-0.5,1.2-1.1,2.6-1.8,3.9c-3.8,7.8-7,10.6-16.2,23.5c-3.5,4.9-4.9,7.1-6.2,9.6c-1.1,2.2-3.1,6.2-3.9,10.7l0,0c0,0.1,0,0.2-0.1,0.3
	l0,0c-0.3,1.8-0.4,3.6-0.1,5.5c0,0.5,0.1,1,0.2,1.3c0.2,1,0.5,2.1,0.9,3.2c0,0.2,0.1,0.3,0.2,0.5c0.3,0.8,0.6,1.5,1,2.2l0,0
	c0.8,1.4,1.7,2.5,2.8,2.6c0.4,0,0.6-0.2,1.3-0.3c0.4-0.1,0.8-0.1,1.1-0.1c1-0.1,1.9,0.1,2.8,0.3s1.8,0.6,2.5,0.8
	c4.2,1.6,4.6,4,8.4,4.6c0.1,0.1,1.3,0.2,2.6,0.1c4.8-0.6,8.5-5,9.7-7.7c1.9-4.2,7.8-11.2,10-23.1c0.6-3.2,0.2-3,1-7.6
	c0.2-1.4,0.5-2.7,0.8-4v-0.1c0-0.3,0.1-0.5,0.2-0.8c0.3-1.4,0.6-2.8,0.9-4c0-0.2,0.1-0.4,0.1-0.5c0.7-2.9,1.5-5.3,2-7.1
	c2.1-6.8,7.6-24.4,15.4-48.2c2.1,4.3,3.1,6.4,3.5,8.2c0,0.2,0.1,0.3,0.1,0.5v0.1v0.2c0.1,0.8,0.2,1.5,0.2,2.2c0,1.1-0.1,2.3-0.2,3.5
	c0,1.7-0.1,4.1-0.3,8.3c-0.4,7.1-0.6,10.8-1.2,15.5c-0.3,2-0.5,3.6-0.8,4.7v0.1l0,0c-0.1,1.7-0.2,3.2-0.3,4.5c0.1,0.4,0.3,0.7,0.6,1
	c0.1,0.1,0.5,0.5,1.6,0.8c2.9,0.8,5.4-0.3,10.9-2.5c5.8-2.2,7.4-2.7,9.3-2.5c1.2,0.1,2.4,0.3,3.6,0.6c2.3,0.7,4.1,1.1,5.8,1.4
	c3.9,0.6,8.7,1.7,14.5,0.7c3.8-0.7,5.1-1.7,7.3-2.2c0.2,0,0.5-0.1,0.7-0.1c1.8,0,3.3,0.8,4.5,1.5c1.1,0.7,1,0.8,1.2,0.8
	c2.1,0.2,4.4-6.2,5.4-9.2l0,0c0.2-1,0.4-2.1,0.6-3.1c0.4-2,1-5,1.8-8.7c0.2-0.9,0.4-1.8,0.6-2.7c0.1-0.9,0.1-1.7,0.2-2.4
	c0-0.2,0-0.3,0-0.4c0.5-4.2,1-7.4,1.6-10.3c0.7-3.2,1.4-5.9,2-7.9c0.1-0.5,0.3-0.9,0.4-1.3v-0.1v0.1c0.2-0.1,0.5-0.1,0.8-0.1
	c2.1,0.4,2.5,5.6,3,9.3c0.4,3.5,1.1,7,1.6,10.6c2,9.2,2.9,17,3.3,23c0,0,2.6,34.7,9.9,50.5c3.3,7.1,8.2,8.8,8.6,8.9
	c1.3,0.3,2.5,0.3,2.6,0.3c3.9-0.1,4.6-2.4,9-3.5c0.3-0.1,0.7-0.2,1-0.2c0.7-0.2,1.4-0.3,2.1-0.3c0.2,0,0.4,0,0.7,0
	c0.6,0,1.3,0.1,2,0.3c0.2,0,0.4,0.1,0.6,0.2c0.6,0.2,0.8,0.4,1.2,0.4c2.1,0,3.7-3.4,4.5-5.5c0.2-0.5,0.3-0.8,0.5-1.2
	c0.5-1.2,0.7-2.2,0.9-2.7v-0.1l0,0c0.1-0.1,0.1-0.2,0.1-0.1c0.2-0.9,0.3-1.8,0.4-2.6c0-0.3,0-0.6,0-1
	C161.7,160.5,161.7,159.6,161.6,158.7z M114.9,9.5c-0.1,0.1-0.2,0.1-0.2,0.2c0,0,0-0.1-0.1-0.1c-1-1.5-1.7-2.7-2-3.1
	c0.4,0.5,0.7,1,1.1,1.4c0.2,0.3,0.4,0.5,0.6,0.8c0.1,0.2,0.2,0.3,0.3,0.4c0.1,0.1,0.1,0.2,0.2,0.3C114.8,9.5,114.9,9.5,114.9,9.5
	L114.9,9.5z"/>
<image style="overflow:visible;enable-background:new    ;" width="117" height="158" xlink:href="5FADC872.png"  transform="matrix(0.9431 0 0 0.8748 49.624 9.2802)">
</image>
<linearGradient id="SVGID_1_" gradientUnits="userSpaceOnUse" x1="-3.9011" y1="-431.9138" x2="19.1107" y2="-376.3327" gradientTransform="matrix(1 0 0 -1 0 -264.4724)">
	<stop  offset="0.31" style="stop-color:#7F4B4B"/>
	<stop  offset="1" style="stop-color:#FFFFFF;stop-opacity:0.2"/>
</linearGradient>
<path class="st2" d="M24.1,105.2c0,0-20.3,60.3-40.3,67.5l3.3,1c1.6,1.1,3.2,2.2,4.7,3.2c1.6,0,3.1,0,4.7,0.1
	c1.2-0.6,2.3-1.2,3.5-1.8l4-5.1c1.5-2.4,3-5.2,4.4-8.2c1.3-2.7,2.3-5.3,3.2-7.6c0.9-2.5,2.2-6.4,3.2-11.2c0.6-3.2,1.3-6.4,1.9-9.6
	c1.1-4.6,2.3-9.2,3.4-13.7l0,0C20.1,119.7,21.5,114.9,24.1,105.2z"/>
<path class="st3" d="M114.7,9.2c-2,2.1-5.2,5.2-9.2,9.1c-5.4,5.3-6.6,6.3-9.5,9.4c-3,3.1-6.3,6.5-10.1,11.2
	c-2.6,3.2-5.9,7.6-9.4,13.2c-0.6-0.9-1.1-2.2-1.1-3.7c0.1-1.4,0.7-2.4,1-2.9c7.8-12.3,17.7-22.8,28.4-32.6c2.4-2.2,4.9-4.4,7.5-6.7
	c0.4,0.3,0.8,0.7,1.2,1.1C114.1,7.9,114.5,8.6,114.7,9.2L114.7,9.2z"/>
<path d="M21,41.7c0,0.1,0.1,0.2,0.1,0.3C21.1,41.9,21.1,41.8,21,41.7z"/>
<linearGradient id="SVGID_00000063594391912907988600000013098206489984875148_" gradientUnits="userSpaceOnUse" x1="101.3425" y1="-332.4707" x2="113.2825" y2="-303.6206" gradientTransform="matrix(1 0 0 -1 0 -264.4724)">
	<stop  offset="0.31" style="stop-color:#7F4B4B"/>
	<stop  offset="1" style="stop-color:#FFFFFF"/>
</linearGradient>
<path style="opacity:0.6;fill:url(#SVGID_00000063594391912907988600000013098206489984875148_);enable-background:new    ;" d="
	M115.7,35.6l-14.3,38.3C101.5,73.9,107.2,35.3,115.7,35.6z"/>
<path d="M125.3,26.7c0.1,0.2,0.1,0.5,0.2,0.7c0.2,0.5,0.3,1.1,0.5,1.6C125.8,28.2,125.6,27.4,125.3,26.7z"/>
<linearGradient id="SVGID_00000134242096440543887560000016780688241217820546_" gradientUnits="userSpaceOnUse" x1="147.1846" y1="-433.6063" x2="159.5646" y2="-403.7064" gradientTransform="matrix(1 0 0 -1 0 -264.4724)">
	<stop  offset="0" style="stop-color:#824D4D"/>
	<stop  offset="2.086215e-02" style="stop-color:#926464;stop-opacity:0.9784"/>
	<stop  offset="5.992592e-02" style="stop-color:#AB8888;stop-opacity:0.9378"/>
	<stop  offset="0.1039" style="stop-color:#C2A8A8;stop-opacity:0.8922"/>
	<stop  offset="0.1526" style="stop-color:#D5C4C4;stop-opacity:0.8417"/>
	<stop  offset="0.2075" style="stop-color:#E5DADA;stop-opacity:0.7847"/>
	<stop  offset="0.2716" style="stop-color:#F1EBEB;stop-opacity:0.7181"/>
	<stop  offset="0.3509" style="stop-color:#F9F6F6;stop-opacity:0.6359"/>
	<stop  offset="0.4622" style="stop-color:#FEFDFD;stop-opacity:0.5204"/>
	<stop  offset="0.7709" style="stop-color:#FFFFFF;stop-opacity:0.2"/>
</linearGradient>
<path style="opacity:0.2;fill:url(#SVGID_00000134242096440543887560000016780688241217820546_);enable-background:new    ;" d="
	M150.5,130.7l5.9,10.2l3.3,7.6c0.5,1.7,1,3.4,1.5,5.1c0.2,1.8,0.4,3.7,0.6,5.5c0,1.5-0.2,3.2-0.5,5c-0.2,1.1-0.4,2.1-0.7,3
	c-0.4,1.1-1,2.5-1.9,4c-0.9,1.4-1.8,2.6-2.7,3.5c-1.5-0.3-3.3-0.6-5.4-0.7c-2-0.1-3.9,0-5.4,0.2c2.1-1.1,5.2-3.2,7.4-6.8
	c1.5-2.6,2.6-6.1,1.6-16.9C153.5,145.6,152.6,138.8,150.5,130.7z"/>
<path class="st6" d="M32.8,104.5c0.2,0.2,0.4,0.5,0.6,0.7C33.2,105,33,104.7,32.8,104.5z"/>
<path class="st0" d="M54.8,3.4c1.7,1.2,2,1.9,2.1,2.3c0.4,1.6-1.1,2.9-2.3,4.9c-1.8,3.1-3.3,5.6-4.1,7.1c-4.7-4.2-7-6.3-8.2-7.4
	c-0.9-0.8-1.8-1.6-2.7-2.4s-1.8-1.6-2.7-2.4c1.9-1.3,4.4-2.8,7.5-3.9c1.2-0.4,2.4-0.8,3.5-1C51.3,1.2,53.6,2.5,54.8,3.4z"/>
<path class="st6" d="M107.8,113.7c0.1-0.1,0.2-0.2,0.2-0.3C107.9,113.5,107.9,113.6,107.8,113.7z"/>
<path class="st6" d="M21.1,42c0-0.1-0.1-0.2-0.1-0.3c0,0,0,0,0-0.1s0-0.2,0-0.3c0,0.1,0,0.2,0.1,0.3C21,41.8,21.1,41.9,21.1,42z"/>
<path class="st0" d="M112.4,5.2c-4.4,4.5-9.4,8.8-14,13.5c-0.3-0.3,0-1-0.2-1.3c-0.1-0.1-0.2-0.1-0.3-0.2c0,0-0.2-0.1-0.2-0.2
	c0,0-0.2-0.6-0.3-0.8c-1.3-2.5-2-4-2-4c-1.5-3.6-2.6-5.6-2.5-6c0-0.1,0-0.2,0.1-0.2c0.7-1.6,2.4-2.3,4.2-3.1
	c1.3-0.5,3.1-1.3,5.4-2.4c2.2,0.8,4.5,1.8,6.9,3.1C110.5,4.1,111.4,4.7,112.4,5.2z"/>
<path class="st7" d="M94.1,73.8c0.9,0.1,1.8,0.2,2.8,0.3v5.6c-15-1.4-29.9-1.5-45,0v-5.6c3.8-0.4,7.6-0.8,11.4-1
	c0.9-0.1,1.9-0.1,2.8-0.2c1.4-0.1,2.8-0.1,4.3-0.1c0.9,0,1.9-0.1,2.8-0.1h3.1c1,0,1.9,0,2.9,0.1c0.6,0,1.2,0.1,1.8,0.1
	c0.6,0,1.2,0.1,1.8,0.1H83c0.9,0.1,1.8,0.1,2.8,0.2c0.8,0.1,1.6,0.1,2.4,0.2c0.6,0.1,1.2,0.1,1.8,0.2c0.4,0,0.9,0.1,1.4,0.1
	C92.2,73.6,93.2,73.7,94.1,73.8L94.1,73.8z"/>
<path class="st3" d="M52.3,25.9c-0.6-0.6-1.3-1.3-1.9-1.9c-0.9-0.9-1.7-1.7-2.6-2.5c-0.7-0.7-1.4-1.4-2.2-2.1c-1-1-2-1.9-3-2.9
	c-0.7-0.6-1.3-1.2-2-1.9c-1.3-1.2-2.6-2.5-3.9-3.7c-0.7-0.7-1.5-1.4-2.2-2.1c0.7-0.9,1.3-1.8,2.1-3c0.8,0.7,1.6,1.4,2.4,2.1
	c0.8,0.7,1.6,1.4,2.4,2.1c0.4,0.4,0.8,0.7,1.2,1.1c0.5,0.5,1.1,0.9,1.6,1.4c0.1,0.1,0.2,0.2,0.4,0.4c0.5,0.5,1,1,1.6,1.4
	c9.6,9,18.5,18.6,25.7,29.7c0.2,0.3,0.3,0.5,0.5,0.8c0.2,0.2,0.3,0.5,0.4,0.7c0.3,0.6,0.6,1.1,0.9,1.7c0.1,0.3,0.2,0.5,0.4,0.8
	c0.1,0.3,0.2,0.5,0.3,0.8s0.2,0.6,0.3,0.8c0.1,0.3,0.2,0.5,0.3,0.8v0.1c0.2,0.2,0.4,0.4,0.6,0.8c0.7,1.1,0.7,2.2,0.9,4.6
	c0,0.5,0.1,1.3,0.3,2.3c-0.1-0.2-0.3-0.4-0.4-0.5c-0.1-0.2-0.2-0.3-0.2-0.5C76.1,57,76,56.9,76,56.7c-0.2-0.4-0.4-0.8-0.6-1.1
	c-0.2-0.4-0.5-0.9-0.7-1.3c-0.2-0.3-0.4-0.7-0.6-1s-0.4-0.7-0.6-1c-0.2-0.4-0.5-0.8-0.8-1.3c-0.2-0.3-0.3-0.6-0.5-0.8
	c-0.3-0.5-0.6-1-0.9-1.4c-0.2-0.3-0.3-0.5-0.5-0.8c-0.8-1.2-1.6-2.4-2.5-3.6c-0.2-0.3-0.5-0.7-0.7-1s-0.5-0.6-0.7-1s-0.5-0.6-0.7-1
	c-0.8-1-1.6-2.1-2.5-3.1c-0.2-0.3-0.5-0.6-0.7-0.8s-0.4-0.5-0.6-0.7c0,0-0.1-0.1-0.1-0.2c-0.4-0.5-0.8-0.9-1.2-1.3
	c-0.2-0.2-0.3-0.4-0.5-0.6c-0.2-0.2-0.4-0.4-0.5-0.6c-0.4-0.4-0.7-0.8-1.1-1.2c-0.8-0.9-1.7-1.8-2.5-2.7c-0.1-0.1-0.2-0.2-0.3-0.3
	C55,28.6,53.6,27.2,52.3,25.9z"/>
<path d="M161.6,157.1c-0.1-2.4-0.3-4.9-1-7.4c-0.9-3.6-2.7-7.2-2.7-7.2c-0.6-1.3-1.4-2.7-2.5-4.4c-4.3-6.8-10.1-24.8-17.6-68.5
	c-2.5-10.9-5.7-21.6-9.1-32.3c-0.8-2.6-1.7-5.3-2.5-7.9c0.2,0.7,0.4,1.5,0.5,2.2c0,0.1,0,0.3,0.1,0.4c0.1,1,0.2,2,0.2,3
	c-0.1,6.5-3.3,11.9-6.5,17.4c-1.5,2.5-3.1,4.7-5.3,9.2c-2.1,4.2-3.1,6.2-3.3,6.8c-0.8,2.1-1.4,3.3-1.8,4.1c-0.4,0.5-0.8,1-1.2,1.4
	c-1.9,1.3-4.6,0.9-6.5,0.3c1.6-5.2,3.3-10.5,5.2-15.9c2.7-7.8,5.5-15.2,8.3-22.3c-2.7,6.3-5.3,13-7.9,20c-2.3,6.3-4.4,12.4-6.3,18.3
	c-7.9-0.7-15.9-1.3-23.8-2c0.1-1.5,0.2-3,0.2-4.7c0-6-0.2-9.2-0.4-11c0-0.3-0.1-0.8-0.1-1.6c0-1.5,0.4-3.3,1.5-5.6
	c3.2-6.2,10.8-14.6,19.3-23.3c0.8-0.8,1.4-1.8,2.1-2.7c-4.9,5.3-10,10.4-14.7,15.9c-3.3,3.9-6.1,8.3-9.2,12.6
	c-1.1-2-1.4-3.9,0.1-6.3C84.4,33.3,94.3,22.8,105,13c2.4-2.2,4.9-4.4,7.5-6.7c0,0,0,0,0.1,0.1c0.4,0.5,0.8,0.9,1.1,1.4
	c0.1,0.1,0.2,0.2,0.3,0.4c0.2,0.2,0.3,0.4,0.5,0.6c0.1,0.1,0.1,0.2,0.3,0.4l0,0c0.1,0.1,0.1,0.2,0.2,0.2l0,0l0,0c0,0,0,0-0.1,0.1
	l0,0l-0.1,0.1c0,0.1-0.1,0.1-0.1,0.1s-0.1,0-0.1,0.1c-2.8,2.6-5.5,5.1-8.3,7.7c-0.8,0.8-1.4,1.8-2.2,2.7c0.1-0.1,0.2-0.2,0.4-0.3
	c3.2-2.9,6.4-5.8,9.9-9.1c1.3,1.4,2.8,2.7,3.9,4.2c0.1,0.1,0.2,0.3,0.3,0.4c1.1,1.5,2.8,3.7,4.3,6.3c0.2,0.3,0.4,0.7,0.6,1.1
	c0.7,1.3,1.4,2.8,2,4.3c-1.9-5.9-4.3-11.7-9.2-16.1c-0.2-0.2-0.4-0.4-0.5-0.7c-0.9-1.9-1.4-3.3-1.5-3.6c-0.3-1.2-2.5-3.2-10.8-6.5
	h-2.2c-1.8,0.9-3.6,2-5.5,3c-1.5,0.9-3,1.8-4.4,2.7c-0.4,1.2-2.1,6.7-3,9.1c-0.8,2.1-0.8,2.2-0.8,2.2c-0.3,0.7-0.6,1.5-0.8,2.2
	c-0.2,0.6-0.4,1.2-0.7,1.8c-0.1,0.2-0.1,0.4-0.2,0.5l-0.6,1.5c-0.3,0.8-0.7,1.7-1,2.5s-0.7,1.7-1,2.5c-0.4,0.9-0.7,1.7-1.1,2.6
	c-0.3,0.8-0.7,1.6-1,2.3c-0.2,0.6-0.5,1.1-0.7,1.7c-0.4,0.9-0.8,1.8-1.2,2.7c-0.4,0.8-0.7,1.6-1.1,2.4c-0.4,0.9-0.8,1.8-1.2,2.8
	c-0.6,1.2-1.1,2.4-1.7,3.6c-0.3,0.1-0.5,0.1-0.8,0.2c-3.5-8.5-7-17-10.5-25.4c-1.4-3.4-2.8-6.8-4.2-10.2C59,9.1,59,7.5,57.7,5.8
	c-1.8-2.3-4.2-3.5-5.7-4.2c-1.6-0.8-2.6-1.3-4-1.3c-1.2,0-1.9,0.3-4.7,1.5c-4.4,2-5.9,2.8-7.5,4.1c-1.2,0.9-1.9,1.8-2.2,2.8
	c0,0.1-0.1,0.2-0.1,0.3s0,0.1-0.1,0.2c0,0,0,0,0,0.1l0,0c-0.1,0.4,0,0.9,0.3,1.5c0.1,0.1-0.3,0.4-0.5,0.7c-1.6,2.4-3.5,4.7-4.8,7.2
	c-2.3,4.8-4.3,9.7-6.1,14.7l0,0c-0.5,1.4-1,2.8-1.5,4.1c-0.4,1.3-0.8,2.5-1.3,3.8c-1.4,4.2-2.6,8.5-3.8,12.8
	c-0.2,0.9-0.5,1.8-0.7,2.8c-0.9,3.3-1.7,6.7-2.5,10.1c-0.8,2.3-2,5.8-3.4,10.1C2.9,96.4,2,101.5,0.6,105.7c0,0.1,0,0.1-0.1,0.2
	c0,0,0,0,0,0.1c-0.3,0.8-0.6,1.6-1,2.5c0,0.1,0,0.1-0.1,0.2c-0.3,0.6-0.5,1.2-0.9,1.8c-4.5,8.9-12,17.5-17.3,25.4
	c-2.4,3.5-4.8,7.1-6.7,10.8c-1.9,3.7-2.8,7-3.2,9.7l0,0c0,0.2,0,0.3-0.1,0.5l0,0c-0.5,3.8,0.1,6.3,0.3,7.2c0.2,0.8,0.4,1.7,0.7,2.6
	c0,0.2,0.1,0.3,0.2,0.5c0.3,0.8,0.6,1.7,1,2.4l0,0c0.8,1.6,1.8,2.9,3,3c0.4,0,0.6-0.1,1.3-0.3c2.5-0.6,4.7,0.4,6.4,1
	c4.2,1.6,4.6,4.1,8.4,4.6c0.1,0,1.3,0.2,2.6,0.1c4.6-0.4,7.7-4.5,9.7-7.7c8.4-13.1,10.1-23.6,10.1-23.6c0.6-3.7,1.6-8.8,3.1-14.9
	c1.3-5.3,2.4-9.5,3.5-13.2c4.7-16.3,12.4-39.7,13.6-43.5c0.5,1.1,1,2.1,1.4,2.9c1.2,2.4,1.9,3.9,2.1,5.2v0.1v0.2c0,1.3,0,3,0,5
	c0,0.1,0,0.3,0,0.5c0,1.7-0.1,4.1-0.3,8.3c-0.4,7.1-0.6,10.8-1.2,15.5c-0.3,2-0.5,3.6-0.8,4.7v0.1l0,0c-0.4,2.4-0.6,3.8-0.3,4.7
	c0.1,0.4,0.3,0.7,0.6,1c0.1,0.1,0.5,0.5,1.6,0.8c2.9,0.8,5.4-0.3,10.9-2.5c5.8-2.2,7.4-2.7,9.3-2.5c1.2,0.1,2.4,0.3,3.6,0.6
	c2.3,0.7,4.1,1.1,5.8,1.4c3.9,0.6,8.7,1.7,14.5,0.7c3.8-0.7,5.1-1.7,7.3-2.2c0.2,0,0.4-0.1,0.7-0.1c0.5,0,1,0.1,2.2,0.7
	c1,0.5,1.4,0.7,1.9,1c0.3,0.2,0.5,0.5,0.7,0.7c0.5,0.6,0.5,0.7,0.7,0.8c0.4,0.2,1.4-0.4,2.7-2.5c1.6-2.5,2.4-5.2,3-7.9l0,0
	c0.2-1,0.4-2.1,0.6-3.1c0.4-2,1-5,1.8-8.7c0.2-0.9,0.4-1.8,0.6-2.7c0.8-3.7,1.5-7.4,2.2-11.1c0.6-3.3,1.2-6.7,1.8-9.9
	c0.1-0.4,0.1-0.8,0.2-1.2c0.1,0,0.1-0.1,0.2-0.1c0,0,0,0,0.1,0c0.2-0.1,0.5-0.1,0.8-0.1c2.1,0.4,2.5,5.6,3,9.3
	c0.4,3.5,1.1,7,1.6,10.6c0.6,3.3,1.1,6.7,1.5,10c0.4,3.2,1.1,9.6,1.6,13.6c0,0,2.5,34.8,9.9,50.5c3.3,7.1,8.2,8.8,8.6,8.9
	c1.3,0.3,2.4,0.3,2.6,0.3c3.9-0.1,4.6-2.4,9-3.5c1.7-0.4,4-1,6.4-0.1c0.7,0.2,0.8,0.4,1.2,0.4c2.5,0.1,4.9-4.9,5.9-7.9
	c0-0.4,0.2-1.1,0.3-2c0-0.1,0-0.2,0-0.2l0,0c0-0.1,0-0.2,0-0.2c-0.5,2-1.4,3.9-2.6,5.8c-0.8,1.2-1.6,2.4-2.4,3.7
	c-0.8-0.1-1.8-0.2-2.8-0.3c-0.2,0-0.5,0-0.7,0c-0.4,0-0.8,0-1.2,0c-0.2,0-0.4,0-0.6,0c-0.7,0-1.4,0-2.1,0.1c-0.4,0-0.7,0.1-1.1,0.1
	c-6,0.9-8.3,3.4-12,2.2c-2.4-0.8-3.8-2.6-5.4-4.7c-2.7-3.6-3.6-7.1-4-8.8c-2.6-10.6-3.9-15.9-4.1-18.7c-0.9-10.4-4.8-35.6-10.8-72.2
	c5.7-10.5,9.9-18.4,15.5-29.7c0,0,0-0.2,0-0.4c0.2-1.7,0.9-3,1.5-3.9c2,6.7,4,13.7,5.7,21.1c0.9,3.8,1.8,7.5,2.5,11.1
	c0.6,2.7,1.4,6.8,2.4,11.9c4.1,20.7,3.6,20.3,5.1,26.4c2.6,10.6,4.3,17.1,6.9,23c0.8,1.9,1.8,3.8,2.8,5.7c0.7,1.2,3.6,7.1,6.5,14.8
	c0.5,1.3,1,2.6,1.2,3.9c0,0.1,0.1,0.3,0.1,0.4c0.1,0.4,0.1,0.8,0.2,1.1C161.6,157.5,161.6,157.3,161.6,157.1z M79.5,73.5
	c0.6,0,1.2,0,1.8,0.1c0.6,0,1.2,0,1.8,0.1h0.1c0.9,0,1.8,0.1,2.7,0.1c0.8,0,1.6,0.1,2.3,0.2c0.6,0,1.2,0.1,1.8,0.1
	c0.4,0,0.9,0.1,1.4,0.1c0.9,0.1,1.8,0.2,2.8,0.3c0.9,0.1,1.8,0.2,2.8,0.3v4.7c-15-1.3-29.8-1.3-44.8,0v-4.9
	c3.8-0.4,7.6-0.7,11.4-0.9c1-0.1,1.9-0.1,2.8-0.1c1.4-0.1,2.8-0.1,4.3-0.1C70.7,73.5,79.5,73.5,79.5,73.5z M75.6,51.8
	c0,0.2,0.1,0.3,0.1,0.4c0.1,0.4,0.2,0.8,0.3,1c0.1,0.6,0.1,0.6,0.3,1.5c0.1,0.4,0.1,0.6,0.2,1c0,0.3,0.1,0.5,0.1,0.7
	c0.1,0.5,0.1,0.7,0.2,1.4c0,0.2,0,0.4,0,0.4c-0.1-0.2-0.2-0.5-0.3-0.7l-1.4-2.6c-0.2-0.3-0.4-0.7-0.6-1s-0.4-0.7-0.6-1
	c-0.2-0.4-0.5-0.8-0.8-1.3c-0.2-0.3-0.3-0.6-0.5-0.8c-0.3-0.5-0.6-1-0.9-1.4c-0.2-0.3-0.3-0.5-0.5-0.8c-0.8-1.2-1.6-2.4-2.5-3.6
	c-0.2-0.3-0.5-0.7-0.7-1s-0.5-0.6-0.7-1s-0.5-0.6-0.7-1c-0.8-1-1.6-2.1-2.5-3.1c-0.2-0.3-0.5-0.6-0.7-0.8s-0.4-0.5-0.6-0.7
	c0,0-0.1-0.1-0.1-0.2c-0.4-0.5-0.8-0.9-1.2-1.3c-0.2-0.2-0.3-0.4-0.5-0.6s-0.4-0.4-0.5-0.6c-0.4-0.4-0.7-0.8-1.1-1.2
	c-0.8-0.9-1.7-1.8-2.5-2.7c-0.1-0.1-0.2-0.2-0.3-0.3c-1.3-1.4-2.6-2.7-3.9-4.1l-1.9-1.9c-0.9-0.9-1.7-1.7-2.6-2.5
	c-0.7-0.7-1.4-1.4-2.2-2.1c-1-1-2-1.9-3-2.9c-0.7-0.6-1.3-1.2-2-1.9c-1.3-1.2-2.6-2.5-3.9-3.7c-0.7-0.7-1.5-1.4-2.2-2.1
	c0.6-0.8,1.2-1.8,2.1-2.9c0.8,0.7,1.6,1.4,2.4,2.1l2.4,2.1c0.4,0.4,0.8,0.7,1.2,1.1c0.5,0.5,1.1,0.9,1.6,1.4l0.4,0.4
	c0.5,0.5,1,1,1.6,1.4C51.4,19.4,56,24,60.4,29c0,0,6.9,7.8,11.9,15.6c0.5,0.8,0.9,1.5,0.9,1.5c0.4,0.8,0.8,1.5,1,2
	c0.3,0.7,0.5,1.1,0.6,1.3c0.1,0.3,0.3,0.7,0.5,1.2S75.6,51.6,75.6,51.8z M66.8,30.2c0.3,0.7,0.6,1.4,0.8,2.1
	c1.1,2.8,2.2,5.5,3.3,8.2c-0.8-0.9-1.6-1.8-2.3-2.7c-1.6-1.8-3.1-3.7-4.8-5.5c-0.8-0.9-1.6-1.9-2.4-2.8c-3.2-3.8-6.5-7.5-9.7-11.3
	c0.4-0.9,0.9-1.9,1.4-2.8c1.4-2.8,2.9-5.6,4.3-8.4c2.5,6.4,5.1,12.8,7.7,19C65.7,27.4,66.2,28.8,66.8,30.2z M79.6,39.6
	c3.4-8.8,7.2-18.5,11-28.2c0,0,0,0,0-0.1c0.1-0.3,0.2-0.5,0.3-0.8l0,0c0.4-1.1,0.8-2.1,1.3-3.2c1.8,3.5,3.8,7.3,5.7,11.1
	C91.7,25.6,85.2,33.1,79.6,39.6z M102.5,0.8c0.1,0.1,0.2,0.1,0.3,0.2c0.1,0.1,0.2,0.1,0.3,0.2c1.9,1,3.8,2,5.6,3
	c1.1,0.6,2.1,1.1,3.2,1.7c-4.2,3.8-8.5,7.7-13,11.8c-0.1-0.1-0.2-0.3-0.3-0.4c-0.5-0.5-0.9-1-1-1.1c0,0-0.6-0.6-2.5-4.2
	c-0.7-1.5-1.2-2.6-1.6-3.5C93.2,7.7,93,7.2,93,7.1c0.2-0.5,0.6-1.3,4.2-3.5c0.8-0.5,1.6-0.9,2.4-1.3c0.6-0.3,1.2-0.6,1.6-0.8
	C101.8,1.2,102.2,1,102.5,0.8z M48.2,0.7c0.1,0,0.2,0.1,0.4,0.1c0.5,0.2,1.2,0.4,1.8,0.7c0,0,0,0,0.1,0c2.7,1.2,5.7,2.9,5.8,5.3
	c0,0.9-0.4,1.6-2,4.4s-3,5.1-3.7,6.4c-4.7-4.2-6.9-6.3-8.1-7.4C41.6,9.5,40.8,8.7,40,8s-1.6-1.5-2.4-2.2c2-1.3,4.2-2.4,6.7-3.5
	c0.6-0.3,1.2-0.5,1.8-0.8c0,0,0,0,0.1,0C46.6,1.3,47,1.2,47.4,1C47.6,0.9,47.9,0.8,48.2,0.7z M21.2,41.4c0-0.1,0-0.1,0-0.2
	c0-0.1,0-0.2,0-0.2c0-0.1,0-0.3,0.1-0.4c0.5-1.4,1.1-2.9,1.6-4.3c0.5-1.4,1.1-2.9,1.7-4.3c0.8-1.9,1.5-3.8,2.2-5.7
	c0.3-0.7,0.6-1.4,0.9-2.1l0.9-2.1c0.3-0.7,0.6-1.4,0.9-2.1s0.6-1.4,0.9-2.1c1.1-2.5,2.6-4.9,5.4-6.4c3.8,3.6,7.7,7.1,11.4,10.8
	c8.4,8.4,16.7,16.8,23.2,26.8c1.2,1.8,1.9,3.7,1.8,5.9c-0.1,5.8-0.1,11.7-0.1,17.8c-6,0.1-12.6,0.5-19.7,1.3
	c-5.5,0.4-10.6,1.3-15.3,2.2c-1.5-5.9-2.8-13.1-3.3-21.4c-0.5-8.5-0.1-16,0.7-22.2h-0.4c-1.1,10.3-1.2,22.4,1,35.6
	c0.5,2.8,1,5.5,1.6,8.1l-2.1-4c-4.8-9.4-9.2-19.1-13-29.1c-0.1-0.2-0.1-0.3-0.2-0.5c0-0.1,0-0.2-0.1-0.2c0-0.1-0.1-0.2-0.1-0.3
	L21.2,41.4L21.2,41.4z M17.3,130.4c0,0.3-0.1,0.5-0.1,0.8c-0.1,0.5-0.3,1.5-0.8,3.2c0,0.2-0.1,0.4-0.1,0.6v0.1c-0.8,3.1-2.1,8-4,15
	c-0.8,3.2-1.4,5.3-2.4,8.2c-3.4,9.1-6.3,12.6-7.8,14.2c-2.4,2.5-4.4,3.5-6,4c-1.7,0.6-3.3,0.6-4.3,0.6c-3-2.8-6.5-4.5-10.5-5.1
	c-0.9-0.2-1.8-0.2-2.8-0.3c-0.9,0-1.8,0-2.7,0c-0.7-1.4-1.3-2.7-1.9-4c-3-6.3-2.6-12.5,0.6-18.5c2.5-4.7,5.4-9.3,8.4-13.8
	c1.7-2.6,10.1-12.6,15.4-22.7c1.8-3.3,4.8-12.8,10.9-31.4c0.3-0.8,4.3-13.1,4.6-14c0.7-3.1,1.5-6.2,2.3-9.3c0.1-0.5,0.3-1.1,0.4-1.6
	c1.1-4.3,2.4-8.5,3.6-12.8c2.3,7.9,5.1,13.8,7.3,17.8c1.8,3.2,3.9,6.5,6.8,12.2c-10.3,29.9-14.7,46.4-16.7,56.1
	C17.4,129.9,17.4,130.1,17.3,130.4z M102.6,100.3c-1,5.2-2,9.5-2.8,12.6c-1.5,5.5-2.4,7.9-4,8.1c-1.5,0.2-2.1-2-4.7-2.7
	s-4.4,0.8-7,1.2c-9.4,1.6-18.8-0.7-21.2-1.4c-1.7-0.5-3.4-0.8-5.1-0.8c-5.3-0.1-9.6,2.5-9.6,2.5c-0.9,0.9-3.5,3.3-7.1,3.3
	c-0.9,0-3.1,0-4.2-1.5c-1.1-1.5-0.3-3.7-0.2-4.3c0.4-2.6,0.7-5.3,1.2-7.9c0.3-1.4,0.4-4.2,0.7-9.9c0.5-8.9,0.1-9.6,0.5-13.2
	c0.1-0.6,0.1-1.6,0.1-3c0-2-0.2-3.6-0.8-4.6c-0.1-0.2-0.6-1-0.4-1.7c0.5-1.2,3.2-1,7-1.4c1.5-0.2,3.6-0.5,6.1-1.2v5.9
	c7.6-0.8,15.2-1.1,22.7-1.1h4.3c1,0,1.9,0.1,2.9,0.1s2,0.1,2.9,0.1c3,0.1,5.9,0.3,8.9,0.6c1,0.1,2,0.2,3,0.3c0.5,0.1,1,0.1,1.5,0.1
	v-5.8c1.7,0.3,3.4,0.6,5.1,0.8c0.5,0.1,1.1,0.2,1.6,0.3c0.9,0.2,1.1,0.3,1.6,0.3c0.4,0,1,0,1.6-0.2C105.8,84,104.2,92.2,102.6,100.3
	z"/>
<path class="st3" d="M76.4,60c0,0.1,0.1,0.2,0.1,0.3c0,0.2,0.1,0.3,0.1,0.4c0.1,0.2,0.1,0.5,0.2,0.7s0.1,0.5,0.1,0.7
	c0.1,0.2,0.1,0.5,0.1,0.7s0.1,0.4,0.1,0.7c0,0.2,0,0.3,0,0.5c0,0.3,0.1,0.6,0.1,0.8s0,0.4,0,0.6c0,0.1,0,0.2,0,0.3
	c0,0.1,0,0.3,0,0.4c0,0.8,0,1.6,0,2.4c-0.1,1.1-0.1,2.2-0.2,3.3h-4.4V53.1c0.1,0.1,0.2,0.2,0.3,0.4c0.2,0.2,0.3,0.4,0.5,0.6
	c0.6,0.7,1.1,1.4,1.5,2.2c0.1,0.1,0.2,0.5,0.6,1.3c0,0,0.2,0.3,0.3,0.7c0,0.1,0.1,0.2,0.2,0.4c0,0.1,0.1,0.2,0.1,0.2
	c0.1,0.2,0.1,0.3,0.1,0.5C76.3,59.6,76.3,59.7,76.4,60z"/>
<linearGradient id="SVGID_00000113337091220817216590000013833703029769382318_" gradientUnits="userSpaceOnUse" x1="33.3267" y1="137.5776" x2="36.4924" y2="137.5776" gradientTransform="matrix(1 0 0 -1 0 191.5276)">
	<stop  offset="0.31" style="stop-color:#7F4B4B"/>
	<stop  offset="1" style="stop-color:#FFFFFF;stop-opacity:0.2"/>
</linearGradient>
<path style="fill:url(#SVGID_00000113337091220817216590000013833703029769382318_);" d="M36.5,75.8C35,68.4,34.3,62,33.9,57
	c-0.4-4.4-0.8-9.4-0.4-16.1c0.2-3.6,0.5-6.6,0.8-8.8C35,46.7,35.8,61.3,36.5,75.8z"/>
<path d="M2,144.6c0.2-6.4,6.2-30.2,10.7-42.4C9.7,114,5.6,130.6,2,144.6z"/>
<linearGradient id="SVGID_00000130613741617938464300000003078862697496489119_" gradientUnits="userSpaceOnUse" x1="1.8987" y1="-402.9631" x2="14.5987" y2="-372.2832" gradientTransform="matrix(1 0 0 -1 0 -264.4724)">
	<stop  offset="0.31" style="stop-color:#7D7BA1"/>
	<stop  offset="1" style="stop-color:#FFFFFF;stop-opacity:0.2"/>
</linearGradient>
<path style="opacity:0.1;fill:url(#SVGID_00000130613741617938464300000003078862697496489119_);enable-background:new    ;" d="
	M2,144.6l10.7-42.4C12.7,102.2,6,149.4,2,144.6z"/>
<g class="st10">
	
		<image style="overflow:visible;enable-background:new    ;" width="126" height="161" xlink:href="5FADC876.png"  transform="matrix(0.9762 0 0 0.9762 -26.169 -30.9865)">
	</image>
</g>
<image style="overflow:visible;enable-background:new    ;" width="88" height="95" xlink:href="5FADC871.png"  transform="matrix(0.9886 0 0 0.9886 17.7924 -21.2333)">
</image>
<image style="overflow:visible;enable-background:new    ;" width="86" height="91" xlink:href="5FADC873.png"  transform="matrix(0.9884 0 0 0.9884 44.8781 -18.244)">
</image>
</svg>
