<?xml version="1.0" encoding="UTF-8"?>
<svg id="_Слой_1" data-name="Слой 1" xmlns="http://www.w3.org/2000/svg" viewBox="0 0 145.93 190.08">
  <defs>
    <style>
      .cls-1 {
        fill: rgba(145, 145, 201, .5);
      }

      .cls-1, .cls-2, .cls-3, .cls-4, .cls-5, .cls-6, .cls-7 {
        stroke-width: 0px;
      }

      .cls-2 {
        fill: #000;
      }

      .cls-3 {
        fill: rgba(145, 145, 201, .3);
      }

      .cls-4 {
        fill: #dadaf8;
      }

      .cls-5 {
        fill: #a0a0c7;
      }

      .cls-6 {
        fill: #9a9ac3;
      }

      .cls-7 {
        fill: rgba(145, 145, 201, .4);
      }
    </style>
  </defs>
  <path class="cls-2" d="M9.6,64.31c-.19.6-.37,1.25-.54,1.94-.69,2.71-.97,4.78-1.15,6.05-.53,3.8-1.17,7.58-1.72,11.37-.34,2.34-.71,4.89-1.2,7.61,0,0,1.44-5.58,2.06-9.43.83-5.19,1.37-8.96,2.57-15.29.17-.89.33-1.72.48-2.47,0-.1.03-.19.05-.28,0-.05.02-.1.03-.15.22-1.09.41-2.01.55-2.71-.3.78-.67,1.82-1.04,3.05-.03.1-.06.2-.09.31Z"/>
  <path class="cls-2" d="M139.72,93.45l.3,2.37c-.15-.57-.31-1.23-.48-2-.34-1.54-.71-3.53-1.14-6.23-.18-1.09-.06-.39-.91-6.24-.54-3.77-.99-7.55-1.54-11.32-.28-1.96-.53-3.63-.49-4.24v-.02c0-.14.02-.22.07-.23.12-.03.34.47.55,1.04.07.16.12.32.18.47,1.22,9.51,2.26,17.04,2.87,22.09.05.38.12.82.21,1.33.15.74.33,1.6.57,2.59l-.02.03-.17.36Z"/>
  <path class="cls-2" d="M31.96,135.71c-.62-2.14-1.23-4.3-1.85-6.45v-.02c.1-.09.2-.18.3-.27.62,2.16,1.23,4.3,1.85,6.45-.1.11-.2.2-.3.29Z"/>
  <path class="cls-2" d="M107.07,144.03c1.79-1.75,3.3-3.22,5.05-4.94-1.32,3.03-2.77,4.76-5.05,4.94Z"/>
  <path class="cls-2" d="M113.73,136.29c-.11-.11-.22-.23-.32-.36.7-2.41,1.4-4.85,2.1-7.26.11.11.22.22.33.32-.7,2.43-1.4,4.86-2.11,7.29h0Z"/>
  <path class="cls-4" d="M139.72,93.45l.17-.36c-.2-.86-.37-1.64-.51-2.32v-.03c-.13-.62-.22-1.15-.27-1.6-.61-5.05-1.65-12.58-2.87-22.09-.06-.15-.11-.31-.18-.47h.05l.19-.06h.03c-1.5-6.24-2.52-11.32-3.16-14.72-1.43-7.58-2.36-14.18-4.8-21.51-1.01-3.05-1.79-4.74-2.97-7.29-1.86-4.03-2.91-5.48-3.74-6.49-.75-.9-1.82-2.17-3.57-3.4-2.05-1.43-4.19-2.09-8.46-3.4-.57-.18-1.44-.43-2.57-.66-1.07-.21-1.97-.32-2.62-.38-.59.19-1.41.35-2.15-.02-.42-.21-.58-.47-1-.86-.75-.69-1.37-.91-2.2-1.33-1.32-.66-2.49-1.48-3.2-2.1-1.94-1.68-2.2-3.01-3.88-3.5-.64-.19-1.22-.17-1.6-.13-.16.51-.31,1.02-.47,1.54-1.92,3.08-3.04,5.64-3.71,7.47-.47,1.29-.86,2.4-1.88,3.72-1.32,1.71-2.81,2.56-3.52,2.99-.49.3-1.04.64-1.63,1.06h-.01c-.4.27-.82.56-1.26.9-.67.49-1.4,1.06-2.18,1.7q-.35.29-.01,0c-.14.12-.28.24-.43.36-.44.36-.88.75-1.35,1.18-.21.19-.43.38-.65.57-.21.19-.43.39-.65.6-.72-.92-1.32-1.7-1.77-2.28-1.63-2.09-2.44-3.14-2.54-3.25-.68-.8-1.07-1.17-1.53-1.94-.19-.32-.34-.61-.68-1.07-.38-.51-.57-.67-.92-1.11-.42-.53-.58-.85-.91-1.41-.27-.45-.7-1.04-1.54-2.21-1.96-2.72-2.14-2.86-2.89-4.04-.35-.54-.78-1.26-1.18-2.26-.35-.89-.53-1.67-.64-2.23.16-.39.16-.76-.02-.91,0,0-.06-.04-.1-.05-.15-.05-.33,0-.49.07-.07.03-.13.06-.19.08-.06.03-.11.05-.15.08h-.02s-.04.02-.06.03h-.02v.02s-.06.03-.08.04h-.02s-.02,0-.03.02c-.03.03-.07.05-.11.08-.02.02-.04.04-.07.06-.02.02-.04.04-.06.05-.04.04-.08.09-.12.13-.03.02-.05.05-.08.08,0,.02-.03.06-.05.06-.02.03-.04.05-.06.08v.02c-.07.09-.13.18-.19.27-.03.06-.07.11-.1.17-.21.41-2.46,4.16-3.8,5.71-.77.89-2.58,2.6-6.5,3.51-.21.14-.42.28-.64.44-.22.16-.43.33-.63.49-1.28.61-3.28,1.48-5.86,2.25-.85.26-1.43.4-1.61.45-4.34,1.17-9.28,9.6-13.33,16.33-.56.94-5.47,9.08-7.44,11.88-.96,1.36-1.65,2.92-2.8,4.12-.09.09-.38.39-.57.88-.16.43-.16.79-.16.89,0,1-.72,4.63-2.14,11.87-.17.85-.35,2.27-.92,4.06-.19.6-.37,1.25-.54,1.94-.69,2.71-.97,4.78-1.15,6.05-.52,3.64-1.17,8.26-1.72,11.37-.29,1.65-.76,4.06-1.46,6.98-1.54,4.15-2.7,7.32-3.37,9.14-1.7,4.64-2.21,6.06-3.42,8.12-1.33,2.26-1.51,1.84-4.41,5.77-2.15,2.9-4.33,5.89-6.23,10-.92,1.98-1.68,4.03-1.94,4.74-.68,1.84-1.12,3.03-1.52,4.59-.62,2.46-.51,3.42-.97,6.6-.25,1.76-.55,3.18-1.16,6.02-1.86,8.74-2.82,10.04-4.25,17.3-.49,2.46-.59,3.39-1.15,5.39-.85,3.03-1.42,3.75-1.67,6.09-.13,1.22-.06,1.79-.41,2.89-.33,1.03-.74,1.63-.91,2.89-.1.74-.36.52-.26.88.59,2.16,1.74-1.06,7,2,1.79,1.04,7.7,4.55,8.96,3.97.51-.24.76-.69,1.24-1.66,1.3-2.59,1.95-3.88,2.16-4.51.47-1.42,2.49-5.16,6.54-12.65.66-1.22,2.12-3.9,3.11-5.87.32-.63.66-1.33,1.24-2.44.32-.61.52-.98.84-1.61.42-.85.71-1.5.84-1.78,2.14-4.8,4.6-9.84,8.26-18.71,2.05-4.99,3.79-7.6,4.31-9.24,1.13-3.55.55-1.54,2.5-7.38.49-1.47,2.3-5.98,3.5-8.12,1.15-2.02,1.67-5.64,2.55-6.64-.27.67-.68,1.69-1.17,2.93-2.19,5.57-3.28,8.36-3.42,9.94-.18,2.1.19,3.03.25,7.57.01,1.21,0,2.1-.18,3.19-.09.57-.2.98-.3,1.8-.11.86-.14,1.54-.16,2.16-.08,2.55-.17,5.12.2,8.65.1,1,.21,1.72.24,1.94.11.76.43,2.96,1.09,5.34.97,3.48,1.58,3.44,2.34,6.62.49,2.04.2,1.87.7,3.71.56,2.06,1.29,4.59,3.36,6.06.4.29,1.3.9,2.51.94.61.02,1.02-.12,1.63-.28,1.23-.32,2.13-.43,3.6-.6,2.55-.3,2.63.18,4.81-.18,1.55-.25,1.88-.56,2.38-.3,1.16.6.87,3.01.81,5.1-.03,1.1-.25,11.53,4.08,13.77.48.25,1.36.57,2.77.39,1.73-.87,3.25-1.59,4.48-2.15,2.04-.93,2.92-1.26,3.64-.88.71.38.69,1.18,1.12,2.16,1.17,2.65,4.32,4.92,6.51,4.46,2.03-.43,2.84-3.12,3.71-2.8.66.25.21,1.82.9,2.37.79.62,2.94-.19,7.89-4.28,1.08-.29,2.76-.63,4.82-.6,1.68.03,1.9.28,2.57.17,2.28-.38,3.65-3.98,5.57-10.97,1.9-6.9,2.91-11.89,3.86-11.83.7.05.33,2.81,2.32,4.28,1.05.77,1.84.52,5.28.83,4.32.39,4.49.92,5.63.61.77-.21,2.66-1.01,5.03-8.07,2.15-6.4,2.6-11.72,2.9-15.46.3-3.88.25-6.98.05-9.62-.09-1.26-.21-2.31-.31-3.08,0-.05.02-.11.04-.16.1-.28.24-.73.31-1.3.18-1.47-.26-2.25-.32-3.72-.04-1,.14-1.64.27-2.34.72-3.89.36-10.56.26-10.56-.06,0-.14,2.21-.26,10.56,0,.81.04,2.01.26,3.44.63,4.15,2.26,7,3.04,8.5.69,1.34.26.71,3.9,12.07,3.42,10.67,5.18,16.1,7.33,20.95.52,1.17,1.23,2.71,2.23,5.16,1.98,4.81,2.96,7.22,3.67,10.01,1.18,4.66.65,5.91,1.87,6.6,1.32.74,4.1-.47,9.66-2.91,1.32-.58,1.93-.89,3.38-1.45,2.33-.9,2.79-.88,3.28-1.34,1.81-1.72,0-6.39-.34-7.24-.18-.47-1.91-13.02-5.36-38.11-.74-5.36-1.78-10.69-2.27-16.08-.19-2.03-.39-5.13-1.45-9.11,0-.05-.64-2.11-1.89-6.22-.69-2.27-1.11-3.62-1.93-5.37-.61-1.29-1.21-2.3-1.64-2.99-.71-1.63-1.42-3.27-2.13-4.9.17.77.33,1.43.48,2-.04-.38-.09-.78-.15-1.18-.06-.4-.12-.79-.18-1.17v.02Z"/>
  <path class="cls-2" d="M87.61,81.95h-.28v48.7h.28v-48.7Z"/>
  <path class="cls-7" d="M30.28,166.63c.41.13.9.23,1.46.26,1.79.1,3.16-.63,3.81-1.03-5.49-30.06-10.97-60.12-16.46-90.17.23,3.49,2.06,31.66,2.46,43.58.08,2.31.13,3.91.11,6.18-.06,7.49-.77,9.86-.56,14.66.1,2.34.45,5.72,1.59,9.81.66,1.83,1.31,3.66,1.97,5.49.47,1.84.94,3.69,1.41,5.53.17.53.39,1.11.69,1.71.59,1.22,1.27,2.19,1.89,2.91.54.36,1.09.71,1.63,1.07Z"/>
  <path class="cls-2" d="M106.39,159.59s0-.02-.02-.04c0,0,.02,0,.02.02v.02Z"/>
  <path class="cls-2" d="M71.1,189.49c-2.32,2.35-9.94-3.34-13.35-6.08-2.16.63-4.1,1.16-6.06,1.75-4.33,1.28-6.27-1.6-6.99-10.51-.17-2.11-.4-4.19-.51-6.3-.1-1.59-.46-2.31-1.25-2.22-2.62.28-5.26.26-7.87.87-2.32.53-4.6,1.31-6.89-.96-.58-.91-1.37-2.24-2.16-3.88-.75-1.6-1.12-3.64-3.08-10.07-1.56-5.13-2.42-10.46-1.9-16.65.16-1.85.32-3.75.43-5.65.02-.38.05-.76.06-1.14.1-1.9.13-3.78.02-5.62-.58-9.92-1.82-19.61-1.89-29.74-.06-8.1-.33-16.16-.57-24.25h.13c.17,5.55.31,11.06.51,16.58.32,8.52.71,17.02,1.26,25.46.37,5.73.93,11.38.79,17.15,0,.3-.02.6-.03.89-.05,1.4-.15,2.82-.31,4.24-.85,7.62.25,14.44,2.65,20.49.71,1.81,1.35,3.79,1.81,5.88,1.27,5.79,5.03,8.88,8,6.19-1.84-.91-3.41-2.51-4.69-5.96,2.85,2.55,5.08,7.54,8.51,5.29-4.14-14.74-5.75-30.75-7.03-46.98.87,6.3,1.59,12.67,2.46,18.97,1.25,9.14,2.72,18.14,5.25,26.21.23.72.61,1.75.91,1.78,1.34.09,2.69-.17,4.12-.28-2.2-28.23-4.53-55.9-4.56-84.08.45,6.5.67,13.07,1.11,19.6,1.7,25.2,3.43,50.38,5.21,75.56.4,5.64,2.47,9.34,4.79,8.82,2.07-.44,4.12-1.45,6.19-1.83,1.49-.27,2.29-2.08,3.1-4.27,2.82-7.67,6.08-14.5,9.92-20.08-.18.45-.45,1.11-.75,1.9-5.68,14.21-8.68,17.08-8.01,20.73.42,2.35,2.48,5.6,10.68,8.2h0Z"/>
  <path class="cls-7" d="M83.25,38.87c-2.31-3.28-4.63-6.56-6.94-9.83l6.5,14,12-22c-3.85,5.94-7.7,11.89-11.56,17.83Z"/>
  <path class="cls-2" d="M120.27,69.43c-.07,5.36-.22,11.84-.5,19.79-.41,11.79-.83,19.98-.83,19.98-.6,11.73-1.23,19.13-.58,26.34.24,2.69.23,5.27,0,7.74-.04.47-.09.93-.15,1.38-.27,2.3-.72,4.54-1.3,6.7-.84,3.12-1.67,6.26-2.5,9.42-.05.18-.1.35-.15.56v.07c-.28,1.14-.53,2.33-.91,3.25-.28.66-.22.92-.36,1.2-.59,1.18-1.81,1.48-2.62,1.6-2.43.35-4.16-.66-6.08-.93-1.88-.25-3.78-.04-5.94-.04-.4-.48-.86-1.09-1.3-1.84-.45-.76-.78-1.48-1.03-2.11-.16.44-.3.91-.44,1.42-.27,1.02-.42,1.95-.51,2.78-.15.13-.3.27-.45.41-.12.56-.24,1.13-.35,1.68-.19,1.54-.56,3.74-1.35,6.22-.97,3.07-2.18,6.88-4.77,8.88-2.56,1.97-4.51-.93-8.47,1.33-2.65,1.51-5.32,2.72-7.85,4-.27-1.28-.48-2.3-.69-3.3.23,2.03-.09,3.03-.52,3.53,0-7.12.31-11.84.62-14.88.28-2.87.53-5.76.83-8.63.17-1.62.29-2.72.38-4.28.14-2.7.09-4.93.02-6.42-.08-.23-.16-.47-.24-.72-.94,1.27-1.88,2.52-2.81,3.78.84-1.63,1.73-3.17,2.5-4.96.34-.78.64-2.15.6-3.17-.27-6.54-.67-13.03-.98-19.54-.68-14.38-2.17-28.6-1.45-43.26.29-5.97.36-11.97.54-17.99h.41c-.33,6.46-.64,12.95-.75,19.44-.27,16.46,1.11,32.59,2.16,48.76.76,11.73.69,23.4.15,35.12-.23,5.02-.36,10.07-.56,15.59,2.18-1.11,4.16-2.39,6.19-3.12,1.15-.4,1.38-1.8,1.45-4.01.14-4.34.41-8.65.47-12.98.12-7.92.42-15.94.1-23.83-.49-12.17-1.63-24.21-2.12-36.4-.37-9.07-.31-18.27-.17-27.41.06-3.74.22-7.47.4-11.17h.56c-.26,6.43-.75,12.83-.82,19.26-.08,6.85.28,13.74.56,20.63.31,7.62.78,15.19,1.14,22.82.37,7.51.92,15.01.97,22.54.06,7.74-.38,15.48-.62,23.22-.05,1.98-.14,3.96-.22,6.17.44-.19.7-.28.97-.4,1.87-.76,3.7-2.25,5.63-.96,1.61,1.07,2.86-.32,3.82-3.33,1.26-3.92,2.64-7.65,3.71-11.82,1.82-7.09,3.61-14.25,4.13-22.73.71-11.54,1.68-22.98,2.34-34.55.77-13.59,1.39-27.22,2.06-40.86h.54c-.32,11.26-.37,18.53-1.15,31.98-.96,16.46-.11,19.14-1.53,35.62-.42,4.83-.85,8.75-1.15,11.31-.42,7.43-.68,12.94-.72,14.68,0,.53-.02,1.66.49,2.11.18.16.4.21.66.18.68-.05,1.37-.23,2.02.06,1.18.58,1.93-.58,2.38-2.89,1.17-6.06,2.5-12.02,3.38-18.33,1.23-8.85,2.11-17.99,3.14-26.98-.98,16.82-2.55,33.26-6.3,48.78,2.02.23,3.83.72,5.63.61,1.67-.12,3.03-1.93,3.87-5.54.55-2.36,1.03-4.85,1.75-6.91,1.2-3.47,1.98-7.12,2.31-11.08.05-.45.09-.91.11-1.37.17-2.6.15-5.34-.06-8.24-.68-9.51.1-16.77.07-17.57-.36-9.31-.2-23.84,2.24-46.41v.02Z"/>
  <path class="cls-4" d="M21.99,25.37l-.05.05s0-.03.02-.03c0-.01.02-.01.03-.02Z"/>
  <path class="cls-4" d="M58.04.13c-.37,0-.67.07-.93.18.22-.12.69-.38.93-.18Z"/>
  <path class="cls-4" d="M88.49.43c-.33-.22-.74-.3-1.21-.3.09-.07.2-.09.31-.09.06,0,.13,0,.2.04.14.02.28.09.41.16.07.04.14.08.19.12.04.02.07.05.1.07Z"/>
  <path class="cls-4" d="M88.58.5h.01s-.04-.02-.06-.04c.02,0,.03.02.05.03h0Z"/>
  <path class="cls-2" d="M24.99,65.47c0,.33,0,.67.01,1,.05.98.11,1.97.17,2.95h.1c-.07-1.32-.17-2.63-.28-3.95ZM103.09,65.84c-.08.45-.17.9-.22,1.36-.09.74-.17,1.48-.25,2.22h.54c.05-.69.1-1.41.16-2.18.04-.46,0-.93-.23-1.4ZM121.34,50.81c-.19.29-.38.57-.67,1-.22-6.17-.44-12.14-.65-18.11h-.42v2.78c.05,4.97.09,9.93.15,14.9.06,5.03.24,10.06.2,15.08,0,.99-.02,1.97-.04,2.96h.39c.13-3.9.07-6.4.13-8.28.07-2.18.07-4.37-.09-6.54-.15-1.89,1.11-3.07,1.88-4.5.41-.78.85-1.53,1.29-2.29.14-.25.29-.5.44-.76.14-.24.29-.48.43-.73.14-.24.28-.48.43-.72-1.16,1.74-2.31,3.47-3.47,5.21ZM24.99,65.47c0,.33,0,.67.01,1,.05.98.11,1.97.17,2.95h.1c-.07-1.32-.17-2.63-.28-3.95ZM133.21,51.79h-.02c-1.57-10.22-3.33-18-4.55-21.71-.84-2.56-1.81-4.76-1.81-4.76-1.06-2.39-2.09-4.2-2.67-5.18-1.94-3.25-2.91-4.88-4.54-6.28-2.23-1.93-4.53-2.68-7.7-3.71-2.39-.78-4.45-1.19-5.91-1.41l-2.31-.34c-1.87-.82-3.45-1.69-4.73-2.47-2.24-1.37-3.36-2.06-4.07-2.86-1.04-1.18-1.68-2.49-3.19-2.83-.45-.1-.84-.09-1.1-.06-.11.06-.22.13-.32.21-.65.53-.83,1.31-.88,1.67-1.49,3.29-2.51,5.89-3.18,7.71-.53,1.44-.89,2.52-1.88,3.72-1.07,1.28-2.5,2.38-3.52,2.99-.5.3-1.04.65-1.65,1.06h-.01c-.39.27-.82.57-1.26.9-.67.49-1.4,1.06-2.18,1.7q-.23.19,0,0c-.14.12-.28.24-.43.36-.43.38-.89.77-1.35,1.18-.21.19-.43.38-.65.57-.21.21-.42.41-.64.61-.8-1.07-1.61-2.13-2.41-3.2-3.32-4.03-6.68-8.74-9.8-14.2-.85-1.5-1.64-2.97-2.38-4.42l-.02-.91h-.03s-.06-.05-.1-.05c-.15-.05-.33,0-.49.07-.07.03-.13.06-.19.08-.05.03-.09.06-.13.08h-.02s-.04.02-.06.03c-.03,0-.06.03-.08.04h-.02s-.02,0-.03.02c-.03.03-.07.05-.11.08-.02.02-.04.04-.07.06-.02.02-.04.04-.06.05-.04.04-.08.09-.12.13-.03.02-.05.05-.08.08,0,.02-.03.05-.05.06-.02.03-.04.05-.06.08v.02c-.07.09-.13.18-.19.27-.02.04-.06.1-.1.17-1.93,3.26-3.55,5.99-6.08,7.63-.84.54-2.27,1.28-4.42,1.56-2.25,1.04-4.12,1.76-5.38,2.22-2.39.87-3.31,1.05-4.77,2.02-1.46.97-2.53,2.11-3.03,2.69-.74.84-.81,1.11-1.14,1.57-.14.19-.25.32-.26.34-2.89,3.51-6.54,9.81-6.54,9.81-2.48,4.35-2.26,3.02-7.54,11.4-2.44,3.87-3.66,5.8-4.02,6.82-1.57,4.43-1.6,9.54-2.3,12.76-.09.43-.66,2.83-.85,3.76-.02.1-.04.2-.07.3-.17.65-.35,1.3-.54,1.94l.46-.04c.2-.7.38-1.41.56-2.11.02-.1.05-.19.07-.29,0-.05.02-.1.03-.15.18-.76.34-1.52.48-2.29.03-.15.05-.26.07-.42.57-3.53,1.31-8.7,1.31-8.7.55-3.83.66-4.61,1.33-5.63.24-.36.58-.8,1.45-2.09.72-1.07,1.28-1.94,1.61-2.46.46-.78,1.17-1.98,2.06-3.43,3.49-5.72,5.98-9.35,9.03-13.77,4.24-6.17,5.1-7.14,5.97-7.94,1.05-.96,2.07-1.63,2.27-1.77,0,0,.67-.44,1.47-.86,2.49-1.31,7.98-3.12,8.27-3.21.33,1.12.88,2.73,1.72,4.6,1.72,3.82,3.64,6.36,5.73,9.06,4.88,6.31,9.53,12,9.57,11.97.09-.07-1.87-2.22-4.83-6.12-1-1.31-2.36-3.27-5.07-7.13-3.74-5.34-5.1-7.35-6.1-10.6-.27-.87-.44-1.61-.54-2.11.71-.04,1.74-.19,2.86-.69,2.15-.95,3.38-2.65,4.56-4.26,1.17-1.61,1.44-2.47,3.01-4.28.5-.58.94-1.03,1.24-1.32.23.95.63,2.3,1.36,3.82,0,0,.15.3.31.6,1.96,3.71,4.77,7.28,4.77,7.28,1.9,2.41,4.5,6,8.07,11.12-1.71,2.6-3.37,5.11-5.02,7.63-.25.38-.41.82-.61,1.23l.02-.02c.6-.79,1.21-1.57,1.82-2.36.1.01.21.02.32.02v6.36c-.02,6.78,1.03,13.45,2.13,20.11.62,3.8.38,7.6-.02,11.4-.07.67-.12,1.34-.17,2.01h.41c.06-.57.13-1.15.2-1.72.71-5.9.16-11.7-.91-17.51-1.19-6.41-1.53-12.92-1.44-19.45,0-.38.06-.78.08-1.08h7.34c0,1.55-.02,3.24,0,4.93.12,6.44.88,12.81,1.98,19.15.64,3.68,1.08,7.38.64,11.12-.18,1.52-.38,3.04-.57,4.56h.56c.04-.44.07-.87.1-1.31.21-3.2.5-6.44.21-9.61-.64-6.91-1.71-13.77-2.42-20.67-.25-2.46-.08-4.95-.05-7.7v-.82c1.31,2.08,2.49,4,3.68,5.85l.1.16c.18.28.35.55.53.82.17.26.36.52.56.77l.04.05c.39.48.78.95,1.18,1.43-2.01-3.25-4.04-6.5-6.07-9.74-.01-.02-.03-.04-.05-.06,0-.01,0-.02-.02-.02-.02-.02-.04-.04-.06-.06-.02-.01-.04-.02-.06-.03-.07-.05-.15-.1-.22-.14,0,0-.01-.02-.02-.03-.03.17-.09.22-.13.23-.12.25-.24.52-.41.56-2.19.46-4.39.61-6.57-.08-.1-.03-.17-.14-.4-.32,1.22-1.79,2.44-3.56,3.81-5.57.85,1.23,1.44,2.15,1.82,2.77.25.4.52.78.76,1.19.52.88.8,1.5.99,1.45.04-.08.09-.16.13-.23-.43-.69-.81-1.28-1.11-1.76-.09-.14-.17-.28-.26-.42-.08-.13-.16-.25-.22-.35-.08-.1-.14-.21-.2-.31,0,0,0-.02-.02-.02,0,0-.01-.01-.01-.02,0,0-.02-.03-.02-.04-.02-.02-.03-.03-.04-.05s-.02-.05-.04-.07c-.01-.03-.03-.05-.05-.08-.03-.04-.05-.08-.08-.12-.02-.04-.05-.08-.07-.11-.03-.05-.06-.1-.09-.14l-.06-.1s-.06-.09-.08-.13c-.03-.04-.05-.07-.07-.1,0,0-.06-.09-.08-.13-.28-.43-.56-.85-.81-1.21,3.38-2.7,6.64-5.42,10.02-7.96.37-.27.54-.47.78-.72,1.54-1.65,2.25-3.88,3.05-5.22,0,0,.31-.52.59-1.04.73-1.35,1.32-3.17,2.12-5.25.17-.45.44-1.13.79-1.97.25-.09.66-.2,1.14-.17,1.87.09,2.21,1.99,4.79,4,1.32,1.02,1.68.88,4.61,2.92.56.39,1.01.72,1.31.94-.6.44-1.5,1.15-2.43,2.17-2.5,2.77-2.9,5.27-4.66,8.93-.7,1.46-1.82,3.53-3.57,5.88l-.03.05c-1.48,2.42-2.98,4.84-4.47,7.25-.78,1.25-1.68,2.41-2.5,3.63-.21.32-.34.69-.5,1.04,1.21-1.61,2.43-3.22,3.62-4.85,0-.02.02-.03.03-.04,0,0,.03-.05.06-.09,1.35-1.95,2.54-3.76,3.55-5.36l.02-.03c3.06-4.84,4.59-7.89,4.59-7.89v-.03s.02-.03.02-.04c.07-.13.19-.33.32-.58.66-1.3.87-2.4.93-2.69.18-.85.76-2.23,2.55-4.53.44.12,2.93.81,3.31.91,7.08,1.95,10.66,2.97,12.54,4.69.98.89,1.59,1.88,2.83,3.86,1.37,2.19,1.64,3.19,3.94,8.91,2.33,5.79,3.24,7.72,3.69,11.26.11.87.16,1.59.19,2.07.52-.77,1.04-1.55,1.57-2.32.55-.82,1.1-1.63,1.66-2.45,1.85,4.94,2.69,9.95,3.54,14.98.71,4.13,1.56,8.22,2.38,12.36v.02c.06.31.12.61.18.92l.4-.12h.05l.22-.07h.04c-1.05-4.91-2.11-9.82-3.16-14.72h.02l-.03.03h0ZM129.12,38.18c-.05.14-.12.27-.12.27-.05.09-.11.19-.18.28-.17.24-.33.48-.49.73-.08.12-.21.34-.47.76-.13.22-.31.52-.53.88-2.79-6.91-5.2-12.88-7.53-18.69-.91-2.26-1.55-3.89-3.22-5.4-2.38-2.15-4.77-2.18-12.3-4.69-1.63-.54-2.95-1.02-3.83-1.34.83-.72,1.67-1.44,2.5-2.16.97.07,2.31.2,3.9.47,1.43.24,3.6.61,6.04,1.5,1.45.53,3.94,1.44,6.21,3.3,1.01.82,2.18,2,4.89,6.81,0,0,6.92,12.31,5.12,17.27h.01Z"/>
  <path class="cls-4" d="M24.91,55.6v6.43c.06,0,.12.02.17.03v-6.46h-.17ZM25.23,33.8c-.22,5.9-.44,11.78-.67,17.96-.5-.64-.78-1.02-1.07-1.39-.03,0-.04.02-.06.05.32.66.64,1.31.95,1.97q.09.19,0,0c.32.66.65,1.32.97,1.99v-20.58h-.13,0Z"/>
  <path class="cls-4" d="M66.57,31.88s-.02.03-.03.04c0,0,.02-.02.03-.04Z"/>
  <path class="cls-4" d="M73.94,24.5c.04.07.09.14.15.23-.05-.08-.1-.15-.15-.23Z"/>
  <path class="cls-4" d="M74.09,24.73c.19.29.46.71.9,1.42-.3-.47-.6-.95-.9-1.42Z"/>
  <path class="cls-4" d="M76.39,28.34l-.02-.02s.02.01.03.02h0Z"/>
  <path class="cls-7" d="M64.8,41.54l4-5v-7.5c-.66.72-1.34,1.52-2.01,2.42-1.48,1.98-2.56,3.9-3.35,5.59.45,1.5.91,2.99,1.36,4.49Z"/>
  <path class="cls-4" d="M98.31,18.05c-.04-.07-.05-.16-.02-.25-.02.09-.02.17.02.25Z"/>
  <path class="cls-4" d="M98.88,16.12c.06.03.13.07.2.12-.07-.03-.14-.08-.2-.12Z"/>
  <path class="cls-4" d="M128.99,38.46c-.05.09-.11.18-.17.28-.34.48-.66.98-.97,1.49.31-.51.63-1.01.96-1.49.07-.09.13-.19.18-.28Z"/>
  <path class="cls-2" d="M25.35,54.4c-.65-1.34-1.29-2.66-1.93-3.97.02-.02.04-.04.07-.05.29.37.57.75,1.07,1.4.23-6.18.45-12.07.67-17.96h.13v20.58h-.01Z"/>
  <path class="cls-2" d="M24.91,62.05v-6.43h.17v6.46c-.06,0-.11-.02-.17-.03Z"/>
  <path class="cls-2" d="M66.57,31.88c-1.04,1.73-2.09,3.45-3.13,5.17.63-1.21,1.24-2.43,1.92-3.61.07-.13.16-.25.24-.37.06-.08.11-.16.18-.23.24-.31.51-.61.75-.91,0,0,.02-.03.03-.04h.01Z"/>
  <path class="cls-2" d="M36.7,20.28c-1.7,1.17-2.27,2.39-4.47,5.73-1.04,1.58-2.13,3.12-3.2,4.69-1.53,2.24-2.15,3.14-2.8,4.63-.63,1.43-.91,2.52-1.01,2.99-.31,1.33-.4,2.49-.41,3.36.19.08.37.15.56.23-.19-.51-.41-1.32-.36-2.3,0,0,.03-.64.21-1.29,1.01-3.58,8.16-12.99,8.16-12.99,2.62-3.44,2.79-3.86,3.89-4.69,1.38-1.04,2.1-1.14,6.23-3.37.35-.19,3.6-1.95,3.54-2.06-.04-.07-1.42.65-5.08,2.29-1.08.48-2.13.94-3.53,1.74-.2.11-1.1.63-1.71,1.05h-.02Z"/>
  <path class="cls-3" d="M72.3,143.99c-4.8,0-11.33,25.46-14,38.18l12,7.76,2-45.94Z"/>
  <path class="cls-6" d="M72.3,153.05l-12.5,29.12,3.5,3.88,9-33Z"/>
  <path class="cls-1" d="M112.37,166.84h-7.5c10-23.29,13.83-63.19,14.5-80.24.96,16.46.85,34.01-.84,52.49-.24,2.68-.52,5.33-.81,7.94-1.78,6.6-3.57,13.2-5.35,19.8h0Z"/>
  <path class="cls-1" d="M87.8,148.52c-3.17-16.6-7.6-53.97,0-70.53v70.53Z"/>
  <path class="cls-4" d="M139.72,93.45l.3,2.37c-.15-.57-.31-1.23-.48-2l.18-.37Z"/>
  <path class="cls-5" d="M104.1,165.54c3.6-4.74,10.34-15.1,9.08-19.27-.03-.08-.05-.16-.08-.23.03.08.06.15.08.23,1.28,3.81,1.86,12.82-5.58,20.27l-3.5-1Z"/>
  <path class="cls-2" d="M26.16,106.43c-.1-.06-.92,1.7-3.06,7.11-.7,1.77-3.34,7.85-3.5,8.5-1.55,6.4-3.54,9.79-6.31,15.77-4.46,9.66-8.41,19.54-13.47,28.91-1.31,2.4-2.53,4.83-3.87,7.37-.61-.47-1.14-.88-1.67-1.27,2.09-4.45,4.16-8.85,6.23-13.25-.09-.04-.18-.08-.27-.12-2.21,4.22-4.44,8.44-6.71,12.75-1.36-.72-2.69-1.42-4.14-2.18,2.93-5.29,5.18-10.79,6.93-16.49-2.52,5.35-5.05,10.7-7.59,16.09-1.75-.6-3.37-1.14-4.99-1.69-.12-.04-.23-.09-.35-.14-.66-.3-1.65-.43-1.89-.92-.25-.5.23-1.34.39-2.03.6-2.54,1.21-5.07,1.8-7.61.06-.23.08-.48.12-.72l-.24-.05-2.34,10.73c-1.38-.3-2.59-.53-3.77-.86-.15-.04-.3-.61-.23-.88.77-3.26,1.61-6.5,2.39-9.75,1.08-4.52,2.14-9.05,3.2-13.58.1-.38.17-.77.28-1.25l3.98.86-2.78,12.74.08.02c1.04-4.28,2.07-8.57,3.15-13.01l-4.23-.92c0-.35,0-.57.05-.76.24-.91.31-3.76,1.27-7.71,0,0,.96-3.96,2.31-7.4,1.69-4.3,9.02-14.11,9.1-14.23,7.17-9.82,9.3-20.68,10.67-27.61.73-3.73.99-6.53,2.79-15.86.93-4.84,1.57-7.99,1.46-8.01-.14-.03-1.38,4.58-2.4,9.26-1.29,5.92-1.74,9.65-2.23,12.69-.5,3.09-1.81,11.16-4.91,18.86-4.6,11.4-11.55,17.56-15.46,27.35-4.03,10.12-1.8,8.2-5.8,24.91-2.11,8.82-4.29,17.62-6.47,26.43-.12.51-1.17,2.32-.58,3.56.73,1.55,1.09-1.16,4.5,0,5.03,1.7,8.93,6.53,11,5.5.74-.37,1.06-.9,1.23-1.23,6.67-12.76,13.59-25.39,19.38-38.56,9.32-21.2,10.15-23.34,10.89-25.71.18-.58,1.44-2.42,3-6,.96-2.21,1.72-5.46,2-6,1.43-2.73,1.11-3.57,1.06-3.6h0ZM-4.59,175.07c-1.85,3.43-3.7,6.87-5.46,10.35-.29.54-1.05.84-.88,1.61-.26-.02-.59.03-.79-.09-1.32-.81-2.57-1.76-3.92-2.49-3.39-1.82-6.96-3.11-11.01-3.35,1.23-4.87,2.44-9.63,3.68-14.51,1.72.37,3.47.62,5.12,1.15,2.53.82,5.05,1.71,7.46,2.82,1.95.91,3.71,2.18,5.55,3.28.55.34.55.69.25,1.23Z"/>
  <path class="cls-2" d="M156.2,171.66c.57,3.9.98,7.01,1.06,11.17v1.29c-1.17.22-2.52.55-3.97,1.06-1.29.45-2.41.96-3.38,1.45-1.89,1.31-4.63,2.77-8.13,3.25-.63.09-1.24.14-1.82.16-.18-.92-.36-1.88-.51-2.86-.1-.62-.19-1.22-.27-1.82.1-.05.19-.1.28-.15.22.7.44,1.51.59,2.43.11.69.17,1.33.2,1.91,2.77-.32,4.81-1.05,6.17-1.66,2.58-1.16,4.01-2.48,7.26-3.43,1.2-.35,2.22-.53,2.89-.62,0-3.01-.17-6.39-.66-10.07-.33-2.51-.77-4.84-1.26-6.97-2.56.08-6.12.45-10.14,1.76-4.23,1.37-7.46,3.28-9.62,4.79,1.25,3.23,2.45,6.36,3.66,9.49-.06.04-.12.07-.17.1-.1-.11-.23-.21-.29-.34-3.16-8.28-6.53-16.46-9.42-24.84-4.73-13.72-5.78-12.4-10.46-31.5-.11-.44-.06-.76-.31-1.26-.11-.23-.26-.45-.22-.75.03-.26.2-.52.27-.5.04,0,.06.11.06.19.11.42.22.84.35,1.25.25.91.52,1.82.78,2.72.1.32.63,2.11,1.26,4.15,4,12.82,6.61,20.27,6.61,20.27,2.38,6.77,4.63,12.34,6.54,17.6.35.96.74,1.92,1.16,3,.72-.47,1.3-.85,1.78-1.16-1.84-5.47-3.63-10.79-5.43-16.09.1-.04.18-.08.28-.12.06.09.16.16.19.24,1.41,3.58,2.82,7.16,4.21,10.75.47,1.21.92,2.42,1.29,3.66.25.82.74.76,1.26.53,1.15-.51,2.28-1.08,3.56-1.69-2.82-6.71-4.75-13.67-6.23-20.77,2.22,6.82,4.58,13.59,7.13,20.31.12,0,.26,0,.38-.02,1.4-.35,2.5-.6,3.37-.79,1.56-.34,1.95-.34,3.32-.85.32-.12.58-.23.76-.31l4.42-.56c-1.51-10.04-3-20.03-4.5-30.01l-4.06.52v.22c.03.25.07.63.12,1.09.35,3,.75,5.22.89,6.22.71,4.97,1.45,9.94,2.16,14.91.02.19.06.37.07.56-.3-.95-.59-1.9-.73-2.85-.8-5.51-1.59-11.03-2.36-16.54-.19-1.31-.35-2.63-.53-4.08l4.5-.57c-.04-.47-.05-.83-.1-1.18-.23-1.54-.49-3.07-.71-4.61-.64-4.44-1.1-8.91-1.92-13.31-1.07-5.68-2.92-11.08-5.59-16.17-.54-1.03-.82-1.7-1.3-2.93-.77-1.97-1.47-4.3-2.54-11.03-.18-1.09-.06-.39-.91-6.24-.54-3.77-.99-7.55-1.54-11.32-.28-1.96-.53-3.63-.49-4.24v-.02c0-.14.02-.22.07-.23.12-.03.34.47.55,1.04.07.16.12.32.18.47,1.22,9.51,2.26,17.04,2.87,22.09.23,1.83,1.02,5.09,2.2,9.41.38,1.39,1.14,2.68,1.78,3.99,2.47,5.11,4.26,10.48,5.2,16.11.87,5.22,1.47,10.48,2.22,15.71,2.18,15.22,2.65,22.9,3.95,27.44.5,3.07,1.09,6.81,1.72,11.15Z"/>
</svg>