<svg width="65" height="58" viewBox="0 0 65 58" fill="none" xmlns="http://www.w3.org/2000/svg">
<g clip-path="url(#clip0_57_181)">
<g filter="url(#filter0_i_57_181)">
<path d="M2.13487 40.4742C2.16487 39.8642 2.41487 38.9242 2.71487 37.7042C3.16487 35.8642 3.11487 35.8442 3.23487 35.7442C4.30487 34.8942 6.82487 37.0842 7.85487 36.1842C8.11487 35.9542 8.03487 35.7742 8.58487 34.9642C8.78487 34.6642 9.07487 34.3242 9.53487 33.8842C10.1249 33.3342 12.0149 32.0642 13.6749 31.6742C17.3849 30.8042 22.7849 33.7542 24.4149 38.0542C24.9649 39.5142 24.8049 41.6042 24.4849 45.7742C24.2049 49.3642 23.7249 50.5942 23.3749 51.3042C22.8949 52.2742 21.8749 54.3542 19.5449 55.5742C17.7149 56.5342 15.9849 56.4942 14.6849 56.4642C12.6949 56.4142 11.2449 55.8842 10.0249 55.4442C10.0249 55.4442 8.09487 54.7442 6.80487 53.7142C6.77487 53.6842 6.74487 53.6642 6.72487 53.6442C5.80487 52.8942 5.27487 52.1742 4.68487 51.3642C3.79487 50.1442 2.96487 49.0042 2.50487 47.3142C2.20487 46.2242 2.16487 45.2242 2.08487 43.2142C2.05487 42.4842 2.08487 41.7142 2.08487 41.7042C2.11487 41.0242 2.13487 40.5242 2.13487 40.4842V40.4742Z" fill="white"/>
</g>
<g filter="url(#filter1_i_57_181)">
<path d="M12.2249 33.3942C10.1149 34.9642 10.5249 36.1042 8.53487 37.8042C6.59487 39.4642 4.80487 39.5642 4.32487 39.3242C3.96487 39.1442 3.88487 38.8842 3.88487 38.8842C3.79487 38.6042 3.93487 38.3542 3.97487 38.3042C4.17487 38.1442 4.49487 37.9242 4.90487 37.7042C5.56487 37.3542 6.09487 37.2242 6.49487 37.1242C7.89487 36.7542 9.31487 36.2442 9.29487 36.1742C9.27487 36.1142 8.30487 36.3342 6.60487 36.5242C6.60487 36.5242 4.95487 36.7142 3.32487 36.2942C3.09487 36.2342 2.74487 36.1342 2.63487 35.8442C2.55487 35.6342 2.61487 35.3442 2.78487 35.1542C2.83487 35.0942 2.88487 35.0642 2.99487 34.9942C3.48487 34.6842 3.53487 34.6342 3.61487 34.5742C4.75487 33.9042 6.73487 33.5642 6.73487 33.5642C8.62487 33.2342 9.78487 33.2742 9.80487 33.0742C9.80487 32.9542 9.38487 32.8442 9.19487 32.7842C7.86487 32.4242 5.85487 31.8742 4.63487 31.1742C4.20487 30.9242 2.64487 30.0342 2.39487 28.5442C2.34487 28.2242 2.34487 27.8442 2.90487 26.3842C4.08487 23.3442 5.43487 21.5242 5.92487 20.5542C6.03487 20.3342 6.14487 20.1742 6.37487 19.8342C6.54487 19.5842 6.59487 19.5242 6.67487 19.4742C6.90487 19.3342 7.16487 19.3842 7.51487 19.4642C7.93487 19.5542 8.22487 19.6842 8.26487 19.6942C9.05487 20.0242 9.62487 20.4942 9.97487 20.8342C10.8149 21.8542 11.1749 22.7942 11.3449 23.5342C11.7149 25.2542 11.1849 26.6642 11.9149 27.1142C12.3449 27.3842 12.6749 26.9742 13.3549 27.3142C13.9149 27.5942 14.2349 28.1342 14.4949 28.5842C14.9549 29.3742 14.8949 29.7342 15.1149 29.7842C15.6249 29.8842 16.4649 28.0142 16.8749 26.9142C17.3649 25.5542 17.2449 25.2642 17.6849 24.5442C17.8049 24.3542 18.2549 23.6342 19.7949 22.6942C20.9149 22.0042 23.8249 20.1942 25.1249 21.2442C25.3249 21.4042 25.5949 21.7242 25.7049 22.3842C25.6049 23.2542 25.3949 24.5642 24.8949 26.1042C24.0949 28.5442 23.0949 30.0342 23.4049 30.2642C23.8549 30.6042 26.5349 27.7142 26.8749 28.0242C26.9249 28.0642 26.8949 28.1442 26.8349 28.4942C26.7349 29.0342 26.9649 27.9442 26.6549 29.8942C26.4649 31.0942 26.3349 31.8442 26.3349 31.8442C26.1249 33.0342 26.1449 32.8642 25.8649 34.3942C25.8049 34.7242 25.5549 36.0842 25.2549 37.0842C25.2349 37.1342 25.2249 37.1842 25.2149 37.2142C25.1449 37.4542 24.9549 38.0442 24.6949 38.7042C24.4249 39.3642 24.1349 39.9442 23.8849 40.3942C23.7549 40.6842 23.6149 40.9142 23.5149 41.0642C23.2449 41.4542 23.0949 41.5042 23.0049 41.5142C22.9149 41.5242 22.8449 41.5042 22.7849 41.4842C22.5449 41.4042 22.5049 41.2042 22.2349 41.0342C21.9249 40.8342 21.8449 40.9042 21.1749 40.0842C20.6749 39.4642 20.5849 39.2642 20.2549 38.7942C19.9249 38.3142 19.9249 38.3842 19.6849 38.0142C19.4149 37.5942 19.4049 37.4942 19.1549 37.1642C19.0449 37.0242 18.9449 36.8942 18.7149 36.6642C18.1849 36.1042 17.7349 35.6942 17.7049 35.6642C16.6249 34.6842 16.3649 34.5842 15.9349 34.0642C15.9349 34.0642 15.5549 33.5542 15.3449 33.1042C15.2749 32.9542 15.2449 32.8442 15.2149 32.7542C15.1249 32.4242 15.1049 32.4042 15.0849 32.3842C14.9849 32.2442 14.3949 32.3342 12.2449 33.3942H12.2249Z" fill="#E7B6C9"/>
</g>
<g filter="url(#filter2_i_57_181)">
<path d="M17.2148 30.2541C17.4848 29.8541 17.3948 29.7141 17.7748 28.9541C17.9548 28.5941 18.0148 28.5041 18.0748 28.4341C18.1648 28.3241 18.5048 28.0141 19.3748 27.8141C19.6948 27.7341 21.3148 27.4041 22.3348 28.4041C22.4748 28.5441 22.9748 29.0341 22.9748 29.7641C22.9748 30.3141 22.6848 30.7141 22.5948 30.8241C22.1948 31.3541 21.6248 31.5141 20.4148 31.8041C20.0748 31.8841 19.9148 31.8841 19.5048 31.9941C19.1648 32.0841 18.9648 32.1741 18.5348 32.2641C18.2248 32.3341 18.0748 32.3641 17.9348 32.3441C17.6248 32.2941 17.4248 32.1141 17.1548 31.8541C16.7548 31.4741 16.5248 31.2541 16.5648 31.0141C16.6148 30.7841 16.8748 30.7541 17.2048 30.2641L17.2148 30.2541Z" fill="#C16B8E"/>
</g>
<path d="M16.025 33.5242C16.595 32.9342 17.595 33.0242 18.295 33.0942C19.225 33.1942 20.165 33.2942 21.105 33.9642C22.265 34.8042 23.055 36.2942 22.695 36.7042C22.585 36.8342 22.375 36.8442 21.955 36.7842C20.465 36.5442 19.965 35.8242 18.525 35.1342C17.035 34.4242 15.835 34.3642 15.825 33.8742C15.825 33.7342 15.925 33.6242 16.025 33.5142V33.5242Z" fill="#C16B8E"/>
<g filter="url(#filter3_i_57_181)">
<path d="M10.6849 33.3341C9.33491 33.0141 8.65491 32.8641 8.29491 32.7441C6.16491 32.0841 5.10491 31.7441 4.37491 31.3041C3.47491 30.7641 2.51491 30.1741 2.44491 29.2241C2.40491 28.7141 2.63491 28.1441 3.04491 27.8141C3.72491 27.2641 4.68491 27.5141 5.26491 27.6641C6.78491 28.0541 7.75491 29.0541 8.76491 30.0841C9.58491 30.9241 9.32491 30.8741 10.6149 32.3041C11.0749 32.8141 11.5449 33.2941 11.4349 33.4441C11.3549 33.5541 11.0249 33.4141 10.6949 33.3341H10.6849Z" fill="#C16B8E"/>
</g>
<path d="M18.7748 35.1641L21.1148 37.5641L22.0748 38.8141L23.1648 41.0641L22.7348 41.3441L21.4748 40.5941C21.2648 40.1941 21.0048 39.7641 20.7048 39.3141C20.3148 38.7441 19.9248 38.2541 19.5548 37.8341C18.8548 36.8741 18.1648 35.9141 17.4648 34.9541C17.4648 34.9541 17.9448 34.3141 18.7748 35.1541V35.1641Z" fill="#C16B8E"/>
<path d="M16.5049 29.9742C16.5549 31.5742 15.7049 32.7342 15.3849 33.1242C15.2149 32.9342 15.0349 32.7342 14.8149 32.5042C13.8649 33.0142 12.7449 33.0742 11.8949 34.0542C10.3849 35.7942 9.37491 38.0742 7.01491 38.9742C6.23491 39.2742 5.36491 39.4242 4.52491 39.4342C3.76491 39.4342 3.54491 38.8442 4.05491 38.2542C4.35491 37.9142 4.77491 37.5942 5.19491 37.4442C6.14491 37.1042 7.13491 36.8742 8.18491 36.7342C7.20491 37.0042 6.39491 37.2742 5.76491 37.4942C4.80491 37.8242 4.21491 38.0742 4.11491 38.5442C4.09491 38.6242 4.05491 38.8142 4.15491 38.9542C4.56491 39.5442 7.02491 38.9842 8.47491 37.4942C8.93491 37.0242 9.20491 36.5542 9.33491 36.2842C8.54491 36.4742 7.49491 36.5242 6.26491 36.6242C5.27491 36.7142 4.31491 36.6742 3.35491 36.2742C4.53491 36.4842 6.32491 36.6542 8.24491 36.1442C9.66491 35.7742 10.3049 35.2642 10.6149 34.9642C11.1249 34.4942 11.4249 33.9742 11.6049 33.6242C10.5349 33.4742 8.94491 33.3642 7.06491 33.7042C5.21491 34.0342 3.77491 34.6442 2.82491 35.1442C4.58491 33.3542 6.98491 33.4742 9.35491 33.0642C7.92491 32.6042 6.61491 32.1842 5.30491 31.7542C3.74491 31.2342 2.89491 30.5942 2.52491 29.7142C2.43491 29.5042 2.17491 28.8942 2.45491 28.6142C2.62491 28.4442 2.93491 28.4642 3.06491 28.4942C3.13491 28.8842 3.28491 29.4342 3.64491 29.9742C4.32491 31.0342 5.30491 31.4042 7.12491 32.1142C9.09491 32.8742 10.5649 32.9942 11.1949 33.0142C11.5149 33.0342 11.7849 33.0142 11.9649 33.0142C12.9449 32.7042 13.7949 32.4142 14.6749 32.1542C15.0349 32.0542 15.2749 31.8742 15.3649 31.6442C15.4849 31.3642 15.3849 31.0742 15.3349 30.9242C14.4649 28.5942 13.9949 27.3442 13.0049 27.2642C12.4749 27.2242 12.0849 27.5242 12.0249 27.5642C11.5149 27.9442 11.4749 28.6242 11.3849 29.5242C11.3149 30.2242 11.2049 31.2442 11.0049 32.5342C11.0549 30.7842 11.1649 29.3642 11.2349 28.3842C11.4049 26.2642 11.5449 25.5142 11.3049 24.1942C11.1449 23.3742 10.9349 22.2842 10.0649 21.2642C9.58491 20.7042 8.97491 20.2542 8.22491 19.9042C7.73491 19.6842 7.14491 19.6342 6.45491 19.4742C7.49491 19.0342 8.27491 19.4242 9.03491 19.8342C12.0349 21.4642 12.2549 24.2242 11.9649 27.1742C12.4149 26.9642 12.7749 26.9642 12.9949 26.9842C14.0249 27.1142 14.9349 28.2442 15.1749 29.8142C15.3649 29.5442 15.6549 29.0642 15.6649 28.4542C15.7049 27.2242 14.6849 26.2442 14.7249 26.2042C14.7549 26.1842 15.2049 26.6142 15.6349 27.3742C15.9549 27.9242 16.4549 28.7942 16.4949 29.9542L16.5049 29.9742Z" fill="black"/>
<path d="M22.9148 36.5641C22.8048 36.0541 22.4648 34.8342 21.4048 33.9042C20.0648 32.7342 18.1048 32.5241 16.3248 33.3141C16.5148 33.2641 19.3848 32.5842 21.2148 34.5542C21.9348 35.3242 22.2148 36.2142 22.3348 36.7542C20.3648 35.1942 18.2548 34.3842 15.9548 33.8542C15.9848 34.0942 15.9748 34.1842 16.0048 34.2142C16.1248 34.3642 16.2548 34.5341 16.4148 34.6441C18.2248 35.8941 19.5648 37.5742 20.6348 39.5442C20.8648 39.9842 21.1748 40.3841 21.5248 40.7241C21.8948 41.0741 22.3648 41.3242 22.7948 41.6142C22.8148 41.6142 22.9648 41.6542 23.0848 41.5442C23.1748 41.4642 23.2148 41.3342 23.1748 41.2042C22.9748 40.5142 22.6048 39.5242 21.9048 38.4942C21.1448 37.3742 20.3048 36.6442 19.7148 36.2142C20.3248 36.4442 20.8248 36.6541 21.3348 36.8141C22.4648 37.1841 23.3748 36.8642 24.1048 35.8842C24.3248 35.5942 24.5148 35.2941 24.7148 34.9841C26.0948 32.8842 26.6648 30.5042 26.8548 28.0042C26.7648 29.0742 26.5048 30.6941 25.7048 32.4841C24.0448 36.2441 20.6448 36.3941 22.9248 36.5641H22.9048H22.9148ZM21.1248 38.0342C21.4348 38.3442 21.8048 38.7642 22.1548 39.3342C22.5348 39.9342 22.7648 40.4942 22.9148 40.9442C22.9448 41.0942 22.8748 41.2342 22.7548 41.2742C22.6748 41.3042 22.5948 41.2741 22.5548 41.2341C21.6748 40.7141 21.3548 40.2241 21.3548 40.2241C20.2748 38.5441 17.7448 35.7442 18.0548 35.4642C18.3448 35.1942 20.7748 37.6942 21.1148 38.0442L21.1248 38.0342Z" fill="black"/>
<path d="M25.7349 23.1242C25.8749 24.3342 25.4549 25.4242 24.9849 26.6242C24.4549 27.9942 23.6649 29.2842 22.9749 30.6042C22.4149 31.6942 21.4149 32.0942 20.2049 32.1842C19.4249 32.2442 18.6349 32.3842 17.8349 32.3642C18.8249 32.0842 19.8349 31.8442 20.7849 31.4942C21.3149 31.3042 21.8549 31.0042 22.2349 30.6042C22.3849 30.4542 22.6349 30.0742 22.6149 29.5942C22.5749 28.9942 22.1149 28.6042 21.9549 28.4742C21.2349 27.8742 20.3149 27.9342 19.7749 27.9642C19.2849 27.9942 18.6849 28.0342 18.2949 28.4442C18.0349 28.7242 18.0449 28.9942 17.9349 29.3542C17.7849 29.8142 17.4249 30.4242 16.4849 31.0242C16.7349 30.6942 17.0849 30.1942 17.4149 29.5342C17.8749 28.6342 17.8349 28.3542 18.2249 28.0342C18.8649 27.5142 19.7949 27.5842 20.3449 27.6142C20.6449 27.6342 21.0749 27.6642 21.5649 27.8742C22.2049 28.1542 22.7549 28.6542 23.1949 29.3742C23.8249 27.0542 25.3449 25.1342 25.2049 22.7442C25.1649 22.2642 25.0849 21.7742 25.0249 21.2942C24.4449 21.2342 21.9549 21.0642 19.6149 22.6942C17.2849 24.3142 16.7149 26.6142 16.5949 27.1542C16.7349 26.1942 17.1849 24.2842 18.8149 22.6942C20.2649 21.2742 23.0449 19.7142 24.5849 20.6542C25.5149 21.2342 25.6749 22.5442 25.7349 23.0942V23.1142V23.1242Z" fill="black"/>
<path d="M10.505 32.3642C10.245 32.0042 8.22496 29.2342 6.10496 28.3242C5.62496 28.1242 4.83496 27.7842 3.88496 28.0242C3.45496 28.1342 3.12496 28.3242 2.93496 28.4642C2.73496 28.5042 2.53496 28.5542 2.33496 28.5842C2.81496 27.9942 3.29496 27.7342 3.68496 27.5942C5.66496 26.9242 8.44496 28.8142 10.505 32.3542V32.3642Z" fill="black"/>
<path d="M6.68488 19.2942C6.41488 20.8542 5.87488 21.9142 5.43488 22.5942C5.04488 23.2042 4.74488 23.4742 3.98488 24.6242C3.26488 25.7142 2.92488 26.3942 2.88488 26.3742C2.82488 26.3442 3.59488 24.6742 4.51488 22.9642C5.34488 21.4242 6.11488 20.1642 6.69488 19.2842L6.68488 19.2942Z" fill="black"/>
<path d="M24.7448 38.6142C24.0348 40.4242 23.0748 41.6442 23.0348 41.6242C22.9948 41.6042 23.8648 40.4342 24.5648 38.5142C24.7148 38.1142 24.8248 37.7542 25.4648 35.1742C26.0748 32.7242 26.2748 31.8142 26.2948 31.8142C26.3348 31.8142 25.9948 33.6142 25.5848 35.4442C25.2348 37.0142 25.0448 37.8142 24.7448 38.6042V38.6142Z" fill="black"/>
<path d="M3.2348 35.7542C2.6748 37.3042 2.0348 39.6542 2.0048 42.5542C1.9848 44.4042 1.9648 46.9541 3.3348 49.8141C4.6648 52.5841 6.6548 54.2742 7.8948 55.1542C9.7148 55.9642 12.8748 57.0242 16.6648 56.4942C18.3648 56.2542 20.5648 55.9541 22.3348 54.2041C24.0148 52.5541 24.4348 50.3742 24.6948 49.0942C24.8648 48.2642 24.9148 47.5742 24.8948 44.8742C24.8848 43.3242 24.8448 41.1842 24.7448 38.6142C24.7448 41.4742 24.6248 43.8942 24.4948 45.7842C24.3348 48.1942 24.1548 49.4742 23.5248 50.9842C23.2748 51.5842 22.7048 52.9441 21.6148 54.0441C18.9448 56.7241 14.6848 56.3142 13.6648 56.2142C9.0748 55.7642 4.7548 52.6642 3.2348 48.8242C2.4048 46.7142 2.2748 44.8242 2.2248 42.9942C2.1348 39.8942 2.7348 37.3742 3.2448 35.7642L3.2348 35.7542Z" fill="black"/>
<g filter="url(#filter4_i_57_181)">
<path d="M39.1948 43.6341C38.5448 41.5941 38.7548 38.1141 38.8048 37.3441C38.8748 36.2341 38.9148 35.6741 38.9548 35.5041C39.4948 33.5741 41.1048 32.6641 43.6048 30.9341C47.7648 28.0641 46.9348 28.0941 48.1948 27.5441C53.1648 25.3841 59.8448 27.5841 60.9448 30.2541C61.0648 30.5341 61.6848 32.2341 62.2048 33.7141C62.4148 34.2941 62.6148 34.8741 62.6748 35.0641C64.3748 40.0541 63.8248 44.8241 63.8248 44.8241C63.6948 45.9741 63.5248 47.4541 62.7748 49.2541C62.3448 50.2941 61.1348 53.1641 58.1448 55.1241C56.9848 55.8841 55.9748 56.2541 55.6648 56.3641C55.0648 56.5741 53.0548 57.2141 50.4448 56.8541C48.4448 56.5941 47.0648 55.8741 46.7748 55.7141C45.6948 55.1441 45.0348 54.5341 44.2648 53.8341C43.1248 52.7941 42.0448 51.8141 41.2348 50.2041C41.0348 49.7941 41.0448 49.7541 39.9648 46.1741C39.7148 45.3541 39.4148 44.3541 39.3548 44.1541C39.2848 43.9341 39.2248 43.7541 39.1948 43.6341Z" fill="white"/>
</g>
<path d="M46.3949 30.3542C44.5349 32.4942 45.2349 33.6042 43.5349 35.8442C41.8749 38.0342 40.0149 38.5642 39.4549 38.4142C39.0349 38.3042 38.8849 38.0542 38.8849 38.0542C38.7249 37.7842 38.8149 37.4842 38.8449 37.4242C39.0149 37.2142 39.3049 36.9042 39.6849 36.5842C40.2949 36.0642 40.8249 35.8042 41.2149 35.6042C42.6049 34.8842 43.9749 34.0342 43.9349 33.9542C43.9049 33.8942 42.9349 34.3442 41.1849 34.9442C41.1849 34.9442 39.4949 35.5242 37.6749 35.4642C37.4249 35.4542 37.0249 35.4242 36.8449 35.1542C36.7149 34.9542 36.7149 34.6342 36.8449 34.3942C36.8849 34.3142 36.9249 34.2842 37.0249 34.1842C37.4649 33.7442 37.5049 33.6742 37.5849 33.6042C38.6349 32.6342 40.6249 31.8142 40.6249 31.8142C42.5349 31.0342 43.7649 30.8042 43.7349 30.5942C43.7049 30.4642 43.2349 30.4442 43.0349 30.4342C41.5549 30.3542 39.3049 30.2542 37.8649 29.7942C37.3349 29.6242 35.5049 29.0542 34.9049 27.5442C34.8349 27.3642 34.6749 26.8942 34.9449 25.1542C35.2949 22.9242 35.9549 21.0742 36.5349 19.4842C36.9649 18.2942 37.0549 18.2942 37.1049 17.8442C37.1349 17.5642 37.1449 17.2742 37.3649 17.0542C37.5849 16.8442 37.9049 16.8242 38.1949 16.8042C38.5949 16.7742 38.9049 16.8542 39.0349 16.8742C39.9449 17.0342 40.6549 17.3942 41.0949 17.6742C42.2149 18.5542 42.8149 19.4542 43.1649 20.2042C43.9549 21.9242 43.7249 23.5342 44.5949 23.8342C45.1149 24.0142 45.3649 23.5142 46.1549 23.7142C46.8149 23.8742 47.2749 24.3742 47.6549 24.7842C48.3249 25.5042 48.3449 25.9042 48.5849 25.8942C49.1449 25.8942 49.5949 23.7242 49.7649 22.4742C49.9649 20.9242 49.7649 20.6542 50.0749 19.7842C50.1549 19.5542 50.4649 18.6942 51.8549 17.3442C52.8649 16.3542 55.5149 13.7742 57.1249 14.5842C57.3749 14.7142 57.7249 14.9742 58.0049 15.6542C58.1049 16.5842 58.1849 18.0242 58.0049 19.7542C57.7349 22.4942 57.0349 24.3042 57.4049 24.4742C57.9549 24.7242 60.0849 21.0642 60.5349 21.3142C60.6049 21.3542 60.5849 21.4742 60.6249 21.9842C60.6649 22.6442 60.7249 22.7542 60.7949 23.4042C60.8549 23.9742 60.8449 24.3342 60.8849 25.5942C60.9249 26.9442 60.9449 27.6242 60.9449 28.2442C60.9849 30.5442 60.9449 31.0842 60.9149 31.3642C60.7449 33.5642 60.4049 34.0642 60.3149 35.1642C60.1849 35.2842 60.0449 35.4542 59.9549 35.6942C59.8249 36.0442 59.8949 36.3142 59.7149 36.4242C59.6149 36.4842 59.5049 36.4642 59.3549 36.4242C59.0749 36.3642 59.0049 36.2042 58.6649 36.0742C58.2949 35.9442 58.2249 36.0242 57.3349 35.3142C56.3849 34.5542 56.4949 34.4842 55.2949 33.4842C54.7549 33.0342 54.2949 32.6742 53.9349 32.4042C53.2149 31.8442 52.8549 31.5642 52.6749 31.4842C51.9649 31.1642 51.4349 31.1942 50.8549 30.6542C50.7449 30.5542 50.7849 30.5742 50.4449 30.2142C49.9149 29.6742 49.8049 29.6042 49.6049 29.3442C49.5049 29.2042 49.4349 29.0942 49.3849 29.0142C49.2149 28.6942 49.1849 28.6742 49.1549 28.6542C49.0149 28.5242 48.4249 28.7642 46.4049 30.3842L46.3949 30.3542Z" fill="#E7B6C9"/>
<g filter="url(#filter5_i_57_181)">
<path d="M50.865 25.9342C51.065 25.4542 50.935 25.3342 51.165 24.4342C51.275 24.0142 51.325 23.9042 51.365 23.8142C51.435 23.6842 51.725 23.2842 52.595 22.8742C52.915 22.7242 54.545 22.0042 55.835 22.8442C56.015 22.9642 56.655 23.3742 56.815 24.1342C56.935 24.7142 56.715 25.2042 56.655 25.3342C56.345 25.9842 55.785 26.2742 54.575 26.8442C54.235 27.0042 54.065 27.0342 53.665 27.2442C53.335 27.4142 53.135 27.5542 52.705 27.7442C52.395 27.8842 52.245 27.9442 52.085 27.9542C51.755 27.9742 51.495 27.8242 51.165 27.6142C50.665 27.3042 50.365 27.1242 50.365 26.8642C50.365 26.6042 50.635 26.5242 50.875 25.9342H50.865Z" fill="#C16B8E"/>
</g>
<g filter="url(#filter6_i_57_181)">
<path d="M50.5649 29.5642C51.0249 28.8242 52.0649 28.7042 52.7949 28.6242C53.7649 28.5242 54.7549 28.4142 55.8549 28.9242C57.2249 29.5542 58.3449 30.9342 58.0649 31.4342C57.9849 31.5942 57.7649 31.6542 57.3249 31.6742C55.7449 31.7542 55.0949 31.1042 53.4649 30.7042C51.7949 30.2842 50.5549 30.4842 50.4349 29.9742C50.4049 29.8242 50.4849 29.6942 50.5649 29.5542V29.5642Z" fill="#C16B8E"/>
</g>
<g filter="url(#filter7_i_57_181)">
<path d="M44.4749 30.4742C43.0849 30.4442 42.3949 30.4242 42.0149 30.3842C39.7949 30.1742 38.6949 30.0642 37.8849 29.7742C36.8949 29.4242 35.8349 29.0442 35.5649 28.1342C35.4249 27.6442 35.5249 27.0442 35.8649 26.6342C36.4149 25.9642 37.4049 26.0042 38.0049 26.0342C39.5749 26.1042 40.7249 26.8842 41.9249 27.6842C42.8949 28.3342 42.6349 28.3442 44.1849 29.4742C44.7449 29.8742 45.2949 30.2542 45.2249 30.4242C45.1749 30.5442 44.8249 30.4742 44.4749 30.4642V30.4742Z" fill="#C16B8E"/>
</g>
<path d="M50.1048 25.7642C50.5248 27.4342 49.9048 28.8542 49.6648 29.3342C49.4348 29.1742 49.2048 29.0142 48.9248 28.8142C48.0448 29.5642 46.8848 29.8842 46.2148 31.1242C45.0248 33.3042 44.4948 35.9442 42.2348 37.4342C41.4848 37.9342 40.6048 38.2942 39.7248 38.4942C38.9248 38.6842 38.5648 38.0942 38.9548 37.3542C39.1948 36.9242 39.5548 36.4942 39.9648 36.2342C40.8848 35.6542 41.8748 35.1742 42.9448 34.7942C41.9848 35.3142 41.1848 35.7742 40.5748 36.1542C39.6448 36.7242 39.0848 37.1242 39.0848 37.6342C39.0848 37.7242 39.0848 37.9242 39.2248 38.0542C39.7948 38.5842 42.2548 37.4242 43.4348 35.5142C43.8048 34.9142 43.9848 34.3642 44.0648 34.0442C43.2848 34.4242 42.1848 34.7242 40.9148 35.1142C39.8948 35.4342 38.8748 35.6242 37.7648 35.4242C39.0548 35.3742 40.9748 35.1342 42.8848 34.1542C44.2948 33.4342 44.8448 32.7442 45.1048 32.3642C45.5348 31.7542 45.7348 31.1342 45.8348 30.7242C44.6748 30.8142 42.9748 31.0742 41.0848 31.8542C39.2148 32.6242 37.8448 33.6142 36.9548 34.3542C38.3948 32.0642 40.9348 31.6342 43.3448 30.6542C41.7348 30.4942 40.2548 30.3642 38.7748 30.2142C37.0048 30.0242 35.9748 29.5542 35.3748 28.7142C35.2348 28.5042 34.8248 27.9242 35.0448 27.5742C35.1848 27.3542 35.5148 27.3142 35.6648 27.3042C35.8248 27.6942 36.1148 28.2342 36.6148 28.7342C37.5748 29.6842 38.6948 29.8542 40.7748 30.1742C43.0248 30.5242 44.5948 30.2942 45.2648 30.1742C45.6048 30.1142 45.8848 30.0442 46.0748 29.9942C47.0348 29.4442 47.8648 28.9342 48.7248 28.4642C49.0848 28.2742 49.2848 28.0242 49.3348 27.7642C49.3948 27.4342 49.2148 27.1542 49.1348 27.0142C47.6748 24.7742 46.8948 23.5642 45.8348 23.7042C45.2748 23.7842 44.9348 24.1842 44.8748 24.2442C44.4248 24.7642 44.5348 25.4842 44.6548 26.4542C44.7448 27.2142 44.8648 28.3142 44.9548 29.7042C44.6048 27.8542 44.3848 26.3342 44.2348 25.2842C43.9248 23.0142 43.8948 22.1942 43.3348 20.8642C42.9848 20.0342 42.5048 18.9342 41.3548 18.0742C40.7248 17.5942 39.9748 17.2642 39.1048 17.0642C38.5348 16.9442 37.9048 17.0342 37.1448 17.0242C38.1348 16.3242 39.0448 16.5442 39.9348 16.8042C43.4648 17.8242 44.3348 20.6742 44.7248 23.8442C45.1448 23.5142 45.5248 23.4342 45.7648 23.4042C46.8748 23.3042 48.0948 24.2842 48.7148 25.8742C48.8548 25.5542 49.0448 24.9742 48.9148 24.3342C48.6748 23.0342 47.3748 22.2342 47.4048 22.1842C47.4248 22.1642 48.0048 22.5042 48.6348 23.2042C49.0948 23.7042 49.8248 24.5042 50.1448 25.7142L50.1048 25.7642Z" fill="black"/>
<path d="M53.8949 30.8942L56.8449 32.8642L58.1049 33.9542L59.7249 36.0342L59.3449 36.4142L57.8749 35.9142C57.8749 35.9142 55.8649 33.6442 55.2849 33.4742L52.4949 30.9642C52.4949 30.9642 52.8549 30.1942 53.8949 30.8942Z" fill="#C16B8E"/>
<path d="M58.3748 31.2142C58.1348 30.7042 57.5048 29.4942 56.1748 28.7742C54.4848 27.8542 52.3848 28.0942 50.6948 29.3342C50.8848 29.2442 53.7448 27.8542 56.1248 29.5042C57.0548 30.1442 57.5648 31.0142 57.8148 31.5642C55.3748 30.3842 52.9748 30.0242 50.4348 29.9942C50.5248 30.2442 50.5248 30.3342 50.5748 30.3642C50.7348 30.4942 50.9148 30.6442 51.0948 30.7142C53.2848 31.6142 55.0948 33.0642 56.6648 34.8842C57.0148 35.2842 57.4348 35.6442 57.8748 35.9142C58.3448 36.2042 58.8948 36.3542 59.4148 36.5542C59.4348 36.5542 59.6048 36.5542 59.7048 36.4142C59.7748 36.3042 59.7948 36.1642 59.7248 36.0442C59.3548 35.3642 58.7348 34.4142 57.7648 33.4842C56.7048 32.4742 55.6448 31.9142 54.9348 31.5942C55.6348 31.6942 56.2048 31.7942 56.7748 31.8442C58.0448 31.9742 58.9348 31.4242 59.4648 30.2242C59.6248 29.8642 59.7648 29.5042 59.9048 29.1342C60.8648 26.6042 60.9148 23.9742 60.5348 21.2942C60.6848 22.4442 60.7848 24.2042 60.3648 26.2742C59.4848 30.6142 55.9548 31.5642 58.3948 31.2142H58.3748ZM56.8348 33.1742C57.2348 33.4242 57.7248 33.7842 58.2248 34.2942C58.7648 34.8342 59.1348 35.3742 59.3948 35.8042C59.4548 35.9642 59.4148 36.1242 59.3048 36.1842C59.2248 36.2342 59.1348 36.2142 59.0848 36.1842C58.0448 35.8442 57.5948 35.4042 57.5948 35.4042C56.0748 33.8942 52.7548 31.5342 53.0148 31.1642C53.2548 30.8142 56.3848 32.8842 56.8348 33.1642V33.1742Z" fill="black"/>
<path d="M58.2548 20.2741C58.1548 21.1941 57.7348 22.4241 57.0648 24.9241C56.7248 26.1941 55.7748 26.8541 54.5148 27.2241C53.7048 27.4641 52.9148 27.7941 52.0748 27.9641C53.0548 27.4341 54.0548 26.9541 54.9848 26.3641C55.4948 26.0441 55.9948 25.5941 56.3048 25.0941C56.4248 24.9041 56.6048 24.4441 56.4648 23.9441C56.2848 23.3241 55.7048 23.0241 55.5148 22.9241C54.6148 22.4541 53.6548 22.7341 53.1048 22.8941C52.5948 23.0441 51.9748 23.2141 51.6648 23.7341C51.4548 24.0941 51.5348 24.3741 51.4948 24.7741C51.4448 25.2941 51.2048 26.0141 50.3548 26.8641C50.5348 26.4641 50.7948 25.8541 50.9948 25.0841C51.2648 24.0241 51.1648 23.7441 51.4948 23.3241C52.0448 22.6341 53.0448 22.4841 53.6248 22.3941C53.9448 22.3441 54.4048 22.2741 54.9748 22.3841C55.7148 22.5241 56.4048 22.9241 57.0348 23.5841C57.1648 20.9941 58.3148 18.6341 57.6048 16.1541C57.4548 15.6541 57.2548 15.1641 57.0748 14.6641C56.4548 14.7341 53.7948 15.1341 51.7148 17.3841C49.6448 19.6341 49.5748 22.1741 49.5748 22.7741C49.4948 21.7341 49.5248 19.6241 50.8748 17.5641C52.0248 15.7941 54.3848 13.5341 56.4648 14.0841C56.9648 14.2141 57.2948 14.4641 57.4048 14.5541C58.7448 15.6441 58.5148 17.8241 58.2648 20.2541L58.2548 20.2741Z" fill="black"/>
<path d="M44.3548 29.6741C43.9948 29.3541 41.2248 26.9141 38.7948 26.4441C38.2448 26.3441 37.3348 26.1641 36.3948 26.6441C35.9648 26.8541 35.6648 27.1341 35.4948 27.3241C35.2948 27.4141 35.0948 27.5141 34.8948 27.5941C35.2648 26.8641 35.7048 26.4741 36.0848 26.2441C38.0148 25.0841 41.3748 26.4241 44.3648 29.6641L44.3548 29.6741Z" fill="black"/>
<path d="M37.3049 16.8142C37.3849 18.5142 37.0649 19.7542 36.7549 20.5742C36.4849 21.3042 36.2349 21.6542 35.6949 23.0442C35.1849 24.3642 34.9849 25.1442 34.9449 25.1342C34.8749 25.1142 35.2949 23.1742 35.8749 21.1742C36.3849 19.3642 36.9149 17.8642 37.3149 16.8042L37.3049 16.8142Z" fill="black"/>
<path d="M60.7849 32.9342C60.4649 35.0042 59.7349 36.5042 59.6949 36.4942C59.6549 36.4842 60.2849 35.0442 60.5849 32.8742C60.6449 32.4242 60.6849 32.0142 60.7549 29.1542C60.8249 26.4342 60.8249 25.4342 60.8549 25.4242C60.8949 25.4242 60.9549 27.3842 60.9549 29.4142C60.9549 31.1442 60.9449 32.0342 60.8049 32.9342H60.7849Z" fill="black"/>
<path d="M38.9648 35.5142C38.0648 42.9042 39.6348 49.2442 42.5248 52.5642C43.4448 53.6142 45.3648 55.8242 48.5048 56.6242C49.5148 56.8842 50.3448 56.9142 51.2548 56.9442C52.8648 57.0042 55.3648 57.0642 57.9348 55.7342C59.1548 55.1042 59.9648 54.3742 60.2948 54.0642C60.5348 53.8342 61.6748 52.7342 62.6148 50.7942C64.2748 47.3542 64.2748 43.4242 64.2548 42.2142C64.1348 36.9442 62.3248 32.7542 60.9648 30.2742C61.5748 31.9142 62.3348 34.2642 62.9048 37.1642C63.4248 39.8142 63.5248 41.6742 63.5648 42.3642C63.7048 45.3742 63.4048 47.8742 62.5148 49.9542C62.5048 49.9842 62.4748 50.0442 62.4448 50.1142C61.3848 52.4442 59.8048 53.7942 59.4048 54.1242C57.3048 55.8442 55.1748 56.4042 54.3648 56.5742C50.8448 57.2942 48.0648 56.0942 47.2048 55.7142C46.5548 55.4242 44.1548 54.2742 42.2748 51.6642C41.6148 50.7542 40.8148 49.3942 40.0448 46.4242C39.4248 44.0342 38.7448 40.3142 38.9948 35.5342L38.9648 35.5142Z" fill="black"/>
</g>
<defs>
<filter id="filter0_i_57_181" x="2.07153" y="31.5217" width="26.7056" height="24.9537" filterUnits="userSpaceOnUse" color-interpolation-filters="sRGB">
<feFlood flood-opacity="0" result="BackgroundImageFix"/>
<feBlend mode="normal" in="SourceGraphic" in2="BackgroundImageFix" result="shape"/>
<feColorMatrix in="SourceAlpha" type="matrix" values="0 0 0 0 0 0 0 0 0 0 0 0 0 0 0 0 0 0 127 0" result="hardAlpha"/>
<feOffset dx="7"/>
<feGaussianBlur stdDeviation="2"/>
<feComposite in2="hardAlpha" operator="arithmetic" k2="-1" k3="1"/>
<feColorMatrix type="matrix" values="0 0 0 0 0.539583 0 0 0 0 0.453025 0 0 0 0 0.453025 0 0 0 0.25 0"/>
<feBlend mode="normal" in2="shape" result="effect1_innerShadow_57_181"/>
</filter>
<filter id="filter1_i_57_181" x="2.37451" y="19.386" width="24.5256" height="26.1308" filterUnits="userSpaceOnUse" color-interpolation-filters="sRGB">
<feFlood flood-opacity="0" result="BackgroundImageFix"/>
<feBlend mode="normal" in="SourceGraphic" in2="BackgroundImageFix" result="shape"/>
<feColorMatrix in="SourceAlpha" type="matrix" values="0 0 0 0 0 0 0 0 0 0 0 0 0 0 0 0 0 0 127 0" result="hardAlpha"/>
<feOffset dy="4"/>
<feGaussianBlur stdDeviation="2"/>
<feComposite in2="hardAlpha" operator="arithmetic" k2="-1" k3="1"/>
<feColorMatrix type="matrix" values="0 0 0 0 0.901961 0 0 0 0 0.709804 0 0 0 0 0.784314 0 0 0 1 0"/>
<feBlend mode="normal" in2="shape" result="effect1_innerShadow_57_181"/>
</filter>
<filter id="filter2_i_57_181" x="16.5603" y="27.6979" width="6.41455" height="5.15234" filterUnits="userSpaceOnUse" color-interpolation-filters="sRGB">
<feFlood flood-opacity="0" result="BackgroundImageFix"/>
<feBlend mode="normal" in="SourceGraphic" in2="BackgroundImageFix" result="shape"/>
<feColorMatrix in="SourceAlpha" type="matrix" values="0 0 0 0 0 0 0 0 0 0 0 0 0 0 0 0 0 0 127 0" result="hardAlpha"/>
<feOffset dy="0.5"/>
<feGaussianBlur stdDeviation="2"/>
<feComposite in2="hardAlpha" operator="arithmetic" k2="-1" k3="1"/>
<feColorMatrix type="matrix" values="0 0 0 0 0.28125 0 0 0 0 0.148242 0 0 0 0 0.202431 0 0 0 0.75 0"/>
<feBlend mode="normal" in2="shape" result="effect1_innerShadow_57_181"/>
</filter>
<filter id="filter3_i_57_181" x="2.44043" y="27.4753" width="9.01074" height="6.50934" filterUnits="userSpaceOnUse" color-interpolation-filters="sRGB">
<feFlood flood-opacity="0" result="BackgroundImageFix"/>
<feBlend mode="normal" in="SourceGraphic" in2="BackgroundImageFix" result="shape"/>
<feColorMatrix in="SourceAlpha" type="matrix" values="0 0 0 0 0 0 0 0 0 0 0 0 0 0 0 0 0 0 127 0" result="hardAlpha"/>
<feOffset dy="0.5"/>
<feGaussianBlur stdDeviation="2"/>
<feComposite in2="hardAlpha" operator="arithmetic" k2="-1" k3="1"/>
<feColorMatrix type="matrix" values="0 0 0 0 0.28125 0 0 0 0 0.148242 0 0 0 0 0.202431 0 0 0 0.75 0"/>
<feBlend mode="normal" in2="shape" result="effect1_innerShadow_57_181"/>
</filter>
<filter id="filter4_i_57_181" x="34.7327" y="26.6697" width="29.177" height="34.2922" filterUnits="userSpaceOnUse" color-interpolation-filters="sRGB">
<feFlood flood-opacity="0" result="BackgroundImageFix"/>
<feBlend mode="normal" in="SourceGraphic" in2="BackgroundImageFix" result="shape"/>
<feColorMatrix in="SourceAlpha" type="matrix" values="0 0 0 0 0 0 0 0 0 0 0 0 0 0 0 0 0 0 127 0" result="hardAlpha"/>
<feOffset dx="-7" dy="4"/>
<feGaussianBlur stdDeviation="2"/>
<feComposite in2="hardAlpha" operator="arithmetic" k2="-1" k3="1"/>
<feColorMatrix type="matrix" values="0 0 0 0 0.539583 0 0 0 0 0.453025 0 0 0 0 0.453025 0 0 0 0.25 0"/>
<feBlend mode="normal" in2="shape" result="effect1_innerShadow_57_181"/>
</filter>
<filter id="filter5_i_57_181" x="50.365" y="22.4441" width="6.98535" height="6.0119" filterUnits="userSpaceOnUse" color-interpolation-filters="sRGB">
<feFlood flood-opacity="0" result="BackgroundImageFix"/>
<feBlend mode="normal" in="SourceGraphic" in2="BackgroundImageFix" result="shape"/>
<feColorMatrix in="SourceAlpha" type="matrix" values="0 0 0 0 0 0 0 0 0 0 0 0 0 0 0 0 0 0 127 0" result="hardAlpha"/>
<feOffset dx="0.5" dy="0.5"/>
<feGaussianBlur stdDeviation="2"/>
<feComposite in2="hardAlpha" operator="arithmetic" k2="-1" k3="1"/>
<feColorMatrix type="matrix" values="0 0 0 0 0.458824 0 0 0 0 0.247059 0 0 0 0 0.333333 0 0 0 0.45 0"/>
<feBlend mode="normal" in2="shape" result="effect1_innerShadow_57_181"/>
</filter>
<filter id="filter6_i_57_181" x="50.4285" y="28.5396" width="7.67969" height="3.24136" filterUnits="userSpaceOnUse" color-interpolation-filters="sRGB">
<feFlood flood-opacity="0" result="BackgroundImageFix"/>
<feBlend mode="normal" in="SourceGraphic" in2="BackgroundImageFix" result="shape"/>
<feColorMatrix in="SourceAlpha" type="matrix" values="0 0 0 0 0 0 0 0 0 0 0 0 0 0 0 0 0 0 127 0" result="hardAlpha"/>
<feOffset dy="0.1"/>
<feGaussianBlur stdDeviation="2"/>
<feComposite in2="hardAlpha" operator="arithmetic" k2="-1" k3="1"/>
<feColorMatrix type="matrix" values="0 0 0 0 0.458824 0 0 0 0 0.247059 0 0 0 0 0.333333 0 0 0 0.55 0"/>
<feBlend mode="normal" in2="shape" result="effect1_innerShadow_57_181"/>
</filter>
<filter id="filter7_i_57_181" x="35.5037" y="26.0206" width="9.72729" height="4.87296" filterUnits="userSpaceOnUse" color-interpolation-filters="sRGB">
<feFlood flood-opacity="0" result="BackgroundImageFix"/>
<feBlend mode="normal" in="SourceGraphic" in2="BackgroundImageFix" result="shape"/>
<feColorMatrix in="SourceAlpha" type="matrix" values="0 0 0 0 0 0 0 0 0 0 0 0 0 0 0 0 0 0 127 0" result="hardAlpha"/>
<feOffset dy="0.4"/>
<feGaussianBlur stdDeviation="2"/>
<feComposite in2="hardAlpha" operator="arithmetic" k2="-1" k3="1"/>
<feColorMatrix type="matrix" values="0 0 0 0 0.458333 0 0 0 0 0.248264 0 0 0 0 0.333757 0 0 0 1 0"/>
<feBlend mode="normal" in2="shape" result="effect1_innerShadow_57_181"/>
</filter>
<clipPath id="clip0_57_181">
<rect width="64.25" height="57.19" fill="white"/>
</clipPath>
</defs>
</svg>
