<?xml version="1.0" encoding="utf-8"?>
<!-- Generator: Adobe Illustrator 25.0.1, SVG Export Plug-In . SVG Version: 6.00 Build 0)  -->
<svg version="1.1" id="Слой_1" xmlns="http://www.w3.org/2000/svg" xmlns:xlink="http://www.w3.org/1999/xlink" x="0px" y="0px"
	 viewBox="0 0 64 57" style="enable-background:new 0 0 64 57;" xml:space="preserve">
<style type="text/css">
	.st0{fill-rule:evenodd;clip-rule:evenodd;fill:#1D1D1B;}
	.st1{fill-rule:evenodd;clip-rule:evenodd;fill:url(#SVGID_1_);}
	.st2{fill-rule:evenodd;clip-rule:evenodd;fill:url(#SVGID_2_);}
	.st3{fill:#1D1D1B;}
</style>
<g>
	<path class="st0" d="M16.4,35.5c-3.7-0.7-4.5-0.7-5.3-0.5c-1.1,0.3-1.9,0.7-2.4,1.1c-0.4,1-0.9,2.4-1.3,4.1
		c-0.8,3.6-0.7,6.5-0.6,7.2c0.3,4.4,1.9,7.7,2.9,9.6c3.9,0,7.8,0,11.7,0c1-2.4,2-5.6,2.5-9.5c0.6-4.5,0.2-8.4-0.2-11.1
		c-0.2,0-0.6,0-1,0C20.4,36.3,19.1,36,16.4,35.5z M19.3,51.5c0.8-0.2,1.1-0.3,1.4-0.5c0.1-0.1,0.6-0.5,0.5-1c0-0.5-0.5-0.9-1.2-1.1
		c-2-0.6-5-0.7-5-0.7c-1,0-1.8,0.2-2.4,0.3c-1,0.2-1.6,0.5-2.1,0.7c-0.6,0.3-1,0.6-1,1c-0.1,0.6,1,1.2,1.2,1.3
		c1.3,0.7,2.4,0.2,4.5,0.3c0.2,0,0.9,0,1.8,0C17.2,51.8,18.2,51.7,19.3,51.5z"/>
	
		<linearGradient id="SVGID_1_" gradientUnits="userSpaceOnUse" x1="20.8028" y1="354.0198" x2="23.6149" y2="354.9518" gradientTransform="matrix(1 0 0 1 0 -306)">
		<stop  offset="0" style="stop-color:#5E5E5E;stop-opacity:0"/>
		<stop  offset="1" style="stop-color:#5E5E5E"/>
	</linearGradient>
	<path class="st1" d="M16,35.4c-2.1-0.4-4-0.9-6,0.2c-0.6,0.3-1,0.7-1.3,1c-0.5,0.9-1.1,2.1-1.5,3.6c-0.9,3.2-0.7,5.9-0.6,7.2
		C7,51.7,8.6,55,9.7,57c3.9,0,7.7,0,11.7,0c0,0,2.1-5.9,2.6-9.5c0.5-4.4-0.5-11.3-0.5-11.3C20.2,36.1,17.8,35.7,16,35.4z M20.6,51.1
		c0.2-0.2,0.7-0.5,0.7-1c0-0.6-0.6-1.1-1.5-1.4c-0.1,0-0.2-0.1-0.3-0.1c-2.1-0.5-4.2-0.4-4.2-0.4c-0.8,0-1.8,0.1-3,0.4
		c-0.5,0.2-1.1,0.5-1.8,0.8c-0.3,0.1-0.6,0.3-0.7,0.6c-0.1,0.3,0,0.5,0,0.6c0.1,0.4,0.4,0.6,0.6,0.7c0.5,0.4,1.1,0.5,1.4,0.5
		c1.6,0,2.6,0,3.2,0c0.1,0,0.5,0,1.1,0c0.6,0,1,0,1.3,0C19,51.7,19.9,51.7,20.6,51.1z"/>
</g>
<g>
	<path class="st0" d="M46.4,35.1c-2.1,0-5.1-0.2-5.7,1.1c-0.1,0.1-0.1,0.2-0.1,0.8c-0.1,1.5-0.2,1.8-0.3,3.3
		C40.2,42.1,40,45,40,45.8c0,1.4,0.3,5.1,3.9,11.2c3.7,0,7.4,0,11.1,0c0.8-0.2,1.5-0.4,2.3-0.6C59.7,52,60,48.5,59.7,46
		c0,0-0.2-2.2-4.1-11.3l0,0l0,0C51.7,35.1,48.6,35.2,46.4,35.1z M55.3,50.9c0.3-0.2,0.9-0.7,1.3-1.6c-0.5-0.3-1.1-0.6-1.7-0.9
		c-2.3-0.9-4.3-0.7-5.5-0.5c-1.9,0.4-3.7,0.9-5.6,1.3c0.6,1.7,1.5,2.3,1.9,2.5c0.9,0.5,2.3,0.4,5.2,0.2c0.5,0,1-0.1,1.6-0.2
		C53.7,51.7,54.5,51.5,55.3,50.9z"/>
	
		<linearGradient id="SVGID_2_" gradientUnits="userSpaceOnUse" x1="54.9702" y1="352.6041" x2="58.7969" y2="353.0556" gradientTransform="matrix(1 0 0 1 0 -306)">
		<stop  offset="0" style="stop-color:#5E5E5E;stop-opacity:0"/>
		<stop  offset="1" style="stop-color:#5E5E5E"/>
	</linearGradient>
	<path class="st2" d="M44.9,35.2c-1.6-0.1-3.1-0.3-3.9,0.7c-0.7,0.8-0.6,2-0.4,2.8c-0.2,1.2-0.5,2.9-0.5,4.9c0,1.6-0.1,3.9,0.6,6.6
		c0.4,1.6,1.2,4.2,3.3,6.9c3.7,0,7.4,0,11.1,0c0.8-0.2,1.5-0.4,2.3-0.6c3.1-5,2.9-8.5,2.6-10.2c-0.3-1.8-1.2-4-3-8.4
		c-0.5-1.3-1-2.4-1.3-3c-1,0.1-1.9,0.2-2.9,0.3C49.4,35.3,46.8,35.3,44.9,35.2z M54.1,51.3c0.6-0.2,1.5-0.7,2.5-1.9
		c-1-0.7-2-1-2.6-1.2c-2.3-0.7-7.8,0.4-10.3,1.1c1.7,2.6,2.7,2.8,3.1,2.8c0.1,0,0.4,0,0.6,0c0.5,0,1.2,0,1.9-0.1
		c0.7,0,1.2,0,1.7-0.1C52.7,51.7,53.6,51.5,54.1,51.3z"/>
</g>
<g>
	<path class="st3" d="M40.7,30c3.6-2,7.1-4,10.7-6c0.3,0.3,0.6,0.8,0.9,1.5c0.1,0.3,0.2,0.6,0.2,0.9c-2.8,1-5,2.2-6.4,3.1l-5.3,3.9
		l0,0c-0.1-0.6-0.2-1.3-0.1-2.1C40.6,30.9,40.7,30.4,40.7,30z"/>
</g>
<g>
	<path class="st3" d="M23,31c-2.2-0.4-4.4-0.8-6.7-1.3c-2.2-0.5-4.3-0.9-6.3-1.5c-0.1,0.4-0.3,0.9-0.4,1.4c-0.1,0.7-0.1,1.3,0,1.7
		c1.9,0,4.2,0.1,6.9,0.6c2.8,0.5,5.1,1.4,6.9,2.1c0.1-0.4,0.2-0.9,0.1-1.6C23.4,31.8,23.2,31.3,23,31z"/>
</g>
<g>
	<path class="st3" d="M39.9,21.6c3.6-1.3,7.2-2.7,10.8-4c0.2,0.3,0.3,0.8,0.4,1.5c0,0.4,0,0.8,0,1.1c-2.4,0.5-4.3,1.1-5.6,1.7
		l-5.3,2.6l0,0c-0.1-0.3-0.3-0.8-0.3-1.5C39.8,22.4,39.8,22,39.9,21.6z"/>
</g>
<g>
	<path class="st3" d="M21.5,22.6c-3.8-0.4-7.6-0.8-11.4-1.2c-0.1,0.2-0.2,0.5-0.2,0.8c-0.1,0.8,0.3,1.4,0.4,1.6
		c2.7,0.1,4.6,0.2,5.9,0.3c2.1,0.1,4,0.1,6,1.2c0,0,0,0,0.1,0s0-0.8-0.1-0.9C22.1,23.9,22,23.4,21.5,22.6z"/>
</g>
<g>
	<path class="st3" d="M37.3,6.9c4.2-0.1,8.4-0.2,12.7-0.2c0.1,0.2,0.2,0.6,0.2,1s0,0.8-0.1,1.1C46,8.9,41.9,9.1,37.8,9.2
		c-0.1-0.2-0.3-0.5-0.4-1C37.2,7.7,37.3,7.2,37.3,6.9z"/>
</g>
<g>
	<path class="st3" d="M36.1,1.1c4.5-0.3,9.1-0.6,13.6-0.8c0.1,0.2,0.2,0.6,0.2,1S49.8,2,49.7,2.1C45.3,2.4,40.9,2.7,36.5,3
		c-0.1-0.2-0.3-0.5-0.4-1C36,1.6,36.1,1.3,36.1,1.1z"/>
</g>
<g>
	<path class="st3" d="M8,10.7c4,0,8,0,12,0.1c0.1,0.1,0.3,0.4,0.4,0.8c0.1,0.5,0,0.9-0.1,1.1c-4,0.1-8,0.3-12,0.4
		c-0.2-0.2-0.4-0.8-0.5-1.4C7.9,11.2,7.9,10.9,8,10.7z"/>
</g>
<g>
	<path class="st3" d="M7,4.1c4.1-0.3,8.2-0.6,12.3-0.9c0.1,0.2,0.3,0.5,0.4,0.9c0.1,0.6-0.1,1.1-0.1,1.3c-4,0.3-8,0.6-12,0.9
		C7.3,6,7.1,5.5,7,4.9C6.9,4.6,6.9,4.3,7,4.1z"/>
</g>
</svg>
