<svg width="70" height="75" viewBox="0 0 70 75" fill="none" xmlns="http://www.w3.org/2000/svg">
<path d="M0.76709 6.49285C3.38942 6.05238 6.13468 5.63239 9.00285 5.26363C12.1886 4.84364 15.2616 4.51585 18.2015 4.25977C18.3347 5.90897 18.4678 7.55817 18.6112 9.20737C16.0504 9.34053 13.3563 9.53516 10.5291 9.82198C7.45609 10.1293 4.55718 10.5083 1.84266 10.9283L0.76709 6.49285Z" fill="#222221"/>
<path d="M3.08203 15.7017C5.43803 15.3329 7.90671 14.9847 10.4881 14.6671C13.3562 14.3188 16.1117 14.0423 18.7648 13.8271C18.8877 15.21 19.0107 16.5929 19.1336 17.9758C16.8288 18.0884 14.4011 18.2523 11.8709 18.4879C9.11544 18.744 6.50336 19.0616 4.05516 19.4201L3.09227 15.7017H3.08203Z" fill="#222221"/>
<path d="M22.6984 53.1621C21.0287 52.148 16.5625 49.7613 10.6008 50.212C6.83119 50.4988 3.97326 51.7998 2.3343 52.7217C2.27284 54.545 2.28308 56.2864 2.35479 57.9459C2.44698 60.0458 2.61088 61.6335 2.77477 63.1905C3.05135 65.7514 3.47133 69.3366 4.05521 73.8028C7.08728 73.8847 10.1603 73.9462 13.2948 73.9769C16.245 74.0076 19.1541 74.0076 22.012 73.9769C22.5754 70.1766 22.9647 65.8641 22.9954 61.1316C23.0159 58.3044 22.9032 55.6411 22.6984 53.1621ZM20.7521 62.3915C19.8712 65.4338 12.3319 65.0241 7.14874 64.7475C6.63657 64.7168 5.66343 64.6553 5.05907 63.9588C4.01423 62.7808 4.383 60.2199 5.70441 58.8575C6.08342 58.4785 6.84144 57.8741 12.5061 57.8127C17.6893 57.7615 18.6419 58.2532 19.3078 58.8575C20.076 59.5643 21.1311 61.0496 20.7521 62.3915Z" fill="#222221" stroke="#222221" stroke-width="0.25" stroke-miterlimit="10"/>
<path d="M5.47932 25.4331C8.327 26.396 11.2771 27.4715 14.3092 28.6598C17.0032 29.7149 19.5846 30.8007 22.0533 31.8967C22.084 33.802 22.1147 35.6971 22.1455 37.6024C20.0251 35.9224 17.0749 33.9352 13.2746 32.2655C10.304 30.9646 7.56899 30.1861 5.30518 29.7149C5.35639 28.2808 5.41785 26.8569 5.46907 25.4229L5.47932 25.4331Z" fill="#222221"/>
<path d="M5.01803 33.8121C8.06034 35.3179 11.2563 36.8032 14.6162 38.2681C17.3819 39.4768 20.0964 40.5933 22.7393 41.6177C22.7188 43.7176 22.6983 45.8277 22.6676 47.9277C20.0964 45.9712 17.0951 43.9122 13.6738 41.9147C10.5188 40.0709 7.5072 38.5651 4.74146 37.3461C4.83365 36.1681 4.92584 34.9901 5.01803 33.8121Z" fill="#222221"/>
<path d="M41.2493 3.03057C43.8716 2.5901 46.6169 2.17011 49.485 1.80135C52.6708 1.38136 55.7438 1.05357 58.6837 0.797485C58.8168 2.44669 58.95 4.09589 59.0934 5.74509C56.5325 5.87825 53.8385 6.07288 51.0113 6.3597C47.9383 6.667 45.0394 7.04601 42.3248 7.466L41.2595 3.03057H41.2493Z" fill="#222221"/>
<path d="M43.3801 12.9052C45.7361 12.5364 48.2048 12.1882 50.7862 11.8706C53.6543 11.5223 56.4098 11.2458 59.0629 11.0306C59.1858 12.4135 59.3088 13.7964 59.4317 15.1793C57.1269 15.2919 54.6992 15.4558 52.169 15.6914C49.4135 15.9475 46.8015 16.2651 44.3533 16.6236L43.3904 12.9052H43.3801Z" fill="#222221"/>
<path d="M67.7594 50.1198C65.9976 49.2491 61.3163 47.2414 55.3648 48.1838C51.6055 48.7881 48.8397 50.3144 47.2725 51.3695C47.3647 53.1928 47.5183 54.924 47.7232 56.5732C47.9895 58.6629 48.2763 60.2301 48.5836 61.7666C49.0753 64.2968 49.7821 67.8308 50.745 72.2355C53.7976 72.0716 56.8911 71.8667 60.0358 71.6414C62.9962 71.4263 65.9156 71.1804 68.794 70.9141C69.0399 67.083 69.0808 62.75 68.7121 58.0278C68.497 55.2108 68.1589 52.5577 67.7594 50.1096V50.1198ZM66.5712 59.4721C65.9361 62.5759 58.3354 62.8012 53.1112 62.9549C52.5991 62.9651 51.6157 62.9856 50.9499 62.3403C49.8026 61.2545 49.9665 58.6731 51.1752 57.1981C51.5235 56.7883 52.2406 56.1225 57.9154 55.5898C63.1191 55.1084 64.1128 55.5181 64.8298 56.061C65.6595 56.7064 66.8375 58.0892 66.5712 59.4619V59.4721Z" fill="#222221" stroke="#222221" stroke-width="0.25" stroke-miterlimit="10"/>
<path d="M62.6892 34.5497C59.8313 35.5228 56.8812 36.5984 53.8593 37.7764C51.1858 38.8212 48.6147 39.8865 46.1562 40.9621C46.1562 42.7752 46.146 44.578 46.1357 46.3911C48.1947 44.8239 51.1141 42.9288 54.8939 41.3821C58.4791 39.9173 61.7161 39.2105 64.195 38.8622L62.6892 34.5394V34.5497Z" fill="#222221"/>
<path d="M61.2242 27.1233C58.1819 27.6969 54.6889 28.6086 50.9603 30.0734C49.2496 30.7392 47.6823 31.4563 46.2278 32.1836C46.1458 33.802 46.0536 35.4205 45.9717 37.039C47.4263 35.9737 49.2393 34.8264 51.4315 33.802C55.4367 31.9377 59.1243 31.2514 61.7876 30.9851L61.2242 27.113V27.1233Z" fill="#222221"/>
</svg>
