<?xml version="1.0" encoding="utf-8"?>
<!-- Generator: Adobe Illustrator 25.0.1, SVG Export Plug-In . SVG Version: 6.00 Build 0)  -->
<svg version="1.1" id="_Слой_1" xmlns="http://www.w3.org/2000/svg" xmlns:xlink="http://www.w3.org/1999/xlink" x="0px"
	 y="0px" viewBox="0 0 145.9 190.1" style="enable-background:new 0 0 145.9 190.1;" xml:space="preserve">
<style type="text/css">
	.st0{fill:#D5D3FF;}
	.st1{opacity:0.4;fill:url(#SVGID_1_);enable-background:new    ;}
	.st2{opacity:0.6;fill:url(#SVGID_2_);enable-background:new    ;}
	.st3{opacity:0.6;fill:url(#SVGID_3_);enable-background:new    ;}
	.st4{opacity:0.7;fill:url(#SVGID_4_);enable-background:new    ;}
	.st5{opacity:0.7;fill:url(#SVGID_5_);enable-background:new    ;}
	.st6{opacity:0.4;fill:url(#SVGID_6_);enable-background:new    ;}
	.st7{opacity:0.8;fill:url(#SVGID_7_);enable-background:new    ;}
	.st8{opacity:0.4;fill:url(#SVGID_8_);enable-background:new    ;}
</style>
<path class="st0" d="M159.5,133.8c-0.2,0.3-0.1,1-2.1,2.5c-1.1,0.8-2.3,2-2.6,3.2c-0.5,2.4-1.1,4.5-3.4,6.1
	c0.9,4.8,1.8,9.8,2.6,14.8c0.4,2.3,0.6,4.6,1,7c0.5,3.2,1.1,6.2,1.6,9.4c-2.5,0.8-5.1,1.6-7.8,2.4c-2.6,0.8-5.1,1.4-7.5,2.1
	c-5.7-14.3-7.4-20.9-7.6-23.9c0-0.7-0.1-2.7-1.3-4.6c-0.9-1.6-2.2-2.6-4.4-4.3c-2.4-1.9-3-1.9-4.9-3.4c-2.1-1.6-3.6-3.4-4.5-4.3
	c-2.7-3.6-3.1-7.6-3.4-10.2c-0.5-6.1-1.6-20.2-2.3-38.9c-0.6,1.1-1.5,2.9-2.6,5c-1.3,2.6-1.4,2.8-1.7,3.1c-2.2,2.1-5,0.8-7,2.8
	c-0.7,0.7-1.1,1.6-1.3,2.9c-1.4,6.1-3.3,28.1-3.4,29.2c-8.8,1.6-14.8,1.9-18.1,2c-1.7,0-3.7,0-3.7,0c-2.8,0-6.8-0.2-11.6-0.7
	c-6.4-0.7-14.9-2.1-24.7-4.9c2.2-5.1,2.8-9.3,3-12.2c0.2-2.8-0.1-6.3-0.5-13.4c-0.1-1.4-0.1-2.2-0.2-2.4c-0.1-1.1-0.4-2.8-1.3-4.4
	c-1.1-2.4-2.7-3.9-3.7-4.6c-1.3,6.3-2.6,11.5-3.4,15.1c-2.7,11.1-2.8,10.3-3.9,15.8c-1,5-1.1,6.9-2.5,10.3c-1.2,3-2.7,6.4-6.1,8.9
	c-0.8,0.6-0.7,0.4-4.7,2.9c-3.9,2.5-3.8,2.5-4.5,2.8c-2,0.8-3.5,0.7-5.1,2.2c-0.5,0.4-0.9,0.9-1,1.1c-1.1,1.4-1.5,2.7-1.7,3.1
	C3,156.4,2,158.4,0,162.3c-0.9,1.7-1.5,2.9-2.9,5.2c-1.6,2.8-3.8,6.4-6.6,10.8c-4.3-2.2-8.5-4.3-12.8-6.6c0.5-2.1,1.3-4.9,2.4-8.4
	c1-3,1.8-5.1,2.6-7.2c1.5-4,3.5-9.1,5.9-15.1c-0.4-1.6-1.2-4-2.5-6.7c-1.6-3.3-2.7-4.1-3.1-6c-0.8-3.6,1.3-6.7,2.9-9.2
	c4.6-7.1,9.1-6.4,13.2-13.4c0.4-0.8,0.1-0.3,2.9-5.9c1.7-3.6,3.2-6.4,4.2-8.4c0.3-0.6,0.7-1.5,1.1-2.7c1.8-4.6,2.6-8.3,2.9-9.8
	c1.6-7.7,3.7-20.4,5.7-30.4c0.8-4,1.8-8.6,3.6-14.2c1.1-3.3,2-5.5,3.1-8.4c1.8-4.5,2.5-5.6,2.9-6.2c0.7-1,2.6-3.9,6-6.1
	c3.7-2.5,4.2-1.1,12.8-4.3c3-1.2,6.4-1.6,9.1-3.3c0.5-0.3,2.1-1.4,3.9-1c0.7,0.2,1.3,0.5,1.6,0.8c0.7,1.9,1.4,3.7,2.1,5.5
	c3.5,16.6,9,32.4,17.5,47.4c3.9-8.9,7.1-17,9.8-23.8c2.2-5.6,4.2-11,5.8-18.4c0.5-2.5,0.9-4.7,1.1-6.1c0.8-0.7,2.2-1.8,4.2-2
	c1.2-0.1,2.1,0.1,3.1,0.4c3.6,1,6.3,2.2,7.1,2.6c2.4,1.1,6.7,3.1,7.8,3.6c0.2,0.1,0.9,0.4,1.8,0.8c0,0,0.9,0.5,1.8,1
	c5.1,3.1,10.3,21.2,10.3,21.2c0.3,1.1,0.7,2.5,1.2,4.3c0.8,3.3,1.1,5.7,3.4,15.8c1.7,7.3,3.4,14.3,6.1,23c2.2,7.2,4.3,13,5.8,16.9
	c4.9,11.2,8.6,20.4,11.2,26.6C159.6,126.1,161.5,131.1,159.5,133.8z"/>
<linearGradient id="SVGID_1_" gradientUnits="userSpaceOnUse" x1="-185.9165" y1="-474.6462" x2="-173.7298" y2="-474.6462" gradientTransform="matrix(0.9154 -0.4026 -0.4026 -0.9154 113.0611 -413.4766)">
	<stop  offset="0" style="stop-color:#5B597B"/>
	<stop  offset="0.49" style="stop-color:#9997C0"/>
</linearGradient>
<path class="st1" d="M130,83.9c6.6,5.7,13.1,11.6,19.7,17.3c-1.4,1.3-7.2,6.1-10.6,4.3c-0.6-0.3-1-0.8-2.6-4.2
	c-2.2-4.7-3.4-7.2-4.5-10.6C131.4,89.1,130.7,86.8,130,83.9L130,83.9z"/>
<linearGradient id="SVGID_2_" gradientUnits="userSpaceOnUse" x1="78.5" y1="-105.733" x2="92.63" y2="-105.733" gradientTransform="matrix(1 0 0 -1 0 -36)">
	<stop  offset="0" style="stop-color:#D5D3FF"/>
	<stop  offset="0.45" style="stop-color:#9D9AC4;stop-opacity:0.8"/>
	<stop  offset="1" style="stop-color:#5B597B"/>
</linearGradient>
<path class="st2" d="M92.6,91.8c-3.1-14.7-6.3-29.5-9.4-44.2c-0.2,0.4-0.3,0.7-0.5,1.1c-1.4,3.2-2.8,6.5-4.2,9.7
	C83.2,69.6,87.9,80.7,92.6,91.8z"/>
<linearGradient id="SVGID_3_" gradientUnits="userSpaceOnUse" x1="52.437" y1="-119.8239" x2="63.8" y2="-119.8239" gradientTransform="matrix(1 0 0 -1 0 -36)">
	<stop  offset="0" style="stop-color:#D5D3FF"/>
	<stop  offset="0.45" style="stop-color:#B4B2DC;stop-opacity:0.4"/>
	<stop  offset="1" style="stop-color:#9997C0"/>
</linearGradient>
<path class="st3" d="M63.8,102.4c-1.8-3.8-4.4-9.5-6.7-16.6c-3.5-10.9-5-20.5-4.6-20.6S54,73.8,59,84.6c0.9,2,2.4,5,3.5,9.6
	C63.3,97.6,63.6,100.4,63.8,102.4z"/>
<path d="M119.5,14.8c-1.3-0.6-2.8-1.2-5.6-2.4c-0.5-0.2-0.9-0.4-1.3-0.6c-1.4-0.6-2.4-1.1-2.6-1.2c-1-0.4-3.1-1.3-8.2-3.1
	c-0.7-0.1-1.6-0.2-2.6-0.1c-1,0.1-1.8,0.3-2.4,0.5c-0.4,0.2-1,0.5-1.5,1c-0.6,0.7-0.7,1.5-0.9,2.6c-0.3,1.5-0.3,0.8-0.9,3.2
	c-0.7,2.6-4.3,17.7-5.1,19.8c-0.2,0.6-0.5,1.3-0.5,1.3c-0.4,0.9-0.7,1.4-2.6,5.9c-3,7-5.2,12.8-6.7,16.7
	c-3.6-6.4-7.4-14.1-10.6-23.1c-2.9-7.9-5.2-15.9-7-24.1l-1.4-5.7c-0.4-0.3-0.7-0.6-1.1-0.9c-0.4-0.4-1.2-0.4-1.8-0.3
	c-1.5,0.3-2.9,0.8-4.4,1.4c-2.5,0.9-4.9,2.2-7.5,2.9c-4.2,1.2-8.4,2-12.4,4c-2.9,1.4-5.4,3.3-7.1,6.1c-1.1,1.9-1.8,4.1-2.7,6.1
	c-1.1,2.7-2.4,5.3-3.3,8.1c-1.5,4.7-3,9.5-3.9,14.3c-2,10.2-3.6,20.4-5.6,30.5c-0.7,3.7-1.9,7.3-2.9,11c-0.2,0.9-0.5,1.7-0.7,2.6
	c-0.4,1.4-0.7,2.8-1.1,4.2c0.1,0,0.2-0.1,0.3-0.1c0.2-0.2,0.4-0.4,0.4-0.6C7.3,89.9,9,85,10.3,80.1c1.3-5,2.3-10.2,3.3-15.3
	c1.1-6.1,2-12.3,3.1-18.3c1.4-7.4,3.7-14.5,6.9-21.3c0.3-0.7,0.7-2.1,1.6-3.8c0.6-1.1,2.2-4.1,4.6-6.1c1.5-1.3,2.4-1.4,8.4-3.4
	c0,0,2.2-0.7,9.1-3.1c2.2-0.8,5.5-1.9,9.4-3.5c0.3,2.2,0.9,5.3,1.7,9c0.8,3.6,2.9,10.3,7.7,23c3,7.9,6.9,15.4,10.7,23
	c4.3,8.5,14.3,31.9,17.1,35.9c0.2,0.3,1.2,1.7,2.1,3.8c0.5,1.1,0.8,2.1,1,2.8c-4.3,0.2-8.4,0.4-12.4,0.6c-0.8,0-1.6-0.4-2-1.4
	c-1-2.5-2.1-4.8-3.2-7.3c-0.4-1-0.8-1.9-1.2-2.9c-1.2-3-5.4-11.6-15.7-31.6c-0.1,0.1-0.2,0.1-0.3,0.2c0.8,1.9,1.6,3.7,2.4,5.5
	c5.7,12.4,11.4,24.7,17.2,37.1c-4.6-0.2-9.1-0.3-13.6-0.5c-0.4,0-0.7-0.5-1.2-1.1c-3-3-4.9-7-6.3-11c1.6,5,2.6,9.7,1.5,10.8
	c-0.1,0.1-0.5,0.4-0.5,0.7c-0.5,0-1-0.1-1.6-0.2c-0.4,0-0.6-0.1-0.9-0.1c-3.7-0.3-7.4-0.5-11.1-0.8c-0.7,0-1.4,0.1-2.2,0.2
	c0,0.2,0,0.3,0,0.5c0.3,0.2,0.6,0.4,1,0.5c1.7,0.3,3.5,0.6,5.2,0.8c3.1,0.2,6.2,0.2,9.3,0.4c7.3,0.4,14.6,1,21.9,1.2
	c2.6,0.1,7,0.6,12.8-0.4c0.2,0,1.4-0.8,2.9-0.6c0.2,0,0.3,0.1,0.4,0.1c-0.3,3.2-0.7,6.3-1.1,9.7c-1,6.8-2.3,13-3.8,18.8
	c-6.7,0.7-14.2,1-22.4,0.8c-11.3-0.3-21.4-1.6-30-3.3c1.1-3.2,2.3-7.7,2.4-13.1c0.1-5.7-1.1-9.9-1.9-12.8c-0.8-2.7-1.4-4.1-1.7-4.7
	c-1.8-3.8-3.2-4.3-4.7-6.8c-1.3-2.2-1.1-6-2-13.3c-0.3-2.7-0.2-5.3-0.3-8c-0.1-3.8-0.3-7.6-0.4-11.4C33.4,54.3,33.7,49.1,33,44
	c0-0.3-0.1-0.6-0.1-1c0-4.2,0.1-8.2,0-12.4c0-1.5-0.3-3-0.5-4.4c0.2,17.7,0.4,35.4,0.6,53.1c0.1,1.2,0.2,3,0.5,4.9
	c0.5,3.7,0.7,5.4,1.3,7c0.3,0.9,0.7,1.7,1,2.3c1.9,3.5,4.5,4.7,5.2,9.3c0,0.2,0.1,1,0.2,2.4c0.5,7.1,0.7,10.8,0.5,13.4
	c-0.2,2.9-0.8,7-3,12.2c9.8,2.9,18.3,4.3,24.7,4.9c7.8,0.8,13.6,0.8,15.3,0.7c7.4-0.1,13.7-1,18.5-1.8c1.7-14.2,2.9-24.8,3.4-29
	c0.2-1.4,0.7-2.1,1.3-2.7c2-2.1,4.9-0.8,7.1-3.1c0.3-0.3,0.6-1.1,1.4-2.5c0.6-1,1.3-2.6,2.3-5.1c0.1-0.1,0.1-0.3,0.2-0.4
	c2.2-5.9,3.2-11.9,3.2-11.9c2.1-11.9,0-13.3,1.9-23.4c0.7-3.7,2-9.4,2.2-13.2c0-0.7-0.1-1.5,0.3-2.5c0.7-1.7,1.7-3.4,2.4-5
	c0.3-0.6,0.4-1.3,0.6-1.9c-0.1,0-0.2-0.1-0.3-0.1c-1.1,2.3-2.2,4.6-3.4,7c-1.7,10.9-2.3,13.2-2.5,13.2c-0.3,0,0.8-6.6-0.4-15.2
	c-0.5-4-1.4-7.2-2.1-9.4c-0.2,1.1-0.2,2.1-0.1,3.1c0.4,3.2,1,6.3,1.2,9.5c0.2,2.8,0.2,5.5,0.2,8.3c0.1,5.2,0.3,10.6,0.1,15.9
	c-0.2,5.9-1,10.3-1.4,12.9c0,0-1.6,10-4.8,16.3c-0.7,1.3-1.4,3.8-3.6,4.7c-0.3,0.2-0.6,0.3-1.2,0.4c-1.5,0.4-3.6,0.9-6.4,1.5
	c-0.7-1.3-1.4-2.5-2.1-3.9c-1-2.1-0.7-3.1,0.7-4.7c1.7-2.1,3.2-4.3,4.8-6.3c1.5-2,3-4,4.5-5.8c0.3-0.4,0.6-0.9,0.9-1.3
	c-3.9,4.7-7.9,9.5-11.9,14.1c-1.8-2.1-2.8-4-3.5-5.2c-0.4-0.9-0.8-1.8-1.5-3.6c-0.6-1.6-1.1-3-1.5-3.9c-0.8-1.6-1.5-3.2-2.3-4.7
	c-0.7-1.5-1.1-2.8-1.9-4c-0.7-1.1-0.8-2.1-0.9-3c-0.1-0.7-0.3-2.8,1.6-5.6c-0.4,0.5-0.8,1.1-1.1,1.7c-0.6,1.1-1.1,2.1-1.4,3
	c-1.5-3-2.9-5.9-4.4-8.9c0.9-2.4,2.2-6,3.8-10.6c0-0.1,0.1-0.5,0.3-1c0,0,0.2-0.5,0.3-0.9c0.7-1.8,3.8-7.7,3.8-7.7
	c1.2-2.5,2.1-4.3,2.1-4.3c1.6-4.9,2.6-8.8,3.3-11.6c0.6-2.4,1.4-4.8,2-7.3c1-4.4,1.5-7.2,3.7-8.2c0.6-0.3,1.2-0.3,1.8-0.3
	c2.2-0.1,3.6,1,5.8,2.2c4.1,2.2,4.9,1.7,10,4.4c0.6,0.3,1.1,0.6,1.8,1c0.6,0.3,1.6,1,2.8,1.8c2.1,1.4,3.5,2.8,3.7,2.9
	c1.8,2.2,2.7,4.1,3.1,5.5c1.2,3.5,2.5,7.2,2.6,8.9c0,0.2,0,0.8,0.4,1c0.3,0.2,0.7,0,0.9-0.1c-0.1-0.3-0.1-0.5-0.2-0.8
	C128.5,21.9,123.6,16.9,119.5,14.8z M59.7,86.6c0.3,1.2,0.7,2.3,1.2,3.6C60.5,89,60.2,87.8,59.7,86.6z M58.5,82.2
	c-2.8-9.8-5.8-16.5-6-16.9c0.1,0.4,1.4,5.4,3.9,12.2c0.8,2.1,2.1,5.4,3.3,9.1C59.2,85,58.8,83.5,58.5,82.2z M149.2,99.6
	c-0.2-0.6-0.4-1.2-0.6-1.7c-1.4-4.3-2.9-8.4-4.4-12.7c-0.6-1.6-3-9-8.5-30.5c-1.3-4.9-3-11.8-4.9-20c-0.2-0.4-0.4-0.7-0.6-1.1
	c-0.1,0.5-0.3,1.1-0.4,1.6c2.6,10.3,4.3,18.3,5.4,23.9c0.6,2.9,1,5.5,2,9.4c0.8,3.1,1.9,6.8,5,16c2,6,3.8,11,5.2,14.4
	c-1.5-1.6-3.8-3.9-6.8-6.3c-2.2-1.9-2.7-1.6-3.7-3c-2.9-3.7-5.6-7.4-8.2-11.3c-2-3-3.8-6.1-4.7-9.8c-0.2-0.8-0.7-1.4-1.1-2.1
	c-0.2,0-0.3,0.1-0.5,0.1c1.8,6.6,3.3,11.5,3.7,12.6c0.3,0.8,0.7,1.7,0.7,1.7c0.1,0.4,0.3,0.8,0.5,1.3c0.5,1.2,1,2.5,1.7,3.9
	c1,2.3,2.1,4.4,3.1,6.7c1.1,2.2,2,4.4,3.2,6.6c1.1,2.1,2.4,4.1,3.7,6.1c-1.5-3.7-3.4-7.1-5-10.7c-1.6-3.6-3.6-6.9-4.1-11
	c1,0.8,1.8,1.8,2.5,2.8c2,2.9,3.9,5.8,7.2,7.1c2.6,1.1,4.9,2.6,6.3,5.3c0.3,0.6,0.7,1.2,1.1,1.7c0.6,0.8,1.4,0.4,1.9-0.1
	C149.2,100.5,149.3,99.9,149.2,99.6z M59.7,86.6c0.3,1.2,0.7,2.3,1.2,3.6C60.5,89,60.2,87.8,59.7,86.6z M58.5,82.2
	c-2.8-9.8-5.8-16.5-6-16.9c0.1,0.4,1.4,5.4,3.9,12.2c0.8,2.1,2.1,5.4,3.3,9.1C59.2,85,58.8,83.5,58.5,82.2z"/>
<linearGradient id="SVGID_4_" gradientUnits="userSpaceOnUse" x1="-11.7652" y1="-204.4723" x2="6.1495" y2="-189.0728" gradientTransform="matrix(1 0 0 -1 0 -36)">
	<stop  offset="0.49" style="stop-color:#7D7BA1"/>
	<stop  offset="1" style="stop-color:#D5D3FF"/>
</linearGradient>
<path class="st4" d="M-9.4,178.6c-1.8-1.1-3.5-2.2-5.3-3.2c0,0,16.6-24.5,15.8-30.3l6.1,3.7C1.7,158.8-3.9,168.7-9.4,178.6z"/>
<linearGradient id="SVGID_5_" gradientUnits="userSpaceOnUse" x1="-1195.6334" y1="-689.1234" x2="-1181.7302" y2="-677.1723" gradientTransform="matrix(0.2265 -0.974 -0.974 -0.2265 -264.2394 -1179.2312)">
	<stop  offset="0.49" style="stop-color:#9997C0"/>
	<stop  offset="0.8156" style="stop-color:#D5D3FF"/>
	<stop  offset="1" style="stop-color:#B1AFD6;stop-opacity:0.4"/>
</linearGradient>
<path class="st5" d="M138.9,145.9c-2.3-3.7-4.8-7.5-7.4-11.3c-2.1-3.1-4.1-5.9-6.2-8.8c0.6-2.3,1.3-3.6,2.1-3.7
	c1.4-0.2,3.2,2.7,5.5,8.6L138.9,145.9L138.9,145.9z"/>
<path d="M31.4,113.8c-0.6,2.1-1,3.8-1.8,6.1c-1.5,4.7-3.1,9.5-4.6,14.3c-1.4,4.3-3.5,8.2-7.3,10.3c-3.1,1.7-6.4,2.9-9.6,4.3
	c-0.2,0.1-0.6,0.1-0.8-0.1c-1.7-1.2-3.4-2.4-5.6-4.1c1.7-1.9,3.4-3.8,5.1-5.6c1.5-1.8,3.1-3.7,4.8-5.4c1.2-1.3,2.5-2.6,3.7-3.8
	c0.2-0.5,0.5-1.1,0.7-1.6c-0.2,0.1-0.5,0.1-0.7,0.3c-1.9,1.8-3.8,3.5-5.6,5.3c-2.5,2.7-5,5.4-7.3,8.3c-1,1.3-2,1.6-3.5,1.4
	c1.5-7.7,2.2-11.6,2-11.7c-0.2,0-1.1,3.7-2.9,10.9c-0.8-0.4-2-0.9-3.6-1.3c-3.1-1-3.5-0.3-4.5-1c-3.2-2.5-2.1-6.2-4.8-10.3
	c-0.3-0.4-1.1-1.6-1.2-3.2c0-0.9,0.2-1.7,0.3-2.2c0.9-3,1.5-4.7,2.3-6.1c2.3-4,5.6-4,9.9-8.3c2.7-2.7,4-5.3,6.7-10.7
	c0.8-1.6,1.6-3.3,2.2-4.7c1.1-2.7,1.8-4.7,1.6-4.8c-0.1-0.1-0.4,0.3-0.8,0.9c-1.1,1.6-3,5-4.5,8c-1.6,3.2-1.7,4-2.5,5.4
	c-4.6,9.1-13.1,10.3-16.2,17.8c-0.5,1.2-1.4,3.7-0.6,6.1c0.3,1,0.8,1.9,1.6,2.8c0.9,1,1.9,2.4,1.9,3.6c0,2.5,0.1,4.6,2.1,6.7
	c-1.9,4.6-3.8,9.3-5.7,13.9c-0.9,2.2-1.6,4.4-2.4,6.6c-1.2,3-2.4,5.9-3.5,8.9c2.4,1.3,4.8,2.7,7.1,4c2.3,1.3,4.8,2.7,7.2,4
	c9.7-16,13-22,13.4-23.4c0.1-0.3,0.5-1.8,1.8-3.2c1.3-1.4,2.3-1.3,5.6-2.8c1.2-0.5,2.7-1.3,4.6-2.4c2.4-1.4,3.7-2,4.8-3
	c3.1-2.8,4.8-6.3,5.8-9.7c2-6.2,5.5-20.6,9.3-39.8C34.2,102.8,32.6,109.2,31.4,113.8z M5.4,150.1c-0.3,2.8-13.3,25-15,27.8
	c-4.2-2.1-8.5-4.1-12.7-6c4-9.9,7.9-19.8,12.1-30.1c1,0.4,2,0.8,3,1.2c1.2,0.5,1.8,0.7,3.3,1.3c2.2,0.8,4.3,2,6.5,2.7
	c1.1,0.4,2.2,0.7,2.7,1.8C5.2,148.6,5.5,149.2,5.4,150.1z"/>
<path d="M160.2,127.6c-1.1-6.1-8.4-23.9-11.6-29.8c-0.7-1.2-1.1-1.9-1.3-1.8s0.4,1.7,1.6,4.7c0.5,1.3,1.1,2.8,1.8,4.6
	c1.3,3.2,5,12.3,6.7,18c0.4,1.4,0.6,3.1,1,6.4c0.1,0.5,0.1,1.3-0.1,2.2c-0.4,1.6-1.4,2.5-1.8,2.9c-3.6,3.4-3.2,7.3-6.9,9.1
	c-1.1,0.6-1.3-0.2-4.6,0.1c-1.6,0.1-2.9,0.4-3.8,0.6c-0.2-7.5-0.4-11.3-0.6-11.3c-0.2,0-0.3,4-0.5,11.8c-1.5,0-2.4-0.6-3.1-2.1
	c-1.6-3.3-3.5-6.5-5.4-9.6c-1.3-2.2-2.9-4.3-4.3-6.4c-0.1-0.2-0.4-0.3-0.6-0.4c0.1,0.6,0.3,1.1,0.4,1.7c0.9,1.4,1.9,2.9,2.8,4.4
	c1.3,2.2,2.5,4.3,3.6,6.3c1.2,2.2,2.5,4.3,3.8,6.5c-2.5,1.1-4.4,2-6.3,2.8c-0.2,0.1-0.6,0.1-0.8-0.1c-2.9-2.1-5.9-3.9-8.5-6.2
	c-3.3-2.9-4.6-7.1-5-11.6c-0.5-4.9-1.1-10-1.5-14.9c-0.2-2.6-0.2-3.3-0.4-5.3c-0.8-11.2-1.3-18.4-1.7-18.4c-0.1,0-0.1,0.1-0.2,0.4
	c-0.5,3.6,1.5,30.4,2.2,38.5c0.2,2.7,1,7,3.7,10.7c0.9,1.2,1.9,2.1,4,3.9c1.7,1.5,3,2.5,4.1,3.3c2.9,2.1,4,2.3,4.9,3.9
	c0.9,1.5,1,3,1.1,3.5c0.3,2.9,2.1,9.6,8.2,25.7c5.2-1.6,10.4-3.2,15.6-4.8c-0.4-3.2-1.1-6.2-1.6-9.4c-0.4-2.4-0.6-4.6-1-7
	c-0.9-4.9-1.8-9.9-2.6-14.8c2.3-1.6,2.9-3.8,3.4-6.1c0.3-1.2,1.5-2.4,2.6-3.2c0.9-0.8,1.6-1.6,2.1-2.5
	C160.7,131.5,160.5,129,160.2,127.6L160.2,127.6z M155.1,177c-4.6,1.1-9.2,2.2-13.7,3.4c-1-3.1-9.1-27.5-8.8-30.3
	c0.1-0.9,0.5-1.5,0.5-1.5c0.7-0.9,1.9-1,3-1.1c2.3-0.3,4.6-0.9,6.9-1.3c1.6-0.2,2.2-0.3,3.4-0.6c1.1-0.2,2.2-0.4,3.2-0.6
	C151.4,156,153.2,166.5,155.1,177L155.1,177z"/>
<path d="M111.7,75.8L111.7,75.8L111.7,75.8z"/>
<path d="M111.4,76.2L111.4,76.2L111.4,76.2z"/>
<linearGradient id="SVGID_6_" gradientUnits="userSpaceOnUse" x1="-3.0951" y1="-174.8102" x2="1.8019" y2="-170.5972" gradientTransform="matrix(1 0 0 -1 0 -36)">
	<stop  offset="0.49" style="stop-color:#7D7BA1"/>
	<stop  offset="1" style="stop-color:#D5D3FF"/>
</linearGradient>
<path class="st6" d="M-2,142.9c0,0-3-12.7,2.9-10.9L-2,142.9z"/>
<linearGradient id="SVGID_7_" gradientUnits="userSpaceOnUse" x1="61.8208" y1="-117.5011" x2="82.0687" y2="-117.5011" gradientTransform="matrix(1 0 0 -1 0 -36)">
	<stop  offset="0" style="stop-color:#D5D3FF"/>
	<stop  offset="0.45" style="stop-color:#5B597B;stop-opacity:0.7"/>
	<stop  offset="1" style="stop-color:#9997C0;stop-opacity:0.7"/>
</linearGradient>
<path class="st7" d="M82.1,102.8c0,0-24.5-34.5-19.6-42.6L82.1,102.8z"/>
<linearGradient id="SVGID_8_" gradientUnits="userSpaceOnUse" x1="47.89" y1="924.4074" x2="54.0226" y2="924.4074" gradientTransform="matrix(1 0 0 1 0 -808.4724)">
	<stop  offset="0.49" style="stop-color:#7D7BA1"/>
	<stop  offset="1" style="stop-color:#D5D3FF"/>
</linearGradient>
<path class="st8" d="M47.9,105.6c0,0,4.3,7.2,0,20.7c0.7,0.1,1.5,0.1,2.4-0.2c3.4-1.4,4.2-7.3,3.5-11.1
	C53,109.7,49.2,106.6,47.9,105.6z"/>
</svg>
