<svg width="107" height="80" viewBox="0 0 107 80" fill="none" xmlns="http://www.w3.org/2000/svg">
<path d="M22.434 35.5407L22.0425 35.7754C20.9286 36.4633 20.6416 37.9359 21.3295 39.0498L23.3831 42.2321C24.0711 43.346 25.5436 43.633 26.6576 42.9451L27.049 42.7103C28.163 42.0224 28.45 40.5498 27.762 39.4359L25.7085 36.2537C25.0205 35.1397 23.548 34.8527 22.434 35.5407ZM27.0012 39.867C27.509 40.6721 27.2842 41.771 26.479 42.2789C25.6739 42.7867 24.575 42.5618 24.0671 41.7567L22.1612 38.762C21.6534 37.9569 21.8782 36.858 22.6834 36.3502C23.0971 36.0771 23.5373 36.024 23.9877 36.1305C24.4382 36.237 24.8 36.4971 25.0731 36.9107L26.979 39.9054L27.0012 39.867Z" fill="url(#paint0_linear_332_6)"/>
<path d="M22.434 35.5407L22.0425 35.7754C20.9286 36.4633 20.6416 37.9359 21.3295 39.0498L23.3831 42.2321C24.0711 43.346 25.5436 43.633 26.6576 42.9451L27.049 42.7103C28.163 42.0224 28.45 40.5498 27.762 39.4359L25.7085 36.2537C25.0205 35.1397 23.548 34.8527 22.434 35.5407ZM27.0012 39.867C27.509 40.6721 27.2842 41.771 26.479 42.2789C25.6739 42.7867 24.575 42.5618 24.0671 41.7567L22.1612 38.762C21.6534 37.9569 21.8782 36.858 22.6834 36.3502C23.0971 36.0771 23.5373 36.024 23.9877 36.1305C24.4382 36.237 24.8 36.4971 25.0731 36.9107L26.979 39.9054L27.0012 39.867Z" fill="url(#paint1_linear_332_6)"/>
<path d="M21.0742 32.8669C20.9157 32.6195 20.5949 32.5421 20.3579 32.6941C20.1208 32.8461 20.0572 33.1698 20.2157 33.4172L23.0151 37.7843C23.1737 38.0317 23.4944 38.1091 23.7315 37.9571C23.9685 37.8051 24.0322 37.4814 23.8736 37.234L21.0742 32.8669Z" fill="url(#paint2_linear_332_6)"/>
<path d="M21.0742 32.8669C20.9157 32.6195 20.5949 32.5421 20.3579 32.6941C20.1208 32.8461 20.0572 33.1698 20.2157 33.4172L23.0151 37.7843C23.1737 38.0317 23.4944 38.1091 23.7315 37.9571C23.9685 37.8051 24.0322 37.4814 23.8736 37.234L21.0742 32.8669Z" fill="url(#paint3_linear_332_6)"/>
<path d="M84.4893 35.9516L84.8808 36.1863C85.9947 36.8742 86.2818 38.3468 85.5938 39.4607L83.5402 42.643C82.8523 43.7569 81.3797 44.0439 80.2658 43.356L79.8743 43.1212C78.7604 42.4333 78.4733 40.9607 79.1613 39.8468L81.2149 36.6646C81.9028 35.5506 83.3754 35.2636 84.4893 35.9516ZM79.9222 40.2779C79.4143 41.083 79.6391 42.1819 80.4443 42.6897C81.2495 43.1976 82.3484 42.9727 82.8562 42.1675L84.7621 39.1729C85.27 38.3678 85.0451 37.2689 84.2399 36.7611C83.8263 36.4879 83.3861 36.4349 82.9356 36.5414C82.4851 36.6479 82.1234 36.908 81.8502 37.3216L79.9443 40.3162L79.9222 40.2779Z" fill="url(#paint4_linear_332_6)"/>
<path d="M84.4893 35.9516L84.8808 36.1863C85.9947 36.8742 86.2818 38.3468 85.5938 39.4607L83.5402 42.643C82.8523 43.7569 81.3797 44.0439 80.2658 43.356L79.8743 43.1212C78.7604 42.4333 78.4733 40.9607 79.1613 39.8468L81.2149 36.6646C81.9028 35.5506 83.3754 35.2636 84.4893 35.9516ZM79.9222 40.2779C79.4143 41.083 79.6391 42.1819 80.4443 42.6897C81.2495 43.1976 82.3484 42.9727 82.8562 42.1675L84.7621 39.1729C85.27 38.3678 85.0451 37.2689 84.2399 36.7611C83.8263 36.4879 83.3861 36.4349 82.9356 36.5414C82.4851 36.6479 82.1234 36.908 81.8502 37.3216L79.9443 40.3162L79.9222 40.2779Z" fill="url(#paint5_linear_332_6)"/>
<path d="M85.8491 33.2778C86.0077 33.0304 86.3284 32.953 86.5655 33.105C86.8026 33.2569 86.8662 33.5807 86.7076 33.8281L83.9082 38.1952C83.7497 38.4426 83.429 38.52 83.1919 38.368C82.9548 38.216 82.8912 37.8923 83.0498 37.6449L85.8491 33.2778Z" fill="url(#paint6_linear_332_6)"/>
<path d="M85.8491 33.2778C86.0077 33.0304 86.3284 32.953 86.5655 33.105C86.8026 33.2569 86.8662 33.5807 86.7076 33.8281L83.9082 38.1952C83.7497 38.4426 83.429 38.52 83.1919 38.368C82.9548 38.216 82.8912 37.8923 83.0498 37.6449L85.8491 33.2778Z" fill="url(#paint7_linear_332_6)"/>
<path d="M3.72123 3.95229L3.32972 4.18701C2.21579 4.87496 1.92878 6.34751 2.61673 7.46144L4.67032 10.6437C5.35827 11.7576 6.83081 12.0446 7.94474 11.3567L8.33622 11.122C9.45014 10.434 9.73719 8.96146 9.04923 7.84754L6.99565 4.66529C6.30769 3.55136 4.83515 3.26433 3.72123 3.95229ZM8.28838 8.27859C8.79623 9.08375 8.57139 10.1826 7.76623 10.6905C6.96107 11.1983 5.86218 10.9734 5.35433 10.1683L3.44841 7.17367C2.94055 6.36851 3.16542 5.26965 3.97059 4.7618C4.38425 4.48868 4.82445 4.43564 5.27492 4.54213C5.72539 4.64863 6.08716 4.90871 6.36029 5.32237L8.26621 8.31698L8.28838 8.27859Z" fill="url(#paint8_linear_332_6)"/>
<path d="M3.72123 3.95229L3.32972 4.18701C2.21579 4.87496 1.92878 6.34751 2.61673 7.46144L4.67032 10.6437C5.35827 11.7576 6.83081 12.0446 7.94474 11.3567L8.33622 11.122C9.45014 10.434 9.73719 8.96146 9.04923 7.84754L6.99565 4.66529C6.30769 3.55136 4.83515 3.26433 3.72123 3.95229ZM8.28838 8.27859C8.79623 9.08375 8.57139 10.1826 7.76623 10.6905C6.96107 11.1983 5.86218 10.9734 5.35433 10.1683L3.44841 7.17367C2.94055 6.36851 3.16542 5.26965 3.97059 4.7618C4.38425 4.48868 4.82445 4.43564 5.27492 4.54213C5.72539 4.64863 6.08716 4.90871 6.36029 5.32237L8.26621 8.31698L8.28838 8.27859Z" fill="url(#paint9_linear_332_6)"/>
<path d="M2.36141 1.27849C2.20284 1.03111 1.88211 0.95375 1.64504 1.10571C1.40797 1.25767 1.34435 1.58141 1.50292 1.82879L4.30229 6.19596C4.46086 6.44334 4.78158 6.52069 5.01865 6.36872C5.25572 6.21676 5.31935 5.89304 5.16078 5.64567L2.36141 1.27849Z" fill="url(#paint10_linear_332_6)"/>
<path d="M2.36141 1.27849C2.20284 1.03111 1.88211 0.95375 1.64504 1.10571C1.40797 1.25767 1.34435 1.58141 1.50292 1.82879L4.30229 6.19596C4.46086 6.44334 4.78158 6.52069 5.01865 6.36872C5.25572 6.21676 5.31935 5.89304 5.16078 5.64567L2.36141 1.27849Z" fill="url(#paint11_linear_332_6)"/>
<path d="M103.202 4.36318L103.594 4.5979C104.708 5.28585 104.995 6.7584 104.307 7.87233L102.253 11.0546C101.565 12.1685 100.093 12.4555 98.9786 11.7676L98.5871 11.5328C97.4732 10.8449 97.1862 9.37235 97.8741 8.25843L99.9277 5.07617C100.616 3.96225 102.088 3.67522 103.202 4.36318ZM98.635 8.68948C98.1271 9.49464 98.352 10.5935 99.1571 11.1014C99.9623 11.6092 101.061 11.3843 101.569 10.5792L103.475 7.58456C103.983 6.77939 103.758 5.68054 102.953 5.17269C102.539 4.89957 102.099 4.84653 101.648 4.95302C101.198 5.05952 100.836 5.31959 100.563 5.73326L98.6571 8.72787L98.635 8.68948Z" fill="url(#paint12_linear_332_6)"/>
<path d="M103.202 4.36318L103.594 4.5979C104.708 5.28585 104.995 6.7584 104.307 7.87233L102.253 11.0546C101.565 12.1685 100.093 12.4555 98.9786 11.7676L98.5871 11.5328C97.4732 10.8449 97.1862 9.37235 97.8741 8.25843L99.9277 5.07617C100.616 3.96225 102.088 3.67522 103.202 4.36318ZM98.635 8.68948C98.1271 9.49464 98.352 10.5935 99.1571 11.1014C99.9623 11.6092 101.061 11.3843 101.569 10.5792L103.475 7.58456C103.983 6.77939 103.758 5.68054 102.953 5.17269C102.539 4.89957 102.099 4.84653 101.648 4.95302C101.198 5.05952 100.836 5.31959 100.563 5.73326L98.6571 8.72787L98.635 8.68948Z" fill="url(#paint13_linear_332_6)"/>
<path d="M104.562 1.68938C104.721 1.442 105.041 1.36464 105.278 1.5166C105.515 1.66856 105.579 1.9923 105.42 2.23967L102.621 6.60685C102.462 6.85423 102.142 6.93158 101.905 6.77961C101.668 6.62765 101.604 6.30393 101.763 6.05655L104.562 1.68938Z" fill="url(#paint14_linear_332_6)"/>
<path d="M104.562 1.68938C104.721 1.442 105.041 1.36464 105.278 1.5166C105.515 1.66856 105.579 1.9923 105.42 2.23967L102.621 6.60685C102.462 6.85423 102.142 6.93158 101.905 6.77961C101.668 6.62765 101.604 6.30393 101.763 6.05655L104.562 1.68938Z" fill="url(#paint15_linear_332_6)"/>
<path d="M17.6998 27.2011L17.3082 27.4358C16.1943 28.1237 15.9073 29.5963 16.5953 30.7102L18.6488 33.8925C19.3368 35.0064 20.8093 35.2934 21.9233 34.6055L22.3147 34.3707C23.4287 33.6828 23.7157 32.2102 23.0278 31.0963L20.9742 27.9141C20.2862 26.8001 18.8137 26.5131 17.6998 27.2011ZM22.2669 31.5274C22.7748 32.3325 22.5499 33.4314 21.7448 33.9393C20.9396 34.4471 19.8407 34.2222 19.3329 33.4171L17.4269 30.4224C16.9191 29.6173 17.144 28.5184 17.9491 28.0106C18.3628 27.7375 18.803 27.6844 19.2535 27.7909C19.7039 27.8974 20.0657 28.1575 20.3388 28.5712L22.2447 31.5658L22.2669 31.5274Z" fill="url(#paint16_linear_332_6)"/>
<path d="M17.6998 27.2011L17.3082 27.4358C16.1943 28.1237 15.9073 29.5963 16.5953 30.7102L18.6488 33.8925C19.3368 35.0064 20.8093 35.2934 21.9233 34.6055L22.3147 34.3707C23.4287 33.6828 23.7157 32.2102 23.0278 31.0963L20.9742 27.9141C20.2862 26.8001 18.8137 26.5131 17.6998 27.2011ZM22.2669 31.5274C22.7748 32.3325 22.5499 33.4314 21.7448 33.9393C20.9396 34.4471 19.8407 34.2222 19.3329 33.4171L17.4269 30.4224C16.9191 29.6173 17.144 28.5184 17.9491 28.0106C18.3628 27.7375 18.803 27.6844 19.2535 27.7909C19.7039 27.8974 20.0657 28.1575 20.3388 28.5712L22.2447 31.5658L22.2669 31.5274Z" fill="url(#paint17_linear_332_6)"/>
<path d="M16.4939 24.6161C16.3354 24.3688 16.0146 24.2914 15.7776 24.4434C15.5405 24.5953 15.4769 24.9191 15.6354 25.1664L18.4348 29.5336C18.5934 29.781 18.9141 29.8583 19.1512 29.7064C19.3882 29.5544 19.4519 29.2307 19.2933 28.9833L16.4939 24.6161Z" fill="url(#paint18_linear_332_6)"/>
<path d="M16.4939 24.6161C16.3354 24.3688 16.0146 24.2914 15.7776 24.4434C15.5405 24.5953 15.4769 24.9191 15.6354 25.1664L18.4348 29.5336C18.5934 29.781 18.9141 29.8583 19.1512 29.7064C19.3882 29.5544 19.4519 29.2307 19.2933 28.9833L16.4939 24.6161Z" fill="url(#paint19_linear_332_6)"/>
<path d="M89.2237 27.6122L89.6152 27.8469C90.7291 28.5349 91.0162 30.0074 90.3282 31.1214L88.2746 34.3036C87.5867 35.4175 86.1141 35.7046 85.0002 35.0166L84.6087 34.7819C83.4948 34.0939 83.2078 32.6214 83.8957 31.5075L85.9493 28.3252C86.6372 27.2113 88.1098 26.9242 89.2237 27.6122ZM84.6566 31.9385C84.1487 32.7437 84.3736 33.8425 85.1787 34.3504C85.9839 34.8582 87.0828 34.6334 87.5906 33.8282L89.4965 30.8336C90.0044 30.0284 89.7795 28.9296 88.9744 28.4217C88.5607 28.1486 88.1205 28.0956 87.67 28.202C87.2195 28.3085 86.8578 28.5686 86.5847 28.9823L84.6787 31.9769L84.6566 31.9385Z" fill="url(#paint20_linear_332_6)"/>
<path d="M89.2237 27.6122L89.6152 27.8469C90.7291 28.5349 91.0162 30.0074 90.3282 31.1214L88.2746 34.3036C87.5867 35.4175 86.1141 35.7046 85.0002 35.0166L84.6087 34.7819C83.4948 34.0939 83.2078 32.6214 83.8957 31.5075L85.9493 28.3252C86.6372 27.2113 88.1098 26.9242 89.2237 27.6122ZM84.6566 31.9385C84.1487 32.7437 84.3736 33.8425 85.1787 34.3504C85.9839 34.8582 87.0828 34.6334 87.5906 33.8282L89.4965 30.8336C90.0044 30.0284 89.7795 28.9296 88.9744 28.4217C88.5607 28.1486 88.1205 28.0956 87.67 28.202C87.2195 28.3085 86.8578 28.5686 86.5847 28.9823L84.6787 31.9769L84.6566 31.9385Z" fill="url(#paint21_linear_332_6)"/>
<path d="M90.4295 25.0273C90.5881 24.7799 90.9088 24.7025 91.1459 24.8545C91.383 25.0065 91.4466 25.3302 91.288 25.5776L88.4887 29.9447C88.3301 30.1921 88.0094 30.2695 87.7723 30.1175C87.5352 29.9655 87.4716 29.6418 87.6302 29.3944L90.4295 25.0273Z" fill="url(#paint22_linear_332_6)"/>
<path d="M90.4295 25.0273C90.5881 24.7799 90.9088 24.7025 91.1459 24.8545C91.383 25.0065 91.4466 25.3302 91.288 25.5776L88.4887 29.9447C88.3301 30.1921 88.0094 30.2695 87.7723 30.1175C87.5352 29.9655 87.4716 29.6418 87.6302 29.3944L90.4295 25.0273Z" fill="url(#paint23_linear_332_6)"/>
<path d="M12.917 19.3004L12.5255 19.5352C11.4115 20.2231 11.1245 21.6957 11.8125 22.8096L13.8661 25.9918C14.554 27.1058 16.0266 27.3928 17.1405 26.7048L17.532 26.4701C18.6459 25.7821 18.9329 24.3096 18.245 23.1957L16.1914 20.0134C15.5034 18.8995 14.0309 18.6125 12.917 19.3004ZM17.4841 23.6267C17.992 24.4319 17.7671 25.5308 16.962 26.0386C16.1568 26.5465 15.0579 26.3216 14.5501 25.5164L12.6442 22.5218C12.1363 21.7166 12.3612 20.6178 13.1663 20.1099C13.58 19.8368 14.0202 19.7838 14.4707 19.8903C14.9211 19.9968 15.2829 20.2569 15.556 20.6705L17.462 23.6651L17.4841 23.6267Z" fill="url(#paint24_linear_332_6)"/>
<path d="M12.917 19.3004L12.5255 19.5352C11.4115 20.2231 11.1245 21.6957 11.8125 22.8096L13.8661 25.9918C14.554 27.1058 16.0266 27.3928 17.1405 26.7048L17.532 26.4701C18.6459 25.7821 18.9329 24.3096 18.245 23.1957L16.1914 20.0134C15.5034 18.8995 14.0309 18.6125 12.917 19.3004ZM17.4841 23.6267C17.992 24.4319 17.7671 25.5308 16.962 26.0386C16.1568 26.5465 15.0579 26.3216 14.5501 25.5164L12.6442 22.5218C12.1363 21.7166 12.3612 20.6178 13.1663 20.1099C13.58 19.8368 14.0202 19.7838 14.4707 19.8903C14.9211 19.9968 15.2829 20.2569 15.556 20.6705L17.462 23.6651L17.4841 23.6267Z" fill="url(#paint25_linear_332_6)"/>
<path d="M11.7111 16.7155C11.5526 16.4681 11.2318 16.3908 10.9948 16.5427C10.7577 16.6947 10.6941 17.0184 10.8527 17.2658L13.652 21.633C13.8106 21.8803 14.1313 21.9577 14.3684 21.8057C14.6055 21.6538 14.6691 21.3301 14.5105 21.0827L11.7111 16.7155Z" fill="url(#paint26_linear_332_6)"/>
<path d="M11.7111 16.7155C11.5526 16.4681 11.2318 16.3908 10.9948 16.5427C10.7577 16.6947 10.6941 17.0184 10.8527 17.2658L13.652 21.633C13.8106 21.8803 14.1313 21.9577 14.3684 21.8057C14.6055 21.6538 14.6691 21.3301 14.5105 21.0827L11.7111 16.7155Z" fill="url(#paint27_linear_332_6)"/>
<path d="M94.0065 19.7118L94.398 19.9465C95.5119 20.6345 95.7989 22.107 95.111 23.221L93.0574 26.4032C92.3695 27.5171 90.8969 27.8042 89.783 27.1162L89.3915 26.8815C88.2776 26.1935 87.9905 24.721 88.6785 23.6071L90.7321 20.4248C91.42 19.3109 92.8926 19.0239 94.0065 19.7118ZM89.4394 24.0381C88.9315 24.8433 89.1563 25.9421 89.9615 26.45C90.7667 26.9578 91.8655 26.733 92.3734 25.9278L94.2793 22.9332C94.7872 22.128 94.5623 21.0292 93.7571 20.5213C93.3435 20.2482 92.9033 20.1952 92.4528 20.3017C92.0023 20.4081 91.6406 20.6682 91.3674 21.0819L89.4615 24.0765L89.4394 24.0381Z" fill="url(#paint28_linear_332_6)"/>
<path d="M94.0065 19.7118L94.398 19.9465C95.5119 20.6345 95.7989 22.107 95.111 23.221L93.0574 26.4032C92.3695 27.5171 90.8969 27.8042 89.783 27.1162L89.3915 26.8815C88.2776 26.1935 87.9905 24.721 88.6785 23.6071L90.7321 20.4248C91.42 19.3109 92.8926 19.0239 94.0065 19.7118ZM89.4394 24.0381C88.9315 24.8433 89.1563 25.9421 89.9615 26.45C90.7667 26.9578 91.8655 26.733 92.3734 25.9278L94.2793 22.9332C94.7872 22.128 94.5623 21.0292 93.7571 20.5213C93.3435 20.2482 92.9033 20.1952 92.4528 20.3017C92.0023 20.4081 91.6406 20.6682 91.3674 21.0819L89.4615 24.0765L89.4394 24.0381Z" fill="url(#paint29_linear_332_6)"/>
<path d="M95.2123 17.1269C95.3709 16.8795 95.6916 16.8021 95.9287 16.9541C96.1658 17.1061 96.2294 17.4298 96.0708 17.6772L93.2715 22.0443C93.1129 22.2917 92.7922 22.3691 92.5551 22.2171C92.318 22.0652 92.2544 21.7414 92.413 21.4941L95.2123 17.1269Z" fill="url(#paint30_linear_332_6)"/>
<path d="M95.2123 17.1269C95.3709 16.8795 95.6916 16.8021 95.9287 16.9541C96.1658 17.1061 96.2294 17.4298 96.0708 17.6772L93.2715 22.0443C93.1129 22.2917 92.7922 22.3691 92.5551 22.2171C92.318 22.0652 92.2544 21.7414 92.413 21.4941L95.2123 17.1269Z" fill="url(#paint31_linear_332_6)"/>
<path d="M7.98877 11.8363L7.59726 12.071C6.48333 12.759 6.19632 14.2315 6.88427 15.3455L8.93786 18.5277C9.62581 19.6417 11.0984 19.9287 12.2123 19.2407L12.6038 19.006C13.7177 18.318 14.0047 16.8455 13.3168 15.7316L11.2632 12.5493C10.5752 11.4354 9.10269 11.1484 7.98877 11.8363ZM12.5559 16.1626C13.0638 16.9678 12.8389 18.0667 12.0338 18.5745C11.2286 19.0824 10.1297 18.8575 9.62187 18.0523L7.71595 15.0577C7.20809 14.2525 7.43296 13.1537 8.23813 12.6458C8.65179 12.3727 9.09199 12.3197 9.54246 12.4262C9.99293 12.5327 10.3547 12.7927 10.6278 13.2064L12.5338 16.201L12.5559 16.1626Z" fill="url(#paint32_linear_332_6)"/>
<path d="M7.98877 11.8363L7.59726 12.071C6.48333 12.759 6.19632 14.2315 6.88427 15.3455L8.93786 18.5277C9.62581 19.6417 11.0984 19.9287 12.2123 19.2407L12.6038 19.006C13.7177 18.318 14.0047 16.8455 13.3168 15.7316L11.2632 12.5493C10.5752 11.4354 9.10269 11.1484 7.98877 11.8363ZM12.5559 16.1626C13.0638 16.9678 12.8389 18.0667 12.0338 18.5745C11.2286 19.0824 10.1297 18.8575 9.62187 18.0523L7.71595 15.0577C7.20809 14.2525 7.43296 13.1537 8.23813 12.6458C8.65179 12.3727 9.09199 12.3197 9.54246 12.4262C9.99293 12.5327 10.3547 12.7927 10.6278 13.2064L12.5338 16.201L12.5559 16.1626Z" fill="url(#paint33_linear_332_6)"/>
<path d="M6.78293 9.25139C6.62436 9.00401 6.30364 8.92665 6.06657 9.07861C5.8295 9.23057 5.76587 9.55431 5.92444 9.80169L8.72382 14.1689C8.88239 14.4162 9.2031 14.4936 9.44017 14.3416C9.67724 14.1897 9.74088 13.8659 9.58231 13.6186L6.78293 9.25139Z" fill="url(#paint34_linear_332_6)"/>
<path d="M6.78293 9.25139C6.62436 9.00401 6.30364 8.92665 6.06657 9.07861C5.8295 9.23057 5.76587 9.55431 5.92444 9.80169L8.72382 14.1689C8.88239 14.4162 9.2031 14.4936 9.44017 14.3416C9.67724 14.1897 9.74088 13.8659 9.58231 13.6186L6.78293 9.25139Z" fill="url(#paint35_linear_332_6)"/>
<path d="M98.9347 12.2477L99.3262 12.4824C100.44 13.1704 100.727 14.6429 100.039 15.7568L97.9856 18.9391C97.2977 20.053 95.8251 20.3401 94.7112 19.6521L94.3197 19.4174C93.2058 18.7294 92.9187 17.2569 93.6067 16.1429L95.6603 12.9607C96.3482 11.8468 97.8208 11.5597 98.9347 12.2477ZM94.3675 16.574C93.8597 17.3792 94.0845 18.478 94.8897 18.9859C95.6949 19.4937 96.7937 19.2688 97.3016 18.4637L99.2075 15.4691C99.7154 14.6639 99.4905 13.5651 98.6853 13.0572C98.2717 12.7841 97.8315 12.7311 97.381 12.8375C96.9305 12.944 96.5688 13.2041 96.2956 13.6178L94.3897 16.6124L94.3675 16.574Z" fill="url(#paint36_linear_332_6)"/>
<path d="M98.9347 12.2477L99.3262 12.4824C100.44 13.1704 100.727 14.6429 100.039 15.7568L97.9856 18.9391C97.2977 20.053 95.8251 20.3401 94.7112 19.6521L94.3197 19.4174C93.2058 18.7294 92.9187 17.2569 93.6067 16.1429L95.6603 12.9607C96.3482 11.8468 97.8208 11.5597 98.9347 12.2477ZM94.3675 16.574C93.8597 17.3792 94.0845 18.478 94.8897 18.9859C95.6949 19.4937 96.7937 19.2688 97.3016 18.4637L99.2075 15.4691C99.7154 14.6639 99.4905 13.5651 98.6853 13.0572C98.2717 12.7841 97.8315 12.7311 97.381 12.8375C96.9305 12.944 96.5688 13.2041 96.2956 13.6178L94.3897 16.6124L94.3675 16.574Z" fill="url(#paint37_linear_332_6)"/>
<path d="M100.141 9.66277C100.299 9.41539 100.62 9.33803 100.857 9.48999C101.094 9.64195 101.158 9.96569 100.999 10.2131L98.1996 14.5802C98.0411 14.8276 97.7204 14.905 97.4833 14.753C97.2462 14.601 97.1826 14.2773 97.3412 14.0299L100.141 9.66277Z" fill="url(#paint38_linear_332_6)"/>
<path d="M100.141 9.66277C100.299 9.41539 100.62 9.33803 100.857 9.48999C101.094 9.64195 101.158 9.96569 100.999 10.2131L98.1996 14.5802C98.0411 14.8276 97.7204 14.905 97.4833 14.753C97.2462 14.601 97.1826 14.2773 97.3412 14.0299L100.141 9.66277Z" fill="url(#paint39_linear_332_6)"/>
<path d="M83.7711 45.1394C83.7711 45.1394 82.6989 37.3952 85.4907 34.7249C85.341 35.0809 85.1427 35.5705 84.9445 36.1652C84.8069 36.5739 84.3497 38.0021 84.0908 40.1466C83.8237 42.3274 83.8682 44.3706 84.0341 46.1023C83.9451 45.7827 83.8561 45.4631 83.7711 45.1434V45.1394Z" fill="url(#paint40_linear_332_6)"/>
<path d="M73.8665 35.279C73.8301 35.4125 73.7896 35.5541 73.7491 35.7038C75.1167 39.0378 76.4114 43.5168 76.5004 48.8494C76.6582 58.4669 72.8064 66.3 68.995 71.6853H68.1899C68.9384 70.5888 69.6869 69.4681 70.399 68.2785L70.4273 68.23C71.9527 65.4787 71.7018 62.1933 69.8488 60.0448C68.5985 58.5883 66.9558 58.0542 65.8068 57.86C64.8923 60.7246 61.8659 62.4482 57.4921 67.8052C56.3107 69.2536 55.3437 70.5888 54.5911 71.6853H54.3524V51.2123C54.9472 50.7025 55.8252 50.0713 56.9257 49.6344C57.0754 49.3876 57.2251 49.1731 57.3546 48.9951C57.7956 48.4044 58.1274 47.9553 58.7424 47.5992C59.3129 47.2755 59.6932 47.2877 60.6642 47.0935C60.6642 47.0935 61.1983 46.9842 63.104 46.4218C63.8323 46.2033 66.7414 45.3415 69.0557 42.8856C69.8123 42.0804 70.2331 41.3926 70.7874 40.4903C72.0296 38.4632 72.7012 36.6061 73.0775 35.3114C73.0775 35.3114 71.9487 32.908 74.1011 29.9382H74.53C73.7572 31.2249 73.2232 32.8514 74.1537 34.2392C74.1537 34.2392 75.6993 33.0051 78.2119 31.9248V32.645C76.282 33.4704 74.8254 34.4941 73.8665 35.279Z" fill="#7C0938"/>
<path d="M73.8665 35.279C73.8301 35.4125 73.7896 35.5541 73.7491 35.7038C75.1167 39.0378 76.4114 43.5168 76.5004 48.8494C76.6582 58.4669 72.8064 66.3 68.995 71.6853H68.1899C68.9384 70.5888 69.6869 69.4681 70.399 68.2785L70.4273 68.23C71.9527 65.4787 71.7018 62.1933 69.8488 60.0448C68.5985 58.5883 66.9558 58.0542 65.8068 57.86C64.8923 60.7246 61.8659 62.4482 57.4921 67.8052C56.3107 69.2536 55.3437 70.5888 54.5911 71.6853H54.3524V51.2123C54.9472 50.7025 55.8252 50.0713 56.9257 49.6344C57.0754 49.3876 57.2251 49.1731 57.3546 48.9951C57.7956 48.4044 58.1274 47.9553 58.7424 47.5992C59.3129 47.2755 59.6932 47.2877 60.6642 47.0935C60.6642 47.0935 61.1983 46.9842 63.104 46.4218C63.8323 46.2033 66.7414 45.3415 69.0557 42.8856C69.8123 42.0804 70.2331 41.3926 70.7874 40.4903C72.0296 38.4632 72.7012 36.6061 73.0775 35.3114C73.0775 35.3114 71.9487 32.908 74.1011 29.9382H74.53C73.7572 31.2249 73.2232 32.8514 74.1537 34.2392C74.1537 34.2392 75.6993 33.0051 78.2119 31.9248V32.645C76.282 33.4704 74.8254 34.4941 73.8665 35.279Z" fill="url(#paint41_linear_332_6)"/>
<path d="M98.2399 36.8732C97.7422 36.3473 97.0665 35.6877 96.2047 35.0161C96.2007 35.0161 96.2007 35.0121 96.1966 35.0121C91.4182 32.8191 88.4768 37.1969 88.4768 37.1969C85.6405 40.3933 85.244 44.4555 85.337 47.0005H83.6134C81.5742 42.5134 78.4385 39.5639 77.0791 38.2853C75.8248 37.0998 74.6555 36.2259 73.7734 35.623C73.7653 35.6473 73.7573 35.6756 73.7492 35.7039C73.6925 35.8941 73.6278 36.1004 73.559 36.3149C72.9804 38.0628 71.8597 40.5309 69.6505 42.7319V42.1897C70.0754 41.6516 70.399 41.1256 70.7875 40.4904C72.0296 38.4633 72.7012 36.6062 73.0775 35.3115C73.0775 35.3115 71.9487 32.9081 74.1012 29.9383C74.6231 29.2222 75.3312 28.4737 76.3022 27.717C76.1161 27.8991 75.226 28.7812 74.53 29.9383C73.7573 31.225 73.2232 32.8515 74.1538 34.2393C74.1538 34.2393 75.6994 33.0052 78.212 31.9249C82.9458 29.8857 91.1067 28.3968 98.8104 36.7357C98.8104 36.7357 99.3849 37.7755 98.2399 36.8732Z" fill="url(#paint42_linear_332_6)"/>
<path d="M86.3566 40.6603C85.426 42.9787 85.2763 45.3213 85.337 47.0004C85.3815 48.283 85.5554 49.1772 85.5959 49.3876C85.5999 49.3997 85.604 49.4119 85.604 49.42C85.604 49.4321 85.604 49.4362 85.604 49.4362C85.7254 49.8448 85.8306 50.2656 85.9277 50.6985C86.045 51.2164 86.2797 52.3898 86.3525 54.0041V55.7925C86.312 56.9578 86.1623 58.2646 85.8468 59.6646C85.4705 61.3275 84.9243 62.8043 84.3052 64.099H83.7104C84.6289 61.9303 85.3815 59.2761 85.4826 56.2699V56.2942C85.4867 56.0231 85.4826 54.692 84.4468 53.5914C84.3214 53.4579 83.2411 52.3493 81.8128 52.41C80.3158 52.4747 79.3164 53.7816 78.402 55.0157C76.2738 57.8843 76.5894 59.7819 74.3236 63.1442C74.0849 63.5002 73.8502 63.8198 73.6358 64.099H73.215V62.5979C73.4942 61.8858 73.7572 61.1414 73.9999 60.3645C76.6258 51.9407 75.3999 44.6254 74.8617 41.6071C74.4693 39.4222 73.9716 37.6177 73.5549 36.3148C73.5387 36.2622 73.5225 36.2096 73.5063 36.1611C73.567 35.9628 73.6277 35.7646 73.6884 35.5663C73.745 35.4692 73.8017 35.3762 73.8624 35.2791C74.9063 35.9183 76.3709 36.9096 77.9489 38.3217C79.6401 39.8349 82.7758 42.6307 84.7139 47.0004C84.7746 47.134 84.8312 47.2634 84.8878 47.401C84.8757 47.2715 84.8717 47.138 84.8676 47.0004C84.8191 45.4427 84.993 43.4278 85.8144 41.2429C85.9803 40.8019 86.1623 40.3852 86.3525 39.9886V40.6603H86.3566Z" fill="#7C0938"/>
<path d="M86.3566 40.6603C85.426 42.9787 85.2763 45.3213 85.337 47.0004C85.3815 48.283 85.5554 49.1772 85.5959 49.3876C85.5999 49.3997 85.604 49.4119 85.604 49.42C85.604 49.4321 85.604 49.4362 85.604 49.4362C85.7254 49.8448 85.8306 50.2656 85.9277 50.6985C86.045 51.2164 86.2797 52.3898 86.3525 54.0041V55.7925C86.312 56.9578 86.1623 58.2646 85.8468 59.6646C85.4705 61.3275 84.9243 62.8043 84.3052 64.099H83.7104C84.6289 61.9303 85.3815 59.2761 85.4826 56.2699V56.2942C85.4867 56.0231 85.4826 54.692 84.4468 53.5914C84.3214 53.4579 83.2411 52.3493 81.8128 52.41C80.3158 52.4747 79.3164 53.7816 78.402 55.0157C76.2738 57.8843 76.5894 59.7819 74.3236 63.1442C74.0849 63.5002 73.8502 63.8198 73.6358 64.099H73.215V62.5979C73.4942 61.8858 73.7572 61.1414 73.9999 60.3645C76.6258 51.9407 75.3999 44.6254 74.8617 41.6071C74.4693 39.4222 73.9716 37.6177 73.5549 36.3148C73.5387 36.2622 73.5225 36.2096 73.5063 36.1611C73.567 35.9628 73.6277 35.7646 73.6884 35.5663C73.745 35.4692 73.8017 35.3762 73.8624 35.2791C74.9063 35.9183 76.3709 36.9096 77.9489 38.3217C79.6401 39.8349 82.7758 42.6307 84.7139 47.0004C84.7746 47.134 84.8312 47.2634 84.8878 47.401C84.8757 47.2715 84.8717 47.138 84.8676 47.0004C84.8191 45.4427 84.993 43.4278 85.8144 41.2429C85.9803 40.8019 86.1623 40.3852 86.3525 39.9886V40.6603H86.3566Z" fill="url(#paint43_linear_332_6)"/>
<path d="M96.2047 35.016C96.2047 35.016 96.2007 35.012 96.1966 35.012C91.4182 32.819 88.4768 37.1968 88.4768 37.1968C87.5138 38.2812 86.83 39.4667 86.3566 40.6602C85.426 42.9786 85.2763 45.3213 85.337 47.0004C85.3815 48.283 85.5555 49.1772 85.596 49.3876C85.6 49.3997 85.6041 49.4118 85.6041 49.4199C85.6041 49.4321 85.6041 49.4361 85.6041 49.4361H85.1428C85.0498 48.9668 84.9365 48.2668 84.8879 47.405C84.8758 47.2715 84.8717 47.138 84.8677 47.0004C84.8191 45.4427 84.9931 43.4277 85.8145 41.2429C85.9803 40.8019 86.1624 40.3851 86.3526 39.9886C87.5866 37.4396 89.2576 35.8374 90.1599 35.0686C92.5309 33.5068 94.8452 34.2513 95.6261 34.5831C95.6302 34.5831 95.6342 34.5871 95.6383 34.5912C95.8082 34.66 95.9013 34.7126 95.9013 34.7126L96.2007 35.016H96.2047Z" fill="url(#paint44_linear_332_6)"/>
<path d="M98.2398 36.8732C97.7422 36.3473 97.0665 35.6877 96.2047 35.0161C96.2006 35.0161 96.2006 35.0121 96.1966 35.0121C96.0186 34.8664 95.8365 34.7329 95.6423 34.5913C95.6382 34.5872 95.6342 34.5832 95.6301 34.5832C94.7481 33.9479 93.7002 33.3168 92.4823 32.7705C91.2402 32.2203 86.6236 30.3308 80.9147 31.7388C79.9315 31.9816 79.0292 32.2972 78.2119 32.6451C76.282 33.4705 74.8254 34.4942 73.8665 35.2791C73.8381 35.3883 73.8058 35.5016 73.7734 35.623C73.7653 35.6473 73.7572 35.6756 73.7491 35.7039C73.6925 35.8941 73.6278 36.1004 73.559 36.3149C72.9804 38.0628 71.8596 40.5309 69.6505 42.7319C69.6019 42.7845 69.5493 42.8331 69.4967 42.8857C69.4967 42.8857 67.1055 45.2 63.5855 46.5918C62.1087 47.1745 61.3723 47.4658 60.3001 47.6236C59.7377 47.7085 59.4706 47.7005 59.0458 47.9028C58.7019 48.0646 58.3216 48.3195 57.4355 49.4524C57.3384 49.5778 57.2372 49.7154 57.1239 49.8651C56.8488 50.2373 56.4806 50.7512 56.0639 51.3824C56.3309 50.6783 56.6384 50.0957 56.9257 49.6345C57.0754 49.3877 57.2251 49.1732 57.3546 48.9952C57.7956 48.4045 58.1274 47.9554 58.7424 47.5993C59.3128 47.2756 59.6932 47.2878 60.6642 47.0935C60.6642 47.0935 61.1983 46.9843 63.104 46.4219C63.8323 46.2034 66.7414 45.3416 69.0557 42.8857C69.2823 42.6469 69.4765 42.4163 69.6505 42.1897C70.0753 41.6516 70.399 41.1256 70.7874 40.4904C72.0296 38.4633 72.7012 36.6062 73.0775 35.3115C73.0775 35.3115 71.9486 32.9081 74.1011 29.9383C74.6231 29.2222 75.3311 28.4737 76.3022 27.717C76.1161 27.8991 75.2259 28.7812 74.53 29.9383C73.7572 31.225 73.2231 32.8515 74.1537 34.2393C74.1537 34.2393 75.6993 33.0052 78.2119 31.9249C82.9458 29.8857 91.1067 28.3968 98.8103 36.7357C98.8103 36.7357 99.3849 37.7755 98.2398 36.8732Z" fill="url(#paint45_linear_332_6)"/>
<path d="M86.3566 55.7925C86.3162 56.9578 86.1665 58.2646 85.8509 59.6646C85.4746 61.3275 84.9284 62.8043 84.3093 64.099C82.9337 66.9919 81.206 68.9543 80.2228 69.9577C80.7771 69.2739 82.4117 67.1821 83.7146 64.099C84.633 61.9303 85.3856 59.2761 85.4867 56.2699C85.507 55.6266 85.4989 54.9711 85.4584 54.2995C85.4301 53.8747 85.3896 53.4458 85.333 53.0129C85.0457 50.7754 84.4145 48.7726 83.6134 47.0004C81.5742 42.5134 78.4385 39.5638 77.079 38.2853C75.8248 37.0998 74.6555 36.2258 73.7734 35.623C73.7451 35.6027 73.7208 35.5825 73.6925 35.5663C73.7492 35.4692 73.8058 35.3762 73.8665 35.2791C74.9104 35.9183 76.375 36.9096 77.953 38.3217C79.6442 39.8349 82.7799 42.6307 84.718 47.0004C84.7787 47.134 84.8353 47.2634 84.892 47.401C85.155 48.0362 85.3896 48.6957 85.596 49.3876C85.6 49.3997 85.6041 49.4119 85.6041 49.42C85.6041 49.4321 85.6041 49.4362 85.6041 49.4362C85.7254 49.8448 85.8306 50.2656 85.9277 50.6985C86.0451 51.2164 86.2798 52.3898 86.3526 54.0041C86.3769 54.5504 86.3809 55.1492 86.3526 55.7925H86.3566Z" fill="url(#paint46_linear_332_6)"/>
<path d="M33.2968 35.4814C33.3333 35.6149 33.3737 35.7565 33.4142 35.9062C32.0466 39.2402 30.7519 43.7191 30.6629 49.0518C30.5051 58.6693 34.3569 66.5024 38.1683 71.8877H38.9734C38.2249 70.7912 37.4764 69.6705 36.7643 68.4809L36.736 68.4324C35.2106 65.6811 35.4615 62.3957 37.3146 60.2472C38.5648 58.7907 40.2075 58.2566 41.3566 58.0624C42.271 60.927 45.2974 62.6506 49.6712 68.0076C50.8526 69.456 51.8196 70.7912 52.5722 71.8877H52.8109V51.4147C52.2161 50.9049 51.3382 50.2737 50.2376 49.8368C50.0879 49.59 49.9382 49.3755 49.8087 49.1975C49.3677 48.6068 49.036 48.1577 48.421 47.8016C47.8505 47.4779 47.4701 47.4901 46.4991 47.2959C46.4991 47.2959 45.965 47.1866 44.0593 46.6242C43.331 46.4057 40.4219 45.5439 38.1076 43.088C37.351 42.2828 36.9302 41.595 36.3759 40.6927C35.1337 38.6656 34.4621 36.8085 34.0858 35.5138C34.0858 35.5138 35.2147 33.1104 33.0622 30.1406H32.6333C33.4061 31.4273 33.9402 33.0538 33.0096 34.4416C33.0096 34.4416 31.464 33.2075 28.9514 32.1272V32.8474C30.8814 33.6728 32.3379 34.6965 33.2968 35.4814Z" fill="#7C0938"/>
<path d="M33.2968 35.4814C33.3333 35.6149 33.3737 35.7565 33.4142 35.9062C32.0466 39.2402 30.7519 43.7191 30.6629 49.0518C30.5051 58.6693 34.3569 66.5024 38.1683 71.8877H38.9734C38.2249 70.7912 37.4764 69.6705 36.7643 68.4809L36.736 68.4324C35.2106 65.6811 35.4615 62.3957 37.3146 60.2472C38.5648 58.7907 40.2075 58.2566 41.3566 58.0624C42.271 60.927 45.2974 62.6506 49.6712 68.0076C50.8526 69.456 51.8196 70.7912 52.5722 71.8877H52.8109V51.4147C52.2161 50.9049 51.3382 50.2737 50.2376 49.8368C50.0879 49.59 49.9382 49.3755 49.8087 49.1975C49.3677 48.6068 49.036 48.1577 48.421 47.8016C47.8505 47.4779 47.4701 47.4901 46.4991 47.2959C46.4991 47.2959 45.965 47.1866 44.0593 46.6242C43.331 46.4057 40.4219 45.5439 38.1076 43.088C37.351 42.2828 36.9302 41.595 36.3759 40.6927C35.1337 38.6656 34.4621 36.8085 34.0858 35.5138C34.0858 35.5138 35.2147 33.1104 33.0622 30.1406H32.6333C33.4061 31.4273 33.9402 33.0538 33.0096 34.4416C33.0096 34.4416 31.464 33.2075 28.9514 32.1272V32.8474C30.8814 33.6728 32.3379 34.6965 33.2968 35.4814Z" fill="url(#paint47_linear_332_6)"/>
<path d="M8.92337 37.0756C9.42103 36.5496 10.0967 35.8901 10.9585 35.2185C10.9626 35.2185 10.9626 35.2145 10.9666 35.2145C15.745 33.0215 18.6865 37.3993 18.6865 37.3993C21.5227 40.5957 21.9193 44.6579 21.8262 47.2029H23.5498C25.589 42.7158 28.7247 39.7663 30.0842 38.4877C31.3385 37.3022 32.5078 36.4283 33.3898 35.8254C33.3979 35.8497 33.406 35.878 33.4141 35.9063C33.4707 36.0965 33.5355 36.3028 33.6042 36.5173C34.1828 38.2652 35.3036 40.7333 37.5127 42.9343V42.3921C37.0879 41.854 36.7642 41.328 36.3758 40.6928C35.1336 38.6657 34.462 36.8086 34.0857 35.5139C34.0857 35.5139 35.2146 33.1105 33.0621 30.1407C32.5401 29.4246 31.8321 28.676 30.861 27.9194C31.0471 28.1015 31.9373 28.9835 32.6332 30.1407C33.406 31.4274 33.9401 33.0539 33.0095 34.4417C33.0095 34.4417 31.4639 33.2076 28.9513 32.1273C24.2174 30.0881 16.0565 28.5992 8.35287 36.9381C8.35287 36.9381 7.77834 37.9779 8.92337 37.0756Z" fill="#7C0938"/>
<path d="M8.92337 37.0756C9.42103 36.5496 10.0967 35.8901 10.9585 35.2185C10.9626 35.2185 10.9626 35.2145 10.9666 35.2145C15.745 33.0215 18.6865 37.3993 18.6865 37.3993C21.5227 40.5957 21.9193 44.6579 21.8262 47.2029H23.5498C25.589 42.7158 28.7247 39.7663 30.0842 38.4877C31.3385 37.3022 32.5078 36.4283 33.3898 35.8254C33.3979 35.8497 33.406 35.878 33.4141 35.9063C33.4707 36.0965 33.5355 36.3028 33.6042 36.5173C34.1828 38.2652 35.3036 40.7333 37.5127 42.9343V42.3921C37.0879 41.854 36.7642 41.328 36.3758 40.6928C35.1336 38.6657 34.462 36.8086 34.0857 35.5139C34.0857 35.5139 35.2146 33.1105 33.0621 30.1407C32.5401 29.4246 31.8321 28.676 30.861 27.9194C31.0471 28.1015 31.9373 28.9835 32.6332 30.1407C33.406 31.4274 33.9401 33.0539 33.0095 34.4417C33.0095 34.4417 31.4639 33.2076 28.9513 32.1273C24.2174 30.0881 16.0565 28.5992 8.35287 36.9381C8.35287 36.9381 7.77834 37.9779 8.92337 37.0756Z" fill="url(#paint48_linear_332_6)"/>
<path d="M20.8067 40.8627C21.7372 43.1811 21.8869 45.5237 21.8263 47.2028C21.7818 48.4854 21.6078 49.3796 21.5673 49.59C21.5633 49.6021 21.5592 49.6143 21.5592 49.6224C21.5592 49.6345 21.5592 49.6386 21.5592 49.6386C21.4378 50.0472 21.3326 50.468 21.2355 50.9009C21.1182 51.4188 20.8835 52.5922 20.8107 54.2065V55.9949C20.8512 57.1601 21.0009 58.467 21.3165 59.867C21.6927 61.5299 22.239 63.0067 22.858 64.3014H23.4528C22.5343 62.1327 21.7818 59.4785 21.6806 56.4723V56.4966C21.6766 56.2255 21.6806 54.8944 22.7164 53.7938C22.8418 53.6603 23.9221 52.5517 25.3504 52.6124C26.8474 52.6771 27.8468 53.984 28.7612 55.218C30.8894 58.0867 30.5738 59.9843 32.8396 63.3465C33.0783 63.7026 33.313 64.0222 33.5274 64.3014H33.9482V62.8003C33.669 62.0882 33.406 61.3438 33.1633 60.5669C30.5374 52.1431 31.7633 44.8278 32.3015 41.8095C32.6939 39.6246 33.1916 37.8201 33.6083 36.5172C33.6245 36.4646 33.6407 36.412 33.6569 36.3635C33.5962 36.1652 33.5355 35.967 33.4748 35.7687C33.4182 35.6716 33.3615 35.5786 33.3008 35.4814C32.257 36.1207 30.7923 37.112 29.2143 38.5241C27.5231 40.0373 24.3874 42.8331 22.4494 47.2028C22.3887 47.3364 22.332 47.4658 22.2754 47.6034C22.2875 47.4739 22.2916 47.3404 22.2956 47.2028C22.3442 45.6451 22.1702 43.6302 21.3488 41.4453C21.1829 41.0043 21.0009 40.5876 20.8107 40.191V40.8627H20.8067Z" fill="#7C0938"/>
<path d="M20.8067 40.8627C21.7372 43.1811 21.8869 45.5237 21.8263 47.2028C21.7818 48.4854 21.6078 49.3796 21.5673 49.59C21.5633 49.6021 21.5592 49.6143 21.5592 49.6224C21.5592 49.6345 21.5592 49.6386 21.5592 49.6386C21.4378 50.0472 21.3326 50.468 21.2355 50.9009C21.1182 51.4188 20.8835 52.5922 20.8107 54.2065V55.9949C20.8512 57.1601 21.0009 58.467 21.3165 59.867C21.6927 61.5299 22.239 63.0067 22.858 64.3014H23.4528C22.5343 62.1327 21.7818 59.4785 21.6806 56.4723V56.4966C21.6766 56.2255 21.6806 54.8944 22.7164 53.7938C22.8418 53.6603 23.9221 52.5517 25.3504 52.6124C26.8474 52.6771 27.8468 53.984 28.7612 55.218C30.8894 58.0867 30.5738 59.9843 32.8396 63.3465C33.0783 63.7026 33.313 64.0222 33.5274 64.3014H33.9482V62.8003C33.669 62.0882 33.406 61.3438 33.1633 60.5669C30.5374 52.1431 31.7633 44.8278 32.3015 41.8095C32.6939 39.6246 33.1916 37.8201 33.6083 36.5172C33.6245 36.4646 33.6407 36.412 33.6569 36.3635C33.5962 36.1652 33.5355 35.967 33.4748 35.7687C33.4182 35.6716 33.3615 35.5786 33.3008 35.4814C32.257 36.1207 30.7923 37.112 29.2143 38.5241C27.5231 40.0373 24.3874 42.8331 22.4494 47.2028C22.3887 47.3364 22.332 47.4658 22.2754 47.6034C22.2875 47.4739 22.2916 47.3404 22.2956 47.2028C22.3442 45.6451 22.1702 43.6302 21.3488 41.4453C21.1829 41.0043 21.0009 40.5876 20.8107 40.191V40.8627H20.8067Z" fill="url(#paint49_linear_332_6)"/>
<path d="M23.3881 45.3418C23.3881 45.3418 24.4603 37.5976 21.6685 34.9272C21.8182 35.2833 22.0165 35.7729 22.2147 36.3676C22.3523 36.7763 22.8095 38.2045 23.0684 40.3489C23.3355 42.5298 23.291 44.573 23.1251 46.3047C23.2141 45.9851 23.3031 45.6654 23.3881 45.3458V45.3418Z" fill="url(#paint50_linear_332_6)"/>
<path d="M10.9585 35.2184C10.9585 35.2184 10.9626 35.2144 10.9666 35.2144C15.745 33.0214 18.6865 37.3992 18.6865 37.3992C19.6495 38.4836 20.3332 39.6691 20.8066 40.8626C21.7372 43.181 21.8869 45.5237 21.8262 47.2028C21.7817 48.4854 21.6077 49.3796 21.5673 49.59C21.5632 49.6021 21.5592 49.6142 21.5592 49.6223C21.5592 49.6345 21.5592 49.6385 21.5592 49.6385H22.0204C22.1135 49.1692 22.2268 48.4692 22.2753 47.6074C22.2875 47.4739 22.2915 47.3404 22.2956 47.2028C22.3441 45.6451 22.1701 43.6301 21.3488 41.4453C21.1829 41.0042 21.0008 40.5875 20.8107 40.191C19.5766 37.642 17.9056 36.0398 17.0033 35.271C14.6324 33.7092 12.318 34.4537 11.5371 34.7855C11.5331 34.7855 11.529 34.7895 11.525 34.7936C11.3551 34.8624 11.262 34.915 11.262 34.915L10.9626 35.2184H10.9585Z" fill="url(#paint51_linear_332_6)"/>
<path d="M8.92337 37.0756C9.42103 36.5496 10.0967 35.8901 10.9585 35.2185C10.9626 35.2185 10.9626 35.2145 10.9666 35.2145C11.1446 35.0688 11.3267 34.9353 11.5209 34.7937C11.525 34.7896 11.529 34.7856 11.5331 34.7856C12.4151 34.1503 13.463 33.5192 14.6809 32.9729C15.923 32.4227 20.5396 30.5332 26.2485 31.9412C27.2317 32.184 28.134 32.4996 28.9513 32.8475C30.8812 33.6729 32.3378 34.6966 33.2967 35.4815C33.3251 35.5907 33.3574 35.704 33.3898 35.8254C33.3979 35.8497 33.406 35.878 33.4141 35.9063C33.4707 36.0965 33.5355 36.3028 33.6042 36.5173C34.1828 38.2652 35.3036 40.7333 37.5127 42.9343C37.5613 42.9869 37.6139 43.0355 37.6665 43.0881C37.6665 43.0881 40.0577 45.4024 43.5777 46.7942C45.0545 47.3769 45.7909 47.6682 46.8631 47.826C47.4255 47.9109 47.6926 47.9028 48.1174 48.1051C48.4613 48.267 48.8416 48.5219 49.7277 49.6548C49.8248 49.7802 49.926 49.9178 50.0393 50.0675C50.3144 50.4397 50.6826 50.9536 51.0993 51.5847C50.8323 50.8807 50.5248 50.2981 50.2375 49.8369C50.0878 49.59 49.9381 49.3756 49.8086 49.1976C49.3676 48.6069 49.0358 48.1577 48.4208 47.8017C47.8504 47.478 47.47 47.4901 46.499 47.2959C46.499 47.2959 45.9649 47.1867 44.0592 46.6243C43.3309 46.4058 40.4218 45.544 38.1075 43.0881C37.8809 42.8493 37.6867 42.6187 37.5127 42.3921C37.0879 41.854 36.7642 41.328 36.3758 40.6928C35.1336 38.6657 34.462 36.8086 34.0857 35.5139C34.0857 35.5139 35.2146 33.1105 33.0621 30.1407C32.5401 29.4246 31.8321 28.676 30.861 27.9194C31.0471 28.1015 31.9373 28.9835 32.6332 30.1407C33.406 31.4274 33.9401 33.0539 33.0095 34.4417C33.0095 34.4417 31.4639 33.2076 28.9513 32.1273C24.2174 30.0881 16.0565 28.5992 8.35287 36.9381C8.35287 36.9381 7.77834 37.9779 8.92337 37.0756Z" fill="url(#paint52_linear_332_6)"/>
<path d="M20.8067 55.9949C20.8471 57.1601 20.9968 58.467 21.3124 59.867C21.6887 61.5299 22.2349 63.0067 22.854 64.3014C24.2296 67.1943 25.9573 69.1567 26.9405 70.1601C26.3861 69.4763 24.7515 67.3845 23.4487 64.3014C22.5303 62.1327 21.7777 59.4785 21.6766 56.4723C21.6563 55.829 21.6644 55.1735 21.7049 54.5019C21.7332 54.0771 21.7737 53.6482 21.8303 53.2153C22.1176 50.9778 22.7488 48.975 23.5499 47.2028C25.5891 42.7158 28.7248 39.7662 30.0842 38.4877C31.3385 37.3022 32.5078 36.4282 33.3899 35.8254C33.4182 35.8051 33.4424 35.7849 33.4708 35.7687C33.4141 35.6716 33.3575 35.5786 33.2968 35.4814C32.2529 36.1207 30.7882 37.112 29.2103 38.5241C27.519 40.0373 24.3834 42.8331 22.4453 47.2028C22.3846 47.3364 22.328 47.4658 22.2713 47.6034C22.0083 48.2386 21.7737 48.8981 21.5673 49.59C21.5633 49.6021 21.5592 49.6143 21.5592 49.6224C21.5592 49.6345 21.5592 49.6386 21.5592 49.6386C21.4378 50.0472 21.3326 50.468 21.2355 50.9009C21.1182 51.4188 20.8835 52.5922 20.8107 54.2065C20.7864 54.7528 20.7824 55.3516 20.8107 55.9949H20.8067Z" fill="url(#paint53_linear_332_6)"/>
<path d="M33.7418 64.083C33.7742 64.1558 33.8066 64.2287 33.8389 64.3015C33.9684 64.5969 34.1019 64.8882 34.2395 65.1754C35.429 67.7083 36.8007 69.9538 38.1682 71.8878C41.0126 75.9096 43.8367 78.5638 44.9494 79.5713C43.5495 78.0338 41.7004 75.8489 39.7704 73.049C39.5034 72.6647 39.2404 72.2763 38.9734 71.8878C38.2249 70.7914 37.4763 69.6706 36.7642 68.4811L36.7359 68.4325C36.4284 67.9227 36.129 67.4008 35.8336 66.8626C35.1539 65.6084 34.5146 64.2691 33.9441 62.8004C33.665 62.0883 33.402 61.3438 33.1592 60.567C30.5333 52.1431 31.7593 44.8279 32.2974 41.8095C32.6899 39.6247 33.1875 37.8201 33.6043 36.5173C33.6205 36.4647 33.6366 36.4121 33.6528 36.3636C33.5921 36.1653 33.5314 35.9671 33.4708 35.7688C33.4505 35.8133 33.4343 35.8619 33.4141 35.9064C32.0466 39.2403 30.7518 43.7193 30.6628 49.052C30.5697 54.7286 31.8726 59.7861 33.7418 64.083Z" fill="url(#paint54_linear_332_6)"/>
<path d="M13.0018 33.8307C13.0018 33.8307 15.7369 33.1428 18.4073 35.6393C18.4073 35.6393 17.4727 33.6081 13.8596 33.3613C13.7584 33.3694 13.5966 33.3977 13.4186 33.4868C13.2041 33.596 13.0706 33.7417 13.0018 33.8307Z" fill="url(#paint55_linear_332_6)"/>
<path d="M24.8284 43.1489C24.8284 43.1489 25.7064 37.3347 24.9943 36.7278C24.9943 36.7278 24.8688 41.9027 24.1082 44.1725L24.8284 43.1489Z" fill="url(#paint56_linear_332_6)"/>
<path d="M20.7864 36.4849C20.7864 36.4849 24.1325 42.1938 22.6314 46.7982L22.0852 47.9635C22.7932 45.9809 22.8175 44.3787 22.7447 43.3874C22.6476 42.117 22.332 41.0812 21.8262 39.4263C21.45 38.1923 21.0696 37.1889 20.7864 36.4849Z" fill="url(#paint57_linear_332_6)"/>
<path d="M21.4945 55.2827L21.6765 56.4682L21.6806 56.4966C21.6725 56.2255 21.6765 54.8943 22.7123 53.7938C22.8377 53.6603 23.918 52.5517 25.3463 52.6124C26.8433 52.6771 27.8427 53.984 28.7571 55.218C30.8853 58.0867 30.5697 59.9843 32.8355 63.3465C33.0742 63.7026 33.3089 64.0222 33.5233 64.3014C33.8025 64.6615 34.0493 64.9568 34.2395 65.1753V64.8881C34.1141 64.6898 33.9927 64.4956 33.8754 64.3014C33.8308 64.2286 33.7863 64.1557 33.7418 64.0829C33.7418 64.0829 33.7378 64.0748 33.7378 64.0708C32.4714 61.9709 31.5812 60.1582 30.9622 58.7866C29.9264 56.4723 29.1051 54.1579 27.0456 52.8834C26.552 52.5759 25.933 52.2968 25.1723 52.2644C24.9983 52.2604 23.3637 52.2199 22.2753 53.5268C22.0043 53.8545 21.8222 54.1944 21.7049 54.4978C21.5794 54.8175 21.5228 55.0966 21.4945 55.2827Z" fill="url(#paint58_linear_332_6)"/>
<path d="M35.8337 66.8626L36.7359 68.4325C35.2106 65.6811 35.4614 62.3958 37.3145 60.2473C38.5647 58.7907 40.2074 58.2567 41.3565 58.0624C42.0201 57.9492 42.5177 57.9492 42.6836 57.9532C42.6634 57.7711 42.6391 57.5891 42.6148 57.411C42.457 57.407 41.931 57.407 41.2189 57.5365C40.0456 57.7509 38.3746 58.3295 37.0677 59.871C34.5146 62.8772 35.773 66.6886 35.8337 66.8626Z" fill="url(#paint59_linear_332_6)"/>
<path d="M41.668 48.9589C41.668 48.9589 35.4088 43.6828 34.2395 38.1478L33.6528 36.3635C33.6528 36.3635 32.1679 43.3187 35.8417 47.9635C35.0892 46.7093 34.0574 44.577 33.8551 41.7893C33.7783 40.7292 33.8349 39.7784 33.9482 38.9692C34.2881 40.1992 34.8788 41.8014 35.951 43.4805C37.8405 46.4463 40.2519 48.1254 41.6721 48.9589H41.668Z" fill="url(#paint60_linear_332_6)"/>
<path d="M73.4214 63.8806C73.389 63.9534 73.3566 64.0263 73.3243 64.0991C73.1948 64.3945 73.0613 64.6858 72.9237 64.9731C71.7342 67.5059 70.3626 69.7514 68.995 71.6854C66.1506 75.7072 63.3265 78.3614 62.2138 79.3689C63.6138 77.8314 65.4628 75.6465 67.3928 72.8467C67.6598 72.4623 67.9228 72.0739 68.1898 71.6854C68.9384 70.589 69.6869 69.4682 70.399 68.2787L70.4273 68.2301C70.7348 67.7203 71.0342 67.1984 71.3296 66.6603C72.0093 65.406 72.6486 64.0667 73.2191 62.598C73.4983 61.8859 73.7612 61.1415 74.004 60.3646C76.6299 51.9407 75.4039 44.6255 74.8658 41.6072C74.4734 39.4223 73.9757 37.6178 73.559 36.3149C73.5428 36.2623 73.5266 36.2097 73.5104 36.1612C73.5711 35.9629 73.6318 35.7647 73.6925 35.5664C73.7127 35.6109 73.7289 35.6595 73.7491 35.704C75.1167 39.0379 76.4114 43.5169 76.5004 48.8496C76.5935 54.5262 75.2907 59.5837 73.4214 63.8806Z" fill="url(#paint61_linear_332_6)"/>
<path d="M94.1614 33.6324C94.1614 33.6324 91.4263 32.9446 88.7559 35.441C88.7559 35.441 89.6906 33.4099 93.3037 33.1631C93.4048 33.1712 93.5667 33.1995 93.7447 33.2885C93.9591 33.3978 94.0927 33.5434 94.1614 33.6324Z" fill="url(#paint62_linear_332_6)"/>
<path d="M82.3308 42.9465C82.3308 42.9465 81.4528 37.1323 82.1649 36.5254C82.1649 36.5254 82.2903 41.7003 83.051 43.9701L82.3308 42.9465Z" fill="url(#paint63_linear_332_6)"/>
<path d="M86.3768 36.2825C86.3768 36.2825 83.0307 41.9914 84.5318 46.5958L85.078 47.7611C84.37 45.7785 84.3457 44.1763 84.4185 43.185C84.5156 41.9146 84.8312 40.8788 85.337 39.2239C85.7132 37.9899 86.0936 36.9865 86.3768 36.2825Z" fill="url(#paint64_linear_332_6)"/>
<path d="M85.6687 55.0804L85.4867 56.2658L85.4826 56.2942C85.4907 56.0231 85.4867 54.6919 84.4509 53.5914C84.3255 53.4579 83.2452 52.3493 81.8169 52.41C80.3199 52.4747 79.3205 53.7816 78.4061 55.0156C76.2779 57.8843 76.5935 59.7819 74.3277 63.1441C74.089 63.5002 73.8543 63.8198 73.6399 64.099C73.3607 64.4591 73.1139 64.7544 72.9237 64.9729V64.6857C73.0491 64.4874 73.1705 64.2932 73.2879 64.099C73.3324 64.0262 73.3769 63.9533 73.4214 63.8805C73.4214 63.8805 73.4254 63.8724 73.4254 63.8684C74.6918 61.7685 75.582 59.9558 76.201 58.5842C77.2368 56.2699 78.0581 53.9556 80.1176 52.6811C80.6112 52.3736 81.2302 52.0944 81.9909 52.062C82.1649 52.058 83.7995 52.0175 84.8879 53.3244C85.1589 53.6521 85.341 53.992 85.4583 54.2954C85.5838 54.6151 85.6404 54.8942 85.6687 55.0804Z" fill="url(#paint65_linear_332_6)"/>
<path d="M71.3296 66.6602L70.4273 68.2301C71.9527 65.4788 71.7019 62.1934 69.8488 60.0449C68.5985 58.5883 66.9558 58.0543 65.8068 57.8601C65.1432 57.7468 64.6456 57.7468 64.4797 57.7508C64.4999 57.5687 64.5242 57.3867 64.5484 57.2086C64.7062 57.2046 65.2322 57.2046 65.9443 57.3341C67.1177 57.5485 68.7887 58.1271 70.0956 59.6686C72.6486 62.6749 71.3903 66.4862 71.3296 66.6602Z" fill="url(#paint66_linear_332_6)"/>
<path d="M66.0697 56.4803C66.0454 56.7797 66.005 57.0629 65.9443 57.334C65.9079 57.5161 65.8593 57.6901 65.8067 57.86C64.8923 60.7246 61.8659 62.4482 57.4921 67.8052C56.3107 69.2537 55.3437 70.5888 54.5911 71.6853C54.1703 72.3003 53.8183 72.8384 53.5351 73.2876C53.5351 73.2916 53.531 73.2997 53.527 73.3037C53.5229 73.2997 53.5189 73.2916 53.5189 73.2876C52.7299 72.0454 51.4069 70.0629 49.5619 67.8052C44.5326 61.643 41.2877 60.2876 40.9843 56.4803C40.9721 56.2982 40.7415 52.766 43.1287 50.6297C44.6055 49.3026 46.3655 49.165 47.025 49.1246C47.1747 49.1165 47.3204 49.1084 47.466 49.1084C50.8202 49.1084 53.1224 51.5643 53.527 52.0135C53.6443 51.8799 53.9275 51.5765 54.3524 51.2123C54.9472 50.7025 55.8251 50.0714 56.9257 49.6344C57.0875 49.5656 57.2615 49.5049 57.4355 49.4523C58.0909 49.2419 58.8111 49.1084 59.592 49.1084C59.7336 49.1084 59.8833 49.1165 60.029 49.1246C60.6925 49.165 62.4526 49.3026 63.9294 50.6297C66.3125 52.766 66.0859 56.2982 66.0697 56.4803Z" fill="#7C0938"/>
<path d="M66.0697 56.4803C66.0454 56.7797 66.005 57.0629 65.9443 57.334C65.9079 57.5161 65.8593 57.6901 65.8067 57.86C64.8923 60.7246 61.8659 62.4482 57.4921 67.8052C56.3107 69.2537 55.3437 70.5888 54.5911 71.6853C54.1703 72.3003 53.8183 72.8384 53.5351 73.2876C53.5351 73.2916 53.531 73.2997 53.527 73.3037C53.5229 73.2997 53.5189 73.2916 53.5189 73.2876C52.7299 72.0454 51.4069 70.0629 49.5619 67.8052C44.5326 61.643 41.2877 60.2876 40.9843 56.4803C40.9721 56.2982 40.7415 52.766 43.1287 50.6297C44.6055 49.3026 46.3655 49.165 47.025 49.1246C47.1747 49.1165 47.3204 49.1084 47.466 49.1084C50.8202 49.1084 53.1224 51.5643 53.527 52.0135C53.6443 51.8799 53.9275 51.5765 54.3524 51.2123C54.9472 50.7025 55.8251 50.0714 56.9257 49.6344C57.0875 49.5656 57.2615 49.5049 57.4355 49.4523C58.0909 49.2419 58.8111 49.1084 59.592 49.1084C59.7336 49.1084 59.8833 49.1165 60.029 49.1246C60.6925 49.165 62.4526 49.3026 63.9294 50.6297C66.3125 52.766 66.0859 56.2982 66.0697 56.4803Z" fill="url(#paint67_linear_332_6)"/>
<path d="M58.2203 47.2676L60.3162 48.4369L61.6109 50.12L62.0965 50.9495L62.4161 51.52L62.4363 51.872L60.2757 51.6454L58.4712 51.1599L58.8515 50.2171L58.7059 48.882L58.4469 47.9716L58.2203 47.2676Z" fill="url(#paint68_linear_332_6)"/>
<path d="M44.8645 51.4916L45.2205 50.7026L45.9933 49.3513L47.7533 47.5993L48.7851 46.8791L49.307 46.7739L48.9429 47.7369L48.7487 48.9588L49.0885 51.4916L47.7169 51.176L44.8645 51.4916Z" fill="url(#paint69_linear_332_6)"/>
<path d="M65.4952 48.7565C65.4952 48.7565 71.7545 43.4804 72.9238 37.9454L73.5104 36.1611C73.5104 36.1611 74.9953 43.1163 71.3215 47.7611C72.0741 46.5069 73.1058 44.3746 73.3081 41.5869C73.385 40.5268 73.3284 39.576 73.2151 38.7668C72.8752 39.9968 72.2845 41.599 71.2123 43.2781C69.3228 46.2439 66.9113 47.923 65.4912 48.7565H65.4952Z" fill="url(#paint70_linear_332_6)"/>
<path d="M62.7358 51.888C62.7358 51.888 60.8867 47.4657 57.9736 47.1379C57.9736 47.1379 59.0903 49.1569 58.4227 51.0788L58.7019 51.1112C58.7019 51.1112 59.2926 48.817 58.3903 47.5223C58.8394 47.7287 59.3412 48.0119 59.8469 48.4003C61.3642 49.5615 62.0965 51.0221 62.4364 51.8759L62.7317 51.892L62.7358 51.888Z" fill="url(#paint71_linear_332_6)"/>
<path d="M64.779 56.9294C64.5079 60.2674 61.5826 61.457 57.0511 66.8625C55.3882 68.845 54.1986 70.5808 53.4865 71.6732C53.4865 71.6773 53.4825 71.6813 53.4784 71.6854C53.4744 71.6813 53.4703 71.6773 53.4703 71.6732C52.7582 70.5808 51.5687 68.845 49.9058 66.8625C45.3742 61.457 42.4489 60.2674 42.1778 56.9294C42.1657 56.7676 41.9593 53.6724 44.1078 51.795C45.4389 50.6338 47.025 50.5124 47.6197 50.476C47.7533 50.4679 47.8868 50.4639 48.0163 50.4639C51.0387 50.4639 53.1143 52.6164 53.4784 53.0088C53.8426 52.6164 55.9182 50.4639 58.9406 50.4639C59.0701 50.4639 59.2036 50.4679 59.3371 50.476C59.9319 50.5124 61.5179 50.6338 62.8491 51.795C64.9975 53.6724 64.7912 56.7676 64.779 56.9294Z" fill="#0B0B0B"/>
<path d="M44.7835 51.3338C44.7835 51.3338 46.6325 46.9115 49.5456 46.5837C49.5456 46.5837 48.4289 48.6027 49.0965 50.5246L48.8174 50.557C48.8174 50.557 48.2266 48.2628 49.1289 46.9681C48.6798 47.1745 48.1781 47.4577 47.6723 47.8461C46.1551 49.0073 45.4227 50.4679 45.0829 51.3217L44.7875 51.3378L44.7835 51.3338Z" fill="url(#paint72_linear_332_6)"/>
<g filter="url(#filter0_f_332_6)">
<path d="M50.3473 61.0334C50.3473 61.0334 50.7074 58.5209 48.3 56.688C48.3 56.688 47.6001 55.458 48.4295 55.3083C48.4295 55.3083 48.4174 53.3257 47.0377 54.2725C47.0377 54.2725 45.399 56.1135 48.8139 58.4602C48.8139 58.4602 50.3554 59.6578 50.3473 61.0375V61.0334Z" fill="white"/>
</g>
<g filter="url(#filter1_f_332_6)">
<path d="M46.6609 61.9466C46.6609 61.9466 42.631 56.9173 44.3546 54.251C44.2373 54.3804 44.0754 54.5828 43.9338 54.8579C43.2541 56.189 43.8853 57.7225 44.2818 58.6814C44.917 60.2229 45.9002 61.287 46.6609 61.9506V61.9466Z" fill="white" fill-opacity="0.4"/>
</g>
<g filter="url(#filter2_f_332_6)">
<path d="M42.983 57.3907C42.983 57.3907 42.6796 53.4579 46.4505 51.9487C46.0944 51.9649 44.8037 52.062 43.8044 53.0776C42.7443 54.1538 42.4287 55.837 42.983 57.3907Z" fill="white" fill-opacity="0.4"/>
</g>
<g filter="url(#filter3_f_332_6)">
<path d="M57.6823 57.589C57.6823 57.589 58.3094 57.8479 58.4187 58.2363L59.7174 56.5248C59.7174 56.5248 59.4747 55.3191 58.803 56.2173L57.6823 57.589Z" fill="white" fill-opacity="0.3"/>
</g>
<g filter="url(#filter4_f_332_6)">
<path d="M60.6197 58.018C60.6197 58.018 60.7816 56.0476 60.4053 55.8817C60.4053 55.8817 58.3539 54.6517 59.9805 54.7326C60.288 54.8418 60.4822 54.9996 60.6035 55.1331C61.1902 55.7603 61.1862 56.9053 60.6238 58.018H60.6197Z" fill="white" fill-opacity="0.3"/>
</g>
<defs>
<filter id="filter0_f_332_6" x="36.6447" y="44.0164" width="23.7218" height="27.0212" filterUnits="userSpaceOnUse" color-interpolation-filters="sRGB">
<feFlood flood-opacity="0" result="BackgroundImageFix"/>
<feBlend mode="normal" in="SourceGraphic" in2="BackgroundImageFix" result="shape"/>
<feGaussianBlur stdDeviation="5" result="effect1_foregroundBlur_332_6"/>
</filter>
<filter id="filter1_f_332_6" x="42.6334" y="53.251" width="5.02751" height="9.69971" filterUnits="userSpaceOnUse" color-interpolation-filters="sRGB">
<feFlood flood-opacity="0" result="BackgroundImageFix"/>
<feBlend mode="normal" in="SourceGraphic" in2="BackgroundImageFix" result="shape"/>
<feGaussianBlur stdDeviation="0.5" result="effect1_foregroundBlur_332_6"/>
</filter>
<filter id="filter2_f_332_6" x="41.7139" y="50.9487" width="5.73657" height="7.44189" filterUnits="userSpaceOnUse" color-interpolation-filters="sRGB">
<feFlood flood-opacity="0" result="BackgroundImageFix"/>
<feBlend mode="normal" in="SourceGraphic" in2="BackgroundImageFix" result="shape"/>
<feGaussianBlur stdDeviation="0.5" result="effect1_foregroundBlur_332_6"/>
</filter>
<filter id="filter3_f_332_6" x="56.6823" y="54.8848" width="4.03516" height="4.35156" filterUnits="userSpaceOnUse" color-interpolation-filters="sRGB">
<feFlood flood-opacity="0" result="BackgroundImageFix"/>
<feBlend mode="normal" in="SourceGraphic" in2="BackgroundImageFix" result="shape"/>
<feGaussianBlur stdDeviation="0.5" result="effect1_foregroundBlur_332_6"/>
</filter>
<filter id="filter4_f_332_6" x="58.3534" y="53.7288" width="3.69123" height="5.28931" filterUnits="userSpaceOnUse" color-interpolation-filters="sRGB">
<feFlood flood-opacity="0" result="BackgroundImageFix"/>
<feBlend mode="normal" in="SourceGraphic" in2="BackgroundImageFix" result="shape"/>
<feGaussianBlur stdDeviation="0.5" result="effect1_foregroundBlur_332_6"/>
</filter>
<linearGradient id="paint0_linear_332_6" x1="26.2665" y1="36.2625" x2="22.8251" y2="42.2232" gradientUnits="userSpaceOnUse">
<stop stop-color="#FFEDDB"/>
<stop offset="0.27" stop-color="#FEFFF4"/>
<stop offset="0.57" stop-color="white"/>
<stop offset="0.805" stop-color="#FEFFF4"/>
<stop offset="1" stop-color="#FFEDDB"/>
</linearGradient>
<linearGradient id="paint1_linear_332_6" x1="26.2665" y1="36.2625" x2="22.8251" y2="42.2232" gradientUnits="userSpaceOnUse">
<stop stop-color="#6C6C6C"/>
<stop offset="0.26" stop-color="#D7D7D7"/>
<stop offset="0.315" stop-color="white"/>
<stop offset="0.445" stop-color="#D7D7D7"/>
<stop offset="0.74" stop-color="#6C6C6C"/>
<stop offset="1" stop-color="#2A2A2A"/>
</linearGradient>
<linearGradient id="paint2_linear_332_6" x1="20.3579" y1="32.6941" x2="23.7315" y2="37.9571" gradientUnits="userSpaceOnUse">
<stop stop-color="#FFEDDB"/>
<stop offset="0.27" stop-color="#FEFFF4"/>
<stop offset="0.57" stop-color="white"/>
<stop offset="0.805" stop-color="#FEFFF4"/>
<stop offset="1" stop-color="#FFEDDB"/>
</linearGradient>
<linearGradient id="paint3_linear_332_6" x1="20.3579" y1="32.6941" x2="23.7315" y2="37.9571" gradientUnits="userSpaceOnUse">
<stop stop-color="#6C6C6C"/>
<stop offset="0.26" stop-color="#D7D7D7"/>
<stop offset="0.315" stop-color="white"/>
<stop offset="0.445" stop-color="#D7D7D7"/>
<stop offset="0.74" stop-color="#6C6C6C"/>
<stop offset="1" stop-color="#2A2A2A"/>
</linearGradient>
<linearGradient id="paint4_linear_332_6" x1="80.6569" y1="36.6734" x2="84.0983" y2="42.6341" gradientUnits="userSpaceOnUse">
<stop stop-color="#FFEDDB"/>
<stop offset="0.27" stop-color="#FEFFF4"/>
<stop offset="0.57" stop-color="white"/>
<stop offset="0.805" stop-color="#FEFFF4"/>
<stop offset="1" stop-color="#FFEDDB"/>
</linearGradient>
<linearGradient id="paint5_linear_332_6" x1="80.6569" y1="36.6734" x2="84.0983" y2="42.6341" gradientUnits="userSpaceOnUse">
<stop stop-color="#6C6C6C"/>
<stop offset="0.26" stop-color="#D7D7D7"/>
<stop offset="0.315" stop-color="white"/>
<stop offset="0.445" stop-color="#D7D7D7"/>
<stop offset="0.74" stop-color="#6C6C6C"/>
<stop offset="1" stop-color="#2A2A2A"/>
</linearGradient>
<linearGradient id="paint6_linear_332_6" x1="86.5655" y1="33.105" x2="83.1919" y2="38.368" gradientUnits="userSpaceOnUse">
<stop stop-color="#FFEDDB"/>
<stop offset="0.27" stop-color="#FEFFF4"/>
<stop offset="0.57" stop-color="white"/>
<stop offset="0.805" stop-color="#FEFFF4"/>
<stop offset="1" stop-color="#FFEDDB"/>
</linearGradient>
<linearGradient id="paint7_linear_332_6" x1="86.5655" y1="33.105" x2="83.1919" y2="38.368" gradientUnits="userSpaceOnUse">
<stop stop-color="#6C6C6C"/>
<stop offset="0.26" stop-color="#D7D7D7"/>
<stop offset="0.315" stop-color="white"/>
<stop offset="0.445" stop-color="#D7D7D7"/>
<stop offset="0.74" stop-color="#6C6C6C"/>
<stop offset="1" stop-color="#2A2A2A"/>
</linearGradient>
<linearGradient id="paint8_linear_332_6" x1="7.55368" y1="4.67413" x2="4.11227" y2="10.6348" gradientUnits="userSpaceOnUse">
<stop stop-color="#FFEDDB"/>
<stop offset="0.27" stop-color="#FEFFF4"/>
<stop offset="0.57" stop-color="white"/>
<stop offset="0.805" stop-color="#FEFFF4"/>
<stop offset="1" stop-color="#FFEDDB"/>
</linearGradient>
<linearGradient id="paint9_linear_332_6" x1="7.55368" y1="4.67413" x2="4.11227" y2="10.6348" gradientUnits="userSpaceOnUse">
<stop stop-color="#6C6C6C"/>
<stop offset="0.26" stop-color="#D7D7D7"/>
<stop offset="0.315" stop-color="white"/>
<stop offset="0.445" stop-color="#D7D7D7"/>
<stop offset="0.74" stop-color="#6C6C6C"/>
<stop offset="1" stop-color="#2A2A2A"/>
</linearGradient>
<linearGradient id="paint10_linear_332_6" x1="1.64504" y1="1.10571" x2="5.01865" y2="6.36872" gradientUnits="userSpaceOnUse">
<stop stop-color="#FFEDDB"/>
<stop offset="0.27" stop-color="#FEFFF4"/>
<stop offset="0.57" stop-color="white"/>
<stop offset="0.805" stop-color="#FEFFF4"/>
<stop offset="1" stop-color="#FFEDDB"/>
</linearGradient>
<linearGradient id="paint11_linear_332_6" x1="1.64504" y1="1.10571" x2="5.01865" y2="6.36872" gradientUnits="userSpaceOnUse">
<stop stop-color="#6C6C6C"/>
<stop offset="0.26" stop-color="#D7D7D7"/>
<stop offset="0.315" stop-color="white"/>
<stop offset="0.445" stop-color="#D7D7D7"/>
<stop offset="0.74" stop-color="#6C6C6C"/>
<stop offset="1" stop-color="#2A2A2A"/>
</linearGradient>
<linearGradient id="paint12_linear_332_6" x1="99.3697" y1="5.08502" x2="102.811" y2="11.0457" gradientUnits="userSpaceOnUse">
<stop stop-color="#FFEDDB"/>
<stop offset="0.27" stop-color="#FEFFF4"/>
<stop offset="0.57" stop-color="white"/>
<stop offset="0.805" stop-color="#FEFFF4"/>
<stop offset="1" stop-color="#FFEDDB"/>
</linearGradient>
<linearGradient id="paint13_linear_332_6" x1="99.3697" y1="5.08502" x2="102.811" y2="11.0457" gradientUnits="userSpaceOnUse">
<stop stop-color="#6C6C6C"/>
<stop offset="0.26" stop-color="#D7D7D7"/>
<stop offset="0.315" stop-color="white"/>
<stop offset="0.445" stop-color="#D7D7D7"/>
<stop offset="0.74" stop-color="#6C6C6C"/>
<stop offset="1" stop-color="#2A2A2A"/>
</linearGradient>
<linearGradient id="paint14_linear_332_6" x1="105.278" y1="1.5166" x2="101.905" y2="6.77961" gradientUnits="userSpaceOnUse">
<stop stop-color="#FFEDDB"/>
<stop offset="0.27" stop-color="#FEFFF4"/>
<stop offset="0.57" stop-color="white"/>
<stop offset="0.805" stop-color="#FEFFF4"/>
<stop offset="1" stop-color="#FFEDDB"/>
</linearGradient>
<linearGradient id="paint15_linear_332_6" x1="105.278" y1="1.5166" x2="101.905" y2="6.77961" gradientUnits="userSpaceOnUse">
<stop stop-color="#6C6C6C"/>
<stop offset="0.26" stop-color="#D7D7D7"/>
<stop offset="0.315" stop-color="white"/>
<stop offset="0.445" stop-color="#D7D7D7"/>
<stop offset="0.74" stop-color="#6C6C6C"/>
<stop offset="1" stop-color="#2A2A2A"/>
</linearGradient>
<linearGradient id="paint16_linear_332_6" x1="21.5322" y1="27.9229" x2="18.0908" y2="33.8836" gradientUnits="userSpaceOnUse">
<stop stop-color="#FFEDDB"/>
<stop offset="0.27" stop-color="#FEFFF4"/>
<stop offset="0.57" stop-color="white"/>
<stop offset="0.805" stop-color="#FEFFF4"/>
<stop offset="1" stop-color="#FFEDDB"/>
</linearGradient>
<linearGradient id="paint17_linear_332_6" x1="21.5322" y1="27.9229" x2="18.0908" y2="33.8836" gradientUnits="userSpaceOnUse">
<stop stop-color="#6C6C6C"/>
<stop offset="0.26" stop-color="#D7D7D7"/>
<stop offset="0.315" stop-color="white"/>
<stop offset="0.445" stop-color="#D7D7D7"/>
<stop offset="0.74" stop-color="#6C6C6C"/>
<stop offset="1" stop-color="#2A2A2A"/>
</linearGradient>
<linearGradient id="paint18_linear_332_6" x1="15.7776" y1="24.4434" x2="19.1512" y2="29.7064" gradientUnits="userSpaceOnUse">
<stop stop-color="#FFEDDB"/>
<stop offset="0.27" stop-color="#FEFFF4"/>
<stop offset="0.57" stop-color="white"/>
<stop offset="0.805" stop-color="#FEFFF4"/>
<stop offset="1" stop-color="#FFEDDB"/>
</linearGradient>
<linearGradient id="paint19_linear_332_6" x1="15.7776" y1="24.4434" x2="19.1512" y2="29.7064" gradientUnits="userSpaceOnUse">
<stop stop-color="#6C6C6C"/>
<stop offset="0.26" stop-color="#D7D7D7"/>
<stop offset="0.315" stop-color="white"/>
<stop offset="0.445" stop-color="#D7D7D7"/>
<stop offset="0.74" stop-color="#6C6C6C"/>
<stop offset="1" stop-color="#2A2A2A"/>
</linearGradient>
<linearGradient id="paint20_linear_332_6" x1="85.3913" y1="28.334" x2="88.8327" y2="34.2947" gradientUnits="userSpaceOnUse">
<stop stop-color="#FFEDDB"/>
<stop offset="0.27" stop-color="#FEFFF4"/>
<stop offset="0.57" stop-color="white"/>
<stop offset="0.805" stop-color="#FEFFF4"/>
<stop offset="1" stop-color="#FFEDDB"/>
</linearGradient>
<linearGradient id="paint21_linear_332_6" x1="85.3913" y1="28.334" x2="88.8327" y2="34.2947" gradientUnits="userSpaceOnUse">
<stop stop-color="#6C6C6C"/>
<stop offset="0.26" stop-color="#D7D7D7"/>
<stop offset="0.315" stop-color="white"/>
<stop offset="0.445" stop-color="#D7D7D7"/>
<stop offset="0.74" stop-color="#6C6C6C"/>
<stop offset="1" stop-color="#2A2A2A"/>
</linearGradient>
<linearGradient id="paint22_linear_332_6" x1="91.1459" y1="24.8545" x2="87.7723" y2="30.1175" gradientUnits="userSpaceOnUse">
<stop stop-color="#FFEDDB"/>
<stop offset="0.27" stop-color="#FEFFF4"/>
<stop offset="0.57" stop-color="white"/>
<stop offset="0.805" stop-color="#FEFFF4"/>
<stop offset="1" stop-color="#FFEDDB"/>
</linearGradient>
<linearGradient id="paint23_linear_332_6" x1="91.1459" y1="24.8545" x2="87.7723" y2="30.1175" gradientUnits="userSpaceOnUse">
<stop stop-color="#6C6C6C"/>
<stop offset="0.26" stop-color="#D7D7D7"/>
<stop offset="0.315" stop-color="white"/>
<stop offset="0.445" stop-color="#D7D7D7"/>
<stop offset="0.74" stop-color="#6C6C6C"/>
<stop offset="1" stop-color="#2A2A2A"/>
</linearGradient>
<linearGradient id="paint24_linear_332_6" x1="16.7494" y1="20.0223" x2="13.308" y2="25.983" gradientUnits="userSpaceOnUse">
<stop stop-color="#FFEDDB"/>
<stop offset="0.27" stop-color="#FEFFF4"/>
<stop offset="0.57" stop-color="white"/>
<stop offset="0.805" stop-color="#FEFFF4"/>
<stop offset="1" stop-color="#FFEDDB"/>
</linearGradient>
<linearGradient id="paint25_linear_332_6" x1="16.7494" y1="20.0223" x2="13.308" y2="25.983" gradientUnits="userSpaceOnUse">
<stop stop-color="#6C6C6C"/>
<stop offset="0.26" stop-color="#D7D7D7"/>
<stop offset="0.315" stop-color="white"/>
<stop offset="0.445" stop-color="#D7D7D7"/>
<stop offset="0.74" stop-color="#6C6C6C"/>
<stop offset="1" stop-color="#2A2A2A"/>
</linearGradient>
<linearGradient id="paint26_linear_332_6" x1="10.9948" y1="16.5427" x2="14.3684" y2="21.8057" gradientUnits="userSpaceOnUse">
<stop stop-color="#FFEDDB"/>
<stop offset="0.27" stop-color="#FEFFF4"/>
<stop offset="0.57" stop-color="white"/>
<stop offset="0.805" stop-color="#FEFFF4"/>
<stop offset="1" stop-color="#FFEDDB"/>
</linearGradient>
<linearGradient id="paint27_linear_332_6" x1="10.9948" y1="16.5427" x2="14.3684" y2="21.8057" gradientUnits="userSpaceOnUse">
<stop stop-color="#6C6C6C"/>
<stop offset="0.26" stop-color="#D7D7D7"/>
<stop offset="0.315" stop-color="white"/>
<stop offset="0.445" stop-color="#D7D7D7"/>
<stop offset="0.74" stop-color="#6C6C6C"/>
<stop offset="1" stop-color="#2A2A2A"/>
</linearGradient>
<linearGradient id="paint28_linear_332_6" x1="90.1741" y1="20.4337" x2="93.6155" y2="26.3944" gradientUnits="userSpaceOnUse">
<stop stop-color="#FFEDDB"/>
<stop offset="0.27" stop-color="#FEFFF4"/>
<stop offset="0.57" stop-color="white"/>
<stop offset="0.805" stop-color="#FEFFF4"/>
<stop offset="1" stop-color="#FFEDDB"/>
</linearGradient>
<linearGradient id="paint29_linear_332_6" x1="90.1741" y1="20.4337" x2="93.6155" y2="26.3944" gradientUnits="userSpaceOnUse">
<stop stop-color="#6C6C6C"/>
<stop offset="0.26" stop-color="#D7D7D7"/>
<stop offset="0.315" stop-color="white"/>
<stop offset="0.445" stop-color="#D7D7D7"/>
<stop offset="0.74" stop-color="#6C6C6C"/>
<stop offset="1" stop-color="#2A2A2A"/>
</linearGradient>
<linearGradient id="paint30_linear_332_6" x1="95.9287" y1="16.9541" x2="92.5551" y2="22.2171" gradientUnits="userSpaceOnUse">
<stop stop-color="#FFEDDB"/>
<stop offset="0.27" stop-color="#FEFFF4"/>
<stop offset="0.57" stop-color="white"/>
<stop offset="0.805" stop-color="#FEFFF4"/>
<stop offset="1" stop-color="#FFEDDB"/>
</linearGradient>
<linearGradient id="paint31_linear_332_6" x1="95.9287" y1="16.9541" x2="92.5551" y2="22.2171" gradientUnits="userSpaceOnUse">
<stop stop-color="#6C6C6C"/>
<stop offset="0.26" stop-color="#D7D7D7"/>
<stop offset="0.315" stop-color="white"/>
<stop offset="0.445" stop-color="#D7D7D7"/>
<stop offset="0.74" stop-color="#6C6C6C"/>
<stop offset="1" stop-color="#2A2A2A"/>
</linearGradient>
<linearGradient id="paint32_linear_332_6" x1="11.8212" y1="12.5582" x2="8.37981" y2="18.5189" gradientUnits="userSpaceOnUse">
<stop stop-color="#FFEDDB"/>
<stop offset="0.27" stop-color="#FEFFF4"/>
<stop offset="0.57" stop-color="white"/>
<stop offset="0.805" stop-color="#FEFFF4"/>
<stop offset="1" stop-color="#FFEDDB"/>
</linearGradient>
<linearGradient id="paint33_linear_332_6" x1="11.8212" y1="12.5582" x2="8.37981" y2="18.5189" gradientUnits="userSpaceOnUse">
<stop stop-color="#6C6C6C"/>
<stop offset="0.26" stop-color="#D7D7D7"/>
<stop offset="0.315" stop-color="white"/>
<stop offset="0.445" stop-color="#D7D7D7"/>
<stop offset="0.74" stop-color="#6C6C6C"/>
<stop offset="1" stop-color="#2A2A2A"/>
</linearGradient>
<linearGradient id="paint34_linear_332_6" x1="6.06657" y1="9.07861" x2="9.44017" y2="14.3416" gradientUnits="userSpaceOnUse">
<stop stop-color="#FFEDDB"/>
<stop offset="0.27" stop-color="#FEFFF4"/>
<stop offset="0.57" stop-color="white"/>
<stop offset="0.805" stop-color="#FEFFF4"/>
<stop offset="1" stop-color="#FFEDDB"/>
</linearGradient>
<linearGradient id="paint35_linear_332_6" x1="6.06657" y1="9.07861" x2="9.44017" y2="14.3416" gradientUnits="userSpaceOnUse">
<stop stop-color="#6C6C6C"/>
<stop offset="0.26" stop-color="#D7D7D7"/>
<stop offset="0.315" stop-color="white"/>
<stop offset="0.445" stop-color="#D7D7D7"/>
<stop offset="0.74" stop-color="#6C6C6C"/>
<stop offset="1" stop-color="#2A2A2A"/>
</linearGradient>
<linearGradient id="paint36_linear_332_6" x1="95.1022" y1="12.9695" x2="98.5437" y2="18.9302" gradientUnits="userSpaceOnUse">
<stop stop-color="#FFEDDB"/>
<stop offset="0.27" stop-color="#FEFFF4"/>
<stop offset="0.57" stop-color="white"/>
<stop offset="0.805" stop-color="#FEFFF4"/>
<stop offset="1" stop-color="#FFEDDB"/>
</linearGradient>
<linearGradient id="paint37_linear_332_6" x1="95.1022" y1="12.9695" x2="98.5437" y2="18.9302" gradientUnits="userSpaceOnUse">
<stop stop-color="#6C6C6C"/>
<stop offset="0.26" stop-color="#D7D7D7"/>
<stop offset="0.315" stop-color="white"/>
<stop offset="0.445" stop-color="#D7D7D7"/>
<stop offset="0.74" stop-color="#6C6C6C"/>
<stop offset="1" stop-color="#2A2A2A"/>
</linearGradient>
<linearGradient id="paint38_linear_332_6" x1="100.857" y1="9.48999" x2="97.4833" y2="14.753" gradientUnits="userSpaceOnUse">
<stop stop-color="#FFEDDB"/>
<stop offset="0.27" stop-color="#FEFFF4"/>
<stop offset="0.57" stop-color="white"/>
<stop offset="0.805" stop-color="#FEFFF4"/>
<stop offset="1" stop-color="#FFEDDB"/>
</linearGradient>
<linearGradient id="paint39_linear_332_6" x1="100.857" y1="9.48999" x2="97.4833" y2="14.753" gradientUnits="userSpaceOnUse">
<stop stop-color="#6C6C6C"/>
<stop offset="0.26" stop-color="#D7D7D7"/>
<stop offset="0.315" stop-color="white"/>
<stop offset="0.445" stop-color="#D7D7D7"/>
<stop offset="0.74" stop-color="#6C6C6C"/>
<stop offset="1" stop-color="#2A2A2A"/>
</linearGradient>
<linearGradient id="paint40_linear_332_6" x1="84.5297" y1="34.7249" x2="84.5297" y2="46.1023" gradientUnits="userSpaceOnUse">
<stop stop-color="#6C6C6C"/>
<stop offset="0.26" stop-color="#D7D7D7"/>
<stop offset="0.315" stop-color="white"/>
<stop offset="0.445" stop-color="#D7D7D7"/>
<stop offset="0.74" stop-color="#6C6C6C"/>
<stop offset="1" stop-color="#2A2A2A"/>
</linearGradient>
<linearGradient id="paint41_linear_332_6" x1="66.2822" y1="29.9382" x2="66.2822" y2="71.6853" gradientUnits="userSpaceOnUse">
<stop stop-color="#6C6C6C"/>
<stop offset="0.26" stop-color="#D7D7D7"/>
<stop offset="0.315" stop-color="white"/>
<stop offset="0.445" stop-color="#D7D7D7"/>
<stop offset="0.74" stop-color="#6C6C6C"/>
<stop offset="1" stop-color="#2A2A2A"/>
</linearGradient>
<linearGradient id="paint42_linear_332_6" x1="84.3025" y1="27.717" x2="84.3025" y2="47.0005" gradientUnits="userSpaceOnUse">
<stop stop-color="#6C6C6C"/>
<stop offset="0.26" stop-color="#D7D7D7"/>
<stop offset="0.315" stop-color="white"/>
<stop offset="0.445" stop-color="#D7D7D7"/>
<stop offset="0.74" stop-color="#6C6C6C"/>
<stop offset="1" stop-color="#2A2A2A"/>
</linearGradient>
<linearGradient id="paint43_linear_332_6" x1="79.7858" y1="35.2791" x2="79.7858" y2="64.099" gradientUnits="userSpaceOnUse">
<stop stop-color="#6C6C6C"/>
<stop offset="0.26" stop-color="#D7D7D7"/>
<stop offset="0.315" stop-color="white"/>
<stop offset="0.445" stop-color="#D7D7D7"/>
<stop offset="0.74" stop-color="#6C6C6C"/>
<stop offset="1" stop-color="#2A2A2A"/>
</linearGradient>
<linearGradient id="paint44_linear_332_6" x1="90.5325" y1="34.1125" x2="90.5325" y2="49.4361" gradientUnits="userSpaceOnUse">
<stop stop-color="#6C6C6C"/>
<stop offset="0.26" stop-color="#D7D7D7"/>
<stop offset="0.315" stop-color="white"/>
<stop offset="0.445" stop-color="#D7D7D7"/>
<stop offset="0.74" stop-color="#6C6C6C"/>
<stop offset="1" stop-color="#2A2A2A"/>
</linearGradient>
<linearGradient id="paint45_linear_332_6" x1="77.5092" y1="27.717" x2="77.5092" y2="51.3824" gradientUnits="userSpaceOnUse">
<stop stop-color="#6C6C6C"/>
<stop offset="0.26" stop-color="#D7D7D7"/>
<stop offset="0.315" stop-color="white"/>
<stop offset="0.445" stop-color="#D7D7D7"/>
<stop offset="0.74" stop-color="#6C6C6C"/>
<stop offset="1" stop-color="#2A2A2A"/>
</linearGradient>
<linearGradient id="paint46_linear_332_6" x1="80.0324" y1="35.2791" x2="80.0324" y2="69.9577" gradientUnits="userSpaceOnUse">
<stop stop-color="#6C6C6C"/>
<stop offset="0.26" stop-color="#D7D7D7"/>
<stop offset="0.315" stop-color="white"/>
<stop offset="0.445" stop-color="#D7D7D7"/>
<stop offset="0.74" stop-color="#6C6C6C"/>
<stop offset="1" stop-color="#2A2A2A"/>
</linearGradient>
<linearGradient id="paint47_linear_332_6" x1="40.8812" y1="30.1406" x2="40.8812" y2="71.8877" gradientUnits="userSpaceOnUse">
<stop stop-color="#6C6C6C"/>
<stop offset="0.26" stop-color="#D7D7D7"/>
<stop offset="0.315" stop-color="white"/>
<stop offset="0.445" stop-color="#D7D7D7"/>
<stop offset="0.74" stop-color="#6C6C6C"/>
<stop offset="1" stop-color="#2A2A2A"/>
</linearGradient>
<linearGradient id="paint48_linear_332_6" x1="22.8607" y1="27.9194" x2="22.8607" y2="47.2029" gradientUnits="userSpaceOnUse">
<stop stop-color="#6C6C6C"/>
<stop offset="0.26" stop-color="#D7D7D7"/>
<stop offset="0.315" stop-color="white"/>
<stop offset="0.445" stop-color="#D7D7D7"/>
<stop offset="0.74" stop-color="#6C6C6C"/>
<stop offset="1" stop-color="#2A2A2A"/>
</linearGradient>
<linearGradient id="paint49_linear_332_6" x1="27.3774" y1="35.4814" x2="27.3774" y2="64.3014" gradientUnits="userSpaceOnUse">
<stop stop-color="#6C6C6C"/>
<stop offset="0.26" stop-color="#D7D7D7"/>
<stop offset="0.315" stop-color="white"/>
<stop offset="0.445" stop-color="#D7D7D7"/>
<stop offset="0.74" stop-color="#6C6C6C"/>
<stop offset="1" stop-color="#2A2A2A"/>
</linearGradient>
<linearGradient id="paint50_linear_332_6" x1="22.6295" y1="34.9272" x2="22.6295" y2="46.3047" gradientUnits="userSpaceOnUse">
<stop stop-color="#6C6C6C"/>
<stop offset="0.26" stop-color="#D7D7D7"/>
<stop offset="0.315" stop-color="white"/>
<stop offset="0.445" stop-color="#D7D7D7"/>
<stop offset="0.74" stop-color="#6C6C6C"/>
<stop offset="1" stop-color="#2A2A2A"/>
</linearGradient>
<linearGradient id="paint51_linear_332_6" x1="16.6308" y1="34.3149" x2="16.6308" y2="49.6385" gradientUnits="userSpaceOnUse">
<stop stop-color="#6C6C6C"/>
<stop offset="0.26" stop-color="#D7D7D7"/>
<stop offset="0.315" stop-color="white"/>
<stop offset="0.445" stop-color="#D7D7D7"/>
<stop offset="0.74" stop-color="#6C6C6C"/>
<stop offset="1" stop-color="#2A2A2A"/>
</linearGradient>
<linearGradient id="paint52_linear_332_6" x1="29.654" y1="27.9194" x2="29.654" y2="51.5847" gradientUnits="userSpaceOnUse">
<stop stop-color="#6C6C6C"/>
<stop offset="0.26" stop-color="#D7D7D7"/>
<stop offset="0.315" stop-color="white"/>
<stop offset="0.445" stop-color="#D7D7D7"/>
<stop offset="0.74" stop-color="#6C6C6C"/>
<stop offset="1" stop-color="#2A2A2A"/>
</linearGradient>
<linearGradient id="paint53_linear_332_6" x1="27.1309" y1="35.4814" x2="27.1309" y2="70.1601" gradientUnits="userSpaceOnUse">
<stop stop-color="#6C6C6C"/>
<stop offset="0.26" stop-color="#D7D7D7"/>
<stop offset="0.315" stop-color="white"/>
<stop offset="0.445" stop-color="#D7D7D7"/>
<stop offset="0.74" stop-color="#6C6C6C"/>
<stop offset="1" stop-color="#2A2A2A"/>
</linearGradient>
<linearGradient id="paint54_linear_332_6" x1="37.8038" y1="35.7688" x2="37.8038" y2="79.5713" gradientUnits="userSpaceOnUse">
<stop stop-color="#6C6C6C"/>
<stop offset="0.26" stop-color="#D7D7D7"/>
<stop offset="0.315" stop-color="white"/>
<stop offset="0.445" stop-color="#D7D7D7"/>
<stop offset="0.74" stop-color="#6C6C6C"/>
<stop offset="1" stop-color="#2A2A2A"/>
</linearGradient>
<linearGradient id="paint55_linear_332_6" x1="15.7046" y1="33.3613" x2="15.7046" y2="35.6393" gradientUnits="userSpaceOnUse">
<stop stop-color="#6C6C6C"/>
<stop offset="0.26" stop-color="#D7D7D7"/>
<stop offset="0.315" stop-color="white"/>
<stop offset="0.445" stop-color="#D7D7D7"/>
<stop offset="0.74" stop-color="#6C6C6C"/>
<stop offset="1" stop-color="#2A2A2A"/>
</linearGradient>
<linearGradient id="paint56_linear_332_6" x1="24.6905" y1="36.7278" x2="24.6905" y2="44.1725" gradientUnits="userSpaceOnUse">
<stop stop-color="#6C6C6C"/>
<stop offset="0.26" stop-color="#D7D7D7"/>
<stop offset="0.315" stop-color="white"/>
<stop offset="0.445" stop-color="#D7D7D7"/>
<stop offset="0.74" stop-color="#6C6C6C"/>
<stop offset="1" stop-color="#2A2A2A"/>
</linearGradient>
<linearGradient id="paint57_linear_332_6" x1="21.9026" y1="36.4849" x2="21.9026" y2="47.9635" gradientUnits="userSpaceOnUse">
<stop stop-color="#6C6C6C"/>
<stop offset="0.26" stop-color="#D7D7D7"/>
<stop offset="0.315" stop-color="white"/>
<stop offset="0.445" stop-color="#D7D7D7"/>
<stop offset="0.74" stop-color="#6C6C6C"/>
<stop offset="1" stop-color="#2A2A2A"/>
</linearGradient>
<linearGradient id="paint58_linear_332_6" x1="27.867" y1="52.2634" x2="27.867" y2="65.1753" gradientUnits="userSpaceOnUse">
<stop stop-color="#6C6C6C"/>
<stop offset="0.26" stop-color="#D7D7D7"/>
<stop offset="0.315" stop-color="white"/>
<stop offset="0.445" stop-color="#D7D7D7"/>
<stop offset="0.74" stop-color="#6C6C6C"/>
<stop offset="1" stop-color="#2A2A2A"/>
</linearGradient>
<linearGradient id="paint59_linear_332_6" x1="39.0771" y1="57.4099" x2="39.0771" y2="68.4325" gradientUnits="userSpaceOnUse">
<stop stop-color="#6C6C6C"/>
<stop offset="0.26" stop-color="#D7D7D7"/>
<stop offset="0.315" stop-color="white"/>
<stop offset="0.445" stop-color="#D7D7D7"/>
<stop offset="0.74" stop-color="#6C6C6C"/>
<stop offset="1" stop-color="#2A2A2A"/>
</linearGradient>
<linearGradient id="paint60_linear_332_6" x1="37.5141" y1="36.3635" x2="37.5141" y2="48.9589" gradientUnits="userSpaceOnUse">
<stop stop-color="#6C6C6C"/>
<stop offset="0.26" stop-color="#D7D7D7"/>
<stop offset="0.315" stop-color="white"/>
<stop offset="0.445" stop-color="#D7D7D7"/>
<stop offset="0.74" stop-color="#6C6C6C"/>
<stop offset="1" stop-color="#2A2A2A"/>
</linearGradient>
<linearGradient id="paint61_linear_332_6" x1="69.3025" y1="61.0969" x2="76.5854" y2="67.5706" gradientUnits="userSpaceOnUse">
<stop stop-color="#6C6C6C"/>
<stop offset="0.26" stop-color="#D7D7D7"/>
<stop offset="0.315" stop-color="white"/>
<stop offset="0.445" stop-color="#D7D7D7"/>
<stop offset="0.74" stop-color="#6C6C6C"/>
<stop offset="1" stop-color="#2A2A2A"/>
</linearGradient>
<linearGradient id="paint62_linear_332_6" x1="91.4587" y1="33.1631" x2="91.4587" y2="35.441" gradientUnits="userSpaceOnUse">
<stop stop-color="#6C6C6C"/>
<stop offset="0.26" stop-color="#D7D7D7"/>
<stop offset="0.315" stop-color="white"/>
<stop offset="0.445" stop-color="#D7D7D7"/>
<stop offset="0.74" stop-color="#6C6C6C"/>
<stop offset="1" stop-color="#2A2A2A"/>
</linearGradient>
<linearGradient id="paint63_linear_332_6" x1="82.4687" y1="36.5254" x2="82.4687" y2="43.9701" gradientUnits="userSpaceOnUse">
<stop stop-color="#6C6C6C"/>
<stop offset="0.26" stop-color="#D7D7D7"/>
<stop offset="0.315" stop-color="white"/>
<stop offset="0.445" stop-color="#D7D7D7"/>
<stop offset="0.74" stop-color="#6C6C6C"/>
<stop offset="1" stop-color="#2A2A2A"/>
</linearGradient>
<linearGradient id="paint64_linear_332_6" x1="85.2606" y1="36.2825" x2="85.2606" y2="47.7611" gradientUnits="userSpaceOnUse">
<stop stop-color="#6C6C6C"/>
<stop offset="0.26" stop-color="#D7D7D7"/>
<stop offset="0.315" stop-color="white"/>
<stop offset="0.445" stop-color="#D7D7D7"/>
<stop offset="0.74" stop-color="#6C6C6C"/>
<stop offset="1" stop-color="#2A2A2A"/>
</linearGradient>
<linearGradient id="paint65_linear_332_6" x1="79.2962" y1="52.061" x2="79.2962" y2="64.9729" gradientUnits="userSpaceOnUse">
<stop stop-color="#6C6C6C"/>
<stop offset="0.26" stop-color="#D7D7D7"/>
<stop offset="0.315" stop-color="white"/>
<stop offset="0.445" stop-color="#D7D7D7"/>
<stop offset="0.74" stop-color="#6C6C6C"/>
<stop offset="1" stop-color="#2A2A2A"/>
</linearGradient>
<linearGradient id="paint66_linear_332_6" x1="68.0862" y1="57.2075" x2="68.0862" y2="68.2301" gradientUnits="userSpaceOnUse">
<stop stop-color="#6C6C6C"/>
<stop offset="0.26" stop-color="#D7D7D7"/>
<stop offset="0.315" stop-color="white"/>
<stop offset="0.445" stop-color="#D7D7D7"/>
<stop offset="0.74" stop-color="#6C6C6C"/>
<stop offset="1" stop-color="#2A2A2A"/>
</linearGradient>
<linearGradient id="paint67_linear_332_6" x1="53.5277" y1="49.1084" x2="53.5277" y2="73.3037" gradientUnits="userSpaceOnUse">
<stop stop-color="#6C6C6C"/>
<stop offset="0.26" stop-color="#D7D7D7"/>
<stop offset="0.315" stop-color="white"/>
<stop offset="0.445" stop-color="#D7D7D7"/>
<stop offset="0.74" stop-color="#6C6C6C"/>
<stop offset="1" stop-color="#2A2A2A"/>
</linearGradient>
<linearGradient id="paint68_linear_332_6" x1="58.7828" y1="49.768" x2="62.2136" y2="49.5974" gradientUnits="userSpaceOnUse">
<stop stop-color="#531111"/>
<stop offset="0.365" stop-color="#B92525"/>
<stop offset="1" stop-color="#531111"/>
</linearGradient>
<linearGradient id="paint69_linear_332_6" x1="46.6447" y1="48.3519" x2="49.0723" y2="49.1611" gradientUnits="userSpaceOnUse">
<stop stop-color="#531111"/>
<stop offset="0.365" stop-color="#B92525"/>
<stop offset="1" stop-color="#531111"/>
</linearGradient>
<linearGradient id="paint70_linear_332_6" x1="69.6492" y1="36.1611" x2="69.6492" y2="48.7565" gradientUnits="userSpaceOnUse">
<stop stop-color="#6C6C6C"/>
<stop offset="0.26" stop-color="#D7D7D7"/>
<stop offset="0.315" stop-color="white"/>
<stop offset="0.445" stop-color="#D7D7D7"/>
<stop offset="0.74" stop-color="#6C6C6C"/>
<stop offset="1" stop-color="#2A2A2A"/>
</linearGradient>
<linearGradient id="paint71_linear_332_6" x1="60.3547" y1="47.1379" x2="60.3547" y2="51.892" gradientUnits="userSpaceOnUse">
<stop stop-color="#6C6C6C"/>
<stop offset="0.26" stop-color="#D7D7D7"/>
<stop offset="0.315" stop-color="white"/>
<stop offset="0.445" stop-color="#D7D7D7"/>
<stop offset="0.74" stop-color="#6C6C6C"/>
<stop offset="1" stop-color="#2A2A2A"/>
</linearGradient>
<linearGradient id="paint72_linear_332_6" x1="47.1645" y1="46.5837" x2="47.1645" y2="51.3378" gradientUnits="userSpaceOnUse">
<stop stop-color="#6C6C6C"/>
<stop offset="0.26" stop-color="#D7D7D7"/>
<stop offset="0.315" stop-color="white"/>
<stop offset="0.445" stop-color="#D7D7D7"/>
<stop offset="0.74" stop-color="#6C6C6C"/>
<stop offset="1" stop-color="#2A2A2A"/>
</linearGradient>
</defs>
</svg>
