<?xml version="1.0" encoding="utf-8"?>
<!-- Generator: Adobe Illustrator 28.3.0, SVG Export Plug-In . SVG Version: 6.00 Build 0)  -->
<svg version="1.1" id="Слой_1" xmlns="http://www.w3.org/2000/svg" xmlns:xlink="http://www.w3.org/1999/xlink" x="0px" y="0px"
	 viewBox="0 0 145.9 190.1" style="enable-background:new 0 0 145.9 190.1;" xml:space="preserve">
<style type="text/css">
	.st0{fill:url(#SVGID_1_);}
	.st1{fill:url(#SVGID_00000131339499635262584300000008683814275872177327_);}
	.st2{fill:url(#SVGID_00000060002202707080170820000000013462635908563899_);}
	.st3{fill:#D5D3FF;}
	.st4{fill:url(#SVGID_00000098222723401755164450000009408272422475727246_);}
	.st5{fill:url(#SVGID_00000034058855636808306720000012167984497103342999_);}
	.st6{fill:url(#SVGID_00000141454095532791853040000004797511333019261326_);}
	.st7{fill:url(#SVGID_00000088823323155729429620000014998437955574933415_);}
	.st8{fill:url(#SVGID_00000033362310610113425970000006631705249585007263_);}
	.st9{fill:url(#SVGID_00000078041452969409978030000011931590752453961372_);}
	.st10{fill:url(#SVGID_00000083054353251699768200000009781549419014824091_);}
	.st11{fill:url(#SVGID_00000157273156543186711630000017285466759197850497_);}
</style>
<linearGradient id="SVGID_1_" gradientUnits="userSpaceOnUse" x1="31.3685" y1="83.146" x2="119.825" y2="83.146">
	<stop  offset="0" style="stop-color:#7F7CA4"/>
	<stop  offset="0.2737" style="stop-color:#D2D0FC"/>
	<stop  offset="0.6145" style="stop-color:#D2D0FC"/>
	<stop  offset="1" style="stop-color:#7F7CA4"/>
</linearGradient>
<path class="st0" d="M67.8,32.2l2.8-3.1l2.6,1l1.6,0l2.5-0.5l2.8,1.5l2,3.7l3.3,5.9l7.1,8.9l1.1-2.9l3.7,0.4l6.9,3.3l1.9-3.8
	l1.8-8.9l1.7,4l10.1,18.1L109.8,73l-1.6,5.3l-1.3,6.1l-1.3,8.3l-2.2,14.4l-1.9,9.2l-1.7,10.5l-0.1,7l-0.5,2.8l-1.9,0.5l-8.7-1.7
	l-16.4-3.9l-6.2-0.1l-8.4,1.9l-5.7,2l-7.7-0.2l-6.8-3.6l0.8-2.8l0.2-7.1v-5.2l-0.3-7.2l-0.7-12.6l-0.8-8.6l-1.2-8.9l-0.7-4.7
	l-3.4-16.5L42.1,31L67.8,32.2z"/>
<linearGradient id="SVGID_00000095339486150879851500000013392015314665125778_" gradientUnits="userSpaceOnUse" x1="102.0382" y1="87.27" x2="158.3415" y2="87.27">
	<stop  offset="0.3017" style="stop-color:#D5D3FF"/>
	<stop  offset="1" style="stop-color:#7D7BA1"/>
</linearGradient>
<path style="fill:url(#SVGID_00000095339486150879851500000013392015314665125778_);" d="M105.3,3.7l-3.2,6.8l1.1,20.3l5.3,8.5
	l1,2.8l0.4,3.2l0.3,8l-0.3,10.1l-0.2,9.6l3.3,11.7l-0.2,3.9l1,4.7l0.9,5.3l0.2,5.2l0,3.6v3.4l0.2,1.2l0.2,1.2l0.8,2.3l3.6,9.2
	l2.8,7.5l1.6,3.7l1.1,3.1l0.4,1l0.5,1.7l0.5,1.4l2.5,4.8l1.3,1.7l1.9,0.6h0.3l-0.1,1.2l-0.9,6.2l-1.3,8.8l-0.5,2.7l0.2,1.7l3.2-2.3
	l4.4-2.2l5.5-2.3l2-1c1.8-1,3.5-1.9,5.3-2.9c0.6-0.1,1.2-0.3,1.8-0.4c0.2,0,0.7,0.1,1.1,0.3c0.8,0.4,1.1,1.1,1.1,1.3
	c0,0.9,0,1.8,0,2.7c-0.2,0.4-0.4,0.8-0.6,1.3c-0.1,0.3-0.2,0.7-0.3,1c0.4,0,0.9,0.1,1.3,0.1l2.5-1.8l1-2.1l-0.9-3.3l-1.4-2.7
	l-3.1-4.9l-2.8-3.8l-1.7-1.4l1-1.2l1.5-3.1l0.7-2.8l0.5-4.4l0.2-5.3l-0.4-6.4l-1.1-4.5l-1.1-3l-1.7-3.1l-1.2-1.3l-1.8-3.1l-1.1-1.8
	l-0.5-0.7l-0.4-0.7l-0.5-1l-1.1-3l-0.3-2.8l-0.5-2.8l-0.9-6.9l-1.1-8.7l-0.9-7.8l-0.2-4.5l-0.8-5.8l-1.9-6.1l0.2-1.9l-0.7-4
	l-1.6-3.4l-1.3-5.4l-1.2-2.5l-1-2.4l-0.3-4l0.7-5.8l-0.3-2.1l0.7-3.3l-0.1-3.6l-1.5-2.7l-4.1-3.6L119.7,8L112.9,5l-4.2-1.2
	C107.6,3.7,106.4,3.7,105.3,3.7z"/>
<linearGradient id="SVGID_00000021800002742720012540000014113607887269963939_" gradientUnits="userSpaceOnUse" x1="-24.3679" y1="85.7643" x2="45.2182" y2="85.7643">
	<stop  offset="0" style="stop-color:#7F7CA4"/>
	<stop  offset="0.8436" style="stop-color:#D2D0FC"/>
</linearGradient>
<path style="fill:url(#SVGID_00000021800002742720012540000014113607887269963939_);" d="M-20.6,159.9l0.5-0.4l-0.4-1.5v-2.4
	c0-0.2,0.1-0.8,0.7-1.3c0.5-0.5,1.2-0.6,1.4-0.6c0.6,0.4,1.3,0.9,1.9,1.3l2.7,1.4l4.4,3.3l6.7,4.2l3.5,3.1l1.2,1.3l0.6-1.4l0.1-13.7
	v-5.8l1.6,0.5l1.6-1.3l3.6-4.8l3.2-5.9l5.3-9l5.8-9.8l1.7-3.4l1.1-3.6l1.5-6l2.8-11.6l2.4-11.3l1.1-6.3L36,62.5l1.9-17.2l0.7-4.6
	l2.1-4.3l1.9-6.1l1.7-10.6l0.9-7.9l-1.8-6L43,3.3l-4,0.7l-7.5,2.4l-8.2,5.2l-4,3.9l-0.7,1.7l0.1,5.2l0.5,1.9L19.2,26l-0.3,1.3
	l0.2,1.1l0.3,1.1l0.1,2.7l0.2,2.1l-0.3,1.7l-0.8,2l-1,2l-0.8,2.5l-1.1,3.7l-1.2,3.5L13,53.2l0.5,2.5l-0.3,1.8l-1.5,5.9l-1.5,6.1
	l-1.4,5.5l-1.9,6.4l-1.5,4.3l-0.9,3.2l-0.8,3L3,94.5L1.8,98L0,100.6l-3.6,4.5l-3,3.5l-3.2,3.8l-1.8,4.2l-1.5,5.5l-0.7,4.2l-0.4,4.3
	l-0.3,3.1l0.9,4.2l0.7,1.9l1.3,0.5l-1.6,1.2l-3.5,3.7l-5.7,6.1l-1.9,3.3l0.3,2l1.4,2.2L-20.6,159.9z"/>
<path class="st3" d="M24.3,54.8c0.1,0.2,0.2,0.4,0.3,0.6c-0.6,0.1-1.3,0.2-2.1,0.4h-1.6C22.2,55.2,23.4,55,24.3,54.8z"/>
<linearGradient id="SVGID_00000060002275296890213470000000310839808836887718_" gradientUnits="userSpaceOnUse" x1="36.0214" y1="28.0218" x2="74.2392" y2="28.0218">
	<stop  offset="0" style="stop-color:#7F7CA4"/>
	<stop  offset="0.5223" style="stop-color:#D5D3FF"/>
	<stop  offset="1" style="stop-color:#7F7CA4"/>
</linearGradient>
<path style="fill:url(#SVGID_00000060002275296890213470000000310839808836887718_);" d="M69.8,11.8l0.1,0.9v0.1
	c0,0.2,0.1,0.3,0.1,0.5c0,0.1,0.1,0.4,0.1,0.5c0.2,0.9,0.2,1,0.3,1.4c0.1,0.4,0.1,0.7,0.1,0.9c0,0.2,0,0.3,0.1,0.4
	c0,0.3,0.1,0.7,0.1,1.2c0.1,1.9,0.1,2.6,0.1,4.7c0.1,5.3,0.5,4.2,0.5,5.7c0,0.1,0,0.5,0.2,0.8c0.2,0.4,0.6,0.6,1.1,0.8
	c0.6,0.2,1.1,0.3,1.7,0.4v0.3c-0.7,0-1.4,0-2.1-0.1c-1.7-0.1-2.6,0.2-3.5,2c0.5,0.1,0.8,0.3,1.2,0.3h4.4v2.1h-4.6
	c-0.9,0-1.9,0-2.4-1.3c-2.5,7-6.9,12.4-12.1,17.5h0c0,0-0.1,0.1-0.1,0.1h0v-0.1c0-0.7-0.1-1.3-0.1-1.8c0-0.7-0.2-1-1-1.1
	c-2.5-0.2-4.9-0.1-7,1.8c-1.2,1-2.7,1.5-4.5,1.1c-0.2-1.1-0.4-2-0.5-2.6c-0.2-1.3-0.7-4.8-1-6.1c0-0.1,0-0.3-0.1-0.4
	c-0.1-0.5-0.3-1-0.5-1.4c-0.1-0.3-0.3-0.7-0.4-1c-0.2,0.6-0.4,1.2-0.6,1.8c0,0-0.3,0.9-0.5,1.8c-0.2,0.8-0.9,5.5-1.7,12.8H36
	c0.7-7,1.4-11.6,1.8-12.7c0.2-0.7,0.5-1.4,0.5-1.4c0.5-1.4,0.9-2.5,1.3-3.3c-0.2-0.2-0.3-0.3-0.4-0.5c0.9-1.4,2.1-3.6,3-6.5
	c0.5-1.8,0.4-1.9,1.2-6.8c0.6-3.7,0.8-7.4,1.5-11.1c0.1-0.4,0.3-1.6-0.2-2.9c0,0,0-0.1-0.1-0.4c-0.8-2.1-0.9-2.3-1.1-2.7
	C43.2,7,42.8,5.3,43,3.3c0-0.3,0.1-0.8,0.4-1.3c0.5-0.7,1.4-1,2.3-1.2c3.3-0.8,6.6-0.7,9.6,0.3c2,0.7,3.4,1.6,4.3,2.2
	c2.6,1.7,4.4,3.8,7,5.9c0.7,0.6,1.5,1.3,1.5,1.3C68.8,11,69.3,11.5,69.8,11.8L69.8,11.8z"/>
<linearGradient id="SVGID_00000009574296060513929710000010348102228972000956_" gradientUnits="userSpaceOnUse" x1="24.0418" y1="113.7444" x2="32.1134" y2="115.2643" gradientTransform="matrix(1 0 0 -1 0 191.5276)">
	<stop  offset="0" style="stop-color:#7D7BA1"/>
	<stop  offset="0.615" style="stop-color:#D5D3FF"/>
</linearGradient>
<path style="fill:url(#SVGID_00000009574296060513929710000010348102228972000956_);" d="M23.1,93c1.7-3.3,5.8-14.8,10.9-32.4
	C28,72.8,17.9,96.8,23.1,93z"/>
<linearGradient id="SVGID_00000011028604134001140450000015158722348064332160_" gradientUnits="userSpaceOnUse" x1="68.0056" y1="20.937" x2="81.875" y2="20.937">
	<stop  offset="0" style="stop-color:#D5D3FF"/>
	<stop  offset="0.4581" style="stop-color:#D2D0FC"/>
	<stop  offset="1" style="stop-color:#7F7CA4"/>
</linearGradient>
<path style="fill:url(#SVGID_00000011028604134001140450000015158722348064332160_);" d="M79.3,11.6v1.8c0,0,0.1-0.1,0.2-0.1
	c0,0,0.1-0.1,0.2-0.1c0.8-0.3,1.5-0.5,2.2-0.7v0.2c-0.9,0.3-1.3,0.6-1.3,0.6c-1.3,0.8-1.7,1.7-1.7,2.2c0,0.4,0.2,0.7,0.2,0.7
	c0.4-0.4,0.9-0.7,1.5-0.9c0.4-0.2,0.8-0.4,1.3-0.5v0.3c-0.4,0.2-0.7,0.4-0.9,0.5c-0.6,0.4-0.6,0.8-0.6,0.9c0.5-0.1,1-0.1,1.5-0.2
	v0.5c-2.1,0.4-2.8,1.1-3.1,1.7h0.1c0.2,0.1,0.5,0.2,0.8,0.3c0.5,0.2,0.9,0.3,1.4,0.5c0.3,0.1,0.5,0.2,0.8,0.3v1
	c-0.2-0.2-0.4-0.4-0.7-0.6c-0.8-0.2-1.7-0.5-2.6-0.8c-0.1,1-0.3,1.9-0.1,2.7c0.2,0.7,0.8,1.5,1.2,2.2l2.2,2.6v0.4
	c-0.9-1-1.7-2-2.6-2.9v0.2c0.4,0.6,0.8,1.4,1.3,2c0.5,0.7,0.9,1.4,1.3,2.1v1.9c-1-2.2-2.3-4.3-3.5-5.7c-0.1,1.4-0.2,2.5-0.2,3.7
	c0,0.2,0.2,0.6,0.4,0.8c1.4,1,2.4,2.3,3.3,3.7h-7.6v-0.4h4.4c0.4,0,0.7-0.2,1.2-0.3c-0.4-0.8-0.9-1.4-1.4-1.7
	c-0.5-0.3-1.1-0.3-2.1-0.3c-0.9,0-1.6,0-2.1,0.1c-0.7,0-1.4,0-2.1-0.1c-1.7-0.1-2.6,0.2-3.5,2c0.5,0.1,0.8,0.3,1.2,0.3h4.4v0.4H68
	v-2c0.5-0.6,1.2-1.2,1.9-1.7c0.2-0.2,0.4-0.6,0.4-0.8c0-1.1-0.1-2.3-0.2-3.7c-0.7,0.8-1.4,1.9-2.1,3v-1.5c0.4-0.6,0.8-1.2,1.2-1.8
	v-0.2c-0.4,0.4-0.8,0.9-1.2,1.3v-0.4l0.8-0.9c0.4-0.7,1-1.5,1.2-2.2c0.2-0.8,0-1.7-0.1-2.7c-0.6,0.2-1.3,0.4-1.9,0.6v-0.8
	c0.2-0.1,0.5-0.2,0.8-0.3c0.3-0.1,0.6-0.2,0.8-0.3h0.1c-0.2-0.4-0.6-0.9-1.7-1.3v-1.9c0.5,0.2,1,0.5,1.4,0.9c0,0,0.2-0.3,0.2-0.7
	c0-0.5-0.4-1.3-1.6-2.1v-0.6c0.4,0.2,0.8,0.4,1,0.5c0.1,0,0.1,0.1,0.2,0.1v-1.8c-0.2-0.1-0.5-0.3-0.7-0.5c-0.2-0.1-0.3-0.3-0.5-0.4
	v-0.6c0.3,0.2,0.6,0.4,0.9,0.6c2.6,1.4,5.3,0.8,5.3,0.9h0c0.3,0,0.6,0,0.9,0c2.3,0,4.4-0.4,6.3-2.3c0.2-0.2,0.3-0.3,0.5-0.5v0.7
	c-0.6,0.5-1.2,1.1-1.9,1.6C79.8,11.3,79.5,11.5,79.3,11.6z"/>
<linearGradient id="SVGID_00000036959312461659058300000011249327210776952214_" gradientUnits="userSpaceOnUse" x1="74.1996" y1="25.3562" x2="110.1711" y2="25.3562">
	<stop  offset="0" style="stop-color:#8582AA"/>
	<stop  offset="0.5112" style="stop-color:#D5D3FF"/>
	<stop  offset="1" style="stop-color:#7F7CA4"/>
</linearGradient>
<path style="fill:url(#SVGID_00000036959312461659058300000011249327210776952214_);" d="M76.5,11.9c0,0,0.3,0,1-0.1
	c0.4,0,0.9-0.1,1.3-0.1C78,20.6,77.5,27,77.4,28.4c0,0.1,0,0.6-0.3,0.9c-0.6,0.9-2,0.9-2.2,0.9c-0.2,0-0.4,0-0.6-0.1l0,0.1
	c0.7-0.1,1.3-0.1,1.7-0.1c1.7,0,2.2,0.2,2.3,0.3c0.6,0.3,0.9,0.8,1,0.9c0.2,0.4,0.4,0.7,0.4,0.9c-0.1,0.1-0.4,0.4-0.9,0.4
	c-0.2,0-0.3-0.1-0.4-0.1h-4.4v2.1h4.6c0.9,0,1.9,0,2.4-1.3c1.3,2.5,2.8,5.3,4.9,8.2c2.5,3.5,5,6.4,7.2,8.6c0.1-0.3,0.3-0.7,0.2-1.1
	c-0.1-0.5-0.4-0.8-0.4-1.1c0.1-0.5,0.9-0.8,1.1-0.8c2.3-0.7,5.7,0.9,7.4,2.1c0.2,0.1,0.6,0.5,1.3,0.8c0.9,0.4,1.8,0.5,2.3,0.5
	c0.2-1.4,0.5-2.6,0.7-3.4c0.4-1.3,1.2-3.8,1.5-5c0-0.1,0-0.2,0.1-0.4c0.1-0.5,0.3-1,0.5-1.4c0.1-0.3,0.3-0.7,0.4-1
	c0.2,0.6,0.4,1.2,0.6,1.8c0.2,1.1,0.3,1.8,0.5,1.8c0,0,0.1,0,0.6-1.3c-0.5-1.4-0.9-2.5-1.3-3.3c0.2-0.2,0.3-0.3,0.4-0.5
	c-0.9-1.4-2.1-3.6-3-6.5c-0.5-1.8-0.4-1.9-1.2-6.8c-0.6-3.7-0.8-7.4-1.5-11.1c-0.1-0.4-0.3-1.6,0.2-2.9c0,0,0-0.1,0.1-0.4
	c0.8-2.1,0.9-2.3,1.1-2.7c0.2-0.5,0.6-2.2,0.4-4.2c0-0.3-0.1-0.8-0.4-1.3c-0.5-0.7-1.4-1-2.3-1.2c-3.3-0.8-6.6-0.7-9.6,0.3
	c-2,0.7-3.4,1.7-4.3,2.2c-1.7,1.1-2.7,2.2-7.3,6.1c-0.6,0.6-1.2,1-2,1.4c-1.8,0.9-3.9,0.8-4.4,0.8c-0.5,0-0.9-0.1-0.9,0
	C74.2,11.7,75.2,11.9,76.5,11.9L76.5,11.9z"/>
<path class="st3" d="M126.2,55c0.5,0.2,1.1,0.4,1.7,0.7h-1.5c-0.2-0.1-0.4-0.1-0.6-0.2C125.9,55.4,126.1,55.2,126.2,55z"/>
<path d="M27.1,23.1c1.1-0.8,2.1-1.2,3.1-1.6c0.4-0.1,0.8-0.3,1-0.3C30.2,21.1,28.4,22.2,27.1,23.1z"/>
<path d="M24.6,55.4c-1.4,0.1-2.9,0.5-4.6,1.3c-6.2,2.9-8.6,9.4-9.2,11.2c0,0.1-0.1,0.2-0.1,0.3c-0.5,2.5-1.5,6-2.7,10.3
	C6.8,82.8,5.8,86,4.9,88.8c-1.6,5.1-2.5,7.7-3.2,9.2c0.4-1.3,0.9-2.9,1.5-5.2c1.4-5,2.9-10,4.3-15c0.4-1.3,0.7-2.7,1.1-4.1l1.2-3.9
	c1.1-5.1,2.2-10.1,3.3-15.2c0.8-0.4,1.7-0.9,2.5-1.3c-3.5,9.9-4.4,12.6-4.4,12.8c0.1-0.2,0.9-2.7,2.8-5.2c0.6-0.8,2-2.5,4.4-4
	c2.3-1.4,4.5-2,5.9-2.2C24.4,55,24.5,55.2,24.6,55.4z"/>
<path d="M13.5,81.9c-1.4,2.3-3,4.6-4.6,7c-2.4,3.6-4.9,6.9-7.4,10c0.3-0.7,0.6-1.4,1-2.1C2.6,96.9,8.1,90.3,13.5,81.9z"/>
<path d="M21.9,76.9c-0.5,1.2-0.9,2.3-1.3,3.4c-2.1,5.4-3.5,8.9-3.7,9.1L21.9,76.9z"/>
<path d="M23.2,73.7c0.3-0.8,0.7-1.7,1.1-2.7L23.2,73.7z"/>
<linearGradient id="SVGID_00000132087417267484146910000008628570596292913302_" gradientUnits="userSpaceOnUse" x1="14.245" y1="28.4726" x2="45.0345" y2="28.4726">
	<stop  offset="0" style="stop-color:#D5D3FF"/>
	<stop  offset="0.4581" style="stop-color:#D2D0FC"/>
	<stop  offset="1" style="stop-color:#7F7CA4"/>
</linearGradient>
<path style="fill:url(#SVGID_00000132087417267484146910000008628570596292913302_);" d="M44.2,16.6c-0.1,3.2-0.4,7-1.2,11.3
	c-0.6,3.2-1.4,6-2.3,8.5c-5.2,2.1-10.3,4.2-15.5,6.3c-2.3,1.3-5.2,3.2-7.6,6.3c-1.9,2.4-2.8,4.7-3.2,4.5c-0.6-0.2,0.5-4.6,1.6-8
	c2.1-6.8,3.5-7,3.6-10.7c0.1-1.5-0.1-4-0.2-6.9c-0.1-1.2-0.1-2.3-0.2-3c-0.4-1.7-0.7-3.4-1.1-5.1l1.2-4.2c0,0,9.7-10.4,23.7-12.1
	c-0.1,1-0.1,2.5,0.4,4.1c0.4,1.5,0.9,2.1,1.3,3.2C45.1,12,45.3,13.9,44.2,16.6z"/>
<linearGradient id="SVGID_00000052818592976671367900000005119122937784678294_" gradientUnits="userSpaceOnUse" x1="193.4445" y1="28.4647" x2="224.234" y2="28.4647" gradientTransform="matrix(-1 0 0 1 327.6874 0)">
	<stop  offset="0" style="stop-color:#D5D3FF"/>
	<stop  offset="0.4581" style="stop-color:#D2D0FC"/>
	<stop  offset="1" style="stop-color:#7F7CA4"/>
</linearGradient>
<path style="fill:url(#SVGID_00000052818592976671367900000005119122937784678294_);" d="M104.3,16.6c0.1,3.2,0.4,7,1.2,11.3
	c0.6,3.2,1.4,6,2.3,8.5c5.2,2.1,10.3,4.2,15.5,6.3c2.3,1.3,5.2,3.2,7.6,6.3c1.9,2.4,2.8,4.7,3.2,4.5c0.6-0.2-0.5-4.6-1.6-8
	c-2.1-6.8-3.5-7-3.6-10.7c-0.1-1.5,0.1-4,0.2-6.9c0.1-1.2,0.1-2.3,0.2-3c0.4-1.7,0.7-3.4,1.1-5.1l-1.2-4.2c0,0-9.7-10.4-23.7-12.1
	c0.1,1,0.1,2.5-0.4,4.1c-0.4,1.5-0.9,2.1-1.3,3.2C103.4,12,103.2,13.9,104.3,16.6z"/>
<path d="M25.4,68.2l-1.2,2.9c0.2-0.5,0.4-1,0.6-1.5C25,69.2,25.2,68.6,25.4,68.2z"/>
<path d="M32.6,50.7c-0.8,1.8-1.8,4.2-3.1,7.3c-1.8,4.4-3.3,7.9-4,9.7c1.2-3,2-5.1,2.5-6.7c1.1-3.1,2.4-6.3,3.5-9.4
	c0.3-0.8,0.6-1.7,1-2.6L32.6,50.7z"/>
<path d="M33.8,61.1C29.1,79.9,23.4,92.5,23,93.3c4-9.8,7.7-21,10.6-33.5L33.8,61.1z"/>
<path d="M55.2,50.8L55.2,50.8C55.2,50.8,55.1,50.9,55.2,50.8L55.2,50.8L55.2,50.8L55.2,50.8z"/>
<path d="M117.3,21.2c0.2,0,0.6,0.2,1,0.3c1,0.3,2,0.8,3.1,1.6C120.1,22.2,118.3,21.1,117.3,21.2z"/>
<path d="M71.3,28.1c-0.7-1.5-0.1-2.5-0.3-5.5c0-0.7-0.1-1.2-0.1-2c-0.1-1.7-0.1-1.3-0.2-2.9c0-0.4,0-0.9-0.1-1.6
	c0-0.3-0.1-0.5-0.1-0.9c-0.1-0.6-0.3-1.4-0.5-2.4v-0.1l-0.1-0.9c0.4,0,0.9,0.1,1.6,0.1H72c1.1,0,2.2-0.1,2.2-0.2
	c0-0.1-2.7,0.5-5.3-0.9c-0.3-0.2-0.6-0.3-0.9-0.6c-0.3-0.2-0.6-0.4-0.9-0.8c-2.3-2.3-4.9-4.3-7.5-6.1c-4.2-3-8.8-3.7-13.8-2.5
	c-1.3,0.3-2.6,0.7-2.8,2.5C38,3.7,33.2,5.1,28.8,7.7c-3.2,1.9-6.3,3.7-8.7,6.5c-1.4,1.6-2.1,3.3-1.9,5.5c0.1,1,0.2,2.1,0.3,3.1
	c0.1,0.9,0.6,2,0.4,2.9c-0.4,2,0,3.8,0.2,5.6c0.3,2.4,0.4,4.6-1,6.8c-0.9,1.4-1.3,3.1-1.9,4.7c-0.6,2-0.7,4.1-1.8,6
	c-1.4,2.6-1.7,4-1.5,4.9c0,0.3,0.1,0.6,0.2,0.9c0.8-0.4,1.7-0.9,2.5-1.3h0c0.8-2,1.8-3.4,2.5-4.4c1.9-2.4,3.9-3.7,5-4.4
	c1-0.6,1.8-1,3.3-1.7c2.8-1.3,4.4-1.9,6.2-2.3c2.1-0.5,2.5-0.4,4-1c1.3-0.5,2.1-1.1,2.6-1.7c0.1,0.2,0.2,0.3,0.4,0.5
	c-0.4,0.8-0.8,2-1.3,3.3c0,0-0.2,0.7-0.5,1.4c-0.6,1.8-1.9,12.3-3.1,26.9c0,0,0,0.1,0,0.1c0,0.2-0.1,0.5,0,0.7
	c-0.2,4.4-0.7,8.8-1.9,13c-0.1,0.5-0.1,1-0.3,1.7c-0.3,0.7-0.6,1.4-0.9,2c-1.4,3.2-2.7,6.5-4.1,10.2c-2.3,6.2-4.1,12.1-5.6,17.6
	c1.7-5.9,3.8-12,6.4-18.4c0.6-1.5,1.2-2.9,1.8-4.3c0.5-1.1,1-2.2,1.5-3.3c-0.5,2.1-1.1,5-2.2,9.3c-0.9,3.9-2.2,9-3.6,15.1
	c-5.1,8.9-10.8,17.4-15.3,26.7c0,0-0.2,0.5-5,6.3c-0.2,0.3-0.6,0.6-1.1,0.7c-0.2,0-0.4,0-0.9-0.2c1.1-1.4,2.3-2.9,3.4-4.4
	c0.9-1.2,1.8-2.5,2.5-3.6c-3.5,4.7-5.9,6.9-6.7,7.7c-0.1-0.1-0.3-0.2-0.5-0.3c0.3-1.2,2.3-3.5,2.5-3.8c-0.9,0.7-2.2,2.6-2.9,3.7
	c-0.2-0.1-0.5-0.3-0.7-0.5c-0.4-0.3-0.7-0.5-1-0.8c-0.2-0.1-0.4-0.3-0.5-0.4c1.5-1.3,3-3,4.6-4.9c1.9-2.3,3.6-4.5,4.8-6.6
	c-0.6,0.9-1.7,2.3-3.2,4.1c-2.7,3.4-3.8,4.9-5.8,6.1c-0.4,0.4-1,0.6-1.3,0.8c-0.3-0.2-0.6-0.3-0.7-0.4c-0.4-0.2-0.8-0.3-1.1-0.5
	c1.4-1.7,2-3,2-3c1.1-1.7,2.2-3,2.2-3c0.8-1,0.6,0.5,0.5,1.1c0.4-1.5,0.4-1.9,0.2-2.1c-0.6-0.3-2.4,2.1-2.9,2.6
	c-1.4,1.8-1.6,2.5-2.8,4c-0.4-0.2-0.7-0.3-1.1-0.4c-0.2,0-0.3-0.1-0.5-0.2c0.2-0.4,0.4-0.9,0.7-1.3c1.3-2.4,2.1-4.5,2.8-6
	c-0.5,1-1.4,2.4-2.3,4.3c-0.5,1-1,2-1.5,2.8c-0.5-0.2-0.9-0.2-1.2-0.4c0,0,0,0,0.1,0v-0.4c0,0.1-0.1,0.2-0.1,0.3
	c-1.1-0.3-1.9-0.5-2.5-0.6h-0.1c0.4-0.5,0.9-1,1.2-1.6c0.6-0.8,0.8-1.1,1-1.1c0.2,0,0.5,0.6,0.5,2.9c0.2-1.3,0-2.4,0-2.4
	c-0.6-3.6-2.4,0.8-2.9,2.1c-0.3-0.1-0.7-0.1-1.2-0.4c0.6-2.9,3.9-17.3,5.9-17.3c0,0-1.2,5.7-2.1,8.6c0.3-0.9,3.4-8.6,2.8-10.2
	c0,0-3.8,1.8-7,18.6c-0.1,0-0.1-0.1-0.2-0.1c-0.2-1.2-0.4-2.9-0.1-4.9c0.2-1.1,0.5-2.1,0.7-3.1c-1.4,2.4-1.3,5.9-1.3,7.4
	c-0.2-0.2-0.3-0.4-0.5-0.6c-0.2-0.6-0.4-1.3-0.6-2.2c0.7-5.2,2.2-11.3,5-17.8c0.9-2.1,1.9-3.9,2.8-5.7c-4,6.4-7.1,16.3-8.2,19.6
	c0-0.5,0-1.1,0.1-1.5c0-4.7,0.9-8.4,1.5-11c0.8-4,2.3-7.7,4.9-10.7c1.8-2,2.5-2.2,4.7-5.1c0.5-0.6,1.9-2.5,3.5-5.4
	c-0.9,1.5-2.1,2.8-4.5,5.2c-0.2,0.3-0.6,0.5-0.8,0.8c-3.7,3.6-6.8,7.9-8.1,13.3c-1.2,4.7-1.7,9.4-2,14.3c-0.2,2.6,0,5.1,1.9,7.3
	c-1.9,1.9-3.7,3.7-5.5,5.6c-2.5,2.5-4.8,5-6.5,8.2c-0.3,0.6-0.6,1.5-0.3,2c0.7,1.3,1.7,2.5,2.7,3.5c0.4,0.4,0.9,0.7,1.4,0.9
	c0.3-0.3,0.5-0.5,0.8-0.8c-0.5-4.1,0.2-5.2,0.8-5.5c1.3-0.6,3.2,1.9,9.1,5.5c2.4,1.5,2.6,1.3,4.4,2.5c2.4,1.5,5.3,3.8,8.2,7.1
	c0.1-0.1,0.4-0.3,0.6-0.7c0.3-0.6,0.1-1.2,0-1.3c0.1-6.3,0.1-12.7,0.1-19.1c1.2,0.5,2.1,0.1,2.7-0.6c3.6-4.5,4.3-5.9,4.3-5.9
	c1.8-4.2,4.7-7.7,6.9-11.7c0.8-1.6,1.4-2.6,1.9-3.4c1.2-2.1,2.2-3.6,2.5-4.1c1.1-1.8,2.9-4.7,5.2-10c2.7-10,4.6-18.6,5.9-25
	c1-5,1.8-8.4,2.3-11.2c0.1,0.5,0.2,1.2,0.2,2c0.3,2.3,0.5,4,0.6,4.8c0.6,5.6,0.7,5.3,0.9,8.2c0.2,1.9,0.3,4,0.7,8.4
	c0.2,3.4,0.4,5.1,0.5,7.2c0.3,5.4,0.5,8.6,0.6,12.6c0,2.5,0,5.9-0.3,10v0c0,1.1,0.1,1.6,0.2,1.6c0,0,0.1-0.3,0.2-1v0
	c0.2-1.6,0.4-5,0.6-10.2c0-0.5,0-0.9-0.1-1.4c-0.1-2-0.1-3.9-0.2-5.9c0-0.5,0-1-0.1-1.6c0-1.5,0-2.9,0-4.4c0-0.4-0.1-0.8-0.1-1.1
	c-0.4-3.4-0.4-6-0.4-6.9c-0.1-2.6-0.5-5.8-1.3-12.1c0-0.2-0.3-2.3-0.9-6.5c-0.2-1.4-0.5-3.4-0.8-5.8c0-0.1,0-0.2,0-0.4
	c1.8-17,3.4-29.3,3.7-30.7c0.3-0.9,0.5-1.8,0.5-1.8c0.2-0.7,0.4-1.3,0.6-1.8c0.1,0.3,0.3,0.7,0.4,1c0.2,0.4,0.4,0.8,0.5,1.4
	c0,0.2,0.1,0.3,0.1,0.4c0.3,1.3,0.8,4.8,1,6.1c0.1,0.6,0.3,1.5,0.5,2.6c1.8,0.3,3.3-0.1,4.5-1.1c2.1-1.9,4.5-2,7-1.8
	c0.8,0.1,1,0.4,1,1.1c0,0.5,0.1,1.1,0.1,1.8v0.1h0c0,0,0.1-0.1,0.1-0.1h0c5.2-5.1,9.7-10.5,12.1-17.5c0.5,1.3,1.5,1.3,2.4,1.3h4.6
	v-2.1h-4.4c-0.4,0-0.7-0.2-1.2-0.3c0.9-1.8,1.8-2.1,3.5-2c0.7,0.1,1.4,0.1,2.1,0.1V30c-0.3,0-1,0-1.7-0.4
	C72.4,29.6,71.7,29.2,71.3,28.1z M2.2,158.1c0,3.2-0.1,6.3-0.1,9.6c-0.6-0.8-1.6-1.8-2.8-2.9c-1.6-1.4-2.9-2.2-4-2.8
	c-2-1.2-4-2.4-6.1-3.6c-1.8-1.5-3.2-2.6-4.3-3.3c-0.8-0.6-2.1-1.4-3.2-1.7c0.1-0.3,0.4-0.6,0.6-0.9c1.3-1.8,1.9-2.7,1.9-2.8
	c0.9-1.1,2-2.6,3.3-4.3c-1.2,1.4-2.2,2.5-2.8,3.4c-1.2,1.5-2.4,3.1-3.6,4.5c-0.2,0-0.5,0.1-0.7,0.2c-0.5,0.3-0.8,0.9-1,1.1
	c-0.4,0.9-0.4,1.6-0.4,2.7c0,0.7,0.1,1.4,0.2,2c0,0.1,0,0.1,0.1,0.2c-2.1-0.3-3.5-2.5-3.2-4.5c0.1-0.4,0.2-0.8,0.4-1.2
	c2.1-3.6,5.3-6.3,8-9.2l1.8-1.9c0.6-0.6,1.1-1.3,1.9-1.5c0.5-0.1,0.9,0,1.1,0.1c0,0,1.8,0.5,3.9,1.1v-0.1c0.4,0.2,0.7,0.2,0.8,0.3
	c0.5,0.2,1,0.4,1.4,0.4c-1.1,1.3-2.5,3-2.8,2.8c-0.1-0.1,0.1-0.5,0.4-1.4c-0.1,0.1-0.2,0.3-0.4,0.5c-0.1,0-0.1-0.1-0.2-0.1
	c-0.5,1.1-0.7,1.9-0.5,2c0.1,0.1,0.5,0,1.6-1c0.4-0.4,0.8-0.7,1.2-1.1l0.3-0.4c0.4-0.4,0.7-0.7,1-1.1c1,0.4,1.7,0.7,2.1,0.9h0.1
	c0.1,0,0.2,0.1,0.5,0.4l-1.7,6.1l1.9-5.8c0.4,0.4,1.2,1.1,1.5,1.3c0.2,0.1,0.4,0.3,0.5,0.4l-0.6,4.1c-1.5,2.4-0.6-1.6-0.4-2.8
	c-1.7,7.3,0.4,4,0.4,4l-0.2,8.4c0.3-9.5,1.8-12.4,1.8-12.4c0-0.1,0.1-0.1,0.1-0.2c0.1,0.3,0,0.6,0.1,0.9
	C2.3,151.7,2.3,155,2.2,158.1z M54.6,46.2c-2.5-0.4-5-0.4-7.1,1.5c-0.4,0.3-0.9,0.6-1.4,0.8c-2,0.9-2.7,0.4-3-1.8
	c-0.3-1.9-0.5-3.8-1-5.6c-0.3-1.5-0.5-3-0.4-4.5c0-0.4,0.1-0.9,0.2-1.9c0.2-1.3,0.4-2.7,1.1-6.7c0.1-0.7,0.2-1.3,0.3-1.7
	c3.2-2.6,7.6-5.3,13.2-6.7c1-0.2,1.9-0.4,2.8-0.5c-7,0.3-14.4,5.3-15.9,6.5c0-0.1,0-0.1,0-0.3c0.1-1.3,0.2-2.2,0.4-3.1
	c0.1-0.5,0.2-1.3,0.3-2.3c0.1,0,0.1-0.1,0.2-0.1c3.1-1.9,6.9-3.6,11.2-4c0.4,0,0.8,0,1.1-0.1c-1.1-0.7-6.2,0.9-9.5,2.2
	c-1.4,0.5-2.5,0.9-2.9,1c0.1-0.4,0.1-0.7,0.2-1.1v-0.2c0.1-0.7,0.2-1.5,0.3-2.1c0.2-1,0.4-2.1,0.5-2.7c0.9-0.4,1.9-0.8,3.2-1.1
	c1.7-0.5,3.1-0.7,4.4-0.8c3-0.4,4.9-0.2,4.9-0.3s-3.3-0.5-7.3,0c-2.1,0.3-3.9,0.8-5.2,1.4c-0.1-0.3-0.3-0.6-0.5-1v0.6
	c-0.1,0.5-0.2,1-0.2,1.7c-0.5,3.2-0.9,6.5-1.3,9.7c-1,7.1-0.5,6.8-1.1,8.3c-1.4,3.9-3.7,5.6-4.8,6.3c-0.4,0.2-0.9,0.5-0.9,0.5
	c-0.8,0.3-1.4,0.4-3.5,1.1c-3.5,1.1-6,2.6-7.8,3.7c-1.1,0.6-2.5,1.4-3.8,2.3c-1.8,1.4-4.6,3.9-7.1,8.6c0-0.7,0-1.7,0.2-2.6
	c0.3-1.5,0.7-2.4,1-3c0.1-0.2,0.1-0.3,0.2-0.4c2-2.7,5-6.3,9-9.8c1.6-1.4,3.8-2.9,4.2-3.2c-4.6,2.6-10.4,9-12.6,11.4
	c0.6-1.8,0.7-2.6,1.8-5.4c2-1.8,3.8-3.1,5.2-4c1.9-1.3,2.8-1.8,4-2.3c1-0.3,5.2-1.8,5.9-2c0.1,0,0.4-0.1,0.7-0.3
	c0.3-0.1,0.5-0.3,0.7-0.5c-1.1,0.7-6.2,2.3-6.2,2.3c-1.6,0.3-4.9,2.2-4.9,2.2c-2.3,1.1-3.8,2.2-4.8,2.9c0.8-1.9,1.3-2.7,1.4-4.3
	c0-0.3,0.1-0.7,0.1-1c2.4-2.1,9.4-4.5,10.3-4.8c-2.5,0.5-5.3,1.4-8.2,2.7c-0.8,0.3-1.5,0.7-2.1,1c0-0.6-0.1-1-0.1-1.1v-0.3
	c0.7-0.5,1.5-1.1,2.4-1.7c1.2-0.7,2.3-1.1,3.2-1.5c-1.1,0.3-2.6,0.8-4.1,1.8c-0.6,0.3-1.1,0.7-1.6,1c-0.1-0.4-0.1-0.9-0.2-1.3
	c1.5-1.4,2.8-2.5,3.8-3.4c0.7-0.6,1.4-1.2,1.9-1.6c-2,1.5-3.9,2.9-5.9,4.4c-0.1-0.9-0.1-1.9-0.2-2.7c0.3-0.6,0.7-1.3,1-1.8
	c0.9-1.5,1.7-2.7,2.5-3.7c2.1-2.8,4-4.8,5-5.9c1.4-1.4,2.9-2.8,3.1-2.9c1.2-1,0.9-0.7,1.6-1.4c1.5-1.4,2-2.2,3.3-2.7
	c0.4-0.1,0.7-0.2,0.9-0.3c-1.7-0.1-4.4,3-4.4,3l-4,3.7L26,16.4l-2.6,2.5l-0.3,0.3c-0.5,0.6-1,1.3-1.5,1.9c-0.5,0.6-1,1.5-1.4,2.3
	c-0.2,0.5-0.5,0.9-0.6,1.5c0-0.4,0-0.8-0.1-1.1c0-0.2-0.1-0.5-0.2-0.7c0-0.3,0-0.7-0.1-1c-0.8-3.2,0-6.1,2.4-8.3
	c6.2-5.5,13.2-9,21.4-10.2c-0.8,0.8-1.2,1.7-1.1,2.1v0.1L42,5.7c-0.8,0.4-2.1,1.5-3.4,2.5c-1.5,1.3-2.9,2.4-2.9,2.4l-9.1,10.1
	c2.5-2.4,4.4-4.5,5.8-6c2.9-3.1,4.6-5.3,8-7.2c0.8-0.4,1.4-0.7,1.9-0.9c0,0.3,0,0.6,0.1,0.9c-0.1,0.5-0.3,1-0.5,1.4
	c-0.4,0.7-0.8,1.1-0.8,1.1c-0.5,0.6-1.2,1.3-2.1,2c-2.7,2.4-6.5,5.2-7.6,5.9c2.3-1.4,4.1-2.7,5.6-3.6c0,0,0.8-0.5,3.2-2.5
	c1.6-1.3,2.4-2,2.8-2.9c0-0.1,0.1-0.2,0.1-0.3c0-0.1,0.1-0.2,0.1-0.3c0.1,0,0.2,0.1,0.2,0.1c0.4,0.6,0.8,1.3,1.2,1.8
	c-0.1-0.8-0.2-1.6-0.6-2.2c-0.1-0.1-0.1-0.2-0.2-0.3c0-0.1,0-0.1-0.1-0.2V7.2c1.1-0.8,2.4-1.7,4-2.4c1.1-0.5,2.1-0.9,3.1-1.3
	c-2.1,0.6-3.7,1.1-4.8,1.6c-1.3,0.5-2,0.8-2.4,1.1c0-0.1-0.1-0.2-0.1-0.4c-0.1-2.2,1-3.8,2.9-4.3c3.7-1.1,7.3-0.6,10.6,1
	c4.2,2,7.5,5.2,11.1,8.2c0.2,0.1,0.3,0.3,0.5,0.4c0.2,0.2,0.5,0.4,0.7,0.5v1.8c0,0-0.1-0.1-0.2-0.1c-0.3-0.2-0.6-0.4-1-0.5
	c-1.2-0.6-3.3-1.2-6.9-1.3c-1.1,0-2.7,0-4.4,0.1c8.1-0.3,11.2,1.7,11.2,1.7c0,0,0.1,0.1,0.1,0.1c1.2,0.8,1.6,1.6,1.6,2.1
	c0,0.4-0.2,0.7-0.2,0.7c-0.4-0.4-0.8-0.7-1.4-0.9c0,0-0.1,0-0.1-0.1c-3.4-1.7-8.6-1.3-8.6-1.3c5.3,0,7.4,0.8,8.3,1.6
	c0.3,0.2,0.4,0.4,0.5,0.6c0.1,0.2,0.1,0.3,0.1,0.4c0,0-0.1,0-0.1,0c-5.2-0.7-9.9,0.2-12.1,0.8c2.6-0.5,6.8-0.8,6.8-0.8
	c2.7,0,4.3,0.3,5.4,0.7c1,0.4,1.5,0.9,1.7,1.3h-0.1c-0.2,0.1-0.5,0.2-0.8,0.3c-0.3,0.1-0.5,0.2-0.8,0.3c-0.2,0.1-0.4,0.1-0.6,0.2
	c-0.4,0.2-0.8,0.3-1.1,0.5c-0.2,0.1-0.5,0.2-0.7,0.4c-0.3,0.1-0.6,0.3-0.9,0.5c-0.2,0.1-0.5,0.3-0.7,0.4c-0.2,0.1-0.5,0.3-0.8,0.5
	c-0.3,0.1-0.5,0.3-0.8,0.5c-0.3,0.2-0.7,0.4-1,0.7c-0.3,0.2-0.6,0.5-1,0.7c-0.3,0.2-0.6,0.5-0.9,0.7h-0.1c-0.3,0.2-0.6,0.5-0.9,0.8
	c-0.2,0.2-0.4,0.3-0.6,0.5c-0.2,0.2-0.4,0.3-0.6,0.5c-1.7,1.8-3.5,3.4-5.2,5.2L46,36c1.8-1,3.5-2.1,5.3-3.1
	c-0.2,0.3-0.4,0.8-0.7,1.5c-1.1,2-2.1,3.1-4.1,5.4c-1,1.3-2.2,2.7-2.4,3c0.3-0.3,2.3-2.5,8.5-9.8c0.9,1.9,1.7,4.4,2.3,7.4v0.1
	c0.1,1.9,0.3,3.8,0.4,5.7C55.2,46.3,54.9,46.2,54.6,46.2z M56.2,48.5C56.1,47,56,46,56,44.8c-0.2-4.1-1.1-7.8-2.7-11.6
	c-0.2-0.4-0.1-1.3,0.2-1.7c3-4.2,6.7-7.7,10.9-10.2c0.5-0.3,1-0.5,1.5-0.6l-4.2,4.5l-2.3,2.5c0.5-0.5,0.9-0.9,1.4-1.4
	c2.2-2.1,4.3-4.2,6.5-6.1c0.2-0.1,0.5-0.1,0.7-0.2c0.6-0.2,1.2-0.4,1.9-0.6c0.1,1,0.3,1.9,0.1,2.7c-0.2,0.7-0.8,1.5-1.2,2.2L68,25.2
	l-8.1,9.5c2.7-3,5.4-6,8.1-9.1c0.4-0.4,0.8-0.9,1.2-1.3v0.2c-0.4,0.6-0.7,1.2-1.2,1.8c0,0.1-0.1,0.1-0.1,0.2
	c-1.5,2.2-2.7,4.6-3.4,7.2c-1.2,4.3-3.3,8.2-5.8,11.7C58.1,46.5,57.1,47.3,56.2,48.5z M69.9,29.3c-0.7,0.5-1.3,1.1-1.9,1.7
	c-1.5,1.7-2.4,3.8-3.3,5.9c-0.1,0.2-0.3,0.5-0.4,0.7C64.2,36,66,31.3,68,27.8c0.7-1.2,1.4-2.3,2.1-3c0.1,1.4,0.2,2.5,0.2,3.7
	C70.3,28.6,70.1,29,69.9,29.3z"/>
<path d="M135.6,55.8c-0.8-0.4-1.5-0.8-2.3-1.2c-0.1-0.4-0.3-0.8-0.4-1.3c0.8,0.4,1.7,0.9,2.5,1.3C135.4,55.1,135.5,55.4,135.6,55.8z
	"/>
<path d="M93.4,50.8L93.4,50.8C93.4,50.9,93.4,50.8,93.4,50.8L93.4,50.8L93.4,50.8z"/>
<path d="M99.7,137.4c-0.2,0.8-8-0.2-16.1-2.5c0,0-5.7-1.6-11-2.5c-0.7-0.1-2-0.4-3.7-0.4c-1.6,0-2.9,0.2-5.4,0.6
	c-8.7,1.4-11,3.9-15.7,3.7c-2.2-0.1-6-0.8-10.5-4.1c0.2-1,0.4-2,0.6-3.1c0,0,0,0,0,0c0.1,0.2,0.2,0.3,0.3,0.5c0.7,1,1.8,2.5,3.6,3.5
	c2.4,1.4,4.6,1.5,6.3,1.5c3.3,0,5.4-0.8,8.1-1.6c5.4-1.6,8.2-2.3,10.9-2.5c2.6-0.2,5.3,0.3,10.6,1.4c8.4,1.7,18.8,4.7,20.3,4.4
	c0.1,0,0.4-0.1,0.7,0c0.1,0,0.2,0.1,0.3,0.1C99.5,136.8,99.8,137.2,99.7,137.4z"/>
<path d="M34.7,69.9c0,0.1,0,0.1,0,0.2C34.7,70.1,34.7,70,34.7,69.9L34.7,69.9L34.7,69.9z"/>
<path d="M134.1,48.9c-0.7-1.8-1.2-3.2-1.3-4c-0.1-0.7-0.3-1.3-0.5-2c-0.6-1.6-1-3.3-1.9-4.7c-1.4-2.2-1.3-4.4-1-6.8
	c0.2-1.9,0.6-3.7,0.2-5.6c-0.2-0.9,0.3-2,0.4-2.9c0.1-1,0.2-2.1,0.3-3.1c0.2-2.2-0.5-4-1.9-5.5c-2.5-2.8-5.6-4.6-8.7-6.5
	c-4.4-2.6-9.1-4-14.2-4.4c-0.2-1.8-1.5-2.2-2.8-2.5c-5-1.1-9.6-0.5-13.8,2.5c-2.4,1.7-4.8,3.5-7,5.6c-0.2,0.1-0.3,0.3-0.5,0.5
	c-1.9,1.9-4,2.3-6.3,2.3c-0.3,0-0.6,0-0.9,0h0c-0.2,0-0.6,0-0.9,0.1c-1.4,0.1-2.1,0.1-2.1,0.1c0,0,0.2,0,0.6,0H72
	c0.9,0,2.6,0.1,4.5,0c0.9,0,1.7-0.1,2.2-0.1c-0.3,1.7-0.5,2.8-0.6,3.4c0,0.1-0.1,0.5-0.1,0.9c-0.1,0.7-0.1,1.2-0.1,1.6
	c-0.1,1.5-0.1,1.2-0.2,2.9c0,0.8-0.1,1.3-0.1,2c-0.1,1.9-0.3,3.7-0.3,5.5c0,0.9-0.5,1.3-1.3,1.6c-0.6,0.2-1.1,0.3-1.7,0.4
	c0,0.1,0,0.2,0,0.3c0.5-0.1,1.2-0.1,2.1-0.1c1,0,1.6,0,2.1,0.3c0.5,0.3,0.9,0.8,1.4,1.7c-0.5,0.1-0.8,0.3-1.2,0.3h-4.4v2.1h4.6
	c0.9,0,1.9,0,2.4-1.3c2.5,7,6.9,12.4,12.1,17.5c0,0,0.1,0.1,0.1,0.1v-0.1c0-0.7,0.1-1.3,0.1-1.8c0-0.7,0.2-1,1-1.1
	c2.5-0.2,4.9-0.1,7,1.8c1.2,1,2.7,1.5,4.5,1.1c0.2-1.1,0.4-2,0.5-2.6c0.2-1.3,0.7-4.8,1-6.1c0-0.1,0-0.3,0.1-0.4
	c0.1-0.5,0.3-1,0.5-1.4c0.1-0.3,0.3-0.7,0.4-1c0.6,3.2,1,5.6,1.1,6.5c0.1,0.6,0.1,1.3,0.1,1.3c0.2,2.6,0.3,6.8-0.3,20.2
	c-0.1,2.2-0.2,4-0.3,5.1c0,0,0,0.1,0,0.1c0,0.1,0,0.2,0,0.3c-0.5,1.7-1.2,4.3-1.8,7.4c-0.6,3.3-0.8,5.1-1.3,8.6
	c-0.6,4.1-0.7,4.1-2,11.2c-0.7,3.9-1.2,7.2-2.2,13.6c-1,6.3-1.5,9.4-1.8,12.2c-0.6,4.4-0.9,8.1-1.1,10.7c0,0.2,0,0.4,0,0.6
	c0.4,0.4,0.7,0.4,0.8,0.3c0.5-0.2,0.3-1.7,0.3-5.1c0-0.5,0-1.1,0-1.6c-0.1-4.9,3.8-21.3,5.3-32.2c0.8-5.7,1.2-9,2.3-15.1
	c0.8-4,1.5-7.3,2-9.4c0.1,0.2,0.2,0.4,0.3,0.6c0.1,0.1,0.2,0.3,0.2,0.4l0.4-2l0-0.1c0-0.1-0.1-0.2-0.1-0.2c0-0.1,0-0.1-0.1-0.2v-0.1
	c0.2-6.5,0.2-13.2,0.2-20.1c0-3.6-0.1-7.1-0.2-10.6c-0.5-1.4-0.9-2.5-1.3-3.3c0.2-0.2,0.3-0.3,0.4-0.5c0.5,0.5,1.3,1.1,2.6,1.7
	c1.5,0.6,1.9,0.5,4,1c1.8,0.4,3.3,1,6.2,2.3c1.5,0.7,2.3,1.1,3.3,1.7c1.1,0.7,3.1,2,5,4.4c0.7,1,1.7,2.4,2.5,4.4
	c0.8,0.4,1.7,0.9,2.5,1.3c0-0.1,0.1-0.3,0.2-0.4C136,52.8,135.2,51.6,134.1,48.9z M83.8,36.9c-0.6-1.4-1.2-2.7-1.9-3.9
	c-0.8-1.4-1.9-2.7-3.3-3.7c-0.2-0.2-0.4-0.6-0.4-0.8c0-1.1,0.1-2.3,0.2-3.7c1.2,1.3,2.4,3.5,3.5,5.7c1.4,2.9,2.4,5.9,2.3,7.2
	C84.1,37.4,83.9,37.1,83.8,36.9z M92.3,48.5c-1-1.1-2-2-2.6-3.1c-2.5-3.6-4.6-7.4-5.8-11.7c-0.5-1.8-1.2-3.5-2.1-5.1
	c-0.4-0.7-0.8-1.4-1.3-2.1c-0.5-0.6-0.9-1.4-1.3-2v-0.2c0.9,1,1.7,2,2.6,2.9c2.2,2.5,4.5,5,6.7,7.5l-6.7-7.9l-2.2-2.6
	c-0.4-0.7-1-1.5-1.2-2.2c-0.2-0.8,0-1.7,0.1-2.7c0.9,0.3,1.8,0.6,2.6,0.8c0.2,0.2,0.4,0.4,0.7,0.6c1.9,1.7,3.8,3.6,5.8,5.5
	c0.5,0.5,1,0.9,1.4,1.4l-2.3-2.5l-4.2-4.5c0.5,0.1,1,0.3,1.5,0.6c4.3,2.5,8,6.1,10.9,10.2c0.3,0.4,0.4,1.3,0.2,1.7
	c-1.6,3.8-2.5,7.5-2.7,11.6C92.5,46,92.4,47,92.3,48.5z M133.9,50.9c-0.4,0.3-2.6-3-6.9-6c-1.1-0.8-2-1.3-3.8-2.3
	c-1.8-1-4.3-2.5-7.8-3.7c-2.1-0.7-2.7-0.8-3.5-1.1c0,0-0.5-0.3-0.9-0.5c-1.1-0.6-3.4-2.4-4.8-6.3c-0.6-1.5-0.1-1.1-1.1-8.3
	c-0.4-3.2-0.8-6.5-1.3-9.7c0-0.6-0.1-1.1-0.2-1.7v-0.6c-0.2,0.4-0.4,0.7-0.5,1c-1.3-0.5-3.1-1-5.2-1.4c-4-0.5-7.3-0.1-7.3,0
	s1.9-0.1,4.9,0.3c1.3,0.1,2.7,0.3,4.4,0.8c1.3,0.3,2.3,0.7,3.2,1.1c0.1,0.6,0.3,1.7,0.5,2.7c0.1,0.6,0.2,1.4,0.3,2.1v0.2
	c0.1,0.4,0.1,0.7,0.2,1.1c-0.4-0.1-1.5-0.5-2.9-1c-3.4-1.3-8.5-2.9-9.5-2.2c0.3,0.1,0.7,0.1,1.1,0.1c4.4,0.4,8.2,2.1,11.2,4
	c0.1,0,0.1,0.1,0.2,0.1c0.1,0.8,0.2,1.5,0.3,2.3c0.1,1.1,0.3,2.2,0.4,3.3c-1.5-1.1-8.9-6.2-15.9-6.5c0.9,0.1,1.8,0.3,2.8,0.5
	c5.7,1.4,10,4.1,13.2,6.7c0.1,0.6,0.2,1.1,0.3,1.7c0.3,1.7,0.6,3.4,0.8,5c0.1,0.5,0.2,1.1,0.3,1.7c0.4,2.2,0.3,4.3-0.2,6.5
	c-0.5,1.9-0.7,3.8-1,5.6c-0.3,2.2-1,2.7-3,1.8c-0.5-0.2-1-0.5-1.4-0.8c-2.1-1.9-4.6-1.9-7.1-1.5c-0.3,0-0.6,0.1-0.8,0.1
	c-0.3-1.4-0.1-3.4,0.4-5.7v-0.1c0.6-3,1.4-5.5,2.3-7.4c6.3,7.3,8.2,9.5,8.5,9.8c-0.1-0.3-1.3-1.7-2.4-3c-2-2.3-3-3.4-4.1-5.4
	c-0.3-0.6-0.5-1.1-0.7-1.5c1.8,1,3.5,2.1,5.3,3.1l-6.2-4.4c-1.7-1.8-3.5-3.4-5.2-5.2c-0.2-0.2-0.4-0.3-0.6-0.5
	c-0.2-0.2-0.4-0.3-0.6-0.5c-0.3-0.3-0.6-0.6-0.9-0.8H89c-0.3-0.2-0.6-0.5-0.9-0.7c-0.4-0.2-0.7-0.5-1-0.7c-0.3-0.3-0.7-0.5-1-0.7
	c-0.3-0.2-0.5-0.4-0.8-0.5c-0.3-0.2-0.6-0.4-0.8-0.5c-0.2-0.1-0.5-0.3-0.7-0.4c-0.3-0.2-0.6-0.4-0.9-0.5c-0.2-0.2-0.5-0.3-0.7-0.4
	c-0.1-0.1-0.2-0.1-0.3-0.2c-0.2-0.1-0.5-0.2-0.8-0.3c-0.5-0.2-0.9-0.3-1.4-0.5c-0.3-0.1-0.6-0.2-0.8-0.3h-0.1c0.3-0.6,1-1.3,3.1-1.7
	c1-0.2,2.3-0.3,4-0.3c0,0,4.2,0.3,6.8,0.8c-2.1-0.6-6.1-1.4-10.8-1c-0.5,0-1,0.1-1.5,0.2c0-0.1,0-0.5,0.6-0.9
	c0.2-0.2,0.5-0.4,0.9-0.5c1.2-0.6,3.4-1,7.4-1c0,0-4.1-0.3-7.4,0.7c-0.4,0.1-0.9,0.3-1.3,0.5c-0.6,0.2-1.1,0.5-1.5,0.9
	c0,0-0.2-0.3-0.2-0.7c0-0.5,0.4-1.4,1.7-2.2c0,0,0.4-0.3,1.3-0.6c1.6-0.6,4.8-1.3,10-1.1c-1.8-0.2-3.3-0.2-4.5-0.1
	c0,0-2.2,0.1-5.5,1c-0.7,0.2-1.4,0.4-2.2,0.7c-0.1,0-0.2,0.1-0.2,0.1c-0.1,0-0.1,0.1-0.2,0.1v-1.8c0.2-0.1,0.5-0.3,0.7-0.5
	c0.6-0.5,1.2-1,1.9-1.6c3-2.6,6-5.3,9.7-7c3.4-1.7,7-2.2,10.6-1c1.9,0.5,3,2.1,2.9,4.3c0,0.2-0.1,0.3-0.1,0.4
	c-0.4-0.3-1.1-0.6-2.4-1.1c-1.1-0.4-2.7-0.9-4.8-1.6c1,0.3,2,0.7,3.1,1.3c1.6,0.7,2.9,1.6,4,2.4v0.3c-0.1,0.1-0.1,0.1-0.1,0.2
	c-0.1,0.1-0.1,0.2-0.2,0.3c-0.4,0.6-0.5,1.4-0.6,2.2c0.4-0.5,0.8-1.1,1.2-1.8c0,0,0.1-0.1,0.2-0.1c0,0.1,0.1,0.2,0.1,0.3
	c0,0.1,0.1,0.2,0.1,0.3c0.4,0.9,1.2,1.7,2.8,2.9c2.4,2,3.2,2.5,3.2,2.5c1.5,0.9,3.3,2.2,5.6,3.6c-1.1-0.8-4.9-3.6-7.6-5.9
	c-0.9-0.7-1.6-1.4-2.1-2c0,0-0.4-0.4-0.8-1.1c-0.2-0.3-0.4-0.8-0.5-1.4c0.1-0.3,0.1-0.6,0.1-0.9c0.5,0.2,1.1,0.5,1.9,0.9
	c3.4,1.9,5.1,4.1,8,7.2c1.4,1.5,3.3,3.6,5.8,6l-9.1-10.1c0,0-1.4-1.1-2.9-2.4c-1.3-1-2.6-2.1-3.4-2.5l0.1-0.1V5.5
	c0.1-0.4-0.3-1.3-1.1-2.1c8.2,1.3,15.2,4.7,21.4,10.2c2.4,2.2,3.2,5,2.4,8.3c-0.1,0.3-0.1,0.7-0.1,1c-0.1,0.2-0.2,0.5-0.2,0.7
	c-0.1,0.3-0.1,0.7-0.1,1.1c-0.1-0.5-0.4-0.9-0.6-1.5c-0.4-0.8-0.9-1.7-1.4-2.3c-0.5-0.6-1-1.3-1.5-1.9l-0.3-0.3l-2.6-2.5l-2.5-2.5
	l-4-3.7c0,0-2.7-3.1-4.4-3c0.2,0.1,0.5,0.2,0.9,0.3c1.3,0.5,1.8,1.4,3.3,2.7c0.7,0.6,0.4,0.3,1.6,1.4c0.2,0.1,1.7,1.6,3.1,2.9
	c1,1,2.9,3,5,5.9c0.8,0.9,1.6,2.2,2.5,3.7c0.3,0.5,0.7,1.1,1,1.8c-0.1,0.8-0.1,1.8-0.2,2.7c-2-1.5-3.9-2.9-5.9-4.4
	c0.6,0.5,1.2,1,1.9,1.6c1,0.9,2.3,2.1,3.8,3.4c-0.1,0.3-0.1,0.8-0.2,1.3c-0.5-0.3-1-0.7-1.6-1c-1.5-0.9-3-1.5-4.1-1.8
	c0.9,0.3,2,0.7,3.2,1.5c0.9,0.5,1.7,1.1,2.4,1.7v0.3c0,0.1-0.1,0.5-0.1,1.1c-0.6-0.3-1.3-0.7-2.1-1c-2.9-1.4-5.7-2.2-8.2-2.7
	c0.9,0.3,8,2.7,10.3,4.8c0,0.3,0.1,0.7,0.1,1c0.1,1.6,0.6,2.4,1.4,4.3c-1-0.7-2.5-1.8-4.8-2.9c0,0-3.3-1.9-4.9-2.2
	c0,0-5.1-1.6-6.2-2.3c0.2,0.2,0.4,0.4,0.7,0.5c0.3,0.2,0.6,0.3,0.7,0.3c0.7,0.2,4.9,1.7,5.9,2c1.2,0.5,2.1,1,4,2.3
	c1.4,0.8,3.2,2.2,5.2,4c1.1,2.8,1.2,3.7,1.8,5.4c-2.2-2.4-8.1-8.8-12.6-11.4c0.4,0.3,2.6,1.9,4.2,3.2c4.1,3.6,7.1,7.1,9,9.8
	c0.1,0.1,0.1,0.2,0.2,0.4c0.1,0.2,0.2,0.4,0.3,0.7C133.6,49.5,134.1,50.7,133.9,50.9z"/>
<path d="M113.8,69.9c0,0.1,0,0.1,0,0.2C113.8,70.1,113.8,70,113.8,69.9L113.8,69.9L113.8,69.9z"/>
<linearGradient id="SVGID_00000094598925992780644050000017593567662786401456_" gradientUnits="userSpaceOnUse" x1="117.6776" y1="113.7799" x2="122.0953" y2="114.1877" gradientTransform="matrix(1 0 0 -1 0 191.5276)">
	<stop  offset="0" style="stop-color:#7D7BA1"/>
	<stop  offset="0.615" style="stop-color:#D5D3FF"/>
</linearGradient>
<path style="fill:url(#SVGID_00000094598925992780644050000017593567662786401456_);" d="M121,91.9c-3-6.3-4.3-24.1-4.5-32.2
	c2,8.3,4.7,24.9,5.8,32.2C123.1,94.5,124,98.2,121,91.9z"/>
<path d="M123.7,69.6c-0.1-0.2-0.2-0.4-0.3-0.7L123.7,69.6z"/>
<path d="M115,107.5c0-4.5-0.4-7.9-0.8-10.1c-0.1-0.7-0.6-3.2-1.1-6.6c-0.1-0.8-0.2-1.5-0.3-2c0,0,0,0,0-0.1
	c-0.1-0.7-0.1-1.2-0.1-1.2c0,0,0.3,0.7,0.5,1.9c0.5,2,1.1,5.5,1.5,9.4C115.1,102.1,115.1,105.1,115,107.5z"/>
<path d="M122.9,67.4c-0.5-2-1.3-5.6-2.4-10.1c-0.8-3.4-1.4-5.8-1.9-7.8L119,48c0.2,1,0.4,1.9,0.5,2.7c0.6,3.3,1.4,6.6,2,9.9
	C121.8,62.2,122.3,64.3,122.9,67.4z"/>
<path d="M119,115.1c-0.8-6.1-1.9-12.5-3.4-19.3c-0.1-0.6-0.2-2.4-1.1-4.5c-0.4-0.8-0.8-1.5-1.1-2c-0.2-0.3-0.3-0.5-0.4-0.6
	c0,0,0,0,0-0.1c-0.1-0.4-0.3-1-0.4-1.8c-0.1-0.8-0.2-1.4-0.2-1.6c-0.1-0.9-0.6-4.9-1.9-9c-0.1-0.4-0.3-1-0.5-1.6
	c-0.2-0.6-0.5-1.3-0.8-2.1c0,0,0,0,0,0v0l0.7-2c0.2,0.6,0.4,1.3,0.5,1.9c0,0.1,0.1,0.2,0.1,0.3c0,0.1,0.1,0.2,0.1,0.3
	c0.3,1.1,0.6,2.2,0.9,3.3c0.7,2.6,1.3,5.2,1.9,7.7c0.2,0.7,0.4,1.5,0.6,2.1c0.8,3.4,1.7,6.9,2.4,10.7
	C117.5,103.3,118.4,109.5,119,115.1z"/>
<path d="M121.3,93.1c-0.4-1.5-4-14.7-5.5-33.5l0.3-1.3C117.1,71,118.9,82.7,121.3,93.1z"/>
<path d="M128,90.4c-0.1-0.2-1-4-2.2-9.6c-0.2-0.8-0.4-1.7-0.6-2.6L128,90.4z"/>
<path d="M141.5,101.6c-0.4-1.7-0.9-4.3-1.7-9.6c-0.4-2.9-0.9-6.2-1.4-10.8c-0.5-4.4-0.8-8.1-1-10.6c0-0.1-0.1-0.2-0.1-0.3
	c-0.3-1.8-1.6-8.7-7.2-12.6c-1.5-1-3-1.7-4.3-2c0.1-0.2,0.2-0.4,0.4-0.5c1.3,0.5,3.4,1.4,5.4,3.2c2.1,1.8,3.2,3.8,3.7,4.7
	c1.5,2.8,1.8,5.4,1.9,5.6c-0.1-0.8-0.2-1.7-0.4-2.6c-0.8-4.4-2.1-8.2-3.6-11.3c0.8,0.4,1.5,0.8,2.3,1.2c0.8,2.6,1.6,5.7,2,9.4
	c0.3,2.6,0.4,5.1,0.4,7.2l0.5,4.1c0.2,1.4,0.2,2.8,0.4,4.2c0.6,5.1,1.3,10.4,1.9,15.5C141.1,98.5,141.3,100.2,141.5,101.6z"/>
<path d="M141.6,102.5c-1.9-3.5-3.8-7.2-5.7-11.2c-1.3-2.6-2.4-5.2-3.4-7.7c4,9.3,8.4,16.7,8.4,16.7
	C141.2,101,141.4,101.8,141.6,102.5z"/>
<path d="M144.7,147.8c2.3,5.1,3.5,9.9,3.7,10.7c-0.7-2.5-1.7-5.1-2.9-7.7c-0.4-0.7-0.7-1.5-1-2.2L144.7,147.8z"/>
<path d="M158.8,161.4c-1.1-3.4-3.1-6.3-5.1-9.2c-1.5-2.1-3-4.2-4.6-6.5c2.2-1.8,2.8-4.2,3-6.8c0.5-4.8,0.7-9.6,0.3-14.4
	c-0.5-5.6-2.8-10.3-5.9-14.6c-0.2-0.3-0.5-0.6-0.7-1c-1.9-2.8-2.9-4.2-3.6-5.9c1.1,3.2,2.2,5.3,2.6,5.9c1.7,3.2,2.4,3.5,3.9,5.8
	c2.1,3.5,3.1,7.4,3.2,11.5c0.1,2.6,0.5,6.5-0.3,11.1c0,0.4,0,0.9-0.1,1.5c-0.5-3.5-2-13.7-5-20.8c0.7,1.9,1.3,3.9,1.9,6.1
	c1.8,6.9,2.2,13.2,2.1,18.5c-0.3,0.8-0.6,1.5-0.9,2.1c-0.2,0.2-0.4,0.3-0.6,0.5c0.3-1.5,0.9-4.9-0.1-7.5c0.1,1,0.3,2,0.2,3.1
	c0,2-0.5,3.6-0.9,4.8c-0.1,0.1-0.1,0.1-0.2,0.1c-0.6-17.1-4-19.5-4-19.5c-0.8,1.5,1,9.6,1.2,10.5c-0.4-3-0.7-8.8-0.7-8.8
	c2,0.4,2.9,15.1,3.1,18c-0.5,0.2-0.9,0.2-1.2,0.2c-0.3-1.4-1.4-6-2.5-2.6c0,0-0.4,1-0.4,2.3c0.4-2.3,0.8-2.8,1-2.8
	c0.2,0,0.3,0.3,0.8,1.3c0.3,0.6,0.7,1.3,1,1.8H146c-0.7,0-1.4,0.1-2.6,0.1c0-0.1,0-0.2,0-0.4l-0.1,0.4c-0.4,0.1-0.7,0.1-1.2,0.2
	c-0.4-1-0.7-2-1-3.1c-0.7-2-1.2-3.6-1.6-4.6c0.4,1.6,0.9,3.8,1.8,6.4c0.2,0.4,0.4,0.9,0.5,1.4c-0.2,0-0.3,0.1-0.5,0.1
	c-0.4,0-0.7,0.1-1.1,0.2c-1-1.7-1.1-2.4-2.1-4.4c-0.4-0.6-1.8-3.3-2.4-3.1c-0.2,0.1-0.3,0.6-0.2,2.1c0-0.6,0-2.1,0.6-1
	c0,0,1,1.5,1.7,3.4c0,0,0.5,1.4,1.5,3.3c-0.4,0.1-0.8,0.2-1.2,0.3c-0.2,0.1-0.5,0.2-0.8,0.3c-0.3-0.2-0.8-0.5-1.2-1
	c-1.8-1.5-2.6-3.2-4.8-7c-1.1-2.1-2-3.7-2.5-4.7c0.8,2.3,2.1,4.8,3.6,7.4c1.3,2.1,2.5,4,3.8,5.6c-0.2,0.1-0.4,0.2-0.6,0.3
	c-0.3,0.2-0.7,0.4-1.1,0.6c-0.3,0.2-0.6,0.3-0.8,0.4c-0.6-1.2-1.5-3.3-2.3-4.1c0.2,0.3,1.8,3,1.9,4.2c-0.2,0.1-0.4,0.1-0.5,0.2
	c-0.7-1-2.7-3.5-5.4-8.8c0.6,1.3,1.2,2.6,1.9,4c0.9,1.7,1.8,3.4,2.7,5c-0.5,0.2-0.7,0.1-0.9,0.1c-0.5-0.1-0.8-0.5-1-0.9
	c-3.9-6.6-3.9-7.1-3.9-7.1c-3-9.9-7.3-19.3-10.9-29c-0.1-1.9-0.3-3.7-0.4-5.4c0,1.3-0.1,2.5-0.2,3.7c1.5,5.6,2.7,8.9,3.6,10.8
	c0.2,0.5,0.9,2.1,1.8,4.4c0.4,0.9,0.8,2,1.3,3.7c1.5,4.3,3.8,8.3,4.9,12.8c0,0,0.4,1.5,3.3,6.6c0.5,0.8,1.3,1.4,2.6,1.1
	c-0.7,3.6-3.2,16-2.9,18.9c0,0.3,0.1,1.3,0.6,1.5c0.6,0.2,1.6-0.8,1.9-1.1c1.9-2.1,4.4-2.2,11.2-5.5c6-3,8.4-5.1,10-4
	c0.7,0.5,1,1.4,1.1,1.7c0.7,2.2-0.9,4.2-1.1,4.5c0.2,0,0.5,0,0.8,0c0.5,0,1,0,1.6-0.2c2.1-0.6,3-2.5,3.2-3
	C159.1,163,159,162.1,158.8,161.4z M153.8,166.1c0.1-0.1,0.1-0.1,0.1-0.2c0.2-0.6,0.4-1.2,0.5-2c0.2-1,0.3-1.8,0-2.7
	c-0.1-0.2-0.3-0.8-0.8-1.3c-0.2-0.1-0.5-0.3-0.7-0.3c-1-1.6-1.8-3.4-2.8-5.1c-0.5-1-1.2-2.2-2.2-3.8c1.1,2,1.9,3.6,2.6,4.9
	c0,0.1,0.5,1.1,1.4,3.1c0.2,0.3,0.4,0.6,0.5,1c-1.1,0.1-2.5,0.7-3.4,1.1c-1.1,0.6-2.7,1.4-4.7,2.6c-2.2,0.9-4.4,1.7-6.6,2.5
	c-1.2,0.5-2.6,1-4.4,2.1c-1.4,0.9-2.5,1.8-3.2,2.4c0.5-3.2,0.9-6.4,1.4-9.5c0.4-3.1,0.9-6.4,1.4-9.6c0.1-0.2,0.1-0.5,0.2-0.8
	c0,0.1,0.1,0.1,0.1,0.2c0,0,0.9,3.2-0.2,12.5l1.1-8.3c0,0,1.6,3.7,1.1-3.8c0,1.3,0.2,5.3-0.8,2.7l0.1-4.2c0.2-0.1,0.4-0.2,0.6-0.3
	c0.3-0.1,1.2-0.7,1.7-1l1,6.1l-0.7-6.3c0.4-0.2,0.5-0.3,0.6-0.3h0.1c0.4-0.1,1.2-0.3,2.2-0.5c0.2,0.4,0.5,0.8,0.8,1.3l0.3,0.4
	c0.3,0.4,0.6,0.8,1,1.3c0.9,1.2,1.3,1.4,1.4,1.3c0.2-0.1,0.1-0.9-0.2-2.1c-0.1,0.1-0.1,0.1-0.2,0.1c-0.1-0.2-0.2-0.4-0.3-0.5
	c0.2,0.9,0.3,1.4,0.2,1.5c-0.3,0.1-1.5-1.8-2.3-3.3c0.5,0,1-0.1,1.5-0.2c0.1-0.1,0.4-0.1,0.8-0.2v0.1c2.1-0.3,4-0.5,4-0.5
	c0.2,0,0.6-0.1,1.1,0.1c0.8,0.3,1.2,1.1,1.7,1.8l1.4,2.2c2.2,3.4,5,6.6,6.5,10.5c0.2,0.4,0.2,0.8,0.2,1.3
	C157.7,164.2,155.9,166.2,153.8,166.1z"/>
<path class="st3" d="M113.8,70.1c0,0,0-0.1,0-0.1v-0.1C113.8,70,113.8,70,113.8,70.1z"/>
</svg>
