<?xml version="1.0" encoding="UTF-8"?>
<svg id="_Слой_1" data-name="Слой 1" xmlns="http://www.w3.org/2000/svg" xmlns:xlink="http://www.w3.org/1999/xlink" viewBox="0 0 595 958">
  <defs>
    <style>
      .cls-1 {
        fill: url(#_Безымянный_градиент_18-9);
      }

      .cls-1, .cls-2, .cls-3, .cls-4, .cls-5, .cls-6, .cls-7, .cls-8, .cls-9, .cls-10, .cls-11, .cls-12, .cls-13, .cls-14, .cls-15, .cls-16, .cls-17, .cls-18, .cls-19 {
        stroke-width: 0px;
      }

      .cls-2 {
        fill: url(#_Безымянный_градиент_17-2);
      }

      .cls-3 {
        fill: url(#_Безымянный_градиент_18-2);
      }

      .cls-4 {
        fill: url(#_Безымянный_градиент_17-4);
      }

      .cls-5 {
        fill: url(#_Безымянный_градиент_18);
      }

      .cls-6 {
        fill: url(#_Безымянный_градиент_18-8);
      }

      .cls-7 {
        fill: url(#_Безымянный_градиент_8);
      }

      .cls-8 {
        fill: url(#_Безымянный_градиент_17-6);
      }

      .cls-9 {
        fill: url(#_Безымянный_градиент_16);
      }

      .cls-10 {
        fill: url(#_Безымянный_градиент_17-5);
      }

      .cls-11 {
        fill: url(#_Безымянный_градиент_16-2);
      }

      .cls-12 {
        fill: url(#_Безымянный_градиент_17);
      }

      .cls-13 {
        fill: #63182f;
      }

      .cls-14 {
        fill: url(#_Безымянный_градиент_17-3);
      }

      .cls-15 {
        fill: url(#_Безымянный_градиент_18-5);
      }

      .cls-16 {
        fill: url(#_Безымянный_градиент_18-3);
      }

      .cls-17 {
        fill: url(#_Безымянный_градиент_18-6);
      }

      .cls-18 {
        fill: url(#_Безымянный_градиент_18-4);
      }

      .cls-19 {
        fill: url(#_Безымянный_градиент_18-7);
      }
    </style>
    <linearGradient id="_Безымянный_градиент_18" data-name="Безымянный градиент 18" x1="415.93" y1="452.47" x2="415.93" y2="335.75" gradientTransform="translate(0 960) scale(1 -1)" gradientUnits="userSpaceOnUse">
      <stop offset="0" stop-color="#cc5e60"/>
      <stop offset="1" stop-color="#a94342"/>
    </linearGradient>
    <linearGradient id="_Безымянный_градиент_18-2" data-name="Безымянный градиент 18" x1="405.8" y1="670.54" x2="405.8" y2="511.41" xlink:href="#_Безымянный_градиент_18"/>
    <linearGradient id="_Безымянный_градиент_18-3" data-name="Безымянный градиент 18" x1="389.97" y1="696.9" x2="389.97" y2="335.75" xlink:href="#_Безымянный_градиент_18"/>
    <linearGradient id="_Безымянный_градиент_17" data-name="Безымянный градиент 17" x1="389.97" y1="696.9" x2="389.97" y2="335.75" gradientTransform="translate(0 960) scale(1 -1)" gradientUnits="userSpaceOnUse">
      <stop offset="0" stop-color="#dfa4b6"/>
      <stop offset="1" stop-color="#d07087"/>
    </linearGradient>
    <linearGradient id="_Безымянный_градиент_18-4" data-name="Безымянный градиент 18" x1="427.79" y1="741.96" x2="427.79" y2="380.65" xlink:href="#_Безымянный_градиент_18"/>
    <linearGradient id="_Безымянный_градиент_17-2" data-name="Безымянный градиент 17" x1="230.37" y1="799.12" x2="230.37" y2="540.79" xlink:href="#_Безымянный_градиент_17"/>
    <linearGradient id="_Безымянный_градиент_18-5" data-name="Безымянный градиент 18" x1="230.37" y1="799.12" x2="230.37" y2="540.79" xlink:href="#_Безымянный_градиент_18"/>
    <linearGradient id="_Безымянный_градиент_17-3" data-name="Безымянный градиент 17" x1="80.22" y1="551.79" x2="80.22" y2="397.76" xlink:href="#_Безымянный_градиент_17"/>
    <linearGradient id="_Безымянный_градиент_17-4" data-name="Безымянный градиент 17" x1="217.26" y1="766.8" x2="217.26" y2="414.34" xlink:href="#_Безымянный_градиент_17"/>
    <linearGradient id="_Безымянный_градиент_8" data-name="Безымянный градиент 8" x1="280.01" y1="724.08" x2="280.01" y2="660.36" gradientTransform="translate(0 960) scale(1 -1)" gradientUnits="userSpaceOnUse">
      <stop offset="0" stop-color="#9e4459"/>
      <stop offset="1" stop-color="#a35b6b"/>
    </linearGradient>
    <linearGradient id="_Безымянный_градиент_18-6" data-name="Безымянный градиент 18" x1="111.23" y1="476.87" x2="111.23" y2="362.77" xlink:href="#_Безымянный_градиент_18"/>
    <linearGradient id="_Безымянный_градиент_18-7" data-name="Безымянный градиент 18" x1="150.65" y1="517.25" x2="150.65" y2="331.17" xlink:href="#_Безымянный_градиент_18"/>
    <linearGradient id="_Безымянный_градиент_18-8" data-name="Безымянный градиент 18" x1="150.65" y1="517.25" x2="150.65" y2="331.17" xlink:href="#_Безымянный_градиент_18"/>
    <linearGradient id="_Безымянный_градиент_16" data-name="Безымянный градиент 16" x1="131.28" y1="488.86" x2="131.28" y2="348.2" gradientTransform="translate(0 960) scale(1 -1)" gradientUnits="userSpaceOnUse">
      <stop offset="0" stop-color="#9d5246"/>
      <stop offset="1" stop-color="#6a2d22"/>
    </linearGradient>
    <linearGradient id="_Безымянный_градиент_17-5" data-name="Безымянный градиент 17" x1="131.28" y1="488.86" x2="131.28" y2="348.2" xlink:href="#_Безымянный_градиент_17"/>
    <linearGradient id="_Безымянный_градиент_16-2" data-name="Безымянный градиент 16" x1="167.84" y1="522.68" x2="167.84" y2="354.99" xlink:href="#_Безымянный_градиент_16"/>
    <linearGradient id="_Безымянный_градиент_17-6" data-name="Безымянный градиент 17" x1="167.84" y1="522.68" x2="167.84" y2="354.99" xlink:href="#_Безымянный_градиент_17"/>
    <linearGradient id="_Безымянный_градиент_18-9" data-name="Безымянный градиент 18" x1="150.65" y1="517.25" x2="150.65" y2="331.17" xlink:href="#_Безымянный_градиент_18"/>
  </defs>
  <path class="cls-5" d="M450.88,507.53l-2.33,33.55-23.39,31.6-.71.97-.84,1.14-.45.61-13.68,18.48-1.49,1.75-.5.59-.38.45-.73.86-21.7,25.45h-.01l-1.43.51-.23.08-2.01.7,8.02-13.93,8.23-19.21.72-1.96,2.61-7.16.31-.83,1.25-3.4.07-.18,2.76-7.54.73-3.53,1.53-7.34,2.21-10.62c.27.08.55.13.83.18.33.06.66.09.98.11.24.02.49.03.73.03.22-.07.45-.1.68-.1h.9c.36-.03.71-.1,1.07-.17,6.94-1.44,14.21-8.42,20.42-16.31.36-.44.7-.88,1.04-1.33.39-.51.78-1.01,1.15-1.52,6.67-9.01,11.84-18.47,13.66-21.89Z"/>
  <path class="cls-3" d="M455.49,440.88l-.54,7.71c-1.77-4.13-3.39-6.28-3.39-6.28-2.92-4.36-5.85-6.7-8.67-7.65-.16-.06-.33-.11-.49-.16,0,0-.24-.07-.48-.12-3.38-.77-7.75,3.27-7.75,3.27-5.23,4.83-6.15,10.76-7.12,10.56-.6-.12-.97-2.49-.22-11.74-6.34-17.43-12.68-34.86-19.03-52.29l-3.93-9.1-7.14-17.76-5.66-18.66-3.24-13.79-3.86-14.58-.76-1.52-.17-.36-.2-.4-7.46-6.3-8.22-4.94-6.17-2.86-3.63-.69-1.06-.2s-.09,0-.12-.02l-.1-.02,2.6-.24,5.27-.47,6.49-.59,6.59-.6,18.03-1.62,37.85,42.84,7.36,35.42,2.53,12.14,12.68,61.01h-.01Z"/>
  <path class="cls-13" d="M441.03,415.44c.4,1.8.68,3.08.82,3.75-.16-.6-.47-1.62-.9-3.03-.01-.02-.02-.05-.02-.07-2.73-8.88-10.46-32.65-20.45-56.76-7-16.89-15.09-33.95-23.36-46.16-.02-.02-.03-.06-.06-.08-.3-.45-.59-.89-.9-1.32-3.01-4.3-5.73-7.41-8.15-9.67,0,0-.02-.03-.04-.04-3.53-3.33-6.38-4.86-8.37-5.74-5.53-2.51-10.14-2.73-19.16-3.01-.97-.03-2-.06-3.08-.09-.11-.01-.22-.01-.33-.01-3.17-.11-6.82-.25-11.14-.49-7.81-.62-14.28-1.11-18.24-1.6,8.28-.12,18.48-.25,22.08-.25,10.21-.09,15.65-.19,20.72.8,1.6.32,3.16.73,4.83,1.3h.03c.34.12,3.41,1.23,7.14,3.27,1.16.63,2.39,1.36,3.62,2.18,3.36,2.19,6.55,5.08,9.56,8.45,14.02,15.64,24.11,41.38,28.36,52.78,5.16,13.79,8.99,25.81,11.74,35.38.01.02.01.04.02.07,2.66,9.23,4.33,16.2,5.27,20.34Z"/>
  <path class="cls-16" d="M464.67,491.21l-.6,13.42-.09,1.93-1.86,10.33-.03.21-.62,3.42v.09l-.82,4.46-1.47,5.23-.02.08-2.65,9.47-.02.06-.99,3.54-2.8,5.39-.03.07-4.71,9.1-.16.3-4.1,7.9-.65.96-.03.04-6.73,9.96-6.78,8.2-.85,1.04-2.44,2.94-1.86,2.24-.45.43-.02.02-.03.03-3.14,2.99-1.98,1.89-5.35,5.1-.4.33-.9.73-14.33,11.67-10.84,7.85-4.32,1.63.63-.78,21.97-27.09.73-.9.14-.18.48-.59,2.92-3.61,3.76-4.23c.07-.07.12-.14.16-.2l3.74-5.96c.04-.08.1-.15.14-.23l1.75-2.79,2.33-3.98s.05-.09.08-.14l.3-.5,1.61-2.76.64-1.08,1.84-3.14,4.47-11.87,4.32-16.71,1.45-6.57c.39-.51.78-1.01,1.15-1.52,6.67-9.01,11.84-18.47,13.66-21.89.45-.86.69-1.34.69-1.34,12.38-28.11,7.48-48.1,3.39-57.6-1.77-4.13-3.39-6.28-3.39-6.28-2.92-4.36-5.85-6.7-8.67-7.66-.16-.06-.33-.11-.49-.16l-.42-6.61-1.04-11.73-.04-.46-2.02-7.49-3.13-13.11s-.01-.04-.02-.07l-11.59-31.21-11.65-28.28-16.86-28.67-9.56-8.45-2.92-1.48-7.84-3.96h-.03s-11.33-.72-11.33-.72l-.54-.03h-13.45l-22.32-1.11-10.22-1.38-1.44-.2-.71-.09,13.58-3.56.33-.09,5.7-1.5,4.64-1.18h.01l8.43-2.15,1.32-.34.92-.47,7.82-3.98,3.21-1.65c.2-.1.39-.2.6-.32l1.29-.65c.23-.12.46-.24.69-.35.23-.11.47-.22.71-.35l11.22-5.67,12.77-4.09,4.64.14h.03l6.78.18,3.47.1,2.76,1.87,7.91,5.37.03.02,1.65,1.12.99,1.36.02.02.14.17.03.06,6.47,8.81s.01.02.02.03l8.42,22.53v.05l4.45,17.34.7,2.02,1.4,4.09.03.11.76,2.18,2.76,8.01,3.28,14.6.04.2,2.96,13.19,2.59,10.96.03.13,3.14,13.23,2.18,12.51v.09l2.29,13.06,1.52,10v.08l.94,6.1,1.78,16.75,1.65,25.94.07,3.81v.03l.21,11.85h.01Z"/>
  <path class="cls-12" d="M464.67,491.21l-.6,13.42-.09,1.93-1.86,10.33-.03.21-.62,3.42v.09l-.82,4.46-1.47,5.23-.02.08-2.65,9.47-.02.06-.99,3.54-2.8,5.39-.03.07-4.71,9.1-.16.3-4.1,7.9-.65.96-.03.04-6.73,9.96-6.78,8.2-.85,1.04-2.44,2.94-1.86,2.24-.45.43-.02.02-.03.03-3.14,2.99-1.98,1.89-5.35,5.1-.4.33-.9.73-14.33,11.67-10.84,7.85-4.32,1.63.63-.78,21.97-27.09.73-.9.14-.18.48-.59,2.92-3.61,3.76-4.23c.07-.07.12-.14.16-.2l3.74-5.96c.04-.08.1-.15.14-.23l1.75-2.79,2.33-3.98s.05-.09.08-.14l.3-.5,1.61-2.76.64-1.08,1.84-3.14,4.47-11.87,4.32-16.71,1.45-6.57c.39-.51.78-1.01,1.15-1.52,6.67-9.01,11.84-18.47,13.66-21.89.45-.86.69-1.34.69-1.34,12.38-28.11,7.48-48.1,3.39-57.6-1.77-4.13-3.39-6.28-3.39-6.28-2.92-4.36-5.85-6.7-8.67-7.66-.16-.06-.33-.11-.49-.16l-.42-6.61-1.04-11.73-.04-.46-2.02-7.49-3.13-13.11s-.01-.04-.02-.07l-11.59-31.21-11.65-28.28-16.86-28.67-9.56-8.45-2.92-1.48-7.84-3.96h-.03s-11.33-.72-11.33-.72l-.54-.03h-13.45l-22.32-1.11-10.22-1.38-1.44-.2-.71-.09,13.58-3.56.33-.09,5.7-1.5,4.64-1.18h.01l8.43-2.15,1.32-.34.92-.47,7.82-3.98,3.21-1.65c.2-.1.39-.2.6-.32l1.29-.65c.23-.12.46-.24.69-.35.23-.11.47-.22.71-.35l11.22-5.67,12.77-4.09,4.64.14h.03l6.78.18,3.47.1,2.76,1.87,7.91,5.37.03.02,1.65,1.12.99,1.36.02.02.14.17.03.06,6.47,8.81s.01.02.02.03l8.42,22.53v.05l4.45,17.34.7,2.02,1.4,4.09.03.11.76,2.18,2.76,8.01,3.28,14.6.04.2,2.96,13.19,2.59,10.96.03.13,3.14,13.23,2.18,12.51v.09l2.29,13.06,1.52,10v.08l.94,6.1,1.78,16.75,1.65,25.94.07,3.81v.03l.21,11.85h.01Z"/>
  <path class="cls-13" d="M441.99,419.77s-.07-.23-.13-.52c.09.3.13.48.13.52Z"/>
  <path class="cls-18" d="M358.78,275.26l6.96-7.47,7.95-11.12,9.47-18.24,5.86-20.38,17.17,9.36,9.73,8.06,11.66,13.99,9.87,16.98,12.75,26.86,10.39,24.88,9.93,24.58,3.96,9.81,5.6,14.74,4.64,13.95,3.42,9.85,3.41,15.01,2.74,14.35,1.51,11.17.61,7.49.38,10.33-.03,11.4-.51,11.4-1.47,13.2-2.08,12.09-1.94,11.22-6.42,28.1-3.31,8.83-5.76,12.48-7.22,12.71-6.39,8.5,3.27-10.94,3.77-12.94,3.57-14.86,2.47-11.85-3.06,4.93-5.72,10.46-9.39,13.99-10.83,12.23-4.87,4.03-4.05,2.27,5.54-8.27,9.68-18.06,5.41-12.75,4.23-18.03,2.42-15.27.67-9.05-.12-12.37-.83-14.13-.95-15.21-1.57-12.8-2.2-24.02-4.73-21.57-5.07-25.38-6.4-26.08-4.44-15.2-5.96-22.12-8.99-21.64-6.65-11.38-7.4-6.92-11.87-3.75-10.62,1.34-11.25,3.18-8.74,4.2-8.22,3.86Z"/>
  <path class="cls-2" d="M78.94,418.93c-2.25-.87-4.82-4.01-5.41-14.74l-1.78-17.38,1.78-17.92,11.27-19.4,13.06-18.97,10.6-16.75,7.51-15.26,16.56-27.78,13.78-19.09,25.2-27.15,18.21-16.11,25.82-18.44,29.51-14.74,21.08-7.42,23.14-5.2,19.33-1.69,24.38,1.06,19.43,3.92,15.84,6.47,12.75,10.6,6.53,13.26,1.49,7.63-.49,10.5-2.79,16.22-7.07,19.67-12.05,16.25c-1.43,2.38-3.88,5.83-7.82,8.83-2.7,2.06-5.35,3.33-16.15,6.86-8.68,2.84-13.04,4.25-13.68,3.86-8.77-5.39,29.22-63.13,15.94-80.05-13.08-16.69-78.71,2.72-132.52,44.8-86.92,67.95-116.71,174.64-133.44,168.17Z"/>
  <path class="cls-15" d="M78.94,418.93c-2.25-.87-4.82-4.01-5.41-14.74l-1.78-17.38,1.78-17.92,11.27-19.4,13.06-18.97,10.6-16.75,7.51-15.26,16.56-27.78,13.78-19.09,25.2-27.15,18.21-16.11,25.82-18.44,29.51-14.74,21.08-7.42,23.14-5.2,19.33-1.69,24.38,1.06,19.43,3.92,15.84,6.47,12.75,10.6,6.53,13.26,1.49,7.63-.49,10.5-2.79,16.22-7.07,19.67-12.05,16.25c-1.43,2.38-3.88,5.83-7.82,8.83-2.7,2.06-5.35,3.33-16.15,6.86-8.68,2.84-13.04,4.25-13.68,3.86-8.77-5.39,29.22-63.13,15.94-80.05-13.08-16.69-78.71,2.72-132.52,44.8-86.92,67.95-116.71,174.64-133.44,168.17Z"/>
  <path class="cls-13" d="M399.39,337.89c-3.13-12.04-8.62-20.97-14.68-27.53-.5-.54-1.01-1.07-1.51-1.58-.11-.11-.23-.23-.34-.34-10.67-10.6-22.47-14.33-25.84-15.22-.33-.09-.58-.15-.73-.19-.05,0-.09,0-.12-.02l-.1-.02c.36-.25.6-.5.84-.74.57.16,1.16.33,1.76.51.57.18,1.16.37,1.76.57,4.18,1.4,8.93,3.49,13.76,6.84,17.88,12.12,23.63,31.3,25.2,37.72Z"/>
  <path class="cls-14" d="M74.96,408.21l5.71,12.3,3.6,103.97-.6,3.09,1.78,13.39,3.32,10.85,3.95,7.96,1.17,2.47-5.31-4.98-6.62-9.01-5.52-10.92-5.17-14.95-3.19-17.46-1.51-21.13.51-21.67,1.65-20.43,2.88-18.04,3.36-15.43Z"/>
  <path class="cls-4" d="M360.99,223.72l-1.91,16.74-6.1,21.08s-.02.04-.04.06c-1.86,2.81-3.86,5.41-5.87,7.79-.46.53-.91,1.05-1.36,1.56-2.96,3.34-5.92,6.19-8.5,8.48-2.35,2.09-4.68,3.95-6.92,5.58-.37.27-.74.54-1.1.8-.08.06-.15.1-.23.16-3.74,1.06-6.95,1.96-9.5,2.66-1.65.45-2.73.76-3.47.93-.84.21-1.22.27-1.46.24-.07,0-.13-.02-.19-.06,0,0-.04-.03-.08-.06-.14-.09-.25-.21-.34-.35-.01-.02-.03-.06-.04-.08-1.89-3.58,9.61-19.91,7.22-31.64-.24-1.16-.61-2.29-1.15-3.35-1.79-3.53-5-5.59-8.81-7.05-1.09-.41-2.25-.77-3.45-1.09-1.97-.55-4.04-1.01-6.11-1.48-1.68-.37-9.73-2.04-19.98-.86-.43.05-.85.1-1.28.16-2.96.41-6.08,1.05-9.27,2.03-.5.16-1.02.32-1.52.5-2.48.85-5.01,1.89-7.51,3.2,0,0,0,0-.02.02-1.14.59-2.26,1.24-3.39,1.94-1.38.86-2.73,1.8-4.08,2.83-1.43,1.09-2.76,2.23-4,3.43-7.01,6.67-11.44,14.97-18.33,27.86-4.69,8.78-7.33,15.58-9.56,21.31-3.95,10.09-16.63,42.52-23.49,57.61-4.49,9.9-9.06,18.05-14.34,26.17-1.94,2.99-3.97,5.98-6.12,9.03-4.12,5.86-8.71,12.03-13.95,19.09-5.33,7.17-10.8,14.54-16.95,22.11-.46.56-.92,1.12-1.38,1.68-.38.46-.77.94-1.16,1.4-4.17,5.03-8.65,10.14-13.61,15.32-3.7,3.88-7.64,7.8-11.92,11.76v.02c-.2.17-.38.34-.57.51-.13.12-.27.26-.42.38-.37.35-.77.7-1.15,1.05-.02.02-.03.03-.04.05-2.65,2.4-4.63,4.1-6.28,5.6-1.78,1.61-3.17,2.98-4.64,4.72-.5.61-1.01,1.26-1.54,1.98-.68.91-1.32,1.85-1.92,2.8l-.03.03-.05.09c-1.33,2.09-2.52,4.23-3.53,6.42-.38.81-.74,1.63-1.08,2.46-4.78,11.53-5.71,24.1-5.04,35.46.02.59.07,1.16.11,1.74.04.63.09,1.26.14,1.88.28,3.14.67,6.18,1.1,9.04,0,0,0,0,.01.02,0,.07.01.12.02.18-.67-1.33-1.32-2.66-1.98-3.98-.13-.27-.27-.55-.43-.85h-.01s-.02-.07-.04-.09c-.55-1.1-1.09-2.2-1.64-3.29,0-.02-.01-.03-.02-.06-.75-1.51-1.51-3.02-2.26-4.53-.01-.01-.01-.02-.02-.05h-.01l-.96-1.97s-.03-.06-.04-.09l-3.08-6.25v-.02l-.83-1.66-1.41-2.85v-.02l-2.39-10.64-3.91-17.1-2.2-21.06,1.37-23.34,4.88-24.6.63-3.22h.01l.14-.78.22-1.08,8.1-28.41,12.76-30.11,12.64-25.03s.04-.07.07-.1l10.19-13.89,13.71-16.82,10.97-11.59,36.52-33.44,13.99-11.71,18.1-16.01,16.46-12.67,18.82-11.24,13.32-5.67,13.38-4.08,16.04-3.29,21.85-.85,15.64,2.18,10.18,3.65,8.02,5.41,5.5,6.04,3.97,13.25h-.01Z"/>
  <path class="cls-13" d="M426.76,403.2c-7.11-2.19-13.46-9.44-18.96-19.02-16.04-27.94-24.95-75.73-24.95-75.73.01,0,.02-.01.03-.01.05-.01.11-.02.16-.02.42-.04.82.09,1.13.41.36.37.48.98.48,1.1.01.09.03.24.08.43.95,4.74,10.59,38.65,13.23,47.21,2.29,7.54,6.73,21.03,17.64,34.39,4.2,5.07,8.28,8.78,11.17,11.25Z"/>
  <path class="cls-13" d="M442.25,416.93c-.04.95-.09,1.89-.14,2.85-.09-2.07-.17-4.09-.25-6.08-.8-19.89-1.22-35.12-1.54-45.14-.01-.28-.02-.56-.03-.83-.46-13.42-.61-23.07-2.98-36.64-1.19-7.06-2.64-15.1-5.99-24.99-5.64-16.82-11.77-34.76-26.52-40.33-8.52-3.21-16.8-1.11-23.64.62-1.98.51-3.49,1.07-5.41,1.76-4.31,1.53-8.1,3.21-11.22,4.72-.24.12-.48.24-.71.35-.93.46-1.79.91-2.58,1.32-1.2.64-2.24,1.23-3.11,1.71-1.13.65-1.95,1.15-2.44,1.44-1.3.77-3.1,1.59-5.49,2.47-.7.27-1.44.53-2.24.81-6.51,2.24-16.4,5.01-30.53,8.78-4.64,1.23-9.73,2.58-15.32,4.06-3.38.89-8.23,2.18-12.62,3.31l-.16.05-.32.08c-5.37,1.39-9.9,2.51-9.93,2.39,0-.28,17.5-5.39,24.41-7.41,4.81-1.4,7.22-2.11,9.59-2.77.26-.08.53-.15.79-.21.04-.02.1-.03.14-.04.57-.16,1.12-.32,1.66-.46.09-.02.18-.04.27-.08,5.37-1.48,9.32-2.46,12.44-3.2.67-.16,1.3-.3,1.9-.45,5.71-1.32,8.63-1.88,14.04-3.78,2.91-1.01,6.73-2.68,12.88-5.59.04-.02.08-.03.11-.06.66-.31,1.35-.63,2.06-.97.16-.08.34-.17.51-.25.32-.16.64-.3.97-.47.01.01.01,0,.01,0,1.55-.74,3.23-1.56,5.05-2.44.16-.08.33-.16.48-.24.96-.46,1.86-.9,2.72-1.33,3.34-1.62,5.99-2.94,8.45-3.99.78-.33,1.54-.63,2.29-.91,2.45-.93,4.82-1.58,7.65-2.06,3.6-.62,10.31-1.74,16.68.12,2.33.7,10.31,3.35,19.26,19.27,0,.01.01.02.02.03,2.1,3.75,4.25,8.24,6.4,13.61,4.12,10.14,6.64,19.58,8.27,28.21.43,2.22.79,4.39,1.09,6.49.05.29.1.59.14.88.2,1.43.38,2.84.56,4.23.4,3.3.71,6.44.97,9.41.89,9.74,1.64,21.4,1.9,34.69.23,11.23.12,23.64-.56,37.06Z"/>
  <path class="cls-13" d="M387.52,217.27c6.24,2.22,15.59,6.31,25.32,13.86,7.56,5.94,19.43,17.19,45,77.32,8.4,19.8,13.2,32.91,19.08,49.11,10.44,28.46,14.4,41.82,17.04,57.65.96,6.06,2.39,15.71,3,27.71,1.32,27.09-2.15,47.5-4.8,62.6-2.76,16.08-4.44,25.48-9.48,38.1-9,22.39-21.12,35.63-21,35.75.12,0,10.91-13.98,18.72-33.89.96-2.59,4.56-11.75,8.64-31.79,4.32-21.03,8.64-41.94,7.44-68.41-.72-16.57-3.24-28.58-5.88-40.82-1.92-8.91-7.32-32.91-38.27-103.17-17.64-40.08-25.2-53.69-40.08-66.92-9.24-8.53-18.36-13.86-24.71-17.07Z"/>
  <path class="cls-13" d="M461.67,579.35c9.36-26.47,19.79-65.93,21-114.67,1.44-59.63-11.64-107.25-22.08-136.19,9.84,30.68,21.12,77.8,19.91,135.95-.96,47.75-10.08,87.08-18.84,114.92h.01Z"/>
  <path class="cls-13" d="M486.39,384.14s43.56,99.09,6.83,140.28c4.2-6.68,9.96-17.81,12.36-32.54,1.56-10.15.84-17.57-.24-29.56-1.68-17.32-5.04-30.31-8.52-43.05-2.15-8.04-5.28-18.8-9.84-31.42-.36-1.24-.48-2.47-.6-3.71h.01Z"/>
  <path class="cls-13" d="M464.88,494.49v.05c-.02.99-.05,1.98-.09,2.96v.02c-.4,10.89-1.65,21.33-4.44,32.11-4.59,17.5-12.48,32.67-21.85,45.67-.16.24-.34.49-.52.72-.34.48-.7.96-1.04,1.43,0,0-.01,0-.01.01-2.31,3.08-4.68,6.02-7.11,8.84-.34.39-.68.79-1.03,1.17-1.21,1.39-2.45,2.75-3.68,4.07,0,.01-.01.01-.01.01-1.32,1.41-2.65,2.78-3.98,4.13-.01,0-.01.01-.01.01-2.4,2.39-4.81,4.68-7.23,6.87h-.01c-.37.34-.74.68-1.11,1-12.88,11.45-25.74,19.86-35.42,25.5.33-.47,10.92-15.87,20.35-40.65.97-2.56,1.92-5.21,2.85-7.95h.01l.61-1.85h.01l.2-.62c1.33-4.08,2.61-8.36,3.78-12.8,1.42-5.36,2.69-10.97,3.75-16.8.17.06.35.1.52.14.27.08.55.13.83.18.33.06.66.09.98.11-.02.13-.04.28-.08.42h-.01c-.14.77-.31,1.52-.47,2.28-1.62,7.52-3.59,14.32-5.4,20.41-.23.79-.48,1.6-.73,2.43-.16.58-.35,1.16-.54,1.75-.8,2.57-1.7,5.28-2.71,8.13-.21.55-.4,1.12-.61,1.69-.36.99-.73,1.99-1.13,3.02-.18.45-.35.91-.54,1.36-3.86,9.98-9.02,21.29-16,33.24-.13.24-.26.46-.4.7.7-.43,1.39-.85,2.07-1.29h.01c10.47-6.54,19.42-13.35,27.09-20.17.26-.21.51-.45.77-.68,1.78-1.6,3.49-3.19,5.13-4.79.45-.44.9-.88,1.35-1.33h.02c2.25-2.24,4.38-4.49,6.39-6.69h.01s0-.02.01-.03c.43-.46.84-.94,1.25-1.4.6-.68,1.19-1.35,1.77-2.03.29-.34.58-.68.85-1.02,13.43-15.93,20.42-30.36,24.07-39.26,9.8-23.96,12.15-47.98,10.6-74.41-.02-.55-.07-1.13-.1-1.69v-.05c-.01-.23-.03-.45-.04-.69-1.51-22.43-5.69-46.62-10.45-73.96-4.1-23.54-9.05-43.54-13.44-58.96,0,0,0,0-.01-.02v-.03c-1.13-3.93-2.21-7.55-3.23-10.87.09-.18.21-.4.34-.62.07-.11.13-.23.21-.34.17-.3.37-.61.54-.89.11.36.23.73.35,1.12,0,.02,0,.03.01.06,2.95,9.71,6.88,23.37,10.8,39.89,5.39,23.14,13.19,55.8,14.99,94.39.63,13.07,1.19,24.79.93,35.99h-.01Z"/>
  <path class="cls-13" d="M436.07,530.95c.39-.51.78-1.01,1.15-1.52-.57,2.91-1.18,5.84-1.83,8.78-2.68,12.12-5.53,22.11-10.99,32.26-.21.38-.42.77-.63,1.15-.38.71-.8,1.43-1.23,2.14-.12.21-.25.43-.38.64-.19.3-.37.62-.56.92-2.79,4.52-5.63,8.31-8.2,11.35-.04.07-.1.14-.16.2-1.36,1.62-2.64,3.03-3.76,4.23,2.27-2.75,4.92-6.21,7.67-10.39.04-.08.1-.15.14-.23.58-.89,1.17-1.82,1.75-2.78.79-1.26,1.56-2.59,2.33-3.98.03-.04.05-.09.08-.14.1-.17.19-.34.28-.51.52-.96,1.05-1.93,1.56-2.94.2-.38.4-.79.59-1.18.49-.97.96-1.95,1.43-2.97,3.92-8.43,6.67-17.08,9.72-33.71.36-.44.7-.88,1.04-1.33Z"/>
  <path class="cls-13" d="M442.9,434.65c-.16-.06-.33-.11-.49-.16s-.32-.09-.48-.12c-.34-7.69-.76-13.99-.99-18.28-.01-.14-.01-.27-.02-.39.04-.09.09-.17.12-.26.29-.59.56-1.16.83-1.74.13-.27.25-.53.37-.79,0,.72.01,1.89.02,3.33v.62s.01.04,0,.07c.01,1.23.03,3.89.05,6.13.03,3.69.3,7.89.59,11.59Z"/>
  <path class="cls-13" d="M436.84,577.5s17.16-6.44,37.07-47.5l.24-1.24c-5.16,9.28-9.84,16.7-13.56,22.39-5.88,8.78-9.12,12.62-12.36,15.83-3.96,3.96-7.56,6.8-10.2,8.66-.36.62-.84,1.24-1.2,1.86h.01Z"/>
  <path class="cls-13" d="M471.75,435.61c-.24,7.79-.72,16.2-1.44,24.98-1.32,13.61-3.24,26.22-5.64,37.49,0-.99.12-1.86.12-2.84l6.96-59.63h.01Z"/>
  <path class="cls-13" d="M365.88,271.9c4.33-5.51,10.09-11.88,17.54-18.13,10.15-8.51,20.03-13.96,27.74-17.44-2.15.99-5.28,2.47-8.88,4.7-3.72,2.22-8.28,5.32-18.48,14.72-4.08,3.71-9.36,8.78-15.35,14.85-.43.27-.9.55-1.44.81-.39.19-.78.36-1.13.5h0Z"/>
  <path class="cls-7" d="M324.02,264.58l-.38,2.55-.44,2.85-.66,4.32-1.64,4.9c-1.75,3.19-3.49,6.36-5.24,9.54-.13.24-.26.49-.39.72l-.94.27-1.02.29-7.6,2.21-16.22,4.89-.17.05-.32.08-9.93,2.39-5.8-3.97-5.01-3.44-11.61-6.17-11.73-3.92-7.67-1.64-.34-.07-.94-.2,6.55-11.34,9.91-10.5,1.55-1.7,4.59-5.06,4.24-4.66,10.87-6.43,5.75-2.45,14.4-2.19,12.61,1.44,8.57,4.17,6.21,8.24,2.25,6.32.15,2.42.13,2.23c.01.08.01.16.02.23l.22,3.6h-.01Z"/>
  <path class="cls-13" d="M377.01,266.33c1.57-1.19,3.77-2.76,6.51-4.43,18.59-11.27,37.44-11.6,37.49-11.34.03.18-8.53.86-21,5.2-8.52,2.97-15.71,6.56-21.24,9.9-.04.09-.26.52-.78.71-.47.17-.88.01-.97-.02h-.01Z"/>
  <path class="cls-13" d="M360,274.66c5.28-4.58,12.26-12.1,18.63-24.48,0,0,.19-.36.36-.71,3.31-6.57,19.61-40.91,4.44-64.61-4.32-6.67-11.39-12.99-26.88-18.43-43.8-15.34-89.99-.74-112.67,8.29-15.96,6.8-28.19,14.1-36.36,19.3-9.72,6.19-53.63,35.5-87.35,93.89-7.8,13.48-13.08,25.23-16.2,32.66h2.39c11.88-25.6,45.83-91.78,110.86-130.5,34.82-20.67,65.78-25.99,77.41-27.59,0,0,27.84-3.83,57.84,4.21,8.64,2.35,16.56,5.69,23.4,12.49,1.32,1.24,5.16,5.2,7.92,10.52,11.53,22.21-2.72,51.47-6.12,58.39-3.45,7-9.67,17.48-20.72,27.85.56-.17,1.17-.39,1.82-.68.45-.19.85-.39,1.24-.6h-.01Z"/>
  <path class="cls-17" d="M107.82,483.13l-2.56,11.18-1.33,13.78v14.42l1.95,16.65,1.95,11.24,3.06,10.6,3.19,9.12,4.17,10.11,6.01,10.78,3.56,6.21-9.58-9.01-8.87-11.38-9.38-20.11-4.22-16.55-1.14-10.02v-9.98l.47-8.03,1.39-7.94,2.23-7.89,4.39-7.95,4.71-5.24Z"/>
  <path class="cls-19" d="M182.74,628.83l-6.92-10.46-6.92-12.52-5.07-11.09-8.16-23.89-4.87-29.4-1.17-31.04,2.2-26.57c-1.82-13.7-3.62-27.41-5.43-41.11l-23.87,25.28c-.94,1.04-1.87,2.07-2.81,3.11l-.72,3.81-.42,13.71,1.03,19.87,2.39,21.49,4.8,21.06,7.2,22.59,8.43,15.93,10.28,15.41,12.54,12.3,9.52,7.85,7.95,3.68h.02Z"/>
  <path class="cls-6" d="M182.74,628.83l-6.92-10.46-6.92-12.52-5.07-11.09-8.16-23.89-4.87-29.4-1.17-31.04,2.2-26.57c-1.82-13.7-3.62-27.41-5.43-41.11l-23.87,25.28c-.94,1.04-1.87,2.07-2.81,3.11l-.72,3.81-.42,13.71,1.03,19.87,2.39,21.49,4.8,21.06,7.2,22.59,8.43,15.93,10.28,15.41,12.54,12.3,9.52,7.85,7.95,3.68h.02Z"/>
  <path class="cls-9" d="M106.65,483.13l5.64-6,5.95-6,.91.64-.21,4.3-.36,9.81.26,17.02,1.54,15.95,3.9,22.58,3.86,15.64,7.25,19.67,7.82,14.48,8.58,11.44,6.38,7.9.61,1.22-3.13-.96-9.93-5.62-9-7.99-10.08-10.19-5.81-6.84-4.89-5.23-5.07-13.96-4.23-15.64-2.36-16.64-.51-10.71.67-15.59,2.21-19.29Z"/>
  <path class="cls-10" d="M106.65,483.13l5.64-6,5.95-6,.91.64-.21,4.3-.36,9.81.26,17.02,1.54,15.95,3.9,22.58,3.86,15.64,7.25,19.67,7.82,14.48,8.58,11.44,6.38,7.9.61,1.22-3.13-.96-9.93-5.62-9-7.99-10.08-10.19-5.81-6.84-4.89-5.23-5.07-13.96-4.23-15.64-2.36-16.64-.51-10.71.67-15.59,2.21-19.29Z"/>
  <path class="cls-13" d="M279.07,299.64c-1.77-1.31-3.7-2.65-5.8-3.97-2.74-1.76-5.77-3.51-9.1-5.15-10.42-5.19-20.1-7.67-27.6-8.91-.2-.03-.4-.07-.6-.1.32-.36.62-.71.94-1.07.34-.38.68-.78,1.02-1.16,0,0,.03,0,.1.01,1.59.18,21.68,2.85,41.04,20.35Z"/>
  <path class="cls-13" d="M243.79,270.72c.12-.4.25-.79.37-1.19,4.35,1.04,12.39,3.58,20.36,10.25,8.62,7.21,12.75,15.57,14.53,19.86-2.45-3.95-5.82-8.56-10.42-13.11-9.03-8.94-18.58-13.48-24.85-15.81Z"/>
  <path class="cls-13" d="M249.65,261.55c3.71,1.21,10.63,4.01,16.94,10.6,8.88,9.26,10.9,20.07,11.45,23.97-1.13-3.9-2.99-8.73-6.17-13.72-7.46-11.71-17.68-17.31-22.83-19.65.21-.4.42-.8.61-1.21h0Z"/>
  <path class="cls-13" d="M267.25,245.21c9.71,5.19,20.94,13.45,23.72,26.04,2.79,12.62-3.95,24.77-3.66,24.86.27.09,7.18-11.39,4.99-24.09-3-17.29-20.96-26.02-24.32-27.59-.24.26-.48.52-.72.78Z"/>
  <path class="cls-13" d="M276.58,240.46c3.42,1.97,16.81,10.21,21.08,26.7,3.46,13.33-.82,25.12-1.31,25.07-.58-.06,4.33-16.58-2.68-32.04-4.25-9.38-11.58-15.46-18.02-19.41.31-.1.61-.21.93-.32Z"/>
  <path class="cls-13" d="M303.48,292.24c13.33-13.77,18.39-30.54,12.96-39.61-5.08-8.48-20.6-12.27-26.26-13.64-2.5-.61-4.64-.98-6.17-1.21-.44.2-.88.42-1.31.62,1.5.27,3.66.7,6.25,1.36,11.31,2.9,24.27,6.2,27.76,15.76,1.39,3.8.91,7.37.49,10.52-.71,5.25-2.67,8.87-5.63,14.22-1.74,3.14-4.35,7.35-8.09,11.96h0Z"/>
  <path class="cls-13" d="M315.93,288.66c-.26.34-.49.6-.67.8-.25.11-.5.23-.75.33-.54.24-1.07.47-1.61.7.13-.16.27-.3.39-.46.21-.24.4-.46.6-.7.03-.05.08-.08.1-.12,4.94-5.97,7.95-12.71,9.2-19.22.19-.95.33-1.91.44-2.85.24-2.1.29-4.16.16-6.14-.01-.07-.01-.15-.02-.23-.05-.77-.13-1.53-.25-2.28-.63-4.32-2.18-8.2-4.57-11.24-7.47-9.53-23.25-10.99-33.43-9.2-.13.02-.27.05-.4.07-.48.09-.86.17-1.12.21-.28.06-.56.11-.83.18-2.28.51-4.44,1.18-6.51,2.01-.29.12-.59.24-.88.36-2.57,1.08-4.96,2.38-7.23,3.84-.34.21-.68.44-1.01.67-1.96,1.33-3.81,2.77-5.57,4.3,0,0,0,0-.02.02-2.37,2.07-4.58,4.28-6.64,6.56-1.7,1.84-3.28,3.72-4.78,5.59-.31.37-.6.73-.9,1.1-.01.01-.02.03-.04.05-1.41,1.78-3.13,4.01-5.03,6.63-.25.35-.53.72-.79,1.09-1.8,2.53-3.76,5.39-5.76,8.57-.26.41-.53.81-.78,1.22-.23.36-.46.73-.68,1.11-.33.52-.65,1.05-.97,1.59-14.77,24.58-17.15,41.28-26.88,64.79-7.26,17.53-14.88,29.83-23.29,42.67-1.06,1.64-2.14,3.27-3.24,4.93-.94,1.43-1.89,2.85-2.85,4.26-10.71,15.78-22.04,30.01-31.58,41.21-.47.54-.94,1.08-1.39,1.61-.42.47-.82.94-1.2,1.4-5.45,6.27-10.18,11.43-13.71,15.2-4.21,4.48-6.74,6.97-6.74,6.97-1.8,1.79-3.48,3.4-5.02,4.89l-.62.59-.37.36c-.39.38-.78.74-1.15,1.1-.02.02-.03.03-.04.05-2.35,2.24-4.4,4.22-6.23,6.11-1.25,1.27-2.39,2.52-3.46,3.79l-.08.08-.36.44c-.31.36-.61.74-.91,1.12,0,.01-.01.01-.01.02-2.11,2.69-3.96,5.61-5.76,9.28-1.78,3.62-3.17,7.27-4.25,10.93,0,.02-.01.03-.01.06v.05s-.02.07-.03.11c-.08.24-.14.47-.21.71-2.62,9.36-3.19,18.59-2.8,26.88.03.59.07,1.16.11,1.74.03.64.08,1.26.14,1.88.25,3.21.65,6.25,1.1,9.04,0,0,0,0,.01.02,0,.07.01.12.02.18-.02-.09-.04-.18-.07-.28-2.55-10.35-4.79-26.34.74-43.28,3.09-9.47,7.52-15.91,15.6-25.1,3.96-4.51,8.79-9.67,14.77-16.19,6.7-7.31,12.48-13.59,17.49-19.09.89-.97,1.75-1.93,2.6-2.85,4.75-5.24,8.77-9.73,12.23-13.71,1.92-2.21,3.67-4.27,5.29-6.21,2.39-2.9,4.48-5.55,6.35-8.07,2.75-3.71,5.34-7.37,7.75-10.96,1.98-2.92,3.84-5.79,5.6-8.59,12.2-19.37,19.46-35.56,22.9-43.76,4.71-11.18,3.06-9.2,9.26-24.6,13.06-32.46,19.84-49.01,34.01-64.18.22-.24.44-.47.67-.71,7.41-7.9,18.46-18.97,35.46-22.05,5.66-1.01,20.97-3.78,31.06,6.16,5.39,5.31,7.16,12.15,7.8,16.6.23,1.6.32,2.89.36,3.69.84,13.28-6.04,22.92-8.73,26.2h-.01Z"/>
  <path class="cls-13" d="M331.32,278.83c2.57-3.1,7.89-10.38,9.13-20.98,1.2-10.29-1.26-25.1-10.77-31.61-5.52-3.78-8.34-1.29-27.59-3.87-13.19-1.77-14.46-3.28-20.68-3.74-18.07-1.33-32.85,9.59-39.3,14.36-32.06,23.69-24.5,68.78-58.45,145.91-11.61,26.38-24.62,48.61-25.94,47.97-2-.97,31.8-49.51,49.78-124.83,5.94-24.86,8.9-48.32,27.84-66.3,10.9-10.35,30.98-22.76,45.67-19.5,1.42.32,6.8,1.67,14.95,3.25,7.09,1.38,11.46,2.21,17.28,2.68,10.04.82,10.26-.58,13.84.56,9.04,2.87,14.54,13.91,16.18,21.92,3.81,18.64-10.87,33.17-11.93,34.18h-.01Z"/>
  <path class="cls-13" d="M94.77,545.66c.52-.24-12.06-19.09-17.49-49.64-8.1-45.68,5.66-84.59,14.81-110.43,3.42-9.66,8.69-24.39,18.75-42.29,21.72-38.63,49.59-62.31,104.46-108.11,20.13-16.81,24.8-19.63,27.56-21.21,38.38-22.02,97.15-29.12,112.44-3.53,10.87,18.17-3.57,47.22-11.44,60.78.62-.09,1.25-.18,1.87-.28,17.38-19.32,22.33-43.92,13.13-59.37-8.38-14.06-26.87-17.82-33.74-19.22-10.85-2.21-19.19-.94-30.85.85-20.01,3.06-34.68,9.64-40.37,12.39-16.4,7.9-27.14,17.01-36.35,24.94-45.16,38.85-67.73,58.28-70.96,61.92-12.87,14.54-34.03,38.84-50.81,76.77-11.91,26.93-16.95,50.2-19.24,63.48-2.45,14.28-4.88,28.37-3.52,46.39,2.88,38.48,21.08,66.87,21.73,66.59h.01Z"/>
  <path class="cls-13" d="M144.96,368.42c-18.83,19.81-31.57,38.64-39.88,52.65-13.89,23.44-24.06,41.05-25.33,65.4-1.37,26.31,8.41,46.39,8.61,46.35.22-.06-9.63-21.42-6.76-48.89,2.23-21.4,10.91-37.13,18.62-51.1,4.12-7.47,9.96-15.84,21.49-32.24,9.48-13.5,17.56-24.52,23.24-32.18h.01Z"/>
  <path class="cls-13" d="M174.58,377.68s-116.93,109.15-81.82,164.53c-2.09-7.05-4.78-18.99-3.47-33.47,2.17-24.04,14.11-41.39,31.53-66.73,9.09-13.21,17.18-22.85,23.86-30.82,11.72-13.97,22.33-25.07,30.36-33.08l-.46-.43h0Z"/>
  <path class="cls-13" d="M363.43,175.94c-5.9-2.74-14.73-6.14-25.79-7.88-5.63-.88-28.55-3.95-62.15,10.03-11.95,4.97-19.16,9.57-50.07,31.43-39.52,27.95-59.28,41.92-66.45,48.4-19.55,17.67-31.36,32.66-54.97,62.65-25.64,32.56-30.17,43.23-31.99,54.71-3.17,20.08,2.68,37.55,7.59,48.37.35-1.04.7-2.09,1.06-3.12-3.82-7.73-9.55-22.23-7.41-39.73,1.71-14.05,7.7-23.55,18.51-40.29,5.57-8.61,11.58-16.85,32-40.59,20.21-23.48,30.3-35.23,37.66-41.97,9.27-8.5,12.58-10.16,48.52-34.82,47.92-32.86,48.4-34.26,59.29-39.26,35.07-16.09,58.88-14.8,64.15-14.43,12.75.9,23.08,3.93,30.05,6.51h0Z"/>
  <path class="cls-11" d="M192.68,605.01l-2.53-.9-6.11-2.86-10.44-8.16-3.01-2.76-.93-.86-.7-.63-.57-.53-2.41-2.21-6.19-6.66-.44-.45c-.07-.08-.13-.15-.19-.23l-1.26-3.45-1.89-5.22-.26-.72-.66-1.79-.69-1.89-.92-7.8v-.02l-.61-5.17-.21-1.8-.4-3.41-.58-4.96-1.53-17.57-.37-4.27v-10.87l.16-3.45v-.03l.2-4.12v-.06l.33-6.87,1.26-10.7c.02-.28.04-.48.07-.61.01-.08.01-.11.01-.11-1.37-2.23-14.98-25.14-5.43-41.11,1.06-1.78,2.52-3.64,4.54-5.42,2.57,17.44,5.14,34.88,7.72,52.32l.15,7.85.27,3.35.35,4.17.2,2.35,1.08,9.44.91,7.28.04.41.44,3.49,1.96,8.01,1.84,9.91.6,3.24.92,3.65.59,2.38.57,2.24.43,1.38.11.4.6,1.94,2.32,8.26,3.54,7.69,3.75,8.27,2.83,6.1,5.86,8,4.68,5.56Z"/>
  <path class="cls-8" d="M192.68,605.01l-2.53-.9-6.11-2.86-10.44-8.16-3.01-2.76-.93-.86-.7-.63-.57-.53-2.41-2.21-6.19-6.66-.44-.45c-.07-.08-.13-.15-.19-.23l-1.26-3.45-1.89-5.22-.26-.72-.66-1.79-.69-1.89-.92-7.8v-.02l-.61-5.17-.21-1.8-.4-3.41-.58-4.96-1.53-17.57-.37-4.27v-10.87l.16-3.45v-.03l.2-4.12v-.06l.33-6.87,1.26-10.7c.02-.28.04-.48.07-.61.01-.08.01-.11.01-.11-1.37-2.23-14.98-25.14-5.43-41.11,1.06-1.78,2.52-3.64,4.54-5.42,2.57,17.44,5.14,34.88,7.72,52.32l.15,7.85.27,3.35.35,4.17.2,2.35,1.08,9.44.91,7.28.04.41.44,3.49,1.96,8.01,1.84,9.91.6,3.24.92,3.65.59,2.38.57,2.24.43,1.38.11.4.6,1.94,2.32,8.26,3.54,7.69,3.75,8.27,2.83,6.1,5.86,8,4.68,5.56Z"/>
  <path class="cls-1" d="M182.74,628.83l-6.92-10.46-6.92-12.52-5.07-11.09-8.16-23.89-4.87-29.4-1.17-31.04,2.2-26.57c-1.82-13.7-3.62-27.41-5.44-41.11l-23.87,25.28c-.94,1.04-1.87,2.07-2.81,3.11l-.72,3.81-.42,13.71,1.03,19.87,2.39,21.49,4.8,21.06,7.2,22.59,8.43,15.93,10.28,15.41,12.54,12.3,9.53,7.85,7.95,3.68h.02Z"/>
  <path class="cls-13" d="M74.11,406.97s-28.69,118.3,21.5,157.32c-3.32-5.22-7.64-13.47-9.87-24.39-1.3-6.38-1.56-12.08-1.44-16.65-.31-.16-.62-.33-.93-.48-.27,4.73-.16,11.66,1.86,19.67,2.11,8.37,5.48,14.68,8.06,18.73-3.65-3.82-8.56-9.62-13.02-17.53-9.28-16.47-10.88-31.86-12.35-47.64-1.56-16.83-.59-29.55.5-42.97,1.51-18.54,4.22-33.86,6.56-44.83l-.85-1.24h-.01Z"/>
  <path class="cls-13" d="M151.81,483.85s-11.24,91.32,34.01,147.87c0,0-74.17-25.23-67.11-159.64l.98-.95c-2.3,34.53,2.89,61.49,7.51,78.52,3.48,12.76,7.33,26.48,17.34,41.88,12.12,18.64,26.82,29.84,36.4,35.95-8.31-12.07-18.49-29.9-25.3-53.23-11.39-39-7.32-72.64-3.84-90.41Z"/>
  <path class="cls-13" d="M96.46,504.99s-15.56,56.75,34.16,95.35c-6.48-9.45-14.05-22.76-19.39-39.87-10.39-33.33-6.51-62.44-3.4-77.34l-1.32,1.53c-2.74,12.93-5.93,36.21.34,63.94,4.68,20.69,12.9,36.3,19.2,46.23-6.3-5.86-19.21-19.48-26.33-41.57-6.89-21.38-4.78-39.69-3.26-48.28h0Z"/>
  <path class="cls-13" d="M114.94,573.67s28.42,36.9,42.59,37.9c-3.69-1.78-6.51-3.53-8.32-4.72-10.03-6.64-13.99-12.92-27.62-26.65-2.99-3-5.4-5.33-6.65-6.52h0Z"/>
  <path class="cls-13" d="M155.66,574.26s22.21,30.11,37.03,30.74c-5.05-2.58-10.98-6.17-17.09-11.13-9.29-7.54-15.7-15.55-19.94-21.82v2.19h0Z"/>
  <path class="cls-13" d="M192.68,605.01c-12.84-12.02-21-31.6-26.17-51.24-.01-.02-.02-.04-.02-.07-.01-.01-.01-.02-.01-.02-.61-2.31-1.17-4.62-1.71-6.92-.75-3.29-1.43-6.55-2.03-9.75v-.06c-.82-4.32-1.51-8.52-2.09-12.55-.07-.45-.13-.89-.19-1.34-.37-2.61-.69-5.13-.96-7.53-.01-.02-.01-.05-.01-.07-.82-6.99-1.29-13.02-1.57-17.49v-.02c-.05-.94-.11-1.8-.15-2.59v-.02c-.19-3.61-.22-5.68-.22-5.68h1.1c.28,4.76.65,9.32,1.06,13.71,0,.01.01.02.01.03.19,1.97.38,3.9.6,5.8,0,.02,0,.03.01.06,1.56,14.03,3.71,25.85,5.71,35.19.08.37.16.74.24,1.12.99,4.57,1.96,8.52,2.89,11.97,0,.01.01.01.01.02.1.41.21.8.32,1.18.12.43.23.85.35,1.25.11.41.23.81.34,1.21v.02c2.29,7.9,4.28,12.76,5.83,16.23,5.47,12.21,11.83,21.42,16.67,27.57Z"/>
  <path class="cls-13" d="M170.96,562.56c-.27-.46-.52-.92-.78-1.35v-.02c-.38-.71-.74-1.38-1.08-2.01-1.53-2.93-2.39-4.95-2.58-5.41-.01-.02-.02-.04-.02-.07-.01-.01-.01-.02-.01-.02.12-.36.24-.7.35-1.05.31.69.6,1.36.92,2.02.08.18.15.35.24.52.26.55.53,1.09.8,1.62.12.25.24.5.37.73,0,.01.01.01.01.02.1.41.21.8.32,1.18.2.53.4,1.07.6,1.61.28.73.57,1.46.87,2.22h-.01Z"/>
</svg>