<?xml version="1.0" encoding="UTF-8"?>
<svg id="_Слой_1" data-name="Слой 1" xmlns="http://www.w3.org/2000/svg" xmlns:xlink="http://www.w3.org/1999/xlink" viewBox="0 0 42 66">
  <defs>
    <style>
      .cls-1 {
        fill: url(#_Безымянный_градиент_7-2);
      }

      .cls-1, .cls-2, .cls-3, .cls-4, .cls-5, .cls-6, .cls-7, .cls-8 {
        stroke-width: 0px;
      }

      .cls-2 {
        fill: url(#_Безымянный_градиент_8-3);
      }

      .cls-3 {
        fill: url(#_Безымянный_градиент_8);
      }

      .cls-4 {
        fill: url(#_Безымянный_градиент_7-3);
      }

      .cls-5 {
        fill: #0a2d27;
      }

      .cls-6 {
        fill: url(#_Безымянный_градиент_7);
      }

      .cls-7 {
        fill: url(#_Безымянный_градиент_8-4);
      }

      .cls-8 {
        fill: url(#_Безымянный_градиент_8-2);
      }
    </style>
    <linearGradient id="_Безымянный_градиент_8" data-name="Безымянный градиент 8" x1="25.79" y1="32.97" x2="25.79" y2="6.84" gradientTransform="translate(0 66) scale(1 -1)" gradientUnits="userSpaceOnUse">
      <stop offset="0" stop-color="#0a2d27"/>
      <stop offset="1" stop-color="#145d50"/>
    </linearGradient>
    <linearGradient id="_Безымянный_градиент_8-2" data-name="Безымянный градиент 8" x1="20.49" y1="38.98" x2="20.49" y2="12.2" xlink:href="#_Безымянный_градиент_8"/>
    <linearGradient id="_Безымянный_градиент_8-3" data-name="Безымянный градиент 8" x1="15.64" y1="32.93" x2="15.64" y2="6.81" xlink:href="#_Безымянный_градиент_8"/>
    <linearGradient id="_Безымянный_градиент_8-4" data-name="Безымянный градиент 8" x1="20.67" y1="25.83" x2="20.67" y2=".14" xlink:href="#_Безымянный_градиент_8"/>
    <linearGradient id="_Безымянный_градиент_7" data-name="Безымянный градиент 7" x1="20.49" y1="39.9" x2="20.49" y2=".14" gradientTransform="translate(0 66) scale(1 -1)" gradientUnits="userSpaceOnUse">
      <stop offset="0" stop-color="#ffeddb"/>
      <stop offset=".27" stop-color="#fefff4"/>
      <stop offset=".57" stop-color="#fff"/>
      <stop offset=".81" stop-color="#fefff4"/>
      <stop offset="1" stop-color="#ffeddb"/>
    </linearGradient>
    <linearGradient id="_Безымянный_градиент_7-2" data-name="Безымянный градиент 7" x1="20.51" y1="45.94" x2="20.51" y2="39.46" xlink:href="#_Безымянный_градиент_7"/>
    <linearGradient id="_Безымянный_градиент_7-3" data-name="Безымянный градиент 7" x1="20.49" y1="44.19" x2="20.49" y2="40.14" xlink:href="#_Безымянный_градиент_7"/>
  </defs>
  <g>
    <path class="cls-5" d="M31.2,54.01s-.1,6.73-5.26,4.8c-.32-.17-.65-.33-.97-.5l-4.2-17.22c-.07-.3-.13-.59-.2-.89,0-.18-.01-.36-.02-.54-.06-1.95-.11-3.9-.17-5.84.24-.27.48-.53.72-.79l3.3,6.63,1.31,2.63,5.45,10.94c.01.26.03.52.04.78Z"/>
    <path class="cls-3" d="M31.2,54.01s-.1,6.73-5.26,4.8c-.32-.17-.65-.33-.97-.5l-4.2-17.22c-.07-.3-.13-.59-.2-.89,0-.18-.01-.36-.02-.54-.06-1.95-.11-3.9-.17-5.84.24-.27.48-.53.72-.79l3.3,6.63,1.31,2.63,5.45,10.94c.01.26.03.52.04.78Z"/>
  </g>
  <path class="cls-8" d="M32.82,52.53c-.3.4-.65.77-1.07,1.11l-.25.17h-.87c.01-.14.01-.22.01-.22-1.64-3.3-3.29-6.61-4.93-9.9-.67-1.34-1.33-2.68-2-4.02-.98-1.97-1.96-3.93-2.94-5.9-.13.02-.27.04-.4.06-.12.24-.23.48-.35.72-.83,1.71-1.67,3.41-2.51,5.12-.63,1.29-1.26,2.57-1.89,3.86-1.64,3.35-3.28,6.71-4.92,10.06,0,0,0,.08.01.22h-1.14l-.36-.17c-7.83-6.37,6.58-22.59,10.38-26.62h1.77c1.09,1.17,3.08,3.35,5.16,6.02,2.37,3.04,4.86,6.71,6.29,10.23,1.43,3.5,1.82,6.85,0,9.27Z"/>
  <path class="cls-2" d="M10.23,54.04s.1,6.73,5.26,4.8c.32-.17.65-.33.97-.5l4.2-17.22c.07-.3.13-.59.2-.89,0-.18.01-.36.02-.54.06-1.95.11-3.9.17-5.84-.24-.27-.48-.53-.72-.79l-3.3,6.63-1.31,2.63-5.45,10.94c-.01.26-.03.52-.04.78Z"/>
  <path class="cls-7" d="M25.71,58.17v.69l-.54.11c-.23,3.22-2.82,5.66-4.46,6.89-1.64-1.23-4.24-3.67-4.47-6.89l-.6-.1v-.71s.02,0,.02,0c1.64-5.99,3.27-11.97,4.91-17.95l.34-.04c1.59,6,3.19,11.99,4.79,17.99,0,0,.01,0,.02,0Z"/>
  <path class="cls-6" d="M32.82,43.26c-1.43-3.52-3.92-7.19-6.29-10.23-2.08-2.67-4.06-4.85-5.16-6.02-.56-.59-.89-.92-.89-.92,0,0-.33.33-.89.92-3.8,4.03-18.21,20.25-10.38,26.62l.36.17.44.2s.1,6.73,5.25,4.8l.36.06.6.1c.23,3.22,2.83,5.66,4.47,6.89,1.16-.87,2.78-2.33,3.72-4.25.4-.8.68-1.69.74-2.65l.54-.11.23-.05c5.16,1.92,5.26-4.8,5.26-4.8l.3-.2.25-.17c.42-.34.78-.71,1.07-1.11,1.82-2.42,1.43-5.77,0-9.27ZM15.66,58.16s-.02,0-.02,0c-4.29,1.6-4.84-3.25-4.91-4.36-.01-.14-.01-.22-.01-.22,1.64-3.35,3.28-6.7,4.92-10.06.63-1.29,1.26-2.57,1.89-3.86.84-1.71,1.67-3.41,2.51-5.12.12-.24.23-.48.35-.72.06,1.94.11,3.89.17,5.84,0,.18.01.36.02.54-.18.66-.36,1.31-.54,1.96-1.06,3.88-2.12,7.75-3.18,11.63-.4,1.45-.8,2.9-1.19,4.36ZM23.83,61.62c-.9,1.44-2.14,2.55-3.07,3.26-1.54-1.18-3.98-3.5-4.2-6.56l1.1-4.51,2.37-9.7.73-3.01,3.1,12.71,1.1,4.51c-.09,1.23-.54,2.34-1.14,3.31ZM25.71,58.17s-.01,0-.02,0c-.39-1.45-.78-2.91-1.16-4.36-1.21-4.55-2.42-9.1-3.63-13.64,0-.17,0-.33-.01-.5-.04-1.96-.08-3.93-.11-5.9.98,1.97,1.96,3.93,2.94,5.9.67,1.34,1.33,2.68,2,4.02,1.64,3.3,3.29,6.6,4.93,9.9,0,0,0,.08-.01.22-.07,1.11-.63,5.97-4.92,4.36ZM31.16,53.23l-5.45-10.94-1.31-2.63-3.3-6.63-.54-1.08-.54,1.08-3.3,6.63-1.09,2.18-5.67,11.38c-8.44-6.95,10.6-26.21,10.6-26.21,0,0,2.47,2.5,5.24,6.02,2.77,3.53,5.85,8.09,7.02,12.19.61,2.13.71,4.14,0,5.82-.35.82-.89,1.55-1.66,2.19Z"/>
  <path class="cls-1" d="M20.95,20.06h-.89v6.49h.89v-6.49Z"/>
  <path class="cls-4" d="M20.49,21.81c-1.12,0-2.02.91-2.02,2.02s.91,2.02,2.02,2.02,2.02-.91,2.02-2.02-.91-2.02-2.02-2.02ZM20.49,25.61c-.98,0-1.78-.79-1.78-1.78s.79-1.78,1.78-1.78,1.78.79,1.78,1.78-.79,1.78-1.78,1.78Z"/>
</svg>