<svg width="94" height="51" viewBox="0 0 94 51" fill="none" xmlns="http://www.w3.org/2000/svg">
<path d="M7.66931 29.5359C7.66931 29.5359 20.3293 52.9959 36.6993 50.3359C36.6993 50.3359 58.3893 51.1059 68.0693 48.2759C68.0693 48.2759 82.6393 39.0959 87.7793 23.0659L76.0493 21.6559L56.0693 20.5359L29.8993 24.4459L7.66931 29.5259V29.5359Z" fill="url(#paint0_linear_149_1132)"/>
<path d="M2.07922 24.466L24.6692 7.66601C24.6692 7.66601 35.7492 -3.42399 44.9192 3.91601C44.9192 3.91601 49.5192 5.41602 54.6292 2.20602C54.6292 2.20602 60.9392 -4.854 74.7392 6.286L91.8592 19.586L87.7692 23.076L83.3692 23.256L72.7992 20.966L64.2892 20.796L55.4892 22.686L39.4892 23.086L29.8892 24.466L16.4592 27.666L7.31921 27.956L2.07922 24.476V24.466Z" fill="url(#paint1_linear_149_1132)"/>
<path d="M9.07937 29.5359C6.40937 29.5459 1.56937 29.5759 0.809368 27.4859C0.429368 26.4459 1.07937 24.9359 2.08937 24.4659C3.39937 23.8459 4.69937 25.3059 7.43937 26.2359C9.28937 26.8659 10.6794 26.8759 13.3494 26.8959C19.6494 26.9459 29.9094 22.9859 36.0794 21.2859C36.8094 21.0859 49.5094 17.7059 62.4394 19.7159C67.5294 20.5059 72.7894 20.4459 77.7294 21.8959C78.6394 22.1659 80.9694 22.8959 83.9594 22.5259C86.1894 22.2559 87.9294 21.4759 89.0494 20.8659C89.0494 20.8659 92.7594 17.3659 93.0494 21.8259C92.3394 22.3959 91.1594 23.2459 89.5294 23.8559C84.6894 25.6759 81.6694 23.2459 73.4094 22.3259C68.7894 21.8159 65.5294 21.4559 61.5094 22.6859C58.6494 23.5659 57.7094 24.5459 54.3094 25.3159C51.8194 25.8759 49.7494 25.8459 45.6994 25.7459C37.7094 25.5659 35.5794 24.6459 30.2394 25.5059C29.9494 25.5559 28.7694 25.8159 26.4294 26.3359C15.0494 28.8759 12.8894 29.5059 9.09936 29.5259L9.07937 29.5359Z" fill="#3A0601"/>
<defs>
<linearGradient id="paint0_linear_149_1132" x1="47.6351" y1="16.1626" x2="47.6351" y2="45.6833" gradientUnits="userSpaceOnUse">
<stop stop-color="#7F4B4D"/>
<stop offset="1" stop-color="#A96B6E"/>
</linearGradient>
<linearGradient id="paint1_linear_149_1132" x1="46.8693" y1="-4.07397" x2="46.8693" y2="23.426" gradientUnits="userSpaceOnUse">
<stop stop-color="#A96B6E"/>
<stop offset="0.96" stop-color="#7F4B4D"/>
</linearGradient>
</defs>
</svg>
