<?xml version="1.0" encoding="utf-8"?>
<!-- Generator: Adobe Illustrator 28.3.0, SVG Export Plug-In . SVG Version: 6.00 Build 0)  -->
<svg version="1.1" id="Слой_1" xmlns="http://www.w3.org/2000/svg" xmlns:xlink="http://www.w3.org/1999/xlink" x="0px" y="0px"
	 viewBox="0 0 99 242" style="enable-background:new 0 0 99 242;" xml:space="preserve">
<style type="text/css">
	.st0{fill:url(#SVGID_1_);}
	.st1{fill:none;}
	.st2{fill:url(#SVGID_00000174579453531900276390000011654312299581204636_);}
	.st3{fill:url(#SVGID_00000064324013011088430780000005523639998209072777_);}
	.st4{fill:#414040;}
	.st5{fill:url(#SVGID_00000139996098193385140810000005346595101367852455_);}
	.st6{fill:url(#SVGID_00000139983140564491439330000006982213627603489433_);}
	.st7{fill:url(#SVGID_00000029765558044091030380000007632792778734362544_);}
	.st8{fill:url(#SVGID_00000121271600797419536110000000483806863953090742_);}
</style>
<path d="M38.4,15.4c1.1,0,2-1,2-2.3s-0.9-2.3-2-2.3s-2,1-2,2.3S37.3,15.4,38.4,15.4z"/>
<path d="M37.1,33.2c1.1,0,2-1,2-2.3s-0.9-2.3-2-2.3s-2,1-2,2.3S36,33.2,37.1,33.2z"/>
<linearGradient id="SVGID_1_" gradientUnits="userSpaceOnUse" x1="-12.9983" y1="-2.324" x2="61.5858" y2="-8.2109" gradientTransform="matrix(1 0 0 -1 0 63.5276)">
	<stop  offset="0" style="stop-color:#212020"/>
	<stop  offset="0.18" style="stop-color:#292828"/>
	<stop  offset="0.65" style="stop-color:#3A3939"/>
	<stop  offset="1" style="stop-color:#414040"/>
</linearGradient>
<path class="st0" d="M60.8,122.3c-0.4-8.8-0.6-12.3-1.1-21.8c-0.2-3.6-0.2-7.2-0.4-10.8C59,81.9,58.5,74,58.2,66.2
	c-0.3-8.4-0.6-16.8-0.9-25.2c-0.3-9.1-0.6-18.3-0.9-27.4c0-1.6-0.2-3.1-0.4-4.8c-1.2,0-3,0.1-5.1,0.1c-3.9,0-7.9-0.1-9.7-0.1
	C37.9,8.6,32.4,8,24.7,5.6c-2.3,7.5-4.7,15-7,22.5c8.1,3.2,11.8,3.6,13.7,3.4c0.4-0.1,1.9-0.3,2.4,0.5c0.5,0.7-0.1,1.9-0.6,3
	c-0.3,0.7-0.7,1.5-1.4,1.6c-0.5,0.1-0.7-0.3-1.1-0.2c-1.4,0.1-3.6,6.6-2.7,11.7c0.1,0.7,0.5,2.4-0.4,4.1c-0.4,0.6-0.8,1.1-1.1,1.3
	c-3.8-0.4-7.9-1.1-12.2-2.1c-0.8-0.2-1.7-0.4-2.5-0.6C8.9,49.5,4.7,48.3-0.9,48c-0.2,0.7-0.5,1.7-0.9,3c-5.1,17.5-4.1,21.8-6.7,37.1
	c-1.8,10.5-3.2,21.1-4.9,31.6c-0.1,0.6-0.1,1,0.1,1.3c0.3,0.5,0.7,0.6,0.9,0.7c6.6,2.5-4,2.4,12.4,5c15.7,2.6,24.1,3.4,24.1,3.4
	c16.1,1.5,21.7,2.2,28.3,3.3c3.7,0.6,6.8,1.2,8.9,1.5C61.1,129.6,60.9,125.3,60.8,122.3z M50.8,63.6c-1.2,1.2-1.6,1.8-1.6,1.8
	c-0.2,0.3-0.5,0.7-0.8,0.7s-0.5-0.2-0.7-0.4c-0.3-0.3-0.5-0.7-0.8-1c-0.2-0.4-1.5-2.4-3.8-2.8c-0.7-0.1-1.3-0.1-1.8,0
	c0.3-0.3,0.4-0.4,0.5-0.4c2.7,0.1,4.2-1.8,5.8-3.5c0.2-0.2,0.6-0.7,0.9-0.6c0.2,0.1,0.3,0.3,0.4,0.4c0.5,1,1.2,1,2.4,2.6
	c0.7,0.9,1,1.4,0.9,1.9C52.1,62.7,51.8,62.6,50.8,63.6z"/>
<rect x="10.2" y="22.5" class="st1" width="112" height="118"/>
<path d="M62.6,52.4c-1.6,0.5-2.9-1-3.4-1.9l29.1-8l1.9,1.2C81.6,46.4,64.1,51.9,62.6,52.4z"/>
<linearGradient id="SVGID_00000068666287726604795090000007180956368401699486_" gradientUnits="userSpaceOnUse" x1="81.8442" y1="27.5183" x2="91.5226" y2="-5.6668" gradientTransform="matrix(1 0 0 -1 0 63.5276)">
	<stop  offset="0" style="stop-color:#414040"/>
	<stop  offset="0.18" style="stop-color:#383737"/>
	<stop  offset="0.65" style="stop-color:#272626"/>
	<stop  offset="1" style="stop-color:#212020"/>
</linearGradient>
<path style="fill:url(#SVGID_00000068666287726604795090000007180956368401699486_);" d="M66.3,34.7c4.9-1.1,9.8-2.2,14.7-3.3
	c4.8-1.1,9.5-2.2,14.2-3.3l0,0c1.9,3.9,2.3,5.3,3.8,8.8c0,0,1.5,3.4,2.1,6.5c0.1,0.3,0.2,1.1-0.2,1.7c-0.3,0.4-0.6,0.6-0.9,0.7
	c-7.6,2.7-15.3,4.5-23.2,6c-2,0.4-4,0.8-6.1,1.2c-0.7,0.1-1.1,0.1-1.3-0.7c-0.6-3.1-1.2-6.3-1.8-9.5C67.3,40,66.8,37.4,66.3,34.7z"
	/>
<linearGradient id="SVGID_00000136389940548445844400000010942111064795670964_" gradientUnits="userSpaceOnUse" x1="72.6217" y1="48.9776" x2="93.9217" y2="48.9776" gradientTransform="matrix(1 0 0 -1 0 63.5276)">
	<stop  offset="0" style="stop-color:#414040"/>
	<stop  offset="0.35" style="stop-color:#3A3939"/>
	<stop  offset="0.83" style="stop-color:#292828"/>
	<stop  offset="1" style="stop-color:#212020"/>
</linearGradient>
<path style="fill:url(#SVGID_00000136389940548445844400000010942111064795670964_);" d="M93.9,24.2c-5.2,1.3-10,2.5-14.9,3.8
	c-2.2-7.4-4.3-14.7-6.4-21.7c0.9-0.6,1.9-1.3,3-1.9c2.5-1.4,4.8-2.5,7-3.3C86.3,8.5,90,16.2,93.9,24.2z"/>
<path class="st4" d="M63.6,32.1c5.5-1.1,9.9-2.1,12.9-2.9c4.9-1.2,7.3-1.8,7.6-1.9c0,0,3.1-1.2,8.5-2.1c0.5-0.1,1.4-0.2,1.8,0.3
	c0.4,0.4,0.2,1.2,0.1,1.5c-1.2,0.3-2.4,0.6-3.6,1c-1,0.3-3.6,0.9-3.6,0.9c-4,1.1-5.8,1.4-10.6,2.6c-3.4,0.9-7.1,0.9-10.4,2.2
	c-0.4,0.2-1.6,0.7-2.3,0.1C63.6,33.4,63.6,32.6,63.6,32.1z"/>
<path class="st4" d="M33,32.2c0.2,1.3-0.2,1.7-1.5,1.4c-4.7-1.1-20.5-5.1-27.7-6.3c-0.7-0.1-1.3-0.2-1.5-0.2c-0.3-0.6-0.6-1.5-0.2-2
	c0.5-0.6,1.8-0.2,2.3-0.1c2.4,0.6,13.3,3.3,28.3,7C32.8,32.1,32.9,32.1,33,32.2z"/>
<linearGradient id="SVGID_00000176034338492299113460000000988404749482510998_" gradientUnits="userSpaceOnUse" x1="2.8647" y1="48.8512" x2="24.5873" y2="48.8512" gradientTransform="matrix(1 0 0 -1 0 63.5276)">
	<stop  offset="0" style="stop-color:#414040"/>
	<stop  offset="0.35" style="stop-color:#3A3939"/>
	<stop  offset="0.83" style="stop-color:#292828"/>
	<stop  offset="1" style="stop-color:#212020"/>
</linearGradient>
<path style="fill:url(#SVGID_00000176034338492299113460000000988404749482510998_);" d="M14.1,1.1c1.7,0.8,3.4,1.7,5.1,2.6
	c1.8,0.9,3.6,1.8,5.3,2.8c-1.1,3-1.6,5.4-2,7c-0.8,4.1-2.4,8-3.4,12.1c-0.1,0.6-0.5,2.1-1.5,2.5c-0.9,0.4-1.7-0.1-2.7-0.6
	C11,25.9,9.6,27.2,5,25.3c-1-0.4-1.8-0.8-2.3-1.1C4.7,20.3,6.6,16.4,14.1,1.1z"/>
<linearGradient id="SVGID_00000011745551817710555340000014767771791244945544_" gradientUnits="userSpaceOnUse" x1="14.996" y1="27.3276" x2="5.3317" y2="-7.3817" gradientTransform="matrix(1 0 0 -1 0 63.5276)">
	<stop  offset="0" style="stop-color:#414040"/>
	<stop  offset="1.000000e-02" style="stop-color:#403F3F"/>
	<stop  offset="0.31" style="stop-color:#2E2D2D"/>
	<stop  offset="0.62" style="stop-color:#242323"/>
	<stop  offset="1" style="stop-color:#212020"/>
</linearGradient>
<path style="fill:url(#SVGID_00000011745551817710555340000014767771791244945544_);" d="M30,34.7c-0.2,1.5-0.4,3.1-0.6,4.7
	c-0.3,1.9-0.6,3.7-0.9,5.5c-0.4,1.3-0.5,2.4-0.5,3.2c0,1,0,1.4,0,2.6c0,0.2,0,1.9-0.4,2.5c-0.8,1.1-3.8,0.2-5.7-0.3
	c-7.8-2.1-7.7-0.8-14.6-3.1c-4.3-1.4-3.8-1.7-6.1-2.2c-1.2-0.2-3.1-0.5-5-1.9c-0.5-0.3-0.8-0.7-1-0.9c1-2.9,2-5.8,3-8.8
	c0.9-2.8,1.8-5.6,2.7-8.4c4.9,1.2,9.9,2.4,14.9,3.6C20.4,32.5,25.2,33.6,30,34.7z"/>
<linearGradient id="SVGID_00000137095420860160300390000004971975247496227514_" gradientUnits="userSpaceOnUse" x1="57.698" y1="-8.0523" x2="110.8172" y2="3.5756" gradientTransform="matrix(1 0 0 -1 0 63.5276)">
	<stop  offset="0" style="stop-color:#414040"/>
	<stop  offset="0.35" style="stop-color:#3A3939"/>
	<stop  offset="0.83" style="stop-color:#292828"/>
	<stop  offset="1" style="stop-color:#212020"/>
</linearGradient>
<path style="fill:url(#SVGID_00000137095420860160300390000004971975247496227514_);" d="M56,8.8c2.2-0.1,4-0.3,5.2-0.5
	c0.6-0.1,0.2-0.1,3.2-0.5c1.4-0.2,2.2-0.4,3.5-0.6c0.7-0.1,1.4-0.2,2-0.5c1.5-0.7,2-0.1,2.4,1.3c1,3.7,3.8,13.5,5.3,18.2
	c0.2,0.7,0.4,1.4,0.7,2.2c-2.3,0.5-4.2,0.9-5.5,1.2C68.3,30.5,66,31,66,31c-1,0-2.3-0.1-2.7,0.6c-0.2,0.2-0.1,0.8,0,1.8
	c0.1,1.5,0.3,2,0.4,2.2c0.2,0.5,0.4,0.8,0.6,1c0.2,0.1,0.4,0.2,0.7,0.3c1,0.1,1.6-0.9,1.7-0.9c0.4,3.8,0.6,6.2,0.7,7.9
	c0,0,0.2,1.9,1.8,7.7c0.1,0.5,0.4,1.5,1.3,1.9c0.8,0.4,1.8,0,2.1-0.1c1.9-0.8,11.5-2.9,25.6-5.8c0.6,2.1,1.6,5.4,2.6,9.6
	c2.2,9.4,2.2,13,4.6,27.9c1.9,11.7,2.8,17.6,3.1,18.3c0,0,1.5,4.2,2.2,15.6c0,0.5,0.1,1.5-0.6,2.2c-0.3,0.3-0.6,0.5-0.8,0.6
	c-3.3,1.3-6.6,2.8-10.1,3.7c-7.1,1.8-4.3,1.1-10.9,2.3c-5.7,1-11.4,2-19.1,2.5c-2.9,0.2-5.4,0.3-7.1,0.3c-1.1-6.6-1.6-12.1-1.9-16
	c-0.3-4.2-0.4-9.3-0.7-19.4c-0.2-7.4-0.1-7.7-0.3-13.6C59.1,78,59,71.5,58.6,63.3c-0.4-10.3-0.8-14-0.9-23.1c0-3,0-3.3,0-5.5
	C57.6,28.6,57.3,19.9,56,8.8z"/>
<path d="M109.1,121.7c-0.9,1-1.9,1-6,2.4c-0.3,0.1-0.6,0.2-0.9,0.3c-0.4,0.2-0.8,0.3-1.3,0.4c-0.4,0.1-0.8,0.3-1.3,0.4
	c-0.2,0.1-0.4,0.1-0.7,0.2c-1.3,0.4-2.7,0.7-4,1c-0.7,0.1-1.3,0.3-2,0.4s-1.4,0.3-2,0.4c-1.4,0.2-2.7,0.5-4.1,0.7
	c-1.5,0.2-3.1,0.4-4.6,0.6c-0.8,0.1-1.7,0.2-2.6,0.3c-0.5,0.1-1,0.1-1.6,0.2c-0.5,0.1-1,0.1-1.6,0.2c-0.3,0-0.7,0.1-1,0.1
	c-0.6,0.1-1.3,0.1-1.9,0.2c-1.3,0.1-2.5,0.2-3.7,0.3c-1,0.1-1.9,0.2-3.7,0.3c-2.2,0.2-3.1,0.3-3.5-0.3c-0.2-0.3-0.3-0.7-0.4-1.4
	c0-0.2,0-0.3-0.1-1.4c0-0.6-0.1-1-0.1-1.4c0-0.8-0.1-1.4-0.1-1.5c-0.2-3.6-0.3-7.3-0.5-10.9C61,103.1,60.5,93,60,82.8
	c-0.3-6.1-0.4-12.3-0.7-18.4c-0.3-7.8-0.6-15.5-0.9-23.3c-0.1-1.7-0.1-3.4-0.1-5.1c0-0.7,0-1.9-0.1-2.6c0-1.2,0-2.3,0-2.5
	c-0.1-4.1-0.8-11.3-0.8-19.5c0-0.7,0-1.4,0-2.2c3.6-0.6,7-1.2,10.5-1.8c0.7-0.1,1.4-0.2,2-0.5c1.5-0.7,2-0.1,2.4,1.3
	c0.4,1.5,0.9,3.1,1.3,4.6c1.2,4.2,2.5,8.4,3.7,12.5c0.1,0.4,0.2,0.8,0.3,1.1c0,0.1,0.1,0.3,0.1,0.4s0.1,0.3,0.1,0.4
	c0.1,0.3,0.1,0.6,0.2,1c-1,0.2-2,0.5-2.9,0.7c-1,0.2-1.9,0.4-2.9,0.6c-2.9,0.6-5.8,1.1-8.7,1.6c-0.4,0.1-0.7,0.3-0.9,0.5
	c-0.2,0.3-0.2,0.7-0.1,0.9c0.4,2.6,0.1,3.1,0.7,3.9c0.1,0.1,0.5,0.6,1.2,0.7c0.8,0.2,1.5-0.1,1.7-0.2c0.8,2.9,1.1,5.3,1.2,6.9
	c0,0,0.3,3.2,1.3,7.7c0,0,0.1,0.4,0.3,0.9c0.2,0.5,0.7,1.5,1.4,1.5c0.1,0,0.1,0,0.1,0c8.5-1.2,26.3-5.7,26.3-5.7
	c0.2-0.1,0.7-0.2,1.2-0.3c0.2,0.8,0.3,1.5,0.5,2.3c0.2,0.8,0.3,1.5,0.5,2.3c0.2,0.8,0.3,1.5,0.5,2.3s0.3,1.5,0.4,2.3
	c1.2,6.7,2.3,13.5,3.5,20.2c1.7,10.2,3.5,20.5,5.2,30.8c0,0,3.2,6.5,1.7,11.5C110,120.2,109.8,121,109.1,121.7z M111.1,116.7
	c-1.5-9.9-2.9-19.7-4.6-29.6c-1.7-10.3-3.6-20.5-5.5-30.8c-0.5-3-1.2-5.9-1.8-8.9c0.9-0.3,1.6-0.6,2.3-0.8c1.2-0.3,1.5-0.8,1.1-2
	c-0.7-1.9-1.2-3.9-1.9-5.7c-2.5-6.3-5-12.7-7.6-19C90.2,13.1,87.3,6.4,83,0.3c-0.3-0.5-0.7-0.8-1-1c-1.1,0.9-2.6,2-4.7,3.3
	c-10,6-20,6.1-29.5,6.1c-7.5,0-15.4-0.1-24.7-4.1c-3.8-1.6-6.9-3.5-9.2-5c-0.6,0.4-1,0.9-1.4,1.7C6.7,12.2,1.4,23.5-2.8,35.3
	c-1.1,3-1.8,6.2-2.7,9.3c-0.4,1.3,0.3,2.1,1.6,2.3c1.4,0.2,1.4,0.9,1.2,2.1c-1.5,7.5-3.1,15-4.4,22.6c-2.1,12.2-4,24.4-6,36.6
	c-0.6,4.1-1.1,8.2-1.6,12.3c-0.1,1,0.2,1.7,1.1,2.2c2.1,1,4.2,2.2,6.4,2.9c7.9,2.6,16.1,3.8,24.4,4.8c10.3,1.2,20.6,2.2,30.9,3.4
	c3.4,0.4,6.9,1.2,10.3,1.8h2.9c0.2-0.5,0.5-1.1,0.7-1.7c0.3-0.9,0.6-1.8,0.7-2.5c8-0.8,14-1.4,19.1-1.8c2.2-0.2,6.4-0.5,11.9-1.6
	c1.5-0.3,2.7-0.6,5.1-1.1c2-0.5,4.7-1.2,9.9-3.4c1.2-0.5,2.4-1.2,2.5-2.8C111.3,119.3,111.3,117.9,111.1,116.7z M98.9,37.4
	c0.2,0.4,0.3,0.8,0.4,1.2s0.3,0.8,0.4,1.2c0.4,1.3,0.9,2.7,1.3,4c0.3,0.9,0.2,1.4-0.8,1.8c-7.6,2.7-15.3,4.5-23.2,6.1
	c-2,0.3-4,0.7-6,1.1c-0.7,0.1-1.1,0.1-1.3-0.7c-0.5-2.9-0.9-5.8-1.4-8.7s-1-5.8-1.4-8.7c9.5-2.2,18.8-4.4,28.4-6.6
	C96.5,31.1,97.7,34.2,98.9,37.4z M94.6,26.9c-2.4,0.6-4.8,1.3-7.2,1.9c-7.3,1.6-14.7,3.2-22,4.8c-0.1,0-0.2,0-0.3,0.1
	c-0.3,0-0.5,0.1-0.7,0c0,0-0.2-0.1-0.4-0.2c-0.3-0.2-0.3-0.7-0.2-1.2c5.5-1.2,10.8-2.4,16.2-3.7c1.8-0.4,3.6-0.8,5.3-1.2
	c0.6-0.1,1.2-0.3,1.9-0.5c0.6-0.2,1.3-0.3,1.9-0.5c0.6-0.1,1.2-0.3,1.8-0.5c0.6-0.2,1.2-0.4,1.8-0.5C93.9,25.2,94.5,25.4,94.6,26.9z
	 M82.6,1.1c3.6,7.5,7.4,15.1,11.3,23.1c-5.2,1.3-10,2.5-14.9,3.8c-2.2-7.4-4.3-14.7-6.4-21.7C75.9,4.5,79.1,2.9,82.6,1.1L82.6,1.1z
	 M14.1,1.1c3.6,1.8,6.7,3.5,10,5.2c-0.2,0.6-0.4,1.2-0.5,1.9c-0.2,0.6-0.4,1.3-0.6,1.9c-0.4,1.3-0.8,2.6-1.2,4
	c-1.2,4.1-2.4,8.2-3.6,12.3c-0.3,1.3-0.8,1.6-2.1,1.2c-4.3-1.2-8.6-2.2-13.4-3.4C6.7,16.2,10.5,8.6,14.1,1.1L14.1,1.1z M2.2,26.6
	c-0.1-0.3,0.1-0.7,0.2-0.8c0-0.1,0.3-0.4,0.6-0.5c0.2,0,0.3,0,0.4,0c16.2,3.5,22.7,5.3,22.7,5.3c1.6,0.4,3.9,1,6.9,1.6
	c0,0.4,0,0.9-0.3,1.2c-0.4,0.3-1.1,0.1-1.3,0.1C30,33.2,6.6,27.4,3.7,27.2C3.5,27.2,2.4,27.1,2.2,26.6z M-3.6,45.5
	c-0.3-0.2-0.8-0.9-0.7-1.1c1.8-5.5,3.8-10.9,5.7-16.3c1.8,0.4,3.6,0.8,5.4,1.3c7.8,1.8,15.4,3.6,23.1,5.4c-0.5,3.4-1.1,6.7-1.6,10.1
	c-0.2,1.2-0.5,2.3-0.6,3.5c-0.3,2.4-0.3,4.1-1.2,4.5C26.3,53,26,53,25.9,53C17.8,52.3,9,50.5-0.2,46.9C-1.4,46.4-2.5,46-3.6,45.5z
	 M60.8,134.3c-1.6-0.3-3.5-0.5-5.3-0.9c-9.8-1.9-19.7-3-29.7-3.7c-9.5-0.7-18.9-1.8-28.1-4.2c-3.4-0.9-6.7-2.5-10-3.8
	c-0.8-0.3-1.1-0.9-1-2c1.7-10.5,3.1-21.1,4.9-31.6C-6.4,75.7-4,63.4-1.7,51c0.2-1,0.5-1.9,0.9-2.9h0.1h0.1c0,0,0,0,0.1,0
	c1.2,0.3,4.8,1.3,4.8,1.3c2,0.5,3.2,0.8,5.2,1.2c5.8,1.2,11.6,2.2,17.4,3.3c1,0.2,1.1-0.5,1.2-1.1c0.5-3.2,1-6.3,1.5-9.4
	c0.3-1.9,0.6-3.8,0.9-5.7c0-0.4,0.2-0.6,0.3-0.7c0.2-0.2,0.6-0.2,0.9-0.1c0.1,0,0.1,0,0.1,0c0.4,0.1,1,0.1,1.3,0
	c0.4-0.2,0.6-0.7,0.6-1.4c0.1-1,0.2-2.1,0.4-3.1c0.3-1.1-0.1-1.4-1.1-1.5c-4.5-0.9-9-1.8-13.6-2.7c-0.2,0-0.5-0.1-0.9-0.3
	c2.1-7.2,4.2-14.4,6.4-21.8C30,7.6,35.2,8.4,40.4,8.8C42.3,8.9,44.1,9,44.7,9c4.6,0.2,8.5,0,11.3-0.1c0.1,1.1,0.3,2.8,0.4,4.8
	c0.3,9.1,0.6,18.3,0.9,27.4c0.3,8.4,0.6,16.8,0.9,25.2c0.1,2.8,0.9,17.1,1.1,23.5c0,0,0.2,5.2,0.2,5.4c0,0,0.2,5.4,0.2,5.4
	C59.8,103.6,60.1,112.3,60.8,134.3z M81.3-0.9c0.3,0.1,0.5,0.1,0.8,0.2C81.9-0.8,81.6-0.9,81.3-0.9z"/>
<path class="st4" d="M48.6,58.3c-0.6,0.6-1.2,1.2-1.9,1.9c-0.6,0.6-1.2,1.1-1.8,1.6c0.6,0.6,1.1,1.2,1.7,1.8c0.6,0.7,1.3,1.4,1.9,2
	c1.2-1.2,2.4-2.3,3.5-3.5C50.9,60.8,49.8,59.5,48.6,58.3z"/>
<path d="M52.9,61.7c0-0.5-0.5-0.8-1.4-1.7c-0.2-0.2-1.3-1.3-2.2-2.2c-0.2-0.2-0.5-0.5-0.9-0.5c-0.3,0-0.6,0.2-0.9,0.5
	c-1.6,1.7-3.1,3.6-5.8,3.5c-0.1,0-0.2,0.2-0.5,0.4c0.5,0.2,0.7,0.5,1,0.5c2,0,3.3,1.3,4.5,2.7c0.3,0.3,0.6,0.5,0.8,0.8
	c0.3,0.3,0.6,0.5,0.9,0.5c0.1,0,0.3-0.1,0.3-0.1c0.3-0.1,0.5-0.4,0.5-0.5c0.2-0.3,1.3-1.4,3.1-3.1C52.6,62.4,52.9,62.1,52.9,61.7z
	 M48.3,65.2c-1.1-1.1-2.2-2.3-3.3-3.5c1.1-1,2.4-2.2,3.6-3.2c1,1,2.1,2.1,3.2,3.3C50.6,62.9,49.5,64,48.3,65.2L48.3,65.2z"/>
<path d="M48.3,64.2c-0.8-0.8-1.6-1.5-2.4-2.3c0.8-0.7,1.7-1.4,2.5-2.1c0.8,0.7,1.5,1.4,2.3,2C50,62.6,49.2,63.4,48.3,64.2L48.3,64.2
	z"/>
<path d="M48.6,104.2c0.8,0.7,1.5,1.3,2.3,2c-0.8,0.8-1.6,1.5-2.4,2.3c-0.8-0.8-1.6-1.5-2.4-2.3C46.9,105.6,47.8,104.9,48.6,104.2z"
	/>
<path d="M52.5,105.2c-1-1-2.1-2-3-3c-0.7-0.7-1.1-0.7-1.8,0c-1.6,1.7-3.1,3.6-5.8,3.5c-0.1,0-0.2,0.2-0.5,0.4c0.5,0.2,0.7,0.5,1,0.5
	c2,0,3.3,1.3,4.5,2.7c0.3,0.3,0.6,0.5,0.8,0.8c0.6,0.7,1.1,0.7,1.7,0c1-1.1,2.1-2.1,3.1-3.1C53.2,106.4,53.1,105.9,52.5,105.2
	L52.5,105.2z M48.4,109.7c-1.1-1.1-2.2-2.3-3.3-3.5c1.1-1,2.3-2.1,3.6-3.2c1,1,2.1,2.2,3.2,3.3C50.8,107.3,49.6,108.4,48.4,109.7
	L48.4,109.7z"/>
<path d="M47.4,21.6c0.8,0.7,1.5,1.4,2.3,2c-0.8,0.8-1.6,1.5-2.4,2.3c-0.8-0.8-1.6-1.5-2.4-2.3C45.7,23,46.5,22.3,47.4,21.6z"/>
<path d="M51.2,22.6c-1-1-2-2-3-3c-0.7-0.7-1.1-0.7-1.8,0c-1.6,1.7-3.1,3.6-5.8,3.5c-0.1,0-0.2,0.2-0.5,0.4c0.5,0.2,0.7,0.5,1,0.5
	c2,0,3.3,1.3,4.5,2.7c0.3,0.3,0.6,0.5,0.8,0.8c0.6,0.7,1.1,0.7,1.7,0c1-1.1,2-2.1,3.1-3.1C52,23.7,51.9,23.2,51.2,22.6L51.2,22.6z
	 M47.2,27c-1.1-1.1-2.2-2.3-3.3-3.5c1.1-1,2.4-2.1,3.6-3.2c1,1,2.1,2.1,3.2,3.3C49.6,24.6,48.4,25.8,47.2,27L47.2,27z"/>
</svg>
