<svg width="93" height="51" viewBox="0 0 93 51" fill="none" xmlns="http://www.w3.org/2000/svg">
<path d="M6.96973 29.5359C6.96973 29.5359 19.6297 52.9959 35.9997 50.3359C35.9997 50.3359 57.6897 51.1059 67.3697 48.2759C67.3697 48.2759 81.9397 39.0959 87.0797 23.0659L75.3497 21.6559L55.3697 20.5359L29.1997 24.4459L6.96973 29.5259V29.5359Z" fill="url(#paint0_linear_149_1127)"/>
<path d="M1.37964 24.466L23.9696 7.66601C23.9696 7.66601 35.0496 -3.42399 44.2196 3.91601C44.2196 3.91601 48.8196 5.41602 53.9296 2.20602C53.9296 2.20602 60.2396 -4.854 74.0396 6.286L91.1596 19.586L87.0696 23.076L82.6696 23.256L72.0996 20.966L63.5896 20.796L54.7896 22.686L38.7896 23.086L29.1896 24.466L15.7596 27.666L6.61963 27.956L1.37964 24.476V24.466Z" fill="url(#paint1_linear_149_1127)"/>
<path d="M8.37979 29.5359C5.70979 29.5459 0.869783 29.5759 0.109783 27.4859C-0.270217 26.4459 0.379781 24.9359 1.38978 24.4659C2.69978 23.8459 3.99979 25.3059 6.73979 26.2359C8.58979 26.8659 9.97978 26.8759 12.6498 26.8959C18.9498 26.9459 29.2098 22.9859 35.3798 21.2859C36.1098 21.0859 48.8098 17.7059 61.7398 19.7159C66.8298 20.5059 72.0898 20.4459 77.0298 21.8959C77.9398 22.1659 80.2698 22.8959 83.2598 22.5259C85.4898 22.2559 87.2298 21.4759 88.3498 20.8659C88.3498 20.8659 92.0598 17.3659 92.3498 21.8259C91.6398 22.3959 90.4598 23.2459 88.8298 23.8559C83.9898 25.6759 80.9698 23.2459 72.7098 22.3259C68.0898 21.8159 64.8298 21.4559 60.8098 22.6859C57.9498 23.5659 57.0098 24.5459 53.6098 25.3159C51.1198 25.8759 49.0498 25.8459 44.9998 25.7459C37.0098 25.5659 34.8798 24.6459 29.5398 25.5059C29.2498 25.5559 28.0698 25.8159 25.7298 26.3359C14.3498 28.8759 12.1898 29.5059 8.39978 29.5259L8.37979 29.5359Z" fill="#3A0601"/>
<defs>
<linearGradient id="paint0_linear_149_1127" x1="46.9355" y1="16.1626" x2="46.9355" y2="45.6833" gradientUnits="userSpaceOnUse">
<stop stop-color="#750B0D"/>
<stop offset="1" stop-color="#A92E32"/>
</linearGradient>
<linearGradient id="paint1_linear_149_1127" x1="46.1697" y1="-4.07397" x2="46.1697" y2="23.426" gradientUnits="userSpaceOnUse">
<stop stop-color="#A92E32"/>
<stop offset="0.96" stop-color="#750B0D"/>
</linearGradient>
</defs>
</svg>
