<svg width="95" height="283" viewBox="0 0 95 283" fill="none" xmlns="http://www.w3.org/2000/svg">
<path d="M37.8471 279.061C33.4547 280.676 26.2164 282.706 17.1499 282.413C9.8714 282.177 3.97845 280.527 0 279.061V187.993C4.13368 188.563 8.61232 188.988 13.4014 189.178C22.5542 189.54 30.787 188.959 37.8413 187.993V279.061H37.8471Z" fill="url(#paint0_linear_180_3583)"/>
<path d="M18.9207 189.77C29.3702 189.77 37.8413 189.108 37.8413 188.292C37.8413 187.476 29.3702 186.815 18.9207 186.815C8.47107 186.815 0 187.476 0 188.292C0 189.108 8.47107 189.77 18.9207 189.77Z" fill="#181818"/>
<path d="M13.4013 186.809V73.0782C13.4013 73.0782 14.2867 69.5309 14.3844 64.4026H22.7035C22.7035 64.4026 20.973 69.6286 22.7035 72.6815V186.861L13.3956 186.815L13.4013 186.809Z" fill="url(#paint1_linear_180_3583)"/>
<path d="M21.0593 66.4379H15.0859C15.0686 66.3919 15.0514 66.3459 15.0341 66.2999C13.2864 66.1217 11.5444 65.9435 9.61839 65.7422C10.0036 65.6503 10.2221 65.5928 10.5843 65.5065C10.1186 65.3915 9.77362 65.2996 9.42867 65.2133C9.44017 65.1213 9.44592 65.0293 9.45741 64.9374C11.1017 65.1041 12.746 65.2708 14.3845 65.4375C14.396 65.38 14.4075 65.3283 14.4132 65.2708C13.1829 64.9316 11.9526 64.5867 10.7165 64.2475C12.4125 63.937 14.0913 64.7994 15.793 64.0692C14.12 63.7588 12.4528 63.4483 10.7797 63.1321C10.8947 63.0459 11.0154 62.9539 11.2454 62.7871C10.5555 62.7412 9.98059 62.7009 9.39417 62.6607C9.42292 62.3042 9.34243 61.9248 9.49191 61.6833C9.68163 61.3671 10.0208 60.9876 10.3485 60.9302C11.1822 60.7692 12.0446 60.7692 13.0564 60.6944C12.6022 60.522 12.2975 60.4012 11.9871 60.2805C11.9986 60.2173 12.0158 60.154 12.0331 60.0908C13.2691 60.3035 14.511 60.5105 15.7528 60.7174C15.77 60.6197 15.7815 60.5277 15.7988 60.43C15.3044 60.3495 14.8099 60.2747 14.097 60.1598C14.4535 59.97 14.6145 59.8838 14.7754 59.7976C14.7869 59.6998 14.7927 59.6021 14.8042 59.5043C13.0737 59.3434 11.3432 59.1881 9.60689 59.0272C9.89435 58.9869 10.1991 58.9409 10.705 58.8662C10.1933 58.412 9.77937 58.0498 9.30219 57.6301C9.97484 56.6297 11.004 57.2507 11.8376 57.1472C12.7172 57.0437 13.6256 57.1242 14.5742 56.9345C13.5049 56.6125 12.4355 56.2963 11.3662 55.9743C11.3719 55.9398 11.3777 55.8996 11.3834 55.8651H14.7064C14.7064 55.8019 14.7122 55.7444 14.7179 55.6811C13.4474 55.6064 12.1768 55.5719 10.912 55.4282C10.452 55.3764 9.98059 55.1062 9.60689 54.813C9.43442 54.675 9.46891 54.2553 9.44017 53.9564C9.41717 53.7206 9.43442 53.4849 9.43442 53.1917C10.36 53.094 11.3317 52.9847 12.539 52.8583C12.0733 52.6743 11.8318 52.5765 11.3432 52.3811C12.217 52.2661 12.815 52.1799 13.6371 52.0706C12.447 51.7774 11.4696 51.4784 10.4693 51.3232C9.77362 51.214 9.24469 50.8633 9.36543 50.2596C9.42867 49.9377 10.1876 49.5927 10.659 49.541C11.6824 49.4317 12.7287 49.5065 13.7981 49.426C13.1599 49.311 12.5275 49.196 11.7858 49.0638C12.9069 48.1554 13.9935 49.3857 15.0686 49.0005C14.0453 48.1497 11.8778 47.5345 9.36543 47.3793C9.58965 46.9193 8.96298 46.1259 10.0208 46.0742C10.6303 46.0454 11.2397 46.0684 12.0676 46.0684C11.4466 45.7925 11.0384 45.6085 10.6245 45.4303C10.6418 45.3613 10.659 45.2923 10.6762 45.2233C11.3029 45.1601 11.9238 45.0566 12.5505 45.0393C13.1484 45.0221 13.7521 45.0968 14.6087 45.1371C13.6428 43.6595 12.3493 44.1655 11.0729 43.9872C11.4006 43.8722 11.5789 43.809 11.7571 43.7458C11.7571 43.6998 11.7571 43.6538 11.7571 43.6078C11.0442 43.556 10.3313 43.51 9.62989 43.4583C9.58965 42.6304 10.2508 41.8715 11.1822 41.6933C12.5102 41.4403 13.8498 41.2276 15.1836 40.8999C14.5627 40.8539 13.9418 40.8137 13.3209 40.7677C13.3209 40.7044 13.3209 40.6354 13.3209 40.5722C13.8498 40.5377 14.373 40.5032 14.9019 40.4687C13.3209 39.7673 11.6594 39.6408 9.98059 39.7558C9.89627 39.1081 10.2067 38.7459 10.912 38.6692C10.613 38.583 10.3313 38.5082 10.0553 38.4277C10.0553 38.3587 10.0496 38.2898 10.0438 38.2208C11.8433 37.7896 13.6371 37.3584 15.4366 36.9272C15.4538 36.8467 15.4768 36.7662 15.4998 36.6915C13.7981 36.3465 12.1021 35.9958 10.3485 35.6336C10.3485 35.6451 10.4635 35.4439 10.4118 35.3404C10.0496 34.6678 10.4808 34.5068 10.981 34.3055C11.2512 34.1963 11.4639 33.9548 11.8318 33.6674H13.6486C13.6601 33.6386 13.6716 33.6041 13.6831 33.5754C13.4646 33.5007 13.2461 33.4317 12.7575 33.2649C13.6773 33.0407 14.3442 32.8855 15.0054 32.7245C15.0112 32.6958 15.0227 32.667 15.0284 32.644H10.4003C10.912 32.506 11.2454 32.4141 11.5789 32.3278C11.5789 32.2818 11.5731 32.2358 11.5731 32.1898H10.636C10.6245 32.1323 10.613 32.0806 10.6015 32.0231C10.7337 31.9714 10.8602 31.9196 10.9062 31.9024C10.7682 31.4367 10.4635 30.9768 10.5555 30.6203C10.935 29.2002 12.2055 29.8672 13.1139 29.6257C13.1139 29.6257 13.1254 29.5969 13.1139 29.5912C13.0909 29.5739 13.0507 29.5797 13.0277 29.5567C12.9644 29.4935 12.9069 29.4302 12.8494 29.367C13.0047 29.298 13.1657 29.229 13.3209 29.16C13.6946 28.999 14.0683 28.8323 14.442 28.6713C14.4017 28.6023 14.3615 28.5276 14.3212 28.4586C13.1024 28.2401 11.8836 28.0274 10.8545 27.8434C10.8545 27.303 10.7682 26.9178 10.8775 26.5959C10.9925 26.2509 11.2224 25.7737 11.5099 25.6817C12.5045 25.3713 13.5394 25.2045 14.5167 24.9861C13.8786 23.7672 12.5965 24.4629 11.4064 24.3307C11.7054 24.1697 11.9181 24.0547 12.3665 23.8132C11.7973 23.7098 11.4754 23.6465 11.0672 23.5718C11.0959 23.1118 11.1304 22.6404 11.1649 22.1287C12.0676 21.6803 12.9874 21.2261 14.1315 20.6627C13.5049 20.381 12.9299 19.9383 12.3205 19.8923C11.2397 19.8118 11.3374 19.2196 11.4639 18.501C11.5329 18.1158 11.6076 17.7248 11.6421 17.5179C12.0848 17.2304 12.4125 17.0234 12.7402 16.8107C12.3148 16.437 12.9472 15.5229 12.0043 15.3791C11.9066 15.3676 11.8088 14.9939 11.8031 14.7812C11.7973 14.5513 12.0043 14.2868 11.9411 14.0971C11.7169 13.3669 11.9813 13.022 12.6885 12.8725C13.4704 12.7058 13.5221 12.0963 13.5049 11.3604C13.0679 11.3202 12.654 11.2857 12.0503 11.234C12.2975 11.1247 12.447 11.0615 12.4643 11.0557C12.3838 10.5038 12.148 9.96913 12.2688 9.53219C12.5275 8.58357 13.4474 8.87103 14.1833 8.7733C14.2868 8.49734 14.4017 8.21562 14.5455 7.83618C13.9303 7.54872 13.1427 7.39924 12.7575 6.92205C12.4528 6.54835 12.6367 5.76646 12.6195 5.42151C13.1887 4.99607 13.6198 4.67986 14.0568 4.3579C13.6026 4.09344 13.1484 3.83472 12.5045 3.46103C12.539 2.76537 12.5677 1.76501 12.6827 0.776144C12.7 0.632413 13.1599 0.425442 13.3956 0.448439C13.8096 0.482934 14.2063 0.684156 14.6087 0.80489C15.1204 0.954369 15.5286 1.00611 15.9943 0.500181C16.6037 -0.166727 17.2993 0.00574921 18.0065 0.73015C18.1387 0.862382 18.4722 0.896877 18.6734 0.839385C19.5473 0.58642 20.4039 0.281711 21.2605 0C21.5768 0.712902 21.9217 1.44305 22.2264 2.17895C22.4449 2.70788 21.87 3.50702 21.1628 3.57601C20.3809 3.6565 20.128 3.98995 20.3522 4.63387C20.9328 4.7776 21.4503 4.90408 22.1402 5.07655C21.824 5.32952 21.6802 5.45025 21.5423 5.56524C22.2149 6.08267 22.1862 6.51386 21.387 7.16352C21.5193 7.24401 21.64 7.31875 21.7895 7.40499C21.0306 7.59471 20.3637 7.76144 19.6968 7.92241C19.7198 8.05465 19.7428 8.18113 19.7658 8.31336C20.2487 8.29036 20.7374 8.31336 21.2088 8.23862C21.9275 8.12939 22.2724 8.71006 22.3471 9.124C22.4564 9.73917 22.8128 10.6993 21.5768 10.8373C21.8585 10.8718 22.1459 10.9063 22.4276 10.9465C22.4506 11.0097 22.4794 11.073 22.5024 11.1362C21.6342 11.5157 20.7719 11.8951 19.622 12.4011H22.0999C22.0999 12.6138 22.0252 12.884 22.1114 12.9587C23.3073 13.9648 23.1578 15.0457 21.7435 15.6321C21.4618 15.7471 21.2548 16.0518 21.1226 16.4715H22.2897C22.3012 16.5347 22.3069 16.598 22.3184 16.6612C22.0712 16.7245 21.8297 16.7934 21.5078 16.8739C22.1057 16.9544 22.6461 17.0234 22.9853 17.0694C23.9627 19.0299 23.0198 19.9613 21.456 20.6109L23.0486 20.4959C23.0543 20.5477 23.0601 20.6052 23.0715 20.6569C22.4679 20.8064 21.8642 20.9616 21.0708 21.1571C22.1402 21.3468 22.9911 21.4963 23.8189 21.6458C23.7231 23.2019 23.1999 24.0279 22.2494 24.1237C22.6346 24.3134 22.9278 24.4571 23.3245 24.6584C23.0371 24.7561 22.8358 24.8193 22.6461 24.8998C22.4564 24.9803 22.2667 25.0838 22.1229 25.3885C22.5426 25.3483 22.9853 25.216 23.3878 25.2908C23.6982 25.3483 23.9684 25.6472 24.2616 25.8427C24.2099 25.9232 24.1639 25.9979 24.1179 26.0784C23.5257 26.2049 22.9336 26.3371 22.3414 26.4636C22.3414 26.4981 22.3529 26.5269 22.3529 26.5614H23.9742C24.3191 27.6595 24.1696 27.8894 23.106 27.9354C22.6634 27.9527 22.2149 27.9354 21.7607 28.1079C22.2379 28.1366 22.7208 28.1711 23.198 28.2056C23.2095 28.3034 23.221 28.3954 23.2268 28.4988C21.9677 28.6196 20.7086 28.7403 19.4495 28.861C19.461 29.0105 19.4783 29.1658 19.4955 29.3152C20.9501 29.1715 22.4046 29.0335 24.1581 28.8668C23.6177 29.1428 23.3475 29.2865 22.8588 29.5337C23.3763 29.6372 23.6867 29.6257 23.9109 29.7637C24.1581 29.9074 24.5261 30.3501 24.4974 30.3846C24.1179 30.856 24.3709 31.2872 24.6411 31.8161C23.6925 31.9139 22.8646 31.9944 21.8125 32.1036C22.2034 32.2991 22.4219 32.4141 22.7553 32.575C22.3184 32.6555 21.9734 32.7188 21.6285 32.782C21.6285 32.851 21.6227 32.92 21.6227 32.9832C22.0654 33.0177 22.5254 33.1557 22.9451 33.0752C23.681 32.9315 24.1352 33.3454 24.6181 33.7306C25.1125 34.1216 25.032 34.984 24.4916 35.3404C24.6353 35.4094 24.7848 35.4784 24.9573 35.5589C23.4855 36.0763 22.0827 36.5707 20.6799 37.0652C20.6971 37.1457 20.7201 37.2319 20.7374 37.3124C21.4158 37.2089 22.1114 37.1572 22.7668 36.9847C23.6292 36.7547 24.4514 36.4673 25.0205 37.5596C24.8883 37.6631 24.6928 37.8183 24.3651 38.077C24.7446 38.0483 24.963 38.031 25.1815 38.0138C25.5207 39.0372 25.3597 39.3361 24.2214 39.5661C23.244 39.7616 22.2494 39.8823 21.2605 40.0375C21.2605 40.1238 21.2605 40.21 21.2605 40.2905H23.0371C22.8991 40.5434 22.7611 40.7964 22.5829 41.1241C23.359 41.0666 24.0892 41.0091 24.8136 40.9516C24.8308 41.0551 24.8423 41.1644 24.8596 41.2736C24.1524 41.4173 23.4452 41.5668 22.7438 41.7105C22.7496 41.7853 22.7611 41.8658 22.7668 41.9405C23.6982 41.86 24.6296 41.7795 25.5667 41.699C25.9692 43.1363 25.4632 43.7745 23.9397 43.9067C23.3878 43.9527 22.4621 43.5848 22.4966 44.8669C22.9911 44.7806 23.4222 44.7001 23.8592 44.6311C24.2846 44.5621 24.7158 44.5047 25.1873 44.6081C25.055 44.6714 24.9113 44.7231 24.7906 44.8036C24.6526 44.8956 24.5433 45.0221 24.4226 45.1313C24.5893 45.2233 24.7618 45.39 24.9343 45.39C25.3712 45.4015 25.8139 45.3383 26.3314 45.298C26.1589 45.7982 26.0381 46.1374 25.8657 46.6491C25.7392 46.6779 25.3655 46.7698 24.8251 46.8963C25.3367 46.9941 25.6759 47.0573 26.0094 47.1205C26.0094 47.1838 26.0094 47.2528 26.0151 47.316C25.469 47.3448 24.9285 47.3793 24.3881 47.4138V47.523C24.8021 47.5575 25.216 47.592 25.6242 47.6265C25.6357 47.7185 25.6414 47.8105 25.6529 47.9024C24.2444 48.0289 22.8358 48.1497 21.4273 48.2704C21.433 48.3854 21.4445 48.4946 21.4503 48.6096H26.1014C25.5782 48.8338 25.216 49.0293 24.8308 49.1443C24.4456 49.2535 24.0317 49.2822 23.6292 49.3512C23.635 49.449 23.6465 49.5467 23.6522 49.6444C24.5376 49.5755 25.423 49.5065 26.5153 49.426C26.1876 49.6847 26.0151 49.8227 25.8657 49.9434C25.9864 50.2079 26.1014 50.4723 26.2739 50.846C25.17 50.9438 24.2156 51.03 23.2555 51.1162C23.2555 51.1565 23.2555 51.1967 23.2498 51.2312C24.0259 51.2657 24.8021 51.306 25.5782 51.3462C25.5667 51.4037 25.561 51.4612 25.5495 51.5187C24.2444 52.0189 22.9451 52.5248 21.64 53.0307C21.64 53.0652 21.6515 53.1055 21.6515 53.14C22.9336 53.048 24.2214 52.956 25.5035 52.8583C25.5207 52.9043 25.538 52.956 25.561 53.002C25.354 53.1285 25.1528 53.2492 24.6698 53.5424C25.492 53.6976 26.0669 53.8069 26.7395 53.9391C25.7967 55.6581 23.9339 54.5945 22.7726 55.4224C23.0773 55.5029 23.3878 55.5834 23.8707 55.7099C23.152 56.1008 22.5886 56.4055 22.0252 56.7102C22.0539 56.8367 22.0827 56.9574 22.1114 57.0839C23.428 56.9747 24.7446 56.8655 26.0669 56.7562C26.1531 56.8425 26.2394 56.923 26.3256 57.0092C26.0669 57.1702 25.8139 57.3254 25.5437 57.4921H26.4176C26.4521 57.5956 26.5613 57.7911 26.5268 57.8198C26.1071 58.1705 25.7104 58.688 25.2275 58.8029C24.0949 59.0674 22.9221 59.1306 21.6457 59.2916C22.7093 59.4584 23.635 59.6021 24.6123 59.7573C24.4744 60.0678 24.3939 60.2345 24.2846 60.4817C24.6526 60.5105 24.9573 60.5335 25.3712 60.5622C25.2045 60.7634 25.0838 60.9129 24.9745 61.0509C25.4517 61.1141 25.9577 61.1774 26.4636 61.2406C26.4636 61.3383 26.4636 61.4418 26.4693 61.5453C25.6012 61.712 24.7331 61.8788 23.7615 62.0627C24.4686 62.9366 25.561 61.8098 26.1704 62.9021C24.8998 63.0114 23.7327 63.1091 22.5714 63.2241C20.3579 63.4426 19.7083 63.7185 19.6853 64.6096C20.3924 64.3739 21.0363 64.1612 21.6917 63.9485C22.9853 64.7936 24.5031 64.6096 26.0381 64.5867C25.1528 64.7591 24.2616 64.9316 23.3763 65.1041C23.3878 65.1788 23.3993 65.2593 23.405 65.3341C24.3249 65.1961 25.2447 65.0638 26.1071 64.9374C25.5897 66.3172 24.3191 66.0412 23.2325 66.1849C22.5024 66.2827 21.7665 66.3402 20.9903 66.4724L21.0593 66.4379Z" fill="white"/>
<path d="M94.2237 117.808C94.2237 117.808 95.3404 115.272 88.2041 115.027C88.2041 115.027 57.6642 111.468 56.3443 118.134L83.9483 129.256L94.2237 117.808Z" fill="#818181"/>
<path d="M56.5218 278.084C60.9926 279.885 67.9849 281.979 76.6345 281.683C84.0529 281.428 90.0922 279.504 94.2217 277.758V117.808C88.8078 118.335 83.0565 118.688 76.9955 118.788C69.6619 118.91 62.7584 118.647 56.3423 118.134C56.4015 171.45 56.4607 224.769 56.5218 278.084Z" fill="url(#paint2_linear_180_3583)"/>
<path d="M88.4704 92.4517C88.4704 92.4517 72.9587 91.4071 62.4033 92.4517V112.794H88.6973L88.4704 92.4517Z" fill="url(#paint3_linear_180_3583)"/>
<path d="M88.4704 92.4517C88.4704 92.4517 72.9587 91.4071 62.4033 92.4517V112.794H88.6973L88.4704 92.4517Z" fill="url(#paint4_linear_180_3583)"/>
<path d="M90.4986 104.165L88.1705 100.895L62.0284 98.8964C62.0284 98.8964 60.8268 99.3495 60.0751 101.076L90.4986 104.165Z" fill="url(#paint5_linear_180_3583)"/>
<path d="M89.9739 109.705L88.3955 107.072L61.8785 104.802C61.8785 104.802 59.9253 106.027 60.0752 107.253L89.9719 109.705H89.9739Z" fill="url(#paint6_linear_180_3583)"/>
<path d="M90.4986 98.0806L88.6953 95.7194C88.6953 95.7194 82.6856 95.9913 84.189 96.9C84.189 96.9 86.4421 98.808 90.4986 98.0806Z" fill="url(#paint7_linear_180_3583)"/>
<path d="M60.6078 112.792H89.9659C90.2601 112.792 90.4986 113.08 90.4986 113.436V115.418C90.4986 115.773 90.2601 116.062 89.9659 116.062H60.6078C60.3136 116.062 60.0751 115.773 60.0751 115.418V113.436C60.0751 113.08 60.3136 112.792 60.6078 112.792Z" fill="url(#paint8_linear_180_3583)"/>
<defs>
<linearGradient id="paint0_linear_180_3583" x1="2.87461" y1="235.143" x2="37.9448" y2="235.143" gradientUnits="userSpaceOnUse">
<stop stop-color="#C0C0C0"/>
<stop offset="0.25" stop-color="white"/>
<stop offset="0.535" stop-color="#C0C0C0"/>
<stop offset="0.88" stop-color="white"/>
<stop offset="1" stop-color="#C0C0C0"/>
</linearGradient>
<linearGradient id="paint1_linear_180_3583" x1="14.3729" y1="125.908" x2="22.4218" y2="125.908" gradientUnits="userSpaceOnUse">
<stop stop-color="#0E0E0E"/>
<stop offset="0.325" stop-color="#1F1F1F"/>
<stop offset="1" stop-color="#161616"/>
</linearGradient>
<linearGradient id="paint2_linear_180_3583" x1="91.3446" y1="199.63" x2="56.2445" y2="199.63" gradientUnits="userSpaceOnUse">
<stop stop-color="#C0C0C0"/>
<stop offset="0.25" stop-color="white"/>
<stop offset="0.535" stop-color="#C0C0C0"/>
<stop offset="0.88" stop-color="white"/>
<stop offset="1" stop-color="#C0C0C0"/>
</linearGradient>
<linearGradient id="paint3_linear_180_3583" x1="88.5378" y1="104.636" x2="62.6664" y2="104.061" gradientUnits="userSpaceOnUse">
<stop stop-color="#0B0B0B"/>
<stop offset="0.27" stop-color="#8A8A8A"/>
<stop offset="0.575" stop-color="#1C1C1C"/>
<stop offset="0.835" stop-color="#EEEEEE"/>
<stop offset="1" stop-color="#0E0E0E"/>
</linearGradient>
<linearGradient id="paint4_linear_180_3583" x1="86.7002" y1="102.374" x2="62.3354" y2="102.374" gradientUnits="userSpaceOnUse">
<stop stop-color="#C0C0C0"/>
<stop offset="0.25" stop-color="white"/>
<stop offset="0.535" stop-color="#C0C0C0"/>
<stop offset="0.88" stop-color="white"/>
<stop offset="1" stop-color="#C0C0C0"/>
</linearGradient>
<linearGradient id="paint5_linear_180_3583" x1="67.8438" y1="105.739" x2="68.313" y2="100.146" gradientUnits="userSpaceOnUse">
<stop stop-color="#C0C0C0"/>
<stop offset="0.25" stop-color="white"/>
<stop offset="0.535" stop-color="#C0C0C0"/>
<stop offset="0.88" stop-color="white"/>
<stop offset="1" stop-color="#C0C0C0"/>
</linearGradient>
<linearGradient id="paint6_linear_180_3583" x1="67.7037" y1="111.17" x2="68.1175" y2="105.961" gradientUnits="userSpaceOnUse">
<stop stop-color="#C0C0C0"/>
<stop offset="0.25" stop-color="white"/>
<stop offset="0.535" stop-color="#C0C0C0"/>
<stop offset="0.88" stop-color="white"/>
<stop offset="1" stop-color="#C0C0C0"/>
</linearGradient>
<linearGradient id="paint7_linear_180_3583" x1="85.6204" y1="99.0006" x2="86.108" y2="96.3908" gradientUnits="userSpaceOnUse">
<stop stop-color="#C0C0C0"/>
<stop offset="0.25" stop-color="white"/>
<stop offset="0.535" stop-color="#C0C0C0"/>
<stop offset="0.88" stop-color="white"/>
<stop offset="1" stop-color="#C0C0C0"/>
</linearGradient>
<linearGradient id="paint8_linear_180_3583" x1="68.1175" y1="117.314" x2="68.0077" y2="113.572" gradientUnits="userSpaceOnUse">
<stop stop-color="#C0C0C0"/>
<stop offset="0.25" stop-color="white"/>
<stop offset="0.535" stop-color="#C0C0C0"/>
<stop offset="0.88" stop-color="white"/>
<stop offset="1" stop-color="#C0C0C0"/>
</linearGradient>
</defs>
</svg>
