<?xml version="1.0" encoding="utf-8"?>
<!-- Generator: Adobe Illustrator 25.0.1, SVG Export Plug-In . SVG Version: 6.00 Build 0)  -->
<svg version="1.1" id="_Слой_1" xmlns="http://www.w3.org/2000/svg" xmlns:xlink="http://www.w3.org/1999/xlink" x="0px"
	 y="0px" viewBox="0 0 145.9 190.1" style="enable-background:new 0 0 145.9 190.1;" xml:space="preserve">
<style type="text/css">
	.st0{fill:#C7ACA2;}
	.st1{opacity:0.4;fill:url(#SVGID_1_);enable-background:new    ;}
	.st2{opacity:0.6;fill:url(#SVGID_2_);enable-background:new    ;}
	.st3{opacity:0.6;fill:url(#SVGID_3_);enable-background:new    ;}
	.st4{opacity:0.7;}
	.st5{opacity:0.5;}
	.st6{opacity:0.7;fill:url(#SVGID_4_);enable-background:new    ;}
	.st7{opacity:0.7;fill:url(#SVGID_5_);enable-background:new    ;}
	.st8{opacity:0.4;fill:url(#SVGID_6_);enable-background:new    ;}
	.st9{opacity:0.8;fill:url(#SVGID_7_);enable-background:new    ;}
	.st10{opacity:0.4;fill:#9A7E69;enable-background:new    ;}
</style>
<path class="st0" d="M159.5,133.2c-0.5,0.9-1.2,1.7-2.1,2.5c-1.1,0.8-2.3,2-2.6,3.2c-0.5,2.4-1.1,4.6-3.4,6.2
	c0.9,4.9,1.8,9.9,2.6,15c0.4,2.3,0.6,4.7,1,7.1c0.5,3.2,1.1,6.3,1.6,9.5c-5.2,1.6-10.4,3.2-15.6,4.9c-6-16.3-7.9-23.1-8.2-26
	c-0.1-0.6-0.2-2-1.1-3.5c-1-1.6-2-1.7-4.9-3.9c-1.1-0.8-2.4-1.8-4.1-3.3c-2.1-1.8-3.2-2.8-4-3.9c-2.7-3.7-3.4-8.1-3.7-10.8
	c-0.7-8.1-2.6-35.3-2.2-38.9c-1,2.6-1.7,4.2-2.3,5.2c-0.8,1.4-1.1,2.2-1.4,2.5c-2.1,2.2-5.1,1-7.1,3.1c-0.6,0.6-1.1,1.3-1.3,2.7
	c-0.4,4.2-1.7,14.8-3.4,29.3c-4.8,0.9-11.1,1.7-18.5,1.8c-1.6,0-7.5,0.1-15.3-0.7c-6.4-0.7-14.9-2.1-24.7-5c2.2-5.2,2.8-9.4,3-12.3
	c0.2-2.8-0.1-6.4-0.5-13.6c-0.1-1.4-0.1-2.2-0.2-2.4c-0.7-4.6-3.3-5.9-5.2-9.4c-0.1,0.5-0.2,1-0.3,1.5c-3.8,19.5-7.4,34-9.3,40.3
	c-1,3.3-2.7,7-5.8,9.8c-1.1,1-2.3,1.7-4.8,3c-1.9,1.1-3.4,1.8-4.6,2.4c-3.3,1.5-4.3,1.4-5.6,2.8c-1.1,1.2-1.6,2.5-1.8,3.2
	c-1.1,3.5-4.1,11.4-8.5,22.6c-3.2-0.4-7.2-1.3-11.7-3.2c-2.8-1.2-5.2-2.6-7.2-3.9c0.8-2.1,2-5.1,3.4-8.7c0.8-2.2,1.5-4,2.5-6.6
	c1.3-3.5,3.2-8.4,5.4-14.3c-1.9-2.1-2.1-4.4-2.1-6.8c0-1.2-1-2.6-1.9-3.6c-0.8-0.9-1.3-1.9-1.6-2.8c-0.7-2.5,0.1-5,0.6-6.2
	c3.1-7.6,11.6-8.8,16.2-18c0.8-1.6,0.9-2.4,2.5-5.5c1.5-3,3.4-6.5,4.5-8.1c0.2-0.9,0.4-1.7,0.7-2.6c1-3.7,2.2-7.3,2.9-11.1
	c2-10.3,3.6-20.7,5.6-30.9c1-4.9,2.5-9.7,3.9-14.5c0.9-2.8,2.2-5.4,3.3-8.2c0.9-2.1,1.6-4.2,2.7-6.2c2-3.4,5-5,7.1-6.2
	c3.1-1.8,4.7-1.9,12.3-4.2c3.2-1,5.8-1.8,7.4-2.4c0.8-0.3,1.4-0.4,1.8-0.4c0.6,0,1,0,1.5,0.3c0.6,0.4,0.8,1,0.8,1.3
	c0.8,1.7,1.6,3.4,2.4,5.1c2.8,8,5.6,16.1,8.4,24.1c3.8,7.7,7.7,15.4,11.5,23.1c1-2.2,5.3-11.8,6.4-14c3-6.7,4.6-10.1,4.6-10.3
	c0.4-1.2,6.4-17.5,6.1-25.2c0-0.6-0.1-3,1.2-3.8c0.7-0.5,1.8-0.4,2.2-0.4c1.3,0.1,2.2,0.8,2.6,1c2.6,1.7,5.6,2.5,8.4,3.8
	c5.4,2.6,7.8,3.3,9.5,4.2c4.1,2.1,9.1,7.2,11.9,20.2v0c1.5,6.7,3,13.4,4.4,20.2c2.2,10.5,4.9,20.8,8.5,30.9c1.5,4.2,3,8.5,4.4,12.8
	c4.3,5.1,11.9,15.9,11.6,30.1C160.2,129.2,159.9,131.3,159.5,133.2z"/>
<linearGradient id="SVGID_1_" gradientUnits="userSpaceOnUse" x1="132.3019" y1="173.273" x2="144.4646" y2="173.273" gradientTransform="matrix(0.9154 -0.4026 -0.4026 -0.9154 82.5999 306.7213)">
	<stop  offset="0" style="stop-color:#B0A091"/>
	<stop  offset="0.49" style="stop-color:#9A7E69"/>
</linearGradient>
<path class="st1" d="M130,82.8c6.6,5.8,13.1,11.7,19.7,17.5c-1.4,1.3-7.2,6.2-10.6,4.4c-0.6-0.3-1-0.8-2.6-4.2
	c-2.2-4.8-3.4-7.3-4.5-10.7C131.4,88,130.7,85.7,130,82.8L130,82.8z"/>
<linearGradient id="SVGID_2_" gradientUnits="userSpaceOnUse" x1="78.5" y1="122.195" x2="92.63" y2="122.195" gradientTransform="matrix(1 0 0 -1 0 191)">
	<stop  offset="0" style="stop-color:#B0A091"/>
	<stop  offset="0.45" style="stop-color:#9B806B"/>
	<stop  offset="1" style="stop-color:#9A7E69"/>
</linearGradient>
<polygon class="st2" points="92.6,90.8 83.4,46.8 78.5,57 "/>
<linearGradient id="SVGID_3_" gradientUnits="userSpaceOnUse" x1="52.4273" y1="108.2953" x2="63.78" y2="108.2953" gradientTransform="matrix(1 0 0 -1 0 191)">
	<stop  offset="0" style="stop-color:#B0A091"/>
	<stop  offset="0.45" style="stop-color:#9B806B"/>
	<stop  offset="1" style="stop-color:#9A7E69"/>
</linearGradient>
<path class="st3" d="M63.8,101.5c-1.8-3.8-4.4-9.6-6.7-16.8c-3.5-11-5-20.7-4.6-20.8c0.4-0.1,1.5,8.7,6.5,19.6
	c0.9,2,2.4,5.1,3.5,9.7C63.3,96.6,63.6,99.5,63.8,101.5z"/>
<g class="st4">
	
		<image style="overflow:visible;enable-background:new    ;" width="81" height="178" xlink:href="1F397C60.png"  transform="matrix(1 0 0 1 76 -8.42)">
	</image>
</g>
<g class="st5">
	
		<image style="overflow:visible;enable-background:new    ;" width="123" height="159" xlink:href="1F397C67.png"  transform="matrix(1 0 0 1 -30 -33.42)">
	</image>
</g>
<path d="M119.5,12.9c-1.1-0.6-2.7-1.4-4.7-2.2c-2.8-1.2-2.8-1.1-4.9-2c-3.7-1.7-6.1-2.9-8.3-4.2c-0.2-0.1-1.3-0.9-2.8-1
	c-0.6-0.1-1.3-0.1-2,0.2c-1.5,0.8-1.5,3.1-1.5,3.2c-0.4,3.5-1.1,8.5-2.8,14.4c-1.4,5-2.9,8.5-4.3,11.7c-2.3,5.5-5.6,13.5-9.8,24.1
	C75,49.7,71.4,42.3,67.9,35c-4.1-12.4-7.4-21.4-8.7-24.2c-0.6-1.4-0.9-1.5-1.7-3.4c-1-2.3-1.3-3.5-2.4-3.9c-0.5-0.2-1-0.3-2,0
	c-0.6,0.2-1.6,0.4-2.8,0.8c-2.7,0.8-5.1,1.6-13.2,4.6c-4.1,1.5-4.3,1.6-4.7,1.8c-1.3,0.7-4.9,2.4-7.1,6.2c-1.1,1.9-1.8,4.1-2.7,6.2
	c-1.1,2.7-2.4,5.3-3.3,8.2c-1.5,4.8-3,9.6-3.9,14.5c-2,10.3-3.6,20.6-5.6,30.9c-0.7,3.7-1.9,7.4-2.9,11.1c-0.2,0.9-0.5,1.7-0.7,2.6
	c-0.4,1.4-0.7,2.8-1.1,4.2c0.1,0,0.2-0.1,0.3-0.1c0.2-0.2,0.4-0.4,0.4-0.6c1.6-5,3.3-9.9,4.6-14.9c1.3-5.1,2.3-10.3,3.3-15.5
	c1.1-6.2,2-12.4,3.1-18.5c1.4-7.5,3.7-14.7,6.9-21.5c0.3-0.7,0.7-2.1,1.6-3.8c0.6-1.1,2.2-4.1,4.6-6.2c0.1-0.1,0.4-0.4,0.9-0.7
	c2.3-1.6,4.1-2.1,7.5-3.1c1.3-0.4,2.3-0.7,4.3-1.4c3.9-1.3,5-1.7,7.1-2.3c1.8-0.5,3.2-0.8,4.1-1c1.1,1.8,2.6,4.4,4.1,7.8
	c1.5,3.2,2.3,5.7,3,8c1.2,3.5,2.9,8.6,5.3,15.2c5,9.5,8.4,17.5,10.7,23.3c0,0,10.9,27,17.1,36.3c0.2,0.3,1.2,1.7,2.1,3.8
	c0.5,1.1,0.8,2.1,1,2.8c-4.3,0.2-8.4,0.4-12.4,0.6c-0.8,0-1.6-0.4-2-1.4c-1-2.5-2.1-4.9-3.2-7.4c-0.4-1-0.8-1.9-1.2-2.9
	c-1.2-3-5.4-11.7-15.7-32c-0.1,0.1-0.2,0.1-0.3,0.2c0.8,1.9,1.6,3.7,2.4,5.6c5.7,12.5,11.4,25,17.2,37.5c-4.6-0.2-9.1-0.3-13.6-0.5
	c-0.4,0-0.7-0.5-1.2-1.1c-3-3-4.9-7.1-6.3-11.1c1.6,5.1,2.6,9.8,1.5,10.9c-0.1,0.1-0.5,0.4-0.5,0.7c-0.5,0-1-0.1-1.6-0.2
	c-0.4,0-0.6-0.1-0.9-0.1c-3.7-0.3-7.4-0.5-11.1-0.8c-0.7,0-1.4,0.1-2.2,0.2c0,0.2,0,0.3,0,0.5c0.3,0.2,0.6,0.4,1,0.5
	c1.7,0.3,3.5,0.6,5.2,0.8c3.1,0.2,6.2,0.2,9.3,0.4c7.3,0.4,14.6,1,21.9,1.2c2.6,0.1,7,0.6,12.8-0.4c0.2,0,1.4-0.8,2.9-0.6
	c0.2,0,0.3,0.1,0.4,0.1c-0.3,3.2-0.7,6.4-1.1,9.8c-1,6.9-2.3,13.2-3.8,19c-6.7,0.7-14.2,1-22.4,0.8c-11.3-0.3-21.4-1.6-30-3.3
	c1.1-3.2,2.3-7.8,2.4-13.3c0.1-5.8-1.1-10-1.9-12.9c-0.8-2.7-1.4-4.1-1.7-4.8c-1.8-3.8-3.2-4.3-4.7-6.9c-1.3-2.2-1.1-6.1-2-13.5
	c-0.3-2.7-0.2-5.4-0.3-8.1c-0.1-3.8-0.3-7.7-0.4-11.5c-0.1-5.2,0.2-10.4-0.5-15.6c0-0.3-0.1-0.6-0.1-1c0-4.2,0.1-8.3,0-12.5
	c0-1.5-0.3-3-0.5-4.5c0.2,17.9,0.4,35.8,0.6,53.7c0.1,1.2,0.2,3,0.5,5c0.5,3.7,0.7,5.5,1.3,7.1c0.3,0.9,0.7,1.7,1,2.3
	c1.9,3.5,4.5,4.8,5.2,9.4c0,0.2,0.1,1,0.2,2.4c0.5,7.2,0.7,10.9,0.5,13.6c-0.2,2.9-0.8,7.1-3,12.3c9.8,2.9,18.3,4.3,24.7,5
	c7.8,0.8,13.6,0.8,15.3,0.7c7.4-0.1,13.7-1,18.5-1.8c1.7-14.4,2.9-25.1,3.4-29.3c0.2-1.4,0.7-2.1,1.3-2.7c2-2.1,4.9-0.8,7.1-3.1
	c0.3-0.3,0.6-1.1,1.4-2.5c0.6-1,1.3-2.6,2.3-5.2c0.1-0.1,0.1-0.3,0.2-0.4c2.2-6,3.2-12,3.2-12c2.1-12,0-13.5,1.9-23.7
	c0.7-3.7,2-9.5,2.2-13.4c0-0.7-0.1-1.5,0.3-2.4c0.7-1.7,1.7-3.4,2.4-5.1c0.3-0.6,0.4-1.3,0.6-1.9c-0.1,0-0.2-0.1-0.3-0.1
	c-1.1,2.4-2.2,4.7-3.4,7.1c-1.7,11-2.3,13.4-2.5,13.4c-0.3,0,0.8-6.7-0.4-15.4c-0.5-4-1.4-7.3-2.1-9.5c-0.2,1.1-0.2,2.1-0.1,3.1
	c0.4,3.2,1,6.4,1.2,9.6c0.2,2.8,0.2,5.6,0.2,8.4c0.1,5.3,0.3,10.7,0.1,16.1c-0.2,6-1,10.4-1.4,13c0,0-1.6,10.1-4.8,16.5
	c-0.7,1.3-1.4,3.8-3.6,4.8c-0.3,0.2-0.6,0.3-1.2,0.4c-1.5,0.4-3.6,0.9-6.4,1.5c-0.7-1.3-1.4-2.5-2.1-3.9c-1-2.1-0.7-3.1,0.7-4.8
	c1.7-2.1,3.2-4.3,4.8-6.4c1.5-2,3-4,4.5-5.9c0.3-0.4,0.6-0.9,0.9-1.3c-3.9,4.8-7.9,9.6-11.9,14.3c-1.8-2.1-2.8-4-3.5-5.3
	c-0.4-0.9-0.8-1.8-1.5-3.6c-0.6-1.6-1.1-3-1.5-3.9c-0.8-1.6-1.5-3.2-2.3-4.8c-0.7-1.5-1.1-2.8-1.9-4c-0.7-1.1-0.8-2.1-0.9-3
	c-0.1-0.7-0.3-2.8,1.6-5.7c-0.4,0.5-0.8,1.1-1.1,1.7c-0.6,1.1-1.1,2.1-1.4,3c-1.5-3-2.9-6-4.4-9.1c1-2.1,1.9-4.3,2.8-6.6
	c0.5-1.3,1-2.6,1.5-3.9c0.8-2.2,1.7-4.4,2.6-6.7c0.4-1.1,0.9-2.2,1.3-3.3c1.2-2.4,2.1-4.3,2.1-4.3c2-4.5,3.3-8.5,4.2-11.5
	c1.1-3.6,1.6-5.4,2-7.4c1-5.6,0.4-9.5,2.1-10.1c0.4-0.2,0.8,0,1.9,0.4c2.9,1.2,4.3,1.8,6.3,2.8c4,2.1,6.6,2.7,10,4.4
	c0.6,0.3,1.2,0.6,1.9,1.1c0.6,0.3,1.6,1,2.8,1.8c2.1,1.4,3.5,2.8,3.7,2.9c2.3,2.1,4.3,7.8,5.3,15.1c0.2,0.4,0.6,0.5,1,0.4
	c0.3-0.1,0.5-0.4,0.5-0.8v0c-0.3-2.8-1.2-8.6-5.5-14.2C123.7,16.1,121.3,14.1,119.5,12.9z M59.7,85.5c0.3,1.2,0.7,2.3,1.2,3.6
	C60.5,87.9,60.2,86.7,59.7,85.5z M58.5,81.1c-2.8-9.9-5.8-16.7-6-17.1c0.1,0.4,1.4,5.5,3.9,12.3c0.8,2.1,2.1,5.5,3.3,9.2
	C59.2,83.9,58.8,82.4,58.5,81.1z M149.2,98.7c-0.2-0.6-0.4-1.2-0.6-1.7c-1.4-4.3-2.9-8.5-4.4-12.8c-3.6-10.1-6.3-20.4-8.5-30.9
	c-1.4-6.7-2.9-13.5-4.4-20.2v0c-0.1-0.5-0.7-0.8-1.1-1.1c-0.2,0.5-0.6,1.1-0.5,1.5c1.8,8.1,3.8,16.2,5.5,24.3
	c2.2,10.5,1.5,8.8,7,25.7c2,6.1,3.8,11.1,5.2,14.6c-1.5-1.6-3.8-3.9-6.8-6.4c-2.2-1.9-2.7-1.6-3.7-3c-2.9-3.7-5.6-7.5-8.2-11.4
	c-2-3-3.8-6.2-4.7-9.9c-0.2-0.8-0.7-1.4-1.1-2.1c-0.2,0-0.3,0.1-0.5,0.1c1.8,6.7,3.3,11.6,3.7,12.7c0.3,0.8,0.7,1.7,0.7,1.7
	c0.1,0.4,0.3,0.8,0.5,1.3c0.5,1.2,1,2.5,1.7,3.9c1,2.3,2.1,4.5,3.1,6.8c1.1,2.2,2,4.5,3.2,6.7c1.1,2.1,2.4,4.1,3.7,6.2
	c-1.5-3.7-3.4-7.2-5-10.8c-1.6-3.6-3.6-7-4.1-11.1c1,0.8,1.8,1.8,2.5,2.8c2,2.9,3.9,5.9,7.2,7.2c2.6,1.1,4.9,2.6,6.3,5.4
	c0.3,0.6,0.7,1.2,1.1,1.7c0.6,0.8,1.4,0.4,1.9-0.1c0,0,0,0,0,0C149.2,99.6,149.3,99,149.2,98.7L149.2,98.7z M59.7,85.5
	c0.3,1.2,0.7,2.3,1.2,3.6C60.5,87.9,60.2,86.7,59.7,85.5z M58.5,81.1c-2.8-9.9-5.8-16.7-6-17.1c0.1,0.4,1.4,5.5,3.9,12.3
	c0.8,2.1,2.1,5.5,3.3,9.2C59.2,83.9,58.8,82.4,58.5,81.1z"/>
<linearGradient id="SVGID_4_" gradientUnits="userSpaceOnUse" x1="-11.2481" y1="21.8889" x2="6.481" y2="37.1289" gradientTransform="matrix(1 0 0 -1 0 191)">
	<stop  offset="0.49" style="stop-color:#9A7E69"/>
	<stop  offset="1" style="stop-color:#B0A091"/>
</linearGradient>
<path class="st6" d="M-9.2,177.2c-1.9-0.6-3.7-1.2-5.6-1.9c0,0,16.6-24.8,15.8-30.6c1.8,1.2,3.5,2.4,5.3,3.5c-0.7,1.7-1.7,4.3-3,7.6
	c-2.3,5.6-3.2,7.5-4.6,11.1c-1,2.5-2.4,6.2-4,10.9C-6.6,177.6-7.9,177.4-9.2,177.2z"/>
<linearGradient id="SVGID_5_" gradientUnits="userSpaceOnUse" x1="232.4809" y1="243.4089" x2="246.5109" y2="255.4689" gradientTransform="matrix(0.2265 -0.974 -0.974 -0.2265 320.7682 422.4087)">
	<stop  offset="0.49" style="stop-color:#9A7E69"/>
	<stop  offset="1" style="stop-color:#B0A091"/>
</linearGradient>
<path class="st7" d="M138.9,145.5c-2.3-3.7-4.8-7.6-7.4-11.4c-2.1-3.1-4.1-6-6.2-8.9c0.6-2.3,1.3-3.6,2.1-3.7
	c1.4-0.2,3.2,2.7,5.5,8.7L138.9,145.5L138.9,145.5z"/>
<image style="overflow:visible;enable-background:new    ;" width="83" height="106" xlink:href="1F397C63.png"  transform="matrix(1 0 0 1 110 107.58)">
</image>
<path d="M31.4,113c-0.6,2.1-1,3.8-1.8,6.2c-1.5,4.8-3.1,9.6-4.6,14.5c-1.4,4.4-3.5,8.3-7.3,10.4c-3.1,1.7-6.4,2.9-9.6,4.4
	c-0.2,0.1-0.6,0.1-0.8-0.1c-1.7-1.2-3.4-2.4-5.6-4.1c1.7-1.9,3.4-3.8,5.1-5.7c1.5-1.8,3.1-3.7,4.8-5.5c1.2-1.3,2.5-2.6,3.7-3.8
	c0.2-0.5,0.5-1.1,0.7-1.6c-0.2,0.1-0.5,0.1-0.7,0.3c-1.9,1.8-3.8,3.5-5.6,5.4c-2.5,2.7-5,5.5-7.3,8.4c-1,1.3-2,1.6-3.5,1.4
	c1.5-7.8,2.2-11.7,2-11.8c-0.2,0-1.1,3.7-2.9,11c-0.8-0.4-2-0.9-3.6-1.3c-3.1-1-3.5-0.3-4.5-1c-3.2-2.5-2.1-6.3-4.8-10.4
	c-0.3-0.4-1.1-1.6-1.2-3.2c0-0.9,0.2-1.7,0.3-2.2c0.9-3,1.5-4.8,2.3-6.2c2.3-4,5.6-4,9.9-8.4c2.7-2.7,4-5.4,6.7-10.8
	c0.8-1.6,1.6-3.3,2.2-4.8c1.1-2.7,1.8-4.8,1.6-4.9c-0.1-0.1-0.4,0.3-0.8,0.9c-1.1,1.6-3,5.1-4.5,8.1c-1.6,3.2-1.7,4-2.5,5.5
	c-4.6,9.2-13.1,10.4-16.2,18c-0.5,1.2-1.4,3.7-0.6,6.2c0.3,1,0.8,1.9,1.6,2.8c0.9,1,1.9,2.4,1.9,3.6c0,2.5,0.1,4.7,2.1,6.8
	c-1.9,4.7-3.8,9.4-5.7,14.1c-0.9,2.2-1.6,4.5-2.4,6.7c-1.2,3-2.4,6-3.5,9c2,1.3,4.3,2.7,7.2,4c4.6,2.1,8.8,3.1,12.1,3.6
	c4.2-11.4,7.3-19.7,8.4-23.3c0.2-0.7,0.6-2,1.8-3.2c1.3-1.4,2.3-1.3,5.6-2.8c1.2-0.5,2.7-1.3,4.6-2.4c2.4-1.4,3.7-2,4.8-3
	c3.1-2.8,4.8-6.4,5.8-9.8c3-9.8,10.3-40.2,9.3-40.3C35.5,93.8,34.4,97.4,31.4,113z M5.3,149.5c-2,5.1-4,10.3-6,15.5
	c-1.6,4.1-3.2,8.2-4.7,12.3c-2.8-0.5-6.4-1.4-10.2-3.1c-2.4-1.1-4.5-2.3-6.3-3.4c3.9-9.8,7.8-19.7,11.7-29.5c1,0.4,2,0.8,3,1.2
	c1.2,0.5,1.8,0.7,3.3,1.3c5.6,2.2,3.7,1.6,6.5,2.7c1.4,0.5,2.3,0.8,2.7,1.8C5.4,148.7,5.4,149.2,5.3,149.5z"/>
<path d="M160.2,127c-1.1-6.2-8.4-24.2-11.6-30.1c-0.7-1.2-1.1-1.9-1.3-1.8c-0.2,0.1,0.4,1.7,1.6,4.8c0.5,1.3,1.1,2.8,1.8,4.7
	c1.3,3.2,5,12.4,6.7,18.2c0.4,1.4,0.6,3.1,1,6.5c0.1,0.5,0.1,1.3-0.1,2.2c-0.4,1.6-1.4,2.5-1.8,2.9c-3.6,3.4-3.2,7.4-6.9,9.2
	c-1.1,0.6-1.3-0.2-4.6,0.1c-1.6,0.1-2.9,0.4-3.8,0.6c-0.2-7.6-0.4-11.4-0.6-11.4c-0.2,0-0.3,4-0.5,11.9c-1.5,0-2.4-0.6-3.1-2.1
	c-1.6-3.3-3.5-6.6-5.4-9.7c-1.3-2.2-2.9-4.3-4.3-6.5c-0.1-0.2-0.4-0.3-0.6-0.4c0.1,0.6,0.3,1.1,0.4,1.7c0.9,1.4,1.9,2.9,2.8,4.5
	c1.3,2.2,2.5,4.3,3.6,6.4c1.2,2.2,2.5,4.4,3.8,6.6c-2.5,1.1-4.4,2-6.3,2.8c-0.2,0.1-0.6,0.1-0.8-0.1c-2.9-2.1-5.9-3.9-8.5-6.3
	c-3.3-2.9-4.6-7.2-5-11.7c-0.5-5-1.1-10.1-1.5-15.1c-0.2-2.6-0.2-3.3-0.4-5.4c-0.8-11.3-1.3-18.6-1.7-18.6c-0.1,0-0.1,0.1-0.2,0.4
	c-0.5,3.6,1.5,30.8,2.2,38.9c0.2,2.7,1,7.1,3.7,10.8c0.9,1.2,1.9,2.1,4,3.9c1.7,1.5,3,2.5,4.1,3.3c2.9,2.1,4,2.3,4.9,3.9
	c0.9,1.5,1,3,1.1,3.5c0.3,2.9,2.1,9.7,8.2,26c5.2-1.6,10.4-3.2,15.6-4.9c-0.4-3.2-1.1-6.3-1.6-9.5c-0.4-2.4-0.6-4.7-1-7.1
	c-0.9-5-1.8-10-2.6-15c2.3-1.6,2.9-3.8,3.4-6.2c0.3-1.2,1.5-2.4,2.6-3.2c0.9-0.8,1.6-1.6,2.1-2.5C160.7,130.9,160.5,128.4,160.2,127
	L160.2,127z M155.1,176.9c-4.6,1.1-9.2,2.2-13.7,3.4c-1-3.1-9.1-27.8-8.8-30.6c0.1-0.9,0.5-1.5,0.5-1.5c0.7-0.9,1.9-1,3-1.1
	c2.3-0.3,4.6-0.9,6.9-1.3c1.6-0.2,2.2-0.3,3.4-0.6c1.1-0.2,2.2-0.4,3.2-0.6C151.4,155.7,153.2,166.3,155.1,176.9L155.1,176.9z"/>
<path d="M111.7,74.6L111.7,74.6L111.7,74.6z"/>
<path d="M111.4,75L111.4,75L111.4,75z"/>
<linearGradient id="SVGID_6_" gradientUnits="userSpaceOnUse" x1="-3.1315" y1="52.7018" x2="1.8085" y2="56.9518" gradientTransform="matrix(1 0 0 -1 0 191)">
	<stop  offset="0.49" style="stop-color:#9A7E69"/>
	<stop  offset="1" style="stop-color:#B0A091"/>
</linearGradient>
<path class="st8" d="M-2,142.5c0,0-3-12.8,2.9-11L-2,142.5z"/>
<linearGradient id="SVGID_7_" gradientUnits="userSpaceOnUse" x1="61.8208" y1="110.685" x2="82.08" y2="110.685" gradientTransform="matrix(1 0 0 -1 0 191)">
	<stop  offset="0" style="stop-color:#B0A091"/>
	<stop  offset="0.45" style="stop-color:#9B806B"/>
	<stop  offset="1" style="stop-color:#9A7E69"/>
</linearGradient>
<path class="st9" d="M82.1,101.9c0,0-24.5-34.9-19.6-43.1L82.1,101.9z"/>
<path class="st10" d="M47.9,104.7c0,0,4.3,7.3,0,20.9c0.7,0.1,1.5,0.1,2.4-0.2c3.4-1.4,4.2-7.4,3.5-11.2
	C53,108.9,49.2,105.7,47.9,104.7z"/>
</svg>
