<svg width="90" height="46" viewBox="0 0 90 46" fill="none" xmlns="http://www.w3.org/2000/svg">
<path d="M0 11.6C0.2 12.1 2.8 19.8 10.1 22.7C11.1 23.1 14.7 24.5 18.9 23.6C21.4 23.1 23.1 22 23.6 21.6C28.3 18.6 40.7 14.9 50.3 15.7C66.1 16.9 77.5 30.2 83.3 37.6C86.7 41.8 88.8 45.2 89.2 45.8C88.9 45.3 86.9 41.3 83.6 36C83.3 35.5 83 35.1 82.7 34.6C76.2 24.7 71.6 19.9 69.7 18.4C69.3 18.1 69 17.9 68.5 17.4C66 15.3 65.7 14.8 65.5 14.4C65.2 13.7 65.2 13.3 65.1 11.6C65.1 10.4 65 8.6 64.8 6.4L64.3 14.1C63.5 13.7 62.3 13.1 60.8 12.5C54.8 10 52.5 10.3 51.1 8.5C50.1 7.3 49.4 4.9 51.1 0C50.9 0.4 49 4.6 50.5 10.2C49.4 10.4 43.5 11.2 38.5 7.1C35.9 5 34.6 2.4 34.1 1C34.7 3.7 36.3 7.8 40.6 10.8C39.9 10.9 34.9 11.6 31.4 8.1C30 6.7 29.3 5.2 29 4.2C29 4.2 27.7 6.1 33.1 11.1C33.1 11.1 29.3 13 23.3 2.4C23.4 2.8 25.1 8.9 29.5 11.7C29.5 11.7 22.5 15.5 16.5 5.4C16.7 6 18.6 11 22.3 13.1C22.3 13.1 16 14 11.9 5.5C12.3 6.4 15.3 13.6 19.9 14.3C19.9 14.3 15.7 16.9 9.7 7.9C10.1 8.7 13.1 14.7 16.6 15.5C16.6 15.5 10.6 19.3 2.3 7.6C2.8 8.5 7.3 15.4 9.9 17.1C9.5 17 3 18.9 0 11.6Z" fill="#211310"/>
</svg>
