<?xml version="1.0" encoding="UTF-8"?>
<svg id="_Слой_1" data-name="Слой 1" xmlns="http://www.w3.org/2000/svg" xmlns:xlink="http://www.w3.org/1999/xlink" viewBox="0 0 42 66">
  <defs>
    <style>
      .cls-1 {
        fill: url(#_Безымянный_градиент_4);
      }

      .cls-1, .cls-2, .cls-3, .cls-4, .cls-5 {
        stroke-width: 0px;
      }

      .cls-2 {
        fill: url(#_Безымянный_градиент_2);
      }

      .cls-3 {
        fill: url(#_Безымянный_градиент_4-3);
      }

      .cls-4 {
        fill: url(#_Безымянный_градиент_4-2);
      }

      .cls-5 {
        fill: #a38c7a;
      }
    </style>
    <linearGradient id="_Безымянный_градиент_4" data-name="Безымянный градиент 4" x1="21" y1="29.35" x2="21" y2="6.86" gradientTransform="translate(0 68) scale(1 -1)" gradientUnits="userSpaceOnUse">
      <stop offset="0" stop-color="#f8ebdc"/>
      <stop offset=".27" stop-color="#fefdf5"/>
      <stop offset=".57" stop-color="#fff"/>
      <stop offset=".81" stop-color="#fefdf5"/>
      <stop offset="1" stop-color="#f8ebdc"/>
    </linearGradient>
    <linearGradient id="_Безымянный_градиент_2" data-name="Безымянный градиент 2" x1="21" y1="28.74" x2="21" y2="7.48" gradientTransform="translate(0 68) scale(1 -1)" gradientUnits="userSpaceOnUse">
      <stop offset="0" stop-color="#601b1c"/>
      <stop offset="1" stop-color="#2f1515"/>
    </linearGradient>
    <linearGradient id="_Безымянный_градиент_4-2" data-name="Безымянный градиент 4" x1="21" y1="47.09" x2="21" y2="2" xlink:href="#_Безымянный_градиент_4"/>
    <linearGradient id="_Безымянный_градиент_4-3" data-name="Безымянный градиент 4" x1="20.99" y1="50" x2="20.99" y2="46.73" xlink:href="#_Безымянный_градиент_4"/>
  </defs>
  <path class="cls-5" d="M21,38.65c-6.1,0-11.05,5.03-11.05,11.24s4.95,11.24,11.05,11.24,11.05-5.03,11.05-11.24-4.95-11.24-11.05-11.24ZM21,39.26c-5.77,0-10.44,4.76-10.44,10.63s4.68,10.63,10.44,10.63,10.45-4.76,10.45-10.63-4.68-10.63-10.45-10.63Z"/>
  <path class="cls-1" d="M21,38.65c-6.1,0-11.05,5.03-11.05,11.24s4.95,11.24,11.05,11.24,11.05-5.03,11.05-11.24-4.95-11.24-11.05-11.24ZM21,39.26c-5.77,0-10.44,4.76-10.44,10.63s4.68,10.63,10.44,10.63,10.45-4.76,10.45-10.63-4.68-10.63-10.45-10.63Z"/>
  <path class="cls-2" d="M31.44,49.89c0,5.87-4.68,10.63-10.45,10.63s-10.44-4.76-10.44-10.63,4.68-10.63,10.44-10.63,10.45,4.76,10.45,10.63Z"/>
  <path class="cls-4" d="M34.37,52.1l-10.28-29.69c-.31-.89-1.14-1.49-2.07-1.49h-2.03c-.93,0-1.76.6-2.07,1.49l-10.29,29.69c-.29.83-.07,1.76.56,2.37l11.3,10.92c.85.82,2.18.82,3.03,0l11.3-10.92c.63-.61.85-1.54.56-2.37ZM32.75,54l-10.35,10.37c-.78.78-2,.78-2.77,0l-10.35-10.37c-.58-.58-.78-1.46-.51-2.25l9.42-28.2c.28-.85,1.05-1.42,1.9-1.42h1.86c.85,0,1.62.57,1.9,1.42l9.42,28.2c.26.79.06,1.67-.51,2.25Z"/>
  <rect class="cls-3" x="20.37" y="18" width="1.25" height="3.27"/>
</svg>