<?xml version="1.0" encoding="utf-8"?>
<!-- Generator: Adobe Illustrator 25.0.1, SVG Export Plug-In . SVG Version: 6.00 Build 0)  -->
<svg version="1.1" id="Слой_1" xmlns="http://www.w3.org/2000/svg" xmlns:xlink="http://www.w3.org/1999/xlink" x="0px" y="0px"
	 viewBox="0 0 65 58" style="enable-background:new 0 0 65 58;" xml:space="preserve">
<style type="text/css">
	.st0{fill:url(#SVGID_1_);}
	.st1{fill:url(#SVGID_2_);}
	.st2{fill:url(#SVGID_3_);}
	.st3{fill:url(#SVGID_4_);}
	.st4{fill:url(#SVGID_5_);}
	.st5{fill:url(#SVGID_6_);}
	.st6{fill:url(#SVGID_7_);}
	.st7{fill:url(#SVGID_8_);}
	.st8{fill:url(#SVGID_9_);}
	.st9{fill:url(#SVGID_10_);}
	.st10{fill:url(#SVGID_11_);}
	.st11{fill:url(#SVGID_12_);}
</style>
<g>
	
		<linearGradient id="SVGID_1_" gradientUnits="userSpaceOnUse" x1="41.4534" y1="31.0839" x2="55.0464" y2="40.9271" gradientTransform="matrix(1 0 0 -1 0 59)">
		<stop  offset="0" style="stop-color:#222221"/>
		<stop  offset="1" style="stop-color:#50504D"/>
	</linearGradient>
	<path class="st0" d="M53.5,13.9c-1.2,2.5-3.4,6.5-7.3,9.9c-2.3,1.9-4.4,3.1-6.2,3.9c0.2,2,0.5,4.1,0.7,6.1c2.2-1.9,4.4-4.1,6.7-6.6
		c3.1-3.3,5.7-6.5,7.8-9.6c0-0.5-0.1-1.8-0.9-2.9C54,14.4,53.7,14.1,53.5,13.9L53.5,13.9z"/>
	<g>
		
			<linearGradient id="SVGID_2_" gradientUnits="userSpaceOnUse" x1="57.9626" y1="30.831" x2="41.203" y2="38.0784" gradientTransform="matrix(1 0 0 -1 0 59)">
			<stop  offset="0" style="stop-color:#222221"/>
			<stop  offset="1" style="stop-color:#50504D"/>
		</linearGradient>
		<path class="st1" d="M41,17.9c3.3,1.9,6.7,3.8,10.2,5.6c2.5,1.4,5,2.7,7.5,4c0.1,1.3,0.1,2.6,0.2,3.9c-2.7-1.3-5.4-2.7-8.2-4.2
			c-3.8-2.1-7.4-4.1-10.9-6.2c0-0.3,0-1,0.3-1.7C40.3,18.6,40.8,18.1,41,17.9L41,17.9z"/>
	</g>
	
		<linearGradient id="SVGID_3_" gradientUnits="userSpaceOnUse" x1="59.7288" y1="21.3549" x2="38.9853" y2="28.5701" gradientTransform="matrix(1 0 0 -1 0 59)">
		<stop  offset="0" style="stop-color:#222221"/>
		<stop  offset="1" style="stop-color:#50504D"/>
	</linearGradient>
	<path class="st2" d="M40,27.7c4.1,2,8.5,3.9,13.4,5.6c2.4,0.9,4.8,1.6,7.1,2.3c0.2,1.9,0.5,3.8,0.7,5.7c-2.3-1.5-5.1-3-8.3-4.3
		c-4.6-1.9-8.8-2.8-12.2-3.2c-0.1-0.8-0.2-1.5-0.3-2.3C40.3,30.2,40.1,28.9,40,27.7L40,27.7z"/>
	<g>
		
			<linearGradient id="SVGID_4_" gradientUnits="userSpaceOnUse" x1="40.6399" y1="17.3453" x2="58.1963" y2="26.8954" gradientTransform="matrix(1 0 0 -1 0 59)">
			<stop  offset="0" style="stop-color:#222221"/>
			<stop  offset="1" style="stop-color:#50504D"/>
		</linearGradient>
		<path class="st3" d="M59,27.7c-3.8,2.3-7.7,4.6-11.5,7c-2.1,1.3-4.1,2.6-6.2,3.9c-0.2,0.9-0.3,2.1-0.2,3.5c0,1.2,0.2,2.3,0.4,3.1
			c1-1.1,2.1-2.3,3.4-3.5c1.7-1.6,3.3-3,3.9-3.6c3.8-3.2,10.5-6.9,10.8-7.1C59.4,30,59.2,28.8,59,27.7L59,27.7z"/>
	</g>
	
		<linearGradient id="SVGID_5_" gradientUnits="userSpaceOnUse" x1="46.7912" y1="59.4827" x2="46.7912" y2="37.0792" gradientTransform="matrix(1 0 0 -1 0 59)">
		<stop  offset="0" style="stop-color:#222221"/>
		<stop  offset="1" style="stop-color:#464642"/>
	</linearGradient>
	<path class="st4" d="M48.9,13.1c1.9,1.2,1.6,2.3,3.4,3.7c1.7,1.3,3.2,1.2,3.6,0.9c0.3-0.2,0.3-0.5,0.3-0.5c0-0.3-0.1-0.5-0.1-0.5
		c-0.2-0.1-0.5-0.3-0.8-0.4c-0.6-0.2-1-0.3-1.3-0.4c-1.2-0.2-2.4-0.5-2.4-0.6c0-0.1,0.8,0,2.2,0c0,0,1.4,0,2.6-0.6
		c0.2-0.1,0.5-0.2,0.5-0.5c0-0.2,0-0.5-0.2-0.6c0-0.1-0.1-0.1-0.2-0.1c-0.4-0.2-0.5-0.3-0.5-0.3c-1-0.5-2.6-0.6-2.6-0.6
		c-1.6-0.1-2.5,0.1-2.5-0.1c0-0.1,0.3-0.3,0.5-0.3c1-0.5,2.6-1.2,3.5-2c0.3-0.3,1.5-1.2,1.6-2.7c0-0.6-0.2-1.1-0.6-2.1
		c-0.9-2-1.6-2.9-2.4-4.3c0-0.1-0.5-0.9-0.8-1.2c-0.1-0.1-0.2-0.1-0.2-0.3c0-0.1,0-0.2-0.1-0.2c-0.1,0-0.1,0-0.2,0
		c-0.3,0.2-0.7,0.1-1.3,0.5c-0.6,0.4-1,0.9-1.3,1.2c-0.6,1-0.8,1.9-0.9,2.6c-0.1,1.6,0.4,2.9-0.1,3.4c-0.3,0.3-0.6,0-1.1,0.3
		C47,8,46.8,8.5,46.6,9c-0.3,0.8-0.2,1.1-0.4,1.2c-0.4,0.2-1.3-1.5-1.7-2.4c-0.5-1.2-0.5-1.5-0.9-2.1c-0.1-0.2-0.6-0.8-1.9-1.5
		c-1-0.5-3.5-1.9-4.5-0.8c-0.2,0.2-0.3,0.5-0.4,1.1c0.2,0.8,0.5,2,1,3.3c0.9,2.2,1.9,3.4,1.6,3.7c-0.4,0.4-2.8-1.6-3-1.3
		c0,0,0,0.1,0,0.2c0.1,0.4,0,0.1,0.2,1.1c0.2,0.8,0.4,1.7,0.5,1.8c0.3,1.1,0.5,1.7,0.6,2.2c0.5,1.9,0.7,2.3,0.8,2.5
		c0.7,1.7,1,2.1,1.4,2.9c0,0,0.1,0.2,0.4,0.6c0.2,0.2,0.3,0.3,0.4,0.3c0.1,0,0.2-0.1,0.2-0.2c0.7-0.9,0.5-0.3,1.2-1.5
		c0.5-0.9,0.4-0.9,1-2.1c0.3-0.5,0.5-0.9,0.7-1.3c0.4-0.7,0.6-1,0.7-1.1c0.4-0.5,0.8-0.6,1.1-1.2c0.1-0.1,0-0.1,0.2-0.5
		c0.2-0.6,0.3-0.7,0.4-0.9c0.1-0.5,0-0.6,0.1-0.7C46.8,12.2,47.9,12.5,48.9,13.1L48.9,13.1L48.9,13.1z"/>
	<path d="M45.1,10.4c0.1,1.5,0.9,2.5,1.2,2.8c0.1-0.2,0.2-0.4,0.4-0.6c0.8,0.4,1.7,0.3,2.5,1.1c1.4,1.4,2.4,3.4,4.4,4
		c0.7,0.2,1.4,0.2,2.1,0.2c0.6-0.1,0.7-0.7,0.3-1.1c-0.3-0.3-0.6-0.5-1-0.6c-0.8-0.2-1.6-0.3-2.5-0.3c0.8,0.1,1.5,0.3,2,0.4
		c0.8,0.2,1.3,0.4,1.4,0.8c0,0.1,0.1,0.2,0,0.4c-0.3,0.6-2.3,0.3-3.7-0.9c-0.4-0.4-0.7-0.8-0.8-1c0.7,0.1,1.5,0,2.5,0
		c0.8,0,1.6-0.2,2.3-0.6c-0.9,0.3-2.4,0.7-4,0.4c-1.2-0.2-1.8-0.6-2-0.8c-0.5-0.4-0.8-0.8-0.9-1.1c0.9-0.3,2.1-0.5,3.7-0.4
		c1.5,0.1,2.8,0.5,3.6,0.9c-1.6-1.5-3.5-1.1-5.5-1.2c1.1-0.6,2.1-1.1,3.2-1.7c1.2-0.6,1.9-1.3,2.1-2.2c0.1-0.2,0.2-0.8-0.1-1
		c-0.2-0.1-0.4-0.1-0.5,0c0,0.4-0.1,0.9-0.3,1.4c-0.5,1.1-1.2,1.5-2.6,2.4c-1.5,0.9-2.7,1.2-3.2,1.3c-0.3,0.1-0.5,0.1-0.6,0.1
		c-0.8-0.2-1.5-0.4-2.3-0.5c-0.3-0.1-0.5-0.2-0.6-0.4c-0.1-0.2-0.1-0.5,0-0.7c0.5-2.2,0.7-3.4,1.5-3.6c0.4-0.1,0.8,0.1,0.8,0.2
		C49,8,49.1,8.6,49.2,9.5c0.1,0.6,0.3,1.6,0.6,2.7c-0.2-1.6-0.4-2.9-0.6-3.8c-0.3-1.9-0.5-2.6-0.5-3.8c0-0.8,0.1-1.8,0.7-2.8
		c0.3-0.6,0.8-1.1,1.4-1.5c0.4-0.3,0.9-0.4,1.4-0.6c-0.9-0.3-1.5,0.2-2.1,0.6c-2.3,1.8-2.2,4.4-1.7,7.1c-0.4-0.2-0.7-0.1-0.9-0.1
		c-0.8,0.2-1.5,1.4-1.5,2.9c-0.2-0.2-0.5-0.6-0.5-1.2c-0.2-1.1,0.6-2.2,0.5-2.2c0,0-0.3,0.4-0.6,1.2C45.4,8.5,45,9.3,45.1,10.4
		L45.1,10.4z"/>
	<path d="M40.5,17.2c0-0.5,0.2-1.6,1-2.6c1-1.2,2.6-1.6,4.1-1.1c-0.2,0-2.6-0.3-3.9,1.7c-0.5,0.8-0.7,1.6-0.7,2.1
		c1.5-1.6,3.1-2.6,4.9-3.4c0,0.2,0,0.3,0,0.3c-0.1,0.2-0.2,0.3-0.3,0.4c-1.4,1.4-2.3,3-3,5c-0.2,0.4-0.4,0.8-0.6,1.2
		c-0.3,0.4-0.6,0.6-0.9,1c0,0-0.1,0-0.2,0c-0.1-0.1-0.1-0.2-0.1-0.3c0.1-0.7,0.3-1.6,0.8-2.6c0.5-1.1,1.1-1.9,1.6-2.3
		c-0.5,0.3-0.9,0.5-1.3,0.7c-0.9,0.5-1.7,0.3-2.3-0.6c-0.2-0.2-0.4-0.5-0.6-0.8c-1.3-1.8-2-3.9-2.4-6.2c0.2,1,0.5,2.4,1.4,4
		C39.6,17,42.4,16.8,40.5,17.2L40.5,17.2z M42.1,18.4c-0.2,0.3-0.5,0.8-0.7,1.3c-0.2,0.6-0.4,1.1-0.5,1.6c0,0.1,0.1,0.3,0.2,0.3
		c0.1,0,0.1,0,0.2-0.1c0.7-0.6,0.9-1.1,0.9-1.1c0.7-1.7,2.5-4.5,2.2-4.8C44.1,15.4,42.4,18,42.1,18.4z"/>
	<path d="M37,5.1c0,1.1,0.5,2.1,0.9,3.1c0.6,1.2,1.3,2.3,2,3.5c0.6,0.9,1.4,1.2,2.4,1.1c0.6,0,1.3,0,1.9-0.1
		c-0.8-0.1-1.7-0.3-2.5-0.5c-0.5-0.1-0.9-0.3-1.3-0.7c-0.1-0.1-0.4-0.4-0.4-0.9c0-0.6,0.3-1,0.4-1.1C41.1,9,41.8,9,42.3,8.9
		c0.4,0,0.9-0.1,1.2,0.3c0.2,0.2,0.3,0.5,0.4,0.8c0.2,0.4,0.5,0.9,1.3,1.4c-0.2-0.3-0.6-0.7-0.9-1.3c-0.5-0.8-0.5-1-0.8-1.3
		c-0.6-0.4-1.3-0.2-1.8-0.2c-0.2,0.1-0.6,0.1-1,0.4c-0.5,0.3-0.9,0.9-1.2,1.6c-0.7-2.1-2.2-3.7-2.3-5.9c0-0.4,0-0.9,0-1.4
		c0.5-0.1,2.5-0.6,4.5,0.7c2,1.2,2.7,3.3,2.9,3.8C44.5,7,44,5.3,42.5,4c-1.3-1.2-3.7-2.3-4.9-1.2C36.9,3.4,36.9,4.6,37,5.1L37,5.1z"
		/>
	<path d="M50.2,12c0.2-0.4,1.6-3.1,3.2-4.2c0.4-0.2,1-0.6,1.8-0.5c0.4,0.1,0.6,0.2,0.8,0.3c0.2,0,0.3,0,0.5,0.1
		c-0.5-0.5-0.9-0.7-1.2-0.8C53.6,6.5,51.6,8.5,50.2,12L50.2,12z"/>
	<path d="M52.1-0.5C52.4,1,53,1.9,53.4,2.4c0.4,0.5,0.6,0.7,1.4,1.7c0.7,0.9,1,1.5,1.1,1.5c0,0-0.7-1.5-1.7-3
		C53.4,1.4,52.6,0.3,52.1-0.5L52.1-0.5z"/>
	<path d="M39.3,19.3c0.8,1.6,1.7,2.6,1.7,2.6s-0.8-1-1.5-2.7c-0.2-0.4-0.3-0.7-1.1-3c-0.7-2.2-1-3-1-3c0,0,0.4,1.6,0.9,3.3
		C38.7,17.9,38.9,18.6,39.3,19.3L39.3,19.3z"/>
	
		<linearGradient id="SVGID_6_" gradientUnits="userSpaceOnUse" x1="51.2981" y1="20.1062" x2="51.4197" y2="3.499" gradientTransform="matrix(1 0 0 -1 0 59)">
		<stop  offset="0" style="stop-color:#222221"/>
		<stop  offset="1" style="stop-color:#50504D"/>
	</linearGradient>
	<path class="st5" d="M41.3,43.4c2.1-1.4,5.5-3.2,9.9-4c4-0.8,7.3-0.4,9.6,0c0,0,0.4,2.7,0.4,2.8c0.1,0.5,0.3,2.9-0.2,5.4
		c-0.3,1.2-0.9,3.3-2.4,5.2c-3.3,4.2-10,6-13.8,2.5c-1.4-1.4-2-3.5-2.7-6.5C41.6,46.6,41.4,44.8,41.3,43.4L41.3,43.4z M44.2,50.8
		c1.4,3.5,7.3,4.3,11.1,2.3c0.8-0.4,2.4-1.3,3.2-3.3c0.5-1.3,0.8-3.5-0.2-4.6c-0.7-0.8-1.7-0.8-5.2-0.2c-7.5,1.2-8.6,1.8-9,2.9
		C43.6,49.1,44.1,50.5,44.2,50.8L44.2,50.8z"/>
</g>
<g>
	
		<linearGradient id="SVGID_7_" gradientUnits="userSpaceOnUse" x1="24.8105" y1="32.7187" x2="8.9284" y2="37.5752" gradientTransform="matrix(1 0 0 -1 0 59)">
		<stop  offset="0" style="stop-color:#222221"/>
		<stop  offset="1" style="stop-color:#50504D"/>
	</linearGradient>
	<path class="st6" d="M10.5,15.6c1.3,2.2,3.8,5.7,7.8,8.5c2.4,1.7,4.7,2.6,6.4,3.1c0,1.8,0,3.7,0.1,5.5c-2.4-1.5-4.8-3.2-7.4-5.1
		c-3.4-2.5-6.5-5.1-9.3-7.6c0.3-1,0.7-2.2,1.6-3.4C10,16.1,10.3,15.8,10.5,15.6z"/>
	
		<linearGradient id="SVGID_8_" gradientUnits="userSpaceOnUse" x1="10.5806" y1="28.6982" x2="21.3935" y2="40.3314" gradientTransform="matrix(1 0 0 -1 0 59)">
		<stop  offset="0" style="stop-color:#222221"/>
		<stop  offset="1" style="stop-color:#50504D"/>
	</linearGradient>
	<path class="st7" d="M22.6,17.8c-2.9,2.2-5.9,4.5-9,6.7c-2.2,1.6-4.4,3.2-6.6,4.8c0.1,1.2,0.1,2.5,0.2,3.7c2.4-1.6,4.8-3.3,7.2-5.1
		c3.4-2.5,6.6-4.9,9.6-7.3c0-0.3-0.1-0.9-0.4-1.6C23.3,18.3,22.8,18,22.6,17.8z"/>
	
		<linearGradient id="SVGID_9_" gradientUnits="userSpaceOnUse" x1="6.6102" y1="17.7127" x2="22.096" y2="28.7426" gradientTransform="matrix(1 0 0 -1 0 59)">
		<stop  offset="0" style="stop-color:#222221"/>
		<stop  offset="1" style="stop-color:#50504D"/>
	</linearGradient>
	<path class="st8" d="M24.8,28.7c-4,1.6-8.1,3.4-12.3,5.4c-2.2,1-4.3,2.1-6.4,3.1c0,1.8,0,3.7-0.1,5.5c2-1.7,4.5-3.5,7.4-5.1
		c4.3-2.4,8.2-3.9,11.5-4.7c0-0.4,0-2.2,0-2.6C24.8,30.1,24.8,28.8,24.8,28.7L24.8,28.7z"/>
	
		<linearGradient id="SVGID_10_" gradientUnits="userSpaceOnUse" x1="23.7647" y1="20.0936" x2="5.4673" y2="25.1761" gradientTransform="matrix(1 0 0 -1 0 59)">
		<stop  offset="0" style="stop-color:#222221"/>
		<stop  offset="1" style="stop-color:#50504D"/>
	</linearGradient>
	<path class="st9" d="M6.7,29.3c3.7,1.8,7.4,3.6,11.1,5.4c2.3,1.1,4.5,2.2,6.8,3.2c0,2,0,4-0.1,6.1c-1.1-0.9-2.2-1.9-3.5-2.9
		c-1.7-1.3-3.1-2.3-4-2.9c-3.8-2.5-7.9-4.3-10.1-5.1C6.9,31.8,6.8,30.6,6.7,29.3L6.7,29.3z"/>
	
		<linearGradient id="SVGID_11_" gradientUnits="userSpaceOnUse" x1="17.1166" y1="57.3141" x2="17.1166" y2="35.1818" gradientTransform="matrix(1 0 0 -1 0 59)">
		<stop  offset="0" style="stop-color:#222221"/>
		<stop  offset="1" style="stop-color:#464642"/>
	</linearGradient>
	<path class="st10" d="M15.1,15.7c-1.8,1.6-1.5,2.7-3.2,4.4c-1.7,1.6-3.2,1.7-3.6,1.5c-0.3-0.2-0.4-0.4-0.4-0.4
		c-0.1-0.3,0-0.5,0.1-0.6c0.2-0.2,0.4-0.4,0.8-0.6c0.6-0.3,1-0.5,1.4-0.6c1.2-0.4,2.4-0.9,2.4-0.9c0-0.1-0.8,0.2-2.3,0.3
		c0,0-1.4,0.2-2.8-0.2c-0.2-0.1-0.5-0.2-0.6-0.4c-0.1-0.2,0-0.5,0.1-0.7c0-0.1,0.1-0.1,0.2-0.2c0.4-0.3,0.5-0.4,0.5-0.4
		c1-0.7,2.7-1,2.7-1c1.6-0.3,2.6-0.3,2.6-0.5c0-0.1-0.4-0.2-0.5-0.3c-1.1-0.4-2.9-0.9-3.9-1.6c-0.4-0.2-1.7-1.1-1.9-2.6
		C6.5,10.2,6.7,9.6,7,8.5c0.7-2.3,1.4-3.3,2-4.9c0-0.1,0.4-1.1,0.7-1.3C9.8,2.2,9.9,2.1,10,1.9c0-0.1,0-0.2,0.1-0.2c0,0,0.1,0,0.2,0
		c0.3,0.1,0.7,0,1.5,0.4c0.7,0.3,1.2,0.8,1.5,1.1c0.7,1,1,1.9,1.2,2.7c0.3,1.7-0.1,3.1,0.5,3.5c0.4,0.3,0.7-0.1,1.2,0.2
		c0.5,0.3,0.8,0.8,1,1.3c0.4,0.8,0.3,1.1,0.5,1.2c0.4,0.1,1.2-1.7,1.5-2.8c0.4-1.3,0.3-1.6,0.7-2.4C19.9,6.7,20.3,6,21.6,5
		c1-0.7,3.5-2.5,4.6-1.4c0.2,0.2,0.4,0.5,0.5,1.1c-0.1,0.9-0.3,2.2-0.7,3.7c-0.7,2.4-1.6,3.8-1.3,4.1c0.4,0.4,2.7-2.1,3-1.8
		c0,0,0,0.1,0,0.2c-0.1,0.4,0,0.1-0.1,1.2c-0.1,0.8-0.3,1.8-0.3,2c-0.2,1.2-0.3,1.8-0.4,2.4c-0.4,2.1-0.5,2.5-0.6,2.8
		c-0.5,1.9-0.9,2.3-1.1,3.3c0,0-0.1,0.3-0.3,0.7c-0.2,0.3-0.2,0.4-0.4,0.4c-0.1,0-0.2-0.1-0.3-0.1c-0.8-0.8-0.6-0.2-1.4-1.4
		c-0.6-0.9-0.5-0.9-1.3-2.1c-0.3-0.5-0.6-0.9-0.9-1.2c-0.5-0.6-0.7-1-0.8-1.1c-0.5-0.4-0.9-0.5-1.3-1.1c-0.1-0.1,0-0.1-0.2-0.5
		c-0.3-0.6-0.4-0.7-0.5-1c-0.2-0.5-0.1-0.6-0.2-0.7C17.2,14.3,16.1,14.8,15.1,15.7L15.1,15.7L15.1,15.7z"/>
	<path d="M18.8,12.3c0,1.6-0.7,2.7-1,3.1c-0.1-0.2-0.3-0.4-0.5-0.6c-0.8,0.5-1.8,0.6-2.5,1.5c-1.3,1.7-2.2,4-4.2,4.9
		c-0.7,0.3-1.4,0.5-2.1,0.5c-0.6,0-0.8-0.6-0.4-1.2c0.3-0.3,0.6-0.7,1-0.8c0.8-0.3,1.7-0.6,2.6-0.7c-0.8,0.3-1.5,0.5-2.1,0.7
		c-0.8,0.3-1.3,0.6-1.4,1c0,0.1,0,0.3,0,0.4c0.4,0.6,2.5,0,3.7-1.4c0.4-0.5,0.6-0.9,0.7-1.2C12,18.7,11,18.8,10,18.9
		c-0.8,0.1-1.7,0-2.5-0.3c1,0.2,2.6,0.4,4.2-0.1c1.2-0.4,1.8-0.9,2-1.2c0.4-0.5,0.7-1,0.8-1.3c-0.9-0.2-2.3-0.3-3.9,0.1
		c-1.6,0.3-2.8,0.9-3.6,1.4c1.5-1.8,3.6-1.7,5.6-2.1c-1.2-0.5-2.4-0.9-3.5-1.3c-1.3-0.5-2.1-1.1-2.4-2c-0.1-0.2-0.3-0.8-0.1-1.1
		c0.1-0.2,0.4-0.1,0.5-0.1c0.1,0.4,0.2,0.9,0.5,1.5c0.6,1,1.4,1.4,3,2.1c1.7,0.8,3,0.9,3.5,0.9c0.3,0,0.5,0,0.7,0
		c0.8-0.3,1.6-0.6,2.3-0.8c0.3-0.1,0.5-0.3,0.6-0.5c0.1-0.3,0-0.6,0-0.7c-0.7-2.3-1.1-3.5-2-3.6c-0.4,0-0.8,0.3-0.8,0.3
		c-0.4,0.4-0.5,1-0.5,2c-0.1,0.7-0.2,1.7-0.3,3c0-1.7,0.1-3.1,0.2-4.1c0.1-2.1,0.3-2.8,0.1-4.2c-0.1-0.8-0.3-1.9-1.1-2.9
		c-0.4-0.5-0.9-1-1.6-1.4c-0.4-0.2-0.9-0.3-1.5-0.4c0.9-0.4,1.6,0,2.2,0.4c2.6,1.6,2.8,4.4,2.5,7.3c0.4-0.2,0.7-0.2,0.9-0.2
		c0.9,0.1,1.7,1.2,1.9,2.8c0.2-0.3,0.4-0.7,0.4-1.3c0-1.2-0.8-2.2-0.8-2.2c0,0,0.4,0.4,0.8,1.2C18.3,10.3,18.7,11.1,18.8,12.3
		L18.8,12.3z"/>
	<path d="M24.3,18.8c-0.1-0.5-0.4-1.7-1.3-2.6c-1.2-1.2-2.8-1.4-4.4-0.6c0.2,0,2.6-0.7,4.2,1.2c0.6,0.8,0.9,1.6,1,2.2
		c-1.7-1.5-3.5-2.3-5.5-2.9c0,0.2,0,0.3,0,0.4c0.1,0.2,0.2,0.3,0.3,0.4c1.6,1.2,2.7,2.9,3.6,4.9c0.2,0.4,0.5,0.8,0.8,1.2
		c0.3,0.3,0.7,0.6,1.1,0.9c0,0,0.1,0,0.2-0.1c0.1-0.1,0.1-0.2,0.1-0.3c-0.2-0.7-0.5-1.7-1.1-2.7c-0.6-1.1-1.4-1.8-1.9-2.3
		c0.5,0.2,1,0.4,1.4,0.6c1,0.4,1.8,0.1,2.4-0.9c0.2-0.3,0.4-0.6,0.5-0.9c1.2-2.1,1.7-4.4,1.8-6.9c-0.1,1.1-0.3,2.7-1,4.4
		C25.2,18.5,22.3,18.6,24.3,18.8L24.3,18.8z M22.7,20.3c0.3,0.3,0.6,0.7,0.9,1.3c0.3,0.6,0.5,1.2,0.6,1.6c0,0.2,0,0.3-0.1,0.3
		c-0.1,0-0.1,0-0.2,0c-0.8-0.5-1-1-1-1c-0.9-1.7-3.1-4.4-2.8-4.7C20.4,17.4,22.4,19.9,22.7,20.3L22.7,20.3z"/>
	<path d="M26.7,5.5c0.1,1.2-0.2,2.3-0.6,3.5c-0.4,1.4-1.1,2.6-1.7,3.9c-0.5,1.1-1.3,1.5-2.4,1.6c-0.7,0.1-1.3,0.2-2,0.2
		c0.8-0.3,1.7-0.5,2.5-0.9c0.4-0.2,0.9-0.5,1.2-0.9c0.1-0.2,0.3-0.5,0.3-1c0-0.6-0.4-1-0.6-1.1c-0.6-0.6-1.4-0.5-1.9-0.5
		c-0.4,0-0.9,0.1-1.3,0.5c-0.2,0.3-0.2,0.5-0.3,0.9c-0.1,0.5-0.4,1.1-1.2,1.7c0.2-0.3,0.5-0.8,0.8-1.5c0.4-0.9,0.4-1.2,0.7-1.5
		c0.5-0.5,1.3-0.5,1.8-0.4c0.3,0,0.6,0,1,0.3c0.5,0.3,1,0.8,1.4,1.5c0.5-2.3,1.8-4.2,1.7-6.6c0-0.5-0.1-1-0.2-1.4
		c-0.5-0.1-2.6-0.2-4.6,1.4c-2,1.6-2.5,3.9-2.6,4.4c0.1-1,0.5-2.8,1.9-4.4c1.2-1.4,3.6-3,5-2C26.5,3.6,26.6,4.9,26.7,5.5L26.7,5.5
		L26.7,5.5z"/>
	<path d="M13.6,14.6c-0.2-0.4-2-3.1-3.8-4c-0.4-0.2-1.1-0.5-1.9-0.3c-0.4,0.1-0.6,0.3-0.8,0.4c-0.2,0-0.3,0.1-0.5,0.1
		c0.4-0.6,0.8-0.8,1.2-1C9.5,9.2,11.9,11.1,13.6,14.6L13.6,14.6z"/>
	<path d="M10.3,1.7C10.1,3.2,9.7,4.3,9.3,5C8.9,5.6,8.7,5.8,8,7C7.4,8.1,7.1,8.7,7.1,8.7c0,0,0.6-1.7,1.4-3.4
		C9.2,3.8,9.9,2.6,10.3,1.7L10.3,1.7z"/>
	<path d="M25.8,20.8c-0.6,1.8-1.4,3-1.5,3c0,0,0.7-1.2,1.3-3.1c0.1-0.4,0.2-0.8,0.8-3.3c0.5-2.4,0.7-3.3,0.7-3.3
		c0,0-0.3,1.8-0.6,3.6C26.3,19.3,26.1,20,25.8,20.8L25.8,20.8z"/>
	
		<linearGradient id="SVGID_12_" gradientUnits="userSpaceOnUse" x1="15.372" y1="19.475" x2="15.4818" y2="4.0517" gradientTransform="matrix(1 0 0 -1 0 59)">
		<stop  offset="0" style="stop-color:#222221"/>
		<stop  offset="1" style="stop-color:#50504D"/>
	</linearGradient>
	<path class="st11" d="M24.8,42.2c-2.1-1-5.4-2.4-9.7-2.6c-3.8-0.2-6.9,0.5-9,1.2c0,0-0.1,2.6-0.1,2.7c0,0.5,0,2.8,0.7,5.2
		c0.4,1.2,1.1,3.1,2.7,4.7c3.5,3.6,9.9,4.5,13.1,0.6c1.2-1.5,1.5-3.6,1.9-6.5C24.8,45.3,24.8,43.5,24.8,42.2L24.8,42.2z M22.8,49.6
		c-1,3.5-6.4,5-10.2,3.6c-0.8-0.3-2.4-0.9-3.3-2.7C8.7,49.3,8.2,47.2,9,46c0.6-0.9,1.5-0.9,4.9-0.9c7.1,0.2,8.2,0.6,8.7,1.6
		C23.2,47.9,22.9,49.3,22.8,49.6z"/>
</g>
</svg>
