<svg width="95" height="283" viewBox="0 0 95 283" fill="none" xmlns="http://www.w3.org/2000/svg">
<path d="M38.1342 279.061C33.7418 280.676 26.5036 282.706 17.4371 282.413C10.1586 282.177 4.26562 280.527 0.28717 279.061V187.993C4.42085 188.563 8.89949 188.988 13.6886 189.178C22.8413 189.54 31.0742 188.959 38.1285 187.993V279.061H38.1342Z" fill="url(#paint0_linear_180_3597)"/>
<path d="M19.2078 189.77C29.6574 189.77 38.1285 189.108 38.1285 188.292C38.1285 187.476 29.6574 186.815 19.2078 186.815C8.75824 186.815 0.28717 187.476 0.28717 188.292C0.28717 189.108 8.75824 189.77 19.2078 189.77Z" fill="#181818"/>
<path d="M13.6885 186.809V73.0782C13.6885 73.0782 14.5739 69.5309 14.6716 64.4026H22.9907C22.9907 64.4026 21.2602 69.6286 22.9907 72.6815V186.861L13.6827 186.815L13.6885 186.809Z" fill="url(#paint1_linear_180_3597)"/>
<path d="M21.3466 66.4379H15.3731C15.3559 66.3919 15.3386 66.3459 15.3214 66.2999C13.5736 66.1217 11.8316 65.9435 9.90562 65.7422C10.2908 65.6503 10.5093 65.5928 10.8715 65.5065C10.4058 65.3915 10.0609 65.2996 9.7159 65.2133C9.7274 65.1213 9.73315 65.0293 9.74465 64.9374C11.3889 65.1041 13.0332 65.2708 14.6717 65.4375C14.6832 65.38 14.6947 65.3283 14.7005 65.2708C13.4701 64.9316 12.2398 64.5867 11.0037 64.2475C12.6997 63.937 14.3785 64.7994 16.0803 64.0692C14.4073 63.7588 12.74 63.4483 11.067 63.1321C11.1819 63.0459 11.3027 62.9539 11.5326 62.7871C10.8427 62.7412 10.2678 62.7009 9.6814 62.6607C9.71015 62.3042 9.62966 61.9248 9.77914 61.6833C9.96886 61.3671 10.3081 60.9876 10.6358 60.9302C11.4694 60.7692 12.3318 60.7692 13.3437 60.6944C12.8895 60.522 12.5848 60.4012 12.2743 60.2805C12.2858 60.2173 12.303 60.154 12.3203 60.0908C13.5564 60.3035 14.7982 60.5105 16.04 60.7174C16.0573 60.6197 16.0688 60.5277 16.086 60.43C15.5916 60.3495 15.0972 60.2747 14.3843 60.1598C14.7407 59.97 14.9017 59.8838 15.0627 59.7976C15.0742 59.6998 15.0799 59.6021 15.0914 59.5043C13.3609 59.3434 11.6304 59.1881 9.89412 59.0272C10.1816 58.9869 10.4863 58.9409 10.9922 58.8662C10.4805 58.412 10.0666 58.0498 9.58942 57.6301C10.2621 56.6297 11.2912 57.2507 12.1248 57.1472C13.0044 57.0437 13.9128 57.1242 14.8614 56.9345C13.7921 56.6125 12.7227 56.2963 11.6534 55.9743C11.6591 55.9398 11.6649 55.8996 11.6706 55.8651H14.9937C14.9937 55.8019 14.9994 55.7444 15.0052 55.6811C13.7346 55.6064 12.464 55.5719 11.1992 55.4282C10.7393 55.3764 10.2678 55.1062 9.89412 54.813C9.72165 54.675 9.75614 54.2553 9.7274 53.9564C9.7044 53.7206 9.72165 53.4849 9.72165 53.1917C10.6473 53.094 11.6189 52.9847 12.8262 52.8583C12.3605 52.6743 12.1191 52.5765 11.6304 52.3811C12.5043 52.2661 13.1022 52.1799 13.9243 52.0706C12.7342 51.7774 11.7569 51.4784 10.7565 51.3232C10.0609 51.214 9.53192 50.8633 9.65266 50.2596C9.7159 49.9377 10.4748 49.5927 10.9462 49.541C11.9696 49.4317 13.0159 49.5065 14.0853 49.426C13.4471 49.311 12.8147 49.196 12.0731 49.0638C13.1942 48.1554 14.2808 49.3857 15.3559 49.0005C14.3325 48.1497 12.1651 47.5345 9.65266 47.3793C9.87688 46.9193 9.25021 46.1259 10.3081 46.0742C10.9175 46.0454 11.5269 46.0684 12.3548 46.0684C11.7339 45.7925 11.3257 45.6085 10.9117 45.4303C10.929 45.3613 10.9462 45.2923 10.9635 45.2233C11.5901 45.1601 12.2111 45.0566 12.8377 45.0393C13.4356 45.0221 14.0393 45.0968 14.8959 45.1371C13.9301 43.6595 12.6365 44.1655 11.3602 43.9872C11.6879 43.8722 11.8661 43.809 12.0443 43.7458C12.0443 43.6998 12.0443 43.6538 12.0443 43.6078C11.3314 43.556 10.6185 43.51 9.91712 43.4583C9.87688 42.6304 10.538 41.8715 11.4694 41.6933C12.7975 41.4403 14.137 41.2276 15.4709 40.8999C14.8499 40.8539 14.229 40.8137 13.6081 40.7677C13.6081 40.7044 13.6081 40.6354 13.6081 40.5722C14.137 40.5377 14.6602 40.5032 15.1891 40.4687C13.6081 39.7673 11.9466 39.6408 10.2678 39.7558C10.1835 39.1081 10.494 38.7459 11.1992 38.6692C10.9002 38.583 10.6185 38.5082 10.3426 38.4277C10.3426 38.3587 10.3368 38.2898 10.3311 38.2208C12.1306 37.7896 13.9243 37.3584 15.7238 36.9272C15.7411 36.8467 15.7641 36.7662 15.7871 36.6915C14.0853 36.3465 12.3893 35.9958 10.6358 35.6336C10.6358 35.6451 10.7508 35.4439 10.699 35.3404C10.3368 34.6678 10.768 34.5068 11.2682 34.3055C11.5384 34.1963 11.7511 33.9548 12.1191 33.6674H13.9358C13.9473 33.6386 13.9588 33.6041 13.9703 33.5754C13.7518 33.5007 13.5334 33.4317 13.0447 33.2649C13.9646 33.0407 14.6315 32.8855 15.2926 32.7245C15.2984 32.6958 15.3099 32.667 15.3156 32.644H10.6875C11.1992 32.506 11.5326 32.4141 11.8661 32.3278C11.8661 32.2818 11.8604 32.2358 11.8604 32.1898H10.9232C10.9117 32.1323 10.9002 32.0806 10.8887 32.0231C11.021 31.9714 11.1475 31.9196 11.1934 31.9024C11.0555 31.4367 10.7508 30.9768 10.8427 30.6203C11.2222 29.2002 12.4928 29.8672 13.4011 29.6257C13.4011 29.6257 13.4126 29.5969 13.4011 29.5912C13.3781 29.5739 13.3379 29.5797 13.3149 29.5567C13.2517 29.4935 13.1942 29.4302 13.1367 29.367C13.2919 29.298 13.4529 29.229 13.6081 29.16C13.9818 28.999 14.3555 28.8323 14.7292 28.6713C14.689 28.6023 14.6487 28.5276 14.6085 28.4586C13.3896 28.2401 12.1708 28.0274 11.1417 27.8434C11.1417 27.303 11.0555 26.9178 11.1647 26.5959C11.2797 26.2509 11.5097 25.7737 11.7971 25.6817C12.7917 25.3713 13.8266 25.2045 14.804 24.9861C14.1658 23.7672 12.8837 24.4629 11.6936 24.3307C11.9926 24.1697 12.2053 24.0547 12.6537 23.8132C12.0846 23.7098 11.7626 23.6465 11.3544 23.5718C11.3832 23.1118 11.4177 22.6404 11.4522 22.1287C12.3548 21.6803 13.2747 21.2261 14.4188 20.6627C13.7921 20.381 13.2172 19.9383 12.6078 19.8923C11.5269 19.8118 11.6246 19.2196 11.7511 18.501C11.8201 18.1158 11.8949 17.7248 11.9293 17.5179C12.372 17.2304 12.6997 17.0234 13.0274 16.8107C12.602 16.437 13.2344 15.5229 12.2915 15.3791C12.1938 15.3676 12.0961 14.9939 12.0903 14.7812C12.0846 14.5513 12.2915 14.2868 12.2283 14.0971C12.0041 13.3669 12.2685 13.022 12.9757 12.8725C13.7576 12.7058 13.8093 12.0963 13.7921 11.3604C13.3551 11.3202 12.9412 11.2857 12.3375 11.234C12.5848 11.1247 12.7342 11.0615 12.7515 11.0557C12.671 10.5038 12.4353 9.96913 12.556 9.53219C12.8147 8.58357 13.7346 8.87103 14.4705 8.7733C14.574 8.49734 14.689 8.21562 14.8327 7.83618C14.2175 7.54872 13.4299 7.39924 13.0447 6.92205C12.74 6.54835 12.924 5.76646 12.9067 5.42151C13.4759 4.99607 13.9071 4.67986 14.344 4.3579C13.8898 4.09344 13.4356 3.83472 12.7917 3.46103C12.8262 2.76537 12.855 1.76501 12.97 0.776144C12.9872 0.632413 13.4471 0.425442 13.6829 0.448439C14.0968 0.482934 14.4935 0.684156 14.8959 0.80489C15.4076 0.954369 15.8158 1.00611 16.2815 0.500181C16.8909 -0.166727 17.5866 0.00574921 18.2937 0.73015C18.426 0.862382 18.7594 0.896877 18.9606 0.839385C19.8345 0.58642 20.6911 0.281711 21.5478 0C21.864 0.712902 22.2089 1.44305 22.5136 2.17895C22.7321 2.70788 22.1572 3.50702 21.45 3.57601C20.6681 3.6565 20.4152 3.98995 20.6394 4.63387C21.2201 4.7776 21.7375 4.90408 22.4274 5.07655C22.1112 5.32952 21.9675 5.45025 21.8295 5.56524C22.5021 6.08267 22.4734 6.51386 21.6743 7.16352C21.8065 7.24401 21.9272 7.31875 22.0767 7.40499C21.3178 7.59471 20.6509 7.76144 19.984 7.92241C20.007 8.05465 20.03 8.18113 20.053 8.31336C20.5359 8.29036 21.0246 8.31336 21.496 8.23862C22.2147 8.12939 22.5596 8.71006 22.6344 9.124C22.7436 9.73917 23.1001 10.6993 21.864 10.8373C22.1457 10.8718 22.4332 10.9063 22.7149 10.9465C22.7379 11.0097 22.7666 11.073 22.7896 11.1362C21.9215 11.5157 21.0591 11.8951 19.9093 12.4011H22.3872C22.3872 12.6138 22.3124 12.884 22.3987 12.9587C23.5945 13.9648 23.445 15.0457 22.0307 15.6321C21.749 15.7471 21.542 16.0518 21.4098 16.4715H22.5769C22.5884 16.5347 22.5941 16.598 22.6056 16.6612C22.3584 16.7245 22.1169 16.7934 21.795 16.8739C22.3929 16.9544 22.9333 17.0234 23.2725 17.0694C24.2499 19.0299 23.307 19.9613 21.7432 20.6109L23.3358 20.4959C23.3415 20.5477 23.3473 20.6052 23.3588 20.6569C22.7551 20.8064 22.1514 20.9616 21.3581 21.1571C22.4274 21.3468 23.2783 21.4963 24.1062 21.6458C24.0104 23.2019 23.4872 24.0279 22.5366 24.1237C22.9218 24.3134 23.215 24.4571 23.6117 24.6584C23.3243 24.7561 23.1231 24.8193 22.9333 24.8998C22.7436 24.9803 22.5539 25.0838 22.4102 25.3885C22.8299 25.3483 23.2725 25.216 23.675 25.2908C23.9854 25.3483 24.2557 25.6472 24.5489 25.8427C24.4971 25.9232 24.4511 25.9979 24.4051 26.0784C23.813 26.2049 23.2208 26.3371 22.6286 26.4636C22.6286 26.4981 22.6401 26.5269 22.6401 26.5614H24.2614C24.6064 27.6595 24.4569 27.8894 23.3933 27.9354C22.9506 27.9527 22.5021 27.9354 22.048 28.1079C22.5251 28.1366 23.0081 28.1711 23.4853 28.2056C23.4968 28.3034 23.5083 28.3954 23.514 28.4988C22.2549 28.6196 20.9959 28.7403 19.7368 28.861C19.7483 29.0105 19.7655 29.1658 19.7828 29.3152C21.2373 29.1715 22.6919 29.0335 24.4454 28.8668C23.905 29.1428 23.6347 29.2865 23.1461 29.5337C23.6635 29.6372 23.9739 29.6257 24.1982 29.7637C24.4454 29.9074 24.8133 30.3501 24.7846 30.3846C24.4051 30.856 24.6581 31.2872 24.9283 31.8161C23.9797 31.9139 23.1518 31.9944 22.0997 32.1036C22.4906 32.2991 22.7091 32.4141 23.0426 32.575C22.6056 32.6555 22.2607 32.7188 21.9157 32.782C21.9157 32.851 21.91 32.92 21.91 32.9832C22.3527 33.0177 22.8126 33.1557 23.2323 33.0752C23.9682 32.9315 24.4224 33.3454 24.9053 33.7306C25.3997 34.1216 25.3193 34.984 24.7788 35.3404C24.9226 35.4094 25.072 35.4784 25.2445 35.5589C23.7727 36.0763 22.3699 36.5707 20.9671 37.0652C20.9844 37.1457 21.0074 37.2319 21.0246 37.3124C21.703 37.2089 22.3987 37.1572 23.0541 36.9847C23.9165 36.7547 24.7386 36.4673 25.3078 37.5596C25.1755 37.6631 24.9801 37.8183 24.6524 38.077C25.0318 38.0483 25.2503 38.031 25.4687 38.0138C25.8079 39.0372 25.647 39.3361 24.5086 39.5661C23.5313 39.7616 22.5366 39.8823 21.5478 40.0375C21.5478 40.1238 21.5478 40.21 21.5478 40.2905H23.3243C23.1863 40.5434 23.0483 40.7964 22.8701 41.1241C23.6462 41.0666 24.3764 41.0091 25.1008 40.9516C25.118 41.0551 25.1295 41.1644 25.1468 41.2736C24.4396 41.4173 23.7325 41.5668 23.0311 41.7105C23.0368 41.7853 23.0483 41.8658 23.0541 41.9405C23.9854 41.86 24.9168 41.7795 25.8539 41.699C26.2564 43.1363 25.7505 43.7745 24.2269 43.9067C23.675 43.9527 22.7494 43.5848 22.7839 44.8669C23.2783 44.7806 23.7095 44.7001 24.1464 44.6311C24.5719 44.5621 25.0031 44.5047 25.4745 44.6081C25.3423 44.6714 25.1985 44.7231 25.0778 44.8036C24.9398 44.8956 24.8306 45.0221 24.7098 45.1313C24.8766 45.2233 25.049 45.39 25.2215 45.39C25.6585 45.4015 26.1012 45.3383 26.6186 45.298C26.4461 45.7982 26.3254 46.1374 26.1529 46.6491C26.0264 46.6779 25.6527 46.7698 25.1123 46.8963C25.624 46.9941 25.9632 47.0573 26.2966 47.1205C26.2966 47.1838 26.2966 47.2528 26.3024 47.316C25.7562 47.3448 25.2158 47.3793 24.6753 47.4138V47.523C25.0893 47.5575 25.5032 47.592 25.9114 47.6265C25.9229 47.7185 25.9287 47.8105 25.9402 47.9024C24.5316 48.0289 23.1231 48.1497 21.7145 48.2704C21.7203 48.3854 21.7318 48.4946 21.7375 48.6096H26.3886C25.8654 48.8338 25.5032 49.0293 25.118 49.1443C24.7328 49.2535 24.3189 49.2822 23.9165 49.3512C23.9222 49.449 23.9337 49.5467 23.9394 49.6444C24.8248 49.5755 25.7102 49.5065 26.8026 49.426C26.4749 49.6847 26.3024 49.8227 26.1529 49.9434C26.2736 50.2079 26.3886 50.4723 26.5611 50.846C25.4572 50.9438 24.5029 51.03 23.5428 51.1162C23.5428 51.1565 23.5428 51.1967 23.537 51.2312C24.3131 51.2657 25.0893 51.306 25.8654 51.3462C25.8539 51.4037 25.8482 51.4612 25.8367 51.5187C24.5316 52.0189 23.2323 52.5248 21.9272 53.0307C21.9272 53.0652 21.9387 53.1055 21.9387 53.14C23.2208 53.048 24.5086 52.956 25.7907 52.8583C25.8079 52.9043 25.8252 52.956 25.8482 53.002C25.6412 53.1285 25.44 53.2492 24.9571 53.5424C25.7792 53.6976 26.3541 53.8069 27.0268 53.9391C26.0839 55.6581 24.2212 54.5945 23.0598 55.4224C23.3645 55.5029 23.675 55.5834 24.1579 55.7099C23.4393 56.1008 22.8758 56.4055 22.3124 56.7102C22.3412 56.8367 22.3699 56.9574 22.3987 57.0839C23.7152 56.9747 25.0318 56.8655 26.3541 56.7562C26.4404 56.8425 26.5266 56.923 26.6128 57.0092C26.3541 57.1702 26.1012 57.3254 25.8309 57.4921H26.7048C26.7393 57.5956 26.8486 57.7911 26.8141 57.8198C26.3944 58.1705 25.9977 58.688 25.5147 58.8029C24.3821 59.0674 23.2093 59.1306 21.933 59.2916C22.9966 59.4584 23.9222 59.6021 24.8996 59.7573C24.7616 60.0678 24.6811 60.2345 24.5719 60.4817C24.9398 60.5105 25.2445 60.5335 25.6585 60.5622C25.4917 60.7634 25.371 60.9129 25.2618 61.0509C25.739 61.1141 26.2449 61.1774 26.7508 61.2406C26.7508 61.3383 26.7508 61.4418 26.7566 61.5453C25.8884 61.712 25.0203 61.8788 24.0487 62.0627C24.7558 62.9366 25.8482 61.8098 26.4576 62.9021C25.187 63.0114 24.0199 63.1091 22.8586 63.2241C20.6452 63.4426 19.9955 63.7185 19.9725 64.6096C20.6796 64.3739 21.3236 64.1612 21.979 63.9485C23.2725 64.7936 24.7903 64.6096 26.3254 64.5867C25.44 64.7591 24.5489 64.9316 23.6635 65.1041C23.675 65.1788 23.6865 65.2593 23.6922 65.3341C24.6121 65.1961 25.532 65.0638 26.3944 64.9374C25.8769 66.3172 24.6064 66.0412 23.5198 66.1849C22.7896 66.2827 22.0537 66.3402 21.2776 66.4724L21.3466 66.4379Z" fill="#070707"/>
<path d="M94.5108 117.808C94.5108 117.808 95.6275 115.272 88.4912 115.027C88.4912 115.027 57.9513 111.468 56.6314 118.134L84.2354 129.256L94.5108 117.808Z" fill="#191816"/>
<path d="M56.809 278.084C61.2798 279.885 68.2721 281.979 76.9216 281.683C84.3401 281.428 90.3794 279.504 94.5089 277.758V117.808C89.095 118.335 83.3437 118.688 77.2827 118.788C69.9491 118.91 63.0456 118.647 56.6295 118.134C56.6886 171.45 56.7478 224.769 56.809 278.084Z" fill="url(#paint2_linear_180_3597)"/>
<path d="M88.7574 92.4517C88.7574 92.4517 73.2458 91.4071 62.6903 92.4517V112.794H88.9843L88.7574 92.4517Z" fill="url(#paint3_linear_180_3597)"/>
<path d="M90.7857 104.165L88.4576 100.895L62.3155 98.8964C62.3155 98.8964 61.1139 99.3495 60.3622 101.076L90.7857 104.165Z" fill="url(#paint4_linear_180_3597)"/>
<path d="M90.261 109.705L88.6827 107.072L62.1657 104.802C62.1657 104.802 60.2124 106.027 60.3624 107.253L90.2591 109.705H90.261Z" fill="black"/>
<path d="M90.261 109.705L88.6827 107.072L62.1657 104.802C62.1657 104.802 60.2124 106.027 60.3624 107.253L90.2591 109.705H90.261Z" fill="url(#paint5_linear_180_3597)"/>
<path d="M90.7857 98.0806L88.9824 95.7194C88.9824 95.7194 82.9727 95.9913 84.4761 96.9C84.4761 96.9 86.7292 98.808 90.7857 98.0806Z" fill="black"/>
<path d="M90.7857 98.0806L88.9824 95.7194C88.9824 95.7194 82.9727 95.9913 84.4761 96.9C84.4761 96.9 86.7292 98.808 90.7857 98.0806Z" fill="url(#paint6_linear_180_3597)"/>
<path d="M60.8949 112.792H90.253C90.5472 112.792 90.7857 113.08 90.7857 113.436V115.418C90.7857 115.773 90.5472 116.062 90.253 116.062H60.8949C60.6007 116.062 60.3622 115.773 60.3622 115.418V113.436C60.3622 113.08 60.6007 112.792 60.8949 112.792Z" fill="url(#paint7_linear_180_3597)"/>
<defs>
<linearGradient id="paint0_linear_180_3597" x1="3.16178" y1="235.143" x2="38.232" y2="235.143" gradientUnits="userSpaceOnUse">
<stop stop-color="#656366"/>
<stop offset="0.25" stop-color="#E3E1E6"/>
<stop offset="0.535" stop-color="#131210"/>
<stop offset="0.88" stop-color="#ACABA7"/>
<stop offset="1" stop-color="#262626"/>
</linearGradient>
<linearGradient id="paint1_linear_180_3597" x1="14.6601" y1="125.908" x2="22.709" y2="125.908" gradientUnits="userSpaceOnUse">
<stop stop-color="#0E0E0E"/>
<stop offset="0.325" stop-color="#1F1F1F"/>
<stop offset="1" stop-color="#161616"/>
</linearGradient>
<linearGradient id="paint2_linear_180_3597" x1="91.6318" y1="199.63" x2="56.5316" y2="199.63" gradientUnits="userSpaceOnUse">
<stop stop-color="#656366"/>
<stop offset="0.25" stop-color="#E3E1E6"/>
<stop offset="0.535" stop-color="#131210"/>
<stop offset="0.88" stop-color="#ACABA7"/>
<stop offset="1" stop-color="#262626"/>
</linearGradient>
<linearGradient id="paint3_linear_180_3597" x1="88.8249" y1="104.636" x2="62.9534" y2="104.061" gradientUnits="userSpaceOnUse">
<stop stop-color="#0B0B0B"/>
<stop offset="0.27" stop-color="#8A8A8A"/>
<stop offset="0.575" stop-color="#1C1C1C"/>
<stop offset="0.835" stop-color="#EEEEEE"/>
<stop offset="1" stop-color="#0E0E0E"/>
</linearGradient>
<linearGradient id="paint4_linear_180_3597" x1="82.5009" y1="100.611" x2="82.2134" y2="103.199" gradientUnits="userSpaceOnUse">
<stop stop-color="#131313"/>
<stop offset="0.44" stop-color="#535353"/>
<stop offset="0.9" stop-color="#D2D2D2"/>
<stop offset="1" stop-color="#4A4A4A"/>
</linearGradient>
<linearGradient id="paint5_linear_180_3597" x1="82.1169" y1="106.398" x2="81.8632" y2="108.809" gradientUnits="userSpaceOnUse">
<stop stop-color="#131313"/>
<stop offset="0.44" stop-color="#535353"/>
<stop offset="0.9" stop-color="#D2D2D2"/>
<stop offset="1" stop-color="#4A4A4A"/>
</linearGradient>
<linearGradient id="paint6_linear_180_3597" x1="89.0017" y1="96.5418" x2="88.9398" y2="97.7825" gradientUnits="userSpaceOnUse">
<stop stop-color="#131313"/>
<stop offset="0.44" stop-color="#535353"/>
<stop offset="0.9" stop-color="#D2D2D2"/>
<stop offset="1" stop-color="#4A4A4A"/>
</linearGradient>
<linearGradient id="paint7_linear_180_3597" x1="82.2134" y1="112.685" x2="82.2134" y2="115.462" gradientUnits="userSpaceOnUse">
<stop stop-color="#131313"/>
<stop offset="0.44" stop-color="#535353"/>
<stop offset="0.9" stop-color="#D2D2D2"/>
<stop offset="1" stop-color="#4A4A4A"/>
</linearGradient>
</defs>
</svg>
