<?xml version="1.0" encoding="UTF-8"?>
<svg id="_Слой_1" data-name="Слой 1" xmlns="http://www.w3.org/2000/svg" xmlns:xlink="http://www.w3.org/1999/xlink" viewBox="0 0 595 958">
  <defs>
    <style>
      .cls-1 {
        fill: url(#_Безымянный_градиент_21-3);
      }

      .cls-1, .cls-2, .cls-3, .cls-4, .cls-5, .cls-6, .cls-7, .cls-8, .cls-9, .cls-10, .cls-11, .cls-12, .cls-13, .cls-14, .cls-15, .cls-16, .cls-17, .cls-18, .cls-19, .cls-20, .cls-21, .cls-22, .cls-23, .cls-24, .cls-25 {
        stroke-width: 0px;
      }

      .cls-2 {
        fill: url(#_Безымянный_градиент_21-6);
      }

      .cls-3 {
        fill: url(#_Безымянный_градиент_21-15);
      }

      .cls-4 {
        fill: url(#_Безымянный_градиент_9-2);
      }

      .cls-5 {
        fill: url(#_Безымянный_градиент_21-5);
      }

      .cls-6 {
        fill: url(#_Безымянный_градиент_9);
      }

      .cls-7 {
        fill: url(#_Безымянный_градиент_21);
      }

      .cls-8 {
        fill: url(#_Безымянный_градиент_21-12);
      }

      .cls-9 {
        fill: url(#_Безымянный_градиент_21-10);
      }

      .cls-10 {
        fill: #a48075;
      }

      .cls-11 {
        fill: url(#_Безымянный_градиент_21-14);
      }

      .cls-12 {
        fill: url(#_Безымянный_градиент_21-8);
      }

      .cls-13 {
        fill: url(#_Безымянный_градиент_9-3);
      }

      .cls-14 {
        fill: #030102;
      }

      .cls-15 {
        fill: url(#_Безымянный_градиент_14);
      }

      .cls-16 {
        fill: url(#_Безымянный_градиент_21-9);
      }

      .cls-17 {
        fill: url(#_Безымянный_градиент_21-4);
      }

      .cls-18 {
        fill: url(#_Безымянный_градиент_21-11);
      }

      .cls-19 {
        fill: url(#_Безымянный_градиент_21-13);
      }

      .cls-20 {
        fill: url(#_Безымянный_градиент_21-7);
      }

      .cls-21 {
        fill: #b38475;
      }

      .cls-22 {
        fill: #c7b1ac;
      }

      .cls-23 {
        fill: url(#_Безымянный_градиент_15);
      }

      .cls-24 {
        fill: url(#_Безымянный_градиент_21-2);
      }

      .cls-25 {
        fill: url(#_Безымянный_градиент_7);
      }
    </style>
    <linearGradient id="_Безымянный_градиент_21" data-name="Безымянный градиент 21" x1="289.18" y1="817.9" x2="289.18" y2="604.46" gradientTransform="translate(0 960) scale(1 -1)" gradientUnits="userSpaceOnUse">
      <stop offset="0" stop-color="#6a2d22"/>
      <stop offset="1" stop-color="#9d5246"/>
    </linearGradient>
    <linearGradient id="_Безымянный_градиент_21-2" data-name="Безымянный градиент 21" x1="107.93" y1="752.12" x2="107.93" y2="518.56" xlink:href="#_Безымянный_градиент_21"/>
    <linearGradient id="_Безымянный_градиент_15" data-name="Безымянный градиент 15" x1="246.63" y1="660.16" x2="246.63" y2="528.39" gradientTransform="translate(0 960) scale(1 -1)" gradientUnits="userSpaceOnUse">
      <stop offset="0" stop-color="#6a2d22"/>
      <stop offset="1" stop-color="#a15245"/>
    </linearGradient>
    <linearGradient id="_Безымянный_градиент_21-3" data-name="Безымянный градиент 21" x1="128.7" y1="509.12" x2="128.7" y2="220.81" xlink:href="#_Безымянный_градиент_21"/>
    <linearGradient id="_Безымянный_градиент_21-4" data-name="Безымянный градиент 21" x1="253.69" y1="920.17" x2="253.69" y2="807.54" xlink:href="#_Безымянный_градиент_21"/>
    <linearGradient id="_Безымянный_градиент_21-5" data-name="Безымянный градиент 21" x1="453.09" y1="683.62" x2="453.09" y2="528.94" xlink:href="#_Безымянный_градиент_21"/>
    <linearGradient id="_Безымянный_градиент_7" data-name="Безымянный градиент 7" x1="325.71" y1="681.64" x2="523.26" y2="395.08" gradientTransform="translate(0 960) scale(1 -1)" gradientUnits="userSpaceOnUse">
      <stop offset="0" stop-color="#9a5347"/>
      <stop offset="1" stop-color="#6a2d22"/>
    </linearGradient>
    <linearGradient id="_Безымянный_градиент_9" data-name="Безымянный градиент 9" x1="401.17" y1="690.77" x2="401.17" y2="398.41" gradientTransform="translate(0 960) scale(1 -1)" gradientUnits="userSpaceOnUse">
      <stop offset=".79" stop-color="#934b40"/>
      <stop offset="1" stop-color="#6a2d22"/>
    </linearGradient>
    <linearGradient id="_Безымянный_градиент_14" data-name="Безымянный градиент 14" x1="376.44" y1="676.11" x2="376.44" y2="193.84" gradientTransform="translate(0 960) scale(1 -1)" gradientUnits="userSpaceOnUse">
      <stop offset="0" stop-color="#9d4c3f"/>
      <stop offset="1" stop-color="#6a2d22"/>
    </linearGradient>
    <linearGradient id="_Безымянный_градиент_9-2" data-name="Безымянный градиент 9" x1="376.44" y1="676.11" x2="376.44" y2="193.84" xlink:href="#_Безымянный_градиент_9"/>
    <linearGradient id="_Безымянный_градиент_9-3" data-name="Безымянный градиент 9" x1="179.88" y1="689.87" x2="179.88" y2="266.79" xlink:href="#_Безымянный_градиент_9"/>
    <linearGradient id="_Безымянный_градиент_21-6" data-name="Безымянный градиент 21" x1="339.83" y1="949.31" x2="339.83" y2="811.55" xlink:href="#_Безымянный_градиент_21"/>
    <linearGradient id="_Безымянный_градиент_21-7" data-name="Безымянный градиент 21" x1="139.83" y1="658.94" x2="139.83" y2="614.44" xlink:href="#_Безымянный_градиент_21"/>
    <linearGradient id="_Безымянный_градиент_21-8" data-name="Безымянный градиент 21" x1="194.94" y1="908.82" x2="194.94" y2="788" xlink:href="#_Безымянный_градиент_21"/>
    <linearGradient id="_Безымянный_градиент_21-9" data-name="Безымянный градиент 21" x1="119.4" y1="548.36" x2="119.4" y2="392.34" xlink:href="#_Безымянный_градиент_21"/>
    <linearGradient id="_Безымянный_градиент_21-10" data-name="Безымянный градиент 21" x1="142.39" y1="423.76" x2="142.39" y2="264.09" xlink:href="#_Безымянный_градиент_21"/>
    <linearGradient id="_Безымянный_градиент_21-11" data-name="Безымянный градиент 21" x1="241.94" y1="947.63" x2="241.94" y2="836.1" xlink:href="#_Безымянный_градиент_21"/>
    <linearGradient id="_Безымянный_градиент_21-12" data-name="Безымянный градиент 21" x1="395.86" y1="926.62" x2="395.86" y2="788.39" xlink:href="#_Безымянный_градиент_21"/>
    <linearGradient id="_Безымянный_градиент_21-13" data-name="Безымянный градиент 21" x1="384.03" y1="920.5" x2="384.03" y2="819.9" xlink:href="#_Безымянный_градиент_21"/>
    <linearGradient id="_Безымянный_градиент_21-14" data-name="Безымянный градиент 21" x1="202.91" y1="943.21" x2="202.91" y2="817.93" xlink:href="#_Безымянный_градиент_21"/>
    <linearGradient id="_Безымянный_градиент_21-15" data-name="Безымянный градиент 21" x1="279.11" y1="947.31" x2="279.11" y2="830.51" xlink:href="#_Безымянный_градиент_21"/>
  </defs>
  <path class="cls-7" d="M278.73,311.39l-56.37-32.72-48.68,27.65-25.22,27.78-26.57-6.61-13.22-33.31,13.22-59.74,14.56-26.57,18.47-15.78,9.57-8.09,25.22-16.18,16.99-9.44,10.11-5.26c4.14-1.79,8.27-3.6,12.41-5.39,11.8-1.71,21.78-2.8,29.26-3.51,17.4-1.65,30.71-2.85,47.99-1.62,6.76.47,12.3,1.2,16.06,1.75,3.01.04,6.03.09,9.03.14l22.65,7.15,21.17,12.41,23.06,14.43,27.64,18.61,16.32,14.16,9.3,11.19,9.04,14.29,2.56,8.77,2.02,10.65,1.62,9.17,2.7,9.44-.54,5.8-1.35,10.38-3.1,12.95-7.28,14.7-3.91,28.59-50.3,8.36-56.37-61.9-41.67,2.56-16.86,3.91-9.57,11.27Z"/>
  <path class="cls-10" d="M121.89,441.44l-16.86-9.98-13.08-12.54-14.29-17.39-4.99-22.39,5.26-23.87,6.47-11.33,2.29-20.77,1.35-12.54,6.88-24.27,7.82-23.6,4.99-13.08,7.01-15.78,11.06-15.64,10.65-10.38v12.54l-6.34,15.51-6.2,19.69-4.45,17.8-.13,14.56,3.64,19.82,5.53,14.43,10.38,14.02,4.32,5.93-3.24,7.55-18.07,91.7Z"/>
  <path class="cls-24" d="M121.89,441.44l-16.86-9.98-13.08-12.54-14.29-17.39-4.99-22.39,5.26-23.87,6.47-11.33,2.29-20.77,1.35-12.54,6.88-24.27,7.82-23.6,4.99-13.08,7.01-15.78,11.06-15.64,10.65-10.38v12.54l-6.34,15.51-6.2,19.69-4.45,17.8-.13,14.56,3.64,19.82,5.53,14.43,10.38,14.02,4.32,5.93-3.24,7.55-18.07,91.7Z"/>
  <path class="cls-14" d="M122.16,220.42c-.54.94-.94,1.89-1.48,2.97-2.02,4.05-4.32,8.76-6.47,13.89-3.51,7.96-7.15,17.13-10.65,27.38-4.99,14.43-10.11,29.67-13.22,46.93-.27,1.62-.54,3.37-.81,4.99-1.21,7.82-1.89,16.18-1.89,24.95,0,4.05.13,8.9.54,14.3.27,2.97.54,6.07.94,9.3v.27c0,.4.13.94.13,1.35,2.02,14.43,6.34,31.82,14.97,50.84-14.29-27.64-19.42-51.38-20.77-69.58-.13-2.56-.27-4.85-.4-7.15-.27-11.46.94-20.09,1.89-25.35,4.45-24.27,17.67-54.61,21.44-63.25.4-1.08.94-2.29,1.62-3.51,4.32-9.84,8.63-18.07,12-24.68.94-1.21,1.62-2.43,2.16-3.64Z"/>
  <path class="cls-10" d="M280.07,324.6c-.54.27-1.08.67-1.48,1.08-3.51-4.58-7.42-8.5-11.6-12-2.56,3.24-23.46,22.79-29.4,54.75-1.62,8.63-5.53,29.67,5.26,47.47,4.45,7.42,11.73,14.7,11.33,15.1-.27.27-4.86-4.05-7.42-6.74-.13-.14-.13-.27-.27-.27-18.07-18.07-19.82-42.48-19.82-42.48-2.83-26.57,11.6-46.52,17.53-54.75,5.8-8.09,12-13.76,16.45-17.53-11.73-7.69-24.95-10.65-36.95-7.55-3.91.94-7.55,2.56-10.52,4.32v-1.21c7.69-4.05,14.56-5.12,16.18-5.26,1.75-.27,3.37-.27,4.99-.27,25.89-.27,44.64,23.87,45.71,25.35Z"/>
  <path class="cls-23" d="M280.07,324.6c-.54.27-1.08.67-1.48,1.08-3.51-4.58-7.42-8.5-11.6-12-2.56,3.24-23.46,22.79-29.4,54.75-1.62,8.63-5.53,29.67,5.26,47.47,4.45,7.42,11.73,14.7,11.33,15.1-.27.27-4.86-4.05-7.42-6.74-.13-.14-.13-.27-.27-.27-18.07-18.07-19.82-42.48-19.82-42.48-2.83-26.57,11.6-46.52,17.53-54.75,5.8-8.09,12-13.76,16.45-17.53-11.73-7.69-24.95-10.65-36.95-7.55-3.91.94-7.55,2.56-10.52,4.32v-1.21c7.69-4.05,14.56-5.12,16.18-5.26,1.75-.27,3.37-.27,4.99-.27,25.89-.27,44.64,23.87,45.71,25.35Z"/>
  <path class="cls-10" d="M152.77,450.88l1.75,8.77-1.62,10.79-2.83,13.22-4.72,12.95-6.61,15.64-5.26,11.6-6.88,15.64-2.97,21.85v17.94l3.64,22.39,1.75,13.62,7.28,20.23,4.85,18.07,2.43,18.75,1.08,11.87-2.83,18.61-3.37,15.37-10.52,14.16-10.79,6.88,3.91-8.36,3.37-9.84,2.97-11.06.54-7.55v-13.22l-2.29-12.33-4.45-7.63-4.32-6.53-4.99-5.07-4.45-13.14-2.7-9.44-1.08-9.65-.81-10.38v-7.55l.4-11.33,1.21-13.22,2.16-6.47,4.85-14.43,7.28-20.77,5.53-15.51,9.3-24.68,10.38-34.79,8.77-15.37Z"/>
  <path class="cls-1" d="M152.77,450.88l1.75,8.77-1.62,10.79-2.83,13.22-4.72,12.95-6.61,15.64-5.26,11.6-6.88,15.64-2.97,21.85v17.94l3.64,22.39,1.75,13.62,7.28,20.23,4.85,18.07,2.43,18.75,1.08,11.87-2.83,18.61-3.37,15.37-10.52,14.16-10.79,6.88,3.91-8.36,3.37-9.84,2.97-11.06.54-7.55v-13.22l-2.29-12.33-4.45-7.63-4.32-6.53-4.99-5.07-4.45-13.14-2.7-9.44-1.08-9.65-.81-10.38v-7.55l.4-11.33,1.21-13.22,2.16-6.47,4.85-14.43,7.28-20.77,5.53-15.51,9.3-24.68,10.38-34.79,8.77-15.37Z"/>
  <path class="cls-21" d="M307.58,142.34c-17.09,0-43.21,3.39-80.1,6.2-9.04-2.43-16.86-5.8-23.46-9.31-1-8.4-1.85-17.04-2.52-25.94-1.93-25.5-2.09-49.45-1.12-71.55,3.9-1.62,9.12-2.99,13.08-.67,3.91,2.29,4.45,7.01,5.53,11.19,5.66,23.19,25.08,38.16,28.59,40.86,1.75,1.35,4.32,2.97,9.57,6.2,18.07,11.19,22.25,10.92,29.13,18.07,3.91,4.05,2.83,4.32,10.25,13.08,4.45,5.12,8.36,9.17,11.06,11.87Z"/>
  <path class="cls-17" d="M307.58,142.34c-17.09,0-43.21,3.39-80.1,6.2-9.04-2.43-16.86-5.8-23.46-9.31-1-8.4-1.85-17.04-2.52-25.94-1.93-25.5-2.09-49.45-1.12-71.55,3.9-1.62,9.12-2.99,13.08-.67,3.91,2.29,4.45,7.01,5.53,11.19,5.66,23.19,25.08,38.16,28.59,40.86,1.75,1.35,4.32,2.97,9.57,6.2,18.07,11.19,22.25,10.92,29.13,18.07,3.91,4.05,2.83,4.32,10.25,13.08,4.45,5.12,8.36,9.17,11.06,11.87Z"/>
  <path class="cls-10" d="M453.22,325.33l6.74-10.92,6.34-15.1,2.43-16.72v-6.2l7.01,12.68,4.32,7.28,5.66,16.86,3.77,12.14,2.56,25.22-.27,10.65c-.14,7.15-1.35,21.98-10.52,37.62-7.42,12.68-16.86,20.23-22.52,24.14-2.43,1.62-4.85,3.1-7.28,4.72l-6.47,3.37-19.28-21.31c-3.91-19.42-7.69-38.84-11.6-58.26,5.12-1.48,11.6-3.91,18.47-8.09,10.25-6.07,16.72-12.95,20.63-18.07Z"/>
  <path class="cls-5" d="M453.22,325.33l6.74-10.92,6.34-15.1,2.43-16.72v-6.2l7.01,12.68,4.32,7.28,5.66,16.86,3.77,12.14,2.56,25.22-.27,10.65c-.14,7.15-1.35,21.98-10.52,37.62-7.42,12.68-16.86,20.23-22.52,24.14-2.43,1.62-4.85,3.1-7.28,4.72l-6.47,3.37-19.28-21.31c-3.91-19.42-7.69-38.84-11.6-58.26,5.12-1.48,11.6-3.91,18.47-8.09,10.25-6.07,16.72-12.95,20.63-18.07Z"/>
  <path class="cls-25" d="M304.62,291.48l8.5-9.3,8.23-7.96,6.61-3.1,4.45-1.35,4.05-.54h4.05l8.09,2.97,6.2,3.51,4.99,2.83,5.53,4.85,8.63,8.5,7.15,7.69,9.57,12.27,9.98,14.97,8.5,14.16,4.72,8.36,8.49,17.94,1.35,2.7,3.24,6.61,2.43,5.53,2.43,5.8,3.37,6.47,2.29,5.39,3.91,12.68,2.29,6.47,2.56,10.79.67,5.26.68,6.34.81,1.48,3.37,2.97,8.23,9.98,9.98,13.49,8.77,12.41,7.82,12.95,5.39,12,3.24,9.04,1.89,7.69.67,8.63-.54,6.34-.81,4.45-3.64,7.82-3.37,4.32-3.37,2.83-2.83,1.89-4.05,2.02,5.39-6.07,4.05-6.2,4.32-8.36-.54-12-2.7-5.93-4.85-9.17-7.28-12.27-6.47-11.87-7.96-17.13-5.93-9.98-2.7-2.97-6.34-6.74-3.37-2.43-6.07-3.37-.54,4.32-.14,9.71-2.56-6.34-2.43-7.28-4.05-11.19-8.23-22.79-4.99-13.62-47.33-81.05-63.79-27.38Z"/>
  <path class="cls-6" d="M304.62,291.48l8.5-9.3,8.23-7.96,6.61-3.1,4.45-1.35,4.05-.54h4.05l8.09,2.97,6.2,3.51,4.99,2.83,5.53,4.85,8.63,8.5,7.15,7.69,9.57,12.27,9.98,14.97,8.5,14.16,4.72,8.36,8.49,17.94,1.35,2.7,3.24,6.61,2.43,5.53,2.43,5.8,3.37,6.47,2.29,5.39,3.91,12.68,2.29,6.47,2.56,10.79.67,5.26.68,6.34.81,1.48,3.37,2.97,8.23,9.98,9.98,13.49,8.77,12.41,7.82,12.95,5.39,12,3.24,9.04,1.89,7.69.67,8.63-.54,6.34-.81,4.45-3.64,7.82-3.37,4.32-3.37,2.83-2.83,1.89-4.05,2.02,5.39-6.07,4.05-6.2,4.32-8.36-.54-12-2.7-5.93-4.85-9.17-7.28-12.27-6.47-11.87-7.96-17.13-5.93-9.98-2.7-2.97-6.34-6.74-3.37-2.43-6.07-3.37-.54,4.32-.14,9.71-2.56-6.34-2.43-7.28-4.05-11.19-8.23-22.79-4.99-13.62-47.33-81.05-63.79-27.38Z"/>
  <path class="cls-10" d="M433,476.77c-.27,0-16.18-13.89-29.13-32.23-2.43-3.51-4.58-6.74-4.99-7.42-6.47-10.11-10.38-18.47-12.14-22.25-2.16-4.72-4.32-9.44-6.47-14.16,4.59,9.44,8.9,17.4,12.41,23.46,5.66,9.71,11.73,20.23,21.31,32.09,1.35,1.75,3.78,4.58,13.22,14.43-2.16-2.83-13.76-20.9-24.68-43.69-16.05-33.71-24.68-65.13-29.26-90.35.4-.4.67-.67,1.08-1.08,3.37,16.59,9.57,41.13,20.77,69.31,15.1,37.89,32.9,65.94,32.5,66.08,4.45,4.58,5.4,5.66,5.4,5.8Z"/>
  <path class="cls-10" d="M199.43,161.35c-3.1,3.78-5.53,3.24-12.27,6.47,3.78-2.02,7.82-4.32,12.27-6.47Z"/>
  <path class="cls-10" d="M121.89,441.44c1.08.94-.13,3.91-.67,9.04l.67-9.04Z"/>
  <path class="cls-10" d="M284.79,319.53c.27-.13.27-.67.67-1.89.41-1.62.94-2.83,1.21-3.51,1.89-2.83,3.78-5.8,5.8-8.63l3.91-4.05,4.58-2.56,3.24-1.62,3.91-.4,4.18.4,4.58,1.35,6.34,3.64,4.72,4.59,4.05,3.91,4.72,5.39,7.15,10.92,8.36,11.87,5.53,10.25,2.02,3.91,3.24,6.88,3.51,9.04,5.12,12.27,13.89,31.96,8.23,14.7,11.73,18.61,7.15,10.65,5.39,14.7,6.2,19.01,6.61,19.55,4.99,18.48,2.16,12.14.67,4.85.67,4.99-1.35,9.03-3.1,11.33-7.55,14.7-6.88,9.04-5.53,5.8-3.91,2.97-2.7,1.89-2.97,2.02-5.39,5.53-1.62,4.18-3.37,9.3-1.35,12.14,1.48,13.08,4.05,13.35,5.26,10.11,6.34,7.82,6.07,4.18,8.23,3.24,6.47,1.21,5.39-.41,4.72-.94-4.45-.27-8.23-1.75-7.82-3.78-8.77-7.69-3.64-5.12-2.16-6.2-2.7-8.77-1.35-10.11.27-13.76,1.89-10.38,2.43-3.37,3.78-2.16,3.51-.81,3.64-.4,5.26-2.16,4.32-1.21,6.07-4.45,7.69-6.88,5.8-6.47.94-1.35.94,6.47.81,11.33.81,12,.4,12.68-.13,12.68-.81,12.95-1.62,10.25-1.75,5.12-2.02,6.61-3.91,9.3-3.51,9.31-2.16,6.07-2.29,8.23-2.56,12-1.21,10.52-.14,6.88.67,5.39,2.7,7.42,4.05,4.18,3.24,1.89,3.24,1.21,2.97.27h4.45l4.45-.81,1.62-.67-3.64-.4-5.66-1.48-5.26-2.43-4.05-4.59-1.35-2.97-.81-6.2,1.62-8.9,3.51-8.09,4.99-9.57,4.99-10.11,7.96-18.48,6.07-19.28,3.51-14.16,2.83-13.76,1.08-13.89,1.75-16.45-.94-21.04-3.78-29.53-3.91-23.33-4.58-19.69-3.37-12.27-3.91-13.49-2.29-4.85-5.66-12.27-4.85-9.71-2.56-6.34-6.61-17.93-6.47-18.48-12.95-34.25-6.88-17.8-6.2-15.78-10.11-20.36-4.72-7.55-7.15-12.68-11.19-12.68-15.78-11.73c-8.09-3.37-15.1-5.26-20.36-6.34-8.23-1.75-17.26-3.51-20.36.54-1.08,1.48-1.62,3.91-4.45,5.66-1.48.94-2.83,1.21-3.37,1.35-4.99,1.08-9.31,4.45-13.08,7.28-3.1,2.43-11.06,8.23-8.9,11.46.13.27,1.21,1.62,1.21,1.62,2.56,4.99,3.64,5.93,4.18,5.8Z"/>
  <path class="cls-15" d="M284.79,319.53c.27-.13.27-.67.67-1.89.41-1.62.94-2.83,1.21-3.51,1.89-2.83,3.78-5.8,5.8-8.63l3.91-4.05,4.58-2.56,3.24-1.62,3.91-.4,4.18.4,4.58,1.35,6.34,3.64,4.72,4.59,4.05,3.91,4.72,5.39,7.15,10.92,8.36,11.87,5.53,10.25,2.02,3.91,3.24,6.88,3.51,9.04,5.12,12.27,13.89,31.96,8.23,14.7,11.73,18.61,7.15,10.65,5.39,14.7,6.2,19.01,6.61,19.55,4.99,18.48,2.16,12.14.67,4.85.67,4.99-1.35,9.03-3.1,11.33-7.55,14.7-6.88,9.04-5.53,5.8-3.91,2.97-2.7,1.89-2.97,2.02-5.39,5.53-1.62,4.18-3.37,9.3-1.35,12.14,1.48,13.08,4.05,13.35,5.26,10.11,6.34,7.82,6.07,4.18,8.23,3.24,6.47,1.21,5.39-.41,4.72-.94-4.45-.27-8.23-1.75-7.82-3.78-8.77-7.69-3.64-5.12-2.16-6.2-2.7-8.77-1.35-10.11.27-13.76,1.89-10.38,2.43-3.37,3.78-2.16,3.51-.81,3.64-.4,5.26-2.16,4.32-1.21,6.07-4.45,7.69-6.88,5.8-6.47.94-1.35.94,6.47.81,11.33.81,12,.4,12.68-.13,12.68-.81,12.95-1.62,10.25-1.75,5.12-2.02,6.61-3.91,9.3-3.51,9.31-2.16,6.07-2.29,8.23-2.56,12-1.21,10.52-.14,6.88.67,5.39,2.7,7.42,4.05,4.18,3.24,1.89,3.24,1.21,2.97.27h4.45l4.45-.81,1.62-.67-3.64-.4-5.66-1.48-5.26-2.43-4.05-4.59-1.35-2.97-.81-6.2,1.62-8.9,3.51-8.09,4.99-9.57,4.99-10.11,7.96-18.48,6.07-19.28,3.51-14.16,2.83-13.76,1.08-13.89,1.75-16.45-.94-21.04-3.78-29.53-3.91-23.33-4.58-19.69-3.37-12.27-3.91-13.49-2.29-4.85-5.66-12.27-4.85-9.71-2.56-6.34-6.61-17.93-6.47-18.48-12.95-34.25-6.88-17.8-6.2-15.78-10.11-20.36-4.72-7.55-7.15-12.68-11.19-12.68-15.78-11.73c-8.09-3.37-15.1-5.26-20.36-6.34-8.23-1.75-17.26-3.51-20.36.54-1.08,1.48-1.62,3.91-4.45,5.66-1.48.94-2.83,1.21-3.37,1.35-4.99,1.08-9.31,4.45-13.08,7.28-3.1,2.43-11.06,8.23-8.9,11.46.13.27,1.21,1.62,1.21,1.62,2.56,4.99,3.64,5.93,4.18,5.8Z"/>
  <path class="cls-4" d="M284.79,319.53c.27-.13.27-.67.67-1.89.41-1.62.94-2.83,1.21-3.51,1.89-2.83,3.78-5.8,5.8-8.63l3.91-4.05,4.58-2.56,3.24-1.62,3.91-.4,4.18.4,4.58,1.35,6.34,3.64,4.72,4.59,4.05,3.91,4.72,5.39,7.15,10.92,8.36,11.87,5.53,10.25,2.02,3.91,3.24,6.88,3.51,9.04,5.12,12.27,13.89,31.96,8.23,14.7,11.73,18.61,7.15,10.65,5.39,14.7,6.2,19.01,6.61,19.55,4.99,18.48,2.16,12.14.67,4.85.67,4.99-1.35,9.03-3.1,11.33-7.55,14.7-6.88,9.04-5.53,5.8-3.91,2.97-2.7,1.89-2.97,2.02-5.39,5.53-1.62,4.18-3.37,9.3-1.35,12.14,1.48,13.08,4.05,13.35,5.26,10.11,6.34,7.82,6.07,4.18,8.23,3.24,6.47,1.21,5.39-.41,4.72-.94-4.45-.27-8.23-1.75-7.82-3.78-8.77-7.69-3.64-5.12-2.16-6.2-2.7-8.77-1.35-10.11.27-13.76,1.89-10.38,2.43-3.37,3.78-2.16,3.51-.81,3.64-.4,5.26-2.16,4.32-1.21,6.07-4.45,7.69-6.88,5.8-6.47.94-1.35.94,6.47.81,11.33.81,12,.4,12.68-.13,12.68-.81,12.95-1.62,10.25-1.75,5.12-2.02,6.61-3.91,9.3-3.51,9.31-2.16,6.07-2.29,8.23-2.56,12-1.21,10.52-.14,6.88.67,5.39,2.7,7.42,4.05,4.18,3.24,1.89,3.24,1.21,2.97.27h4.45l4.45-.81,1.62-.67-3.64-.4-5.66-1.48-5.26-2.43-4.05-4.59-1.35-2.97-.81-6.2,1.62-8.9,3.51-8.09,4.99-9.57,4.99-10.11,7.96-18.48,6.07-19.28,3.51-14.16,2.83-13.76,1.08-13.89,1.75-16.45-.94-21.04-3.78-29.53-3.91-23.33-4.58-19.69-3.37-12.27-3.91-13.49-2.29-4.85-5.66-12.27-4.85-9.71-2.56-6.34-6.61-17.93-6.47-18.48-12.95-34.25-6.88-17.8-6.2-15.78-10.11-20.36-4.72-7.55-7.15-12.68-11.19-12.68-15.78-11.73c-8.09-3.37-15.1-5.26-20.36-6.34-8.23-1.75-17.26-3.51-20.36.54-1.08,1.48-1.62,3.91-4.45,5.66-1.48.94-2.83,1.21-3.37,1.35-4.99,1.08-9.31,4.45-13.08,7.28-3.1,2.43-11.06,8.23-8.9,11.46.13.27,1.21,1.62,1.21,1.62,2.56,4.99,3.64,5.93,4.18,5.8Z"/>
  <path class="cls-10" d="M161.67,416.76c5.39-10.25,9.44-18.75,12.41-25.35-7.28,16.72-11.06,25.49-17.13,35.47-1.62,2.56-4.45,7.28-5.39,14.16-8.77,19.55-18.34,43.42-18.21,53.67-.81-2.56-.94-4.59-1.08-6.07-.13-3.24.27-6.61,4.58-19.28.94-2.97,1.48-4.45,2.02-5.93,5.26-13.89,18.07-37.76,22.79-46.66Z"/>
  <path class="cls-10" d="M425.98,219.07c-17.13-21.98-35.33-39.78-39.38-43.56,16.05,14.43,28.05,27.64,36.41,37.49.94,1.21,1.89,2.29,2.83,3.51.14.94.14,1.75.14,2.56Z"/>
  <path class="cls-14" d="M356.67,346.64c3.78,7.28,5.66,12.27,8.09,18.61-5.39-12.14-12.14-24.95-22.52-39.11-6.74-9.3-13.08-16.45-17.4-21.04-26.84-24.41-39.78,14.83-39.78,14.83,0,0-.13-.14-.27-.27-.27-.4-.67-.81-1.08-1.08,0,0,0-.13.13-.13s0-.14.14-.14c8.5-18.61,17.67-21.44,21.17-21.85,23.06-4.05,47.74,43.02,51.51,50.17Z"/>
  <path class="cls-14" d="M364.9,365.38c2.56,5.93,4.86,11.73,7.15,17.53-3.37-7.55-5.39-12.95-7.15-17.53Z"/>
  <path class="cls-14" d="M499.21,586.14c-.13,4.05-.54,7.82-1.48,15.37-1.62,14.29-2.7,18.34-3.91,21.85-.27.81-.67,1.62-.94,2.29-.67,1.62-1.21,2.97-1.75,4.31-.54,1.48-3.37,7.55-7.96,13.49-.67.94-1.48,1.89-2.7,2.7-2.43,1.62-4.99,2.02-6.47,2.16,4.85-5.66,13.08-16.72,18.61-32.63.27-.68.54-1.35.67-2.16,1.21-3.64,2.16-7.55,2.97-11.73,3.91-20.77.13-36.95-.81-40.86-.81-3.24-1.75-6.34-2.83-9.17-.13-.4-.27-.94-.54-1.35-.4-.94-.81-1.89-1.21-2.83-.27-.67-.54-1.35-.94-2.02-7.01-14.97-18.07-26.97-32.1-42.21-.81-.81-1.48-1.62-2.29-2.43-.27-.27-.54-.67-.81-.94-7.96-8.36-15.24-14.83-20.36-19.42-7.82-7.15-14.43-14.29-20.23-21.04-.94-1.08-1.75-2.02-2.56-3.1-10.65-12.95-17.93-24.95-22.92-34.66-7.15-13.62-11.73-26.03-16.59-38.7,1.35,3.1,2.97,6.74,4.99,10.79,5.8,12.54,11.33,22.93,15.78,30.48,5.66,9.71,11.73,20.23,21.31,32.09,1.35,1.75,3.78,4.58,13.22,14.43.13.13.27.27.27.4,1.62,1.62,3.37,3.51,5.53,5.66,6.47,6.61,11.6,11.87,15.91,16.32.13.27.4.4.54.54,11.6,11.73,17.53,17.53,26.03,28.32,7.96,9.71,11.73,16.05,14.83,22.52.13.13.13.27.27.4.27.54.54,1.08.68,1.48.54.94.94,2.02,1.35,2.97.27.4.4.94.54,1.35,4.45,11.06,5.39,19.15,5.66,21.31.54,5.8.4,11.33.27,14.03Z"/>
  <path class="cls-14" d="M441.49,690.38c-.14,0-.27.14-.4.14-4.99,1.48-11.06,2.43-17.26.67-25.35-7.01-39.78-53.13-25.76-76.33,5.66-9.3,11.6-7.82,22.38-21.04,2.83-3.51,13.76-17.53,17.26-36.41,1.35-7.28,2.16-18.47-18.21-78.21-3.24-9.57-6.07-17.53-8.09-22.92.54-.14.94-.14,1.35-.54.4,1.08.81,2.29,1.35,3.64.94,2.56,2.02,5.66,3.24,9.17,3.78,11.33,5.53,17.26,9.3,29.26,7.82,25.08,8.09,23.87,9.98,32.09,2.02,8.77,3.37,17.67,1.89,28.45-.4,3.51-1.08,6.2-1.35,7.15-1.35,5.12-4.72,15.78-14.97,28.05-11.06,13.48-14.56,9.84-20.77,18.88-12.95,18.61-4.85,43.83-3.64,47.33,2.56,7.55,6.88,20.36,19.82,27.11,9.31,4.85,18.48,4.32,23.2,3.64h.27c.14-.14.27-.14.4-.14Z"/>
  <path class="cls-14" d="M236.92,369.02c-1.62,8.63-5.53,29.67,5.26,47.47,4.45,7.42,11.73,14.7,11.33,15.1-.27.27-4.85-4.05-7.42-6.74-.13-.13-.13-.27-.27-.27-18.07-18.07-19.82-42.48-19.82-42.48-2.83-26.57,11.6-46.52,17.53-54.75,5.8-8.09,12-13.76,16.45-17.53.27-.13.41-.4.68-.54.27.54,1.75.22,1.89.76-1.62,1.75-5.39,5.04-8.23,8.28-12.95,14.97-23.19,26.84-26.03,43.83,0,0-2.29,13.35,1.35,28.72,1.75,7.28,4.31,13.75,7.28,19.28-3.1-8.23-4.05-16.86-4.18-24,0,0-.27-7.82,1.08-15.51,4.05-25.62,28.18-53.27,32.1-56.37.27-.27.54-.27.54-.27,0,0,0,.27-.27.54-2.43,2.97-23.2,22.52-29.26,54.48Z"/>
  <path class="cls-14" d="M452.01,525.59c1.89,4.32,4.59,11.19,5.66,20.09.54,4.45,3.91,34.52-15.37,53.67-6.2,6.2-13.89,13.89-25.08,15.91-3.37.54-7.69.81-11.06,4.18-1.62,1.62-3.24,4.32-3.91,13.89-.4,6.47-.94,13.08,1.08,22.39,1.75,7.82,3.24,14.83,8.36,21.31,9.57,11.87,24.95,13.22,29.53,13.49-4.45-.27-14.29-1.48-23.06-8.9-8.77-7.42-11.46-16.86-13.35-23.33-2.56-9.17-2.16-16.59-1.89-21.85.81-12.27,2.83-15.37,3.91-16.45,3.37-3.51,7.55-3.51,11.87-4.45,18.88-4.18,33.31-24.27,37.89-39.78,1.35-4.72,1.89-9.03,2.02-11.06.4-4.05,1.08-13.35-1.75-24.54-.54-3.78-2.02-8.9-4.85-14.57Z"/>
  <path class="cls-14" d="M441.49,729.08c-19.01,37.22,17.94,35.2,17.94,35.2-49.22,13.76-27.24-51.38-18.34-73.76,1.75-4.45,2.97-7.15,2.97-7.15,12.27-23.33,4.05-89.27,4.05-89.27v-.81c0-.13.13-.13.13-.27.67,0,2.97,19.96,3.24,41.13,0,6.61-.13,10.79-.27,14.83-.54,14.7-1.75,19.96-2.29,22.25-.94,3.91-2.02,6.74-3.37,10.52-2.16,6.2-3.37,8.23-6.74,16.99-1.35,3.64-2.16,5.66-3.1,8.5-2.29,7.01-3.51,12.68-4.05,15.51-1.35,6.88-1.89,12.54-2.16,15.91-.4,5.8-.54,8.77.14,11.73.54,2.43,1.89,8.36,7.15,12.27,7.69,5.66,17.4,2.43,18.47,2.02-1.48-.14-13.35-.4-18.21-8.9-2.29-4.05-2.02-8.09-1.75-11.73.54-7.15,2.97-10.65,9.44-23.73,3.64-7.28,7.01-14.56,10.38-22.39,2.29-5.39,4.05-9.98,5.8-15.24,1.35-4.05,2.16-7.28,3.1-10.79,1.89-6.88,3.1-12.27,3.51-14.56,1.89-8.76,3.78-17.93,4.72-30.07,0-.94.27-4.99.4-11.19,0,0,.27-17.93-2.02-38.16-3.78-31.96-14.56-72.82-16.05-77.94,0-.09-.05-.18-.14-.27l.81.81c0,.14.13.27.13.4,3.64,11.06,7.96,26.43,11.6,44.91.67,3.37,1.21,6.74,1.89,10.38.13.67.27,1.21.27,1.89,3.1,18.07,5.8,39.51,3.91,66.08-2.83,37.76-13.22,65.4-17.4,75.52-4.72,12.27-9.98,22.12-14.16,29.4Z"/>
  <path class="cls-14" d="M493.14,641.16s-3.24,19.82-20.77,26.97c3.91-2.29,10.65-7.01,15.24-15.24.81-1.48,3.37-6.47,4.72-17.94.14-1.75.54-4.99.54-9.3,0-2.83,0-6.34-.27-10.11-.54-6.47-1.62-14.03-4.04-22.25-1.62-5.53-3.78-13.21-9.3-22.38-3.37-5.66-7.01-10.11-9.84-13.08-.13-.13-.27-.27-.27-.4v-1.62s20.5,16.59,24.14,57.58c.27,3.1.4,6.47.54,9.84.13,5.66-.14,11.6-.67,17.94Z"/>
  <path class="cls-10" d="M278.46,325.2h.94c1.35-.54,5.12-4.85,5.53-5.39-1.75-2.43-4.45-6.07-7.82-10.38-7.15-9.3-10.79-14.02-14.3-17.26-2.83-2.7-3.64-3.1-11.6-10.38-2.16-2.02-2.83-2.56-4.05-3.51-2.16-1.62-6.34-4.86-12.27-6.74-6.74-2.16-12.95-1.35-16.45-.67-5.53,2.02-11.06,4.05-16.59,6.2l-12,8.9-11.6,10.25-13.08,13.22-16.72,22.25-12.14,28.59-6.2,17.67-4.58,30.88-2.43,40.32-4.85,53.4c-3.91,7.42-7.69,16.59-10.11,27.37-.67,3.1-1.21,6.07-1.62,8.9-4.58,12.95-9.3,25.89-13.89,38.84l-12,26.7-3.1,17.53-2.7,6.74v13.22l1.21,15.78,5.53,15.51,9.44,13.89,7.82,6.2-4.72-9.44c-1.35-2.83-2.83-5.66-4.18-8.5l-2.56-9.71-.67-15.51,2.97-25.08,5.53-15.91,6.47-19.15,9.3-27.1,7.28-20.9,9.84-24,14.56-41.13,9.84-24.68c.67-3.64.4-6.2,0-7.96-.4-1.35-1.08-3.24-.54-5.53.27-1.08.67-1.89,1.08-2.29l2.7-5.66,5.26-10.79,11.73-22.79,7.28-18.2,6.34-21.17,1.89-11.06,2.83-12.95,3.37-8.77,5.53-8.77,10.25-8.9,8.36-4.72,6.74-1.62,13.22-.54,13.89,3.91,10.65,6.07,8.5,7.42c.54,1.21,3.77,4.4,6.88,7.42Z"/>
  <path class="cls-13" d="M278.46,325.2h.94c1.35-.54,5.12-4.85,5.53-5.39-1.75-2.43-4.45-6.07-7.82-10.38-7.15-9.3-10.79-14.02-14.3-17.26-2.83-2.7-3.64-3.1-11.6-10.38-2.16-2.02-2.83-2.56-4.05-3.51-2.16-1.62-6.34-4.86-12.27-6.74-6.74-2.16-12.95-1.35-16.45-.67-5.53,2.02-11.06,4.05-16.59,6.2l-12,8.9-11.6,10.25-13.08,13.22-16.72,22.25-12.14,28.59-6.2,17.67-4.58,30.88-2.43,40.32-4.85,53.4c-3.91,7.42-7.69,16.59-10.11,27.37-.67,3.1-1.21,6.07-1.62,8.9-4.58,12.95-9.3,25.89-13.89,38.84l-12,26.7-3.1,17.53-2.7,6.74v13.22l1.21,15.78,5.53,15.51,9.44,13.89,7.82,6.2-4.72-9.44c-1.35-2.83-2.83-5.66-4.18-8.5l-2.56-9.71-.67-15.51,2.97-25.08,5.53-15.91,6.47-19.15,9.3-27.1,7.28-20.9,9.84-24,14.56-41.13,9.84-24.68c.67-3.64.4-6.2,0-7.96-.4-1.35-1.08-3.24-.54-5.53.27-1.08.67-1.89,1.08-2.29l2.7-5.66,5.26-10.79,11.73-22.79,7.28-18.2,6.34-21.17,1.89-11.06,2.83-12.95,3.37-8.77,5.53-8.77,10.25-8.9,8.36-4.72,6.74-1.62,13.22-.54,13.89,3.91,10.65,6.07,8.5,7.42c.54,1.21,3.77,4.4,6.88,7.42Z"/>
  <path class="cls-21" d="M311.16,18.15l1.42-4.48,3.18-2.98h3.24l3.29,1.73,2.58,2.17,2.13-.35,4.65-.23,6.39.4,6.62,1.04,6.64,2.17,8.76,4.37,7.69,6.9,6.12,6.82,2.71,5.26,3.59,8.55,1.82,6.42,1.27,7.04,1.08,8.44v9.02l-.81,11.18-2.43,11.65-3.59,9.87-5.43,10.34-5.57,7.81-6.5,7.43-8.94,5.26-6.27,4.45-6.81-1.54-6.39-2.41-6.19-.68-8.73-.4-9.88-1.07-2.94-2.93-7.23-8.7-1.29-3.06.66-6.98.55-11.1.18-7.51.71-8.04,1.34-11.38,3.17-17.84,5.23-24.38,1.36-10.69,1.82-8.7.81-2.89Z"/>
  <path class="cls-2" d="M311.16,18.15l1.42-4.48,3.18-2.98h3.24l3.29,1.73,2.58,2.17,2.13-.35,4.65-.23,6.39.4,6.62,1.04,6.64,2.17,8.76,4.37,7.69,6.9,6.12,6.82,2.71,5.26,3.59,8.55,1.82,6.42,1.27,7.04,1.08,8.44v9.02l-.81,11.18-2.43,11.65-3.59,9.87-5.43,10.34-5.57,7.81-6.5,7.43-8.94,5.26-6.27,4.45-6.81-1.54-6.39-2.41-6.19-.68-8.73-.4-9.88-1.07-2.94-2.93-7.23-8.7-1.29-3.06.66-6.98.55-11.1.18-7.51.71-8.04,1.34-11.38,3.17-17.84,5.23-24.38,1.36-10.69,1.82-8.7.81-2.89Z"/>
  <path class="cls-14" d="M455.65,500.64c-.27-.27-.54-.67-.81-.94-.94-2.56-1.89-5.12-2.83-7.69-4.72-9.98-9.44-19.96-14.16-30.07l-10.92-30.21c-7.82-21.85-15.1-40.59-21.17-55.69-16.45-40.59-25.08-56.37-40.05-71.2-6.2-6.2-12-10.52-15.91-13.35,5.39,3.24,9.57,6.47,12.81,9.04,2.56,2.29,8.63,7.55,14.16,15.37.94,1.35,2.29,3.37,4.99,7.55,3.78,5.66,4.58,7.01,5.12,8.09.67,1.35.81,1.62,3.91,8.09,2.97,6.2,2.97,5.93,4.05,8.36,1.89,4.05,3.24,7.01,4.18,9.31,2.29,5.12,3.91,9.17,4.58,10.79,3.1,7.28,3.64,9.3,7.15,18.2,2.43,6.07,4.18,10.25,4.72,11.6,2.7,6.61,9.04,24,22.38,61.9.14.27.14.4.14.54,5.53,15.24,10.25,20.23,15.37,33.71.54,1.48,1.35,3.78,2.29,6.61Z"/>
  <path class="cls-10" d="M159.25,314.27v3.1c-1.62,2.29-3.37,4.72-5.12,7.28-1.08,1.62-6.47,9.84-11.73,20.9h-2.29c.54-1.08,1.08-2.29,1.62-3.37-6.47-7.01-17.26-21.04-21.31-41.13h2.16c.81,4.72,2.16,9.44,3.91,13.89v.14c.81,1.48,6.07,9.98,26.7,7.01,2.02-2.56,4.05-5.26,6.07-7.82Z"/>
  <path class="cls-20" d="M159.25,314.27v3.1c-1.62,2.29-3.37,4.72-5.12,7.28-1.08,1.62-6.47,9.84-11.73,20.9h-2.29c.54-1.08,1.08-2.29,1.62-3.37-6.47-7.01-17.26-21.04-21.31-41.13h2.16c.81,4.72,2.16,9.44,3.91,13.89v.14c.81,1.48,6.07,9.98,26.7,7.01,2.02-2.56,4.05-5.26,6.07-7.82Z"/>
  <path class="cls-14" d="M363.55,361.34c-.27-5.26-2.02-29.26-17.94-47.2-5.8-6.47-12-10.65-20.36-16.18-1.21-.81-6.47-4.18-12.68-5.39-4.32-.81-7.42-.27-8.5,0-.67.13-1.48.4-2.7.81-5.39,2.16-12,6.88-14.43,8.63-.13-.14-.27-.4-.27-.54,2.16-2.16,5.8-5.39,11.06-7.69,0,0,3.24-1.48,6.88-2.29h.4c10.79-2.16,38.03,10.92,51.11,37.49,2.97,6.07,7.28,17.13,7.42,32.36Z"/>
  <path class="cls-14" d="M493.27,550.67c-.27.4-.4.67-.67,1.08-2.97,4.05-7.28,7.55-13.48,9.84,6.74-3.64,10.65-7.69,12.95-11.19.27-.4.4-.67.67-1.08.14-.27.4-.67.54-.94,14.02-25.22-13.48-65.81-21.71-76.06-7.69-9.44-14.02-20.23-22.79-28.72-.13-.14-.54-.4-.81-1.08-.27-.54-.4-.94-.4-1.21-.27-1.35-.4-1.89-.54-2.83-.14-2.16-2.97-16.45-5.66-26.03-1.48-5.26-4.18-11.6-9.57-24.54-1.89-4.59-3.64-8.77-6.34-14.3-.54-1.21-1.21-2.29-1.75-3.51-.13-.27-.27-.54-.4-.81-.13-.27-.27-.54-.4-.81-1.48-2.97-3.37-6.61-6.2-12-6.07-11.6-9.17-17.4-10.65-19.96-6.61-11.6-13.35-21.31-18.74-28.45-2.02-2.7-4.99-6.61-8.63-10.79-3.51-4.05-7.42-8.36-11.6-12.14-.27-.27-.54-.4-.67-.67-2.16-1.89-4.18-3.51-6.34-4.99-3.1-2.02-6.74-4.05-8.36-4.99-8.23-4.45-11.06-4.86-12.14-4.99-3.78-.27-6.74.67-8.9,1.48-11.46,4.18-22.12,16.18-25.62,20.5-.4.4-.67.81-.81,1.08.13-.27.4-.67.54-1.08,2.16-3.51,5.66-8.36,11.06-12.81,3.78-3.1,10.79-9.04,19.69-9.84,7.42-.67,13.89,2.29,19.42,6.07l1.35.94c.94.67,1.75,1.35,2.56,1.89,2.29,1.75,4.99,3.91,7.96,6.61.27.27.54.4.67.68,3.51,3.24,7.42,7.28,11.73,12.27.13.13.27.27.4.54,8.09,9.44,17.4,22.39,28.05,40.46,6.88,11.6,11.87,21.58,16.32,31.02.27.54.54,1.08.67,1.62,2.56,5.66,4.99,11.06,7.55,16.45,3.37,7.69,5.93,13.76,8.36,21.17.27.94.67,2.02.94,2.97.13.27.27.67.27,1.08,1.89,6.34,3.37,12.14,4.45,17.4.13.54.27,1.08.27,1.62v.27c.81,3.91,1.48,7.42,1.89,10.65,0,0,32.63,33.44,45.45,67.83.13-.27,9.84,24.14-.54,40.32Z"/>
  <path class="cls-14" d="M456.46,302c-1.35,2.02-2.7,3.51-3.78,4.45,14.83-20.63-1.62-53.27-21.85-80.91,0-.13-.14-.13-.14-.27-1.08-1.35-2.02-2.83-3.1-4.18-.27-.4-.54-.68-.81-1.08-18.34-23.87-38.43-42.88-40.59-45.04,16.32,14.56,28.59,28.05,36.95,38.16,1.21,1.48,2.29,2.83,3.37,4.18.27.4.54.67.81,1.08,1.21,1.48,2.43,2.97,3.51,4.45,13.62,17.66,19.55,29.94,23.33,39.65,9.04,23.46,5.8,33.98,2.29,39.51Z"/>
  <path class="cls-14" d="M470.08,274.22v2.56c0,.81-.14,1.75-.14,2.7-.54,9.04-2.83,23.46-11.6,38.3-12.95,21.98-32.1,31.56-39.11,34.66-.14-.94-.14-1.75-.14-2.43,6.88-2.83,22.79-10.52,35.06-28.05,12.95-18.61,14.16-37.89,14.02-47.33,0-1.62-.14-2.97-.14-3.91.67,1.21,1.35,2.29,2.02,3.51Z"/>
  <path class="cls-14" d="M500.42,421.89c-.68,3.37-1.21,4.99-1.75,6.07-1.21,2.97-3.91,9.17-9.71,11.33-6.07,2.29-12-1.08-15.51-2.97-5.66-3.1-8.9-7.42-10.38-9.84.13-.27.4-.4.54-.67,25.22,28.99,34.39,1.21,34.39,1.21,7.55-22.25-1.75-53.4-5.39-64.05-.81-2.43-1.35-3.78-1.35-3.78v-2.29c.4.94.94,2.16,1.48,3.37.81,2.16,1.75,4.59,2.7,7.42.4,1.35,2.02,6.2,3.51,14.02,1.08,5.12,2.43,12.27,2.7,21.98.4,7.82-.13,13.35-1.21,18.21Z"/>
  <path class="cls-14" d="M489.77,343.27l.14.14s-.14,0-.14-.14Z"/>
  <path class="cls-14" d="M285.06,319.8s-.13-.14-.27-.27c-.13-.27-.54-.67-.94-1.21-6.74-8.63-38.3-47.06-51.51-27.11l-2.83-1.62c1.62-2.43,4.86-5.93,9.57-7.01,5.12-1.21,10.38.94,18.74,7.42,6.88,5.12,16.59,14.02,26.03,28.18.4.4.81,1.08,1.21,1.62Z"/>
  <path class="cls-14" d="M251.89,282.31c-3.51-3.51-11.19-9.71-22.39-10.92-12.27-1.62-21.85,3.78-30.75,8.63-9.44,5.26-15.37,10.92-22.39,17.8-2.83,2.7-9.57,9.44-17.13,19.69-1.62,2.29-3.37,4.72-5.12,7.28-1.08,1.62-6.47,9.84-11.73,20.9-1.08,2.29-2.29,4.72-3.37,7.28-5.53,13.21-8.5,25.35-10.52,40.19-1.48,10.79-2.56,22.92-3.78,37.89-.4,4.59-.94,10.52-1.62,17.8-.13.94-.13,1.89-.27,2.83-.13,1.62-.27,3.24-.4,4.99-.13.81-.13,1.75-.27,2.56-1.08,11.73-2.29,26.16-3.91,43.02,0,.4,0,.67-.13,1.08-.4.4-.94.94-1.35,1.48l3.37-42.75.27-2.7.4-5.66.27-3.1,4.05-52.19c.27-2.02.54-4.18.94-6.47,0-.13.13-.4.13-.67.27-1.89.67-3.91,1.08-5.93.13-.67.27-1.35.4-2.02,1.89-8.63,4.45-18.47,8.5-28.72.13-.4.27-.81.54-1.21.94-2.56,2.02-5.12,3.24-7.69.54-1.08,1.08-2.29,1.62-3.37l1.48-3.1c2.43-4.72,5.12-9.44,8.23-14.16l1.89-2.83c1.89-2.7,3.78-5.26,5.8-7.82,3.37-4.18,7.01-8.23,10.92-12.14,3.37-3.37,8.36-8.23,14.16-13.22l1.89-1.48c4.72-3.78,9.98-7.55,15.64-10.52,10.38-5.66,21.85-8.77,33.17-5.53,7.96,2.16,13.49,6.88,17.13,10.79Z"/>
  <path class="cls-14" d="M234.09,277.46c-4.59.13-11.73.81-19.82,3.37-9.31,2.97-24.27,10.11-49.9,45.31-9.71,13.49-22.39,32.77-34.25,57.72.13-1.35.4-2.56.67-3.91,14.97-32.09,31.42-55.02,43.56-69.85,16.59-20.23,29.26-30.48,45.45-32.77,5.93-.81,10.92-.4,14.29.14Z"/>
  <path class="cls-22" d="M231.12,149.48c-8.23,1.35-15.51,4.72-21.85,9.17h-.13c-5.66,4.05-10.65,8.77-14.56,13.35,2.16-3.91,4.32-7.69,6.61-11.6-5.12-1.21-13.22-3.64-21.17-9.84-16.99-13.22-19.96-32.9-20.9-39.11,0,0-2.83-18.21,7.42-43.83,1.21-2.97,2.43-4.99,3.24-6.34,3.37-5.12,7.55-8.36,10.52-10.11,0,0-2.16,3.1-2.56,3.64-.4.67-2.29,3.51-2.83,10.25-1.21,14.02,2.56,26.3,2.56,26.3,4.04,13.49,10.92,21.98,12.95,24.27,5.12,6.2,10.52,10.25,14.43,12.81-2.29-4.58-3.37-8.63-4.05-11.46-3.64-15.31,2.14-28.74,4.18-33.58.15-.35.27-.63.35-.81.24.65.35.98.31,1-.01,0-.08-.09-.2-.32-.36.84-.9,2.09-1.47,3.65-1.13,3.17-2.63,7.3-2.82,12.41-.07,1.71.11,1.07.39,7.01.19,4.17.22,6.81.24,7.74.15,4.98,2.1,11.8,5.69,17.49,0,0,7.51,12,20.93,16.45.47.16,1.04.39,1.63.71.42.24.78.49,1.09.73h.01Z"/>
  <path class="cls-12" d="M231.12,149.48c-8.23,1.35-15.51,4.72-21.85,9.17h-.13c-5.66,4.05-10.65,8.77-14.56,13.35,2.16-3.91,4.32-7.69,6.61-11.6-5.12-1.21-13.22-3.64-21.17-9.84-16.99-13.22-19.96-32.9-20.9-39.11,0,0-2.83-18.21,7.42-43.83,1.21-2.97,2.43-4.99,3.24-6.34,3.37-5.12,7.55-8.36,10.52-10.11,0,0-2.16,3.1-2.56,3.64-.4.67-2.29,3.51-2.83,10.25-1.21,14.02,2.56,26.3,2.56,26.3,4.04,13.49,10.92,21.98,12.95,24.27,5.12,6.2,10.52,10.25,14.43,12.81-2.29-4.58-3.37-8.63-4.05-11.46-3.64-15.31,2.14-28.74,4.18-33.58.15-.35.27-.63.35-.81.24.65.35.98.31,1-.01,0-.08-.09-.2-.32-.36.84-.9,2.09-1.47,3.65-1.13,3.17-2.63,7.3-2.82,12.41-.07,1.71.11,1.07.39,7.01.19,4.17.22,6.81.24,7.74.15,4.98,2.1,11.8,5.69,17.49,0,0,7.51,12,20.93,16.45.47.16,1.04.39,1.63.71.42.24.78.49,1.09.73h.01Z"/>
  <path class="cls-14" d="M251.89,261.01c-.67-2.43-18.21-65,5.39-91.43-2.56,4.31-5.8,10.79-8.09,19.28,0,0-1.62,5.8-2.43,12.68-2.16,20.23,4.45,56.1,5.12,59.47Z"/>
  <path class="cls-14" d="M329.29,223.25c0,.4-.13.81-.13,1.21-.27,1.75-.54,3.24-.67,4.32-.14.81-.27,1.48-.27,1.75,1.35-9.71,2.43-25.76-3.51-43.83-3.77-11.73-12.27-37.89-29.53-39.24-11.46-.94-23.33,9.58-31.02,24,.67-2.16,6.61-19.55,23.06-24,2.16-.54,7.01-1.89,12.54-.54,16.05,3.78,22.79,25.08,26.16,35.47,4.59,14.83,4.85,28.99,3.37,40.86Z"/>
  <path class="cls-14" d="M329.29,223.25c1.62-11.6,3.91-34.12-1.08-49.9-2.97-9.57-7.96-16.18-7.96-16.18-4.04-5.39-8.63-9.04-11.73-11.06v-2.02c38.3,25.76,20.09,84.42,19.55,86.3,0-.27.13-.94.27-1.75.27-1.35.54-2.83.68-4.31.13-.27.13-.67.27-1.08Z"/>
  <path class="cls-14" d="M295.18,147.6c.27.13.67.4,1.35.81-.4-.27-.94-.54-1.35-.81Z"/>
  <path class="cls-14" d="M279.4,325.2c-.54.27-1.08.67-1.48,1.08-3.51-4.58-7.42-8.49-11.6-12-.09-.09-.18-.18-.27-.27-1.48-1.21-3.1-2.43-4.58-3.51-.4-.27-.94-.68-1.35-.94-11.73-7.69-24.95-10.65-36.95-7.55-3.91.94-7.55,2.56-10.52,4.32-5.39,3.1-9.17,6.88-11.33,9.3-11.19,12.41-11.19,26.16-14.97,43.42-2.83,13.08-8.36,31.15-20.63,51.92,0,0-6.34,12.54-13.49,28.18-.27.54-.54,1.21-.81,1.75-8.77,19.55-18.34,43.42-18.07,53.67-.81-2.56-.94-4.59-1.08-6.07-.13-3.24.27-6.61,4.58-19.28.94-2.97,1.48-4.45,2.02-5.93,5.26-13.89,18.07-37.76,22.79-46.66,14.97-28.59,19.28-42.48,20.63-46.79,2.83-9.57,4.18-16.18,4.18-16.18,2.02-10.38,1.48-13.35,3.37-19.82.68-2.16,3.1-10.52,9.31-17.93,4.05-4.99,8.9-8.36,13.49-10.79,7.69-4.04,14.56-5.12,16.18-5.26,1.75-.27,3.37-.27,4.99-.27,25.76,0,44.5,24.14,45.58,25.62Z"/>
  <path class="cls-14" d="M304.08,261.14c29.26-80.51.27-107.21-7.28-112.6,4.86,3.24,8.63,6.74,11.46,10.25,28.86,35.33-2.02,98.17-4.18,102.35Z"/>
  <path class="cls-14" d="M166.66,264.24c-3.51-8.63-7.82-21.85-8.9-38.16-1.08-15.78.94-28.86,3.1-37.89,1.62-1.35,3.37-2.56,5.12-3.91.13,0,.13-.13.27-.13-3.78,11.33-8.09,29.8-5.8,52.19,1.08,10.92,3.51,20.36,6.2,27.91Z"/>
  <path class="cls-14" d="M127.83,485.13c-1.89,6.47-4.58,12.14-9.44,22.38-3.51,7.28-4.58,8.9-6.61,14.16-3.1,7.96-4.45,14.16-5.12,16.86-1.62,7.15-3.1,10.38-8.63,24.81-.13.54-.4,1.08-.54,1.48,0,.14-.13.14-.13.27-.13.27-.27.67-.4,1.08-1.21,3.24-2.56,6.88-4.18,11.19-9.3,24.95-14.02,37.49-14.97,42.61-1.89,10.79-4.32,25.62,1.48,42.75,4.58,13.62,12.54,22.65,15.78,26.3,1.21,1.35,2.43,2.7,3.64,3.91,5.26,5.26,10.38,9.04,14.43,11.6.13.13-20.77-10.79-31.56-31.69-14.7-28.86-3.64-65.13-.13-73.9,3.37-8.5,5.12-12.68,5.12-12.68,0,0,6.2-14.56,7.96-19.28.27-.54.4-1.21.67-1.75.13-.41.27-.81.4-1.21.13-.13.13-.27.13-.54.27-.67.4-1.21.67-1.75,13.62-36.28,10.65-39.65,20.36-56.91.4-.81.94-1.62,1.48-2.56,2.83-4.99,6.88-12.81,9.57-23.6,1.75-7.01,2.43-13.08,2.7-16.86.4,10.11-1.21,18.07-2.7,23.33Z"/>
  <path class="cls-14" d="M233.01,153.26c-28.32,12.27-47.74,38.03-50.03,66.89-.94,12.14,2.16,24.27,3.37,28.59.27,1.08.54,1.62.54,1.62,2.43,7.42,6.07,13.89,9.17,18.61,2.43,3.64,4.45,6.2,5.26,7.28.27.27.4.4.4.54-1.62-1.62-4.85-5.26-8.49-10.52-6.47-9.44-13.76-24.41-13.22-43.02,1.08-30.21,21.85-57.85,53-69.99Z"/>
  <path class="cls-14" d="M201.86,276.79q.09,0,0,0c-.14,0-4.32-3.91-8.5-10.52-2.29-3.64-4.45-8.09-5.93-13.21-.4-1.48-.81-2.97-1.08-4.32-1.21-6.47-.81-12-.4-17.93.4-6.2,2.16-21.04,11.06-37.62,5.39-9.98,11.6-17.26,16.05-21.98-7.42,8.77-19.55,25.22-24.27,46.25-2.02,9.17-2.02,16.32-2.02,18.34.13,4.99.4,15.78,6.07,27.65,1.08,2.16,2.02,4.05,3.1,5.66,2.29,3.78,4.45,6.2,5.26,7.28.54.14.67.27.67.4Z"/>
  <path class="cls-14" d="M279.4,309.55c-2.02-4.18-5.39-10.25-10.65-16.86-9.71-12.27-17.13-15.37-27.78-27.24-4.72-5.26-10.52-11.73-14.43-20.63-10.79-24-1.35-49.63,2.29-59.6,6.2-17.13,15.91-29.53,24-37.76l1.21-1.21c.4.27.81.54,1.08.81-11.46,11.6-17.94,23.06-21.71,30.75-4.59,9.71-11.6,24.54-10.25,43.83.67,10.52,3.51,18.07,4.18,19.69,4.18,10.79,10.25,17.67,16.59,24.68,8.9,9.85,11.6,9.98,19.01,18.21,5.53,6.2,11.46,14.43,16.45,25.35Z"/>
  <path class="cls-14" d="M327.95,230.67c-.27,1.08-11.06,34.52-23.87,42.07l-17.4,23.19,17.4-29.26,23.87-36.01Z"/>
  <path class="cls-10" d="M101.26,567.66l-6.47-6.47-2.16-4.45-1.89-4.99-1.21-8.5.54-8.77,2.02-12,2.83-9.17,6.34-16.99,6.74-14.97,10.11-17.67,4.05-5.39,13.75-17.8,5.53-4.58,3.91-4.45,10.25-9.03,1.62-10.79-6.61,7.28-5.26,7.96-2.83,4.72-7.96,7.15-9.71,8.63-7.96,8.63-8.77,10.11-4.05,5.53-7.69,12.54-5.53,11.46-4.18,10.38-3.37,10.38-1.75,13.75.54,13.62,5.12,12.54,4.18,4.99,4.58,3.37,5.26,2.97Z"/>
  <path class="cls-16" d="M101.26,567.66l-6.47-6.47-2.16-4.45-1.89-4.99-1.21-8.5.54-8.77,2.02-12,2.83-9.17,6.34-16.99,6.74-14.97,10.11-17.67,4.05-5.39,13.75-17.8,5.53-4.58,3.91-4.45,10.25-9.03,1.62-10.79-6.61,7.28-5.26,7.96-2.83,4.72-7.96,7.15-9.71,8.63-7.96,8.63-8.77,10.11-4.05,5.53-7.69,12.54-5.53,11.46-4.18,10.38-3.37,10.38-1.75,13.75.54,13.62,5.12,12.54,4.18,4.99,4.58,3.37,5.26,2.97Z"/>
  <path class="cls-10" d="M128.63,536.24l2.02,8.9,2.43,12.54,2.29,12.14,2.97,8.9,4.72,11.33,3.64,7.15,5.26,13.22,3.91,11.19,2.83,10.79,2.16,12.27.81,12.95-1.21,12-2.56,9.17-5.66,9.17-5.8,5.53-3.37,2.43.81-8.36-.13-12.27-.94-10.52-2.43-12.54-4.45-15.78-4.18-13.62-3.78-14.7-3.78-20.5-1.08-15.64v-14.83l1.89-11.06,2.02-9.17,1.62-.67Z"/>
  <path class="cls-9" d="M128.63,536.24l2.02,8.9,2.43,12.54,2.29,12.14,2.97,8.9,4.72,11.33,3.64,7.15,5.26,13.22,3.91,11.19,2.83,10.79,2.16,12.27.81,12.95-1.21,12-2.56,9.17-5.66,9.17-5.8,5.53-3.37,2.43.81-8.36-.13-12.27-.94-10.52-2.43-12.54-4.45-15.78-4.18-13.62-3.78-14.7-3.78-20.5-1.08-15.64v-14.83l1.89-11.06,2.02-9.17,1.62-.67Z"/>
  <path class="cls-14" d="M171.25,291.75s-23.6,2.83-45.71-21.04l45.71,21.04Z"/>
  <path class="cls-14" d="M186.35,287.44l-1.89,1.48c-31.29-2.7-36.01-20.23-36.01-20.23,2.7,3.37,8.09,9.44,16.99,13.76,8.63,4.18,16.59,4.86,20.9,4.99Z"/>
  <path class="cls-14" d="M210.09,291.75c-3.51,2.83-8.23,7.15-12.95,13.22-4.58,5.8-7.01,10.65-7.55,11.6-4.72,9.3-5.93,17.4-6.74,22.11,0,0-2.43,14.7-9.03,36.41-1.62,5.39-11.46,36.54-35.2,60.55-2.97,2.97-5.53,5.39-12,12-1.35,1.35-2.56,2.7-3.78,3.91l-2.02,2.02c-8.23,8.5-12.95,13.76-17.13,19.55,0,0-14.16,19.55-20.36,46.39-.94,3.91-1.75,8.5-1.48,14.29.13,4.59.54,13.62,6.47,22.39,2.29,3.24,4.85,5.8,7.28,7.82.54.41,1.08.81,1.62,1.21,0,0,.13,0,.13.13.94.67,1.75,1.21,2.56,1.75,2.02,1.21,3.78,2.02,5.12,2.56-2.7-.81-5.53-1.89-8.23-3.37-.54-.27-1.08-.67-1.75-.94-2.7-1.62-5.26-3.78-7.42-6.47-17.53-21.71-.54-68.91,23.33-97.77,3.78-4.59,7.01-7.82,9.98-10.52.67-.54,1.35-1.21,2.02-1.75,6.88-6.07,13.22-10.38,23.33-24,13.62-18.2,21.04-35.6,24.54-44.77,14.29-37.76,8.63-60.28,29.53-80.64,4.04-3.78,7.55-6.2,9.71-7.69Z"/>
  <path class="cls-14" d="M155.61,422.43c-14.97,13.08-25.76,26.03-33.31,36.68-.67.94-1.35,1.89-1.89,2.83-.94,1.35-1.75,2.7-2.56,3.91,0,0-14.43,22.25-24.81,56.64-.67,2.16-2.97,10.25-2.56,20.5.27,5.66,1.21,8.9,2.16,11.46.4.94,1.62,3.91,4.18,7.28.4.54.94,1.21,1.48,1.75.27.4.67.67,1.08,1.08,2.29,2.29,4.45,3.91,6.2,4.99-1.48-.54-3.24-1.35-5.12-2.56-.94-.54-1.75-1.21-2.7-2.02-.4-.4-.81-.81-1.21-1.21-.09-.09-.18-.18-.27-.27-18.34-19.55,3.51-69.04,16.18-91.02,2.16-3.78,4.99-8.23,8.36-13.08.67-.94,1.21-1.89,2.02-2.7,7.28-10.52,17.94-22.52,32.77-34.25Z"/>
  <path class="cls-14" d="M128.5,537.32c-.13.4-11.33,36.95,4.45,88.06,1.89,6.07,3.64,10.65,6.07,19.96,2.16,8.5,4.72,18.61,5.39,30.07.54,9.04-.27,18.34-.27,18.74-.13.81-.13,1.62-.27,2.29-1.21,11.73-4.58,24-13.62,33.98-1.08,1.08-17.26,18.61-28.72,13.08-6.88-3.24-8.5-12.81-8.9-16.05.4,2.02,2.56,10.65,9.57,13.62,4.99,2.16,10.52.4,14.83-2.02.94-.54,1.75-1.08,2.56-1.62,2.56-1.62,4.45-3.37,5.66-4.32,12.27-10.52,14.97-25.76,16.59-35.47.67-4.05,2.16-13.49.67-28.59-1.89-19.96-6.2-24-13.89-55.29-4.85-19.28-6.47-31.15-7.01-42.75-.54-10.52.13-18.47,2.16-26.7.67-2.83,1.48-4.99,4.05-10.92.13-.27.27-.67.4-.94.27-.54.54-1.21.81-1.75.81-1.89,1.75-4.05,2.97-6.61,1.21-2.83,11.73-25.08,15.91-38.43,2.43-7.69,4.58-18.07,4.45-31.56v-2.29c-.13-3.51-.4-7.15-.81-10.92.27-.54.54-1.21.81-1.75,3.51,16.32,2.16,28.86.54,36.82-2.56,12.41-7.82,23.46-9.84,27.65-3.51,7.42-8.63,16.32-13.62,31.02-.54,1.48-.81,2.7-.94,2.7Z"/>
  <path class="cls-14" d="M132.28,506.44l-15.37,41.13c-2.56,7.55-6.61,19.69-11.73,34.66-.4,1.35-.94,2.7-1.35,3.91-9.98,28.72-12.54,34.79-14.43,47.06-2.16,14.16-4.32,29.4,2.83,45.85,5.8,13.08,15.1,21.17,20.77,25.49-6.34-3.64-10.92-7.82-14.43-11.6-4.05-4.58-6.47-8.63-7.82-11.33-7.55-15.1-5.53-30.34-3.51-44.64,1.48-10.65,4.18-19.55,5.93-25.08,2.56-8.5,4.05-11.06,8.36-21.98,4.99-13.08,4.05-12,14.97-43.42,5.12-14.56,7.96-22.39,9.03-25.49,2.43-6.74,4.85-12.81,7.82-20.77,4.18-10.92,10.52-27.11,19.01-48.01.13-.4.27-.67.4-1.08,0,.67.13,1.35.13,2.02l-.54,1.21"/>
  <path class="cls-14" d="M128.5,703.59c-1.62,13.08-7.15,29.4-8.77,33.98-.13.27-.13.54-.27.67-.94.67-1.89,1.35-2.83,2.02.13-.4.4-.67.54-1.08,4.45-8.5,9.84-21.71,10.65-38.16.81-16.86-3.78-28.18-6.47-31.83-2.02-2.83-3.91-5.12-3.91-5.12-3.1-3.78-4.05-4.45-5.39-6.47-1.48-2.16-2.7-4.58-3.91-8.63-4.45-15.1-5.26-28.86-5.26-28.86-.4-8.5-.54-20.09.94-33.85.4-1.35.94-2.7,1.35-3.91-.54,3.78-1.08,9.44-1.48,16.05-.54,11.87-1.21,23.6,2.16,37.89,2.7,11.06,3.91,16.59,8.23,21.85,2.83,3.51,7.15,7.42,10.79,14.97,1.62,3.37,2.43,5.93,2.7,7.01,1.35,4.85,1.35,8.77,1.48,13.08,0,.81,0,5.26-.54,10.38Z"/>
  <path class="cls-14" d="M144.01,696.44c-.67.4-1.35.81-2.02,1.21l.67-2.56c.54-.27,1.08-.67,1.62-.94,2.56-1.75,5.8-4.32,8.63-8.09,6.07-8.09,6.74-16.72,7.42-25.89,1.21-18.34-3.24-32.77-5.66-40.86-3.1-9.71-7.15-18.88-7.55-19.69-4.32-9.57-6.74-12.41-9.57-20.77-1.08-3.1-1.89-6.07-4.05-16.99-1.35-6.34-2.97-14.56-4.72-24.54-.27-1.21-.4-2.56-.67-3.77.13-.27.27-.68.4-.94.27-.54.54-1.21.81-1.75,0,0,.13,1.35.4,3.78,1.21,10.65,5.26,40.99,15.91,58.39-.27.14,38.43,76.73-1.62,103.43Z"/>
  <path class="cls-14" d="M121.89,441.44c-1.89-.81-79.7-31.55-38.57-100.46.13-.14.13-.27.27-.4l2.02,4.58c-.54.81-1.21,1.89-1.89,2.97-4.32,6.88-9.44,17.94-8.77,31.42.94,20.09,14.02,33.85,23.06,43.29,8.63,9.3,17.53,15.1,23.87,18.61Z"/>
  <path class="cls-14" d="M121.89,410.42c-.94-.81-29.26-26.84-32.5-43.69-.13-.4-.13-.94-.13-1.35v-.27l-.94-9.3c1.21,5.26,3.51,12.68,7.96,20.9,1.21,2.02,2.97,5.12,8.36,12.41,4.05,5.39,9.71,12.81,17.26,21.31Z"/>
  <path class="cls-14" d="M143.2,339.09l-1.48,3.1c-6.47-7.01-17.26-21.04-21.31-41.13-.13-.81-.27-1.48-.4-2.29-2.16-12.68-.81-22.92.27-31.15,1.62-11.19,5.53-28.18,16.18-47.06-.54,1.08-20.9,42.48-13.89,80.51.81,4.72,2.16,9.44,3.91,13.89v.14c.54,1.21,1.08,2.43,1.62,3.64,3.64,7.42,8.5,14.29,15.1,20.36Z"/>
  <path class="cls-14" d="M128.5,393.03c-.13-.14-.94-.4-2.29-1.21-7.55-4.45-31.15-22.25-36.68-75.25-.27-2.29-.4-4.72-.67-7.15l.94-3.1c.13,1.62.27,3.37.54,5.12.81,6.2,2.02,13.76,4.05,22.25,2.16,8.76,4.18,17.13,7.96,25.62.67,1.48,1.35,2.97,2.16,4.45,1.35,2.56,2.83,5.26,4.58,7.96,3.37,5.12,8.77,12.27,17.26,19.28.67.94,1.48,1.48,2.16,2.02Z"/>
  <path class="cls-14" d="M127.83,383.18v2.29c-.13-.14-.27-.14-.4-.27-6.34-3.1-15.1-8.63-21.31-18.47-.54-.94-1.08-1.89-1.62-2.83-.81-1.48-1.48-2.97-2.16-4.45-2.56-6.34-3.64-12.81-4.58-19.69-1.48-9.71-1.21-17.26-.94-22.79.4-8.76,1.75-21.17,5.93-35.73-.54,2.56-9.17,42.34-.81,71.88.27.94.54,2.02.94,2.97,4.05,12.81,11.73,23.19,24.95,27.11Z"/>
  <path class="cls-14" d="M136.86,353.25c-.13.4-.27.81-.54,1.21-6.2,3.37-11.6,4.72-15.24,5.26-3.91.67-7.69,1.21-12.27-.27-2.7-.94-4.72-2.16-6.2-3.24-.13-.13-.27-.27-.4-.27l-.54-2.56c10.38,13.62,35.2-.14,35.2-.14Z"/>
  <path class="cls-22" d="M259.85,13.55c-4.04.27-7.82.81-11.46,1.48.94,8.09,2.43,16.72,4.59,25.49,7.96,33.04,22.52,59.74,37.35,80.37.05,1,.12,2.01.18,3.01-.49-1.16-1.07-2.4-1.77-3.69-.57-1.04-1.13-2-1.7-2.86-5.33-3.56-11.14-7.19-17.48-10.75-5.26-2.97-10.36-5.6-15.24-7.96,0,0-11.06-6.61-21.31-18.21-.27-.27-.54-.54-.81-.81-7.69-9.03-12.81-19.28-16.32-28.45-.27-.67-.54-1.35-.68-1.89-.81-2.29-1.48-4.32-2.16-6.47-.13-.54-.27-.94-.4-1.48-1.62-5.93-2.56-10.79-3.1-13.75-6.2,2.97-11.73,5.66-16.45,9.03.04-.81.08-1.62.12-2.43,2.98-2.02,7.23-4.67,12.58-7.23,3.45-1.65,6.06-2.64,9.43-3.92,2.44-.93,8.62-3.22,16.96-5.52,2.1-.59,4.28-1.15,6.49-1.66,19.01-4.37,36.8-4.15,52.12-2.01-.24.22-.49.43-.73.66-8.63-1.21-18.88-1.75-30.21-.94h-.01Z"/>
  <path class="cls-18" d="M259.85,13.55c-4.04.27-7.82.81-11.46,1.48.94,8.09,2.43,16.72,4.59,25.49,7.96,33.04,22.52,59.74,37.35,80.37.05,1,.12,2.01.18,3.01-.49-1.16-1.07-2.4-1.77-3.69-.57-1.04-1.13-2-1.7-2.86-5.33-3.56-11.14-7.19-17.48-10.75-5.26-2.97-10.36-5.6-15.24-7.96,0,0-11.06-6.61-21.31-18.21-.27-.27-.54-.54-.81-.81-7.69-9.03-12.81-19.28-16.32-28.45-.27-.67-.54-1.35-.68-1.89-.81-2.29-1.48-4.32-2.16-6.47-.13-.54-.27-.94-.4-1.48-1.62-5.93-2.56-10.79-3.1-13.75-6.2,2.97-11.73,5.66-16.45,9.03.04-.81.08-1.62.12-2.43,2.98-2.02,7.23-4.67,12.58-7.23,3.45-1.65,6.06-2.64,9.43-3.92,2.44-.93,8.62-3.22,16.96-5.52,2.1-.59,4.28-1.15,6.49-1.66,19.01-4.37,36.8-4.15,52.12-2.01-.24.22-.49.43-.73.66-8.63-1.21-18.88-1.75-30.21-.94h-.01Z"/>
  <path class="cls-14" d="M153.45,322.1l-1.89,2.83s-17.4,2.02-23.19-6.07c-.81-1.08-1.35-2.43-1.62-3.78v.14c.67,1.48,6.07,9.84,26.7,6.88Z"/>
  <path class="cls-14" d="M211.97,155.55c-.94,1.08-1.89,2.16-2.7,3.24-1.75.81-3.64,1.75-5.66,2.7-9.17,4.45-20.09,10.52-31.69,18.61-1.48.94-3.37,2.29-5.66,4.04-.13,0-.13.13-.27.13-1.48,1.08-3.24,2.43-5.12,3.91-4.18,3.24-9.04,7.28-14.29,12-10.92,9.98-21.44,19.55-31.02,35.06-.4.67-.81,1.48-1.35,2.16-2.56,4.32-4.58,8.23-6.07,11.46-.54,1.35-1.08,2.43-1.62,3.51,2.97-9.57,6.74-17.13,9.98-22.39,1.21-2.16,2.56-4.05,3.64-5.8.13-.27.4-.54.54-.81,2.56-3.78,4.85-6.47,6.2-7.96,4.72-5.39,8.63-8.77,13.89-13.08,14.97-12.54,22.39-18.74,24.41-20.23,7.28-5.39,18.61-12.95,34.25-20.9l1.62-.81c3.51-1.48,7.01-3.24,10.92-4.85Z"/>
  <path class="cls-22" d="M372.85,33.38l13,3.43,18.03,7.86,8.56,7.47,4.85,6.86,2.62,7.15v1.71l4.05,2.35,6.7,5.66,8.01,7.55,5.06,6.94,3.57,9.78.35,7.48-.89,10.02-2.93,9.36-4.36,8.86-6.7,9.75-8.67,8.24-8.28,5.93-10.9,5.62-9.79,3.86-8.54,2.35-5.57-3.34-12.82-7.59-7.9-5.08-9.65-4.44-6.58-2.76,9.53-5.43,10.69-6.82,11.33-6.88,17.09-10.45,6.53-5.66,4.1-3.29,3.55-7.35.89-8.58-1.2-6.96-3.61-7.7-6.39-7.86-5.23-4.79-7.34-6.74-2.08-1.69-2.08-8.9-6.63-13.8-.36-2.12Z"/>
  <path class="cls-8" d="M372.85,33.38l13,3.43,18.03,7.86,8.56,7.47,4.85,6.86,2.62,7.15v1.71l4.05,2.35,6.7,5.66,8.01,7.55,5.06,6.94,3.57,9.78.35,7.48-.89,10.02-2.93,9.36-4.36,8.86-6.7,9.75-8.67,8.24-8.28,5.93-10.9,5.62-9.79,3.86-8.54,2.35-5.57-3.34-12.82-7.59-7.9-5.08-9.65-4.44-6.58-2.76,9.53-5.43,10.69-6.82,11.33-6.88,17.09-10.45,6.53-5.66,4.1-3.29,3.55-7.35.89-8.58-1.2-6.96-3.61-7.7-6.39-7.86-5.23-4.79-7.34-6.74-2.08-1.69-2.08-8.9-6.63-13.8-.36-2.12Z"/>
  <path class="cls-14" d="M231.12,149.48c-8.23,1.35-15.51,4.72-21.85,9.17h-.13c-5.66,4.05-10.65,8.76-14.56,13.35-7.55,8.63-11.87,16.59-12.41,17.67,1.89-4.31,5.12-10.79,10.65-17.67,1.89-2.43,4.05-4.72,6.61-7.15,1.35-1.35,2.7-2.56,4.18-3.64,2.83-2.29,5.66-4.32,8.5-5.93,6.07-3.64,11.6-5.8,15.51-7.01l1.35-.4c.67.67,1.35,1.21,2.16,1.62Z"/>
  <path class="cls-14" d="M368.27,217.99c-2.16,29.94-24.27,50.03-25.62,49.09-1.62-1.08,28.05-28.32,24.54-60.28-4.58-40.59-54.08-62.44-54.08-62.44.14-.13.27-.4.4-.54l.4-.4c.4.27.94.4,1.35.67,4.32,2.02,9.84,5.12,15.78,9.3,10.52,7.42,27.91,19.55,34.66,41.26.81,2.16,3.51,11.33,2.56,23.33Z"/>
  <path class="cls-14" d="M492.87,360.26c-.14.94-.14,1.75-.27,2.7-1.21,12.41-4.58,24.68-11.06,36.01-4.45,7.69-14.16,21.58-34.93,32.77v-.27l-.4-1.62c14.7-7.28,23.33-16.59,27.91-22.39,12.54-16.05,16.45-34.12,17.13-48.95v-1.21c.13-5.12,0-9.71-.27-13.76v-.4c-.27-3.64-.67-6.74-.94-9.17-.94-7.96-2.16-18.07-7.69-29.26-1.89-3.64-3.24-5.66-6.74-12.95-.13-.27-.13-.4-.27-.67-2.29-4.72-3.91-8.23-5.39-11.73-.67-1.62-1.21-3.1-1.75-4.86-.14-.67-.4-1.21-.54-1.89-1.48-5.39-2.43-10.79-3.24-14.97-.94-5.12-1.35-8.77-1.48-9.71-2.16-16.05-20.9-34.79-22.79-36.54-5.53-5.39-9.71-7.96-18.61-14.02-.14-.14-.4-.27-.54-.4l-.14-.14c-3.64-2.43-7.96-5.53-13.35-9.44-3.64-2.7-40.32-29.26-62.44-37.62-1.08-.4-2.02-.67-2.97-1.08-5.66-1.75-12.68-4.04-19.69-4.32-.94,0-3.64-.13-7.15-.54-.54,0-1.08-.13-1.62-.13h-.13c-3.24-.4-5.93-.94-7.69-1.21.54-.13,1.08-.13,1.75-.13,2.83-.27,6.34-.4,10.52-.27,2.02.14,4.04.27,5.93.4l2.02.27c.81.13,1.62.27,2.29.4,1.62.27,3.24.67,4.72.94.67.13,1.48.27,2.16.54,3.24.81,6.34,1.89,9.04,2.83.94.4,1.89.68,2.7,1.08,1.62.68,3.24,1.35,4.58,2.02,2.97,1.35,5.93,2.83,9.17,4.45l.94.54c7.15,3.64,15.37,8.36,26.3,15.51.14.13.4.27.54.4,6.07,3.91,13.08,8.63,21.17,14.16,1.48.94,2.83,1.89,4.18,2.83.4.27.67.54,1.08.68,5.39,3.78,9.71,6.88,13.22,9.44l1.48,1.08c9.57,7.01,12.27,9.98,14.7,12.81,6.47,7.69,16.72,19.69,20.23,37.35,1.48,7.69.81,11.46,3.64,20.9.67,2.16,1.35,4.18,2.02,6.07,3.37,9.17,7.55,15.24,8.9,17.53,6.34,10.11,12.68,28.99,13.89,49.9v.4c.27,4.99.27,10.25-.13,15.64Z"/>
  <path class="cls-22" d="M408.32,97.57c-.14.81-.27,1.75-.4,2.56-2.02,9.04-8.63,14.43-13.08,18.07-3.51,2.83-3.64,2.29-16.32,9.98-4.58,2.83-7.69,4.85-13.08,8.23-1.78,1.1-3.7,2.35-5.77,3.69v-2.04l.51-.31.59-.38c11.27-12.5,16.29-24.81,18.69-32.26,1.58-4.73,11.72-37.85-5.07-65.62h2.2c.84,1.62,1.61,3.36,2.33,5.21.04,0,2.1,5.21,3.79,13.53,3.67,2.85,6.53,5.41,8.48,7.24,7.58,7.12,14.7,13.4,16.32,23.06.13.81.4,1.89.54,3.37v.13c.4,1.62.4,3.37.27,5.53Z"/>
  <path class="cls-19" d="M408.32,97.57c-.14.81-.27,1.75-.4,2.56-2.02,9.04-8.63,14.43-13.08,18.07-3.51,2.83-3.64,2.29-16.32,9.98-4.58,2.83-7.69,4.85-13.08,8.23-1.78,1.1-3.7,2.35-5.77,3.69v-2.04l.51-.31.59-.38c11.27-12.5,16.29-24.81,18.69-32.26,1.58-4.73,11.72-37.85-5.07-65.62h2.2c.84,1.62,1.61,3.36,2.33,5.21.04,0,2.1,5.21,3.79,13.53,3.67,2.85,6.53,5.41,8.48,7.24,7.58,7.12,14.7,13.4,16.32,23.06.13.81.4,1.89.54,3.37v.13c.4,1.62.4,3.37.27,5.53Z"/>
  <path class="cls-14" d="M475.61,291.75s18.61,111.39-34.25,120.56v-1.08c4.18-.54,7.28-1.75,9.3-2.7,0,0,19.01-9.04,24.68-43.02.94-5.39,1.62-11.73,1.62-11.73,0,0,0-.54.13-1.08,2.16-19.96.67-36.68.67-36.68-.27-3.24-.27-2.56-1.35-13.08-.54-4.99-.94-9.04-1.08-11.73.14.14.27.4.27.54Z"/>
  <path class="cls-14" d="M395.24,226.89c-2.7,8.23-15.51,28.18-39.11,48.82l-1.35-.94c26.43-21.17,41.81-45.31,42.34-62.71.4-11.87-3.51-20.36-3.51-20.36-3.64-7.69-9.17-12.68-13.76-16.86-4.58-4.04-12.41-9.84-14.97-11.73-1.89-1.35-3.37-2.56-4.58-3.24.54.27,9.3,4.85,18.34,12.68,6.2,5.39,17.8,16.18,19.42,31.82.13.67.13,1.35.13,1.75.14,0,.67,9.71-2.97,20.77Z"/>
  <path class="cls-14" d="M426.93,231.47s-1.48,9.17-6.47,18.21c-12.54,22.66-48.41,33.85-53.13,35.2-.14,0-.27.13-.4.13l-.67-.67c.14,0,.27-.13.4-.13,52.19-15.24,61.09-43.96,60.01-64.32,0-.94-.14-1.89-.27-2.7-1.08-11.46-5.26-19.82-5.53-20.36.14,0,.14.14.14.14.14.13.4.27.54.4,1.35,2.83,2.83,6.88,4.05,11.87.54,2.02,1.21,5.12,1.48,9.04.14.81.14,1.75.14,2.7.4,3.24.27,6.74-.27,10.52Z"/>
  <path class="cls-22" d="M212.51,26.36l-.54.27c.13.94,1.08,5.12,2.7,10.79.14.54.27,1.08.54,1.62.67,2.16,1.48,4.58,2.29,7.15,3.24,9.17,8.09,20.09,14.83,29.67v3.78c-7.69-9.04-12.81-19.28-16.32-28.45-.27-.67-.54-1.35-.67-1.89-.11-.44-.51-1.48-1.44-4.22-.23-.67-.53-1.58-.88-2.64-2.97,6.53-4.67,12.33-5.69,16.69,0,0-2.49,10.71-2.05,21.81.07,1.56.28,2.98.28,2.98.03.18.08.45.13.77.38,2.2.36,2.79.55,3.83.22,1.19.28.71,1.27,4.03.34,1.15.43,1.55.8,2.68,0,0,.4,1.28.86,2.56,3.01,8.32,13.7,20.15,13.7,20.15,2.36,2.62,5.57,5.97,9.57,9.71v1.35c-8.76-6.88-17.53-16.18-22.93-28.32-.4-.94-.81-1.89-1.21-2.83-1.48-3.91-2.56-7.96-3.24-12.41-2.09,5.22-4.72,13.97-3.91,24.79.35,4.72,1.02,12.57,6.08,20.88,3.25,5.33,7.11,8.87,9.78,10.98h-1.17c-2.83-2.16-5.66-4.99-8.36-8.63-.27-.4-.54-.81-.81-1.21-5.12-3.24-23.6-15.37-30.34-39.24-1.48-5.26-6.2-21.71.54-38.57.4-1.08.94-2.16,1.48-3.24.27-.54.54-1.08.81-1.62,1.89-3.51,7.82-13.49,26.84-23.06,2.56-1.21,5.26-2.56,8.23-3.78,6.07-2.43,12.14-4.45,18.07-5.93v2.02c-8.23,2.43-14.16,4.99-17.67,6.61-.67.27-1.35.54-2.16.94h.03Z"/>
  <path class="cls-11" d="M212.51,26.36l-.54.27c.13.94,1.08,5.12,2.7,10.79.14.54.27,1.08.54,1.62.67,2.16,1.48,4.58,2.29,7.15,3.24,9.17,8.09,20.09,14.83,29.67v3.78c-7.69-9.04-12.81-19.28-16.32-28.45-.27-.67-.54-1.35-.67-1.89-.11-.44-.51-1.48-1.44-4.22-.23-.67-.53-1.58-.88-2.64-2.97,6.53-4.67,12.33-5.69,16.69,0,0-2.49,10.71-2.05,21.81.07,1.56.28,2.98.28,2.98.03.18.08.45.13.77.38,2.2.36,2.79.55,3.83.22,1.19.28.71,1.27,4.03.34,1.15.43,1.55.8,2.68,0,0,.4,1.28.86,2.56,3.01,8.32,13.7,20.15,13.7,20.15,2.36,2.62,5.57,5.97,9.57,9.71v1.35c-8.76-6.88-17.53-16.18-22.93-28.32-.4-.94-.81-1.89-1.21-2.83-1.48-3.91-2.56-7.96-3.24-12.41-2.09,5.22-4.72,13.97-3.91,24.79.35,4.72,1.02,12.57,6.08,20.88,3.25,5.33,7.11,8.87,9.78,10.98h-1.17c-2.83-2.16-5.66-4.99-8.36-8.63-.27-.4-.54-.81-.81-1.21-5.12-3.24-23.6-15.37-30.34-39.24-1.48-5.26-6.2-21.71.54-38.57.4-1.08.94-2.16,1.48-3.24.27-.54.54-1.08.81-1.62,1.89-3.51,7.82-13.49,26.84-23.06,2.56-1.21,5.26-2.56,8.23-3.78,6.07-2.43,12.14-4.45,18.07-5.93v2.02c-8.23,2.43-14.16,4.99-17.67,6.61-.67.27-1.35.54-2.16.94h.03Z"/>
  <path class="cls-14" d="M430.84,222.71s2.97,74.71-51.24,74.98l-.94-.54c4.72,0,15.64-.54,26.03-7.69,0,0,10.92-7.42,17.4-21.98,1.21-2.7,2.29-5.66,2.29-5.66.54-1.75,1.89-5.66,3.1-11.87,2.29-11.06,3.24-24.81,3.37-27.24Z"/>
  <path class="cls-14" d="M493.68,539.88c-.4,1.75-1.08,3.91-2.29,6.47-.14.4-.27.67-.54,1.08-2.16,4.18-5.66,9.04-11.73,14.16,1.75-2.02,4.18-5.26,6.74-9.3,1.75-2.83,3.1-4.99,4.18-6.74.13-.4.4-.67.54-1.08.67-1.35,1.08-2.7,1.35-4.18.94-5.26-.4-9.3-2.43-15.1-1.62-4.72-3.51-8.36-7.82-15.51-8.09-13.35-7.69-11.46-10.52-16.72-6.34-11.87-5.66-17.13-12.95-27.64-1.89-2.7-3.1-4.18-5.12-6.47-5.8-6.74-9.17-8.63-11.73-9.57-.81-.27-1.48-.54-1.89-.67-.4,4.05-.94,8.09-1.48,12.14-.14.54-.14,1.08-.14,1.62v-16.32c1.62.81,3.91,2.02,6.61,3.91,13.08,9.17,18.74,21.71,21.71,28.32,19.69,42.34,31.02,46.12,27.51,61.63Z"/>
  <path class="cls-14" d="M473.99,372.39v1.75c-.27.4-.54.94-.81,1.48-3.78,6.47-11.73,18.88-20.09,17.8-2.97-.4-4.72-2.29-8.9-6.2-4.58-4.18-11.06-9.98-19.69-16.59-.27-.27-.54-.4-.81-.67-.13-.27-.27-.54-.4-.81-.13-.27-.27-.54-.4-.81.27.27.54.4.94.67,10.11,7.55,17.39,14.02,22.39,18.88,2.02,2.02,3.91,3.78,6.61,4.18,9.03,1.35,17.93-13.76,21.17-19.69Z"/>
  <path class="cls-14" d="M427.6,471.11s-.13-.14-.4-.4c-2.16-2.83-13.76-20.9-24.68-43.69-16.05-33.71-24.68-65.13-29.26-90.35.4-.4.67-.67,1.08-1.08,3.37,16.59,9.57,41.13,20.77,69.31,15.1,37.89,32.9,65.94,32.5,66.21Z"/>
  <path class="cls-22" d="M247.29,14.77l10.09-1.54,9.71-.54,10.84.23h2.76l9.45,1.09,10.82,1.82,9.67,1.74.3.55-.46,3.44-1.94,8.17-1.77,14.36-2.43,10.49-2.25,9.94-2.28,12.31-1.56,9.61-1.09,10.32-.7,12-.49,10.42-.61,10.29-5.7-7.51-3.91-7.01-4.72-7.12-5.95-9.56-5.61-10.21-4.71-10.17-3.74-10.4-3.26-8.85-4.06-14.54-2.06-7.28-2.05-10.83-1.25-5.73-1.04-5.52Z"/>
  <path class="cls-3" d="M247.29,14.77l10.09-1.54,9.71-.54,10.84.23h2.76l9.45,1.09,10.82,1.82,9.67,1.74.3.55-.46,3.44-1.94,8.17-1.77,14.36-2.43,10.49-2.25,9.94-2.28,12.31-1.56,9.61-1.09,10.32-.7,12-.49,10.42-.61,10.29-5.7-7.51-3.91-7.01-4.72-7.12-5.95-9.56-5.61-10.21-4.71-10.17-3.74-10.4-3.26-8.85-4.06-14.54-2.06-7.28-2.05-10.83-1.25-5.73-1.04-5.52Z"/>
  <path class="cls-14" d="M332.8,144.36s28.99-25.76,25.76-74.57c1.35,8.5,2.97,26.43-5.12,46.66-5.26,13.35-12.95,22.66-18.2,28.18-.81-.13-1.62-.27-2.43-.27Z"/>
  <path class="cls-14" d="M408.32,97.57c-.14.81-.27,1.75-.4,2.56-2.02,9.04-8.63,14.43-13.08,18.07-3.51,2.83-3.64,2.29-16.32,9.98-4.58,2.83-7.69,4.86-13.08,8.23-1.78,1.11-3.7,2.35-5.77,3.69-3.76,2.47-8.01,5.31-12.7,8.44-.54.4-1.21.81-1.89,1.21l-2.97-1.08,2.02-1.21,15.54-9.4.51-.31.59-.38.89-.57.67-.4,31.96-19.28c9.8-6.65,11.91-13.89,12.47-16.43,3.69-16.64-14.27-32.92-18.87-37.08-1.97-1.78-3.71-3.13-4.92-4.03-.08-.07-.16-.12-.23-.18.01-.19.01-.44-.05-.76-.05-.26-.15-.46-.23-.61.08.07.16.12.24.19,3.67,2.85,6.53,5.41,8.48,7.24,7.58,7.12,14.7,13.4,16.32,23.06.13.81.4,1.89.54,3.37v.13c.4,1.62.4,3.37.27,5.53Z"/>
  <path class="cls-14" d="M407.99,91.44c.61,2.68,5.6,26.71-11.11,46.19-13.42,15.63-31.61,17.6-35.47,17.92-.47-.24-.94-.49-1.42-.73,3.48-.22,8.35-.85,13.88-2.74.51-.18,11.85-4.05,20.15-12.46,18.07-18.34,14.3-43.15,13.76-45.71.08-.3.16-.63.2-1.01.07-.57.05-1.07.01-1.47h0Z"/>
  <path class="cls-14" d="M201.05,160.54c-.54.27-1.08.54-1.62.81-5.26-1.62-22.66-7.96-33.31-25.76-8.36-14.02-8.5-27.91-8.36-32.63.13-8.77,2.02-16.32,3.1-20.23,1.21-4.45,2.7-10.11,6.2-16.59,2.02-3.91,5.53-9.44,11.33-15.1.81-.81,1.62-1.62,2.56-2.43-.94,1.35-1.89,2.56-2.83,3.91-.4.54-.81,1.21-1.21,1.75-20.23,29.4-22.12,63.92-5.93,85.77,8.9,12.27,21.58,17.8,30.07,20.5Z"/>
  <path class="cls-14" d="M254.05,146.25c-.27.5-.53.98-.8,1.48-3.18.23-22.57,1.35-34.54-11.87-10.87-12-10.52-30.31-10.52-38.03,0-1.21,0-2.43.13-3.51,0-2.16.13-4.32.27-6.61.54-15.51,3.64-28.59,6.74-38.3.54-1.48.94-2.83,1.48-4.18.18.54.35,1.08.53,1.62-.03.19-.08.54-.16.97-.38,2-.99,3.41-1.04,3.63-2.43,8.77-6.88,27.24-6.74,45.71,0,1.21,0,2.43.14,3.78,2.57,25.7,14.79,37.44,14.79,37.44,10.85,9.09,24.88,8.36,29.71,7.88h0Z"/>
  <path class="cls-14" d="M258.5,144.23c-2.02-.81-14.02-5.53-26.16-15.24-8.77-6.88-17.53-16.18-22.93-28.32-.4-.94-.81-1.89-1.21-2.83-1.48-3.91-2.56-7.96-3.24-12.41-.13-.54-.13-1.08-.27-1.62.28-13.43,2.52-27.87,8.09-42.48.45-1.16.9-2.31,1.36-3.43.23.44.45.89.68,1.34-.2.5-.43,1.02-.69,1.56-.35.73-.71,1.4-1.08,2.02-3.78,7.96-9.3,22.52-7.55,38.97.04.44.1.9.14,1.35.4,3.64,1.21,7.28,2.56,11.06.27.94.68,1.89,1.08,2.7,3.78,9.44,9.44,16.32,13.49,21.04,3.1,3.64,6.34,6.88,9.57,9.71,9.84,8.63,19.69,13.75,26.16,16.59h0Z"/>
  <path class="cls-14" d="M311.76,16.66c-.14.81-.27,1.62-.54,2.56-.4-.13-.67-.27-1.08-.27-5.53-1.62-12.27-3.24-19.82-4.32-8.9-1.35-19.15-1.89-30.48-.94-4.05.27-7.82.81-11.46,1.48-.54.13-1.08.13-1.62.27-5.39.94-10.25,2.16-14.43,3.37-8.23,2.43-14.16,4.99-17.67,6.61-.67.27-1.48.67-2.16.94l-.54.27c-.81.4-1.62.67-2.29,1.08-6.2,2.97-11.73,5.66-16.45,9.04-5.53,3.78-9.84,8.36-13.22,14.7-8.49,16.18-4.04,33.04-2.43,39.24,3.24,12.27,9.57,21.58,15.64,28.18,2.02,2.16,4.04,4.05,5.93,5.66,2.02,1.75,3.91,3.24,5.39,4.32.81.54,1.48.94,2.02,1.35v2.02c-2.02-1.21-5.8-3.78-10.25-7.69-.94-.94-2.02-1.89-3.1-2.97-6.47-6.47-13.49-15.91-17.13-28.72-1.48-5.26-6.2-21.71.54-38.57.4-1.08.94-2.16,1.48-3.24.27-.54.54-1.08.81-1.62,1.35-2.56,4.85-8.5,14.16-15.37,3.37-2.56,7.55-5.12,12.68-7.69,2.56-1.21,5.26-2.56,8.23-3.78,6.07-2.43,12.14-4.45,18.07-5.93,21.04-5.39,41.4-5.39,57.99-3.51,7.69.81,14.7,2.02,20.5,3.37.67,0,.94,0,1.21.13Z"/>
  <path class="cls-14" d="M228.83,148.14l-1.35.4c-2.56-.94-7.01-2.83-11.73-6.47-2.83-2.16-5.66-4.99-8.36-8.63-.27-.4-.54-.81-.81-1.21-.81-1.21-1.48-2.29-2.02-3.37-2.56-4.86-3.51-9.04-4.04-11.46-3.82-17.18,3.63-32.45,4.18-33.58.26-.51.47-.94.62-1.21.04.08.11.19.19.32.08.13.11.16.14.22.05.11.08.3-.08.62-.13.36-.35.96-.59,1.67-5.95,17.79-4.32,44.73,12.81,56.64,3.1,2.16,6.74,4.18,11.06,6.07Z"/>
  <path class="cls-14" d="M289.65,119.95c-1.08-.81-2.16-1.62-3.51-2.7-4.18-3.1-9.71-6.88-16.59-10.65-7.01-3.91-10.11-4.85-15.24-7.96,0,0-11.06-6.61-21.31-18.21-.27-.27-.54-.54-.81-.81-7.69-9.04-12.81-19.28-16.32-28.45-.27-.67-.54-1.35-.67-1.89-.81-2.29-1.48-4.32-2.16-6.47-.13-.54-.27-.94-.4-1.48-1.62-5.93-2.56-10.79-3.1-13.75-.14-.54-.14-.94-.27-1.35h2.43v.27c.13.94,1.08,5.12,2.7,10.79.13.54.27,1.08.54,1.62.67,2.16,1.48,4.58,2.29,7.15,3.24,9.17,8.09,20.09,14.83,29.67,5.66,8.09,12.81,15.1,21.58,19.42l30.34,18.74,1.75,1.08,3.91,4.99Z"/>
  <path class="cls-14" d="M307.72,142.47h-1.89c-5.39-4.45-8.9-8.63-11.06-11.6-1.75-2.29-3.1-4.32-4.32-6.47-1.35-2.16-2.56-4.45-4.18-7.15-.54-1.08-1.21-2.02-1.89-3.24-1.21-2.02-2.7-4.32-4.45-7.01-1.89-2.7-2.83-4.05-3.64-5.39-16.05-23.33-24.14-60.41-26.43-71.61-.68-3.1-1.75-8.36-2.83-14.83.54-.13,1.08-.13,1.62-.27.94,8.09,2.43,16.72,4.59,25.49,7.96,33.04,22.52,59.74,37.35,80.37,5.8,8.09,11.73,15.24,17.26,21.44-.13.13-.13.27-.13.27Z"/>
  <path class="cls-14" d="M325.11,44.3c-2.97,9.17-4.99,10.52-9.3,19.96-.27.54-.54,1.21-.81,1.75-7.15,15.91-10.11,29.53-11.87,37.76-1.48,7.15-3.24,16.86-4.04,28.32-.13-.27-.4-.4-.54-.67.94-12.54,3.24-29.4,8.63-46.93,2.16-7.28,3.64-12,6.47-18.34,3.1-6.88,5.8-11.06,10.11-21.58.54-1.35,2.29-5.66,3.64-11.73,1.48-7.01.94-9.84.68-11.06-.27-1.08-1.35-4.99-4.86-7.96-1.35-1.21-2.97-2.56-5.26-2.56-.27,0-2.56,0-4.18,1.62-1.48,1.35-1.75,3.24-1.89,3.78-.27,1.21-.54,2.29-.54,2.56-.4,3.51-1.35,5.8-2.16,10.38-.81,4.32-.67,6.07-1.21,10.25-.4,3.51-1.75,9.84-4.59,22.25-1.75,7.69-2.16,9.57-2.97,13.89-.54,2.83-1.21,6.34-1.75,10.79-1.35,10.11-1.62,15.64-1.62,17.13-.13,3.91,0,6.34-.27,11.46-.27,5.26-.67,9.71-.94,12.54l-.81-1.08c.54-21.71,2.56-39.78,4.58-53.67,2.83-19.28,3.1-11.6,7.28-36.01,1.35-7.69,2.16-13.89,3.37-18.34.27-.81.4-1.62.67-2.43,1.08-3.51,2.56-5.66,4.86-6.2,2.83-.81,6.2,1.08,8.77,3.51.4.4.67.67,1.08,1.08.4.4.68.81,1.08,1.21,5.12,7.55,1.75,18.2-1.62,28.32Z"/>
  <path class="cls-14" d="M315.14,66.01c-2.56,28.99-3.78,50.97-3.51,59.6,0,1.89.27,5.39,2.29,8.9,2.7,4.72,7.28,6.88,10.11,7.96l2.02.27c-2.83-1.08-7.28-3.1-10.25-7.55-3.24-4.58-3.24-9.84-3.24-20.23,0-4.72.4-9.71,1.35-19.69.54-6.07.68-7.01,1.08-11.33.54-7.15.94-13.75,1.08-19.69-.4.54-.67,1.21-.94,1.75Z"/>
  <path class="cls-14" d="M348.58,105.66s-14.7,37.89-22.52,37.22l2.02.54c.94-.54,2.16-1.48,3.51-2.7,1.48-1.35,5.93-5.53,10.92-16.32,2.02-4.59,4.32-10.92,6.07-18.74Z"/>
  <path class="cls-14" d="M362.33,136.4c-.17.19-.35.36-.54.54l-1.48.94c.16-.17.31-.34.46-.51,11.27-12.5,16.29-24.81,18.69-32.26,1.58-4.73,11.72-37.85-5.07-65.62-.44-.74-.92-1.48-1.4-2.21-2.97-4.45-8.36-12.54-19.01-17.94-11.87-6.07-23.33-5.26-28.59-4.58-.27,0-.4,0-.68.13-.54-.4-1.08-.67-1.48-1.08,0,0,.4,0,1.08-.13,5.8-.54,32.63-2.02,48.41,19.55,1.42,1.89,2.7,3.96,3.87,6.26.84,1.62,1.61,3.36,2.33,5.21.04,0,2.1,5.21,3.79,13.53.1.43.19.89.27,1.35,3.57,18.73,4.81,51.51-20.65,76.83Z"/>
  <path class="cls-14" d="M417.89,86.37h-3.1c4.99-8.5,4.99-15.1,4.58-18.61-.13-.54-.13-.94-.27-1.35-2.83-14.56-19.55-22.25-30.48-27.38-6.2-2.97-11.87-4.58-15.78-5.66.94.13,44.23,5.26,47.87,34.12.13.4.13.94.13,1.35.27,4.99-.54,10.79-2.97,17.53Z"/>
  <path class="cls-14" d="M408.99,164.45c-5.35,2.67-11.37,4.54-11.37,4.56-3.65,1.17-6.88,1.96-9.39,2.47-.08-.08-.17-.17-.27-.26-.08-.07-.16-.13-.24-.2,4.53-1.21,10.64-3.17,17.5-6.42,5.02-2.37,12.41-5.91,19.82-12.41,4.32-3.78,15.64-13.89,19.82-31.02,1.35-5.26,3.51-14.56-.13-25.08-1.75-5.26-4.45-9.17-6.47-11.73,0,0-5.93-7.01-17.66-15.64-.4-.27-.94-.67-1.35-1.08,0,0-.14,0-.14-.13,0-.4-.13-.94-.13-1.35.54.27.94.67,1.48,1.08,3.78,2.7,19.15,13.22,24.95,24,9.85,18.21-3.91,42.61-5.66,45.58-9.3,16.99-24.54,24.54-30.75,27.64h-.01Z"/>
  <path class="cls-14" d="M283.71,289.73s-8.36-6.47-6.47-16.99c0,0-12.54-60.28-11.73-64.73.13.13,22.52,62.03,18.21,81.72Z"/>
  <path class="cls-14" d="M295.18,147.6c.27.13.67.4,1.35.81-.4-.27-.94-.54-1.35-.81Z"/>
  <path class="cls-14" d="M364.9,365.38c2.56,5.93,4.86,11.73,7.15,17.53-3.37-7.55-5.39-12.95-7.15-17.53Z"/>
</svg>